<svg xmlns="http://www.w3.org/2000/svg" viewBox="0 0 88.12 42.71"><defs><style>.cls-1{fill:#0a0a0a;}.cls-1,.cls-2,.cls-3{stroke:#000;stroke-miterlimit:10;stroke-width:0.22px;}.cls-1,.cls-2,.cls-3,.cls-4{fill-rule:evenodd;}.cls-2{fill:#fefefe;}.cls-3{fill:#fff;}.cls-4{fill:#e31e24;}</style></defs><g id="Слой_2" data-name="Слой 2"><g id="Слой_1-2" data-name="Слой 1"><g id="_3015442438816" data-name=" 3015442438816"><path class="cls-1" d="M10.61,42c.88-1.83,1.15-5.14,1.47-7.48a47.31,47.31,0,0,0,.53-8.76c0-6.54.84-5.76,2.52-10.92a14.4,14.4,0,0,0,.79-3.75,1.15,1.15,0,0,1,.9.06,2.55,2.55,0,0,0,1.34.13s-.09-.12-.12-.08l-.95-.35c-.47-.11-.79-.17-.94-.65.47-.31,1.25.28,2,.18-.53-.45-1-.27-1.49-.81.48-.34,1.58.18,1.92.13s.2,0,.35-.14l-1.77-.53A15.32,15.32,0,0,0,18.85,6.4c1-1.94.43-1.84,2.75-1.81-.43-.48-1-.39-1.66-.39,1.09-1,2.55,1.22,2.87-1.06a10.62,10.62,0,0,0,0-1.87l.52.89c.86,2.59-.89,5.2-1.66,7.46-.48,1.38,0,.94-1.06,1.67-.77.54-3.56,3-3.55,4.48a18.58,18.58,0,0,1,3.79-4.2c1.54-1.14,3.41-2,4.71-3.48l1.95-2c.69-.87,1.1-1.46,1.86-2.29A9.12,9.12,0,0,0,30.74,2.3l.57-.49a2.72,2.72,0,0,1,2.75,1.37,8.46,8.46,0,0,0-1.92-1c.65,1.07,1.93,1,2.19,2.21a13.57,13.57,0,0,0-2.9-1.46c.16.45.13.33.51.57a10.18,10.18,0,0,1,2.34,1.41c-.76,3.34-2.39,3-3.19,8.19.91-.69.59-1.82,1-2.91s1-1.42,1.3-2.46c.29.09.43.22.58.25.6.12.14.2.53-.09a2.31,2.31,0,0,1-.49-.3c-.27-.25-.21-.09-.31-.48.66.14.84.59,1.5.81-.24-.62-1.1-.81-1.13-1.41,1.55.15,1.82,3.14,1.32,5a23,23,0,0,0-.8,6.37c.83-.73.15-4.29,1-5.55l.74.77c-.15,0-.42-.11-.47-.11-.49,0-.12-.16-.45.2,1.07.29,1.47.38,1.52,1.81a10.43,10.43,0,0,1-.43,3c-.38,1.75.26,2.63-.34,5.55l0,.69a4.66,4.66,0,0,0,.6-2.89c1.26.3,2.94-.52,3.94-1.13C46.69,16.63,44,10,47.61,9.84a7.16,7.16,0,0,0-.7,2.67c.55.27,1,.27,1.33.79a1.65,1.65,0,0,0-1-.36l.68.58c-.32.17-.36.15-.35.33l.54.45a16.46,16.46,0,0,1-.65,4.94,8.65,8.65,0,0,0-2.33-1.43c.59,1.13,1.76.87,2.18,2.08l-1.88-1.05c.43.94,1.24.86,1.56,1.56-.62.37-1.72-1.15-2.23-1.53C45,20,46,20.1,46.44,20.9c-.72,1-4.8,3.93-6,4.7l-7.11,6.52a16,16,0,0,1-1.45,1.24,34.44,34.44,0,0,0-2.69,2.71l-3.14,3.55c-.59.68-1.66,1.6-1.79,2.49l3.53-3.9a7.32,7.32,0,0,0,.52-.76c.35-.48.27-.29.64-.63,1.37-1.27,2.35-2.47,3.88-3.74,2-1.66,3-3.27,5.17-5,.91-.7,1.81-1.67,2.77-2.28,1.57-1,2.81-2.16,4.34-3.24a11.63,11.63,0,0,1,2.56,2.21A14.57,14.57,0,0,0,48.87,26c.42.41.53.84,1.05,1.35l2.77,3.12c2,2.35,1.62,4.46,5.78,7.67,1.44,1.1,3.82,3.8,5.43,4.29a3.83,3.83,0,0,0-1.24-1.23c-1.2-.91-5.61-4.59-6.38-5.48-1.1-1.26-2.45-4.78-4.82-7.24-.4-.41-.84-.8-1.18-1.21s-.64-.85-1.05-1.35l-2.35-2.41c-.24-.2-.48-.36-.71-.55-.41-.33-.39-.26-.6-.67.52-.53,1.07-.87,1.57-1.43.84-.93.55-1.32,1-2.24,1.69.73,4.31,3.83,5,4.06a2.89,2.89,0,0,0-1.15-1.45c.56-1.37,0-1.25-.27-2.55-.13-.55-.46-3.06.17-3.09H52l.07,0c1.1-.49.7-1.51,2.58-1.11A12.75,12.75,0,0,1,58.3,15.5c-.58.55-1.4.61-1.77,1.52.83-.3,1.7-1.46,2.46-.91.07.72-.51,1-.92,1.29l-.28.23-.28.33a3.08,3.08,0,0,0,1.83-1.22c.73,1.17,1.61,3,2.25,4.33l-.18.12c-.59.31-1.23.53-1.53,1.19a4.41,4.41,0,0,0,1.06-.57c.71-.38.89-.47,1.13.21a1.53,1.53,0,0,0-1.65.56c-.66.81-.09,1.1,0,2-2.09-1-3-4-4.32-5.81-.43,1.7-2,.34-3.11,0,.53,1.11,2.23,1.2,3.18,1-.56.9-1.86.68-2.81,1.13.87.7,2.34-.37,3.11-.68.65.9,1.12,2,1.79,2.85a5.73,5.73,0,0,1-3.23,3.16c.32.26-.49.4.59.15a6.47,6.47,0,0,0,2.52-2.25l.43-.54,2.53,2.06c.83.73-.95.53,3.83,3.62a42.4,42.4,0,0,1,3.74,2.38c1.43,1.37,1.08,2.43,1.91,4.43a1.19,1.19,0,0,0,.14-.95,8.51,8.51,0,0,0-1-2.76c-.82-1.3-1.11-1.37-2.58-2.17-1.1-.6-5.07-3-5.35-4.24.3.13,1.48.8,1.77.49a4.41,4.41,0,0,0-.21-2.6c.35.1.76.45,1.16.5h.21l.11,0c.56-1.87-.72-5.26-1.14-7l1.35.94a8,8,0,0,0,1.53.83l.48-1c1,1.43.35,2.76,1.12,4.3.23.47,0,.21.35.42.09-.23-.57-2.79-.57-3.68,0-.38,1.34-4.74.07-8.38-.74-2.12-.89-6,.42-7.91A1.57,1.57,0,0,1,71.21,3c.56,1.4-.22,4.7,1.3,8.32S73.69,18,75.4,22.62c.43,1.17,1,2.16,1.39,3.33A42.7,42.7,0,0,1,78,34.24,18.07,18.07,0,0,0,79.76,42c.2-.31.11-.67-.06-1.11-2-5.19-.89-4.75-1.59-9.53A53.67,53.67,0,0,0,77.19,26c-.41-1.42-1.26-2.89-1.78-4.41-1.12-3.29-1.18-7-2.45-10.07-2-4.93-.5-7.21-1.74-10.85A4.77,4.77,0,0,0,68,2.82c-2.08,3.87-.11,7.78.07,9.81.12,1.35.26,4.54-.42,5.48-.83-.25-.69-1.56-1.08-2.64s-.57-2-.89-3.05c-1.4-4.44-.29-4.28-4.71-7-1-.6-1.32-1.22-2.82-1-2.28.35-3.08,2.72-2.06,5-.8.45-1.08.07-1.85,1.54a6.81,6.81,0,0,0-.82,2.94c-4.09.95-1.67,5-1.61,6.8-.75.05-1.14-.77-1.83-1.28s-1.31-.94-1.87-1.42c.11-1.14.27-2.61.4-3.73.22-1.92,2.5-5.83-1.54-4.73-1.16.31-1.34,1.14-1.9,2.11l-.68-1.12a2.74,2.74,0,0,0-1.48-1c-.1,0-.33,0-.38-.07-.8-.25-.38-.73-1.55-.71-.61,1.91-.23,3.18.19,5.09.57,2.61-.18,1.69,1.07,4.77A13.83,13.83,0,0,1,40,20.24c-.68.35-2.27,1.21-3,.67,0,0-.05-.14-.06-.12l-.18-1.06c-.12-3.19,2-5.07-1.07-7.82a10.39,10.39,0,0,0,.16-3.55c-.25-1.58-.63-1.55-1.53-2.3.44-2,.73-3-1-4s-2.45-.49-3.76.47A29.4,29.4,0,0,1,26.46,5c-2.2,1.23-2.39,1.41-1.79,3.55a21.54,21.54,0,0,1-2.86,1.94c.58-2.58,3.7-7.17,1.23-9.66-.91-.93-1.81-1.08-2.48.25-.89,1.78-.68,3-2.49,6-.58.94-1.26,1.66-1.78,2.38-.9,1.22-.6,1.83-.89,3.41a40,40,0,0,1-2.24,6.06C11.61,22.56,12.47,27,12.21,31c-.16,2.52-.74,5-1.08,7.53L10.61,42Z"/><path class="cls-2" d="M56.76,6.68c.27-1.22.52-1,1.19-1.83C56,5.23,55.75,7.66,56.3,9c.34.84.47.36,1.22.67a4.26,4.26,0,0,1-.37-.89c1.22.82-.25.44,2.26,1.43,2,.8,2.6,1.6,3.5,4.52.8,2.6.89,1.6,1.32,2.51-1.31-3,.27-1.43-.54-2.87l-.28-.53c-.13-.27-.43.07-.07-.13A1.91,1.91,0,0,1,65,13c-.09.67-.25.56-.69,1,.91-.1.92-.15,1.46.43a42.16,42.16,0,0,0-1-4.16c-.65.44-1.16,1-2.09,1l2-1.52C64.32,8,62.56,6.7,61.17,5.89s-2-1.72-3.45-.34C57.18,6,57.52,6.15,56.76,6.68Z"/><path class="cls-2" d="M55,11.3l.12-1a6.17,6.17,0,0,0-1.3,3.52c.11.07,2.64.65,3,.75,2.5.6,2.33,1.23,3.89,4.08.5.9.87,1.83,1.36,2.68.23-.59,0-1,.64-1.32a1,1,0,0,1,1.3.44,34.45,34.45,0,0,0-2.44-7.74,2.06,2.06,0,0,1-1.24,1.14c.36-.86,1.26-1.1.9-2-.75.3-1,1.21-1.83,1.54.55-1.21.86-.9,1.49-2-1.44.63-1,1-2,1.76a2.94,2.94,0,0,1,1.56-2,9.07,9.07,0,0,0-4.63-1.29Z"/><path class="cls-2" d="M42.56,18.05c.94-.59,1.66-2.12,2-3.82a4,4,0,0,0,.18-2.36c-1.07-2.69-3.66-3.37-3.22,1.27.14,1.49.14,3.92,1,4.91Z"/><path class="cls-2" d="M24.87,8.06c.56-.1,1-.88,1.39-1.26s.42-.31.68-.58.27-.48.58-.87a24.28,24.28,0,0,1,2.66-2.72C29.5,3,28,4.39,27.2,5c-1.16.81-3,1.06-2.33,3.07Z"/><path class="cls-3" d="M10.61,42c.88-1.83,1.15-5.14,1.47-7.48a47.31,47.31,0,0,0,.53-8.76c0-6.54.84-5.76,2.52-10.92a14.4,14.4,0,0,0,.79-3.75,1.15,1.15,0,0,1,.9.06,2.55,2.55,0,0,0,1.34.13s-.09-.12-.12-.08l-.95-.35c-.47-.11-.79-.17-.94-.65.47-.31,1.25.28,2,.18-.53-.45-1-.27-1.49-.81.48-.34,1.58.18,1.92.13s.2,0,.35-.14l-1.77-.53A15.32,15.32,0,0,0,18.85,6.4c1-1.94.43-1.84,2.75-1.81-.43-.48-1-.39-1.66-.39,1.09-1,2.55,1.22,2.87-1.06a10.62,10.62,0,0,0,0-1.87l.52.89c.86,2.59-.89,5.2-1.66,7.46-.48,1.38,0,.94-1.06,1.67-.77.54-3.56,3-3.55,4.48a18.58,18.58,0,0,1,3.79-4.2c1.54-1.14,3.41-2,4.71-3.48l1.95-2c.69-.87,1.1-1.46,1.86-2.29A9.12,9.12,0,0,0,30.74,2.3l.57-.49a2.72,2.72,0,0,1,2.75,1.37,8.46,8.46,0,0,0-1.92-1c.65,1.07,1.93,1,2.19,2.21a13.57,13.57,0,0,0-2.9-1.46c.16.45.13.33.51.57a10.18,10.18,0,0,1,2.34,1.41c-.76,3.34-2.39,3-3.19,8.19.91-.69.59-1.82,1-2.91s1-1.42,1.3-2.46c.29.09.43.22.58.25.6.12.14.2.53-.09a2.31,2.31,0,0,1-.49-.3c-.27-.25-.21-.09-.31-.48.66.14.84.59,1.5.81-.24-.62-1.1-.81-1.13-1.41,1.55.15,1.82,3.14,1.32,5a23,23,0,0,0-.8,6.37c.83-.73.15-4.29,1-5.55l.74.77c-.15,0-.42-.11-.47-.11-.49,0-.12-.16-.45.2,1.07.29,1.47.38,1.52,1.81a10.43,10.43,0,0,1-.43,3c-.38,1.75.26,2.63-.34,5.55l0,.69a4.66,4.66,0,0,0,.6-2.89c1.26.3,2.94-.52,3.94-1.13C46.69,16.63,44,10,47.61,9.84a7.16,7.16,0,0,0-.7,2.67c.55.27,1,.27,1.33.79a1.65,1.65,0,0,0-1-.36l.68.58c-.32.17-.36.15-.35.33l.54.45a16.46,16.46,0,0,1-.65,4.94,8.65,8.65,0,0,0-2.33-1.43c.59,1.13,1.76.87,2.18,2.08l-1.88-1.05c.43.94,1.24.86,1.56,1.56-.62.37-1.72-1.15-2.23-1.53C45,20,46,20.1,46.44,20.9c-.72,1-4.8,3.93-6,4.7l-7.11,6.52a16,16,0,0,1-1.45,1.24,34.44,34.44,0,0,0-2.69,2.71l-3.14,3.55c-.59.68-1.66,1.6-1.79,2.49l3.53-3.9a7.32,7.32,0,0,0,.52-.76c.35-.48.27-.29.64-.63,1.37-1.27,2.35-2.47,3.88-3.74,2-1.66,3-3.27,5.17-5,.91-.7,1.81-1.67,2.77-2.28,1.57-1,2.81-2.16,4.34-3.24a11.63,11.63,0,0,1,2.56,2.21A14.57,14.57,0,0,0,48.87,26c.42.41.53.84,1.05,1.35l2.77,3.12c2,2.35,1.62,4.46,5.78,7.67,1.44,1.1,3.82,3.8,5.43,4.29a3.83,3.83,0,0,0-1.24-1.23c-1.2-.91-5.61-4.59-6.38-5.48-1.1-1.26-2.45-4.78-4.82-7.24-.4-.41-.84-.8-1.18-1.21s-.64-.85-1.05-1.35l-2.35-2.41c-.24-.2-.48-.36-.71-.55-.41-.33-.39-.26-.6-.67.52-.53,1.07-.87,1.57-1.43.84-.93.55-1.32,1-2.24,1.69.73,4.31,3.83,5,4.06a2.89,2.89,0,0,0-1.15-1.45c.56-1.37,0-1.25-.27-2.55-.13-.55-.46-3.06.17-3.09H52l.07,0c1.1-.49.7-1.51,2.58-1.11A12.75,12.75,0,0,1,58.3,15.5c-.58.55-1.4.61-1.77,1.52.83-.3,1.7-1.46,2.46-.91.07.72-.51,1-.92,1.29l-.28.23-.28.33a3.08,3.08,0,0,0,1.83-1.22c.73,1.17,1.61,3,2.25,4.33l-.18.12c-.59.31-1.23.53-1.53,1.19a4.41,4.41,0,0,0,1.06-.57c.71-.38.89-.47,1.13.21a1.53,1.53,0,0,0-1.65.56c-.66.81-.09,1.1,0,2-2.09-1-3-4-4.32-5.81-.43,1.7-2,.34-3.11,0,.53,1.11,2.23,1.2,3.18,1-.56.9-1.86.68-2.81,1.13.87.7,2.34-.37,3.11-.68.65.9,1.12,2,1.79,2.85a5.73,5.73,0,0,1-3.23,3.16c.32.26-.49.4.59.15a6.47,6.47,0,0,0,2.52-2.25l.43-.54,2.53,2.06c.83.73-.95.53,3.83,3.62a42.4,42.4,0,0,1,3.74,2.38c1.43,1.37,1.08,2.43,1.91,4.43a1.19,1.19,0,0,0,.14-.95,8.51,8.51,0,0,0-1-2.76c-.82-1.3-1.11-1.37-2.58-2.17-1.1-.6-5.07-3-5.35-4.24.3.13,1.48.8,1.77.49a4.41,4.41,0,0,0-.21-2.6c.35.1.76.45,1.16.5h.21l.11,0c.56-1.87-.72-5.26-1.14-7l1.35.94a8,8,0,0,0,1.53.83l.48-1c1,1.43.35,2.76,1.12,4.3.23.47,0,.21.35.42.09-.23-.57-2.79-.57-3.68,0-.38,1.34-4.74.07-8.38-.74-2.12-.89-6,.42-7.91A1.57,1.57,0,0,1,71.21,3c.56,1.4-.22,4.7,1.3,8.32S73.69,18,75.4,22.62c.43,1.17,1,2.16,1.39,3.33A42.7,42.7,0,0,1,78,34.24,18.07,18.07,0,0,0,79.76,42c.2-.31.11-.67-.06-1.11-2-5.19-.89-4.75-1.59-9.53A53.67,53.67,0,0,0,77.19,26c-.41-1.42-1.26-2.89-1.78-4.41-1.12-3.29-1.18-7-2.45-10.07-2-4.93-.5-7.21-1.74-10.85A4.77,4.77,0,0,0,68,2.82c-2.08,3.87-.11,7.78.07,9.81.12,1.35.26,4.54-.42,5.48-.83-.25-.69-1.56-1.08-2.64s-.57-2-.89-3.05c-1.4-4.44-.29-4.28-4.71-7-1-.6-1.32-1.22-2.82-1-2.28.35-3.08,2.72-2.06,5-.8.45-1.08.07-1.85,1.54a6.81,6.81,0,0,0-.82,2.94c-4.09.95-1.67,5-1.61,6.8-.75.05-1.14-.77-1.83-1.28s-1.31-.94-1.87-1.42c.11-1.14.27-2.61.4-3.73.22-1.92,2.5-5.83-1.54-4.73-1.16.31-1.34,1.14-1.9,2.11l-.68-1.12a2.74,2.74,0,0,0-1.48-1c-.1,0-.33,0-.38-.07-.8-.25-.38-.73-1.55-.71-.61,1.91-.23,3.18.19,5.09.57,2.61-.18,1.69,1.07,4.77A13.83,13.83,0,0,1,40,20.24c-.68.35-2.27,1.21-3,.67,0,0-.05-.14-.06-.12l-.18-1.06c-.12-3.19,2-5.07-1.07-7.82a10.39,10.39,0,0,0,.16-3.55c-.25-1.58-.63-1.55-1.53-2.3.44-2,.73-3-1-4s-2.45-.49-3.76.47A29.4,29.4,0,0,1,26.46,5c-2.2,1.23-2.39,1.41-1.79,3.55a21.54,21.54,0,0,1-2.86,1.94c.58-2.58,3.7-7.17,1.23-9.66-.91-.93-1.81-1.08-2.48.25-.89,1.78-.68,3-2.49,6-.58.94-1.26,1.66-1.78,2.38-.9,1.22-.6,1.83-.89,3.41a40,40,0,0,1-2.24,6.06C11.61,22.56,12.47,27,12.21,31c-.16,2.52-.74,5-1.08,7.53L10.61,42Z"/><path class="cls-2" d="M56.76,6.68c.27-1.22.52-1,1.19-1.83C56,5.23,55.75,7.66,56.3,9c.34.84.47.36,1.22.67a4.26,4.26,0,0,1-.37-.89c1.22.82-.25.44,2.26,1.43,2,.8,2.6,1.6,3.5,4.52.8,2.6.89,1.6,1.32,2.51-1.31-3,.27-1.43-.54-2.87l-.28-.53c-.13-.27-.43.07-.07-.13A1.91,1.91,0,0,1,65,13c-.09.67-.25.56-.69,1,.91-.1.92-.15,1.46.43a42.16,42.16,0,0,0-1-4.16c-.65.44-1.16,1-2.09,1l2-1.52C64.32,8,62.56,6.7,61.17,5.89s-2-1.72-3.45-.34C57.18,6,57.52,6.15,56.76,6.68Z"/><path class="cls-2" d="M55,11.3l.12-1a6.17,6.17,0,0,0-1.3,3.52c.11.07,2.64.65,3,.75,2.5.6,2.33,1.23,3.89,4.08.5.9.87,1.83,1.36,2.68.23-.59,0-1,.64-1.32a1,1,0,0,1,1.3.44,34.45,34.45,0,0,0-2.44-7.74,2.06,2.06,0,0,1-1.24,1.14c.36-.86,1.26-1.1.9-2-.75.3-1,1.21-1.83,1.54.55-1.21.86-.9,1.49-2-1.44.63-1,1-2,1.76a2.94,2.94,0,0,1,1.56-2,9.07,9.07,0,0,0-4.63-1.29Z"/><path class="cls-2" d="M42.56,18.05c.94-.59,1.66-2.12,2-3.82a4,4,0,0,0,.18-2.36c-1.07-2.69-3.66-3.37-3.22,1.27.14,1.49.14,3.92,1,4.91Z"/><path class="cls-2" d="M24.87,8.06c.56-.1,1-.88,1.39-1.26s.42-.31.68-.58.27-.48.58-.87a24.28,24.28,0,0,1,2.66-2.72C29.5,3,28,4.39,27.2,5c-1.16.81-3,1.06-2.33,3.07Z"/><path class="cls-4" d="M45.61,21.06a11.94,11.94,0,0,1,.94-.95l4.83-4.24,3.45-2.55a42.43,42.43,0,0,1,7.83-4.27,24.66,24.66,0,0,1,7.77-1.88,19.88,19.88,0,0,1,6,.8,12.83,12.83,0,0,1,6,3.81,10.09,10.09,0,0,1,1.3,1.94,12.34,12.34,0,0,1-3.83,15.44,18.44,18.44,0,0,1-11.31,3.7,23.66,23.66,0,0,1-7.26-1.53,38.81,38.81,0,0,1-8.59-4.44c-.87-.61-1.68-1.18-2.5-1.82-.31-.24-2-1.62-2.39-2ZM3,20.51a11.23,11.23,0,0,1,1.73-5.8,13.11,13.11,0,0,1,2.06-2.6,6.89,6.89,0,0,1,.73-.69l.75-.64A18.47,18.47,0,0,1,20,7.16c5.72,0,13.22,4.67,17.61,8.29l4,3.55a4.49,4.49,0,0,1,.53.54,4.69,4.69,0,0,0-.53.48c-.36.41-1.14,1-1.57,1.45a56.45,56.45,0,0,1-6.78,5.22,42.12,42.12,0,0,1-10.9,5.16,18.55,18.55,0,0,1-7,.92A16.37,16.37,0,0,1,9.05,31a12,12,0,0,1-2.38-1.67,10.57,10.57,0,0,1-1.43-1.6,6.36,6.36,0,0,1-.4-.57A11.78,11.78,0,0,1,3,20.51ZM0,18.35v1.8a17.21,17.21,0,0,0,.87,3.71A16.48,16.48,0,0,0,4,28.7c.46.48,1.26,1.19,1.76,1.61A21.53,21.53,0,0,0,21.29,35c4.56-.61,9.76-3.12,13.07-5.11,1-.58,1.89-1.19,2.79-1.79l1.32-.95a56.9,56.9,0,0,0,5-4.1c.11-.1.21-.16.32-.26a5.92,5.92,0,0,1,.9-.81c.58.62,1.26,1.14,1.81,1.65l1.84,1.53c5.49,4.38,12.5,8.45,19.78,9.75a19.19,19.19,0,0,0,8.17-.48,18.26,18.26,0,0,0,6.47-3.17,7.46,7.46,0,0,0,1-.79,14.29,14.29,0,0,0,1.66-1.76,13.59,13.59,0,0,0,1.33-2.05A12.72,12.72,0,0,0,88,19.13a13.77,13.77,0,0,0-3.82-7.58,21.38,21.38,0,0,0-3.72-3.08A20.81,20.81,0,0,0,66,5.16C58.34,6.3,51.15,11.38,45.44,16.42l-2.36,2.17a5.47,5.47,0,0,1-.57-.52c-.19-.22-.35-.31-.58-.54l-1.16-1A70.94,70.94,0,0,0,34.6,11.7a48.93,48.93,0,0,0-7-4c-7-3.21-14.13-4.09-20.76,0A18.61,18.61,0,0,0,4.92,9.06a13.66,13.66,0,0,0-1.65,1.6A14.14,14.14,0,0,0,.81,14.79a12.91,12.91,0,0,0-.5,1.67c-.08.36-.24,1.73-.31,1.89Z"/></g></g></g></svg>
