<svg xmlns="http://www.w3.org/2000/svg" viewBox="0 0 50.38 21.95"><defs><style>.cls-1{fill:#2b2a29;fill-rule:evenodd;}</style></defs><g id="Слой_2" data-name="Слой 2"><g id="Слой_1-2" data-name="Слой 1"><path class="cls-1" d="M22.65,11.9c-.49,2.48-6,7.87-10.18,9A9.77,9.77,0,0,1,.68,14.09C-1.29,7,8.9,1.53,17.48,7.34,19.65,8.81,20.77,10.29,22.65,11.9Zm6.27-5.16,1.21-1.2a7.72,7.72,0,0,1,1.24-1.25c11-9.12,19.81.21,18,7.91a8.8,8.8,0,0,1-3.89,5.62c-7.2,3.69-13-2.37-17.73-6.8-.64-.61-.28,0-.54-.61-.35-.75-.45-.12,0-.94-.08-.05-.05.08-.73.33-1.1-2-5.76-6.2-8.67-7.53a12.13,12.13,0,0,0-9.75-.63L5.4,3a1.07,1.07,0,0,0-.17.15c2-.59,3.1-1.54,5.63-1.81,5.8-.6,11.2,3.48,14.5,7.62A43.82,43.82,0,0,0,33,16.15c3.79,2.79,5.68,3.42,11.14,2.6-9,6.06-17.78-3.45-21.27-7.55C21,9,17.32,5.64,13.2,4.66A14.08,14.08,0,0,0,5.86,5C3.33,5.81,2.5,7.2,1.07,8.66A8.58,8.58,0,0,1,2,6.39C-1.9,11-.08,19.7,7.65,21.65c7.2,1.82,13.21-5,15.09-9.13.66.38,0-.12.72.56l4.89,4.61C41,27.8,54.4,15.32,49.26,5.43,44.51-3.69,32.32,0,28.92,6.74Z"/></g></g></svg>