<svg xmlns="http://www.w3.org/2000/svg" viewBox="0 0 50.7 56.9"><defs><style>.cls-1{fill:#ea6053;}.cls-1,.cls-2,.cls-3,.cls-4{fill-rule:evenodd;}.cls-2{fill:#c54236;}.cls-3{fill:#fff;}.cls-4{fill:#020101;}</style></defs><g id="Слой_2" data-name="Слой 2"><g id="Слой_1-2" data-name="Слой 1"><g id="_2979012712048" data-name=" 2979012712048"><path class="cls-1" d="M41.78,40.44c.9,0,1.37,1.67,1.58,2.43A10.56,10.56,0,0,1,42,50.94a9.26,9.26,0,0,1-1,1.13c-1.24,1.42-3.54,2.29-5.34,2.74a23.33,23.33,0,0,1-7.63.54c-1.42-.13-2.76-.22-1.27-1.43.69-.55,1.58-1.35,2.28-1.81a22.43,22.43,0,0,1,2.42-1.58c2.87-1.45,3.64-1.43,6.75-1.35,1.55,0,2.26-.16,2.56-1.56C41.2,45.62,41,42,41.78,40.44Zm-40.1.28c.45.24.49.7.73,1.42C3.66,45.82,5,49.29,9.52,50.29a23.58,23.58,0,0,0,8.08.26c1.33-.2,6.26-1.78,7-1.49-.45.76-1.94,1.22-1.94,2.18,1.06.84,2.68,0,3.31.35,0,.51-.33.82-.67,1.22a3.57,3.57,0,0,0-.81,1.1c.46.26.69.09,1,.31-1.32.9-6.32,2.08-8.34,2.08a21.37,21.37,0,0,1-8.81-1.67C5.59,53.53,4,52.48,2.69,49.86A12.61,12.61,0,0,1,1.51,45.8a19.31,19.31,0,0,1,.17-5.08Zm21.58,2.13c4.48-1.41,8.82.32,12.09,3.08.57.48,2.44,2.17,2.61,2.79-1.26.19-2.22-.35-3.87.12-4.16,1.18-7.21,4.57-8.25,4.51,0-1.32,1.86-2.44,2.45-3.21-.9-.07-3.18,1.16-3.93.58-.14-.16-.12.21-.08-.25.09-.95,2.92-1.93,3.75-2.2.4-.14.42-.09.62-.36a13.08,13.08,0,0,0-2.76.18c-.92.14-2.61.74-2.54.08a.8.8,0,0,1,.16-.32,3.12,3.12,0,0,1,.47-.49A8,8,0,0,1,26.55,46c1.09-.39,1.16-.27,1.29-.81-2.13-.66-4.43.06-5.28-.48.16-.52,1.41-1,1.94-1.17a3.54,3.54,0,0,0,.39-.14,1,1,0,0,0,.21-.11c.17-.11.08,0,.19-.17-.88-.21-1.52,0-2-.31Zm10.08.87-2.08-1c-.72-.35-1.58-.77-1.62-1.57a29.42,29.42,0,0,1,.85-5.41c.5-2.26.48-2.89,2.84-3.36a40.18,40.18,0,0,1,5.34-.73C39,33.22,34.07,34,32.48,36a5.09,5.09,0,0,0-.9,4.15C32,42.24,33.12,43,33.34,43.72ZM26.87,29.29c0-2,.92-10.46,1.87-11.12.58.22,1.06,1.84,1.2,2.43.52,2.21.1,6.26.36,6.91s1.82.38,2.86.38c1.86,0,7,.34,7.87,1.4-.35.95-3.93,1.95-5.31,2.23l-2.21.41c-4.07.66-6.61,1.4-6.64-2.64Zm-11.53-.75a34.7,34.7,0,0,1,5.8,2.13A3.1,3.1,0,0,1,22.42,32c.75,1.41,1,7.83.83,9.78-.05.78-.43.89-1.44,1.18-5.73,1.66-7.3,4.46-11.07,4.83-.54.06-2.13.15-2.39-.33,1.52-.48,3.16,1,2.93-3.68a32.08,32.08,0,0,1,.2-6.52c.55-2.74,1.06-1.62,1.86-.18l2,3.06c1.1,1.36,2.32,2.92,4.09,2.51,2.74-.62,2.91-5,2.54-7.22a6.25,6.25,0,0,0-2.56-4.19c-1.61-1.25-3.2-1.81-4.05-2.73Zm27-4.18c1-.72,6.68-.86,7.43.09-.38.38-1.35.5-1.92.7-3,1.08-3.54,3.16-4.58,3.27a15.1,15.1,0,0,1-.4-2.12,10.07,10.07,0,0,1-.53-1.94Zm-20,2.28c.45-.69.85-4,1.25-5.16s1.43-3.76,2.54-3.85c.63,1.06-.3,8.74-.47,9.62-.63,3.23-1.28,3.8-4.87,2.73a40.66,40.66,0,0,1-6.19-2.44C13.44,27,9.75,25,9.41,24.26c1.88-.16,7.86.91,10,1.56a9.13,9.13,0,0,0,2.94.82ZM30,15.18c0-.62,1.74-2.22,2.61-3.59,1.05-1.67,1.54-3.75,1.87-4.16a21.8,21.8,0,0,1,.16,6.21A1.83,1.83,0,0,1,33,15.19a6.83,6.83,0,0,1-2.95,0ZM6.7,17.57c-.31.47-.57,1-1.14,1.1a47.72,47.72,0,0,0-1.83-4.78C3,12.56,1.22,10.21,1.16,9.8c1.41.06,5.26,2.4,6.07,3.12C8.8,14.32,8.06,15.49,6.7,17.57Zm19.38-6.83c-.8.33-2.65-.45-3.41-.76-1.2-.49-1.35-.81-.79-3,.35-1.42,2-5.5,3-5.63.22.7-.09,4,.1,5.27C25.33,8.76,26.34,10.09,26.08,10.74Zm13.22,20,3.85-1.72c1.71-.81,6.08-2.81,7.23-4,1.85-2-4.83-3.43-6.54-4a5.22,5.22,0,0,1-3.28-2.4c-2.73-3.69-4.39-2.38-4.38-7.75,0-3.4-.46-6.63-3.32-3-1.5,1.89-3.23,5.93-4.16,8.56-.1.29-.2.52-.32.85a21.42,21.42,0,0,0-1,3.67c-.33,1.92-1.8,9.52-.36,11.11.69.76,1.7.58,2.78.79a20,20,0,0,1-1.12,6.65c-1.22,3.56-1,2.21-3.89,2.75-1.11.21-.82,0-1.1-1.29-.57-2.61.57-5.7-.83-9.06-.18-.43-.43-.7-.42-1.11,2.18.26,2.82,0,3.53-3.17a36.61,36.61,0,0,0,.67-6.3C27,14.3,28,9.16,26.18,2.17,25.38-1,24.39-.3,23,1.68S20.32,7,19.24,8.33c-.57.72-1.21.85-2.37,1.09a16.09,16.09,0,0,0-5,2c-1,.5-1.73,0-2.67-.35l-2.54-.94A20.84,20.84,0,0,0,1.27,8.58c-2.37,0-.83,2.87-.09,4.49,2,4.37,4.58,9.78,8.58,12.26,2.17,1.35,1.26,1-1.59,3.06A19.34,19.34,0,0,0,1.87,36a21,21,0,0,0-.66,12.09c1,3.81,3.34,5.65,6.8,7.09A22.13,22.13,0,0,0,20,56.6a13.73,13.73,0,0,0,2.63-.84c1.4-.57,1.37-.36,2.89-.15,5.46.73,13.17.45,16.42-3.8,2.42-3.17,2.65-6.73,1.33-11-.55-1.81-1.11-3.5-1.76-5.19-.34-.88-.68-1.64-1.06-2.42C40.1,32.58,39.25,31.47,39.3,30.79Z"/><path class="cls-2" d="M1.68,40.72a19.31,19.31,0,0,0-.17,5.08,12.61,12.61,0,0,0,1.18,4.06c1.32,2.62,2.9,3.67,5.66,4.77a21.37,21.37,0,0,0,8.81,1.67c2,0,7-1.18,8.34-2.08-.3-.22-.53,0-1-.31a3.57,3.57,0,0,1,.81-1.1c.34-.4.71-.71.67-1.22-.63-.35-2.25.49-3.31-.35,0-1,1.49-1.42,1.94-2.18-.76-.29-5.69,1.29-7,1.49a23.58,23.58,0,0,1-8.08-.26c-4.56-1-5.86-4.47-7.11-8.15-.24-.72-.28-1.18-.73-1.42Z"/><path class="cls-2" d="M41.78,40.44c-.8,1.56-.58,5.18-1,7.18-.3,1.4-1,1.61-2.56,1.56-3.11-.08-3.88-.1-6.75,1.35A22.43,22.43,0,0,0,29,52.11c-.7.46-1.59,1.26-2.28,1.81-1.49,1.21-.15,1.3,1.27,1.43a23.33,23.33,0,0,0,7.63-.54c1.8-.45,4.1-1.32,5.34-2.74a9.26,9.26,0,0,0,1-1.13,10.56,10.56,0,0,0,1.38-8.07C43.15,42.11,42.68,40.48,41.78,40.44Z"/><path class="cls-3" d="M25.89,48.09a13.08,13.08,0,0,1,2.76-.18c-.2.27-.22.22-.62.36-.83.27-3.66,1.25-3.75,2.2,0,.46-.06.09.08.25.75.58,3-.65,3.93-.58-.59.77-2.42,1.89-2.45,3.21,1,.06,4.09-3.33,8.25-4.51,1.65-.47,2.61.07,3.87-.12-.17-.62-2-2.31-2.61-2.79-3.27-2.76-7.61-4.49-12.09-3.08.51.35,1.15.1,2,.31-.11.13,0,.06-.19.17a1,1,0,0,1-.21.11,3.54,3.54,0,0,1-.39.14c-.53.21-1.78.65-1.94,1.17.85.54,3.15-.18,5.28.48-.13.54-.2.42-1.29.81A8,8,0,0,0,24,47.36a3.12,3.12,0,0,0-.47.49.8.8,0,0,0-.16.32c-.07.66,1.62.06,2.54-.08Z"/><path class="cls-3" d="M27.47,30.12c.64-.59,2.43,1.18,1.9,1.69-.37.35-1.33,0-1.58-.21S27.06,30.49,27.47,30.12Zm6.08.86c0-1.21,2.85-.75,3.15-.63A11.22,11.22,0,0,1,33.55,31Zm-5.68-5.05c-.21-.49-.06-.74,0-1.28s0-.94,0-1.44a2.46,2.46,0,0,1,.47,1.39c.15,1.12.06,1.33-.52,1.33Zm-1,3.36c0,4,2.57,3.3,6.64,2.64l2.21-.41c1.38-.28,5-1.28,5.31-2.23-.83-1.06-6-1.4-7.87-1.4-1,0-2.57.37-2.86-.38s.16-4.7-.36-6.91c-.14-.59-.62-2.21-1.2-2.43-.95.66-1.88,9.11-1.87,11.12Z"/><path class="cls-3" d="M22.41,29.92c0-.55.42-.73.88-1a1.91,1.91,0,0,1,1.49-.37A1.45,1.45,0,0,1,22.41,29.92Zm-6.29-3.27a2.08,2.08,0,0,0-.85-.14c-.14,0-.41,0-.53,0-.55-.06-.15,0-.36-.14.83-.24,3.37-.65,3.19.66C16.9,27.14,16.64,26.86,16.12,26.65Zm8.62-3.71c-.6-.7.08-2.2,1.11-2.52-.2.54-.47.55-.7,1.18C25,22.07,25.06,22.6,24.74,22.94Zm-2.42,3.7a9.13,9.13,0,0,1-2.94-.82c-2.11-.65-8.09-1.72-10-1.56.34.76,4,2.72,5.17,3.28A40.66,40.66,0,0,0,20.77,30c3.59,1.07,4.24.5,4.87-2.73.17-.88,1.1-8.56.47-9.62-1.11.09-2.14,2.63-2.54,3.85s-.8,4.47-1.25,5.16Z"/><path class="cls-2" d="M11.76,41c0-1.09-.14-3.26.56-3.81.51.22.95,1.24,1.3,1.77,1.51,2.26,3.79,4,4.14,4.67-1.07-.1-1.79-1.1-2.62-.93l.15,2c-1-.16-1-1.25-1.84-1.43-.23.8-.31,2.53-.81,3.1-.85-.43-.88-4.21-.88-5.37Zm3.58-12.43c.85.92,2.44,1.48,4.05,2.73A6.25,6.25,0,0,1,22,35.46c.37,2.19.2,6.6-2.54,7.22-1.77.41-3-1.15-4.09-2.51l-2-3.06c-.8-1.44-1.31-2.56-1.86.18a32.08,32.08,0,0,0-.2,6.52c.23,4.66-1.41,3.2-2.93,3.68.26.48,1.85.39,2.39.33,3.77-.37,5.34-3.17,11.07-4.83,1-.29,1.39-.4,1.44-1.18.13-2-.08-8.37-.83-9.78a3.1,3.1,0,0,0-1.28-1.36,34.7,34.7,0,0,0-5.8-2.13Z"/><path class="cls-2" d="M33.34,43.72c-.22-.68-1.34-1.48-1.76-3.6a5.09,5.09,0,0,1,.9-4.15c1.59-2,6.56-2.75,6.19-4.29a40.18,40.18,0,0,0-5.34.73c-2.36.47-2.34,1.1-2.84,3.36a29.42,29.42,0,0,0-.85,5.41c0,.8.9,1.22,1.62,1.57Z"/><path class="cls-3" d="M5.56,18.67c.57-.11.83-.63,1.14-1.1,1.36-2.08,2.1-3.25.53-4.65C6.42,12.2,2.57,9.86,1.16,9.8c.06.41,1.87,2.76,2.57,4.09A47.72,47.72,0,0,1,5.56,18.67Z"/><path class="cls-3" d="M26.08,10.74c.26-.65-.75-2-1.06-4.15-.19-1.31.12-4.57-.1-5.27-1,.13-2.69,4.21-3,5.63-.56,2.22-.41,2.54.79,3C23.43,10.29,25.28,11.07,26.08,10.74Z"/><path class="cls-3" d="M11.76,41c0,1.16,0,4.94.88,5.37.5-.57.58-2.3.81-3.1.82.18.81,1.27,1.84,1.43l-.15-2c.83-.17,1.55.83,2.62.93-.35-.72-2.63-2.41-4.14-4.67-.35-.53-.79-1.55-1.3-1.77-.7.55-.56,2.72-.56,3.81Z"/><path class="cls-3" d="M30,15.18a6.83,6.83,0,0,0,2.95,0,1.83,1.83,0,0,0,1.69-1.55,21.8,21.8,0,0,0-.16-6.21c-.33.41-.82,2.49-1.87,4.16C31.75,13,30,14.56,30,15.18Z"/><path class="cls-3" d="M42.36,24.36a10.07,10.07,0,0,0,.53,1.94,15.1,15.1,0,0,0,.4,2.12c1-.11,1.54-2.19,4.58-3.27.57-.2,1.54-.32,1.92-.7-.75-.95-6.42-.81-7.43-.09Z"/><path class="cls-4" d="M22.41,29.92a1.45,1.45,0,0,0,2.37-1.41,1.91,1.91,0,0,0-1.49.37C22.83,29.19,22.45,29.37,22.41,29.92Z"/><path class="cls-4" d="M27.47,30.12c-.41.37.08,1.28.32,1.48s1.21.56,1.58.21C29.9,31.3,28.11,29.53,27.47,30.12Z"/><path class="cls-4" d="M33.55,31a11.22,11.22,0,0,0,3.15-.63C36.4,30.23,33.59,29.77,33.55,31Z"/><path class="cls-4" d="M14.38,26.4c.21.16-.19.08.36.14.12,0,.39,0,.53,0a2.08,2.08,0,0,1,.85.14c.52.21.78.49,1.45.41C17.75,25.75,15.21,26.16,14.38,26.4Z"/><path class="cls-4" d="M27.87,25.93c.58,0,.67-.21.52-1.33a2.46,2.46,0,0,0-.47-1.39c-.06.5,0,.9,0,1.44s-.23.79,0,1.28Z"/><path class="cls-4" d="M24.74,22.94c.32-.34.25-.87.41-1.34.23-.63.5-.64.7-1.18C24.82,20.74,24.14,22.24,24.74,22.94Z"/></g></g></g></svg>