<svg xmlns="http://www.w3.org/2000/svg" viewBox="0 0 56.45 49.76"><defs><style>.cls-1{fill:#300e05;}.cls-1,.cls-10,.cls-2,.cls-3,.cls-4,.cls-5,.cls-6,.cls-7,.cls-8,.cls-9{fill-rule:evenodd;}.cls-2{fill:#fbecd6;}.cls-3{fill:#e98b3e;}.cls-4{fill:#f0c796;}.cls-5{fill:#a57354;}.cls-6{fill:#eea860;}.cls-7{fill:#4d4e4c;}.cls-8{fill:#fefdfd;}.cls-9{fill:#c2a78a;}.cls-10{fill:#86533a;}</style></defs><g id="Слой_2" data-name="Слой 2"><g id="Слой_1-2" data-name="Слой 1"><g id="_2979171888752" data-name=" 2979171888752"><path class="cls-1" d="M26.71,29.25l-.27,3.13c-1.14-.52-.77-.78-1.2-1.18-.55.05-.78.43-1.28.72a1,1,0,0,1-.4.66c-.29-.91.06-.75,0-1.44a3.9,3.9,0,0,0-1.91.72,4,4,0,0,1,1.21-1.56c1-.79,1.45-.63,1.77-1.06-.19-.67-.3-.15-.64-.81a5.9,5.9,0,0,0,2.84.11l-.12.71Zm19.34-4.54c.93,1.16-.61,4.26-1.95,3.38a1,1,0,0,1-.27-1.1c.2-.54.94-.72,1.56-1.36A9.21,9.21,0,0,0,46.05,24.71ZM3.66,26.16a1,1,0,0,1,1.27-.72C5,26.15,4.29,26.33,3.66,26.16ZM43,23.21c1-.44.69,1.49.22,1.85C42.36,25.74,42.31,23.54,43,23.21ZM21,23.51c.39-.84.62-.6,1.23-1s.3-.69.65-.92c.56-.36.3-.07.37-.06.43,1.54-1.22,2-2.25,2Zm26.33-1.16c1.3.59,1,4.21-.71,5.26a5.17,5.17,0,0,0,.15-3.12,8.92,8.92,0,0,0-1-2.35,2.57,2.57,0,0,1-.44-.29c-.63-.47-.78-.31-1.37-.56,1.33-.7,1.91-.63,2.79.27.36.36.43.29.61.79Zm.31-1.69c-1.06-.9-.48-.15-1.05-1.17a5.66,5.66,0,0,1-.79-.13L45.3,19c.21-.35.18-.29.57-.44,1,.55,2.84,2,3,3.15A9.23,9.23,0,0,1,47.59,20.66ZM15.42,48.36a43.68,43.68,0,0,1,1.52-4.15,24.65,24.65,0,0,0,1.13-4.73c.56-.23,1.07,0,1.3-.59h-.59a21.9,21.9,0,0,1-5.52.23A8.58,8.58,0,0,1,9,37.37a9.85,9.85,0,0,1-3.26-8.64c0-1-.48-.15-1.4-.5A1.29,1.29,0,0,1,3.47,27l0-.47c2.64.36,2-2.24.47-1.21l-.61.62L3.3,26c-.94-.75-.42-1.8.38-2.32,1.07-.68,2.05-.17,2.89.17.18-.24.09-.07-.15-.25l-.36-.22a1.88,1.88,0,0,0-.89-.24c-2.81-.18-3.28,2.33-2,3.15-.19,1.52.23,2.71,2,2.59l0,1.3v.78L2.89,29A7.86,7.86,0,0,1,.5,24.36c-.12-3.43,4.83-3.62,7.92-3.55-.21.6-.4.74-.06,1.29a1.12,1.12,0,0,0,1.27,0,10.66,10.66,0,0,0,.81-.83l.13-.12c.67-.58.59-.58.58-1.44a29.64,29.64,0,0,1,3.54-2.6c.65-.4,1.22-.77,1.87-1.13s1.67-.73,1.76-1.19a6.93,6.93,0,0,0-1.67.6,11.29,11.29,0,0,1-1.44.77,11,11,0,0,1-1.61,1.08,8.44,8.44,0,0,1-.8.53,1.62,1.62,0,0,1-1-.23c-.41,0-.34.07-.5-.39-1.84-5.38,5.31-4.31,8.05-4,0,0-1.11,1.75.83,1.58a3.39,3.39,0,0,0,.72-.31,6.24,6.24,0,0,1,.95-.27c1.18-.34.11-.51,2-.26a11.54,11.54,0,0,1,6.81,3,9.86,9.86,0,0,1,2.08,2.9,10.4,10.4,0,0,0-1.54.89c-.88.53-4.18,2.67-4.83,2.87l-.09-.54c.34-.41.3.07.36-.53-.28-.16-.87.05-1.16.21,0,.07.65.67.36,1.25a1.32,1.32,0,0,1-1.08.49l-1.22-1.68c.38-.73.26-1.7-.55-1.82-.79.3-.53.9-1.17,1.25s-1.27.48-1.28,1.25c.63.92,1.82.12,2.65-.12a2.6,2.6,0,0,1,1.06,1.38c-.22.81-1.4,1.92-2.53,1.42v-.73c-.37.13-.23.24-.6.48s-.53,0-.53.59c.56.24.25-.2.78,0-.1.39-1.74,1.45-2.71,2.53a6.46,6.46,0,0,0-1.89,3.5,2,2,0,0,0,.95,2,9,9,0,0,0,2.13.88,24,24,0,0,0,4.34.21,6.5,6.5,0,0,1,2.07,0c.31.23.21,1.66.15,2.08-.34.29-1.33.88-1.32,0,0-.35.22-.67-.33-.61-.37.05-.39.32-.44.72a.8.8,0,0,0,.36.68l.2.16.06.06c1.16-.06,1.1,0,1.8-.71a1.2,1.2,0,0,1,.66.35,2.72,2.72,0,0,1-.56,1.1c-.62.09-1.07-.24-.87.65a1.08,1.08,0,0,0,1.37-.25c.47-.54.36-1,.63-1.39l.31.07c0,.36-.21.35-.61,1a5.58,5.58,0,0,0,1.22,7.55c.38.27.77.42,1.06.65.49.15.93.35,1.5.5l-.18,1.39.64.08H32l.32-.13h-.57L32,48.44c3.14-.14,2.68.33,5.5-1.28,1.19-.67.69.27,1.52.1.5-.28-.06-.87-.1-1.5-.49-.38-.3-.72-1.14-.54s-.83.86-1.34,1.26a8.84,8.84,0,0,1-2.68-3.31l-.45-1.09,0-.08c-.11-.2,0-.11-.17-.24a5.11,5.11,0,0,0,1.11,3.17,4,4,0,0,1,.58.91,2,2,0,0,1,.14,1c-.11.54,0,.21-.19.4-.56-.11-.26,0-.55-.49l-.31.12L33.7,48c-2.62-.22-3.66-.37-5.23-1.91-2.82-2.75-.68-11.48,7.31-7.74.19.09.4.22.6.32.67.33.58,0,.64-.09-.21,0-1.2-.71-1.66-.93A7.5,7.5,0,0,0,33.24,37a6.61,6.61,0,0,0-2.39.06,4.4,4.4,0,0,0-1.73.86L29,38A.18.18,0,0,1,29,38c-.31.4-1.72-.19-2-.54-.45-.69,0-6.82.21-8.27.1-.74.5-1.81.27-2.35A3.73,3.73,0,0,0,26.94,28l-.81.19L25.79,27c-1.14-.14-5,2.63-5.84,2.79.23-.91,1.81-1.94,2.62-2.51s.47-.13,1.16-.24c.6-.44.13-.6.95-1,.64-.32.65-.16.93-.59l.09-.15a.3.3,0,0,1,0-.08c.77.17.78-.3.81-1.09l2.75-1.62c1.36-.82,6.65-4.36,8.37-4.46a3,3,0,0,0,.21-.32s-.07-.06-.09,0-.06,0-.08,0c-.62-.08.36,0-.17,0s-.82.28-1.14.17c0-.36-.21-.27.67-.67a5,5,0,0,1,1-.37l-.07,0a15.22,15.22,0,0,1,0-6c.14-.55.2-.5.32-.62l.19.46s0,.36,0,.37c0,.29,0,.57.06.86.16,1.82.57,3.19.76,4.7h1.43c.06.26.22.63.31,1l.06-.32a2.55,2.55,0,0,0-.7-1.61c.54,0,.36.31,1,.13,0-.44-1.23-2.69-.69-4.53.35.76.36,1.92,1.09,2.4.47-.25.47-.59,1.07-.9A3.32,3.32,0,0,0,43,15.06c.57-.05.53-.4,1.37-.21-.11.48-.87.82-.75,1.93.49.31.52.11,1,.58a4,4,0,0,1,.7.89l-.05.07c-.5.76-.45.56-.62.51l-.91-.27.09.14c.32.29.95.52,1.33.89-1.83.76-2.75,1.05-3.51,2.83-1,2.25.1,3.43.84,5.08a2.65,2.65,0,0,0,1.79,1.42,4.27,4.27,0,0,0,1.82-.4,4,4,0,0,0,1.35-1c1-.91,1.09-1.63,1.47-3.16.05-.88,0-.76-.48-1.23a11.34,11.34,0,0,0-1.31-1.81c-.36-.38-.67-.53-.7-.78.64.09,3.92,3.33,4.16,3.87a14.11,14.11,0,0,1,2.46,3.33c1.14,1.08.48,1.87-.3,3A20.71,20.71,0,0,1,47,36.72a5.82,5.82,0,0,1-1.5.78c-.14.19,0,.06-.26.25a1.64,1.64,0,0,1-.3.14l-.7.31c.07.1-.05.27.78,0a3.88,3.88,0,0,1,.81-.21,11.69,11.69,0,0,0,2.72,4.08c.25.23.37.46.64.69.48.4,1.08.72,1.59,1.17l.32.3.21.34a1.23,1.23,0,0,1,.32.9l-.86-.15a3.28,3.28,0,0,1,.43,1.13c-.6,0-2,.47-2.76.6a19.13,19.13,0,0,1-3.39.22,3.79,3.79,0,0,0,0-2.36c0,.38,0,1-.2,1.26a4.18,4.18,0,0,1-1,2.23,1.84,1.84,0,0,1-.48.77c1.07-.15,1-.56,1.47-1.38.84-.1,1.77,0,2.67-.12A17.64,17.64,0,0,0,52,46.61a4.9,4.9,0,0,0,1.61-1.15c.49.34.82.62,1.4.17,0-.49-.17-.21-.3-.58-.07-.18,0-.11,0-.2.49-.18.84,0,1.37-.05a2.28,2.28,0,0,0,0-.57c0-.15.78-.73-.4-1-.85-.21-.11.09-.66-.4-.87,0-1.41.92-1.67,1.64-3.19-.73-6.69-4.4-7.08-6.74a20,20,0,0,0,7-6.91l.33.4a.75.75,0,0,0,.36.31c1.59.83,2.47-1.48,1.08-1.28-.28.38-.08.34-.26.71-.77.05-.78-.1-1.15-.57l.46-1.12c.38.11,1.6.67,2.16-.38S55.54,27,55.23,28c0,.47.35.07.49.58-1.16,1.09-1.74-.45-1.93-.77a34.55,34.55,0,0,0-2.72-3.75c-2.1-2.52-1.07-.53-2.24-4.22a25.63,25.63,0,0,0-4.56-8.46,16.7,16.7,0,0,0-1.56-1.67,9.12,9.12,0,0,0-1.86-1.39c-3.16-1.79-4.45.43-4.88,3.78a43,43,0,0,0-.07,6,30,30,0,0,1-2.79,1.39c-.3-.89-.78-1.13-.81-1.54.51-.07,1,0,1.31,0s.65-.39.29-.64-1.63.23-2.06.26l-.63-.78a4.18,4.18,0,0,1,.67-.73c1.11-1-.51-1.42-.92.45a10.28,10.28,0,0,1-1.11-.86c-3.14-2.34-5.83-1.92-7-2.38-.47-.18-.43-.51-1.34-.58-.66,0-1,.15-1.64.08-2.25-.26-4.69-.75-6.9-.08-3,.9-2.4,3.11-2.13,4.69-5.63-1.33-6.12-7.3-2.16-6.78,1.54.2,1.46,1.59,1.67,1.9a.38.38,0,0,0,.34.23c1.37.18.36-3.26-2.55-3.05C4.87,9.92,4,13.8,7.77,16.56c2.59,1.9,3.24.85,3.73,2.31a1.67,1.67,0,0,0-.64.57c-1.18-.05-1.6.11-2,.9-2.66,0-4.88-.11-7.07,1-3.89,2-.58,7,1.8,8.93,3.09,2.52.9.21,2.37,3.65a22.63,22.63,0,0,0,1.43,2.51c-.78.33-2.39.24-1.92,1.29.73.23,1.54-.56,2.31-.81a4.87,4.87,0,0,0,1,.83c-.24.54-1.13,1.53-.74,2.35,1,.56.85-1.08,1.16-1.93,3.74,1.81,4,1.61,8.31,1.38a23.63,23.63,0,0,1-1.82,6.55,14.38,14.38,0,0,0-.82,2l.41.16s.06,0,.09,0Z"/><path class="cls-2" d="M11.06,37.25l1.21.11c.34-.86.76-1.84,1.88-1.8a1.72,1.72,0,0,1,1.55,1.8,13,13,0,0,1-3.48.17l-.11.93a1.37,1.37,0,0,1-.59-.14c-.35-.14-.19,0-.42-.27l0-.77a5.38,5.38,0,0,1-3.27-1.71c.47-.54,1.11-1.51,2.27-.84a2.43,2.43,0,0,1,.94,2.52ZM11,31.39a2.67,2.67,0,0,1-2,.11l-.08.27-.19-.32-.48-.73a3.32,3.32,0,0,1,.07-2.64,9.08,9.08,0,0,1,1.57-2.66c1.48-1.9,4.65-3.34,6-2.35,1.41.14,2.32.78,2.11,2.31a6.11,6.11,0,0,1-1.6,2.79A10.22,10.22,0,0,1,11,31.39ZM28.2,15.92c2.53,3-4.27,5.78-5.89,2.61-.9-1.78.85-3.33,2.14-3.61,1.59-.36,4.1.16,4.56,1.29A4.38,4.38,0,0,1,28.2,15.92Zm-8-1.16c.18.38.45.61.27,1.13a1.12,1.12,0,0,1-.75.63,11.22,11.22,0,0,1-2.55.2l.07.08.15.14.07.06c.4.32.29.13.52.55.74.34.43,1.52,0,1.86a3.54,3.54,0,0,1-2.35.28l-2.06-.47a6.25,6.25,0,0,1,.58,1.05c.88,1.58-1,2.89-2.49,2a1.13,1.13,0,0,1-.57-.47c-.24-.34-.18-.54-.58-.46a10.66,10.66,0,0,1-.81.83,1.12,1.12,0,0,1-1.27,0c-.47.13-1.26,1.54-1.43,2l-.36-.35c-.84-.34-1.82-.85-2.89-.17-.8.52-1.32,1.57-.38,2.32l.05-.06L4,25.27c1.54-1,2.17,1.57-.47,1.21l0,.47c.4.33.59.71,1.36.45s.76-.57,1.29-.8c-.06.42-.17.67-.24,1.07l-.09.85s0,.12,0,.11,0,.07,0,.1A9.85,9.85,0,0,0,9,37.37a8.58,8.58,0,0,0,4.25,1.76,22,22,0,0,0,5.53-.23l.66-.22c-.61-.37-2.61.15-3.42.22l-.15-1.58c.26-.13,1.85-.48,3.07-1-.66-.57-1.2-.45-1.83-1.29a2.59,2.59,0,0,1-.34-2.48,6.46,6.46,0,0,1,1.89-3.5c1-1.08,2.61-2.14,2.71-2.53-.53-.2-.22.24-.78,0,0-.54,0-.29.53-.59s.23-.35.6-.48v.73c1.13.5,2.31-.61,2.53-1.42a2.6,2.6,0,0,0-1.06-1.38c-.83.24-2,1-2.65.12,0-.77.67-.91,1.28-1.25s.38-1,1.17-1.25c.81.12.93,1.09.55,1.82l1.22,1.68A1.32,1.32,0,0,0,25.83,24c.29-.58-.32-1.18-.36-1.25.29-.16.88-.37,1.16-.21-.06.6,0,.12-.36.53l.09.54c.65-.2,3.95-2.34,4.83-2.87a10.4,10.4,0,0,1,1.54-.89A9.86,9.86,0,0,0,30.65,17a11.54,11.54,0,0,0-6.81-3c-1.89-.25-.82-.08-2,.26a5.93,5.93,0,0,0-.95.27,3.39,3.39,0,0,1-.72.31Z"/><path class="cls-3" d="M32.51,27.18c.35-.8,2.38-1,2.56-.16.14.64-.59.77-1.2.64a12.9,12.9,0,0,1-1.36-.48ZM38.1,16.8a5,5,0,0,0-1,.37c-.88.4-.65.31-.67.67.32.11.71-.17,1.14-.17s-.45-.06.17,0c0,0,.07,0,.08,0s.06,0,.09,0a3,3,0,0,1-.21.32,4.19,4.19,0,0,1,.62,0l.18.05s.07.06.09,0,0,0,.07,0a2.11,2.11,0,0,1,2.15-.35,5.7,5.7,0,0,1-.83.89c-.38.41-.48.59-1.24.44a.81.81,0,0,1-.18-.62l-.4,1.12a8,8,0,0,1,1.66,1.21A7.5,7.5,0,0,1,37.72,22c-.61.32-.74,1.79-.81,2.47-.78,0-2.65-.51-3.25-.19-.29.15-.64.59-1,.82a2.6,2.6,0,0,1-1.09.68c-.19-.69-.65-1.1-.79-1.84l-1.95.25.44-1.67-2.75,1.62c0,.79,0,1.26-.81,1.09l0,.46,1,0c.14.65-.31,1-.88,1.16V27l.34,1.22.81-.19a3.73,3.73,0,0,1,.55-1.19c.23.54-.17,1.61-.27,2.35-.18,1.45-.66,7.58-.21,8.27l0-.34a5.39,5.39,0,0,1,.75-2.29,8.43,8.43,0,0,1,.53-.92,4.81,4.81,0,0,1,.3-.47c.26-.33.08-.28.53-.27-.38-1.29,1.37-2.57,2.4-2.94a5.93,5.93,0,0,1,4.63.14,4,4,0,0,1,2.18-2.78,5.39,5.39,0,0,1,2-.49,6.53,6.53,0,0,1,2.18.39c-.74-1.65-1.8-2.83-.84-5.08.76-1.78,1.68-2.07,3.51-2.83-.38-.37-1-.6-1.33-.89l-.09-.13c-.42-.47-1.36-.42-1.76-.86-.58,0-.56-.11-.8-.51l-.06.32c-.09-.37-.25-.74-.31-1H39.4l-.42.1h.35c0,.55.05.94-.59.93s-.52-.27-.64-.74Z"/><path class="cls-2" d="M40.85,32.13c.74.36,1.81-.57,1.48.2-.12.28-.6.36-.88.44-.77,2.88-2,3.25-2.91.45-.35-1.12-.79-.51-1.35-.76.08-.61,0-.12.91-.85a1.25,1.25,0,0,1,.19-.15c.26.6-.4.43.28.84a1.2,1.2,0,0,0,1.06.08c.7-.25,1-.92.89-1.89-.33-.19-1.81-.83-.06-1.45.48-.17.76-.05.7.5,0,.36-.31,2.59-.31,2.59Zm3.45-3.21a2.65,2.65,0,0,1-1.79-1.42,6.53,6.53,0,0,0-2.18-.39,5.39,5.39,0,0,0-2,.49,4,4,0,0,0-2.18,2.78c-.1.22,0,.07-.23.17a1.65,1.65,0,0,1-.32,0c-.22.22.29.19-.29.18.33,0,.17-.15.21.23a.63.63,0,0,1-.24.58l-.72.62-.07,0c-.57.42-.77.44-1.11.87l-.16.19-.06,0-.07,0a2,2,0,0,1-.21.12,9,9,0,0,1-2.28,1,18.13,18.13,0,0,0,5.74,1.73c3.83.33,8.66-1.28,11.85-3A16.55,16.55,0,0,0,51.53,31c.5-.46.59-.69,1.1-.89-.45,2-3.24,4.68-4.91,5.92-.35.26-.66.48-1,.73l-1.17.77a5.82,5.82,0,0,0,1.5-.78,20.71,20.71,0,0,0,5.77-5.95c.78-1.16,1.44-1.95.3-3-.72-.28-1.64-1.1-2.46-1.13-.25.11-.08,0-.23.26l0,.07-1.66,1.72c-1.07.73-.52.29-1.59.64l-1.88.26c-.64,0-.65-.14-.92-.64Z"/><path class="cls-4" d="M44.3,43.12c1.39,3.84-2.59,4.63-3.5,2.39-.4-1,.41-1.35-.33-2.56-.37.43,0,1.47-.9,1.72a1.35,1.35,0,0,1-1.64-.87c-.34-.71.28-3.52.37-4.55,1.05-.12,2.1-.28,3.09-.42,1.75-.25,2-.56,2.74.07A4.2,4.2,0,0,1,45.57,41a1.77,1.77,0,0,1-.13,1.46c-.41.54-.92.52-1.14.67ZM35.62,30.59a7.08,7.08,0,0,0-3.89,1,3.79,3.79,0,0,0-1.2,1.15c-.39.53-.71,1-1.39.48-.45,0-.27-.06-.53.27a4.81,4.81,0,0,0-.3.47,8.43,8.43,0,0,0-.53.92A5.39,5.39,0,0,0,27,37.13l.12-.23c.46.51,1.39.67,1.82,1.11A.18.18,0,0,0,29,38l.08,0a4.25,4.25,0,0,1,1.73-.85A6.39,6.39,0,0,1,33.24,37a7.5,7.5,0,0,1,2.12.67c.46.22,1.45.9,1.66.93.44.24.43.12.45.67A11.4,11.4,0,0,1,37,41.92a3.72,3.72,0,0,0,.76,3.3c.84-.18.65.16,1.14.54l.63.12a3.61,3.61,0,0,0,1.29,2.48,3.07,3.07,0,0,0,3.06,0,4.18,4.18,0,0,0,1-2.23c0-.63.08-1.37.11-1.89,1-.58,2-.82,1.33-3a4.69,4.69,0,0,0-2.12-2.8l.11-.24.7-.31a1.64,1.64,0,0,0,.3-.14c.3-.19.12-.06.26-.25l1.17-.77c.39-.25.7-.47,1-.73,1.67-1.24,4.46-4,4.91-5.92-.51.2-.6.43-1.1.89a17,17,0,0,1-3.32,2.35c-3.19,1.71-8,3.32-11.84,3a18.11,18.11,0,0,1-5.75-1.73,8.86,8.86,0,0,0,2.28-1,2,2,0,0,0,.21-.12l.07,0,.06,0,.16-.19c.34-.43.54-.45,1.11-.87l.07,0,.72-.62a.63.63,0,0,0,.24-.58c0-.38.12-.26-.21-.23.58,0,.07,0,.29-.18Z"/><path class="cls-3" d="M31.42,38.06c.41-.12.95,0,.71.52l-.82.77C30.3,40.21,30.4,38.37,31.42,38.06Zm2.42,8.81a2,2,0,0,1-.78-.28c0-.64.28-.69.46-1.25-.13,0-.33-.07-.44-.11-.37-.14-.16,0-.38-.21,1.7-.07,1,.28,1.46.92l.59-.1a4,4,0,0,0-.58-.91,5.11,5.11,0,0,1-1.11-3.17c.13.13.06,0,.17.24l0,.08.45,1.09a8.84,8.84,0,0,0,2.68,3.31c.51-.4.61-1,1.34-1.26a3.72,3.72,0,0,1-.76-3.3,11.4,11.4,0,0,0,.49-2.65c0-.55,0-.43-.45-.67-.06.11,0,.42-.64.09-.2-.1-.41-.23-.6-.32-8-3.74-10.13,5-7.31,7.74C30,47.65,31.08,47.8,33.7,48l.14-1.15Z"/><path class="cls-4" d="M18.78,38.9h.59c-.23.54-.74.36-1.3.59a24.65,24.65,0,0,1-1.13,4.73,43.68,43.68,0,0,0-1.52,4.15l4.65.7V49c-.54,0-.44.17-.59-.32l-.65-3.72c.06-.51,0-.44.38-.44l-.14-.15c-.54-.75.35-4.5.74-5,.86-1,2.65-1.1,3.8,1,1.51,2.79-.32,8.94-3,7.9-.18.2-.15.23,0,.72H20.1c.43.34,4.32.62,5.1.57v-.14A32.65,32.65,0,0,0,25.66,44a15.1,15.1,0,0,0-1-4.91c.15-.17-.28-.18.32-.12-.2-.21.28-.08-.26-.2l.19,0-.06-.06-.2-.16a.8.8,0,0,1-.36-.68c-1.12-.57-2.24-1-3.42-1.68l-.84-.53c-.07,0-.07.11-.14-.15,0,0-.05,0-.07-.08a8.63,8.63,0,0,1-2.13-.88,2,2,0,0,1-.95-2A2.59,2.59,0,0,0,17.11,35c.63.84,1.17.72,1.83,1.29-1.22.51-2.81.86-3.07,1L16,38.9c.81-.07,2.81-.59,3.42-.22l-.66.22Z"/><path class="cls-2" d="M44.3,43.12c.22-.15.73-.13,1.14-.67A1.77,1.77,0,0,0,45.57,41a4.2,4.2,0,0,0-1.44-2.09c-.79-.63-1-.32-2.74-.07-1,.14-2,.3-3.09.42-.09,1-.71,3.84-.37,4.55a1.34,1.34,0,0,0,1.64.87c.88-.25.53-1.29.9-1.72.74,1.21-.07,1.57.33,2.56.91,2.24,4.89,1.45,3.5-2.39Z"/><path class="cls-5" d="M11.79,17.58c.17-.41-.54-1-.19-2.68a5,5,0,0,0,3.61,1.3,11.29,11.29,0,0,0,1.44-.77,6.93,6.93,0,0,1,1.67-.6c-.09.46-1,.74-1.76,1.19s-1.22.73-1.87,1.13a29.64,29.64,0,0,0-3.54,2.6c0,.86.09.86-.58,1.44l-.13.12c.4-.08.34.12.58.46a1.08,1.08,0,0,0,.57.47s.06-.07.08,0a6.05,6.05,0,0,0,1.53-.58c1-.59.45-.65.88-1.34a6.25,6.25,0,0,0-.58-1.05l2.06.47c-.09-.33.32-.29.71-.38a2.32,2.32,0,0,0,.86-.35c.71-.53.48-1,.82-1.41-.23-.42-.12-.23-.52-.55l-.07-.06-.15-.14-.07-.08a11.22,11.22,0,0,0,2.55-.2,1.12,1.12,0,0,0,.75-.63c.18-.52-.09-.75-.27-1.13-1.94.17-.84-1.54-.83-1.58-2.74-.3-9.89-1.37-8,4,.16.46.09.38.5.39Z"/><path class="cls-6" d="M29.3,22.52l-.44,1.67,1.95-.26c.14.75.6,1.16.79,1.85a2.6,2.6,0,0,0,1.09-.68c.33-.23.68-.67,1-.82.6-.32,2.47.15,3.25.19.07-.69.2-2.15.81-2.47a7.5,7.5,0,0,0,2.07-1.1,8,8,0,0,0-1.66-1.21l.4-1.12.1-.36s-.06-.07-.07,0-.06,0-.09,0l-.18-.05a4.19,4.19,0,0,0-.62,0c-1.72.1-7,3.64-8.37,4.46Z"/><path class="cls-2" d="M19.21,44.48c-.06.24.72,3.92.86,4.48v.1l0-.05h.43c-.1-.49-.13-.52,0-.72,2.71,1,4.54-5.11,3-7.91-1.15-2.13-2.94-2.07-3.8-1-.39.48-1.28,4.23-.74,5l.14.15Z"/><path class="cls-1" d="M12.88,27.54c-.7-.63,0-2,.69-2s.31.78.11,1.12S13.38,27.44,12.88,27.54Zm1.56,1.28A11.62,11.62,0,0,1,15,27.6c.61-1.59.74-3.3,2-2.78C17.56,26.17,15.31,28.59,14.44,28.82Zm-2.52.35a9.47,9.47,0,0,1,.74,1.09,3.32,3.32,0,0,1-2.53.58,2.06,2.06,0,0,1-.55-2.32,3.88,3.88,0,0,1,.66-1.94,6.18,6.18,0,0,1,4.5-3,1,1,0,0,1-.21.16l-1.16.75c-2.18,1.87-1.43,3.64-1.45,4.69ZM8.71,31.45l.19.32L9,31.5l.13-1.11c.28.79.79,1.05,1.84,1a10.22,10.22,0,0,0,5.39-3.22,6.11,6.11,0,0,0,1.6-2.79c.21-1.53-.7-2.17-2.11-2.31a5.77,5.77,0,0,0-3.2.65,7.32,7.32,0,0,0-2.18,1.72,7.51,7.51,0,0,0-1.74,6Z"/><path class="cls-3" d="M46.7,40.93c.38,0,.35,0,.55.32a1.21,1.21,0,0,1,.18.64A.67.67,0,0,1,46.7,40.93ZM44.24,38.2l-.11.24a4.69,4.69,0,0,1,2.12,2.8c.65,2.23-.36,2.47-1.33,3,0,.52-.07,1.26-.11,1.89.2-.24.16-.88.2-1.26a3.79,3.79,0,0,1,0,2.36,19.13,19.13,0,0,0,3.39-.22c.81-.13,2.16-.57,2.76-.6a3.28,3.28,0,0,0-.43-1.13l-.28-.41c-.56.21-.47.5-1,.55a2.82,2.82,0,0,1-.35-1.71l.49,1c.44-.43.31-.65.84-.74s-.06,0,.15,0,0,.07.17,0c-.51-.45-1.11-.77-1.59-1.17-.27-.23-.39-.46-.64-.69A11.69,11.69,0,0,1,45.83,38a3.88,3.88,0,0,0-.81.21c-.83.26-.71.09-.78,0Z"/><path class="cls-1" d="M24.55,19c.18-.9,1.46-.49,2.36-.88.32-.14.35-.3.6-.37.07,1-2.24,2.25-3,1.25Zm-.32-.9c-.15.2-.34.51-.58.52s-.44-.47-.3-.82C23.64,17.08,24.81,17.3,24.23,18.07Zm2.14-2.53c1.05.24,1.89.65,1.82,1.84a2.14,2.14,0,0,0-1.51-1,4.78,4.78,0,0,0-2.61.23c-1.07.45-.85.74-1.49,1.28C22.57,15.45,25.34,15,26.37,15.54Zm1.83.38a4.38,4.38,0,0,0,.81.29c-.46-1.13-3-1.65-4.56-1.29-1.29.28-3,1.83-2.14,3.6C23.93,21.7,30.73,19,28.2,15.92Z"/><path class="cls-1" d="M10.87,3.7c-.53-.07-.47-.2-.61-.75-.08-.33-.26-.85.08-1,.5-.19.65,1.3.53,1.74ZM12.79,3c-.11-.43.32-1.88.85-1.38C13.94,1.89,13.53,3.1,12.79,3ZM10.68,7.37c0-.43,1.06-.58,1.59-.68l.22.22.11,0-.13-.23,2.18-.35c-.45-.51-1.08-.91-1.58-1.46.23-.66,2.17-2.91,1.09-3.85a1,1,0,0,0-1.64.49,8.39,8.39,0,0,1-.89,1.91c-.11-.75-.21-1.78-.87-2-1-.4-1.33.59-1.23,1.43C9.57,3.07,10.6,7.2,10.68,7.37Z"/><path class="cls-5" d="M5.19,30.13a9,9,0,0,1-3.8-3.75,2.47,2.47,0,0,1,.68-2.92,4.06,4.06,0,0,1,3.1-.37,1.88,1.88,0,0,1,.89.24l.36.22c.24.18.33,0,.15.25l.36.35c.17-.51,1-1.92,1.43-2-.34-.55-.15-.69.06-1.29-3.09-.07-8,.12-7.92,3.55A7.86,7.86,0,0,0,2.89,29L5.2,30.91v-.78Z"/><path class="cls-3" d="M32.34,49.62a28.13,28.13,0,0,1,2.9,0c.95,0,1.85-.06,2.78-.12s4.82-.44,5.36-.33a1.84,1.84,0,0,0,.48-.77,3.07,3.07,0,0,1-3.06,0,3.61,3.61,0,0,1-1.29-2.48l-.63-.12c0,.63.6,1.22.1,1.5-.83.17-.33-.77-1.52-.1-2.82,1.61-2.36,1.14-5.5,1.28l-.19,1.18Z"/><path class="cls-1" d="M20.19,2.33c-.07-.35,0-1.41.39-1.67C21.32.9,20.92,2.23,20.19,2.33Zm-2.71-.86c.24.33.41.43.23.86-.55,0-1.18-.8-.92-1.28.4-.12.48.15.69.42Zm1.09,4.19,1.74-.14c.16.15.06,0,.1.2,0-.06,1.41-4.26,1.28-4.95A1,1,0,0,0,19.89.5,15.2,15.2,0,0,0,19.32,3,15.08,15.08,0,0,1,17.94,1c-.86-1.2-1.85-.53-1.92.15-.1,1,2.16,3.63,2.66,4l-.11.5Z"/><path class="cls-7" d="M30.12,7.63a1.47,1.47,0,0,1,.12-1c.61,0,.86.25.89.84a1.18,1.18,0,0,1-1,.19Zm2.62-1.29a22.73,22.73,0,0,0-4.27-.58c-.46,2.23-.74,3.75,2,3.72C32.15,9.46,33.58,8,32.74,6.34Z"/><path class="cls-2" d="M24.94,38.77l-.19,0c.54.12.06,0,.26.2a14,14,0,0,1,1.08,7.54c.49.41.53,1,1.5,1.37.61.24,1.9.38,2.36-.06-.29-.23-.68-.38-1.06-.65a5.58,5.58,0,0,1-1.22-7.55c.4-.65.58-.64.61-1L28,38.52c-.27.39-.16.85-.63,1.39a1.08,1.08,0,0,1-1.37.25c-.2-.89.25-.56.87-.65a2.72,2.72,0,0,0,.56-1.1,1.2,1.2,0,0,0-.66-.35c-.7.72-.64.65-1.8.71Z"/><path class="cls-1" d="M24.3,2c-.26-1.2,2-1.78,2-.76-.41.3-.68.05-1.11.32s-.34.57-.91.44ZM22.78,5.5l1.81.14c0-1.12.2-3.25,1.09-3.58l.56.71c1.26.12,1.61-1,.91-1.85C25.73-.82,22.66.51,22.78,5.5Z"/><path class="cls-4" d="M48.93,24.36c-.37,1.53-.51,2.25-1.46,3.17a4.15,4.15,0,0,1-1.35,1,4.27,4.27,0,0,1-1.82.4c.27.5.28.6.92.64l1.88-.26c1.07-.35.52.09,1.59-.64l1.66-1.72,0-.07c.15-.24,0-.15.23-.26l0-.16c-.66-.09-.49,0-.44-.58.09-.85-.1-1.25-.48-1.47a.62.62,0,0,0-.71,0Z"/><path class="cls-7" d="M24.59,5.64,22.78,5.5a3.93,3.93,0,0,0,.94,2.79C25.56,9.94,28.3,7,27,5.76a.87.87,0,0,0-1.23.1c-.47.44-.3.75-1,.86l-.17-1.08Z"/><path class="cls-1" d="M29.93,1.3c.8.3.25,1.63,0,1.69-.44.09-.35-.5-.29-.82A1.52,1.52,0,0,1,29.93,1.3ZM28.47,5.76a22.73,22.73,0,0,1,4.27.58,2.61,2.61,0,0,0-2.28-1.59c.07-.94.31-1.83.46-2.72C31.1.94,30.41.09,29.53.73c-.54.4-1,4-1.06,5Z"/><path class="cls-8" d="M9.58,28.52l.06.71c.54.44,1.84.55,2.28-.06,0-1.05-.73-2.82,1.45-4.69l1.16-.75a1,1,0,0,0,.21-.16,6.18,6.18,0,0,0-4.5,3,3.88,3.88,0,0,0-.66,1.94Z"/><path class="cls-9" d="M24.32,37.87c.05-.4.07-.67.44-.72.55-.06.34.26.33.61,0,.85,1,.26,1.32,0,.06-.42.16-1.85-.15-2.08a6.5,6.5,0,0,0-2.07,0,24,24,0,0,1-4.34-.21s0,0,.07.08c.07.26.07.1.14.15l.84.53c1.18.7,2.3,1.11,3.42,1.68Z"/><path class="cls-2" d="M41.2,17.2c.24.4.22.48.8.51.35-.09,0-2.25,1-2.45l.23,0a3.84,3.84,0,0,1,.61-.15,4.49,4.49,0,0,0-.54,2c.65.41,1.05.26,1.77.88-.12.5-.21.39-.36.87.17.05.12.25.62-.51l.05-.07a4,4,0,0,0-.7-.89c-.47-.47-.5-.27-1-.58-.12-1.11.64-1.45.75-1.93-.84-.19-.8.16-1.37.21A3.32,3.32,0,0,1,43,12.69c-.6.31-.6.65-1.07.9-.73-.48-.74-1.64-1.09-2.4-.54,1.84.69,4.09.69,4.53-.64.18-.46-.1-1-.13a2.55,2.55,0,0,1,.7,1.61Z"/><path class="cls-1" d="M35.88,4.06c-.29-.68.2-2.23.88-1.75.33.22.08.76-.08,1.08s-.28.72-.8.67ZM34.61,6.81a3.45,3.45,0,0,1,.87.2,2.51,2.51,0,0,1,.42.13c.51.22.24,0,.35.3a17.46,17.46,0,0,0,1-3c.31-.86.84-2.36-.19-2.75s-1.56,1.06-1.72,1.94c-.2,1.11-.48,2.11-.68,3.14Z"/><path class="cls-10" d="M5.19,30.13l0-1.3C3.43,29,3,27.76,3.2,26.24c-1.31-.82-.84-3.33,2-3.15a4.06,4.06,0,0,0-3.1.37,2.47,2.47,0,0,0-.68,2.92A9,9,0,0,0,5.19,30.13Z"/><path class="cls-9" d="M25.2,49.44v.14l1.62,0L27,48.35c.39.13.82.31,1.21.46s.62.28.73.84l2.32,0,.18-1.39c-.57-.15-1-.35-1.5-.5-.46.44-1.75.3-2.36.06-1-.38-1-1-1.5-1.37l-.45,3-.44,0Z"/><path class="cls-1" d="M29.14,33.18c.68.48,1,0,1.39-.48a3.79,3.79,0,0,1,1.2-1.15,7.08,7.08,0,0,1,3.89-1,1.65,1.65,0,0,0,.32,0c.28-.1.13.05.23-.17a5.93,5.93,0,0,0-4.63-.14c-1,.37-2.78,1.65-2.4,2.94Z"/><path class="cls-1" d="M39,33c1.75-.12.67-.64,1.88-.3-.1.81-.39,1.71-1,1.87A2.76,2.76,0,0,1,39,33Zm1.84-.86s.27-2.23.31-2.59c.06-.55-.22-.67-.7-.5-1.75.62-.27,1.26.06,1.45.1,1-.19,1.64-.89,1.89a1.2,1.2,0,0,1-1.06-.08c-.68-.41,0-.24-.28-.84a1.25,1.25,0,0,0-.19.15c-.87.73-.83.24-.91.85.56.25,1-.36,1.35.76.88,2.8,2.14,2.43,2.91-.45.28-.08.76-.16.88-.44.33-.77-.74.16-1.48-.2Z"/><path class="cls-4" d="M24,31.92c.5-.29.73-.67,1.28-.72.43.4.06.66,1.2,1.18l.27-3.13c-1.37.23-1.38-.11-2.55.56a7.9,7.9,0,0,0-.89.56c-.4.29-.57.37-.75.79,1-.19,1.7-1,1.23.64l.21.12Z"/><path class="cls-7" d="M12.6,6.86c1.31,1,1.91,2.78,3,2.47a1.09,1.09,0,0,0,.47-1.75,11.36,11.36,0,0,0-1.45-1.3l-2.18.35.13.23Z"/><path class="cls-8" d="M47.28,22.35c-.44-.14-1.22-.5-1.59-.21a8.92,8.92,0,0,1,1,2.35,5.17,5.17,0,0,1-.15,3.12C48.28,26.56,48.58,22.94,47.28,22.35Z"/><path class="cls-7" d="M18.57,5.66c-.23.86-1,2-.79,2.8.56.93,1.62.36,1.94-.37a15.09,15.09,0,0,0,.69-2.37c0-.24.06,0-.1-.2Z"/><path class="cls-7" d="M10.68,7.37c.21,1.07.25,2.89,1.66,2.68s.36-2.23.15-3.14l-.22-.22C11.74,6.79,10.67,6.94,10.68,7.37Z"/><path class="cls-4" d="M8.71,31.45a7.51,7.51,0,0,1,1.74-6,7.32,7.32,0,0,1,2.18-1.72,5.77,5.77,0,0,1,3.2-.65c-1.31-1-4.48.45-6,2.35A9.08,9.08,0,0,0,8.3,28.08a3.32,3.32,0,0,0-.07,2.64l.48.73Z"/><path class="cls-8" d="M11.12,37.28l-.06,0a2.43,2.43,0,0,0-.94-2.52c-1.16-.67-1.8.3-2.27.84A5.38,5.38,0,0,0,11.12,37.28Z"/><path class="cls-8" d="M12.27,37.36l0,.17a13,13,0,0,0,3.48-.17,1.72,1.72,0,0,0-1.55-1.8c-1.12,0-1.54.94-1.88,1.8Z"/><path class="cls-10" d="M11.79,17.58a1.62,1.62,0,0,0,1,.23,8.44,8.44,0,0,0,.8-.53,11,11,0,0,0,1.61-1.08,5,5,0,0,1-3.61-1.3c-.35,1.71.36,2.27.19,2.68Z"/><path class="cls-1" d="M25.2,49.44l.44,0,.45-3A14,14,0,0,0,25,38.94c-.6-.06-.17,0-.32.12a15.1,15.1,0,0,1,1,4.91A32.65,32.65,0,0,1,25.2,49.44Z"/><path class="cls-4" d="M42,17.71c.4.44,1.34.39,1.76.85l.91.27c.15-.48.24-.37.36-.87-.72-.62-1.12-.47-1.77-.88a4.49,4.49,0,0,1,.54-2,3.84,3.84,0,0,0-.61.15l-.23,0c-1,.2-.61,2.36-1,2.45Z"/><path class="cls-6" d="M48.93,24.36a.62.62,0,0,1,.71,0c.38.22.57.62.48,1.47,0,.57-.22.49.44.58.42-.54.19-1.3,0-2-.24-.54-3.52-3.78-4.16-3.87,0,.25.34.4.7.78a11.34,11.34,0,0,1,1.31,1.81C49,23.6,49,23.48,48.93,24.36Z"/><path class="cls-2" d="M11.92,29.17c-.44.61-1.74.5-2.28.06l-.06-.71a2.06,2.06,0,0,0,.55,2.32,3.32,3.32,0,0,0,2.53-.58,9.47,9.47,0,0,0-.74-1.09Z"/><path class="cls-2" d="M24,31.92l-.21-.12c.47-1.64-.24-.83-1.23-.64.18-.42.35-.5.75-.79a7.9,7.9,0,0,1,.89-.56c1.17-.67,1.18-.33,2.55-.56l.12-.71A5.9,5.9,0,0,1,24,28.43c.34.66.45.14.64.81-.32.43-.78.27-1.77,1.06a4,4,0,0,0-1.21,1.56,3.9,3.9,0,0,1,1.91-.72c.06.69-.29.53,0,1.44a1,1,0,0,0,.4-.66Z"/><path class="cls-8" d="M26.68,16.34l-.31-.8c-1-.57-3.8-.09-3.79,2.31.64-.54.42-.83,1.49-1.28A4.78,4.78,0,0,1,26.68,16.34Z"/><path class="cls-3" d="M50.56,26.45l0,.16c.82,0,1.74.85,2.46,1.13a14.11,14.11,0,0,0-2.46-3.33c.14.74.37,1.5,0,2Z"/><path class="cls-7" d="M33.8,9.34c.16,1,2.09,1,1.77-.41A.91.91,0,0,0,33.8,9.34Z"/><path class="cls-3" d="M45.3,19l.45.33a5.66,5.66,0,0,0,.79.13c.57,1,0,.27,1.05,1.17a9.23,9.23,0,0,0,1.29,1.08c-.17-1.17-2-2.6-3-3.15C45.48,18.74,45.51,18.68,45.3,19Z"/><path class="cls-2" d="M45.69,22.14c.37-.29,1.15.07,1.59.21-.18-.5-.25-.43-.61-.79-.88-.9-1.46-1-2.79-.27.59.25.74.09,1.37.56a2.57,2.57,0,0,0,.44.29Z"/><path class="cls-3" d="M39,33a2.76,2.76,0,0,0,.84,1.57c.65-.16.94-1.06,1-1.87C39.68,32.35,40.76,32.87,39,33Z"/><path class="cls-1" d="M32.51,27.18a12.9,12.9,0,0,0,1.36.48c.61.13,1.34,0,1.2-.64-.18-.85-2.21-.64-2.56.16Z"/><path class="cls-10" d="M15.56,19.69a3.54,3.54,0,0,0,2.35-.28c.47-.34.78-1.52,0-1.86-.34.44-.11.88-.82,1.41a2.32,2.32,0,0,1-.86.35c-.39.09-.8.05-.71.38Z"/><path class="cls-4" d="M3.47,27a1.28,1.28,0,0,0,.87,1.28c.92.35,1.36-.49,1.4.5,0,0,0-.12,0-.1s0-.08,0-.11l.09-.85c.07-.4.18-.65.24-1.07-.53.23-.39.51-1.29.8S3.87,27.28,3.47,27Z"/><path class="cls-1" d="M38.63,18.21l-.1.36a.81.81,0,0,0,.18.62c.76.15.86,0,1.24-.44a5.7,5.7,0,0,0,.83-.89,2.11,2.11,0,0,0-2.15.35Z"/><path class="cls-1" d="M20.07,49c-.14-.56-.92-4.24-.86-4.48-.43,0-.32-.07-.38.43l.65,3.73c.15.49.05.33.59.32Z"/><path class="cls-10" d="M11.59,22.24c1.45.92,3.37-.39,2.49-2-.43.69.11.75-.88,1.34a6.05,6.05,0,0,1-1.53.58S11.61,22.22,11.59,22.24Z"/><path class="cls-5" d="M21,23.51c1,0,2.68-.44,2.25-2-.07,0,.19-.3-.37.06-.35.23-.14.58-.65.92s-.84.16-1.23,1Z"/><path class="cls-4" d="M26.82,49.61l2.13,0c-.11-.56-.21-.65-.73-.84s-.82-.33-1.21-.46l-.19,1.26Z"/><path class="cls-8" d="M43,23.21c-.72.33-.67,2.53.22,1.85C43.72,24.7,44,22.77,43,23.21Z"/><path class="cls-8" d="M12.88,27.54c.5-.1.53-.38.8-.84s.52-1.05-.11-1.12S12.18,26.91,12.88,27.54Z"/><path class="cls-6" d="M31.42,38.06c-1,.31-1.12,2.15-.11,1.29l.82-.77C32.37,38.09,31.83,37.94,31.42,38.06Z"/><path class="cls-7" d="M36.25,7.44c-.11-.26.16-.08-.35-.3A2.51,2.51,0,0,0,35.48,7a3.45,3.45,0,0,0-.87-.2C34.55,8,35.67,8.28,36.25,7.44Z"/><path class="cls-2" d="M26.68,16.34a2.14,2.14,0,0,1,1.51,1c.07-1.19-.77-1.6-1.82-1.84Z"/><path class="cls-4" d="M12.22,37.53l0-.17-1.21-.11.06,0,0,.77c.23.23.07.13.42.27a1.37,1.37,0,0,0,.59.14l.11-.93Z"/><path class="cls-2" d="M27,37.13l0,.34c.24.35,1.65.94,2,.54-.43-.44-1.36-.6-1.82-1.11Z"/><path class="cls-8" d="M24.23,18.07c.58-.77-.59-1-.88-.3-.14.35-.08.83.3.82S24.08,18.27,24.23,18.07Z"/><path class="cls-6" d="M38,16.77l.07,0c.12.47.11.73.64.74s.57-.38.59-.93H39l-.95.15Z"/><path class="cls-6" d="M25.69,25.69l.09,1.12c.57-.18,1-.51.88-1.16Z"/><path class="cls-4" d="M9,31.5a2.67,2.67,0,0,0,2-.11c-1,.05-1.56-.21-1.84-1L9,31.5Z"/><path class="cls-4" d="M3.66,26.16c.63.17,1.37,0,1.27-.72A1,1,0,0,0,3.66,26.16Z"/><path class="cls-6" d="M47.25,41.25c-.2-.35-.17-.35-.55-.32a.67.67,0,0,0,.73,1A1.21,1.21,0,0,0,47.25,41.25Z"/></g></g></g></svg>