<svg xmlns="http://www.w3.org/2000/svg" viewBox="0 0 32.73 28.45"><defs><style>.cls-1{fill:#010101;}.cls-1,.cls-2{fill-rule:evenodd;}.cls-2{fill:#f7f7f7;}</style></defs><g id="Слой_2" data-name="Слой 2"><g id="Слой_1-2" data-name="Слой 1"><g id="_3015402161376" data-name=" 3015402161376"><path class="cls-1" d="M15.15,23.52c0-.77,2.43-.76,2.42,0-.36.12-.3-.22-1.19-.21a1.4,1.4,0,0,0-.61.06C15.55,23.44,15.4,23.58,15.15,23.52ZM11.3,19.1a12,12,0,0,0-3-.77c-.13.07-.89,1.15-1.08,1.31a1.33,1.33,0,0,1-.26-.21,5.13,5.13,0,0,0-4.25-1A3.86,3.86,0,0,0,1.31,19a4.31,4.31,0,0,1,2-.22,5.86,5.86,0,0,0-1.93.38,6.6,6.6,0,0,1,1.9.21,5.12,5.12,0,0,0-2.43.42,8.35,8.35,0,0,1,2.55.33c-.92,0-2.47-.28-3.14.64a4.18,4.18,0,0,1,2.4,0A4.22,4.22,0,0,0,1,20.9a1.62,1.62,0,0,0-1,.78,3.74,3.74,0,0,1,2.33-.4A6.42,6.42,0,0,1,4.5,22a3.83,3.83,0,0,0-2.37-.89c-.25,0-.88,0-1,0a4.91,4.91,0,0,1,2.69.07s0,0,0,0l-.22-.17a4.14,4.14,0,0,0-2.4-.52c.78-.42,2.52,0,3.4.09l-.28-.2a4.23,4.23,0,0,0-1-.42c-.32-.09-1.47-.23-1.57-.28a8.93,8.93,0,0,1,2.71.16l0-.05,0,0,0,0a4.63,4.63,0,0,0-2-.65,6.09,6.09,0,0,1,2.3.15A2.4,2.4,0,0,0,4,18.84c-.23-.1-.49-.15-.7-.25,2.48-.25,3.67,1.66,4,1.84A7.68,7.68,0,0,1,8.4,18.78a7.18,7.18,0,0,1,3.33,1.47,3.8,3.8,0,0,1,1.54,3.28c-.19,1.93,0,3.35,1.51,4.32a4.17,4.17,0,0,0,.79.4,1.83,1.83,0,0,0,1.85-.11,3.39,3.39,0,0,0,2.06-2.73c.31-2-.68-2.89,1.06-4.75a2.06,2.06,0,0,1,.31-.28,7.86,7.86,0,0,1,1.88-1.15,8.74,8.74,0,0,1,1.37-.43c.22-.05.26,0,.38.14a7.67,7.67,0,0,1,.5.69c.14.22.3.62.43.8.49-.3,1.37-2,4-1.84-.34.2-1,.28-1.3.58A6.49,6.49,0,0,1,30.43,19a5.38,5.38,0,0,0-1.89.57l-.24.17a8.57,8.57,0,0,1,2.7-.17l-.18.06a9.53,9.53,0,0,0-1.4.24,3.53,3.53,0,0,0-1.26.61c1.46-.14,1.78-.47,3.41-.11a5.78,5.78,0,0,1-.73,0,4.52,4.52,0,0,0-.75.12,8.21,8.21,0,0,0-1.17.54,10.48,10.48,0,0,0,1.29-.16,3.58,3.58,0,0,1,1.4.15,5.7,5.7,0,0,0-3.22.76l-.07.05,0,0-.06.07c.31-.11.59-.3,1-.42a4.58,4.58,0,0,1,3.53.14c-.11-.36-.61-.64-1-.78a5.21,5.21,0,0,0-1.65-.17,4.8,4.8,0,0,1,2.41,0c-.76-.91-2.13-.64-3.13-.64a6.8,6.8,0,0,1,2.54-.32l-.1-.07a5.41,5.41,0,0,0-2.32-.36,6.93,6.93,0,0,1,1.9-.21,6,6,0,0,0-1.93-.38,4.37,4.37,0,0,1,2,.22,4.44,4.44,0,0,0-3.17-.63,5.28,5.28,0,0,0-1.52.46,6,6,0,0,0-.92.58c-.13.1-.14.17-.27.24l-.16-.16a8.91,8.91,0,0,1-.91-1.16,9.84,9.84,0,0,0-2.86.71c-.29.1-.17.15-.28.42-.34.84-1.48-.5.15-.76A3.37,3.37,0,0,0,24,16.88,3.41,3.41,0,0,1,22.52,18a4.32,4.32,0,0,1-1,.29c-.52.07-.68-.06-1,.25a4.18,4.18,0,0,0-1.09,1.49c-1.12,2.43-.2,2.73-.08,4.24a3.62,3.62,0,0,1-.48,2.1c-1.05,1.83-2.56,1.37-2.38-.5.46-.26,1.1,0,1.61-1.1-.46,0-.77.14-1.14-.17,0-.66,1.07-.79,1.35-.33.47-1.37-2.08-2.15-3.32-1.24a1.22,1.22,0,0,0-.54,1.24c.32-.16.33-.39.86-.25.33.09.57.27.5.63-.39.21-.66.1-1.12.12a1.74,1.74,0,0,0,.6.73,8.61,8.61,0,0,0,1,.37c.18,1.72-1.17,2.44-2.35.53s-.06-3.15,0-4.23a5.25,5.25,0,0,0-1.6-3.61c-.35-.34-.47-.19-1-.27a3.72,3.72,0,0,1-2.47-1.43,2.61,2.61,0,0,0,.82,1,4,4,0,0,0,2,.82c.67.21.61,1.11,0,1C11.43,19.65,11.36,19.35,11.3,19.1Z"/><path class="cls-1" d="M21.58,10.89a3.11,3.11,0,0,1,.86-1.56A9.31,9.31,0,0,1,23.76,8.2,4.15,4.15,0,0,0,22,9.33a11.35,11.35,0,0,0-.71,1,4.41,4.41,0,0,1-1.17-1.28,1.26,1.26,0,0,1,.14-1.75,7.31,7.31,0,0,1,3-1.91,32.86,32.86,0,0,0,5.25-2.2A4.46,4.46,0,0,0,29.87,2l-.2.16a8.33,8.33,0,0,1-3.5,1.69c.25-.53,1.2-.8,1.66-1.13a7.06,7.06,0,0,0-1.75.67c-.53.28-1,.67-1.47,1,.26-.71,1.28-.9,1.8-1.3a8.17,8.17,0,0,0-2.07.72,7.23,7.23,0,0,0-1.61,1.14c.12-.44,1.05-1,1.48-1.27A5.33,5.33,0,0,0,22,4.87c-.2.16-.39.41-.56.56a2,2,0,0,1,1-1.17,2.76,2.76,0,0,0-1,.46c-1.32.92-1.49,1.92-2.06,2.56C19.69,5.09,22.12,4,24,3.44c1.58-.45,4.36-.86,5.72-1.68l.44-.35c.09-.09.06-.08.17-.14C30.38,4.2,26.81,3.92,25,5.65a3,3,0,0,0-.65.78,6,6,0,0,1,1.77-1.07c.88-.28,1.71-.11,2.49-.32-.27.56-1.84.76-2.72,1.13a4.4,4.4,0,0,0-1.48.93l-.71.81a7.25,7.25,0,0,1,1.68-1,4.37,4.37,0,0,1,2.27-.3,1.86,1.86,0,0,1-.42.15l-.47.16a10.32,10.32,0,0,0-3.82,2.29,5.21,5.21,0,0,0-1.08,1.41l.08-.07c.15-.14.66-.76.91-1A9.61,9.61,0,0,1,24,8.74c.54-.31,2.22-1.17,3-.86.16.07.05,0,.12.08-.59.22-1.18.86.85.91-.36.42-2.77.62-3.53.81a5.74,5.74,0,0,0-1.56.64,3,3,0,0,0-.62.47,2.56,2.56,0,0,0-.52.62A5.75,5.75,0,0,1,25.49,10c1-.09,2.39-.11,3-.93a2.22,2.22,0,0,0,.43-.87,1.6,1.6,0,0,1-1.43.23l.33-.12a2.32,2.32,0,0,0,1.65-1.67,2.16,2.16,0,0,1-1.81.72A1.28,1.28,0,0,1,28,7.12l.39-.19a3.73,3.73,0,0,0,.67-.45,2.89,2.89,0,0,0,.51-.61A5.87,5.87,0,0,0,30,5.12c-.47.28-.83,1.12-2.23,1.09A1.38,1.38,0,0,1,28.17,6l.44-.19a4.94,4.94,0,0,0,.81-.48,2.15,2.15,0,0,0,.87-1.69c-.41.39-.49,1-1.53.95a3.3,3.3,0,0,1,.55-.32A3.87,3.87,0,0,0,30.6,0c-.27.53-.13.48-.61,1a9.13,9.13,0,0,1-3.36,1.39,38.3,38.3,0,0,0-4.87,1.45c-1.41.62-3,1.53-2.9,3.44,0,1.25,1.44,3.69,2.72,3.66Z"/><path class="cls-1" d="M4,4.59A1.5,1.5,0,0,1,2.6,3.84c-.08-.13,0-.1-.16-.19a2.13,2.13,0,0,0,.87,1.69A17,17,0,0,0,5,6.2c-1.31.06-1.64-.68-2.22-1a2.92,2.92,0,0,0,.6,1l.14.15a10.29,10.29,0,0,0,1.57,1,2.24,2.24,0,0,1-1.8-.71A2.62,2.62,0,0,0,4,7.77a3.23,3.23,0,0,0,.58.38,4.09,4.09,0,0,1,.7.25,1.6,1.6,0,0,1-1.43-.23A1.9,1.9,0,0,0,5,9.59c1.71.76,4-.16,6.06,1.91A4.37,4.37,0,0,0,8.42,9.71c-.71-.19-3.35-.45-3.63-.84a2.2,2.2,0,0,0,1.39-.32c.05-.41-.35-.4-.54-.65A5.17,5.17,0,0,1,9.43,9.24a7.38,7.38,0,0,1,1.09,1c.14.18.32.38.45.57A4.74,4.74,0,0,0,9.91,9.34c-.12-.11-.18-.21-.3-.33A9.37,9.37,0,0,0,6.89,7.29C6.1,7,5.51,6.82,5.05,6.62a4,4,0,0,1,2.3.3A6.26,6.26,0,0,1,9.06,8a3.16,3.16,0,0,0-.55-.65l-.12-.14C6.81,5.65,4.44,5.8,4.12,5,5.57,5.39,6.3,4.81,8,6.14c.15.12.26.24.4.34-1-1.91-3.62-2-5.13-3.22a2.13,2.13,0,0,1-.86-2c.18.1.37.33.58.48a7.82,7.82,0,0,0,2.34.86c2.41.63,5.91,1.05,7.4,3.2a3.89,3.89,0,0,1,.65,1.49,20.94,20.94,0,0,0-1.22-1.84,3.68,3.68,0,0,0-1.87-1.21,2.08,2.08,0,0,1,1,1.16,13.35,13.35,0,0,0-1.21-1,5.3,5.3,0,0,0-1.55-.74C8.94,4,9.8,4.34,10,4.87c-.19-.1-.54-.46-.77-.62a5.91,5.91,0,0,0-.86-.51,7.94,7.94,0,0,0-2-.71c.57.45,1.45.53,1.82,1.32A9.2,9.2,0,0,0,4.9,2.7c.38.24,1.53.71,1.66,1.14-.72-.26-1.33-.42-2-.74A7.23,7.23,0,0,1,2.86,2c.47.87,2.07,1.67,2.93,2,1.16.5,2.42.88,3.62,1.36a7.28,7.28,0,0,1,3.05,1.9,1.32,1.32,0,0,1,.13,1.76,5,5,0,0,1-.54.7,3.2,3.2,0,0,1-.64.58,6.59,6.59,0,0,0-1-1.27A4.24,4.24,0,0,0,9,8.22l.17.14a4.44,4.44,0,0,1,2,2.54c1.2-.06,2.64-2.2,2.71-3.63C14,5.38,12.38,4.38,11,3.81A37.21,37.21,0,0,0,6.13,2.35,9.11,9.11,0,0,1,2.77,1C2.28.54,2.39.5,2.13,0a4.18,4.18,0,0,0,.8,3.89,3.48,3.48,0,0,0,.87.58L4,4.59Z"/><path class="cls-1" d="M22,23.79c-1.45-.16-1.11-1.8-.3-2.73a5.18,5.18,0,0,1,2.7-1.69,5.7,5.7,0,0,0-4.11,2.74c-.82,1.63.52,3.33-1.38,5.41a3,3,0,0,0,1.53-1.27,3.76,3.76,0,0,0,.3-2.36,3.15,3.15,0,0,0,1.19.6,3,3,0,0,1-.83,1.91,5.19,5.19,0,0,1-1.64,1.09,3.68,3.68,0,0,0,3.23-2.82,7.65,7.65,0,0,1,.72.34c1.34.6,3.55.93,4.88.15.11-.07.21-.13.3-.2l.25-.23a5,5,0,0,1-1.3.51c-1.48.29-3.37-.32-3.4-1.76a2,2,0,0,0,.58.84c1.17.93,3,.63,4.28-.21a5.27,5.27,0,0,0,1.83-2.28A6.22,6.22,0,0,1,29,23.68c-2.65,1.62-5-.5-3.91-1.62.68-.69,1.82-.68,3-.7a4.54,4.54,0,0,0-3.37.28,3,3,0,0,0-1.07.93A1.22,1.22,0,0,0,23.45,24c-1.29-.37-.46-1.83.91-2.62a4.3,4.3,0,0,1,3.83-.26c-.13-.05-.27-.15-.43-.21A5.27,5.27,0,0,0,22.48,22,1.59,1.59,0,0,0,22,23.79Z"/><path class="cls-1" d="M8.38,19.37A8.78,8.78,0,0,1,9.94,20c1.63,1,2.75,3.44.83,3.76a1.44,1.44,0,0,0-.24-1.48L9.9,21.7c-.15-.1-.22-.16-.37-.25a5.16,5.16,0,0,0-4.92-.34,4.51,4.51,0,0,1,2.08-.27c2.41.3,4.24,2.65,2.59,3.18.11-.31.26-.37.15-.85A2.64,2.64,0,0,0,8,21.6a4.83,4.83,0,0,0-3.33-.25c.57.08,1.12,0,1.75.13,3.43.66.44,4.2-2.71,2.17a6.47,6.47,0,0,1-1.79-1.86A5.79,5.79,0,0,0,3,23.47c1.15,1.27,3.47,2,5,.9a1.36,1.36,0,0,0,.55-.66l.08-.12a2.1,2.1,0,0,1-1.84,1.65A4.11,4.11,0,0,1,4,24.76l.14.15.14.11a3.44,3.44,0,0,0,1,.46,7,7,0,0,0,4.77-.81,5.46,5.46,0,0,0,.45,1.08,3.89,3.89,0,0,0,2.81,1.74c-.23-.16-.64-.29-.92-.47a3.26,3.26,0,0,1-1.55-2.53,3.65,3.65,0,0,0,.67-.25c.19-.11.36-.26.53-.34a3.55,3.55,0,0,0,.28,2.36,3,3,0,0,0,1.54,1.26c-2-2.2-.45-3.75-1.47-5.57a5.16,5.16,0,0,0-1.65-1.67,5,5,0,0,0-2.37-.91Z"/><path class="cls-1" d="M5.85,11.67a2.94,2.94,0,0,1-2-.63A3.18,3.18,0,0,0,5.47,12.7,3.51,3.51,0,0,1,4,12.22c-.18-.11-.22-.2-.38-.29a2.06,2.06,0,0,0,1.65,1.56,3.44,3.44,0,0,1-1.73-.43c.21.78,1.25,1.15,1.43,1.28A3.59,3.59,0,0,0,3.68,15a1.66,1.66,0,0,0-.3.34,4.13,4.13,0,0,1,1.56-.22c-.31.17-.68.29-1,.49a2.87,2.87,0,0,0-.86.75,3.92,3.92,0,0,1,1.54-.52,4.73,4.73,0,0,0-1.4.92,5,5,0,0,0-1,1.32c.14-.07.31-.21.47-.3a10.1,10.1,0,0,1,1.76-.67,4.3,4.3,0,0,0-1.36.17,5.34,5.34,0,0,1,2.84-1.65,5.52,5.52,0,0,0-1.72,0c.3-.31,1.38-.48,1.73-.72a5.52,5.52,0,0,0-1.86,0,12.59,12.59,0,0,1,2.1-.7c-.38-.15-1.51-.08-2-.74a2.41,2.41,0,0,0,1.19.24,2,2,0,0,0,1.12-.34c-.79-.08-1.92-.33-2.25-.86A4.37,4.37,0,0,0,5.34,13a2.25,2.25,0,0,0,1.39-.06L4.52,11.67a3.24,3.24,0,0,0,2.05.3c.12,0,.24,0,.35-.06l.33-.11c-.55-.14-2-.74-2.11-1.1a9.68,9.68,0,0,1,5.15.8l.88.62c.13.13.12.16.29.24a3.52,3.52,0,0,0-.65-.72,8.78,8.78,0,0,0-.78-.55C8.2,10,5.93,10.46,4.43,10a3.77,3.77,0,0,1-.92-.42,4.23,4.23,0,0,0,1.61,1.69c.2.12.55.25.73.36Z"/><path class="cls-1" d="M21.23,12.39a5.51,5.51,0,0,0,.56-.46c.17-.13.38-.28.59-.41a9.61,9.61,0,0,1,5.21-.81c-.21.46-1.52.85-2.12,1.11a4.51,4.51,0,0,0,1.4.2,3.57,3.57,0,0,0,1.34-.35,6.57,6.57,0,0,1-1.61,1c-.2.1-.43.17-.6.27a2.23,2.23,0,0,0,1.38.06,4.94,4.94,0,0,0,1.15-.43c-.26.54-1.74.81-2.25.86a1.92,1.92,0,0,0,1.13.34,2.81,2.81,0,0,0,.65,0c.23-.05.38-.15.53-.19a1.58,1.58,0,0,1-.84.5c-.34.11-1,.16-1.19.24a13.52,13.52,0,0,1,2.1.7,5.85,5.85,0,0,0-1.87,0c.36.25,1.37.39,1.74.72a7,7,0,0,0-1.71-.06,14,14,0,0,1,1.59.65c.4.23,1.12.68,1.24,1a3.59,3.59,0,0,0-1.48-.14,5.26,5.26,0,0,1,1.85.63c.14.08.37.26.49.31a5.34,5.34,0,0,0-1.29-1.59,7.74,7.74,0,0,0-1.1-.64,3.35,3.35,0,0,1,1.55.51c-.06-.11,0,0-.08-.11a3.51,3.51,0,0,0-.78-.64,6.4,6.4,0,0,0-1-.48,3.61,3.61,0,0,1,1.58.21,2.84,2.84,0,0,0-1.63-1l.12-.08a2.93,2.93,0,0,0,.72-.43,1.68,1.68,0,0,0,.59-.78,3.55,3.55,0,0,1-1.73.44c.72-.27,1.41-.55,1.65-1.57a3.48,3.48,0,0,1-.79.5,3.58,3.58,0,0,1-1,.27A3.19,3.19,0,0,0,28.86,11a2.91,2.91,0,0,1-2,.65c.17-.12.5-.23.72-.36A4.17,4.17,0,0,0,29.2,9.63a3.17,3.17,0,0,1-.93.41c-1.63.43-3.69-.06-5.6,1.06a5,5,0,0,0-1.44,1.29Z"/><path class="cls-1" d="M18.92,18.65c.2-.26.88-3.83,3.62-3.35a7.43,7.43,0,0,1,1.72.68c-.2-.48-1.41-1-2.05-1.06l-.29,0c-.1,0,0,0-.1-.06.71-.39.84-.32,1.81-.27a2.26,2.26,0,0,0,1.74-.41,2.51,2.51,0,0,1-1.29.21c-1.5-.15-1.75-.5-3.43.73a3.73,3.73,0,0,1,2.07-1.39,5.06,5.06,0,0,0,.91-.26,4.61,4.61,0,0,0-3.19,1.23,3.66,3.66,0,0,0-.49.59,5.86,5.86,0,0,0-.88,2.44,6,6,0,0,1,1.27-3.89,5.11,5.11,0,0,1,.89-.8c-2.24.78-2.89,4.56-2.31,5.65Z"/><path class="cls-1" d="M13.66,17.69a6.09,6.09,0,0,0-.85-2.39,4.75,4.75,0,0,0-.49-.63A4.68,4.68,0,0,0,9.1,13.43a5.44,5.44,0,0,0,.91.26,3.87,3.87,0,0,1,1.53.8c.12.11.17.19.29.29a2,2,0,0,1,.25.3,3.79,3.79,0,0,0-2-.9,8.47,8.47,0,0,0-1.33.16,2.55,2.55,0,0,1-1.34-.18l.15.13.16.09a7.33,7.33,0,0,0,2.43.15,1.61,1.61,0,0,1,.78.3s0,0,0,0a3.5,3.5,0,0,1-.71.13,3.11,3.11,0,0,0-1.73,1,7.08,7.08,0,0,1,1.68-.69c2.81-.52,3.48,3,3.69,3.36.63-2-.57-5.14-2.22-5.63a5.21,5.21,0,0,1,1.51,1.89,6.37,6.37,0,0,1,.56,2.76Z"/><path class="cls-1" d="M20.09,17.59a1.78,1.78,0,0,1,.43-.82,2,2,0,0,1,.74-.52,1.07,1.07,0,0,0,.38,1.34A2.91,2.91,0,0,1,20.09,17.59ZM22,16.24c-.07-.09-.1-.07-.16-.18a2.75,2.75,0,0,1,1.6.36,3.46,3.46,0,0,1-1.33,1,1.68,1.68,0,0,0,.1-.85c-.1.13-.14.28-.36.27C21.5,16.85,21.5,16.21,22,16.24Zm-2.56,1.6a3.54,3.54,0,0,0,2.8,0,4.09,4.09,0,0,0,1.05-.65,3.57,3.57,0,0,0,.78-.9,2.71,2.71,0,0,0-4,.21,4,4,0,0,0-.63,1.33Z"/><path class="cls-1" d="M11.09,17.59c.11-.11.15-.1.26-.26a.94.94,0,0,0,.12-1.08,2,2,0,0,1,1.17,1.33A2.64,2.64,0,0,1,11.09,17.59ZM9.26,16.42a2.56,2.56,0,0,1,1.6-.35l-.16.17c.81,0,.29,1.16-.21.36a1.33,1.33,0,0,0,.1.84A2.72,2.72,0,0,1,9.82,17c-.1-.08-.22-.2-.3-.28l-.14-.15-.06-.07c-.06-.06,0,0-.06-.08Zm-.64-.12a3.08,3.08,0,0,0,.35.48c.08.11.11.1.21.2a1,1,0,0,0,.2.21,4.82,4.82,0,0,0,1,.65,3.65,3.65,0,0,0,2.83,0,3.81,3.81,0,0,0-.61-1.3,2.54,2.54,0,0,0-1.09-.87A2.94,2.94,0,0,0,8.62,16.3Z"/><path class="cls-1" d="M14,5.82a2.74,2.74,0,0,1,1-.58A5.55,5.55,0,0,1,16.34,5a3.43,3.43,0,0,1,2.37.84,3.08,3.08,0,0,0,.37-.47,5.48,5.48,0,0,1,.41-.42,4.44,4.44,0,0,1,1-.72,11,11,0,0,1,2.39-1,8.43,8.43,0,0,0-3.37,1.21,6.51,6.51,0,0,0-.86.69c-.32-.08-.66-.27-1-.38-2-.57-2.74.26-3.54.39-.53-.83-3.19-1.93-4.18-1.92C11.07,3.55,13.47,4.6,14,5.82Z"/><path class="cls-1" d="M18.62,23.12a8.37,8.37,0,0,1-.21-2.23A5.27,5.27,0,0,1,19,19c-.81-.31-1.08-1.19-1.31-2a12.18,12.18,0,0,1-.3-1.36,12.62,12.62,0,0,0-.22-1.46C17,16.15,17.77,21.7,18.62,23.12Z"/><path class="cls-1" d="M13.73,19a5.27,5.27,0,0,1,.58,1.92,7.8,7.8,0,0,1-.2,2.24c.81-1.14,1.61-7.3,1.44-9-.09.36-.12,1-.19,1.45a12.11,12.11,0,0,1-.31,1.41c-.21.76-.52,1.76-1.32,2Z"/><path class="cls-1" d="M4.77,17.25A19.38,19.38,0,0,1,7,16.82c1.46-.11.64.08,1.63,1-.9-.07-.56-.23-1.28.56a3,3,0,0,1-.33.37,5.54,5.54,0,0,0-2.3-.85,3.2,3.2,0,0,0-2.55.46,5,5,0,0,1,4.48.6,4.59,4.59,0,0,0,.46.38l1-1.27a7.13,7.13,0,0,1,1.85.42,4.4,4.4,0,0,1-1.42-1.36c-.14-.23-.18-.48-.29-.66a6.8,6.8,0,0,0-3.51.78Z"/><path class="cls-1" d="M22.79,18.47c.34-.07,1.52-.51,1.8-.39a15.08,15.08,0,0,1,1,1.26,4.34,4.34,0,0,1,2.14-1.11,4.44,4.44,0,0,1,2.8.13c-.07-.05-.1-.09-.19-.15a1.71,1.71,0,0,0-.27-.14,5.32,5.32,0,0,0-4.39.68l-.06-.06,0,0c-.18-.18-.65-.88-.91-.91a4.2,4.2,0,0,0-.61.06,3,3,0,0,0,.69-1,6.75,6.75,0,0,1,1.68.08c.53.08,1,.26,1.51.34a7,7,0,0,0-3.52-.79,3.48,3.48,0,0,1-1.14,1.61A6.35,6.35,0,0,0,22.79,18.47Z"/><path class="cls-1" d="M14.05,6.13a4.68,4.68,0,0,1,0,1.79,2.26,2.26,0,0,1-.66,1.25c.69-.13,1.18-1.67,1-2.77a4,4,0,0,1,1.91-.71,4.05,4.05,0,0,1,1.92.71,3.64,3.64,0,0,0,.19,1.71c.15.39.5,1,.86,1.06A2.28,2.28,0,0,1,19.11,9a3.66,3.66,0,0,1-.44-2.81,5,5,0,0,0-2.28-.84,5.31,5.31,0,0,0-2.34.83Z"/><path class="cls-1" d="M14.47,15.39a7.56,7.56,0,0,0-.79-1.66,2.79,2.79,0,0,0-1.39-1.07c.57.21,1.19,1.24,1.44,1.8a8.38,8.38,0,0,1,.59,2.7A5.16,5.16,0,0,0,15,13.69a9.84,9.84,0,0,0-.65-2.59c-.08-.2-.28-.6-.31-.73.05.37.42,1.33.56,2.35a5.92,5.92,0,0,1-.17,2.67Z"/><path class="cls-1" d="M18.41,17.16c.08-1.34.56-3.41,1.66-4.25l.22-.18s0,0,0,0a3.47,3.47,0,0,0-1.73,1.84c-.14.31-.2.59-.33.88-.43-.84-.21-2.78.06-3.82.09-.36.27-.83.32-1.16a10.12,10.12,0,0,0-.95,3.28,6.61,6.61,0,0,0,.09,1.94,4,4,0,0,0,.64,1.5Z"/><path class="cls-2" d="M22,16.24c-.53,0-.53.61-.15.63.22,0,.26-.14.36-.27a1.68,1.68,0,0,1-.1.85,3.46,3.46,0,0,0,1.33-1,2.75,2.75,0,0,0-1.6-.36C21.93,16.17,22,16.15,22,16.24Z"/><path class="cls-2" d="M9.26,16.42c.05.09,0,0,.06.08l.06.07.14.15c.08.08.2.2.3.28a2.72,2.72,0,0,0,.77.44,1.33,1.33,0,0,1-.1-.84c.5.8,1-.41.21-.36l.16-.17a2.56,2.56,0,0,0-1.6.35Z"/><path class="cls-2" d="M20.09,17.59a2.91,2.91,0,0,0,1.55,0,1.07,1.07,0,0,1-.38-1.34,2,2,0,0,0-.74.52A1.78,1.78,0,0,0,20.09,17.59Z"/><path class="cls-2" d="M11.09,17.59a2.64,2.64,0,0,0,1.55,0,2,2,0,0,0-1.17-1.33.94.94,0,0,1-.12,1.08C11.24,17.49,11.2,17.48,11.09,17.59Z"/><path class="cls-2" d="M15.15,23.52c.25.06.4-.08.62-.15a1.4,1.4,0,0,1,.61-.06c.89,0,.83.33,1.19.21C17.58,22.76,15.14,22.75,15.15,23.52Z"/></g></g></g></svg>