<svg xmlns="http://www.w3.org/2000/svg" viewBox="0 0 36.94 51.63"><defs><style>.cls-1{fill:#020202;}.cls-1,.cls-2{fill-rule:evenodd;}.cls-2{fill:#fff;}</style></defs><g id="Слой_2" data-name="Слой 2"><g id="Слой_1-2" data-name="Слой 1"><g id="_2979011610896" data-name=" 2979011610896"><path class="cls-1" d="M28.22,34.47a4.48,4.48,0,0,1,.07,1.41c.22-.06.29-.26.34-.52a11,11,0,0,0-.53-5.08,16.55,16.55,0,0,0-1.94-3.2,9.43,9.43,0,0,0-1.86-1.57c-.73-.44-.43-.27-.24.51.41,1.7,0,1.71.53,2a9.52,9.52,0,0,1,2.23,2,4.43,4.43,0,0,1,.66,2.65c-.11-.24-.18-.46-.28-.71a10.82,10.82,0,0,0-1.89-2.74c-.11-.1-.13-.16-.25-.27a3,3,0,0,0-1.3-.69c.08.5,1.77,1.38,1.65,3.59-.06,1.25-.85,3.16-1.62,3.61a6.94,6.94,0,0,0-1.61-4.79,2.93,2.93,0,0,0-.53-.57l-.27-.25c-.11-.09-.17-.17-.24-.1s.32.76.4,1A7.81,7.81,0,0,1,21.9,32a6.08,6.08,0,0,1,0,2.72c-.44,1.28-1.77,1-2.18,2.4a4.31,4.31,0,0,0,0,1.34,3.51,3.51,0,0,1-1-1.51c-.4-1.42.23-2.72.85-3.94a15.11,15.11,0,0,1,1-1.48,7.56,7.56,0,0,0-1,.5,7.14,7.14,0,0,0-2.22,2.12,11.47,11.47,0,0,1,.83-1.64c.58-1,1.66-2,1.81-3.08.05-.34-.09-1.66-.57-1.73A2.9,2.9,0,0,1,18.61,30a2.34,2.34,0,0,1-.9.65,4.6,4.6,0,0,1-1.09.44,3.19,3.19,0,0,0,.25-1.72,2,2,0,0,0-.71-1.3,3.5,3.5,0,0,1-.89,2.45c-.11.12-.21.2-.32.32L14,31.87c-.13.17-.15.24-.26.39a6,6,0,0,0-.51.77c-.17.33-.3.57-.45.9s-.28.64-.39.85c.25,0,.54-.91,1.32-1.25-.17.32-.4.68-.58,1A16.86,16.86,0,0,0,11.82,38a17.17,17.17,0,0,0-.53,2.68,6,6,0,0,0,.1,2.53c.07.21,0,.12.15.22.06-.12.08-1.41.16-1.76a6.65,6.65,0,0,1,.54-1.32c.36-.74,1.13-1.84,1.39-2.35a9.71,9.71,0,0,0-.06,2.32,5.29,5.29,0,0,0,.56,2.08c.53,1,1.29,1.69,1.76,2.8.08.19.11.32.27.38a5.34,5.34,0,0,1-.08-2.22,8,8,0,0,1,.43-2.12c.5,1.1,2.13,1.72,2.87,2.86a14.67,14.67,0,0,1,2,3.73l0,0v-.34a20.75,20.75,0,0,0-1.68-5.21A9.81,9.81,0,0,1,20.9,43a9.13,9.13,0,0,1,1.09.83,5.45,5.45,0,0,1,.88,1.05c1,1.37.29,3.16-.24,4.47a10.48,10.48,0,0,1-1.53,2.32,4.62,4.62,0,0,0,2.35-1.43c.13-.11.14-.09.29-.23a8.28,8.28,0,0,0,2.12-3c.17-.49.41-.81.55-1.32a6.69,6.69,0,0,0-.1-3.21,3.19,3.19,0,0,1,.43.5c.17.21.31.32.43.46A8.15,8.15,0,0,0,30.32,46c-.25-.71-1.53-1.68-1.46-4.78a12.24,12.24,0,0,0,1.5.61c1.11.32,4.66.62,5.13-.49a8,8,0,0,1-4.28-1.26c-2.34-1.28-2-1.9-2.84-2.77-.17.56-.19,1.48-1,1.51a12,12,0,0,0-2.22,0,2.41,2.41,0,0,0,.29-1.7c-.09.1,0,0-.07.12l0,.09C25,38,24,39.34,23.09,38.65a2.94,2.94,0,0,1,1-1.37c.64-.62,2.27-1,3.15-1.49.57-.29.68-.86,1-1.32Z"/><path class="cls-1" d="M5,.19c.53.06,1,0,1.19.48.1.22.27,1.07.09,1.27s-.43,0-.58-.07C5.06,1.57,5.48,1.31,5,.19ZM4.2,12.28c.18.39.07.78.44,1a1.46,1.46,0,0,0,1.14.22c.8-.28.32-1.55.13-2.07S4.23,8.77,3.79,7.85c-1-2-.61-5.18.75-5.39s1.61.73,2.16.09a3.07,3.07,0,0,0,.5-.93c.57.2,1.16,1.18,1.63,1.65l1.65,1.5c.19.18.26.32.48.55L12.53,6.9c.9.78,2.35,0,3.76.36a3.89,3.89,0,0,1,.75.28,2.87,2.87,0,0,1,.34.18l.28.26a1.9,1.9,0,0,0-.48,0,.79.79,0,0,0-.38.16c.16.2.48.18.72.39.48.42,1.63.83,1.37,1.69-.29.09-.45,0-.73,0s-.06,0-.18.07l1.09.68a3.9,3.9,0,0,0,.36.22c.37.26,1.14.77,1.23,1.15s-.31,1.27-.27,2a5.27,5.27,0,0,0,.49,1.92c.22.46.19.38.72.51,1,.23,2.13.24,3.14.41.75.12,3.82.3,4.17.51a8.86,8.86,0,0,1-3.46,1.18c-.8,0-1.38.06-2.17.14s-1.27.21-2.07.24c0,.24.05.15.21.33a11.82,11.82,0,0,1,1.38,2.21c-.54-.21-1.23-.91-1.95-1,.73,1.61.76,1,.65,3.44a12.61,12.61,0,0,0-.63-1.94l0,.15a.09.09,0,0,1,0,.05,2.24,2.24,0,0,1,0,.24,2.33,2.33,0,0,1-.08.36l-.16.56c-.07.16,0,.06-.07.13a4.77,4.77,0,0,0-.13-.51l-.19-.38c-.07.17,0,2.48,0,2.93a1.42,1.42,0,0,0,.62-.77l.11.16.08.19.33,1c.06.26.11.47.16.74s.05.27.07.38l.09.37a4.35,4.35,0,0,0,1-2.1,8.53,8.53,0,0,0,.24-2.67,2.71,2.71,0,0,1,.72.54,2.85,2.85,0,0,0,.69.62,18.12,18.12,0,0,0-1.22-3.64,8.18,8.18,0,0,1-.47-1.06,12.29,12.29,0,0,1,2.09,0,3.38,3.38,0,0,1,1.28,1l-1,0A5.86,5.86,0,0,0,26,22.06a5.65,5.65,0,0,0,4.6,2.58c-.06.43-.27,1.08-.36,1.59A10.72,10.72,0,0,0,30.12,28a5,5,0,0,1-.91-1.36c0-.11-.06-.18-.1-.28L29,26.2s0,0,0,0a3.17,3.17,0,0,0,0,1.44c.07.52.31.65.55,1,1.07,1.6,1.52,2.65.85,4.61a7.51,7.51,0,0,1-1.12,1.9,2.66,2.66,0,0,0,1.35-.76,1.92,1.92,0,0,1,.38-.25,3.16,3.16,0,0,0,.47,2,3.73,3.73,0,0,0,1.38,1.14c.81.32,3.73.91,4.12.42-.06,0-.76-.1-.93-.13a2.71,2.71,0,0,1-1.95-1.36,3,3,0,0,0,1.69-.56c.4-.25,1.06-.61,1.17-1.13A3.27,3.27,0,0,1,33.85,34a14.58,14.58,0,0,0,1.56-3.2c-.41.07-1.12.5-1.73.31.37-.09.83-.23,1-.53a6.36,6.36,0,0,1-3.23-1.34c-.93-.91-.73-2.34-.41-3.51a12.4,12.4,0,0,1,1-2c-.32-.09-.65.11-.95.17a8.91,8.91,0,0,1-1.05.09c.56-.54,2.24-.32,2.48-.72a22.28,22.28,0,0,0-2.62-.54,3.47,3.47,0,0,1-2-1.12c.62,0,3.28.24,3.7-.26-.51-.08-1-.07-1.55-.19-2-.47-2-1-3.1-2a6.18,6.18,0,0,0,1.17-.38A10.13,10.13,0,0,0,30.7,17a14.09,14.09,0,0,0-2.32-1.52,19,19,0,0,1-2.4-1.4l-2.27-1.53c-1.22-.9-1-.25-2.05-1.74a10.54,10.54,0,0,0-1.37-1.53,2.69,2.69,0,0,0-.46-.44c-.76-.55-1.42-1-2.26-1.54-1.72-1-.52-.74-2.88-.54-.87.07-.92.19-1.61-.18A13.21,13.21,0,0,1,12,5.77L7.17,1.05c-.31-.39-.4-.74-1-.89S5-.12,4.64.16A6.92,6.92,0,0,0,2.53,3.71c-.79,2.45-.16,3.13.35,4.73.44,1.35,1.71,3.77.4,4.1-.28-.33-.25-.71-.42-1-.07-.13,0,0-.08-.11-.5.83-.79,2.74.09,3.37a7.49,7.49,0,0,0,.65.45c.23.14.44.25.69.41,1.57,1,2.88,1.16,3.08,3.42a2.45,2.45,0,0,1-.43,1.76c-.32.26-1.24.62-1.35.74a6,6,0,0,0,1.6,0c-.18.32-.57.46-.82.71l-1.9,1.84a1.17,1.17,0,0,0-.19.2c-.16.32,0,.13,0,.2A3,3,0,0,1,5.55,24,2.91,2.91,0,0,1,7,24.31a4.3,4.3,0,0,1-1.21.4,8.82,8.82,0,0,0-1.13.41c-.56.24-1.83.73-2,1.19.35,0,.64-.07,1,0a5.41,5.41,0,0,1,2.43.68,7.56,7.56,0,0,1-3.09.55c-.84,0-2.49-.27-3.08.3l.08.05,0,0,1.21.53c.38.19.92.39,1.26.6a3.42,3.42,0,0,0,3,.64A4.69,4.69,0,0,0,8.26,28.5a6.21,6.21,0,0,0,1.66-5.66,15,15,0,0,0-.76-3A14.38,14.38,0,0,0,8,17.19a6.07,6.07,0,0,0-1.86-1.91c.11.29.32.32.57.56A9.09,9.09,0,0,1,8,17.67,9.3,9.3,0,0,1,8.9,21c.13,1.19.48,2.65,0,3.78C8.59,25.74,7,26.16,6,26.08a12.77,12.77,0,0,0,1.52-.67c.32-.19,1.07-.77,1.14-1.1-.28-.19-.74-.4-1.06-.6a6.06,6.06,0,0,0-1.15-.4,3,3,0,0,0,1.38-1,3.59,3.59,0,0,0,.67-1.67l-.17,0c-.21-.06-.15-.24-.2-.47a9.66,9.66,0,0,0-.72-2,4,4,0,0,0-1.71-2,23.45,23.45,0,0,0-2.38-1.35c-1-.52-.9-1.92-.62-2.83.2.38.19.64.62.78s.64-.18.85-.4Z"/><path class="cls-1" d="M9.49,34.75c.5,0,1.66-1,2-1.37a11,11,0,0,0,1.15-2.12,14.83,14.83,0,0,0,.5-4.47c0-.26,0-.52-.08-.77-.08-.52-.07-.46-.22-.55,0,.08,0,0,0,.14v.44c0,1,0,2.7-.57,3.45l-.09-.57c-.56.68-.15,1-2.29,3.08-.2.2-.35.25-.55.47a15.92,15.92,0,0,1-1.85,1.31,5.83,5.83,0,0,0-1.18.94,15,15,0,0,1-3,2.28,11.85,11.85,0,0,1,1.06-1.93,9.9,9.9,0,0,1,4.09-3.32,8.65,8.65,0,0,0,.92-.5c-.27-.21-.64,0-1.16.13a10.27,10.27,0,0,1-4.1-.08c.45-.13,1-.39,1.42-.47a13.67,13.67,0,0,1,1.69.09C6.66,30.28,5,30.15,4,30.41a13.53,13.53,0,0,1-1.61.4c-1.3.19-1-.21-1.44-.37,0,.3,0,.32.17.51a1.48,1.48,0,0,0,.34.37c1.06.75,2.93.79,3.26,1a9.85,9.85,0,0,0-1,.63,5.72,5.72,0,0,0-1.42,1.79,3,3,0,0,0-.5,1.11l1-.62a8.93,8.93,0,0,1,1.08-.53c-.13.27-.47.59-.68.93a20.51,20.51,0,0,0-1.34,3.21c.12,0,.19-.19.34-.35.64-.69.83-.61,1.66-1.18l1.32-.81a10.33,10.33,0,0,0-.41,5c.23-.12.14-.12.21-.41a12.33,12.33,0,0,1,1.51-2.47,7.47,7.47,0,0,0,1.15-3.43,1.69,1.69,0,0,0,.36.8,4.77,4.77,0,0,1,1-1.68,7.24,7.24,0,0,1,1.47-1.16,4.21,4.21,0,0,1-.92,1.64Z"/><path class="cls-1" d="M7.48,4.22c.14.29,1,.42,1.78,1.57a26.86,26.86,0,0,1,1.88,3.14,14.66,14.66,0,0,1,.74,2.62c.06.41,0,1.3.14,1.58s.62.39,1.1,1c.7.84.17,0,.91,1.21a8.29,8.29,0,0,1,1.09,2.85l.09.24a5.27,5.27,0,0,0-.08-1.8c-.11-.58-.25-1.13-.37-1.69a5.83,5.83,0,0,1,1.32,1.19l1.75,2a5.79,5.79,0,0,0,.56.73c.5.5.82,1.29,1.11,1.36-.12-.54-.23-1.19-.42-1.79a12.45,12.45,0,0,0-1.89-3.85l-.49-.64.88-.06a1.34,1.34,0,0,0-.48-.23,4.5,4.5,0,0,0-.51-.2l-3.45-1a25.22,25.22,0,0,0-.48-3l-1-1.57c-.14-.18-.28-.27-.44-.47a11.37,11.37,0,0,0-3.14-3c-.11-.05-.53-.27-.6-.18Z"/><path class="cls-1" d="M16.48,26.69c-.15-.21-.37-.4-.55-.65a5.66,5.66,0,0,1-.87-2.63,9.29,9.29,0,0,1,.7-4c-.55.18-1.15,2.71-1.26,2.89a20.1,20.1,0,0,1-1.76-5.41c-.06-.34-.12-.68-.2-1,0-.17-.08-.3-.12-.46-.1-.37-.14-.33-.27-.38A17.42,17.42,0,0,1,11.9,17a21,21,0,0,1-1.24,3.15c-.18.48-.56,1-.73,1.46a1.84,1.84,0,0,0,1.34-.47c.87-.53.46-.35,1-.95,0,.42,0,.85.06,1.29.09.69.44,2.79.85,3.14,0-.46-.11-1.39.12-1.76a19.81,19.81,0,0,0,1.23,2.27c.27.38,1.45,1.56,2,1.55Z"/><path class="cls-1" d="M16,18.31c.46.55,1,3.43,1.14,4.37a11.26,11.26,0,0,1-.47,4.79,13.09,13.09,0,0,0,1.3-2.83c.07-.3.22-.72.32-1a31.38,31.38,0,0,1-.49,3.93c.51-.16.84-.88,1-1.44s.44-1.18.67-1.77.37-1.23.58-1.87.26-1.3.48-1.9c-.44.13-.05.75-1.08,1.62l-.77-1.1A10.05,10.05,0,0,0,16,18.31Z"/><path class="cls-1" d="M34.48,44.62c-.23-1-3.45-2.42-4.31-1.93.14.25.29.32.45.59A6.91,6.91,0,0,1,31,44a4,4,0,0,1,.32,1.81,12.94,12.94,0,0,1-.33,1.85c-.09.32-.13.57-.23.87a3.36,3.36,0,0,0-.29.7c.35,0,.38-.1.65-.28a2.56,2.56,0,0,0,1.25-1.51,6.74,6.74,0,0,0,.5-3.22C33.76,44.05,33.82,44.37,34.48,44.62Z"/><path class="cls-1" d="M5.32,41.54c.23,0,.23-.14.44-.28.8-.54,2.4-.5,3.39-1.56a5.14,5.14,0,0,0,.68-.8,11.42,11.42,0,0,0,.82-2,2.42,2.42,0,0,1,.52-.93c-.58,0-.73.18-1.08.43a9.27,9.27,0,0,0-2,2.22c-.55.62-2.66,2.33-2.74,2.94Z"/><path class="cls-1" d="M29.08,36.31a16,16,0,0,1,1.26,2c.1.21.22.58.3.71a7.53,7.53,0,0,1,1.5-.39,5.08,5.08,0,0,1,2.82.8l.91.45c.07,0,.05,0,.15.06.81.1-2.63-2.1-2.94-2.24-.65-.31-3.34-1.5-4-1.35Z"/><path class="cls-1" d="M24,18.79c0-.15,0-.09-.14-.27a16.37,16.37,0,0,0,2,0c0-.18,0,0-.1-.13s0,.06-.12-.08A6.21,6.21,0,0,0,27.46,18c.12-.06,0,0,.12-.08-.16-.11-2.6-.08-3.41-.57-.49.26.45.3-1.18.05a5.1,5.1,0,0,0-1.25-.16c.09.29,1.74,1.65,2.23,1.53Z"/><path class="cls-1" d="M13,8.61c.05.46.45.62.83.79a5,5,0,0,0,.57.27,7.7,7.7,0,0,1,1.18.49c.19.09.39.15.59.25a10.24,10.24,0,0,0,1.1.61.58.58,0,0,0-.23-.33A4.35,4.35,0,0,1,16.1,10c-.35-.41-.49-.37-.65-1-.08-.3,0-.18-.15-.43a5.36,5.36,0,0,0-1.06.1A9.64,9.64,0,0,1,13,8.61Z"/><path class="cls-1" d="M18.11,12.33c-.05.09-.06,0,0,.13l.4.44a11,11,0,0,1,.87,2.5c.2-.21.2-1,.19-1.32a11.1,11.1,0,0,0-.26-1.37l.49-.15c0-.49-.32-1-.65-1.06.34,1.21-.46.59-1,.83Z"/><path class="cls-2" d="M5,.19c.53,1.12.11,1.38.7,1.68.15.08.44.23.58.07s0-1-.09-1.27C6,.22,5.48.25,5,.19Z"/><path class="cls-1" d="M21.64,19c.38-.13.09-.16.33-.43.13.13.24.33.48.28a3.2,3.2,0,0,0-1.14-1.4c.05.26.17.33.25.69S21.56,18.78,21.64,19Z"/></g></g></g></svg>