<svg xmlns="http://www.w3.org/2000/svg" viewBox="0 0 39.24 39.53"><defs><style>.cls-1{fill:#fbf3ec;}.cls-1,.cls-10,.cls-100,.cls-101,.cls-102,.cls-103,.cls-104,.cls-105,.cls-106,.cls-107,.cls-108,.cls-109,.cls-11,.cls-110,.cls-111,.cls-112,.cls-113,.cls-114,.cls-115,.cls-116,.cls-117,.cls-118,.cls-119,.cls-12,.cls-120,.cls-121,.cls-122,.cls-123,.cls-124,.cls-125,.cls-126,.cls-127,.cls-128,.cls-129,.cls-13,.cls-130,.cls-131,.cls-132,.cls-133,.cls-134,.cls-135,.cls-136,.cls-137,.cls-138,.cls-139,.cls-14,.cls-15,.cls-16,.cls-17,.cls-18,.cls-19,.cls-2,.cls-20,.cls-21,.cls-22,.cls-23,.cls-24,.cls-25,.cls-26,.cls-27,.cls-28,.cls-29,.cls-3,.cls-30,.cls-31,.cls-32,.cls-33,.cls-34,.cls-35,.cls-36,.cls-37,.cls-38,.cls-39,.cls-4,.cls-40,.cls-41,.cls-42,.cls-43,.cls-44,.cls-45,.cls-46,.cls-47,.cls-48,.cls-49,.cls-5,.cls-50,.cls-51,.cls-52,.cls-53,.cls-54,.cls-55,.cls-56,.cls-57,.cls-58,.cls-59,.cls-6,.cls-60,.cls-61,.cls-62,.cls-63,.cls-64,.cls-65,.cls-66,.cls-67,.cls-68,.cls-69,.cls-7,.cls-70,.cls-71,.cls-72,.cls-73,.cls-74,.cls-75,.cls-76,.cls-77,.cls-78,.cls-79,.cls-8,.cls-80,.cls-81,.cls-82,.cls-83,.cls-84,.cls-85,.cls-86,.cls-87,.cls-88,.cls-89,.cls-9,.cls-90,.cls-91,.cls-92,.cls-93,.cls-94,.cls-95,.cls-96,.cls-97,.cls-98,.cls-99{fill-rule:evenodd;}.cls-2{fill:#322724;}.cls-3{fill:#352020;}.cls-4{fill:#fea356;}.cls-5{fill:#eb6a13;}.cls-6{fill:#eb8534;}.cls-7{fill:#fd9c3b;}.cls-8{fill:#e44202;}.cls-9{fill:#ea8d4b;}.cls-10{fill:#e1d6d5;}.cls-11{fill:#e4d5d2;}.cls-12{fill:#fd7c14;}.cls-13{fill:#ec833c;}.cls-14{fill:#f38634;}.cls-15{fill:#f54c03;}.cls-16{fill:#fe8016;}.cls-17{fill:#f96c11;}.cls-18{fill:#624e52;}.cls-19{fill:#fc9738;}.cls-20{fill:#983408;}.cls-21{fill:#862606;}.cls-22{fill:#e6853b;}.cls-23{fill:#fe9344;}.cls-24{fill:#ec8d4c;}.cls-25{fill:#c9c5bd;}.cls-26{fill:#d9c5c3;}.cls-27{fill:#fc7d1a;}.cls-28{fill:#f6f3ec;}.cls-29{fill:#ddd4d4;}.cls-30{fill:#e76716;}.cls-31{fill:#fea359;}.cls-32{fill:#b7a5a4;}.cls-33{fill:#e69b71;}.cls-34{fill:#fcb77c;}.cls-35{fill:#95807f;}.cls-36{fill:#c7b8b4;}.cls-37{fill:#9c928e;}.cls-38{fill:#f36c13;}.cls-39{fill:#ec8736;}.cls-40{fill:#e4dbd5;}.cls-41{fill:#c8bdc1;}.cls-42{fill:#dccccb;}.cls-43{fill:#f2e9e3;}.cls-44{fill:#cbc5c4;}.cls-45{fill:#ebe4dc;}.cls-46{fill:#e6e3da;}.cls-47{fill:#c23d03;}.cls-48{fill:#a93304;}.cls-49{fill:#dacac4;}.cls-50{fill:#644c4b;}.cls-51{fill:#e8d9d6;}.cls-52{fill:#b3abac;}.cls-53{fill:#d5c4bc;}.cls-54{fill:#bc430c;}.cls-55{fill:#f88d46;}.cls-56{fill:#d4540d;}.cls-57{fill:#c6b5ac;}.cls-58{fill:#655856;}.cls-59{fill:#645b5b;}.cls-60{fill:#331e1d;}.cls-61{fill:#eb6b1a;}.cls-62{fill:#d5ccc4;}.cls-63{fill:#d65713;}.cls-64{fill:#260903;}.cls-65{fill:#eae5e2;}.cls-66{fill:#271508;}.cls-67{fill:#f94c02;}.cls-68{fill:#e8a976;}.cls-69{fill:#b94406;}.cls-70{fill:#e94706;}.cls-71{fill:#e76b24;}.cls-72{fill:#ada9a8;}.cls-73{fill:#f57a26;}.cls-74{fill:#f57717;}.cls-75{fill:#361915;}.cls-76{fill:#36291a;}.cls-77{fill:#e95706;}.cls-78{fill:#f8c88b;}.cls-79{fill:#d74504;}.cls-80{fill:#f45403;}.cls-81{fill:#49322a;}.cls-82{fill:#6b1502;}.cls-83{fill:#581706;}.cls-84{fill:#d73e05;}.cls-85{fill:#cb560a;}.cls-86{fill:#da8848;}.cls-87{fill:#dcd6d7;}.cls-88{fill:#f58219;}.cls-89{fill:#937e7d;}.cls-90{fill:#392927;}.cls-91{fill:#faa249;}.cls-92{fill:#d5a873;}.cls-93{fill:#645d62;}.cls-94{fill:#8b8486;}.cls-95{fill:#f6e9e6;}.cls-96{fill:#362d2b;}.cls-97{fill:#fd9c42;}.cls-98{fill:#88807e;}.cls-99{fill:#30ab20;}.cls-100{fill:#7b2707;}.cls-101{fill:#883717;}.cls-102{fill:#e75715;}.cls-103{fill:#4e423a;}.cls-104{fill:#c95716;}.cls-105{fill:#ea842a;}.cls-106{fill:#453936;}.cls-107{fill:#9d9592;}.cls-108{fill:#b0350e;}.cls-109{fill:#5a4d53;}.cls-110{fill:#cc5627;}.cls-111{fill:#e98845;}.cls-112{fill:#d06712;}.cls-113{fill:#b34e11;}.cls-114{fill:#8e5949;}.cls-115{fill:#962a05;}.cls-116{fill:#1eb314;}.cls-117{fill:#c44409;}.cls-118{fill:#481707;}.cls-119{fill:#085720;}.cls-120{fill:#a94817;}.cls-121{fill:#da742a;}.cls-122{fill:#138719;}.cls-123{fill:#0b7a18;}.cls-124{fill:#0b5914;}.cls-125{fill:#d87836;}.cls-126{fill:#137030;}.cls-127{fill:#736c6d;}.cls-128{fill:#21732a;}.cls-129{fill:#e8a569;}.cls-130{fill:#ebb38e;}.cls-131{fill:#fcf5e5;}.cls-132{fill:#d4946d;}.cls-133{fill:#766867;}.cls-134{fill:#fef3da;}.cls-135{fill:#b8b0ae;}.cls-136{fill:#190c08;}.cls-137{fill:#156136;}.cls-138{fill:#4e2a12;}.cls-139{fill:#f8b784;}</style></defs><g id="Слой_2" data-name="Слой 2"><g id="Слой_1-2" data-name="Слой 1"><g id="_3015349890304" data-name=" 3015349890304"><path class="cls-1" d="M4.72,28.13a2.78,2.78,0,0,0,.68.58c.13.11.21.15.35.26s.2.13.31.31c.44.18,1.23,1,1.55,1.11s.07.12.38.35.14,0,.29.28c.23.09.06,0,.22.12s0,.05.12.15c.32,0,.12,0,.34.22l2.12,1.67a3.36,3.36,0,0,0,.66.47l1.17,1c.72.63.43.1.54.59l.84.4a5.59,5.59,0,0,1,.87.38c.2.09.65.33.76.35.37.05.23.17.71.3l1.55.49c1.19.36.67.26.81.08a14.86,14.86,0,0,1-1.79-1.52c-.3-.28-.57-.47-.87-.79l-3.78-4.28s0,0,0-.06c-.23-.22-1.1-.74-1.46-1a13.93,13.93,0,0,1-1.39-1,14.8,14.8,0,0,1-1.9-.67l-.94-.35A2.34,2.34,0,0,1,6,27.17l-.74-.08-.16,0a1.29,1.29,0,0,1-.8,0c.24.56.1.22.75.38.3.07.28.23.19.44-.43,0-.08,0-.36-.15l0,0C4.59,27.74,4.72,27.89,4.72,28.13Z"/><path class="cls-2" d="M5.92,2.48a21.29,21.29,0,0,0,0,3.11c0,1,0,2.1,0,3.14.09.08,0,0,.12.13l1.88,2.4c.22.11.08,0,.24.19l.2.25a.86.86,0,0,0,.51.38c.43.05.47-.1.8-.1.11-.1,0,0,.21-.15l.78-.29a2.81,2.81,0,0,0,1-.44,7.16,7.16,0,0,1-.85-.34,2.89,2.89,0,0,1-.9-.43A20.2,20.2,0,0,1,7.11,9.25l3.19.21.54,0-.4-.28L10,9,7.52,7.83l1.63,0c-.35-.42-1.55-1-1.79-1.4l3.3.93c.24-.08.06-.13-.59-.62L8,5a1.24,1.24,0,0,1-.39-.4,6.68,6.68,0,0,1-1.18-.52c.42,0,3.2.16,3.43.09s.06.1.18-.1A21.41,21.41,0,0,1,7.18,3a7.75,7.75,0,0,1,1.15.2c.36,0,.16.13.3-.11a16.37,16.37,0,0,1-2-2A3,3,0,0,0,5.92,2.48Z"/><path class="cls-3" d="M29.19,4.11c.28.32.24.12.24.12l3.36-.12c-.11.12,0,0-.21.16a.87.87,0,0,1-.17.07,6.76,6.76,0,0,0-.91.39L29.92,6.08c-.28.24-.52.42-.79.64-.71.58-.8.49-.56.61l3.42-1a9.76,9.76,0,0,1-.89.7,4,4,0,0,1-.94.6c.12.3,0,.14.33.2l1.19,0L29.26,9a2.09,2.09,0,0,0-.87.5l.61,0,3.12-.22a2.51,2.51,0,0,0-.76.41l.21,0-.09.56c-.64,0,.21-.09-.73-.15a5,5,0,0,1,.06,1.25l.17.15a17.56,17.56,0,0,0,1.77-2.05L33,9.1l.32-.41,0-6.08L32.67,1,30.59,3.2,32,3a17.19,17.19,0,0,1-2.83,1.16Z"/><path class="cls-4" d="M5.94,24.05c0,.34.37.52.63.84s.4.5.64.79A17.16,17.16,0,0,1,8.5,27.29c.26.12.18,0,.3.31.3,0,.18,0,.26.12.54.11,1.24.4,1.77.56.68.2,1.33.31,1.63.84.19.08.17.15.41.26-.11-.44-.41-.29-.63-.77.18-.31.45-.36.61-.67,0-.08,0-.08.06-.16.12-.27.11-.17.29-.34.5-.48.46-.47.33-.88a12.31,12.31,0,0,0-1.5-.92,11.56,11.56,0,0,1-1.55-.93c-.65-.1-1.33-.32-2-.44-.4-.06-.71-.1-1-.18a2.44,2.44,0,0,0-.93-.17l-.58.13Z"/><path class="cls-5" d="M23.59,10.18a2.24,2.24,0,0,1-.09.45c-.17.43,0,.15-.24.29.09.41,0,.17-.06.32l-.53.6c-.21.22-.55.58-.75.84l0-1c-.18.24,0,.84-.17,1.11s-.15.13-.26.33,0,.17-.22.43L21,14.77l1.26-.15a7.53,7.53,0,0,1-.87.92l-.45.46-.47.42-.64,1.74a.85.85,0,0,0,.21.64,15.93,15.93,0,0,1,1.81.78c.46-1,1.38-2.23,1.56-2.71.3-.8-1.78-2.28-.54-2.74,0-.18.45-.55.77-.88l.84-.83L24.05,10l-.13-.91-.14.28a1.68,1.68,0,0,0-.07.24c-.05.2-.09.37-.12.54Z"/><path class="cls-6" d="M22.84,14.13c-1.24.46.84,1.94.54,2.74-.18.48-1.1,1.7-1.56,2.71l0,.09.18.67a19.37,19.37,0,0,1,1.58-1.52c.36-.62-.31-2,.14-2.15l.91-.3c.24-.07,1-.19,1.08-.23-.05-.42-.05-.11.11-.24a2.54,2.54,0,0,0,1.09,0,1.77,1.77,0,0,1,1.18-.19c.1-.32.2-.29.6-.31a9.13,9.13,0,0,1,1,0c.08-.19-.08-.18.7-.33l.4-.07c.4-.09.21,0,.35-.21l-.78-.19-.8-.18-4.67-1.06c-.24.05-.17,0-.33.12l-1.23.65c-.27.17,0,.19-.53.17v-.24Z"/><path class="cls-7" d="M13.3,13.69l-3.78.84-.29.07-.93.25a.18.18,0,0,0-.05.08V15c.09.15.71.16.87.21.49.16.21,0,.26.27.24,0,.83-.08,1-.08.84,0,.39.2,1.66.43.36.06.71,0,.93.25a14.14,14.14,0,0,1,2.52.46c.55.36.08,1.63.11,2.23l.14.38c0-.46,0-.2.09-.28a7.81,7.81,0,0,1,1.29,1.42l.2-.08.09-.45a2.45,2.45,0,0,0-.57-1.24c-.26-.37-.42-.75-.67-1.14s-.45-.68-.12-1.26A6.88,6.88,0,0,1,16.73,15l.1-.48-.24-.21c-.58,0-.32,0-.6-.23s-.26,0-.39-.4a1.56,1.56,0,0,1-1.09,0c-.45-.07-.76.15-1.21.09Z"/><path class="cls-8" d="M29.33,20.21c-.09.15.08.05-.09.14a4,4,0,0,1,.61.94,5.48,5.48,0,0,1,.64,1l0,.14c.71.36,1.62.71,2.46,1.06s1.68.75,2.48,1l-.15,0a.44.44,0,0,0,.16.1l.24.07c.28,0,.35,0,.62,0a12.14,12.14,0,0,0,2.33,0l.57,0-.88-.55-1.51-.69L36.14,23c-.37-.16-.7-.27-.84-.52a9.28,9.28,0,0,1-2.39-1.09c-.48-.34-1.2-1.55-1.92-1.63-.14.12,0,0-.25.15l-1.41.27Z"/><path class="cls-9" d="M23.56,18.82c-.09.46-1,2.63-.93,2.72l1.14-2.23H24l-.3-.14,0-.55c.5,0,4.79.7,6,.9a1.18,1.18,0,0,1,.2,0l.06,0-.44.05a3.52,3.52,0,0,0,1.25.15c.32-.06.12,0,.31-.19-.53-.18-.23-.18-.47-.44s-.17,0-.53-.45l-.78-.94c-.47-.14-.4-.79-1.6-1.09-.14,0-.3-.11-.49-.18a3.81,3.81,0,0,0-1.54-.36c-.07,0-.84.16-1.08.23l-.91.3c-.45.16.22,1.53-.14,2.15Z"/><path class="cls-10" d="M29.58,28.64a5.68,5.68,0,0,0-.76.49l-.73.48c-.48.32-1,.71-1.48,1-.14.44-.6.63-.59.88-.22.89-.12.29-.12,1.25h-.42c-.41.1-.2-.19-.26.3h.48c-.06,1,.19-.05.23.87h-.68v.25h.46v.43h-.44v.35l0,.2L24,35.18s-.12.65.55.37c.36-.15.23-.28.75-.16.13,0,.23.08.29-.1.17-.36.29-.31.57-.51l1.11-.86.49-.42a4.81,4.81,0,0,1,.56-.42c.34-.21.24-.22.49-.42s.91-.6,1-.84c-.11-.25-.09-.15-.49-.15,0-.78-.38-.42-.26-1.11s.23.21.23-1c.3-.24.13.06.39-.41a1.63,1.63,0,0,1,.11-.17l-.19-.08c.29-.07.05,0,.27-.09l-.05-.25-.23.13Z"/><path class="cls-11" d="M34.52,27l-1.36.25c-.11.11,0,0-.2.14l-.22.09-2.93,1.06.05.25c-.22.09,0,0-.27.09l.19.08a1.63,1.63,0,0,0-.11.17c-.26.47-.09.17-.39.41,0,1.26-.1.34-.23,1s.21.33.26,1.11c.4,0,.38-.1.49.15a1.25,1.25,0,0,0,.64-.53,14.16,14.16,0,0,0,1.86-1.55c.19-.2,0-.18.37-.19.2-.05.07,0,.29-.14l.24-.19,2.15-1.66c.72-.52.58-.52.64-.32.31-.11.06.05.3-.19s.06-.26.57-.27a2.41,2.41,0,0,0,1.2-.22c-.66,0-1.24.13-1.89.18s-1.06.23-1.65.23Z"/><path class="cls-12" d="M3.91,24.57c-.14.12-.06.1-.32.16a1.25,1.25,0,0,1-.43,0c0,.29,0,.27-.49.5L2,25.67c-.28.24-.81.3-1,.66.36.19.48,0,.73.12s.06-.12.18.17l.73.09c.39,0,.93.08,1.29.15l.59.09.33.05.3.12.16,0s.06-.06.07,0,0,0,.07,0a.57.57,0,0,1,.22,0l1.22.13a15,15,0,0,1,1.7.18,17.16,17.16,0,0,0-1.29-1.61c-.24-.29-.39-.47-.64-.79s-.58-.5-.63-.84l-2,.52Z"/><path class="cls-13" d="M25.69,16.14a3.81,3.81,0,0,1,1.54.36c.19.07.35.14.49.18,1.2.3,1.13.95,1.6,1.09-.15-.42,0-.13,0-.24l.95,0L34.55,19c.42.19.15.25.66.31-.1-.2-.12-.18-.22-.36,0,0-.1-.18-.11-.19-.12-.18,0-.08-.16-.2l0,0a10.85,10.85,0,0,1-1.07-1.09c-.41-.43-.61-.67-1.05-1.13a1.49,1.49,0,0,0,.05-.22c-.19,0-.13,0-.28-.06l0,.09c-.74-.1-2.13-.74-2.61-.72a9.13,9.13,0,0,0-1,0c-.4,0-.5,0-.6.31a1.77,1.77,0,0,0-1.18.19,2.54,2.54,0,0,1-1.09,0c-.16.13-.16-.18-.11.24Z"/><path class="cls-14" d="M29.32,17.77l.78.94c.36.48.33.24.53.45s-.06.26.47.44c-.19.21,0,.13-.31.19H31c.72.08,1.44,1.29,1.92,1.63a9.28,9.28,0,0,0,2.39,1.09h.8c.48,0,.3,0,.66.22-.12-.28,0-.12,0-.2.63,0,1-.1,1.52.31.17.14.07,0,.17.18l.13-.08a2.66,2.66,0,0,0-.79-.81c.1.44,0,.15,0,.26L31.7,18.54l-.23-.15-1.17-.82-.95,0c-.07.11-.18-.18,0,.24Z"/><path class="cls-15" d="M4,22.51c-.17.29,0,.09-.35.26-.16.08-.23.13-.37.19l-.08.27c-.46,0-.67.54-.79.66l-.19.17c.27.06.07-.13.23.23.62.24.73,0,1.78,0a35.33,35.33,0,0,0,4.3-1.75c-.29-.31-.77.13-1-.23l-.11.37-.35,0a.66.66,0,0,1,0-.2c.08-.27,0,0,.08-.13s.1,0,.15-.2c.09-.82-.2-.26.23-.71l.16-.52c.48,0,.39,0,.48-.4.49,0,1-.24,1,.41,0,.26-.31.59-.26,1l.32-.39c.09-.13.18-.3.27-.42.21-.29.47-.54.34-.85a6.65,6.65,0,0,1-1.73-.39c-.61.11-1.34,1.29-1.86,1.64A15.45,15.45,0,0,1,4,22.51Z"/><path class="cls-7" d="M17.6,21.93a2.49,2.49,0,0,0-.06,1.58,12.87,12.87,0,0,1,.16,1.62,4.61,4.61,0,0,1-.26-1.2c0-.2-.06-.33-.1-.55s-.06-.39-.21-.57a4.76,4.76,0,0,1-.26,1.07l0,.22a.11.11,0,0,1,0,0l.15.27c.25.61.63,2,.85,2.39.47.84-.1,2.33.19,3.49h0l0-2.4a8.17,8.17,0,0,1,.44,2l1-.3a18.9,18.9,0,0,0,.05-3.13L19.42,26l-1.59-4.14c-.17,0-.11,0-.23.07Z"/><path class="cls-9" d="M28.58,24.92a20.34,20.34,0,0,0-2.89,1.64c0,.11-.54.68.4.69,0,.53.22.38.51.7l.47.52s0,0,0,.06l.06.19A12.39,12.39,0,0,1,29,28.09l.92-.3c.5-.16.51-.1.72-.51l-.37,0-.3.38c-.26-.12.19.24-.11-.1l-.22-.32A13.36,13.36,0,0,1,29.55,25c-.19,0-.13-.11-.12-.07-.36,0-.37.14-.85,0Z"/><path class="cls-16" d="M16.73,15A6.88,6.88,0,0,0,16,16.11c-.33.58-.2.76.12,1.26s.41.77.67,1.14a2.45,2.45,0,0,1,.57,1.24h.07c.1-.3.53-.43.81-.57a4.91,4.91,0,0,1,1-.44c.16-.29.17-.22.13-.6l-.63-1.8c-.65-.4-1.21-1.27-1.75-1.63-.12.2,0,.1-.3.25Z"/><path class="cls-17" d="M33.18,24.39a.77.77,0,0,1-.19.51c.1.43,0,0,.15.29s0,.18-.19.43l-.11.12-.11.08-.1,0-.1,0a.39.39,0,0,0-.22-.28c-.15.18-.34.34-.2.61.06.11.14.14.19.2l.16.3,1.29,0c.48,0,.8-.08,1.26-.08-.12-.36-.14-.12-.22-.35.47-.09.36.2.46-.24-.22.41-.11,0,.22.35l.05,0,0,.05c.36,0,.63,0,1,0,1-.05.52-.2.53-.21.58.05.49-.22.77-.06-.37-.19-.23.06-.27.15l.57-.09.06-.28a4.55,4.55,0,0,0-1-.59c-.15-.09-.36-.21-.54-.3s-.46-.17-.34-.41c-.27,0-.34,0-.62,0l-.24-.07a.44.44,0,0,1-.16-.1l-2-.53,0,.07Z"/><path class="cls-18" d="M31,11.49c0,.21.06,0-.11.24a1.83,1.83,0,0,1-.13.16c-.16.17-.12.14-.4.18l.05,0c.49.18,1.37.12,1.8.3-.67.25-3.27.14-3.58.58.34,0,1-.09,1.21.13a3.56,3.56,0,0,1,1.26,0l.13.06a19.59,19.59,0,0,1-2.36.71c.18.18.18.13.4.26l.19.13c.16.15,0,0,.15.2l.8.18c.28-.07.6-.49,1.11-.88s.89-.85,1.17-.72a6.21,6.21,0,0,1,.72-1.46c0,.39,0,.35.14.51l-.1-.64c-.08-.11,0,0-.09-.21a.66.66,0,0,1,0-.15l0-2.43L33,9.1l-.27.34A17.56,17.56,0,0,1,31,11.49Z"/><path class="cls-4" d="M10.49,17.28c.53.1.44-.13,1-.13a13.18,13.18,0,0,1,0,1.54c.8-.1,0,0,.5-.24a2.59,2.59,0,0,1,.45-.14c0,.46.19.47,1.3.32a1.55,1.55,0,0,0,.72-.17c.21-.11.12-.18.56-.08,0-.25,0-.34-.1-.5l-.3-.2v-.41a8,8,0,0,0,.8-.2c0,.32-.07.4-.08.71s.07.49.1.86.1.45-.11.65c.32.14.37.48.49.74a4.46,4.46,0,0,1,.39.79c.2-.11.09,0,.09-.23s0-.07-.07-.21l-.52-1.24-.14-.38c0-.6.44-1.87-.11-2.23a14.14,14.14,0,0,0-2.52-.46c-.11.22,0,.07-.26.17a1.62,1.62,0,0,0-.33.13c-1,.57-1-.07-1.86.91Z"/><path class="cls-19" d="M1.34,22.25a.89.89,0,0,0-.43.38c-.07.27-.06.09.13.16.24-.13.2-.2.53-.25a4.61,4.61,0,0,1,.91,0c.07.12.07,0,0,.17l.44-.19H4a15.45,15.45,0,0,0,2.26-1.06c.52-.35,1.25-1.53,1.86-1.64l.44-.06-.46-.06H7.7c-.12-.23,0-.18-.12-.35s-.18-.07-.2-.27a.51.51,0,0,1,.55-.46c.09-.12,0-.16,0-.24a10.65,10.65,0,0,0-1.74,1c-.69.42-.93.65-1.61,1.05-.89.53-2.43,1.79-3.31,2Z"/><path class="cls-20" d="M8.71,1.59c0,.13,0,0,.06.13l.1.12A1.53,1.53,0,0,0,9.05,2,20.91,20.91,0,0,1,11,3.88a21.7,21.7,0,0,1,1.86,1.87c.21-.12.14.07.18-.49L14.54,9.2c.32.83.34,1.21.62,1.1a2.68,2.68,0,0,1,.19-1.22l.31,1.17c.2-.36,0-1.05.21-1.33L13.72,6c-.34-.46-.16-.38-.12-.41a14,14,0,0,0-1.27-1.3L8.84.81C8.67.63,8.71.63,8.52.56,7.8.68,8.34.41,7.08.47a.53.53,0,0,0,.4.28A4.8,4.8,0,0,1,8,.84c.34.11.23.28.69.43l0,.32Z"/><path class="cls-21" d="M25.86,5.35c.12.15.05-.06,0,.12l-.46.65a2,2,0,0,0-.49.75c0,.36.07.43-.25.48l.27.22-.07.24a.13.13,0,0,1,0,.06v0c-.08.54-.26.32-.29.77a9.43,9.43,0,0,1-1.22.17c-.18.09-.1,0-.18.23.23,0,.13-.06.26,0s0,.48,0,.71c0,.41,0,.43.13.34s.07-.34.12-.54a1.68,1.68,0,0,1,.07-.24l.14-.28.13.91.15.34,1.63-4.22c.14-.39.11-.49.44-.36.66-.62,1.3-1.27,2-1.93.35-.34.66-.63,1-1a8.23,8.23,0,0,1,1-1c.23-.18.29-.39.53-.56L32.39.67c.1,0,.32-.15.43-.18.5-.17.35,0,.35,0l.24-.35H33a4.13,4.13,0,0,0-1.38.14c-.68.1-.73,0-1.11.4-.53.54-1,1-1.56,1.55Z"/><path class="cls-22" d="M21.55,24.82l-.12.35-.84-.08c0-.33,0-.44-.18-.09s.09.43-.34.38l-.35.87-.11.23a18.9,18.9,0,0,1-.05,3.13c.32,0,.23-.06.33.12l.74.17A8.11,8.11,0,0,0,21,28.39l.15,2v.06c.13-1-.13-2.85.21-3.61l.76-2.14c.16-.53.09-.51.29-.59V24l-.15-.79c-.1-.25,0-.23-.22-.44l-.38,2.14C21.51,24.81,21.54,25.12,21.55,24.82Z"/><path class="cls-23" d="M9.38,15.47h0c-.07.16,0,.09-.18.2s0,0-.19.1a3.05,3.05,0,0,0-.48.14c.13.34-.22.16.31.24H8.23l-.15.23c-.28-.21-.32-.05-.32-.05.24.58-.29-.41.11.14l.06.08c0,.09.05,0,.05.2H7.06v1.12A8.06,8.06,0,0,1,8,17.82a3.56,3.56,0,0,1,1-.29c.58-.06.14-.3,1-.26.06.45.06.44-.39.49l0,.45c-.28.08-.16,0-.37.19a1.27,1.27,0,0,1-.1.12l-.7.77c.38-.06.08,0,.28-.12L9,18.88l0,0,.08-.07c.24-.26.15-.59.71-.36a5.74,5.74,0,0,1,.1-.65c.11-.05.07,0,.18-.06s.09,0,.17-.12a.9.9,0,0,1,.07-.14l.11-.17c.9-1,.88-.34,1.86-.91a1.62,1.62,0,0,1,.33-.13c.28-.1.15.05.26-.17-.22-.23-.57-.19-.93-.25-1.27-.23-.82-.41-1.66-.43-.14,0-.73,0-1,.08Z"/><path class="cls-5" d="M26.41,23.88a2.33,2.33,0,0,1-.88.24,7.7,7.7,0,0,1-.86.16l-.3.12a2.1,2.1,0,0,0,.84.63,1.23,1.23,0,0,0,1.15.21c.2,0,2.13-.45,2.19-.43a13.11,13.11,0,0,1,2-.49,20.69,20.69,0,0,1,2.1-.43l-2.51-.68C29.15,23.17,27.22,24,26.41,23.88Z"/><path class="cls-12" d="M6.52,23.92a2.44,2.44,0,0,1,.93.17c.33.08.64.12,1,.18.66.12,1.34.34,2,.44.38,0,2.57.7,3.1.56l1.21-.71c.16-.18.16.05,0-.22L13.08,24C13,24,13,24.05,13,24s0,0-.07,0c-1.09-.07-2.83-.77-3.85-.7Z"/><path class="cls-24" d="M28.55,24.81l0,.11c.48.12.49,0,.85,0,0,0-.07,0,.12.07a13.36,13.36,0,0,0,.08,2.23l.22.32c.3.34-.15,0,.11.1l.3-.38.37,0,.72-.06h-.52a17.76,17.76,0,0,1,2.35-2.82l.14-.28,0-.07-.68-.15a20.69,20.69,0,0,0-2.1.43,13.11,13.11,0,0,0-2,.49Z"/><path class="cls-25" d="M19,37.2c.33.16.2.27.62.37a7.29,7.29,0,0,0,0-1.75,8.55,8.55,0,0,1-2.37-1.35h0L17,34.35a.52.52,0,0,1-.25-.21c-.17-.26,0-.19-.27-.41s-.6-.25-.73-.59c0-.12-.11-.27-.17-.4a1.45,1.45,0,0,0-.09-.22.85.85,0,0,0-.11-.16c-.12.18,0,.11-.31-.08l-2.21-1.59-.37-.14s0,0,0,.06l3.78,4.28c.3.32.57.51.87.79A14.86,14.86,0,0,0,19,37.2Z"/><path class="cls-26" d="M30.27,1.91c-.26.53-1.73,2-1.75,2.31-.2.36-.09.12,0,.21.26-.07.13,0,.29-.13.42-.26-.1-.15.37-.19A17.19,17.19,0,0,0,32,3l-1.43.25L32.67,1l.69,1.6A10.69,10.69,0,0,1,34,4.13a3.24,3.24,0,0,1,.46,1.76,4.29,4.29,0,0,0,.15-1.36c0-.34.06-.25-.12-.46L33.17.48s.15-.16-.35,0c-.11,0-.33.14-.43.18l-1.59.68c-.24.17-.3.38-.53.56Z"/><path class="cls-27" d="M15.16,10.3c-.07.61-.24,1.29-.33,2l-.23,0a10.05,10.05,0,0,1,1,.95c.17.2.31.29.49.5s.39.27.49.49l.24.21-.1.48c.31-.15.18-.05.3-.25s.42,0,.59,0,.21.08.36.11c.43.1.18.06.32,0l-.29-1c-.4-.42.12-.05-.5-.95-.15-.21-.14-.27-.15-.62a1.71,1.71,0,0,0-.09-.7l0,.88a1.85,1.85,0,0,1-.79-.68c-.26-.31-.6-.44-.54-.89-.19,0-.14,0-.22-.16a2.44,2.44,0,0,1-.09-.47l-.31-1.17a2.68,2.68,0,0,0-.19,1.22Z"/><path class="cls-28" d="M15.38,30l-.19.52-.24.64c0,.48.32.8.46,1.19a.85.85,0,0,1,.11.16,1.45,1.45,0,0,1,.09.22c.06.13.12.28.17.4.24.16.09.25.53-.32,1.47-1.88,1.32-.94.49-3.34-.14-.39-.53-1.27-.56-1.49l-.11-.06Z"/><path class="cls-29" d="M21.33,36.24c-.16.31-1.07.89-1.14,1.07l0,.1a17.07,17.07,0,0,1,1.66-.52,5.56,5.56,0,0,0,1.49-.62c-.23.1,0,.06-.15-.17.18-.07,0-.14.22,0-.32-.19-.21,0-.3-.28.14-.19.09-.19.4-.21v-.52l.41-.11c.15-.1,0-.06.19-.12a1.51,1.51,0,0,1,.3,0v-.67l.43,0c0,1-.15.32-.31.68.31.18.51,0,.75.1v-.35h.44v-.43h-.46v-.25h.68c0-.92-.29.16-.23-.87h-.48c.06-.49-.15-.2.26-.3h.42c0-1-.1-.36.12-1.25a2,2,0,0,0-.62.6l-2.75,3.08a7.27,7.27,0,0,1-1.32,1.09Z"/><path class="cls-30" d="M21.59,8.64a2.47,2.47,0,0,1-.74,0l.34.18a3,3,0,0,1-1.62.37,11.36,11.36,0,0,1,0,1.54,15.58,15.58,0,0,1,.8,2.47c.25-.09.26-.21.46-.76l.94-2.1c.14-.31.11-.46.2-.15a6.55,6.55,0,0,0,.13-1.46c.13-.27.16.2.32-.46a1.17,1.17,0,0,0-.48.21c-.26.13-.1.08-.39.12Z"/><path class="cls-16" d="M17,8.7c.32.07.05,1.38.15,2,0,.31,0,.14.1.28l0-.88a23.63,23.63,0,0,1,1.16,2.48c.28.62.22.76.43.67l.79-2.44a11.36,11.36,0,0,0,0-1.54A2.51,2.51,0,0,1,18,8.84c-.49,0-.67-.24-1.05-.41L17,8.7Z"/><path class="cls-31" d="M10.49,17.28l-.11.17a.9.9,0,0,0-.07.14c-.08.09,0,0-.17.12s-.07,0-.18.06a5.74,5.74,0,0,0-.1.65c-.56-.23-.47.1-.71.36l-.08.07,0,0-.32.29c-.2.14.1.06-.28.12,0,.41,0,.11-.3.4l.46.06a2.6,2.6,0,0,0,1.13-.11,2.63,2.63,0,0,0-.79,0c1-.22,2.17-.34,3.2-.54a28,28,0,0,1,3.31-.47c0-.37-.1-.52-.1-.86s.08-.39.08-.71a8,8,0,0,1-.8.2v.41l.3.2c.11.16.07.25.1.5-.44-.1-.35,0-.56.08a1.55,1.55,0,0,1-.72.17c-1.11.15-1.26.14-1.3-.32a2.59,2.59,0,0,0-.45.14c-.5.24.3.14-.5.24a13.18,13.18,0,0,0,0-1.54c-.56,0-.47.23-1,.13Z"/><path class="cls-32" d="M27.33,5.58c-.43.43-1,1.36-1.39,1.61l-.23,1.07a10.81,10.81,0,0,1,2.41-.79l.45-.14c-.24-.12-.15,0,.56-.61.27-.22.51-.4.79-.64L31.5,4.73A2.12,2.12,0,0,0,30.45,5c-.35.13-.75.22-1.1.35s-.72.23-1.06.34c-.15,0-.39.12-.6.2-.46.18-.42,0-.47,0l.11-.33Z"/><path class="cls-33" d="M21.13,30.49l.12.15.62-1a4.57,4.57,0,0,1,.35-.48l.32-.37c.06-.06,0-.05.14-.13a1.24,1.24,0,0,1,.1-.36c.17-.32.08-.21.36-.27a24.3,24.3,0,0,1-.74-3.76v-.08c-.2.08-.13.06-.29.59l-.76,2.14C21,27.64,21.26,29.47,21.13,30.49Z"/><path class="cls-34" d="M16.13,27.93l.11.06A17.2,17.2,0,0,1,18,30.63c.16-.18.11-.07.1-.33-.29-1.16.28-2.65-.19-3.49-.22-.39-.6-1.78-.85-2.39l-.15-.27a.11.11,0,0,0,0,0v0Z"/><path class="cls-35" d="M33.34,8.69l0,2.43a.66.66,0,0,0,0,.15c0,.17,0,.1.09.21A5.75,5.75,0,0,1,34,10l0-.05.18-1.12a1.14,1.14,0,0,1,0-.58l.22-2.35A3.24,3.24,0,0,0,34,4.13a10.69,10.69,0,0,0-.63-1.52Z"/><path class="cls-36" d="M7.63,4.64A1.24,1.24,0,0,0,8,5L10.07,6.7c.65.49.83.54.59.62l.33.13a19.34,19.34,0,0,1,2.38.69h.13c-.08-.34-.12-.68-.19-1a2.15,2.15,0,0,1-.55-.6A7,7,0,0,0,12.27,6c-.07.16.06.06-.1.14L7.63,4.64Z"/><path class="cls-37" d="M4.75,5.62a34.31,34.31,0,0,1,.34,3.71l.54,1.58a1.92,1.92,0,0,0,.11.27l.17.24,0-2.69c0-1,0-2.1,0-3.14a21.29,21.29,0,0,1,0-3.11A18.53,18.53,0,0,0,4.75,5.62Z"/><path class="cls-38" d="M37.8,22.14c0-.08,0-.05-.08-.16l-2.51-2.66c-.51-.06-.24-.12-.66-.31L30.3,17.57l1.17.82.23.15,6.06,3.86c.08-.11.14.18,0-.26Z"/><path class="cls-39" d="M25.47,26.66c-.2.27,0,.28-.27.58l-.79,2.56c-.21.66-.12.67-.36.79a1.91,1.91,0,0,1,.23.76c.13-.24,0-.1.21-.25a12,12,0,0,0,1.19-1,10.15,10.15,0,0,1,1.17-1l.3-.33-.06-.19s0,0,0-.06L26.6,28c-.29-.32-.48-.17-.51-.7-.94,0-.43-.58-.4-.69l-.22.1Z"/><path class="cls-40" d="M15.78,33.14c.13.34.51.42.73.59s.1.15.27.41a.52.52,0,0,0,.25.21l.18.11a4,4,0,0,0,2.41.46l0-.33c-.56-.06-.06,0-.28-.14a3.77,3.77,0,0,0-1.21-.24c-.15.12,0,.1-.3.14a.63.63,0,0,1-.31,0c-.08-.53.46-1.37.51-2a2.06,2.06,0,0,1-.39-.87c-.21-.16-.12-.23,0-.43a1.91,1.91,0,0,0,.29-.41A16.73,16.73,0,0,0,16.24,28c0,.22.42,1.1.56,1.49.83,2.4,1,1.46-.49,3.34C15.87,33.39,16,33.3,15.78,33.14Z"/><path class="cls-41" d="M21.25,30.64a.56.56,0,0,0,.26.31c.17.11,0,0,.14.15a.51.51,0,0,1,0,.22c0,.2,0,0-.08.1-.07.36-.36.63-.39,1a4.86,4.86,0,0,0,.37,1.36c.23.62.08.5,0,.58-.29,0-.34,0-.53-.15-.63-.05-1.07.34-1.74.24.22.15-.28.08.28.14l0,.33c.42,0,1,0,1.4,0s.67-.3,1-.41c.31-.34.3,0,.51-.45.11-.22,0-.05.13-.24s.59-.22.75-.56c-.36,0-.22,0-.57-.52l-.44-.55c-.15-.17-.29-.36-.45-.54s-.18-.37,0-.7l.39-1a8.69,8.69,0,0,0,.36-1.26c-.13.08-.08.07-.14.13l-.32.37a4.57,4.57,0,0,0-.35.48Z"/><path class="cls-42" d="M28.57,7.33l-.45.14a10.81,10.81,0,0,0-2.41.79,3.28,3.28,0,0,0-.12,1.16c0,.13.12.11,0,.11,0-.51-.1-.22.28-.31l1.44-.4a11.47,11.47,0,0,1,1.84-.46c.19,0,0,0,.24-.1l.27-.19a3.18,3.18,0,0,0,.52-.44A3.72,3.72,0,0,0,31.1,7a9.76,9.76,0,0,0,.89-.7l-3.42,1Z"/><path class="cls-7" d="M12.87,29.38c0,.13,0,0,.07.13a.52.52,0,0,0,.1.11l1.75,1.55H15l.24-.64c-.22.1-.14,0-.34-.67s-.65-1.89-.8-2.57L14,27.12c-.14-.4,0-.41-.45-.56.13.41.17.4-.33.88-.18.17-.17.07-.29.34,0,.08,0,.08-.06.16-.16.31-.43.36-.61.67.22.48.52.33.63.77Z"/><path class="cls-27" d="M7.79,17.94c-.37.12-3.19,1.09-3.35,1.24.51.08.48-.18.87.19-.06.18-.07.13-.14.22-.3.45-.09,0,.07.42l-1.63,0c.28-.26.33-.27.35-.66l-.1-.05c-.09.2,0,0-.13.22l-.51.55c-.25.27-.42.48-.65.72a7.79,7.79,0,0,0-1.23,1.42l0,.17c.88-.17,2.41-1.43,3.31-2,.68-.4.92-.63,1.61-1.05a10.65,10.65,0,0,1,1.74-1c0-.16,0-.05.36-.33l.39-.37C8.34,17.73,8.19,17.87,7.79,17.94Z"/><path class="cls-43" d="M9.15,7.79a2,2,0,0,1,.41.26c.19.14.11.13.32.16l2.75.85a2.08,2.08,0,0,1,.91.31l-.17-1.23A19.34,19.34,0,0,0,11,7.45l-.33-.13-3.3-.93c.24.4,1.44,1,1.79,1.4Z"/><path class="cls-44" d="M23.48,36.25l-.18,0a5.56,5.56,0,0,1-1.49.62,17.07,17.07,0,0,0-1.66.52l0-.1c-.27.12-.31.25-.58.23v2c.24,0,1.36-1,1.84-1.16.1-.16,2-1.47,2.45-1.74l.63-.43c.17-.14.06,0,.17-.19-.43,0-1,.36-1.22.24Z"/><path class="cls-45" d="M5.07,12.93c.09-.06.08-2.14.12-2.47a1.56,1.56,0,0,1,.16.86c0,.28.06.55.07.84a14,14,0,0,0,.11,1.65,21.45,21.45,0,0,0,1,2.15c.13.13.06.11.25.17A2.37,2.37,0,0,1,7,15.77c.14-.24.09-.19.28-.33l.07-.56-.69-1.67-.21-.5-.12-.19-.39-1.1-.17-.24a1.92,1.92,0,0,1-.11-.27L5.09,9.33a7.65,7.65,0,0,0,0,.95c0,.33,0,.58,0,.91a14.28,14.28,0,0,0,0,1.74Z"/><path class="cls-46" d="M19.61,39.53v-2c-.42-.1-.29-.21-.62-.37-.14.18.38.28-.81-.08l-1.55-.49c-.48-.13-.34-.25-.71-.3A4.91,4.91,0,0,1,14.33,36l2,1.36c.18.13.44.27.64.42a22.45,22.45,0,0,0,2.64,1.8Z"/><path class="cls-47" d="M9.3,23s0,0-.05.05,0,0-.06.05L9,23.23c1-.07,2.76.63,3.85.7.43,0,.11,0,.24-.13-.3-.22-.54-.82-.77-1.07l-1.06-1.55.58.08a1.57,1.57,0,0,0-1-.13A19.41,19.41,0,0,1,9.3,23Z"/><path class="cls-42" d="M30.44,31.29c.44,0,.41.19.41.19-.08.19-.21.1-.39.26l.16.83c.49,0,.59-.09.54.38a.89.89,0,0,1,.67-.31,23.68,23.68,0,0,1,2.76-1.3L34,31.12,33.41,31l-.9-.24c-.18-.09-.12,0-.13-.15a1.24,1.24,0,0,1-.75-.08c.14-.27.81-.64,1-.95-.37,0-.18,0-.37.19a14.16,14.16,0,0,1-1.86,1.55Z"/><path class="cls-48" d="M26.88,22.78a8.75,8.75,0,0,0-.7,1.06l.23,0c.81.08,2.74-.71,3.76-.67L30,23a13.13,13.13,0,0,1-1.55-1.87,1.18,1.18,0,0,0-.68,0c.27.08.07-.09.22.13a8.62,8.62,0,0,0-1.07,1.48Z"/><path class="cls-49" d="M29.8,31.82c-.1.24-.78.66-1,.84s-.15.21-.49.42a4.81,4.81,0,0,0-.56.42l-.49.42-1.11.86c-.28.2-.4.15-.57.51.6-.14,1.19-.57,1.74-.72A6.26,6.26,0,0,1,28.67,34a3,3,0,0,1,.87-.46c1.26-.59.87-.32,1-.18a1.28,1.28,0,0,0,.66-.43c.05-.47-.05-.4-.54-.38l-.16-.83c.18-.16.31-.07.39-.26,0,0,0-.15-.41-.19a1.25,1.25,0,0,1-.64.53Z"/><path class="cls-50" d="M31.35,27.22l-.72.06c-.21.41-.22.35-.72.51l-.92.3a12.39,12.39,0,0,0-1.84.63l-.3.33a3.08,3.08,0,0,1-.67.92l-.34.42-.36.52,1-.3.13,0c.48-.27,1-.66,1.48-1l.73-.48a5.68,5.68,0,0,1,.76-.49,5.11,5.11,0,0,1,.57-.75c.28-.36.31-.24.85-.34a20.14,20.14,0,0,1,2.16-.33L34.52,27A25.16,25.16,0,0,0,31.35,27.22Z"/><path class="cls-51" d="M9.88,8.21c.14.22.11.17.43.38l1.22.91s0,0,0,0l-.84.06,1.59.05c1.34,0,1.33-.08,1.32.42l-.06,0-.06,0c-.32.11-.26,0-.84.1-.28,0-.86,0-.92,0s-.12.11-.35.15l-1.53,0a2.89,2.89,0,0,0,.9.43,7.16,7.16,0,0,0,.85.34s0,0,.06,0l1,.42c.29.11,0,.09.43.16,0,0,0-.07,0,0s0-.05,0-.06c-.08-.19,0,0-.05-.18a3.77,3.77,0,0,1-1-1,2.62,2.62,0,0,1,.73.25,1.45,1.45,0,0,1,.66.39c.17,0,.33.13.58.2.11-.15.05,0,.08-.26L13.5,8.14h-.13l.17,1.23a2.08,2.08,0,0,0-.91-.31Z"/><path class="cls-42" d="M33.43,11.48l.1.64a4.09,4.09,0,0,1-.67,1.29c-.26.43-.54.86-.78,1.27l-.19.3c0,.44.42.75.46,1.12.15.07.09,0,.28.06s0,0,0-.11.22-.37.3-.6l.8-1.72a1.21,1.21,0,0,1,.07,1c.43-.23.3-.49.29-1s0-.86,0-1.29c0-.85,0-1.7-.05-2.54L34,10A5.75,5.75,0,0,0,33.43,11.48Z"/><path class="cls-52" d="M23.83,32.35l-.26.47a1.38,1.38,0,0,0-.17.41c-.16.34-.48.25-.75.56s0,0-.13.24c-.21.46-.2.11-.51.45l0,0-.83.6c0,.37-.07,0,.26.27s0-.07.07.09l-.1.21c-.17.1-.18,0-.42,0l.16.2,0,0,.1.27a7.27,7.27,0,0,0,1.32-1.09l2.75-3.08a2,2,0,0,1,.62-.6c0-.25.45-.44.59-.88l-.13,0a1.86,1.86,0,0,1-.65.53l-1.37.91c-.7.46-.52.53-.63.3Z"/><path class="cls-29" d="M22.68,28.62a8.69,8.69,0,0,1-.36,1.26s0,.18,0,.18a.33.33,0,0,0,0,.06l.07.14a1.38,1.38,0,0,1,.8-.11c0-.49-.08-.27.11-.67-.08.15-.09-.18,0,.14a.59.59,0,0,0,.16.24,8.57,8.57,0,0,0,.41,1.2c.32.45,0-.25.12.12-.26.31-.06-.09-.38.12,0,.14,0,.28,0,.41-.05.55.06.31-.21.44s-.19-.48-.25-1.18h-.64l-.19.23c0-.49,0-.14-.13-.27-.38-.48,0,.28-.14-.15-.2.1-.16-.13-.17.14-.17.33-.22.42,0,.7s.3.37.45.54l.44.55c.35.49.21.47.57.52a1.38,1.38,0,0,1,.17-.41l.26-.47.45-1a1.91,1.91,0,0,0-.23-.76l-.18-.53L23.14,28c-.28.06-.19,0-.36.27A1.24,1.24,0,0,0,22.68,28.62Z"/><path class="cls-45" d="M8,32.93c.1.16,0,.07.22.09.07-.15.7.16.85.23l.86.46,2.35,1,1.2.49c-.11-.49.18,0-.54-.59l-1.17-1a3.36,3.36,0,0,1-.66-.47L9,31.51c-.22-.22,0-.18-.34-.22H8.43c.12.31.27.42-.14.51.28,0,.5-.13.61.44v.62c-.32-.09-.27-.14-.47-.17a1.41,1.41,0,0,0-.2,0c-.09,0,0,0-.16,0-.16.15-.18-.22-.11.23Z"/><path class="cls-53" d="M25.59,9.42a.44.44,0,0,0-.1.16L25.24,11c0,.46,0,.21.1.31a14.55,14.55,0,0,1,1.82-.76c-.2.36-.76.7-.83.91s-.1.11,0,.2c.21-.18,0-.08.28-.17a1.79,1.79,0,0,0,1-.4L29,10.56c.25-.14.09,0,.2-.15l-.93-.05a11.5,11.5,0,0,0-2.62-.17c-.05-.27,0-.47-.11-.39L27,9.58c.41-.06.92.26,1.49,0l-.87,0c.1-.14,0,0,.13-.14l.27-.2a4.83,4.83,0,0,0,1.07-.85,11.47,11.47,0,0,0-1.84.46l-1.44.4c-.38.09-.26-.2-.28.31.14,0,0,0,0-.11Z"/><path class="cls-54" d="M24.05,10l.4,2.39c.47-.19.63-.13.68-.89a2.13,2.13,0,0,1,0-.27.17.17,0,0,1,0-.07l.08-.23.25-1.38a.44.44,0,0,1,.1-.16,3.28,3.28,0,0,1,.12-1.16l.23-1.07a3.24,3.24,0,0,1,.33-1.4c-.33-.13-.3,0-.44.36L24.2,10.37,24.05,10Z"/><path class="cls-21" d="M22.4,24.23A24.3,24.3,0,0,0,23.14,28l.73,2.07c.12-.14,0,0,.08-.18l0-.28c0-.22,0-.43,0-.64.06-1-.72-3.62-.57-4.43-.06-.08,0,0-.09-.17s0,.05,0-.16c-.15-.24-.11-.8-.21-1.07L23,22.62c.14-.09-.22-.11.25-.08H23c-.24.48-.42,1.78-.64,1.7Z"/><path class="cls-55" d="M6.8,16.13l-.16.15a19.78,19.78,0,0,1-2,2.26c-.06-.14-.11.17,0-.22-.22.16-.17.16-.29.43s-.15.26-.25.49c0,0,.07,0,.08,0l.26-.05c.16-.15,3-1.12,3.35-1.24L8,17.82a8.06,8.06,0,0,0-.94.07V16.77H8c0-.2,0-.11-.05-.2l-.06-.08c-.4-.55.13.44-.11-.14,0,0,0-.16.32.05l.15-.23H8.8c-.53-.08-.18.1-.31-.24A3.05,3.05,0,0,1,9,15.78c.21-.08,0,.05.19-.1s.11,0,.18-.2c-.83.12-1.38.64-2.31.62a2.55,2.55,0,0,1,.22-.66c-.19.14-.14.09-.28.33a2.37,2.37,0,0,0-.17.36Z"/><path class="cls-56" d="M12.85,5.75c.21.39.31,0,.46,1.44.07.27.11.61.19,1L14,11c.06.09,0,0,.08.19l.06.59c.07.44.09.42.47.54l.23,0c.09-.72.26-1.4.33-2-.28.11-.3-.27-.62-1.1L13,5.26c0,.56,0,.37-.18.49Z"/><path class="cls-57" d="M26.87,12.56a11.61,11.61,0,0,0,1.27.82c0-.17-.22-.12.11-.26a1.31,1.31,0,0,1,.49,0,4.34,4.34,0,0,0,1.08,0c-.24-.22-.87-.13-1.21-.13.31-.44,2.91-.33,3.58-.58-.43-.18-1.31-.12-1.8-.3l-.05,0-.52,0c-.53,0-1.16-.16-1.69-.23l-.81-.11c-.77-.08-.69,0-.71-.26-.27.09-.07,0-.28.17-.1-.09-.22.14,0-.2h-.15c-.12.22-.13.18-.23.38C26.12,12.21,26.61,12.24,26.87,12.56Z"/><path class="cls-20" d="M16.11,23.15c-.05.28,0,.84-.2,1a17,17,0,0,1-.32,2.34,14.25,14.25,0,0,0-.28,2.25c0,.3-.07.31-.08.59l.15.65.75-2.08.72-3.78c-.1.08-.12,0-.11.07l-.55-1.68Z"/><path class="cls-58" d="M6.3,12.52l.12.19c.27.09.6.2.62.48.18.25.67.51,1,.8a5,5,0,0,0,.51.4.71.71,0,0,0,.72.21l.29-.07c.19-.22.53-.37.75-.62a11.32,11.32,0,0,1-2.35-.82l1.38,0c.07-.28.08,0-.05-.24a2.25,2.25,0,0,1-.17-.24l-1.86-.16,1.45-.29c.11,0,.07.06.12,0s0,0,.05,0a.86.86,0,0,1-.51-.38l-.2-.25c-.16-.17,0-.08-.24-.19l.19.54L7.63,12s.09.22-.78.2c-.36,0-.11,0-.21,0v0c-.32.15-.07.23-.34.36Z"/><path class="cls-49" d="M7.63,4.64l4.54,1.54c.16-.08,0,0,.1-.14a13,13,0,0,0-1.42-1.67c-.35.23-.41-.22-.79-.26-.12.2,0,0-.18.1s-3-.11-3.43-.09a6.68,6.68,0,0,0,1.18.52Z"/><path class="cls-59" d="M9.67,28.6a13.93,13.93,0,0,0,1.39,1c.36.24,1.23.76,1.46,1l.37.14,1,.27L13.1,30c-.24-.31-.55-.68-.76-.9h.12c-.3-.53-1-.64-1.63-.84-.53-.16-1.23-.45-1.77-.56-.15.05-.18-.07,0,.15a2.61,2.61,0,0,0,.23.24c.16.16.22.27.41.49Z"/><path class="cls-27" d="M18.69,20.78a.87.87,0,0,1-.12.14l-.08.08-.18.16c0,.89,1.27,4.48,1.11,4.84l.19.48.11-.23L19.64,26c-.09-.68,0-2.27,0-3.06,0-.51,0-1,0-1.52s.14-1.18-.15-1.35c-.22.19-.57.56-.8.72Z"/><path class="cls-60" d="M29.15,10.41c-.11.11.05,0-.2.15l-1.32.49c.08.16,0,.14.49.32l1.55.58c.17.09.07,0,.15.1l.52,0c.28,0,.24,0,.4-.18a1.83,1.83,0,0,0,.13-.16c.17-.25.08,0,.11-.24l-.17-.15a5,5,0,0,0-.06-1.25c.94.06.09.15.73.15l.09-.56-.21,0c-.61,0-1.67.8-2.21.77Z"/><path class="cls-61" d="M23.4,24.53c-.15.81.63,3.4.57,4.43.13.09.05.05.19.05.17-.37.36-.7.51-1l.4-.75c.14-.16,0-.23.13,0,.27-.3.07-.31.27-.58-.35,0-.27-.15-.57-.57l-1-1.28c-.21-.25-.19-.43-.54-.62Z"/><path class="cls-62" d="M12.64,11.54c0,.12,0,.05-.24.09L9.64,12c-.33,0-.37.15-.8.1,0,0,0,0-.05,0s0,0-.12,0l-1.45.29,1.86.16c.58.13,1.17,0,1.54.3l.13.12c-.43,0-1.13,0-1.28.11a4.41,4.41,0,0,0,1,0c.43,0,.54-.17.71.22l1.22-.79.51-.34c.29-.17.29-.14.44-.4L13,11.41c0,.22,0,0,.05.18,0,0,0,.07,0,.06s0,0,0,0C12.69,11.63,12.93,11.65,12.64,11.54Z"/><path class="cls-27" d="M15.65,24.13c-.09.47-.42.67-.88,1.39-1,1.53-.68.63-.67,1.64l1,1.9.2-.29a14.25,14.25,0,0,1,.28-2.25,17,17,0,0,0,.32-2.34l0-.19-.23.14Z"/><path class="cls-57" d="M28.52,4.22a.93.93,0,0,0-.36.33l-.26.34c-.18.21-.38.44-.57.69l-.11.33c.05,0,0,.18.47,0,.21-.08.45-.15.6-.2.34-.11.72-.22,1.06-.34s.75-.22,1.1-.35a2.12,2.12,0,0,1,1.05-.29,6.76,6.76,0,0,1,.91-.39.87.87,0,0,0,.17-.07c.25-.14.1,0,.21-.16l-3.36.12s0,.2-.24-.12c-.47,0,0-.07-.37.19-.16.1,0,.06-.29.13C28.43,4.34,28.32,4.58,28.52,4.22Z"/><path class="cls-59" d="M5.91,11.42l.39,1.1c.27-.13,0-.21.34-.36v0c.1,0-.15,0,.21,0,.87,0,.77-.2.78-.2l.45-.22-.19-.54L6,8.86c-.11-.13,0,0-.12-.13Z"/><path class="cls-20" d="M18,13.84l.29,1,.48,1.5.63,1.8c.31,0,.16,0,.22.31,0,.05,0,.46,0,.54a2.37,2.37,0,0,0,.08,1l.75.75c.11-.12.1.09.1-.34A4.28,4.28,0,0,1,20,18.8a.85.85,0,0,1-.21-.64c-.31,0-.21-2.7-.12-2.95-.31,0-.14,0-.22-.16a3.21,3.21,0,0,1-.56-.6c-.23-.25-.43-.34-.54-.64-.1-.06-.09-.08-.18-.15s0,0-.22-.15l.05.33Z"/><path class="cls-30" d="M19.64,26l.17-.27a1,1,0,0,0,.07-.3,5.87,5.87,0,0,1,.16-.6l.89-3.64a2.09,2.09,0,0,0-.22-.2l-.13-.11c-.13-.13,0,0-.13-.15L19.7,20c-.36,0-.14,0-.21.09.29.17.14,1,.15,1.35s0,1,0,1.52C19.64,23.72,19.55,25.31,19.64,26Z"/><path class="cls-38" d="M14.81,24.34c.14.27.14,0,0,.22l-1.21.71c-.53.14-2.72-.58-3.1-.56a11.56,11.56,0,0,0,1.55.93,12.31,12.31,0,0,1,1.5.92c.46.15.31.16.45.56l.07.17,0-.13c0-1-.31-.11.67-1.64.46-.72.79-.92.88-1.39C15.24,24.25,15.28,24.36,14.81,24.34Z"/><path class="cls-23" d="M13,11.41l.36.39c-.15.26-.15.23-.44.4l-.51.34a5.3,5.3,0,0,1,1.76.71l.18.16-1,.28c.45.06.76-.16,1.21-.09a1.56,1.56,0,0,0,1.09,0c.13.41.14.23.39.4s0,.23.6.23c-.1-.22-.28-.25-.49-.49s-.32-.3-.49-.5a10.05,10.05,0,0,0-1-.95c-.38-.12-.4-.1-.47-.54l-.06-.59c0-.17,0-.1-.08-.19,0,.29,0,.11-.08.26-.25-.07-.41-.17-.58-.2L12.85,11Z"/><path class="cls-63" d="M23.31,24.2c0,.21-.06,0,0,.16s0,.09.09.17l0-.34c.35.19.33.37.54.62l1,1.28c.3.42.22.6.57.57l.22-.1a20.34,20.34,0,0,1,2.89-1.64l0-.11c-.06,0-2,.38-2.19.43A1.23,1.23,0,0,1,25.21,25a2.1,2.1,0,0,1-.84-.63l.3-.12c-.36,0-.42.12-.73,0a2.59,2.59,0,0,1-.57-.33c-.08.14-.13-.27-.06.26Z"/><path class="cls-61" d="M31.35,27.22A25.16,25.16,0,0,1,34.52,27c.59,0,1.08-.18,1.65-.23s1.23-.15,1.89-.18l.89-.1a2.39,2.39,0,0,0-.74-.43l-.06.28-.57.09c0-.09-.1-.34.27-.15-.28-.16-.19.11-.77.06,0,0,.48.15-.53.21-.36,0-.63,0-1,0l0-.05-.05,0c-.33-.33-.44.06-.22-.35-.1.44,0,.15-.46.24.08.23.1,0,.22.35-.46,0-.78.09-1.26.08l-1.29,0-.16-.3c0-.06-.13-.09-.19-.2-.14-.27,0-.43.2-.61a.39.39,0,0,1,.22.28l.1,0,.1,0,.11-.08.11-.12c.23-.25.27-.19.19-.43s0,.14-.15-.29a.77.77,0,0,0,.19-.51,17.76,17.76,0,0,0-2.35,2.82Z"/><path class="cls-42" d="M29,9.45l-.47.12c-.57.27-1.08-.05-1.49,0l-1.55.22c.16-.08.06.12.11.39a11.5,11.5,0,0,1,2.62.17l.93.05c.54,0,1.6-.73,2.21-.77a2.51,2.51,0,0,1,.76-.41L29,9.45Z"/><path class="cls-54" d="M23.1,23.13c.1.27.06.83.21,1.07-.07-.53,0-.12.06-.26a2.59,2.59,0,0,0,.57.33c.31.13.37.05.73,0a7.7,7.7,0,0,0,.86-.16,2.33,2.33,0,0,0,.88-.24l-.23,0a8.75,8.75,0,0,1,.7-1.06l-.19,0Z"/><path class="cls-56" d="M12.88,23.93s0,0,.07,0,.06,0,.13.05l1.73.34c.47,0,.43-.09.84-.21l.23-.14,0,.19c.16-.19.15-.75.2-1L13,22.84l-.63-.11c.23.25.47.85.77,1.07-.13.16.19.13-.24.13Z"/><path class="cls-64" d="M22.38,24v.21c.22.08.4-1.22.64-1.7l.25,0a12.3,12.3,0,0,0,1.64.12c.35-.08.84-.4,1.25-.53a1.94,1.94,0,0,1,.44-.76c.09-.3,0-.12.2-.39s.1-.11.14-.27a3.15,3.15,0,0,0-.55-.1s-.29,0-.32,0c-.2,0-.1,0-.21.07.09.22.36.44.11.78,0,.35,0,.18-.09.25l-.26.24-.32.21c-.16.11-.52.41-.64.21a2.67,2.67,0,0,1-.9-.16l-.06-.51a.32.32,0,0,1-.07-.42h0c.12-.34.1-.35.38-.53a1.92,1.92,0,0,1,.5-.29l.25-.18c.2-.17.1-.05.09-.12a10.57,10.57,0,0,0-1.12.46c-.61.28-.53.19-.77.82a7.25,7.25,0,0,0-.62,2.6Z"/><path class="cls-43" d="M9.88,10.33l1.53,0c.23,0,.27-.13.35-.15s.64.05.92,0c.58-.08.52,0,.84-.1l.06,0,.06,0c0-.5,0-.38-1.32-.42l-1.59-.05-.43-.13L7.11,9.25A20.2,20.2,0,0,0,9.88,10.33Z"/><path class="cls-65" d="M8,32.93c-.07-.45,0-.08.11-.23.16,0,.07,0,.16,0a1.41,1.41,0,0,1,.2,0c.2,0,.15.08.47.17v-.62c-.11-.57-.33-.44-.61-.44.41-.09.26-.2.14-.51h.19c-.08-.1,0-.06-.12-.15s0,0-.22-.12c-.26.21-.1.05-.17.56h-.4V32c-.29,0-.26,0-.42-.13s0,.05-.19-.39L7,31.36c-.15-.22-.18-.24-.58-.26v-.25a8.34,8.34,0,0,0-1.81.48c.59.21,1.09.51,1.73.76.26.1,1.5.57,1.63.84Z"/><path class="cls-22" d="M25.24,11l-.08.23a.17.17,0,0,0,0,.07,2.13,2.13,0,0,0,0,.27c-.05.76-.21.7-.68.89l-.84.83c-.32.33-.77.7-.77.88v.24c.57,0,.26,0,.53-.17l1.23-.65c.16-.11.09-.07.33-.12,0-.17-.07,0,.18-.19s.69-.22.91-.5l-.46,0a1,1,0,0,1,.2-1l.08-.07c.2-.17,0-.11.35-.19h.15c.07-.21.63-.55.83-.91a14.55,14.55,0,0,0-1.82.76c-.09-.1-.09.15-.1-.31Z"/><path class="cls-66" d="M12.24,20.81a5.48,5.48,0,0,1,.37.57,3.47,3.47,0,0,1,.48.77,6,6,0,0,0,1.35.54c.51,0,1.19-.16,1.75-.15l.55,1.68s0,0,.11-.07v0l0-.22a14.08,14.08,0,0,1-.22-1.6,2.55,2.55,0,0,1-.42-.84c-.17-.42-.13-.57-.5-.7l-.25,0c-.31,0-.07-.24-.25.1.22.11.25.22.36.49a.29.29,0,0,1-.06.38c0,.43,0,.52-.37.63a5.11,5.11,0,0,1-.87.15,8,8,0,0,0-.83-.58l-.2-.24c-.32-.44,0-.71.07-1-.1-.15-.31-.06-.59,0S12.37,20.62,12.24,20.81Z"/><path class="cls-56" d="M11.14,13.33l-.87.58c-.22.25-.56.4-.75.62l3.78-.84,1-.28-.18-.16a5.3,5.3,0,0,0-1.76-.71Z"/><path class="cls-54" d="M26,12.74c-.22.28-.52.27-.91.5s-.14,0-.18.19l4.67,1.06c-.1-.2,0-.05-.15-.2l-.19-.13c-.22-.13-.22-.08-.4-.26l-.71-.52a11.61,11.61,0,0,1-1.27-.82c-.47-.06-.45.15-.86.18Z"/><path class="cls-43" d="M6.59,1a16.37,16.37,0,0,0,2,2,1,1,0,0,0,.58.28c.48,0,0-.08.37,0,.21,0,.16.08.32.16l-.05-.26c-.12-.43-.59-.64-.8-1.15a1.53,1.53,0,0,1-.18-.18l-.1-.12c-.08-.14,0,0-.06-.13l-.47-.33A7.09,7.09,0,0,0,6.76.71c-.24.1,0,0-.29.12C6.81.8,6.48.79,6.59,1Z"/><path class="cls-20" d="M22.63,21.54l-.14.39a1.1,1.1,0,0,1-.09.64c-.16.28-.22.26-.17.66l.15.79a7.25,7.25,0,0,1,.62-2.6c.24-.63.16-.54.77-.82a10.57,10.57,0,0,1,1.12-.46c.5-.4.89-.25,1.56-.06a11.76,11.76,0,0,0,1.77.4c-.26-.37-.35.08-.33-.28a2.35,2.35,0,0,1-.71-.06l-.3-.1a6.63,6.63,0,0,0-1.24-.27l.05,0,.08-.08,0,0c.1-.1.07,0,.15-.18L24,19.31h-.27Z"/><path class="cls-21" d="M20.85,13.83c-.2.38-.93,1-1.17,1.38-.09.25-.19,3,.12,2.95l.64-1.74L21,14.77l.35-1.21-.06-.17a1.1,1.1,0,0,1-.41.44Z"/><path class="cls-6" d="M20.07,25.38c.43.05.18,0,.34-.38s.17-.24.18.09l.84.08.12-.35c0-.5.1-1.06.16-1.59.11-.91.21-.67-.18-1.42-.23.11-.3.54-.41.83l-.36.87a18,18,0,0,0-.69,1.87Z"/><path class="cls-67" d="M8.56,22.52h0a1.09,1.09,0,0,1,.22-.38A.5.5,0,0,0,8.89,22c.08-.13,0,0,.06-.15,0-.4.23-.73.26-1,.07-.65-.49-.41-1-.41-.09.42,0,.4-.48.4l-.16.52c-.43.45-.14-.11-.23.71-.05.23,0,0-.15.2s0-.14-.08.13a.66.66,0,0,0,0,.2l.35,0,.11-.37C7.79,22.65,8.27,22.21,8.56,22.52Z"/><path class="cls-7" d="M16.92,8.85l-.36.81A11.47,11.47,0,0,0,16,10.88c-.06.45.28.58.54.89a1.85,1.85,0,0,0,.79.68l0-.88v-.63c-.12-.14-.05,0-.1-.28-.1-.58.17-1.89-.15-2,0,.25,0,.09-.1.15Z"/><path class="cls-6" d="M22.14,8.77A6.55,6.55,0,0,1,22,10.23l0,1.46,0,1c.2-.26.54-.62.75-.84l.53-.6c.09-.15.15.09.06-.32a10.09,10.09,0,0,0-.59-1.27c-.15-.32-.36-.6-.32-.88Z"/><path class="cls-7" d="M8,17.82l-.22.12c.4-.07.55-.21.93-.27L8.33,18c-.4.28-.32.17-.36.33s0,.12,0,.24a.51.51,0,0,0-.55.46c0,.2.06,0,.2.27s0,.12.12.35h.43c.25-.29.26,0,.3-.4l.7-.77a1.27,1.27,0,0,0,.1-.12c.21-.19.09-.11.37-.19l0-.45c.45-.05.45,0,.39-.49-.88,0-.44.2-1,.26A3.56,3.56,0,0,0,8,17.82Z"/><path class="cls-68" d="M24,19.31l1.92.12,1.69.15a3,3,0,0,1,1.24.12l.65-.06.44-.05-.06,0a1.18,1.18,0,0,0-.2,0c-1.17-.2-5.46-.93-6-.9l0,.55.3.14Z"/><path class="cls-61" d="M32.67,29.55c-.23.31-.9.68-1,.95a1.32,1.32,0,0,0,.75.08,6,6,0,0,1,1.46-.35c.14-.13,0,0,.26-.13l.72-.2c.35-.1.7-.18,1-.28a4,4,0,0,0-1.73-.26l-.24-.06-.49,0h-.06l-.11,0-.24.19c-.22.15-.09.09-.29.14Z"/><path class="cls-69" d="M20.55,20.38c0,.43,0,.22-.1.34.11.17,0,0,.13.15l.13.11a2.09,2.09,0,0,1,.22.2,3,3,0,0,1,.3.34,4.11,4.11,0,0,1,.3.29c.39.75.29.51.18,1.42-.06.53-.14,1.09-.16,1.59,0,.3,0,0,.08.11L22,22.79c.2.21.12.19.22.44-.05-.4,0-.38.17-.66a1.1,1.1,0,0,0,.09-.64c-.21-.09-.1.06-.21-.32,0-.14-.06-.3-.1-.44s-.12-.55-.2-.83l-.18-.67A5.68,5.68,0,0,0,21.54,21c-.61,0-.39-.45-1-.64Z"/><path class="cls-70" d="M2.81,23.07l0,.09c0,.1.1,0,0,.1l-.19.11a2.31,2.31,0,0,1-.42.18A17.69,17.69,0,0,0,0,24.65a12.86,12.86,0,0,0,2.83.07l.33,0a1.25,1.25,0,0,0,.43,0c.26-.06.18,0,.32-.16l-.13,0a.84.84,0,0,0,.27-.11c.21-.13.11-.07.21-.17-1,0-1.16.26-1.78,0-.16-.36,0-.17-.23-.23l.19-.17c.12-.12.33-.62.79-.66L3.31,23l-.5.11Z"/><path class="cls-71" d="M26.27,5.79a3.24,3.24,0,0,0-.33,1.4c.42-.25,1-1.18,1.39-1.61.19-.25.39-.48.57-.69l.26-.34a.93.93,0,0,1,.36-.33c0-.3,1.49-1.78,1.75-2.31a8.23,8.23,0,0,0-1,1c-.34.34-.65.63-1,1-.66.66-1.3,1.31-2,1.93Z"/><path class="cls-72" d="M19.58,35.82a7.29,7.29,0,0,1,0,1.75v0c.27,0,.31-.11.58-.23.07-.18,1-.76,1.14-1.07l-.1-.27,0,0-.16-.2c.24,0,.25.05.42,0l.1-.21c-.05-.16.12.09-.07-.09s-.24.1-.26-.27a14.61,14.61,0,0,1-1.64.72Z"/><path class="cls-73" d="M9.85,3.17c.16.09.05,0,.2.15l.74.91c.08.15,0,0,.06.14A13,13,0,0,1,12.27,6a7,7,0,0,1,.49.55,2.15,2.15,0,0,0,.55.6c-.15-1.47-.25-1.05-.46-1.44A21.7,21.7,0,0,0,11,3.88,20.91,20.91,0,0,0,9.05,2c.21.51.68.72.8,1.15Z"/><path class="cls-74" d="M4.84,29.33c-.09.07,0,.05-.17.1l-.15,0-.31,0H3.93c-.18,0-.09,0-.2.13.29.12.24.2.27.14s0,0,.06.05l2.2.61c.44,0,.7.23,1,.15a.38.38,0,0,0,.3-.19c-.32-.11-1.11-.93-1.55-1.11l-.74,0c0,.17-.34.1-.48.09Z"/><path class="cls-75" d="M23.18,8l-.2.22-.2.17-.43.37c0,.28.17.56.32.88a1,1,0,0,0,.51-.56c.08-.21,0-.14.18-.23l1.11-1.49c.07-.08.12-.16.2-.25l.26-.25a2,2,0,0,1,.49-.75l.46-.65c0-.18.1,0,0-.12A17.38,17.38,0,0,0,24.48,6.7c-.44.44-.89.85-1.3,1.31Z"/><path class="cls-40" d="M4.83,3.65a.41.41,0,0,0-.13.17,4.48,4.48,0,0,0,0,1.67.19.19,0,0,0,0,.07.15.15,0,0,0,0,.06A18.53,18.53,0,0,1,5.92,2.48,3,3,0,0,1,6.59,1C6.48.79,6.81.8,6.47.83c.27-.08,0,0,.29-.12C6.6.52,6.5.53,6.26.44H6.05L4.86,3.84l0-.19Z"/><path class="cls-76" d="M15.87,8.92c.32.23.35.62.69.74l.36-.81L16.12,8a1,1,0,0,1-.4-.44l-.09,0c-.12-.08,0,0-.12-.09L15,6.94c-.09-.13,0,0-.07-.13-.54-.28-.83-.86-1.32-1.22,0,0-.22,0,.12.41Z"/><path class="cls-77" d="M17.27,10.94v.63a1.71,1.71,0,0,1,.09.7c0,.35,0,.41.15.62.62.9.1.53.5.95L18,13.51c.23.12,0,0,.22.15s.08.09.18.15l.31,0a1.51,1.51,0,0,0,.15-.64c-.21.09-.15-.05-.43-.67a23.63,23.63,0,0,0-1.16-2.48Z"/><path class="cls-69" d="M13.32,19.41c.09.34-.06.13.28.34-.23.07-.11.07-.19.15a4.44,4.44,0,0,1,2,.67c.23.1.14,0,.29.17.37.13.33.28.5.7a2.55,2.55,0,0,0,.42.84c.15-.25.11-.09.08-.35l-.52-1.11a4.46,4.46,0,0,0-.39-.79c-.12-.26-.17-.6-.49-.74Z"/><path class="cls-78" d="M9.72,19.64h.73L12,19.52l1.32-.11,2-.12c.21-.2.19-.29.11-.65a28,28,0,0,0-3.31.47c-1,.2-2.16.32-3.2.54A2.63,2.63,0,0,1,9.72,19.64Z"/><path class="cls-79" d="M20.41,13.24c0,.37.08.48.44.59a1.17,1.17,0,0,0,.41-.44l.06.17c.22-.26.08-.19.22-.43s.19-.19.26-.33,0-.87.17-1.11l0-1.46c-.09-.31-.06-.16-.2.15l-.94,2.1c-.2.55-.21.67-.46.76Z"/><path class="cls-56" d="M18.82,13.21a1.51,1.51,0,0,1-.15.64l-.31,0c.11.3.31.39.54.64a3.21,3.21,0,0,0,.56.6c.16,0,.16,0,.18-.22l0-1.75c0-.39.05-2.1,0-2.31l-.79,2.44Z"/><path class="cls-54" d="M19.46,15.05c.08.18-.09.13.22.16.24-.41,1-1,1.17-1.38-.36-.11-.41-.22-.44-.59a15.58,15.58,0,0,0-.8-2.47c.06.21,0,1.92,0,2.31l0,1.75c0,.25,0,.22-.18.22Z"/><path class="cls-69" d="M10.45,19.64c-.19.28-.18.51-.57.56.13.31-.13.56-.34.85-.09.12-.18.29-.27.42L9,21.86c0,.13,0,0-.06.15a.5.5,0,0,1-.09.12,1.09,1.09,0,0,0-.22.38c.47-.2,1.42-1.37,2-1.65a2.26,2.26,0,0,1,.28-.25c.18-.13.2-.09.34-.21H11a2.55,2.55,0,0,0,.62-.46,1.07,1.07,0,0,1,.16-.14c.29-.2.16,0,.23-.28l-1.55.12Z"/><path class="cls-48" d="M27.89,20.2c0,.36.07-.09.33.28.17.14.29.12.45.41a3.86,3.86,0,0,1,.88.71L30,22a1.49,1.49,0,0,0,.53.38,5.48,5.48,0,0,0-.64-1,4,4,0,0,0-.61-.94c.17-.09,0,0,.09-.14a.46.46,0,0,1-.4-.22.51.51,0,0,1-.09-.16c0-.16-.24.09.05-.13a3,3,0,0,0-1.24-.12l-.39,0c.12.17,0,.08.19.2s0,0,.14.09,0,0,.18.14Z"/><path class="cls-80" d="M17.45,19.75l.15,1.35c.08.06.11,0,.17.09l.09-.15c.23-.27.2-.06.47-.35s.22-.38.5-.58l.45-1.37a4.91,4.91,0,0,0-1,.44c-.28.14-.71.27-.81.57Z"/><path class="cls-81" d="M11.17,20.4c-.14.12-.16.08-.34.21a2.26,2.26,0,0,0-.28.25H11l1.2-.06c.13-.19.22-.14.5-.18s.49-.12.59,0a2.49,2.49,0,0,1,1.1-.21c.07.06.1.05.17.09.09-.12.05-.09.28.05a2.91,2.91,0,0,0,.35.2c.18-.34-.06-.08.25-.1l.25,0c-.15-.14-.06-.07-.29-.17a4.44,4.44,0,0,0-2-.67,13.52,13.52,0,0,1-2.24.5Z"/><path class="cls-82" d="M4.26,24.27c-.1.1,0,0-.21.17a.84.84,0,0,1-.27.11l.13,0,2-.52.58-.13L9,23.23l.16-.11s.05,0,.06-.05,0,0,.05-.05c-.63.17-.71.07-.67-.5H8.56A35.33,35.33,0,0,1,4.26,24.27Z"/><path class="cls-83" d="M30,23l.21.21,2.51.68.68.15,2,.53.15,0c-.8-.27-1.65-.66-2.48-1s-1.75-.7-2.46-1.06l0,.29c-.3.17-.24.35-.6.24Z"/><path class="cls-52" d="M20.64,32.73c-.09.16,0,0-.15.19l-.18.13a.8.8,0,0,1-.48.11l-.2.05-.14.49s0,0,0,.06a7.66,7.66,0,0,1,1.66.37c.17.11.27,0,0,.08.19.16.24.15.53.15,0-.08.19,0,0-.58a4.86,4.86,0,0,1-.37-1.36h-.11a1.11,1.11,0,0,1-.47.31Z"/><path class="cls-25" d="M18.15,34.21l-.22,0,1.51-.42s0-.07,0-.06l.14-.49-.2-.09-.4,0a.86.86,0,0,1-.54-.43c-.15,0-.18,0-.27-.18s-.12-.08-.17-.12c-.05.62-.59,1.46-.51,2a.63.63,0,0,0,.31,0c.26,0,.15,0,.3-.14Z"/><path class="cls-84" d="M20.55,20.38c.6.19.38.65,1,.64a5.68,5.68,0,0,1,.26-1.35l0-.09A15.93,15.93,0,0,0,20,18.8,4.28,4.28,0,0,0,20.55,20.38Z"/><path class="cls-85" d="M17.6,21.1c0,.36,0,.25-.22.44l-.41.32.08-.41c-.18.2,0,.32-.32.48,0,.26.07.1-.08.35a14.08,14.08,0,0,0,.22,1.6,4.76,4.76,0,0,0,.26-1.07c.15.18.16.22.21.57s.06.35.1.55a4.61,4.61,0,0,0,.26,1.2,12.87,12.87,0,0,0-.16-1.62,2.49,2.49,0,0,1,.06-1.58l.55-.66c.15-.13,0,0,.16-.11l.18-.16.08-.08a.87.87,0,0,0,.12-.14c-.06-.14.08-.46.14-.67-.28.2-.27.35-.5.58s-.24.08-.47.35l-.09.15c-.06-.06-.09,0-.17-.09Z"/><path class="cls-86" d="M25.57,35.29c-.06.18-.16.11-.29.1a.55.55,0,0,1-.14.12s0,0-.05,0l-.05,0-.68.31a5.74,5.74,0,0,1-.88.37c.24.12.79-.2,1.22-.24.66-.38,3.38-.59,4.39-.93L28.51,35c-.31,0-.35,0-.42-.18l-.25.18-.65-.15s0,0-.06,0l.18-.25c-.55.15-1.14.58-1.74.72Z"/><path class="cls-87" d="M22.32,29.88l-.39,1c0-.27,0,0,.17-.14.16.43-.24-.33.14.15.11.13.09-.22.13.27l.19-.23h.64c.06.7-.15,1.22.25,1.18s.16.11.21-.44c0-.13,0-.27,0-.41.32-.21.12.19.38-.12-.12-.37.2.33-.12-.12a8.57,8.57,0,0,1-.41-1.2.59.59,0,0,1-.16-.24c-.09-.32-.08,0,0-.14-.19.4-.1.18-.11.67a1.38,1.38,0,0,0-.8.11l-.07-.14a.33.33,0,0,1,0-.06S22.32,29.89,22.32,29.88Z"/><path class="cls-79" d="M32.65,16.05c0,.1,0,0,0,.11a1.49,1.49,0,0,1-.05.22c.44.46.64.7,1.05,1.13A10.85,10.85,0,0,0,34.7,18.6l0,0c0-.39-1.22-2.55-1.41-3-.22.06-.2.1-.34.25a1.21,1.21,0,0,1-.16.16c-.12.1,0,0-.16.11Z"/><path class="cls-37" d="M10.3,9.46l.43.13.84-.06s0,0,0,0l-1.22-.91c-.32-.21-.29-.16-.43-.38-.21,0-.13,0-.32-.16a2,2,0,0,0-.41-.26l-1.63,0L10,9l.41.19.4.28-.54,0Z"/><path class="cls-88" d="M15.71,19.14l.52,1.24c.07.14.07,0,.07.21s.11.12-.09.23l.52,1.11c.31-.16.14-.28.32-.48a9.8,9.8,0,0,1,.24-1.25l-.2.08a7.81,7.81,0,0,0-1.29-1.42c-.09.08-.09-.18-.09.28Z"/><path class="cls-57" d="M5.07,12.93l0,1.59c.1.11.74.75.82.8l0,.28.16,0a2.79,2.79,0,0,1,.61.73l.16-.15c-.19-.06-.12,0-.25-.17a21.45,21.45,0,0,1-1-2.15,14,14,0,0,1-.11-1.65c0-.29-.06-.56-.07-.84a1.56,1.56,0,0,0-.16-.86C5.15,10.79,5.16,12.87,5.07,12.93Z"/><path class="cls-89" d="M29.13,8.36a4.83,4.83,0,0,1-1.07.85l-.27.2c-.11.11,0,0-.13.14l.87,0L29,9.45l-.61,0a2.09,2.09,0,0,1,.87-.5l2.42-1.17-1.19,0c-.33-.06-.21.1-.33-.2a3.18,3.18,0,0,1-.52.44l-.27.19c-.24.14-.05.06-.24.1Z"/><path class="cls-75" d="M8.58,22.51h.05c0,.57,0,.67.67.5a19.41,19.41,0,0,0,1.55-1.89l.19-.26h-.49C10,21.14,9.05,22.31,8.58,22.51Z"/><path class="cls-90" d="M24.89,20.14c0,.07.11-.05-.09.12l-.25.18.1.07c.2.08,0,0,.24.23,0-.43,0-.14.07-.25a1.76,1.76,0,0,1,.92.18c.11-.09,0-.05.21-.07,0,0,.29,0,.32,0a3.15,3.15,0,0,1,.55.1,5.21,5.21,0,0,1,1.21.15l.5,0c-.16-.29-.28-.27-.45-.41a11.76,11.76,0,0,1-1.77-.4c-.67-.19-1.06-.34-1.56.06Z"/><path class="cls-61" d="M22,20.34c.08.28.14.56.2.83s.06.3.1.44c.11.38,0,.23.21.32l.14-.39c-.05-.09.84-2.26.93-2.72A19.37,19.37,0,0,0,22,20.34Z"/><path class="cls-79" d="M30.39,14.67l.78.19.72.12.19-.3c-.08-.19.46-1.19.59-1.61-.28-.13-.7.37-1.17.72s-.83.81-1.11.88Z"/><path class="cls-11" d="M23.3,36.27l.18,0a5.74,5.74,0,0,0,.88-.37l.68-.31.05,0s0,0,.05,0a.55.55,0,0,0,.14-.12c-.52-.12-.39,0-.75.16-.67.28-.55-.33-.55-.37l1.24-.06,0-.2c-.24-.1-.44.08-.75-.1.16-.36.31.29.31-.68l-.43,0v.67a1.51,1.51,0,0,0-.3,0c-.21.06,0,0-.19.12l-.41.11v.52c-.3,0-.26,0-.4.21.09.27,0,.09.3.28-.26-.12,0,0-.22,0,.13.23-.08.27.15.17Z"/><path class="cls-79" d="M19.64,26l.08.26.35-.87a18,18,0,0,1,.69-1.87l.36-.87c.11-.29.18-.72.41-.83a4.11,4.11,0,0,0-.3-.29,3,3,0,0,0-.3-.34L20,24.82a5.87,5.87,0,0,0-.16.6,1,1,0,0,1-.07.3Z"/><path class="cls-66" d="M28.41,21.13A13.13,13.13,0,0,0,30,23c.36.11.3-.07.6-.24l0-.29,0-.14A1.49,1.49,0,0,1,30,22l-.41-.35a3.86,3.86,0,0,0-.88-.71l-.5,0c.07.07.06,0,.11.09s.07.12.08.11,0,0,.05.06Z"/><path class="cls-61" d="M29.72,15.47c.48,0,1.87.62,2.61.72l0-.09c0-.37-.44-.68-.46-1.12l-.72-.12c-.14.25,0,.12-.35.21l-.4.07c-.78.15-.62.14-.7.33Z"/><path class="cls-77" d="M17.6,21.93c.12-.08.06-.05.23-.07L19.42,26c.16-.36-1.09-3.95-1.11-4.84-.18.11,0,0-.16.11Z"/><path class="cls-45" d="M6.42,30.85v.25c.4,0,.43,0,.58.26l.1.15c.21.44-.08.11.19.39s.13.14.42.13v-.44h.4c.07-.51-.09-.35.17-.56-.15-.25-.07-.11-.29-.28s-.1-.19-.38-.35a.38.38,0,0,1-.3.19c-.35.08-.61-.11-1-.15a.6.6,0,0,0,.49.22l-.33.2Z"/><path class="cls-91" d="M11.1,34.78l.06.21s-.07,0-.08,0S11,35,11,35a.49.49,0,0,0-.16.1l.11.06a.72.72,0,0,1,.15.13l2.84.48h.26c.16-.11,0,.05.08-.2l-.84-.4-1.2-.49c-.14.21.13.07-.25.21a1.09,1.09,0,0,1-.8-.06l-.1-.08Z"/><path class="cls-92" d="M23.29,22.55c-.47,0-.11,0-.25.07l.06.51,3.59-.33c0-.23-.08-.25-.23-.38a1.06,1.06,0,0,1-.28-.28c-.41.13-.9.45-1.25.53A12.3,12.3,0,0,1,23.29,22.55Z"/><path class="cls-77" d="M5.53,16.34a15.86,15.86,0,0,0-.89,2c-.07.39,0,.08,0,.22a19.78,19.78,0,0,0,2-2.26l-.28,0-.25-.43c-.25,0-.34.37-.39.58-.42.05-.07,0-.19-.13Z"/><path class="cls-93" d="M18.09,30.3h0c0,.26.06.15-.1.33a1.91,1.91,0,0,1-.29.41c-.15.2-.24.27,0,.43,0-.14.13-.12.46,0,.54.11.84.17,1.15,1.18l.22.41c.25-.11.1,0,.16-.24a.75.75,0,0,0,0-.3,1.94,1.94,0,0,1,0-.59c-.2,0-.12,0-.22-.16l-.36-.57-.51,0-.91.07a.77.77,0,0,1,.13-.12l.81-.39.07-.1L18.55,30c-.19.11-.1.1-.21.17S18.32,30.23,18.09,30.3Z"/><path class="cls-27" d="M7.32,14.88l-.07.56A2.55,2.55,0,0,0,7,16.1c.93,0,1.48-.5,2.31-.62h0c-.05-.32.23-.11-.26-.27-.16,0-.78-.06-.87-.21v-.06a.18.18,0,0,1,.05-.08l-.81.23-.17-.2Z"/><path class="cls-34" d="M13,22.84l3.13.31.08-.61c-.56,0-1.24.17-1.75.15a6,6,0,0,1-1.35-.54l-.5.55Z"/><path class="cls-51" d="M10.06,4.11c.38,0,.44.49.79.26,0-.16,0,0-.06-.14l-.74-.91c-.15-.14,0-.06-.2-.15l.05.26c-.16-.08-.11-.14-.32-.16-.39,0,.11.06-.37,0A1,1,0,0,1,8.63,3c-.14.24.06.11-.3.11A7.75,7.75,0,0,0,7.18,3a21.41,21.41,0,0,0,2.88,1.16Z"/><path class="cls-94" d="M18.86,30.85l.08.21-.37.13.51,0,.36.57c.23-.11.11,0,.14-.39.06-.69.11-.29.85-.61l-.2.35.42.17,1,.08a.51.51,0,0,0,0-.22c-.1-.18,0,0-.14-.15-.17.17.25.23-.25.08L21,30.88a2.57,2.57,0,0,0-.46-.2c-.28-.31-.42-.69-.87-.89l-.08,1.15a1.65,1.65,0,0,1-.69-.22C18.8,30.79,18.69,30.56,18.86,30.85Z"/><path class="cls-43" d="M10.27,13.91l.87-.58c-.17-.39-.28-.26-.71-.22a4.41,4.41,0,0,1-1,0l-.17,0-1.38,0a11.32,11.32,0,0,0,2.35.82Z"/><path class="cls-42" d="M28.14,13.38l.71.52a19.59,19.59,0,0,0,2.36-.71l-.13-.06a3.56,3.56,0,0,0-1.26,0,4.34,4.34,0,0,1-1.08,0,1.31,1.31,0,0,0-.49,0C27.92,13.26,28.1,13.21,28.14,13.38Z"/><path class="cls-37" d="M9.67,28.6c-.19-.22-.25-.33-.41-.49A2.61,2.61,0,0,1,9,27.87c-.15-.22-.12-.1,0-.15-.08-.07,0-.07-.26-.12L6,27.17a2.34,2.34,0,0,0,.87.41l.94.35A14.8,14.8,0,0,0,9.67,28.6Z"/><path class="cls-95" d="M2.78,27c.29.08,0,0,.28.17l.14.11c.17.11-.11,0,.19.1.07-.18-.15-.18.14-.14a5,5,0,0,0,1.19.88c0-.24-.13-.39.09-.38l0,0c.28.11-.07.17.36.15.09-.21.11-.37-.19-.44-.65-.16-.51.18-.75-.38a1.29,1.29,0,0,0,.8,0L4.76,27,4.43,27l-.59-.09c-.36-.07-.9-.12-1.29-.15l.14.18.09.12Z"/><path class="cls-96" d="M19.83,33.16a.8.8,0,0,0,.48-.11l.18-.13c.17-.16.06,0,.15-.19-.11-.14.1-.6.18-.78.33.29.26.3.29.47h.11c0-.37.32-.64.39-1a1.33,1.33,0,0,0-.73.07c-.39.08-.36,0-.56.35l-.67,1.23C19.74,33.18,19.43,33.17,19.83,33.16Z"/><path class="cls-22" d="M26.62,21.38a1.94,1.94,0,0,0-.44.76,1.06,1.06,0,0,0,.28.28c.15.13.2.15.23.38l.19,0A8.62,8.62,0,0,1,28,21.3c-.15-.22.05-.05-.22-.13l-1.11.21Z"/><path class="cls-97" d="M12.35,22.73l.63.11-.39-.14.5-.55a3.47,3.47,0,0,0-.48-.77l-.74-.12-.58-.08Z"/><path class="cls-89" d="M29.58,28.64l.23-.13,2.93-1.06.22-.09c.22-.12.09,0,.2-.14a20.14,20.14,0,0,0-2.16.33c-.54.1-.57,0-.85.34A5.11,5.11,0,0,0,29.58,28.64Z"/><path class="cls-69" d="M15.19,30.53l.19-.52-.15-.65c0-.28.09-.29.08-.59l-.2.29-1-1.9,0,.13c.15.68.58,1.82.8,2.57s.12.77.34.67Z"/><path class="cls-98" d="M25.48,30.91l-.47.16a1.68,1.68,0,0,1-.29.1c-.27,0-.09.13-.23-.07-.21.15-.08,0-.21.25l-.45,1c.11.23-.07.16.63-.3l1.37-.91a1.86,1.86,0,0,0,.65-.53Z"/><path class="cls-99" d="M24.89,21.11l-.15,0-.31.11-.78,0a.32.32,0,0,0,.07.42c.15-.06.66.29.94.32a.93.93,0,0,0-.13-.52l.51-.13-.21.64c.58-.23.44-.51,1.09-.66l0,.36c.11-.07.13.1.09-.25l0-.5a6,6,0,0,0-1.13.16Z"/><path class="cls-100" d="M23.36,8.86a9.43,9.43,0,0,0,1.22-.17c0-.45.21-.23.29-.77v0a.13.13,0,0,0,0-.06L25,7.57l-.27-.22c.32,0,.29-.12.25-.48l-.26.25c-.08.09-.13.17-.2.25Z"/><path class="cls-101" d="M6.26.44c.24.09.34.08.5.27a7.09,7.09,0,0,1,1.48.55l.47.33,0-.32C8.22,1.12,8.33,1,8,.84A4.8,4.8,0,0,0,7.48.75a.53.53,0,0,1-.4-.28C8.34.41,7.8.68,8.52.56,8.4.37,8.45.39,7.9.32A8.45,8.45,0,0,0,5.76.08C5.8.55,5.92.21,6.26.44Z"/><path class="cls-48" d="M24,29c0,.21,0,.42,0,.64l0,.28c-.05.21,0,0-.08.18l.18.53c.24-.12.15-.13.36-.79l.79-2.56c-.11-.21,0-.14-.13,0l-.4.75c-.15.3-.34.63-.51,1C24,29,24.1,29.05,24,29Z"/><path class="cls-102" d="M7.26,13.79c.39.08.23.08.78.53l.26.28-.6.3c-.17-.24-.12.3-.11-.34-.17.12-.07.28-.28-.09s-.09-.32,0-.68Zm-.63-.58.69,1.67.17.2.81-.23.93-.25a.71.71,0,0,1-.72-.21A5,5,0,0,1,8,14c-.29-.29-.78-.55-1-.8l-.25-.11c-.14.06,0-.09-.16.13Z"/><path class="cls-103" d="M17.66,31.47a2.06,2.06,0,0,0,.39.87c.05,0,.1.06.17.12l-.1-.21a1.87,1.87,0,0,0,.26-.3,1.77,1.77,0,0,1,.25.67c-.11.08.07.06-.14,0a.86.86,0,0,0,.54.43,1.91,1.91,0,0,1,.07-.62s0,0,.06,0c.07.29,0-.06.11.1-.31-1-.61-1.07-1.14-1.18C17.79,31.35,17.7,31.33,17.66,31.47Z"/><path class="cls-104" d="M12,19.52c-.07.25.06.08-.23.28a1.07,1.07,0,0,0-.16.14,2.55,2.55,0,0,1-.62.46h.18a13.52,13.52,0,0,0,2.24-.5c.08-.08,0-.08.19-.15-.34-.21-.19,0-.28-.34Z"/><path class="cls-105" d="M9.69,33.93l.46.36.74.37.21.12.1.08a1.09,1.09,0,0,0,.8.06c.38-.14.11,0,.25-.21l-2.35-1-.35-.07.14.29Z"/><path class="cls-106" d="M18.15,34.21a3.77,3.77,0,0,1,1.21.24c.67.1,1.11-.29,1.74-.24.27-.12.17,0,0-.08a7.66,7.66,0,0,0-1.66-.37l-1.51.42.22,0Z"/><path class="cls-107" d="M15.41,32.36c-.14-.39-.45-.71-.46-1.19h-.16c-.08.06.15.09-.21,0l-.22-.07L13.87,31l-1-.27,2.21,1.59c.28.19.19.26.31.08Z"/><path class="cls-47" d="M19.28,18.74l-.45,1.37c-.06.21-.2.53-.14.67.23-.16.58-.53.8-.72s-.15-.1.21-.09a2.37,2.37,0,0,1-.08-1c0-.08,0-.49,0-.54-.06-.32.09-.3-.22-.31C19.45,18.52,19.44,18.45,19.28,18.74Z"/><path class="cls-108" d="M36.85,23.45c0-.22-.09,0,.08-.17l1.31.28c-.1-.12,0,0-.19-.17a1.6,1.6,0,0,0-.19-.11,6.49,6.49,0,0,0-1.1-.54c-.36-.2-.18-.2-.66-.22h-.8c.14.25.47.36.84.52l.71.42Z"/><path class="cls-12" d="M4.1,19.24c-.25.07-.08,0-.14.15,0,.39-.07.4-.35.66l1.63,0c-.16-.44-.37,0-.07-.42.07-.09.08,0,.14-.22-.39-.37-.36-.11-.87-.19l-.26.05S4.12,19.24,4.1,19.24Z"/><path class="cls-79" d="M21,14.77l-.53,1.65.47-.42.45-.46a7.53,7.53,0,0,0,.87-.92L21,14.77Z"/><path class="cls-89" d="M26.61,11.45c0,.23-.06.18.71.26l.81.11c.53.07,1.16.19,1.69.23-.08-.07,0,0-.15-.1l-1.55-.58c-.53-.18-.41-.16-.49-.32a1.79,1.79,0,0,1-1,.4Z"/><path class="cls-98" d="M19.62,34.92l0,.9a14.61,14.61,0,0,0,1.64-.72l.83-.6,0,0c-.32.11-.74.36-1,.41s-1,0-1.4,0Z"/><path class="cls-107" d="M19.58,35.82l0-.9a4,4,0,0,1-2.41-.46h0A8.55,8.55,0,0,0,19.58,35.82Z"/><path class="cls-109" d="M19.66,31.88a1.94,1.94,0,0,0,0,.59.75.75,0,0,1,0,.3c-.06.26.09.13-.16.24.09.09.14,0-.06.11l.2.09.2-.05c-.4,0-.09,0-.18-.09l.67-1.23c.2-.36.17-.27.56-.35a1.33,1.33,0,0,1,.73-.07c.1-.06.1.1.08-.1l-1-.08-.46-.08a3.92,3.92,0,0,0-.53.72Z"/><path class="cls-93" d="M5,2.88a2.59,2.59,0,0,1-.13.77l0,.19L6.05.43h.21C5.92.21,5.8.55,5.76.08c-.08.09,0,0-.09.14a.7.7,0,0,0,0,.18c0,.11-.06.25-.09.37Z"/><path class="cls-58" d="M33.17.48l1.31,3.59L33.52,0c-.33,0-.33,0-.52.14h.41l-.24.35Z"/><path class="cls-107" d="M9.64,12l2.76-.35c.28,0,.25,0,.24-.09l-1-.42s0,0-.06,0a2.81,2.81,0,0,1-1,.44l-.78.29C9.63,12,9.75,11.88,9.64,12Z"/><path class="cls-80" d="M17,14.71c.54.36,1.1,1.23,1.75,1.63l-.48-1.5c-.14.07.11.11-.32,0-.15,0-.21-.07-.36-.11S17.1,14.52,17,14.71Z"/><path class="cls-61" d="M27.31,34.57l-.18.25s.05,0,.06,0l.65.15.25-.18c.18,0,.66-.42,1-.54l-.05-.07.09-.26-.47.07A6.26,6.26,0,0,0,27.31,34.57Z"/><path class="cls-77" d="M15.66,10.25a2.44,2.44,0,0,0,.09.47c.08.21,0,.21.22.16a11.47,11.47,0,0,1,.59-1.22c-.34-.12-.37-.51-.69-.74C15.62,9.2,15.86,9.89,15.66,10.25Z"/><path class="cls-110" d="M33.2,29.22l.11,0h.06l.49,0,.26-.22c.07-.17,0-.09.2-.16s-.09,0,.09-.18.05,0,.17-.1A8.41,8.41,0,0,1,36,27.24c-.06-.2.08-.2-.64.32L33.2,29.22Z"/><path class="cls-83" d="M32.67,13.07c-.13.42-.67,1.42-.59,1.61.24-.41.52-.84.78-1.27a4.09,4.09,0,0,0,.67-1.29c-.12-.16-.13-.12-.14-.51A6.21,6.21,0,0,0,32.67,13.07Z"/><path class="cls-110" d="M5.32,29.24l.74,0C6,29.1,6,29.13,5.75,29s-.22-.15-.35-.26a2.78,2.78,0,0,1-.68-.58,5,5,0,0,1-1.19-.88c-.29,0-.07,0-.14.14a23.72,23.72,0,0,1,1.93,1.85Z"/><path class="cls-54" d="M27.89,20.2,27.77,20c-.15-.17,0,0-.18-.14s0,0-.14-.09-.07,0-.19-.2l.39,0L26,19.43c-.08.14-.05.08-.15.18l0,0-.08.08-.05,0a6.63,6.63,0,0,1,1.24.27l.3.1A2.35,2.35,0,0,0,27.89,20.2Z"/><path class="cls-79" d="M22.67,9.65a10.09,10.09,0,0,1,.59,1.27c.26-.14.07.14.24-.29a2.24,2.24,0,0,0,.09-.45c-.16.09-.12.07-.13-.34,0-.23,0-.47,0-.71s0-.05-.26,0A1,1,0,0,1,22.67,9.65Z"/><path class="cls-75" d="M24.49,31.1c.14.2,0,.08.23.07a1.68,1.68,0,0,0,.29-.1l.47-.16.36-.52.34-.42a3.08,3.08,0,0,0,.67-.92,10.15,10.15,0,0,0-1.17,1,12,12,0,0,1-1.19,1Z"/><path class="cls-76" d="M13.87,31l.49.17.22.07c.36.06.13,0,.21,0L13,29.62a.52.52,0,0,1-.1-.11c-.1-.12,0,0-.07-.13-.24-.11-.22-.18-.41-.26h-.12c.21.22.52.59.76.9Z"/><path class="cls-111" d="M26,12.74c.41,0,.39-.24.86-.18-.26-.32-.75-.35-.92-.76.1-.2.11-.16.23-.38-.39.08-.15,0-.35.19l-.08.07a1,1,0,0,0-.2,1l.46,0Z"/><path class="cls-6" d="M2.24,25.25c-.13.19-1.63.9-2,1.16a.42.42,0,0,0,.25.11,3,3,0,0,0,.43,0l.86.06c-.12-.29.12-.05-.18-.17s-.37.07-.73-.12c.24-.36.77-.42,1-.66l.71-.42c.51-.23.49-.21.49-.5l-.33,0c.15.16-.14,0,.16.15A3.75,3.75,0,0,1,2.24,25.25Z"/><path class="cls-36" d="M32.65,16.05c.16-.09,0,0,.16-.11a1.21,1.21,0,0,0,.16-.16c.14-.15.12-.19.34-.25.13-.4.5-.57.51-.77a1.21,1.21,0,0,0-.07-1L33,15.45c-.08.23-.21.38-.3.6Z"/><path class="cls-112" d="M18.22,8.71c0,.21.05.13-.2.13a2.51,2.51,0,0,0,1.55.39V8.61l.51,0C19.78,8.41,18.66,8.66,18.22,8.71Z"/><path class="cls-105" d="M16.12,8l.8.81c.12-.06.08.1.1-.15L17,8.43c.38.17.56.41,1.05.41.25,0,.2.08.2-.13a1.75,1.75,0,0,1-1.07-.46,7.64,7.64,0,0,0-.89-.55Z"/><path class="cls-20" d="M8.59,19.75l-.44.06a6.65,6.65,0,0,0,1.73.39c.39-.05.38-.28.57-.56H9.72a2.6,2.6,0,0,1-1.13.11Z"/><path class="cls-113" d="M19.57,9.23a3,3,0,0,0,1.62-.37l-.34-.18-.77,0-.51,0v.62Z"/><path class="cls-114" d="M6,27.17l2.84.43c-.12-.28,0-.19-.3-.31a15,15,0,0,0-1.7-.18L5.58,27a.57.57,0,0,0-.22,0s-.05.05-.07,0,0,0-.07,0l.74.08Z"/><path class="cls-115" d="M29.33,20.21l1.41-.27c.29-.12.11,0,.25-.15h-.2a3.52,3.52,0,0,1-1.25-.15l-.65.06c-.29.22-.07,0-.05.13a.51.51,0,0,0,.09.16.46.46,0,0,0,.4.22Z"/><path class="cls-116" d="M13.26,21.62l.2.24a8,8,0,0,1,.83.58s0-.1,0-.08,0-.06,0-.08l.08-.15,0-.15a3.67,3.67,0,0,1-1.16-.79c.14-.07-.11-.15.33,0a1.33,1.33,0,0,0,.75.18h0v-.17l0,0L13.21,21Z"/><path class="cls-107" d="M18.67,30.65l-.07.1.26.1c-.17-.29-.06-.06.05-.13a1.65,1.65,0,0,0,.69.22l.08-1.15h0c-.24,0-.06,0-.23.07a5,5,0,0,0-.78.8Z"/><path class="cls-112" d="M18.09,30.3c.23-.07.11,0,.25-.14s0-.06.21-.17v-.08a8.17,8.17,0,0,0-.44-2l0,2.4Z"/><path class="cls-117" d="M17.29,20.2a9.8,9.8,0,0,0-.24,1.25l-.08.41.41-.32c.22-.19.18-.08.22-.44l-.15-1.35h-.07l-.09.45Z"/><path class="cls-118" d="M26.62,21.38l1.11-.21a1.18,1.18,0,0,1,.68,0s0-.08-.05-.06-.05-.07-.08-.11,0,0-.11-.09A5.21,5.21,0,0,0,27,20.72c0,.16,0,.11-.14.27s-.11.09-.2.39Z"/><path class="cls-15" d="M7.59,14.56c0,.64-.06.1.11.34l.6-.3L8,14.32c-.55-.45-.39-.45-.78-.53,0,.36-.16.29,0,.68s.11.21.28.09Z"/><path class="cls-119" d="M13.33,20.66c-.07.25-.39.52-.07,1l0-.65,1.15.16c-.1-.23,0-.41.07-.68a2.49,2.49,0,0,0-1.1.21Z"/><path class="cls-120" d="M2.48,22.71l-1.65.91,1.11-.21c.1-.09-.1,0,.21-.13l.18,0,.45-.08,0-.09c-.09-.12,0,0-.08-.22.18-.3.08,0,.19-.33Z"/><path class="cls-121" d="M21.59,8.64c.29,0,.13,0,.39-.12a1.17,1.17,0,0,1,.48-.21c-.16.67-.19.19-.32.46h.21l.43-.37.2-.17.2-.22c-.13-.16,0-.25-.11-.37a6,6,0,0,0-1.48,1Z"/><path class="cls-122" d="M14.67,21.42c0,.19-.09.62-.28.56l0,.15,1.1-.47a.29.29,0,0,0,.06-.38h-.92Z"/><path class="cls-123" d="M24.83,22h-.17s0,0,0,.06l0,.05,0,0,.11.18-.18,0c.12.2.48-.1.64-.21l.32-.21.26-.24,0-.36c-.65.15-.51.43-1.09.66Z"/><path class="cls-83" d="M11,20.87l-.19.26a1.57,1.57,0,0,1,1,.13l.74.12a5.48,5.48,0,0,0-.37-.57Z"/><path class="cls-124" d="M24.89,20.74c0,.25.08.2,0,.37A6,6,0,0,1,26,21l0,.5c.25-.34,0-.56-.11-.78a1.76,1.76,0,0,0-.92-.18c-.07.11-.09-.18-.07.25Z"/><path class="cls-125" d="M28.67,34l.47-.07-.09.26c.41-.16,1.17-.77,1.45-.83-.09-.14.3-.41-1,.18a3,3,0,0,0-.87.46Z"/><path class="cls-119" d="M14.45,21.18l.22.1h.92c-.11-.27-.14-.38-.36-.49a2.91,2.91,0,0,1-.35-.2c-.23-.14-.19-.17-.28-.05l.07.65Z"/><path class="cls-126" d="M14.43,22.13l-.08.15s0,.09,0,.08,0,.05,0,.08a5.11,5.11,0,0,0,.87-.15c.4-.11.38-.2.37-.63l-1.1.47Z"/><path class="cls-127" d="M19.44,31.72c.1.19,0,.13.22.16a3.92,3.92,0,0,1,.53-.72l.46.08-.42-.17.2-.35c-.74.32-.79-.08-.85.61C19.55,31.72,19.67,31.61,19.44,31.72Z"/><path class="cls-89" d="M18.55,29.91V30l.12.66a5,5,0,0,1,.78-.8c.17-.09,0,0,.23-.07s-.12-.11.21-.05c-.1-.18,0-.12-.33-.12l-1,.3Z"/><path class="cls-120" d="M20.63,29.9v.24l.48.29-.15-2a8.11,8.11,0,0,1-.34,1.51Z"/><path class="cls-107" d="M9.3,13.07l.17,0c.15-.15.85-.08,1.28-.11l-.13-.12c-.37-.26-1-.17-1.54-.3a2.25,2.25,0,0,0,.17.24C9.38,13.05,9.37,12.79,9.3,13.07Z"/><path class="cls-128" d="M24.68,22.36l.18,0-.11-.18,0,0,0-.05s0,0,0-.06c-.28,0-.79-.38-.94-.32l.06.51a2.67,2.67,0,0,0,.9.16Z"/><path class="cls-47" d="M2.81,23.07l.5-.11c.14-.06.21-.11.37-.19.36-.17.18,0,.35-.26H2.92c-.11.29,0,0-.19.33.06.26,0,.1.08.22Z"/><path class="cls-129" d="M13,11.41l-.1-.41.48.07a1.45,1.45,0,0,0-.66-.39,2.62,2.62,0,0,0-.73-.25A3.77,3.77,0,0,0,13,11.41Z"/><path class="cls-122" d="M14.39,22c0-.27,0-.15-.1-.35s-.08-.18,0-.29a1.33,1.33,0,0,1-.75-.18c-.44-.12-.19,0-.33,0A3.67,3.67,0,0,0,14.39,22Z"/><path class="cls-109" d="M20.55,30.68a2.57,2.57,0,0,1,.46.2l.25.15c.5.15.08.09.25-.08a.56.56,0,0,1-.26-.31l-.12-.15v-.06l-.48-.29Z"/><path class="cls-130" d="M14,35.79l.38.16a4.91,4.91,0,0,0,1.59.38c-.11,0-.56-.26-.76-.35a5.59,5.59,0,0,0-.87-.38c0,.25.08.09-.08.2Z"/><path class="cls-131" d="M10.4,35.24s0-.05,0,0L10.18,35l.81-.12s-.08-.22-.1-.26l-.74-.37c.18.36.29.28,0,.58s-.08,0-.18.25C10.26,35.31,10.08,35.28,10.4,35.24Z"/><path class="cls-102" d="M5.87,15.6l-.34.74c.12.17-.23.18.19.13,0-.21.14-.54.39-.58l.25.43.28,0A2.79,2.79,0,0,0,6,15.55l-.16,0Z"/><path class="cls-132" d="M9.69,33.93l-.14-.29.35.07L9,33.25c-.15-.07-.78-.38-.85-.23C8.48,33.12,9.16,33.72,9.69,33.93Z"/><path class="cls-133" d="M19.68,29.79c.45.2.59.58.87.89l.09-.54V29.9l-.74-.17c-.33-.06-.12-.05-.21.05Z"/><path class="cls-134" d="M28.09,34.82c.07.21.11.14.42.18l.58.08-.31-.31a.79.79,0,0,0,.32-.49c-.35.12-.83.53-1,.54Z"/><path class="cls-124" d="M23.67,21.26l.85-.47-.09.46.31-.11-.16,0,.07-.65-.1-.07a1.92,1.92,0,0,0-.5.29C23.77,20.91,23.79,20.92,23.67,21.26Z"/><path class="cls-68" d="M4.06,29.82s0-.06-.06-.05,0,0-.27-.14c.11-.12,0-.09.2-.13h.28l.31,0,.15,0c.16-.05.08,0,.17-.1a5.42,5.42,0,0,0-1.75.18,1.75,1.75,0,0,0,1,.31Z"/><path class="cls-135" d="M18.57,31.19l.37-.13-.08-.21-.26-.1-.81.39a.77.77,0,0,0-.13.12Z"/><path class="cls-130" d="M10.4,35.24l.71.07a.72.72,0,0,0-.15-.13l-.11-.06A.49.49,0,0,1,11,35s.06,0,.07,0,.05,0,.08,0l-.06-.21-.21-.12s.09.26.1.26l-.81.12.18.16S10.38,35.23,10.4,35.24Z"/><path class="cls-136" d="M20.64,32.73a1.11,1.11,0,0,0,.47-.31c0-.17,0-.18-.29-.47C20.74,32.13,20.53,32.59,20.64,32.73Z"/><path class="cls-96" d="M19,33.07l.4,0c.2-.08.15,0,.06-.11l-.22-.41c-.15-.16,0,.19-.11-.1,0,0-.05,0-.06,0a1.91,1.91,0,0,0-.07.62Z"/><path class="cls-136" d="M18.22,32.46c.09.15.12.13.27.18s0,.06.14,0a1.77,1.77,0,0,0-.25-.67,1.87,1.87,0,0,1-.26.3Z"/><path class="cls-66" d="M14.36,21.13l0,0h.35l-.07-.65c-.07,0-.1,0-.17-.09-.07.27-.17.45-.07.68Z"/><path class="cls-81" d="M14.39,22c.19.06.26-.37.28-.56l-.36-.08h0c-.1.11-.13,0,0,.29s.07.08.1.35Z"/><polygon class="cls-137" points="23.67 21.26 23.65 21.27 24.43 21.25 24.52 20.79 23.67 21.26"/><path class="cls-138" d="M24.66,22h.17l.21-.64-.51.13A.93.93,0,0,1,24.66,22Z"/><path class="cls-64" d="M24.74,21.14l.15,0c.08-.17,0-.12,0-.37-.21-.26,0-.15-.24-.23l-.07.65Z"/><path class="cls-139" d="M1.94,23.41l.24.07-.05.07a3.33,3.33,0,0,0,.42-.17l.19-.12c.14-.12.08,0,0-.1l-.45.08-.18,0c-.31.11-.11,0-.21.13Z"/><path class="cls-114" d="M6.63,13.21c.12-.22,0-.07.16-.13l.25.11c0-.28-.35-.39-.62-.48l.21.5Z"/><path class="cls-57" d="M1,22.79c-.19-.07-.2.11-.13-.16H.79l-.27.45A.72.72,0,0,0,1,22.79Z"/><polygon class="cls-10" points="14.31 21.34 14.67 21.42 14.67 21.28 14.45 21.18 14.32 21.16 14.31 21.34"/><path class="cls-139" d="M33.86,29.3l.24.06c-.08-.25-.1,0,0-.28Z"/></g></g></g></svg>