<svg xmlns="http://www.w3.org/2000/svg" viewBox="0 0 39.31 47.45"><defs><style>.cls-1{fill:#020202;}.cls-1,.cls-2{fill-rule:evenodd;}.cls-2{fill:#f1f1f3;}</style></defs><g id="Слой_2" data-name="Слой 2"><g id="Слой_1-2" data-name="Слой 1"><g id="_3015165427056" data-name=" 3015165427056"><path class="cls-1" d="M5.18,12.77A22.51,22.51,0,0,1,7.79,2.91a3.69,3.69,0,0,1,1-1.11c1.1-.61,3,1.62,3.58,2.26l.91,1.19c.8,1.16,1.86,3,1.55,4.56-.23,1.14-1.08,1.55-2.19,1.88A2.27,2.27,0,0,0,14.9,11c.66-.71.59-1.19.93-2.09a4,4,0,0,1-.17,1.93c-1.27,4.1-8.08,2.33-8.1-2.66A6.72,6.72,0,0,1,8,5.67a9.61,9.61,0,0,1,.42-1,8.24,8.24,0,0,0,.47-.94l0,0A8.24,8.24,0,0,0,6.7,8.58v.14c0,3.2,3.28,5.43,1.43,6.9a5.66,5.66,0,0,1-2.11,1,6.55,6.55,0,0,1-.84-3.85Zm21.46-1a6.34,6.34,0,0,0-.76-.3c-2.16-1-1.53-3.29-.57-5,.75-1.34,3.88-5.66,5.33-4.54,1,.8,1.78,2.72,2.21,4,.87,2.59,2.17,8,.44,10.74a6.47,6.47,0,0,1-2.16-1c-1.79-1.52,1.49-3.56,1.48-6.95A8.24,8.24,0,0,0,30.3,3.56c.12.3.36.63.52,1a8.26,8.26,0,0,1,.94,3.41c.14,5.93-8.7,7.44-8.3,1.08a1,1,0,0,1,.09.16A4.21,4.21,0,0,0,24.43,11a2.33,2.33,0,0,0,2.21.68ZM0,26.36a11.19,11.19,0,0,1,1.05-1.83,13.8,13.8,0,0,1,1.3-1.64c.39-.44,2.45-2.38,3.48-2.36a7.79,7.79,0,0,0-2.23,1.65A11,11,0,0,0,0,30.39a13,13,0,0,1,1.15-2.95,5.77,5.77,0,0,1,2.11-2.11L2,27.08a7,7,0,0,0-.69,5.07,10.33,10.33,0,0,0,.78,2.3,6.68,6.68,0,0,1,1.69-5.06,12.81,12.81,0,0,1,3.92-2.78A8.1,8.1,0,0,0,2.86,29.2a6.13,6.13,0,0,0-.94,1.48C1.8,28.92,3,27.13,3.74,26.15A21.42,21.42,0,0,1,7,23L3,24.48a9.28,9.28,0,0,1,2.3-2.77c.32-.3,2.68-2.11,2.76-2.29a6.64,6.64,0,0,0-3.18.69c-.31.15-.59.37-.85.47a6.13,6.13,0,0,1,2.43-2.16,23.94,23.94,0,0,1,3.36-1.24c.08.73-1.26,2-1.71,2.82A4.17,4.17,0,0,0,8,23.72,3.69,3.69,0,0,1,8.54,21,8.8,8.8,0,0,1,9.7,19.74c2-2,1.78-3,1.69-5.43a4.69,4.69,0,0,0,5.14-2.8A4.25,4.25,0,0,0,16.66,9a2.67,2.67,0,0,1,1,4.53,3.27,3.27,0,0,1-1.46.64l-.27.11c2.51,1.77,3.29,3.85,3.19,7.1,0,1.61-.3,3.12-.44,4.7-.15,1.78-.19,3.23.94,4.14a2.09,2.09,0,0,0,1-1.57c.38-2.05-.36-5.08-.41-7.27A8.33,8.33,0,0,1,22,15.46a5,5,0,0,1,.68-.63l.74-.56c-.23-.09-.64-.13-.92-.23a2.66,2.66,0,0,1,.17-5c-.21,1.65-.07,2.94,1.23,4.06a4.66,4.66,0,0,0,4,1.21A10.75,10.75,0,0,0,28,17.23c.46,1.8,1.79,2.41,2.77,3.78a3.73,3.73,0,0,1,.57,2.71l0,0,.26-.8c.7-3.34-1.93-3.89-2.12-5.67a15.69,15.69,0,0,1,3.43,1.24,6.17,6.17,0,0,1,2.43,2.15c-.2-.06-.53-.32-.8-.45a7.17,7.17,0,0,0-1-.4,6,6,0,0,0-2.28-.32c.05.19,2.42,2,2.75,2.28a9.67,9.67,0,0,1,2.31,2.76L32.27,23a25.89,25.89,0,0,1,3.26,3.13c.77.95,2,2.8,1.86,4.56a8.36,8.36,0,0,0-.94-1.48,8.2,8.2,0,0,0-4.83-2.58,13.06,13.06,0,0,1,3.92,2.77c1.27,1.5,1.63,2.56,1.7,5.06A10.42,10.42,0,0,0,38,32.2a7.72,7.72,0,0,0,.15-2.8c-.32-2.2-1.33-2.84-2.11-4.06a6.65,6.65,0,0,1,2.78,3.45c.19.48.31,1.24.47,1.6a10.7,10.7,0,0,0-2.63-7.16,9.44,9.44,0,0,0-3.2-2.7c1.55,0,4,2.82,4.77,4,.42.62.68,1.16,1.06,1.84a7.85,7.85,0,0,0-2.22-5.45c-1.46-1.51-2-1.64-1.88-4.22.23-4.81,1-7.39-1.24-12a21.62,21.62,0,0,0-2.41-3.61c-.15-.2-.27-.29-.43-.48s-.44-.71-1.06-.6a3.56,3.56,0,0,0-1.6,1c-.44.39-.88,1-1.27,1.35l-.79.91c-.18.2-.21.27-.38.47l-2,2.4A11.07,11.07,0,0,1,22.34,8,8.55,8.55,0,0,1,21,8.29c-.25.08-1.23.49-1.28.49s-1-.39-1.24-.46c-1.06-.32-1.08,0-1.88-.73a30.37,30.37,0,0,1-2.81-3.28,20.25,20.25,0,0,0-1.6-1.87A5.58,5.58,0,0,1,11.77,2L10.43.7c-1.18-1-1.54-.84-2.2-.1a16.25,16.25,0,0,0-4.38,9.49c-.3,3.35.94,7.68-.29,9.47a6.86,6.86,0,0,1-.83.87,10.52,10.52,0,0,0-.85.92,7.76,7.76,0,0,0-1.86,5Z"/><path class="cls-2" d="M5.18,12.77A6.55,6.55,0,0,0,6,16.62a5.66,5.66,0,0,0,2.11-1c1.85-1.47-1.44-3.7-1.43-6.9V8.58A8.24,8.24,0,0,1,8.86,3.76l0,0a8.24,8.24,0,0,1-.47.94,10.59,10.59,0,0,0-.42,1,6.72,6.72,0,0,0-.45,2.52c0,5,6.83,6.76,8.1,2.66a4,4,0,0,0,.17-1.93c-.34.9-.27,1.38-.93,2.09a2.27,2.27,0,0,1-2.27.68c1.11-.33,2-.74,2.19-1.88.31-1.55-.75-3.4-1.55-4.56l-.91-1.19c-.58-.64-2.48-2.87-3.58-2.26a3.69,3.69,0,0,0-1,1.11,22.51,22.51,0,0,0-2.61,9.86Z"/><path class="cls-2" d="M26.64,11.72A2.33,2.33,0,0,1,24.43,11a4.21,4.21,0,0,1-.88-1.87A1,1,0,0,0,23.46,9c-.4,6.36,8.44,4.85,8.3-1.08a8.26,8.26,0,0,0-.94-3.41c-.16-.33-.4-.66-.52-1a8.24,8.24,0,0,1,2.31,5.09c0,3.39-3.27,5.43-1.48,7a6.47,6.47,0,0,0,2.16,1c1.73-2.75.43-8.15-.44-10.74-.43-1.29-1.18-3.21-2.21-4-1.45-1.12-4.58,3.2-5.33,4.54-1,1.71-1.59,4,.57,5a6.34,6.34,0,0,1,.76.3Z"/><path class="cls-1" d="M17.09,37.59a2.43,2.43,0,0,0,2.54,1.13c1.2,0,1.45.18,2.58-1.12A2,2,0,0,1,21.45,39a2.31,2.31,0,0,1-1.76.52,2.62,2.62,0,0,1-1.8-.49A2.2,2.2,0,0,1,17.09,37.59Zm.11-1.21c-.56-.9-.18-3.34,0-4.4a19.37,19.37,0,0,0,.65-4.19A30,30,0,0,1,16.51,33c-1,2.51-1.24,2.86-.05,5-.15.39-.49.54-.32,1.26.35,1.51,2.58,2,2.84,2.15a5.45,5.45,0,0,1-2.51-.12,5.42,5.42,0,0,1-1.76-1.06,7.75,7.75,0,0,1-1.28-1.61,10.56,10.56,0,0,1-.9-1.82c0,1.07,1.26,3.34,2.18,4.22,1.35,1.29,2.42,1.66,4.84,1.53.51,0,1.05.09,1.64,0a5.89,5.89,0,0,0,4.71-3.3A7.92,7.92,0,0,0,26.76,37l-1,1.79a8.21,8.21,0,0,1-.58.8c-.93,1.2-2.9,2.47-4.87,1.86l0,0,.12-.07.15-.05c1.7-.51,3.36-1.93,2.18-3.19.3-.83.9-1.23.76-2.53s-1.93-4.81-2.17-7.79A18.09,18.09,0,0,0,22.07,32a9,9,0,0,1,.08,4.4A11.68,11.68,0,0,1,21,36.09c-1.79-.35-2.31,0-3.78.29Z"/><path class="cls-1" d="M24.12,27.64c1.36.45,2.72,2.69,2.72,4.51a7.68,7.68,0,0,1-.59,2.72A3.53,3.53,0,0,0,27,33.52a6.34,6.34,0,0,0,.33-1.89,8.9,8.9,0,0,0-.16-2c-.1-.5-.44-1.35-.47-1.69a5.51,5.51,0,0,1,1,1.52,7.17,7.17,0,0,1-.33,5.4c-.14.34-.3.59-.41.9a6.05,6.05,0,0,0,1.5-2.24A8.83,8.83,0,0,0,29,30.32a9.57,9.57,0,0,0-.16-1.8c-.1-.58-.31-1-.42-1.53,1.83,1.39,1.29,4,1.33,5.46a15,15,0,0,0,.55-4A8.9,8.9,0,0,0,29.75,25c-.09-.2-.46-.78-.47-.82l-1,1.19a8.77,8.77,0,0,1-1.14,1A6.75,6.75,0,0,1,25,27.41l-.66.13c-.22.05.07,0-.1,0a.26.26,0,0,0-.14.07Z"/><path class="cls-1" d="M9,28.48a16.48,16.48,0,0,0,.54,4C9.57,31.08,9,28.37,10.85,27a12.58,12.58,0,0,0-.54,2.34c-.23,2.33.46,5,2.08,6.46a8.58,8.58,0,0,1-1.16-4.16,5.15,5.15,0,0,1,1.36-3.71c-.06.42-.35,1.1-.46,1.65A8.73,8.73,0,0,0,12,31.63a6.68,6.68,0,0,0,.32,1.84,4.25,4.25,0,0,0,.79,1.4,7.74,7.74,0,0,1-.59-2.72,5.2,5.2,0,0,1,2.44-4.38l.28-.22A6.66,6.66,0,0,1,11,25.36l-1-1.19C9.19,24.77,9,27.64,9,28.48Z"/><path class="cls-1" d="M21.39,20.4A2.51,2.51,0,0,1,22.51,19c1.79-1,4.33.3,2.28,3.17,1.3-.55,3-1.13,4.41-.26.59.37.6.58.89.89l.09.08a3.72,3.72,0,0,0-.93-2.14,2.3,2.3,0,0,0-2.32-.63,3.31,3.31,0,0,0-.39-2.75c-.56-.74-1.48-.79-2.64-.56,0-1.38,2.2-1.88,2.42-2a5.93,5.93,0,0,0-2.38.42c-2.91,1.19-3.32,4.7-2.55,5.2Z"/><path class="cls-1" d="M15.41,16.8c-1.12-.22-2.1-.19-2.62.53a3.42,3.42,0,0,0-.43,2.78c-2-.26-3,.88-3.23,2.78l.44-.52c1.49-1.48,3.26-.87,4.93-.2a3.62,3.62,0,0,1-.75-1.74c-.11-1.89,2.49-2.37,3.74-.81a8,8,0,0,0,.49.8c1-2.14-1-5.71-4.94-5.64.34.26,2.22.51,2.37,2Z"/><path class="cls-1" d="M32.77,33.26a11.73,11.73,0,0,0-1.17-3.4c0,.43.21,1,.29,1.47A12.83,12.83,0,0,1,32,36a1.12,1.12,0,0,1-.22-.47l-1.14-3.11c-.06.84,0,1.81,0,2.71A16.74,16.74,0,0,1,27,44.94a9.1,9.1,0,0,1-.65.73,7.45,7.45,0,0,1-.67.64,15.48,15.48,0,0,1-1.5,1.14,9.16,9.16,0,0,0,2.69-1.59,13.49,13.49,0,0,0,4.55-8.44l.16,1.93c-.14,2.3-.93,3.29-1.32,4.71a14.37,14.37,0,0,0,1.59-3,15.56,15.56,0,0,0,1-3.59,12.91,12.91,0,0,0-.08-4.25Z"/><path class="cls-1" d="M7.27,36a14.55,14.55,0,0,1-.06-3.24c.1-1,.38-1.95.5-2.9a11.63,11.63,0,0,0-1.18,3.4A14.77,14.77,0,0,0,9.07,44.05c-.12-.43-.4-1-.58-1.49a9.54,9.54,0,0,1-.63-5.21c.69,2.64.81,3.77,2.46,6.19,1,1.47,3.1,3.42,4.73,3.87a15.62,15.62,0,0,1-2.82-2.57,14.87,14.87,0,0,1-2-3.28A17,17,0,0,1,9,37.43a37.75,37.75,0,0,1-.32-5c-.06.31-.51,1.34-.66,1.77A7.54,7.54,0,0,1,7.27,36Z"/><path class="cls-1" d="M25.6,23.79c.32-.33.51.14.37.31S25.3,24.11,25.6,23.79Zm-.67.5a.68.68,0,0,0,1,.26.8.8,0,0,0,.31-.7c0-.35-.16-.39-.36-.57.62-.17,1.34,0,1.26.67a1.93,1.93,0,0,1-2.45,1.32c-.76-.39,0-1.25,0-1.31ZM23.37,27c.18-.41.16-.69.48-.92.65-.45,2.1.62,3.64-1.4a4.14,4.14,0,0,1,1.09-1.08c.86-.47,1.58.29,2.12.56a2.33,2.33,0,0,0-.36-.6,3.93,3.93,0,0,0-1.57-1.18,4.52,4.52,0,0,0-3.16-.05A3.49,3.49,0,0,0,23.37,27Z"/><path class="cls-1" d="M13.71,23.73c.19.33-.05.62-.34.4S13.2,23.58,13.71,23.73Zm.95.35c.78.82-.28,1.91-1.74,1-1.19-.77-1.1-2.12.46-1.77-.16.2-.37.26-.36.63,0,.89,1.25,1.17,1.47,0Zm-6.09.16c.48-.25,1.18-1.06,2.07-.66,1.06.48,1.52,2.38,3.48,2.44,1.23,0,1.25-.39,1.79.89L16,27a3.64,3.64,0,0,0-.24-3.07,3.72,3.72,0,0,0-2.11-1.61A4.07,4.07,0,0,0,8.57,24.24Z"/><path class="cls-1" d="M33.54,28.7a12.72,12.72,0,0,1,1,2,8.36,8.36,0,0,1,.59,2.4c-.32-.27-1.32-1.87-1.64-2.18a30.4,30.4,0,0,1,.68,3.27,12.55,12.55,0,0,1-1,6.75,23.07,23.07,0,0,1-1.46,2.5.61.61,0,0,0,.25-.18,12,12,0,0,0,2.28-3.61,11.2,11.2,0,0,0,.67-2.47,19.14,19.14,0,0,0,.1-2.92c1,1.55.35,4.2.41,5,.51-2.18,1-3.53.47-6a9,9,0,0,0-2.29-4.52Z"/><path class="cls-1" d="M4.22,33.07c.13-2.07,1.07-3.19,1.47-4.28a5.5,5.5,0,0,0-1,1.27C2.88,33.14,3,36,4,39.25L3.76,37a5.92,5.92,0,0,1,.59-2.75,12.37,12.37,0,0,0,.78,5.4,10.51,10.51,0,0,0,1.74,3c.13.17.25.27.37.41s.18.28.41.4a5.83,5.83,0,0,0-.53-.8,12.64,12.64,0,0,1-1.8-9.46c.11-.63.5-1.83.52-2.29L5.05,32a5.49,5.49,0,0,1-.83,1.09Z"/><path class="cls-1" d="M23,31.7c-.17-1-.49-1.94-.63-3-.34-2.48-.26-5.33,1.58-7.15a6.75,6.75,0,0,1,1-.8,2.61,2.61,0,0,0-1.52-.7C20,19.87,21.66,30,23,31.7Z"/><path class="cls-1" d="M14.31,20.78a5.93,5.93,0,0,1,1.81,1.79,9.37,9.37,0,0,1,.8,6.1c-.17,1.26-.51,2.21-.63,3,1.61-2.13,3.2-14-1.65-11.2l-.16.1C14.32,20.72,14.42,20.61,14.31,20.78Z"/><path class="cls-1" d="M19.24,32.28c-.73.43-1.85.62-1.61,2.77.35-1,.68-1.74,2-1.76,1.58,0,1.68,1,2.05,1.77.18-2.17-.79-2.3-1.61-2.78,0-.57.08-1.32-.37-1.64C19.18,30.8,19.22,31.69,19.24,32.28Z"/><path class="cls-1" d="M15.42,42.43c.43,1.08,2.65,2,4.33,2s3.71-.9,4.17-2a5.27,5.27,0,0,1-3.38,1.2,10.51,10.51,0,0,1-3.64-.34,4.27,4.27,0,0,1-.81-.37c-.26-.15-.46-.36-.67-.45Z"/><path class="cls-2" d="M19.63,38.72a2.43,2.43,0,0,1-2.54-1.13,2.2,2.2,0,0,0,.8,1.46,2.62,2.62,0,0,0,1.8.49A2.31,2.31,0,0,0,21.45,39a2,2,0,0,0,.76-1.42C21.08,38.9,20.83,38.71,19.63,38.72Z"/><path class="cls-2" d="M14.49,23.94c-.22,1.13-1.47.85-1.47,0,0-.37.2-.43.36-.63-1.56-.35-1.65,1-.46,1.77,1.46.95,2.52-.14,1.74-1Z"/><path class="cls-2" d="M24.72,24c0,.06-.75.92,0,1.31A1.93,1.93,0,0,0,27.18,24c.08-.7-.64-.84-1.26-.67.2.18.33.22.36.57a.8.8,0,0,1-.31.7.68.68,0,0,1-1-.26Z"/><path class="cls-2" d="M25.6,23.79c-.3.32.17.55.37.31S25.92,23.46,25.6,23.79Z"/><path class="cls-2" d="M13.71,23.73c-.51-.15-.49.29-.34.4S13.9,24.06,13.71,23.73Z"/></g></g></g></svg>