<svg xmlns="http://www.w3.org/2000/svg" viewBox="0 0 28.32 32.2"><defs><style>.cls-1{fill:#020202;}.cls-1,.cls-2,.cls-3{fill-rule:evenodd;}.cls-2{fill:#121212;}.cls-3{fill:#fdfdfd;}</style></defs><g id="Слой_2" data-name="Слой 2"><g id="Слой_1-2" data-name="Слой 1"><g id="_3015402158352" data-name=" 3015402158352"><path class="cls-1" d="M1.73,3.85a5.71,5.71,0,0,0,.09,1.26c.08-.3.06-.76.27-1.55.15-.54.76-2.41,1.58-2.08A5.29,5.29,0,0,1,4.73,2.74l1.4,1.84c.21.29,1.54,2,1.58,2.16-.29,0-.71-.18-1-.18,0,.14.87,1.12.85,2A4.8,4.8,0,0,1,6,8a6.15,6.15,0,0,1-.62-.42c-.14-.11-.42-.43-.55-.45a17,17,0,0,1-.5,4.43c-.19.86-.32,1-.5,1.7-.13.46-.61,1.44-.63,1.6.44-.15.93-1.15,1.12-1.57.6-1.33.82-3.55,2.58-4.19A2.44,2.44,0,0,1,8.2,9c0-.58-.37-1.27-.39-1.82H8.5c0-.56,0-.7.34-1a1.24,1.24,0,0,1,1-.37c-.06-.47-2.5-3-3.08-3.53l-.6-.52-.63-.49C5.34,1.09,5.14,1,4.92.81,4.39.39,3.2-.37,2.56.24s-.82,2.69-.83,3.61Z"/><path class="cls-1" d="M18.5,5.8c1,0,1.32.46,1.36,1.38h.69a5,5,0,0,1-.2.86,5.47,5.47,0,0,0-.19,1,2.55,2.55,0,0,1,1.2,0c2.12.86,2,3.29,3,5l.44.56c.09.11.09.12.22.16a4,4,0,0,0-.31-.83,18.47,18.47,0,0,1-.83-2.61c-.08-.32-.1-.63-.17-1a20.41,20.41,0,0,1-.26-3.22c-.1,0-.34.29-.55.44a4.83,4.83,0,0,1-2.1,1,4.86,4.86,0,0,1,.85-2c-.35,0-.59.13-1,.14a6.1,6.1,0,0,1,.78-1.1c.69-1,1.69-2.25,2.39-3.18.21-.28.57-.85.87-1a.59.59,0,0,1,.63.2,5.78,5.78,0,0,1,1.07,2.65,5.88,5.88,0,0,0,.12.8,8.93,8.93,0,0,0,0-2.21,11.25,11.25,0,0,0-.39-2A1.08,1.08,0,0,0,24.75.05,15.39,15.39,0,0,0,21.88,2,22.37,22.37,0,0,0,19,5.07a3.26,3.26,0,0,0-.48.73Z"/><path class="cls-1" d="M15.59,13c0-.06,0,0,0-.09l-.06-.62c-.05-1.09,0-1.33,0-2.33-.14.08-.17.22-.26.38a10.57,10.57,0,0,0-.48,1.26,6.12,6.12,0,0,0-.26.93c-.05.31-.08.75-.32.84-.22-.13-.26-.72-.3-.91l-.26-.92a7,7,0,0,0-.75-1.64c0,.52.05,1.06,0,1.62A9.73,9.73,0,0,1,12.77,13a11.57,11.57,0,0,1-1-2c-.07.07-.09,0-.08.33v.35c0,.69.09,1.2-.23.94a5.9,5.9,0,0,0-2.19-1.18c.05.13.13.14.25.22a11.61,11.61,0,0,1,1.71,1.42,5.88,5.88,0,0,1,1.37,2.22,5,5,0,0,0,0-1.17c.1,0,.05,0,.11.11a1.17,1.17,0,0,1,0,.11L13.43,16a2,2,0,0,0,.1-.63c0-.34,0-.46.09-.63a.66.66,0,0,1,.15.35l.15.73c.1.58.22.13.22.12l0,0,.11.1c.08.08,0,0,.08.08a10,10,0,0,0,.27-1.23c0-.1,0,0,0-.09s0,0,0,0,0,0,0,0c.18.25.07,1.1.19,1.33.1,0,.18-.35.22-.47s.51-1.36.59-1.46l.05.13v1c.11-.06.13-.16.16-.29a3,3,0,0,1,.46-.94,10.42,10.42,0,0,1,2.84-2.64,6.38,6.38,0,0,0-1.93.93c-.13.09-.41.36-.59.33a9.92,9.92,0,0,0,0-1.66c-.11,0-.22.36-.27.46s-.17.37-.25.52l-.25.52c-.07.14-.16.39-.29.46Z"/><path class="cls-1" d="M20.84,30.65c.13,0,0,0,.12-.08s.88-1.55,1-1.73a15.2,15.2,0,0,0,1.25-4.53,9.51,9.51,0,0,0-.06-2.69,8.34,8.34,0,0,0-.21.86l-1.33,5.16-.11.44c-.09.3-.1.3-.19.32A10,10,0,0,0,21.13,27l-.39.61c-.11.24-.19.42-.28.65a6.8,6.8,0,0,0-.24.68c0,.18-.12.56-.19.72-.08-.11-.28-1.15-.36-1.43l-.14-.45c-.08,0-.05,0-.1.1a15.49,15.49,0,0,0-.84,1.95,11.61,11.61,0,0,0-.54,2.41l.68-1A8.33,8.33,0,0,0,19.28,30s.12,0,.07.37l-.05.31a2.25,2.25,0,0,0-.06.64,13.07,13.07,0,0,0,1.35-2.31l.39-.84-.14,2.44Z"/><path class="cls-1" d="M7.73,29a11,11,0,0,0,1.38,2.34c0-.48-.16-.9-.17-1.41.11.05,0-.06.19.29.24.53.47.94.76,1.45a1.56,1.56,0,0,0,.17.25l.09.14c.07.08,0,.06.13.11a12.32,12.32,0,0,0-1.45-4.4c-.14.17-.31,1.31-.5,1.79a.21.21,0,0,1-.05-.07l-.07-.28a7.36,7.36,0,0,0-1-2.24A13.37,13.37,0,0,1,7,28.28s0,0,0,0-.07,0-.11-.19a1.72,1.72,0,0,1,0-.24c0-.12-.09-.23-.13-.39s-.14-.54-.21-.84l-1.33-5a13.69,13.69,0,0,0,0,2.73A15.53,15.53,0,0,0,6,27.83c.12.34.28.65.43,1a9.92,9.92,0,0,0,.76,1.4c.18.26.14.32.32.4,0-.69-.15-2.06-.12-2.52a7.13,7.13,0,0,1,.36.87Z"/><path class="cls-1" d="M16,24.22A1.62,1.62,0,0,0,16,22.37a2.83,2.83,0,0,0-.67-.52,4.91,4.91,0,0,0-1.12-.07,2,2,0,0,0-1.78.6,1.56,1.56,0,0,0,0,1.81c.22-.09.23-.39.74-.31a.59.59,0,0,1,.46.59c-.31,0-.61-.08-.5.27l.08.19a1.13,1.13,0,0,0,.24.3,1.15,1.15,0,0,0,2-.72l-.51,0a.65.65,0,0,1,.49-.62c.46-.07.56.31.72.36Z"/><path class="cls-1" d="M28,18.19c.44-.86-.22-2.17-.55-2.78a13.73,13.73,0,0,1-1.11-2.49,12.22,12.22,0,0,1-.55-3.05,14.17,14.17,0,0,1,.05-1.73l.22-1.54-.17.49c-.06.18-.1.39-.14.56a9.69,9.69,0,0,0-.18,1.22,10.85,10.85,0,0,0,.61,4.88c.19.56.87,1.75.89,1.86a2.8,2.8,0,0,1-.35-.25,2.6,2.6,0,0,0-1.28-.48c0,.16.72,1.73.88,2.12a32.49,32.49,0,0,1,1.11,3.33c.09.37.18.81.26,1.2a18.61,18.61,0,0,1,.14,2.81c.2-.1.36-.65.41-.91a4.09,4.09,0,0,0,0-1.26,29.37,29.37,0,0,0-.79-3.24c-.1-.41-.9-2.83-.91-3,.27.11.68.76.87,1,.32.49.42,1.19.57,1.26Z"/><path class="cls-2" d="M13.3,9c-.15-.09-.89-1.24-1.11-1.45,0,.07.2,1,.24,1.38a7.59,7.59,0,0,1,0,1.65c-.15-.07-.07,0-.2-.34a3,3,0,0,1-.15-.38l-.22-.61A.75.75,0,0,0,11.79,9a6,6,0,0,0,.27,1.27,5,5,0,0,0,.44,1.2l0-.07c.08-.3,0,.24,0-.06l.18-2.64c.12,0,.16.09.28.27.64,1,.24.33.53,1.37a11.84,11.84,0,0,0,.62,1.88c.11,0,.06,0,.11-.15s.05-.15.08-.24c.15-.44.34-1,.44-1.41.25-1.15.07-.61.49-1.36,0-.06.08-.14.12-.19s.07-.1.19-.12l.22,2.78a7.18,7.18,0,0,0,.74-2.47,8.19,8.19,0,0,0-.49,1.27c-.06.14-.07.13-.15.18a11.6,11.6,0,0,1,.2-2.9c-.16.06-.06,0-.27.27l-.45.63c-.09.12-.14.23-.27.29a19.29,19.29,0,0,1,.79-1.77,10.29,10.29,0,0,0,.61-1.63.32.32,0,0,0,0-.27,6.74,6.74,0,0,1-.37,1,2.51,2.51,0,0,1-.24.46c-.14.23-.2.35-.38.4,0-.42.17-.69.16-1.06-.12.16-.62,1.8-.78,2.24s0,1.23-.41,1.46A8,8,0,0,1,15,7.54c0-.11,0,.09,0-.06s0,0,0-.07a12.52,12.52,0,0,0-.68,1.44c0,.12,0,.12-.13.17-.22-.28-.39-1-.66-1.32-.13.2.42,1.18.34,2-.29-.14-.29-1-.41-1.42L12.65,6c-.05.12.17.82.17,1.12-.47-.18-.86-1.54-1-1.91-.19.43,1.48,3.6,1.5,3.81Z"/><path class="cls-1" d="M2.89,14.88c-.71,0-1.37.6-1.59.67A11.29,11.29,0,0,0,2.77,9a10.49,10.49,0,0,0-.44-2.23A13.71,13.71,0,0,1,2,13c-.14.4-.32.87-.5,1.28A18.68,18.68,0,0,0,.35,16.61a2.44,2.44,0,0,0-.14.75,2,2,0,0,0,0,.42l.08.28s0,0,0,0l0,0c.14-.08.12-.27.28-.62s.19-.34.31-.57a4,4,0,0,1,.56-.79c.15-.18.11-.16.26-.22A5.85,5.85,0,0,1,1.46,17L.85,19c-.08.35-.19.65-.28,1-.21.79-.76,2.45-.51,3.32.05.17.09.37.14.52.12.32.12.32.27.39a14.1,14.1,0,0,1,.19-2.74c.09-.42.17-.83.26-1.22s.2-.7.32-1.15c.24-.87,1.64-4.14,1.65-4.23Z"/><path class="cls-1" d="M12.09,26.83a9.67,9.67,0,0,0,1.2.08c.73-.09.71-.34.93-.29.06,0,.27.15.46.2a5,5,0,0,0,1.71-.06c-.06.19-.65.58-.88.72a2.41,2.41,0,0,1-1.93.34c-.36-.09-1.34-.6-1.49-1ZM9.26,22.12a2.31,2.31,0,0,0-.08,1.26,5.23,5.23,0,0,0,1.49,2.8c.63.46.64.3.94.48a2.89,2.89,0,0,0,2.63,1.62,2.65,2.65,0,0,0,2-.88c.57-.58.24-.65.64-.79a2.59,2.59,0,0,0,1.56-1.27c.4-.78,1.17-2.41.68-3.25l-.19,1a4.33,4.33,0,0,1-.32.84,4.56,4.56,0,0,1-1.46,2,1.75,1.75,0,0,1-.83.33,6.93,6.93,0,0,1-1.61.11,4.5,4.5,0,0,1-.51.08c-.2,0-.26-.07-.5-.08A10.27,10.27,0,0,1,12,26.26c-1.17-.23-1.79-1.45-2.25-2.37a6.61,6.61,0,0,1-.5-1.77Z"/><path class="cls-2" d="M16.13,4.68,16,4.49,16,4.41c-.22.12-.54,1-.77,1.06L15.28,4c-.07,0-.13.11-.16.18l-.54,1.34c-.14-.21,0-.92-.19-1-.13.27-.06,1.36-.23,1.61-.13-.24-.1-1.22-.23-1.41-.12.18-.06.48-.14.73-.15-.07,0,0-.12-.15-.23-.45-.3-1.08-.58-1.25l.06,1.41c-.18-.08-.57-1-.77-1.11-.16.08-.05.09-.19.28a1.08,1.08,0,0,1-.28-.38c-.18-.3-.15-.35-.32-.42a6.36,6.36,0,0,0,.68,1.62c.18-.16.07-.25.19-.41a3.77,3.77,0,0,1,.46.6l.37.4c.16.16.14,0,.15-.14s0-.16.08-.25a9.8,9.8,0,0,1,.32,1.18,6.83,6.83,0,0,0,.22,1.33h.23a3.94,3.94,0,0,0,.14-.67c.07-.23,0-.49.1-.76a6,6,0,0,1,.17-.64c0-.16.07-.53.22-.61v.58c.23,0,.6-.54.73-.75s.11-.21.24-.27a2,2,0,0,1,.1.29l0,.09s0,0,0,0l.14-.18c0-.1.07-.17.11-.25a7.65,7.65,0,0,0,.56-1.43c-.21.12-.52,1-.73,1.06Z"/><path class="cls-1" d="M3.47,22.26a14.07,14.07,0,0,1,0-2.27c0-.73.15-1.45.15-2.17l-.1.15A12.12,12.12,0,0,0,3,20.72a13.34,13.34,0,0,0,.17,3.08.3.3,0,0,0,0,.08l0,.06c.29-.31.34-.91.43-1,.15.21.19,2.22.58,2.78a12.64,12.64,0,0,0,.14-2.31c0-.79,0-1.61-.08-2.38-.2,0-.65,1.16-.83,1.25Z"/><path class="cls-1" d="M5,15.44c0-.23.26-.52.3-.8a3.39,3.39,0,0,0-.76.63c-.16.16-.58.53-.62.75.34,0,.6-.16.91-.14,0,.15-.72,1-.7,1.47.27,0,.59-.35.89-.39-.06.37-.78,1.48-.81,1.74.2-.05,1.48-1.51,1.6-1.56.07.15,0,.31.07.47.13-.06.07,0,.15-.16.2-.42.23-.62.53-1.17.14-.24.72-1.14.73-1.24-.34.11-1.26,1.13-1.6,1.22a9,9,0,0,1,.2-1.09,7.57,7.57,0,0,0-.89.27Z"/><path class="cls-1" d="M24.48,16A6.34,6.34,0,0,0,23,14.58c0,.25.29.49.32.82-.27,0-.61-.28-.89-.27,0,.39.29.84.28,1.21-.2,0-1.39-1.24-1.68-1.3a5.64,5.64,0,0,0,.39.62,14.06,14.06,0,0,1,1,2c.07-.07,0,0,.07-.12a.29.29,0,0,1,0-.09c0-.08,0-.17,0-.26.17,0,.62.56.81.76a11,11,0,0,0,.8.77c0-.11-.32-.68-.38-.83a4.9,4.9,0,0,1-.41-.91c.32,0,.58.32.88.37,0-.43-.68-1.31-.69-1.44s.68.13.92.13Z"/><path class="cls-1" d="M25.29,23.28a18.21,18.21,0,0,0,.05-2.56,10.18,10.18,0,0,0-.6-3c0,.26.06.78.09,1.06s0,.76.05,1.13.06,1.9,0,2.17a.22.22,0,0,1,0,.09l-.07-.06A9.36,9.36,0,0,0,24.08,21a29.1,29.1,0,0,0,0,4.67c.12-.05,0,.05.11-.12L24.65,23a.17.17,0,0,1,.06.08l.17.49.19.45c.17,0,.16-.35.22-.69Z"/><path class="cls-2" d="M20.26,18.72c.11-.14.08-.24.1-.42l.18-1.19a16.88,16.88,0,0,0,.2-1.69c-.12.06-.09,0-.14.19l-.25.69a3.72,3.72,0,0,0-.22,1c-.2-.07-.19-.45-.41-.52-.23.37-.39,1.77-.69,2-.32-.33-.49-1.06-.78-1.34a6.4,6.4,0,0,0-.46,3.3c.24-.17.34-2.1.54-2.41A12.32,12.32,0,0,1,19.22,20c.11,0,.09-.1.1-.25,0-.41.08-.63.14-1a7.59,7.59,0,0,1,.34-1.19c.11.16.32,1,.46,1.23Z"/><path class="cls-2" d="M8.18,17c0-.07,0-.17-.06-.24A2,2,0,0,0,8,16.26c-.07-.21-.23-.83-.38-.91l.33,2.58c0,.18.07.65.13.79.18-.12.33-1,.5-1.23A14,14,0,0,1,9.08,20c.12-.15.33-.61.48-.84s.32-.77.47-.83c.2.44.34,2.36.5,2.45s.06,0,.07-.18a9,9,0,0,0,0-1.65,7,7,0,0,0-.31-1.16.43.43,0,0,0-.19-.3l-.55,1c-.16.3-.13.24-.25.26L8.8,17.24a1.07,1.07,0,0,0-.2-.46c-.16.1-.21.33-.35.46-.06-.09,0-.1-.07-.27Z"/><path class="cls-2" d="M15.78,17.42c.1-.33.24-.65.36-1s.25-.68.38-1a4.39,4.39,0,0,0,.35-1c-.4.11-.84,1.35-1,1.8-.09.27-.05.21-.16.28-.07-.23,0-1.21-.21-1.28L14.92,17c0,.14-.11.46-.25.52a6.27,6.27,0,0,0-.09-1.12c-.14.13-.13.56-.16.81a16.77,16.77,0,0,0-.07,2.24c0,.44,0,.34.08.38s.12-.3.14-.39l.53-2a4,4,0,0,1,.22-.79v0l0,.48a4.75,4.75,0,0,0,.12,1.37l.31-1.08Z"/><path class="cls-2" d="M9.73,10.46a6.42,6.42,0,0,0-2.5.12A2.42,2.42,0,0,0,6.1,11a4.71,4.71,0,0,1,1.45.05,5.61,5.61,0,0,1,.62.16c.21.06.42.2.6.23-.06-.28-.38-.36-.46-.64a3.93,3.93,0,0,1,2,.58,5.28,5.28,0,0,0,.52.35,1.27,1.27,0,0,0-.25-.35,1,1,0,0,1-.26-.38c.41.08.58.5.89.62a2.61,2.61,0,0,0-1.78-2c0,.33.26.49.3.8Z"/><path class="cls-2" d="M17.11,11.67a.36.36,0,0,0,.23-.16A1.72,1.72,0,0,1,18,11c-.09.27-.38.42-.43.66a4.35,4.35,0,0,1,2.46-.88c0,.27-.37.33-.44.63.33-.06.7-.3,1.15-.37A11,11,0,0,1,22.19,11c-.05-.11-.12-.11-.23-.15l-.27-.11a6.2,6.2,0,0,0-3.07-.27c0-.32.23-.4.28-.78a2.6,2.6,0,0,0-1.79,2Z"/><path class="cls-2" d="M12.53,16.37c-.15-.26-.52-1.82-1-2,0,.26.57,1.51.73,2l.68,2A9.58,9.58,0,0,0,13,16.59a2.11,2.11,0,0,1,.26.78c.07.31.12.55.21.84l.32,1.27c.08.36,0,.3.14.35a.26.26,0,0,0,.06-.16,15.14,15.14,0,0,0-.15-3l-.08-.15c-.09.27,0,.71-.1,1-.19-.15-.66-2-.85-2.31a4,4,0,0,0-.16,1.27c-.15-.05,0,.05-.12-.11Z"/><path class="cls-3" d="M12.09,26.83c.15.39,1.13.9,1.49,1a2.41,2.41,0,0,0,1.93-.34c.23-.14.82-.53.88-.72a5,5,0,0,1-1.71.06c-.19-.05-.4-.19-.46-.2-.22-.05-.2.2-.93.29a9.67,9.67,0,0,1-1.2-.08Z"/><path class="cls-1" d="M22,13.44c0-.17,0-.11-.17-.22a2.64,2.64,0,0,0-.67-.34c-.72-.21.35-.17.47-.19l.09,0c-.07-.11,0-.08-.2-.13l-.67-.15a3.63,3.63,0,0,0-1.93.16l-.59.25c-.13.07-.1,0-.14.14a14.32,14.32,0,0,1,1.47.35l.32.13c.16.06.19.1.32.15.3.13.46.27.6.3,0-.22-.19-.28-.24-.51a6.17,6.17,0,0,1,.62.09c.24,0,.48,0,.72,0Z"/><path class="cls-1" d="M7.45,12.71c0,.08-.61.3-.9.48s-.21.13-.24.24a3.42,3.42,0,0,0,.72,0l.64-.1c0,.21-.18.29-.24.5A11,11,0,0,1,9.49,13v0a1.68,1.68,0,0,0,.6-.11l-.2-.17a5.7,5.7,0,0,0-.69-.24,3,3,0,0,0-1.06-.16c-.26,0-1.35.06-1.53.34l.84.06Z"/><path class="cls-2" d="M21.07,19.17a1.3,1.3,0,0,1,.27.62c0,.13.08.24.11.36l.11.28a.1.1,0,0,1,0,0,6.58,6.58,0,0,0,.09-3.38l-.22-.7c-.05-.13,0-.14-.14-.18l0,1.86c-.12-.28-.12-.89-.3-1l-.13,2.63c.07-.07.07-.07.1-.23l.06-.25Z"/><path class="cls-2" d="M7,18.07c-.07-.08,0,.06-.06-.13v-.11c0-.46.11-1.21.09-1.63,0,0,0,0-.12.19a5.83,5.83,0,0,0-.36,1.82,6.81,6.81,0,0,0,.22,2.19s0,0,0,0,0,0,0,0c.16-.33.28-1,.46-1.32,0,.05,0,0,.08.19s0,.09,0,.2l-.05-2.3c0-.1,0-.06-.08-.11-.09.26-.13.7-.24.95Z"/><path class="cls-2" d="M6.05,12.93c.07-.15,0-.16.22-.3a3.2,3.2,0,0,1,1.18-.54c-.08-.27-.25-.12-.36-.37a13.46,13.46,0,0,1,2.38.49c-.07-.18-.09-.14-.36-.27a4.86,4.86,0,0,0-1.25-.43,4.91,4.91,0,0,0-2,.1s0,.11.38.17a1.4,1.4,0,0,1,.46.1c0,.16-.09.16-.21.25l-.26.2c-.48.34-1.45.76-1.48,1.22A5.63,5.63,0,0,0,6,13Z"/><path class="cls-2" d="M16.76,5.92l.45-1,0,0s0,0,0,.29V6.36c.28,0,.13-.21.38-.28a4.23,4.23,0,0,0,.05.89c.21-.06.39-.39.6-.41l-.22,1.56c.28-.06.06,0,.32-.25A8.16,8.16,0,0,1,19.12,7v.46c.28-.12.28-.8.27-1-.18,0-.17.06-.28.19a3.28,3.28,0,0,1-.66.64,6.44,6.44,0,0,0,0-1.17c-.22.08-.3.33-.51.35l-.19-1.29c-.11,0-.1.16-.14.29a.94.94,0,0,1-.14.32l0-.09c-.06-.25.06-1.09,0-1.3-.21,0-.62,1.23-.61,1.53Z"/><path class="cls-2" d="M18.57,12.37a2.39,2.39,0,0,0,.62-.21,7.32,7.32,0,0,1,2.13-.45c-.1.21-.42.14-.43.4a2.75,2.75,0,0,1,.78.25c1,.57.4.5.84.71a6.93,6.93,0,0,0,1.13.48c0-.46-.64-.62-1-.85a7.33,7.33,0,0,1-1-.78c.16-.23.5-.11.72-.27,0,0,0,0-.09-.06a4.58,4.58,0,0,0-2.05,0,3.53,3.53,0,0,0-1.66.77Z"/><path class="cls-2" d="M10.92,5.75c-.08,0-.05,0-.09-.11s0-.1-.05-.15a.46.46,0,0,0,0-.14l-.08-.12,0,.09v0l-.08.51c0,.25,0,.47-.12.63-.19-.08-.26-.32-.5-.37V7.31a3.91,3.91,0,0,1-.44-.46c-.1-.09-.38-.43-.51-.45,0,.33.05,1,.27,1.12V7.08c.28,0,.69.91,1.06,1.07l-.22-1.59c.26,0,.4.37.61.41l0-.91c.21.06.15.23.37.3a10.15,10.15,0,0,1,0-1.5,4.43,4.43,0,0,1,.23.53l.23.53A2.64,2.64,0,0,0,11,4.42c-.14.28.06,1.08-.07,1.33Z"/><path class="cls-2" d="M5.63,14c0-.25.5-.68.52-.87-.11,0-1.3,1.07-1.51,1.23a1.51,1.51,0,0,0-.5.47,14.12,14.12,0,0,0,1.48-.52,1.33,1.33,0,0,1,.51-.16c0,.34-.26.41-.31.66.31,0,.5-.18.84-.22,0,.36-.2.44-.23.77.15-.07.39-.38.68-.54.11-.06.24-.14.38-.2s.31-.07.36-.17c-.56,0-.59.21-1,.25L7,14.15c-.22.07-.31.29-.6.33,0-.32.27-.39.33-.69-.38,0-.55.28-1,.25Z"/><path class="cls-2" d="M23.71,14.38c-.25-.2-1.36-1.14-1.48-1.18.06.28.48.62.49.87-.42,0-.71-.25-1-.27,0,.27.29.4.33.68-.31,0-.39-.28-.63-.33a4.08,4.08,0,0,1,.12.59c-.26,0-.72-.36-1-.24l.4.16a2.51,2.51,0,0,1,.71.45,1,1,0,0,0,.32.26c0-.32-.23-.47-.24-.79l.82.24c0-.29-.26-.36-.27-.65.28,0,1.53.65,2,.7,0-.18-.09-.18-.22-.28l-.25-.21Z"/><path class="cls-2" d="M12.46,21.22c.1,0,.06,0,.12-.15a12.93,12.93,0,0,0,.61-2.8,4.42,4.42,0,0,0-.23.44c0,.08-.07.16-.12.24s-.05.13-.19.17a4.49,4.49,0,0,0-.11-.94c-.12.2-.07.63-.13.87a6,6,0,0,0-.18.82c-.1.59-.45,1.27-.46,1.5.21-.14.48-.66.65-.77l0,.62Z"/><path class="cls-2" d="M15.86,18.56c0-.11-.06-.08-.06-.11l0,0a4.72,4.72,0,0,1-.1.81c-.12-.14-.36-.8-.47-.87s0,0,0,.08a8.11,8.11,0,0,0,.24,1.42c.07.34.21.68.3,1s.09.24.17.3v-.58c.22.06.45.62.69.76,0-.14-.36-1.18-.43-1.42s-.25-1.33-.27-1.36Z"/><path class="cls-2" d="M17.64,9.87a8.77,8.77,0,0,1,.91-.47,2.45,2.45,0,0,1,1.29-.07c0,.15,0,.07-.15.16s-.47.28-.49.44a7.91,7.91,0,0,1,2.28.18,4,4,0,0,0,.56.11c-.28-.42-1.61-.56-2.12-.59,0-.22.14-.12.2-.34a1.65,1.65,0,0,0-1.93-.07c-.16.1-.51.4-.55.65Z"/><path class="cls-2" d="M8.23,9.29c.06.23.22.19.23.36a4.49,4.49,0,0,0-1.2.14c-.33.1-.79.2-.94.43.34,0,.84-.21,1.28-.26s1,0,1.51,0c0-.18-.13-.19-.28-.32s-.27-.1-.31-.27a2.45,2.45,0,0,1,1.26.06,6,6,0,0,1,.91.48A1.55,1.55,0,0,0,8.87,9,1.15,1.15,0,0,0,8.23,9.29Z"/><path class="cls-2" d="M18.18,14.75c.1.06,0,0,.07.06l.11.12a.39.39,0,0,0,.28,0c.2-.35,0-.33.11-.47a.43.43,0,0,1,.35,0c.44.74-.74,1.44-1.25.77a.59.59,0,0,1,.33-.45Zm-.67,1.32c.11,0,.15-.11.26-.19.54-.37,1.13,0,1.68-.84l.19-.3c.14-.2.09-.13.29-.2-.15-.45-1.45-.23-1.74,0a1.88,1.88,0,0,0-.68,1.55Z"/><path class="cls-2" d="M9.68,14.46c0,.22-.06.21,0,.42s.09.07.31,0c.06-.09.06-.16.14-.23a.84.84,0,0,1,.38.5.77.77,0,0,1-1.31-.75A.69.69,0,0,1,9.68,14.46Zm-1.16.08c.61.58.31,1,1.58,1.19.5.09.48.23.72.3a1.61,1.61,0,0,0-2.36-1.56Z"/><path class="cls-2" d="M16.2,9.27c.09,0,0,0,.12-.1l.22-.43a9,9,0,0,0,.72-2c-.23.14-.18.38-.42.49,0-.56.25-1.23.25-1.53A9.1,9.1,0,0,0,16.2,9.27Z"/><path class="cls-2" d="M11.34,10.55l0-.42c.2.08.2.34.42.58.13-.23-1-3.44-1.49-3.68a4.18,4.18,0,0,0,.34.79c.16.3,0,.22,0,.46l.38,1.34c.05.16.21.83.26.93Z"/><path class="cls-2" d="M11.5,7.4c-.16-.12-.1-.39-.37-.52a10.64,10.64,0,0,0,1,2.44,8.29,8.29,0,0,0-.47-2.69L11.43,6c-.06-.15,0-.08-.14-.16,0,.23.16.79.21,1.11a1.66,1.66,0,0,1,0,.22l0,.19Z"/><path class="cls-2" d="M8.6,15.63c-.11.08-.12.23-.23.33-.18-.09-.32-.83-.47-.91a4.74,4.74,0,0,0,.39,1.77l0-.09v0c0-.15.12-.53.3-.6a9.33,9.33,0,0,1,.38,1,9,9,0,0,0,.35,1c.14-.05.14-.18.22-.43a1.54,1.54,0,0,0,.13-.49c-.13.1-.13.19-.26.2s0,0-.08,0l-.66-1.53c-.06-.16,0-.14-.12-.19Z"/><path class="cls-2" d="M12.75,21.36c.21,0,.29-.06.52-.05s.32.08.48.08a7.86,7.86,0,0,0-.4-2.24l-.21,1.2a4.75,4.75,0,0,1-.2.54,3.31,3.31,0,0,0-.19.47Z"/><path class="cls-2" d="M9.71,8.36c-.15,0-.16-.09-.3-.16s-.78-.41-1-.3a5.78,5.78,0,0,0,.88.74.52.52,0,0,1,.45,0,5.34,5.34,0,0,1,1,.73A5.21,5.21,0,0,0,9.45,7.6c0,.29.23.5.26.76Z"/><path class="cls-2" d="M20.09,16.76a5.48,5.48,0,0,0,.37-1.65c-.23.07-.29.76-.47.85-.16-.07-.08-.29-.31-.32A17.23,17.23,0,0,1,19,17.43c-.21,0-.14-.17-.34-.26l.3.95c.11,0,.1-.1.14-.24l.27-.76c.09-.22.23-.89.46-1a3.51,3.51,0,0,0,.31.62Z"/><path class="cls-2" d="M16.57,10.55c.26-.12.2-.34.37-.44a.91.91,0,0,1,0,.35l.1-.15.05-.17L17.44,9a4.62,4.62,0,0,0,.19-.78c0-.19-.08-.13.05-.34a1.09,1.09,0,0,0,.13-.42c-.13,0-.07-.06-.25.3a9.35,9.35,0,0,0-.5,1.11c-.1.29-.17.53-.26.8a4.48,4.48,0,0,0-.23.89Z"/><path class="cls-2" d="M17.59,9.41c.13,0,.37-.31.68-.52.14-.09.28-.15.41-.22l.2-.09c.23,0,0,.29.66-.28.15-.14.35-.23.41-.4a2.91,2.91,0,0,0-1.33.48c0-.24.23-.47.26-.76-.14.06-.28.26-.38.37a7.47,7.47,0,0,0-.91,1.42Z"/><path class="cls-1" d="M14.61,21.35c.21,0,.31-.06.52-.06a2.88,2.88,0,0,1,.45.08,1.65,1.65,0,0,0-.2-.52,6.53,6.53,0,0,1-.32-1.09c-.05-.18,0-.47-.09-.61a9.2,9.2,0,0,0-.36,2.2Z"/><path class="cls-3" d="M10.52,15.2a.84.84,0,0,0-.38-.5c-.08.07-.08.14-.14.23-.22,0-.16,0-.31,0s0-.2,0-.42a.69.69,0,0,0-.47,0A.77.77,0,0,0,10.52,15.2Z"/><path class="cls-3" d="M18.64,14.94a.39.39,0,0,1-.28,0l-.11-.12c-.07-.07,0,0-.07-.06a.59.59,0,0,0-.33.45c.51.67,1.69,0,1.25-.77a.43.43,0,0,0-.35,0c-.15.14.09.12-.11.47Z"/><path class="cls-2" d="M17.74,13.2c0-.16.23-.27.29-.49a2,2,0,0,0-.73.53c-.17.16-.51.45-.57.7.22,0,.26-.14.46-.18l0,.37c.16-.06.12-.08.29-.27a3.63,3.63,0,0,1,.28-.27c.43-.4.49-.26.59-.5-.37,0-.33.06-.58.11Z"/><path class="cls-2" d="M10.39,12.78c.15.33.14.18.18.37a3.1,3.1,0,0,0-.56-.06c.05.1,0,.08.18.17.76.46.7.73,1,.9l0-.42c.22,0,.32.22.53.27C11.62,13.77,10.76,12.83,10.39,12.78Z"/></g></g></g></svg>