<svg xmlns="http://www.w3.org/2000/svg" viewBox="0 0 40.71 37.63"><defs><style>.cls-1{fill:#cbccce;}.cls-1,.cls-2,.cls-3,.cls-4,.cls-5{fill-rule:evenodd;}.cls-2{fill:#030305;}.cls-3{fill:#6b6c6e;}.cls-4{fill:#2a2a2d;}.cls-5{fill:#4d4d4e;}</style></defs><g id="Слой_2" data-name="Слой 2"><g id="Слой_1-2" data-name="Слой 1"><g id="_3015349868704" data-name=" 3015349868704"><path class="cls-1" d="M34.18,30.86c.6.16.8.73,1.2,1.23a2.14,2.14,0,0,1,.69,1.79l-.35-.42c0,.82.37,1.67-.16,2.52-1.48,0-3-3.81-3.12-5.84.6.09.7.29.78.86l.26.14h.07a2.62,2.62,0,0,1-.28-.5c.66.14.73.07.91.21Zm-2.45-.05c.41.08.42.13.56.53C31.87,31.18,31.91,31.24,31.73,30.81Zm-2-.16c.4.9.11,1.16.34,2.69-.2-.14-.17,0-.4-.47-.07-.15-.14-.35-.21-.52a3.61,3.61,0,0,1-.43-1.2c.42.2.24.05.48.61a2.74,2.74,0,0,0-.18-.4c-.14-.77,0-.24.18-.44l.25.61c-.06-.27-.12-.3-.15-.44C29.51,30.62,29.37,30.8,29.72,30.65Zm7.35-2a25.3,25.3,0,0,1,1.86,2.1,6.11,6.11,0,0,1-1.86-1.28Zm-8.52-.74c.16.27.1.08.11.52,0,0,0-.11,0-.1l.08-.19,0-.1a1.73,1.73,0,0,1,.11-.38c.29.17.08,0,.39.47s.21.17.53.51c-.35,3.46-2.08,2.48-2.44.33-.23-1.4.19-.88,1.15-1.06Zm-3.72.34c.16.16.05-.11.23.32.29.68,0,.71-.07.74-.23-.39-.16-.58-.16-1.06Zm5.52.29c.6.05.35.09.61.79.1.25.27.5.36.72-.12-.8-.74-1.27-.23-2.08.25.05.19.1.49.35a1.91,1.91,0,0,1,.36,2.13C30.75,30.75,29.81,29,30.35,28.5Zm3,.74a4.62,4.62,0,0,0,.56.78A5.44,5.44,0,0,1,33,27.75l1.14.59a2.31,2.31,0,0,1,.08,1.94c-.11.1.19.2-.43.13a2.51,2.51,0,0,1-1.44-2l.42-.25.23.31.12.26a4.22,4.22,0,0,0,.25.48Zm3.09-1.77c.21.83.79,2.72-.82,2.06s-.89-1.71-.85-2.19c.44.45.76,1.05,1.17,1.47l-.6-.94.57-.15A2.6,2.6,0,0,0,36.42,27.47Zm-6.15-2.76c.33.27.32,1.41.47,1.95s.23,1.54-.59,1.55c-1.07,0-.92-2-.82-2.77.06-.48,0-.61.33-.74.49.23.1,1.19.36,1.81,0-.36,0-.76,0-1.11,0-.59-.07-.47.25-.69Zm-4.14,3.74c.17-.57.23-1.45.7-1.76.3.78.48.9.1,1.64-.29.54-.52,1-1.08,1.18-.75-.53-.52-1.93-.46-2.76l1,.09Zm5.69-1.15c-.06-.51-.43-1.5.05-1.58s.32.2.65,1.14a1.06,1.06,0,0,1-.16,1.22c-.86.12-1.05-.57-1.26-1.3a9.38,9.38,0,0,1-.34-2.25C31.45,24.89,31.38,26.5,31.82,27.3Zm-8.57.58A2.84,2.84,0,0,1,24,24.82l.49.71c-.19.63-.71,1-.83,1.77,0-.13.63-1.4,1.18-1.56.49.67.24.9-.25,1.39s-.58.81-1.37.75Zm.38-3.45a1.9,1.9,0,0,1-.75,1.2c-.26.15-1.31.43-1.59.16-.11-.1-.15.21-.09-.33.14-1.1,1.42-1.23,2.09-1.32-.18.35,0,.12-.3.38l-1,.72c.65-.19,1-.79,1.66-.81ZM28,26.23a14.58,14.58,0,0,1,.35-1.62c.26-1,.22-1.17.7-1.25A6.39,6.39,0,0,1,29,25.9c-.06,1.09,0,1.85-1.28,1.69-.67-.7-.61-1.19-.35-2.28.1-.42.22-.74.35-1.14.18-.55.12-.67.62-.79.12.19.17.19.05.71-.06.29-.12.38-.19.68A5.9,5.9,0,0,0,28,26.23Zm-9.08-2c.16-.43.09-.39.57-.56C19.44,24.19,19.48,24.11,18.91,24.22Zm8.66-1A13.83,13.83,0,0,1,27,25.47c-.1.5,0,.7-.41.92-.89.53-1.91-.33-.8-2.29.32-.56.76-1.25,1.31-1.43,0,.8-1,1.35-1.07,2.57a6.19,6.19,0,0,1,.54-1.2c.56-1,.55-.89,1-.82Zm-7.9.22c.26-.51.93-.65,1.53-.83A3.37,3.37,0,0,1,23,22.34c.11.73-.17.74-.79.93a5.37,5.37,0,0,1-1.36.23A5.72,5.72,0,0,0,23,23.17l.07.52C22.35,24.48,20.15,24.25,19.67,23.44Zm5.2,1.91c-1.67-1.25.7-3.49,1.77-3.54l-.48.59A5.17,5.17,0,0,0,24.93,24a4,4,0,0,1,.88-1.07A2.35,2.35,0,0,1,27,22.06a15.88,15.88,0,0,1-1.22,1.51A3.19,3.19,0,0,0,25.05,25c-.11.34,0,.17-.18.35Zm-5.29-2.51c-.28.44-.27,1.06-.84,1.35l-.6.08a5.47,5.47,0,0,1-.89,0l-.12.09-.5-.08c-2.08.4-9.38-.47-9.52-3.32,1.86,0,4.64.66,6.6.85,1.78.17,5.29-.19,6.46.83Zm4.3,1.43c-1.54-1.37.42-3,1.62-3.28-.13.72.09,0-.85.89a3.17,3.17,0,0,0-.72.92c.56-.44.88-1.39,1.95-1.35-.17.59-.55.49-1.23,1.28a3,3,0,0,0-.51.75l-.26.79Zm-5.53-3.18c.76-.31,3.37-1.32,4.38-1,0,.67.07.09-.12.46l-.22.43a2.83,2.83,0,0,0,.13.93C21.38,22.05,18.79,22.07,18.35,21.09Zm4.92,1c-2-1.05,1.54-2.71,2.28-2.31l-2.31,1.38c.6-.07,1.54-1.12,2.18-.77-.19.48-.74.58-1.17.86a11.35,11.35,0,0,0-1,.84Zm-.17-2c-.6-1.1.85-1.76,1.77-1.86-.13,1-.9.48-1.41,1.31a2.42,2.42,0,0,1,1.47-.6l.19.44a12.86,12.86,0,0,0-2,.71ZM18.28,18.4c.79-.61,3.17-.56,4.25-.47a4.48,4.48,0,0,0,.35.37c.27.29.11,0,.28.34a8.33,8.33,0,0,0-2.6.1l2.26,0-.29.94c-1.3.29-4.15-.14-4.25-1.32Zm1,1.59c.42.51-.45.42-.91.76s-.22.26-.51.49c-.61.49-.64.35-1.21.14-.13.17-1,.12-1.36.14a3.93,3.93,0,0,1-1.84-.22c-1.46.08-5.25-.76-6.06-1.6l.7-.19C7.29,19,5,18.37,4.51,16.62c3.5,0,6.27,1.75,11.54,2.24,2.26.2,1.05-.34,3.23,1.13Zm6.1-2.72c-.12.65-.44.53-1.11.77-2,.73-1.7-1.19-.07-1.55.51-.11.28-.13.52.19-.08.39,0,.12-1.15.8.63-.23,1-.55,1.81-.21Zm-2.92-.93h-3l3.52.28-.6.93c-1.64.15-4.53-.19-4.95-1.59-.18-.6.46-.53,1-.54l3,.2C22.24,15.71,22.22,15.72,22.46,16.34Zm1.87-.28c-.73.52-2.31.13-1.66-.95a4.11,4.11,0,0,1,2-1.33l.28.61a3,3,0,0,0-1.62,1,4,4,0,0,1,1.78-.91l-.75,1.53Zm-2.17-.71c-4.63.19-7.59-2.62-4.9-3,.51-.07,3.34.77,4.9,1,.31.52.12.58.66,1Zm-5.81-3.29c-.1.55.06-.05-.28.54l0,.08c-.17.3,0,.2-.26.56l-3.68-.88a3.39,3.39,0,0,1-1.22-.46C9.31,12.07,2,7.45,1.44,5c1.81.19,2.71,1.08,4,1.83a36.42,36.42,0,0,0,7.7,3.61c1.13.36,2.79.6,3.87,1.72l-.62-.06ZM3.88,9.13a4.66,4.66,0,0,0,1.62.75c2,.79,2,1.31,4.71,2.3a45.87,45.87,0,0,0,5.61,1.4c.62.19.63.77,1.3.91l.41.31-.31.5a2.86,2.86,0,0,0-.34.76l-1.72-.35c-.52-.06-1.08-.2-1.57-.3l-.31-.07-.39-.08-1.8-.44s-.17,0-.2-.07-.07,0-.11,0a23.94,23.94,0,0,1-6.6-2.65c.91.07.25,0,.45-.17-1.21-.8-3.15-1.71-3.29-3.36L2,8.6c-.16-.14.3-.23-.48-.2-1.15,0,.39,1.86.75,2.24l.89.69c.85.52.32.47.81.93s.45,0,.4.76c-.62,0-.48-.13-1,0a2.42,2.42,0,0,0,1,.29C7.84,13.87,10,15.18,15,16.1c.38.08,1.79.25,2.07.38s.84.85,1.23.94c-.1.45-.12.07.19.41l.22.16c-1.1.1-.23.51-1.31.57.06-.18.08-.55.63-.57-.73.63-.78.53-2,.44l-.41,0-.37,0c-.21,0-.27,0-.45-.07l-.83-.11-.1,0-1.54-.35a24.3,24.3,0,0,1-5.5-1.61C5.5,15.61,3.06,14.09,2.91,13c-.41.27,0,.64.22.9,1.48,1.67,2.38,1.64,2.81,2.47a2.46,2.46,0,0,1-1.63.23c.05,1.39,1.52,2.06,2.22,2.47,1,.61-.07.46.83,1.16.27.22.44.25.59.56a1.67,1.67,0,0,0-1,.17c-.19,1,1.13,1.94,1.88,2.37a10.55,10.55,0,0,0,3.61,1.08,4.69,4.69,0,0,0-.82.66c.78-.06,1.5-.29,2.21-.33s1.68,0,2.46.06c1.55,0,3.09-.17,4.58-.18.27.16.28-.18.18.55-.08.53-.55.68-1,.88a3.92,3.92,0,0,1-1.93.61c-.57.67-3.72.72-4.79.7l.26-.35c.36-.44,0,.14.13-.14a6.57,6.57,0,0,1-2.79,0c-.81-.21-1.82-.62-1.42-1.49-1.39,1.56,2.58,1.83,2.9,1.92a3.35,3.35,0,0,0,2.31.36c.88-.07,1.86-.46,2.62-.2l-.18.76a2.52,2.52,0,0,0,.86-.69,6.07,6.07,0,0,1,3.16-1.36,2.36,2.36,0,0,1,.54.12l.41.23c.11-.16-.22-.26.45,0a3,3,0,0,1,.2,1.35c-.47.46-.84.84-1.25,1.31l-.76.66s-.08.08-.1.05-.07,0-.1.06c-.36.35-.63.26-1,.75.63-.2.23-.23.88-.13a1.51,1.51,0,0,1-.06.92s.06-.1.07-.08l.25-.31A8.64,8.64,0,0,1,22.9,28.1l.77.2c.32-.29.08,0,1-.43a3.38,3.38,0,0,1,.21,1.58l-.66,1.07-.06.07-.05.07a2.31,2.31,0,0,1-.5,1.07c-.28.3-.46.3-.81.69l-.13.17c1.2-.24.67.82.57,1.66a6.65,6.65,0,0,0,.07,2.67c.56.07.62-.14,1-.47l-.75.19c-.65-2.31.54-5.66,1.73-7.06.22.08.15,0,.28.15,1.23.21.63-.16,1.29-.4.34-.13.67.19.69.63s0,.21-.17.56l-.4,1.19c-.11.36,0,.29-.17.49.05,1.63-.39,1.79-.83,2.94,0,0,.08-.09.1-.06l.47-.26c.11.21.84,4.22,1.82,2.27l-.65.17c-1.22-2.15-.68-5.81,0-6.65l.66.55c-.46,2.47-.58,1.69-.61,4.76a21.76,21.76,0,0,1,.55-4l.28-.5.11-.14c.29.11.17,0,.34.29l.68,1.54c.53,1.19.29,1.11.05,2.36,0,0,.07-.12.09-.09l.14-.2c.1-.27.06,0,.05-.44,1,.69.72,2.37,2.09,2.76a1.75,1.75,0,0,0,.9-1.42l-.3.49a1.62,1.62,0,0,1-.36.47c-1.69-.15-2.46-4.62-2-6.6.4,0,.43,0,.62.31.8.06.64,0,1.08.45s.51.38.29,1A4.15,4.15,0,0,1,33.12,35l.74-.09a4.67,4.67,0,0,0,1.65,1.57c.42-.42.41-.56.45-1.28a3.53,3.53,0,0,1,.33-1.5c1.3-.35.82,1,2.15.71a1.11,1.11,0,0,0,.28-1c-.1-.37,0-.18-.24-.41V34c-1.13.67-3.17-2.61-3.78-3.45-.2-.37-.08-.59,0-1,.25.12.29.08.55.19,1.28.53.66,0,1.61.17a.52.52,0,0,1,.35.17c.88.43,1,.58,1.26,1.63H38l.28.37c.46-.13,0,0,.56-.89.42.05,2.2,1.11,1.77.11-.15-.35,0-.11-.28-.32,0,.49.18.18-.14.39-.63-.22-2.42-1.72-2.47-2.45,0-.26-.17.05,0-.4l1.24,0-.09-.46A2.49,2.49,0,0,1,37.3,28c-.6-.2-.67-.62-.78-1.27.69.11.66.13,1,.52a7.62,7.62,0,0,0,.65.58c-.29-.53-1.4-1.07-.07-1.29l-.52-.65a.35.35,0,0,0,0-.08c.14,1.47-1.27.25-1.59.06.05.54.51.76-.06,1.54-1.06.17-.8-.64-1.54-.71l-.07,1.18c-1,.18-1.47-.76-1.66-1.52s-.08-.33,0-.65l.09-.22c.53-.39.69,1.33,2,.7.68-.33.24-.45.72-1,.64,0,.54.26,1.12.23.74,0,.3-.35.9-.1-.16-.35.08-.19-.36-.44-1.15.49-1.24-.2-2.22-.76.1.53.38.38.08,1.17a1,1,0,0,1-.74.69c-.93-.25-.83-1.44-1.39-2.13L32.75,25c-.48.32-.4.45-1.11.41-.65-.76-.22-1.45-.51-2.11-.24.45,0,.63-.45,1a1.21,1.21,0,0,1-1.12.08,5,5,0,0,1,0-2.11l-.19.21-.06.07a1.18,1.18,0,0,1-.7.52c-2.05.58-.85-1.92-.78-2.27-.56.3-.27.62-.89.75-1.1.21-1.91-1.31-.35-1.82.33-.11.06,0,.28-.11s.13-.06.26-.17c-1,0-1.86.19-1.93-1,.34-.67.55-.52,1.12-1C25.79,17,25,17,24.86,16.17a1.36,1.36,0,0,1,.25-1.08c.31-.34.46-.22,1-.23a.84.84,0,0,0-.21-.21,3,3,0,0,1-1.36-2c-.11-.8-.06-.83.55-.73-.22-.49.12-.07-.27-.2-.79-.27.1.11-.75,0l-.39-.09.51.36a3.22,3.22,0,0,0,.24,1.44c-.64.54-1.7,1.27-1.8,0l.71-.2c-.11,0-8.16-1-7.95-3a21.81,21.81,0,0,1,4.2.15s-.07-.08-.09-.06l-.17-.1c-.63-.33-.87-.55-1.3-.58-.3.37-.53.26-1.29.22-.45,0-.9,0-1.34,0s-.26-.34-.4.38c-.07.31,0,.35.11.54L12,9.67l-.46-.19L10.42,9l-.09,0L9.15,8.46c-.24,0-.2.08-.2-.12A32.15,32.15,0,0,1,2.38,4.27c.2-.4.29-.32.58-.59C1,3.58-.13,2.11.28,0L0,.62A2.7,2.7,0,0,0,1.58,3.57c.48.28.4,0,.67,1.28-.57-.12-.45-.17-1,.09C1,5.87,2.78,7.19,3.48,8c.29.33.69.55.89,1a1.32,1.32,0,0,1-.49.18Z"/><path class="cls-2" d="M37.08,24.88A2.41,2.41,0,0,0,36.54,23l-3.69-.13c-.13.05-.08.37-.1.41-3.21-4.48-4.08-2.32-4.37-5.24-.27-2.66-.63-4.06-2.67-5.64-.19-.14-.48-.27-.6-.51-.61-.11-.66-.08-.55.72a3,3,0,0,0,1.36,2,.84.84,0,0,1,.21.21c-.56,0-.71-.11-1,.23a1.36,1.36,0,0,0-.25,1.08c.15.83.93.87,1.45,1.25-.57.46-.78.31-1.12,1,.07,1.16.91,1,1.93,1-.13.11-.05.08-.26.17s.05,0-.28.11c-1.56.51-.75,2,.35,1.82.62-.13.33-.45.89-.75-.07.35-1.27,2.85.78,2.27a1.18,1.18,0,0,0,.7-.52l.06-.07.19-.21a5,5,0,0,0,0,2.11,1.21,1.21,0,0,0,1.12-.08c.46-.34.21-.52.45-1,.29.66-.14,1.35.51,2.11.71,0,.63-.09,1.11-.41l.06-1.1c.56.69.46,1.88,1.39,2.13a1,1,0,0,0,.74-.69c.3-.79,0-.64-.08-1.17,1,.56,1.07,1.25,2.22.76Z"/><path class="cls-2" d="M.28,0C-.13,2.11,1,3.58,3,3.68c-.29.27-.38.19-.58.59A32.15,32.15,0,0,0,9,8.34c.5-.06.17-.32.17-.33a1.46,1.46,0,0,1,0-.39l.44-.15L10,7.26l-3.42-2c-.22-.2,0,0-.22-.24A15.6,15.6,0,0,1,8.6,6.16c.74.41,1.52.8,2.22,1.2,1.2.71,4.21,1.93,4.6,2.35.44,0,.89,0,1.34,0,.76,0,1,.15,1.29-.22C15.81,9.24,5.75,2.85,2.6,1,1.94.59,1.09-.11.28,0Z"/><path class="cls-2" d="M13.45,21.3c.66,0,1.42.25,2,0,.36-.2.66-.77.95-.85l-1.29.79c.25-.33.42-.46.72-.83-.11.09-.78.46-1,.57l.39-.55s0,0,0,0a0,0,0,0,1,0,0c-.09,0-.41.19-.61.27-.09-.17,0-.31.07-.42A32.85,32.85,0,0,1,8.58,19c1.6.2,9.43,1.83,10.7,1-2.18-1.47-1-.93-3.23-1.13-5.27-.49-8-2.24-11.54-2.24C5,18.37,7.29,19,8.09,19.51l-.7.19c.81.84,4.6,1.68,6.06,1.6Z"/><path class="cls-2" d="M10.78,14.71a2.15,2.15,0,0,0,.6-.36c.22-.15.22-.09.43-.3l-1,.47c.16-.42,0-.23.35-.5l-.59.24.27-.47L8.32,12.9c.42-.27,1.21.15,2.06.43l6.16,1.32c1,0,.34.17.58-.16-.67-.14-.68-.72-1.3-.91a45.87,45.87,0,0,1-5.61-1.4c-2.75-1-2.75-1.51-4.71-2.3a4.66,4.66,0,0,1-1.62-.75L2,8.6l-.67-.07c.14,1.65,2.08,2.56,3.29,3.36-.2.17.46.24-.45.17A23.94,23.94,0,0,0,10.78,14.71Z"/><path class="cls-2" d="M10.87,11.9c.47,0,.78-.4,1.19-.59l-1,.34c0-.63-.07.16-.26-.29s.42.42,0-.1c-.2-.25.07.16-.29-.1l.33-.3A18.61,18.61,0,0,1,7.19,9c.37.11,2.85,1.29,4.28,1.79.68.24,4.86,1.29,4.88,1.3l.62.06C15.89,11,14.23,10.76,13.1,10.4A36.42,36.42,0,0,1,5.4,6.79C4.15,6,3.25,5.15,1.44,5,2,7.45,9.31,12.07,10.87,11.9Z"/><path class="cls-2" d="M12.29,17.81l.84-.7c.27-.16,0-.12.19-.06-.3.06-.7.38-1.2.48l.61-.62-1.13.54a.94.94,0,0,1,.57-.6,4,4,0,0,1-1.08.46,1.18,1.18,0,0,1,.3-.33l.2-.19a.46.46,0,0,0,.07-.07.23.23,0,0,0,.07-.07L8.9,15.9c1.64,0,7.14,1.66,9.41,1.52-.39-.09-.88-.79-1.23-.94s-1.69-.3-2.07-.38c-5-.92-7.17-2.23-10.68-2.84a2.42,2.42,0,0,1-1-.29l-.42,0c.15,1.14,2.59,2.66,3.88,3.25a24.3,24.3,0,0,0,5.5,1.61Z"/><path class="cls-2" d="M16.63,24.26c.14-.25,0-.09.17-.27.32-.36.34-.14.65-.62a9.1,9.1,0,0,1-.9.63l.3-.63-.59.43c-.11-.17,0-.3-.12-.48A24.5,24.5,0,0,1,12.4,23c-.79-.33.17.18-.25-.16,2.38.07,5.11.54,7.43.05l.59-.22c-1.17-1-4.68-.66-6.46-.83-2-.19-4.74-.89-6.6-.85.14,2.85,7.44,3.72,9.52,3.32Z"/><path class="cls-2" d="M11.6,25a5,5,0,0,1-2.06.27c-.4.87.61,1.28,1.42,1.49a6.57,6.57,0,0,0,2.79,0c-.18.28.23-.3-.13.14l-.26.35c1.07,0,4.22,0,4.79-.7l.23-.68a1.12,1.12,0,0,0-.39.61L17.74,26a18.91,18.91,0,0,1-5.28.22,32.9,32.9,0,0,0,6.84-.84c.33-.09.63-.19.94-.3s.7-.15.61-.48c-1.49,0-3,.18-4.58.18-.78,0-1.73-.11-2.46-.06S12.38,25,11.6,25Z"/><path class="cls-2" d="M23.7,11.57c-.75-.05-3-1.13-4.09-1.35a21.81,21.81,0,0,0-4.2-.15c-.21,2,7.84,3,8,3l-.71.2c.1,1.32,1.16.59,1.8,0a3.22,3.22,0,0,1-.24-1.44Z"/><path class="cls-2" d="M17.19,28.13a8,8,0,0,1-.94,1.19c-1.59,2.18.47,2.46,2.6.9.12.33-.05-.08,0,.17s0,.14.12.35l.62-.17c.38-.49.65-.4,1-.75L21,27.09,20.44,29l.1-1.54a4.92,4.92,0,0,1-.48,1.78l.08-1.54a4.52,4.52,0,0,0-.77.59l-2.3,1.86c.54-1,3-2.88,4.24-3.63.34-.21,0,0,.34-.19-.57-.11-.31-.1-.44-.23a6.07,6.07,0,0,0-3.16,1.36A2.52,2.52,0,0,1,17.19,28.13Z"/><path class="cls-2" d="M24.25,36.45c.06-.31,1-1,1.2-1.64l.47.33c.44-1.15.88-1.31.83-2.94l-.27-.48a.7.7,0,0,0-.06-.09,2.68,2.68,0,0,1-.35-1.21,23.13,23.13,0,0,0-1.68,3.85l-.28.53c.21-1.87,1.19-3.26,1.75-4.85-.48-.11-.22-.12-.35-.22s-.06-.07-.28-.15C24,31,22.85,34.33,23.5,36.64l.75-.19Z"/><path class="cls-2" d="M28.31,37.09A4.89,4.89,0,0,1,29,36a8.9,8.9,0,0,0,.48-1.25c.11.49-.11.6.3.7.24-1.25.48-1.17-.05-2.36L29,31.58c-.17-.25-.05-.18-.34-.29l-.11.14-.28.5a21.88,21.88,0,0,0-.55,4c0-3.07.15-2.29.61-4.76l-.66-.55c-.71.84-1.25,4.5,0,6.65l.65-.17Z"/><path class="cls-2" d="M22.16,15.35l.66-1c-.54-.38-.35-.44-.66-1-1.56-.23-4.39-1.07-4.9-1C14.57,12.73,17.53,15.54,22.16,15.35Z"/><path class="cls-2" d="M20.41,31.36,19.86,33l-.06.85c.42.16.7-.09,1.13-.22l1.7-1.07.13-.17c.35-.39.53-.39.81-.69a2.31,2.31,0,0,0,.5-1.07,3.66,3.66,0,0,0-.22-1.49v1.4h0l-.68-1L22,31.15c-.33.52-.16.37-.53.6a8.78,8.78,0,0,1,1.07-1.89,13.92,13.92,0,0,0,1.09-1.63c.12.1.21.06,0,.07l-.77-.2A8.64,8.64,0,0,0,20.73,31l-.25.31s-.05.06-.07.08Z"/><path class="cls-2" d="M33,36.09l.1-1.06a4.15,4.15,0,0,0-.74-2.81c-.62-.31-.42-.44-1-.88-.08,1.16.61,4.62.55,4.86A16.63,16.63,0,0,1,31,30.76c-.19-.28-.22-.28-.62-.31-.49,2,.28,6.45,2,6.6a1.62,1.62,0,0,0,.36-.47l.3-.49Z"/><path class="cls-2" d="M34.18,30.86H33.9a2.46,2.46,0,0,1,1,1.55l-1.28-.95c.19,1.12.95,2.31,1.22,3.31a5.48,5.48,0,0,1-1-1.68A10.39,10.39,0,0,1,33.22,31c-.08-.57-.18-.77-.78-.86.1,2,1.64,5.82,3.12,5.84.53-.85.16-1.7.16-2.52l.35.42a2.14,2.14,0,0,0-.69-1.79c-.4-.5-.6-1.07-1.2-1.23Z"/><path class="cls-3" d="M10.78,14.71s.09,0,.11,0,.16.06.2.07l1.8.44.39.08.31.07c.49.1,1.05.24,1.57.3l1.72.35a2.86,2.86,0,0,1,.34-.76l.31-.5-.41-.31c-.24.33.39.2-.58.16l-6.16-1.32c-.85-.28-1.64-.7-2.06-.43l2.57.89-.27.47.59-.24c-.32.27-.19.08-.35.5l1-.47c-.21.21-.21.15-.43.3a2.15,2.15,0,0,1-.6.36Z"/><path class="cls-3" d="M9.58,7.47l1.28.24c-.29.18-.21.18-.37.37C11,8,11,7.91,11.23,8l-2.08.47L10.33,9l.09,0,1.13.44.46.19,3.12,1c-.1-.19-.18-.23-.11-.54.14-.72,0-.31.4-.38C15,9.29,12,8.07,10.82,7.36c-.7-.4-1.48-.79-2.22-1.2A15.6,15.6,0,0,0,6.36,5c.19.25,0,0,.22.24L10,7.26l-.42.21Z"/><path class="cls-2" d="M22.41,17.56l.6-.93-3.52-.28h3c-.24-.62-.22-.63-1-.71l-3-.2c-.55,0-1.19-.06-1,.54C17.88,17.37,20.77,17.71,22.41,17.56Z"/><path class="cls-3" d="M12.29,17.81l1.54.35.1,0,.83.11c.18,0,.24.05.45.07l.37,0,.41,0c1.27.09,1.32.19,2-.44-.55,0-.57.39-.63.57,1.08-.06.21-.47,1.31-.57l-.22-.16c-.31-.34-.29,0-.19-.41C16,17.56,10.54,16,8.9,15.9l2.83.75a.23.23,0,0,1-.07.07.46.46,0,0,1-.07.07l-.2.19a1.18,1.18,0,0,0-.3.33,4,4,0,0,0,1.08-.46.94.94,0,0,0-.57.6l1.13-.54-.61.62c.5-.1.9-.42,1.2-.48-.15-.06.08-.1-.19.06l-.84.7Z"/><path class="cls-3" d="M10.87,11.9a3.39,3.39,0,0,0,1.22.46l3.68.88c.24-.36.09-.26.26-.56l0-.08c.34-.59.18,0,.28-.54,0,0-4.2-1.06-4.88-1.3C10,10.26,7.56,9.08,7.19,9a18.61,18.61,0,0,0,3.69,1.89l-.33.3c.36.26.09-.15.29.1.43.52-.16-.34,0,.1s.22-.34.26.29l1-.34c-.41.19-.72.59-1.19.59Z"/><path class="cls-2" d="M34.69,30.52c.61.84,2.65,4.12,3.78,3.45V33l-.17-1L38,31.67h.38c-.26-1.05-.38-1.2-1.26-1.63l-.73,0c-.12.24-.35.14.24.45-.31.19-.4,0-.44,0l.56.57a6.61,6.61,0,0,1-1.25-.68c.23.29.25.39.48.73s.39.49.59.76a14.38,14.38,0,0,1,1.17,1.52,7,7,0,0,1-.92-.8,12.74,12.74,0,0,1-2.1-2.85l-.06.78Z"/><path class="cls-2" d="M18.28,18.4c.1,1.18,2.95,1.61,4.25,1.32l.29-.94-2.26,0a8.33,8.33,0,0,1,2.6-.1c-.17-.34,0-.05-.28-.34a4.48,4.48,0,0,1-.35-.37c-1.08-.09-3.46-.14-4.25.47Z"/><path class="cls-2" d="M37.57,25.78c-.2-.42-.11-.19-.13-.46-.6-.25-.16.07-.9.1-.58,0-.48-.22-1.12-.23-.48.52,0,.64-.72,1-1.28.63-1.44-1.09-2-.7l-.09.22c-.07.32-.2-.17,0,.65s.71,1.7,1.66,1.52l.07-1.18c.74.07.48.88,1.54.71.57-.78.11-1,.06-1.54.32.19,1.73,1.41,1.59-.06Z"/><path class="cls-2" d="M28,26.23a5.9,5.9,0,0,1,.18-1.46c.07-.3.13-.39.19-.68.12-.52.07-.52-.05-.71-.5.12-.44.24-.62.79-.13.4-.25.72-.35,1.14-.26,1.09-.32,1.58.35,2.28C29,27.75,28.91,27,29,25.9A6.39,6.39,0,0,0,29,23.36c-.48.08-.44.25-.7,1.25A14.58,14.58,0,0,0,28,26.23Z"/><path class="cls-3" d="M13.45,21.3a3.93,3.93,0,0,0,1.84.22c.35,0,1.23,0,1.36-.14.57.21.6.35,1.21-.14.29-.23.2-.27.51-.49s1.33-.25.91-.76c-1.27.79-9.1-.84-10.7-1a32.85,32.85,0,0,0,6.16,1.26c0,.11-.16.25-.07.42.2-.08.52-.26.61-.27a0,0,0,0,0,0,0s0,0,0,0l-.39.55c.22-.11.89-.48,1-.57-.3.37-.47.5-.72.83l1.29-.79c-.29.08-.59.65-.95.85-.56.29-1.32,0-2,0Z"/><path class="cls-2" d="M18.35,21.09c.44,1,3,1,4.17.85a2.83,2.83,0,0,1-.13-.93l.22-.43c.19-.37.16.21.12-.46C21.72,19.77,19.11,20.78,18.35,21.09Z"/><path class="cls-2" d="M28.55,27.87c-1,.18-1.38-.34-1.15,1.06.36,2.15,2.09,3.13,2.44-.33-.32-.34-.26-.14-.53-.51s-.1-.3-.39-.47a1.73,1.73,0,0,0-.11.38l0,.1-.08.19s0,.07,0,.1c0-.44.05-.25-.11-.52Z"/><path class="cls-2" d="M27.57,23.22c-.46-.07-.45-.2-1,.82a6.19,6.19,0,0,0-.54,1.2c.09-1.22,1.06-1.77,1.07-2.57-.55.18-1,.87-1.31,1.43-1.11,2-.09,2.82.8,2.29.37-.22.31-.42.41-.92a13.83,13.83,0,0,0,.58-2.25Z"/><path class="cls-3" d="M20.6,29.82s.09-.09.1-.06.08,0,.1-.05l.76-.66c-.23-.32.13-1.89.23-2.44a1.48,1.48,0,0,0,.24.75l.13-.93-.41-.23a2.36,2.36,0,0,0-.54-.12c.13.13-.13.12.44.23-.36.16,0,0-.34.19-1.21.75-3.7,2.6-4.24,3.63l2.3-1.86a4.52,4.52,0,0,1,.77-.59l-.08,1.54a4.92,4.92,0,0,0,.48-1.78L20.44,29,21,27.09l-.39,2.73Z"/><path class="cls-2" d="M19.67,23.44c.48.81,2.68,1,3.41.25L23,23.17a5.92,5.92,0,0,1-2.15.33,5.37,5.37,0,0,0,1.36-.23c.62-.19.9-.2.79-.93a3.37,3.37,0,0,0-1.81.27C20.6,22.79,19.93,22.93,19.67,23.44Z"/><path class="cls-2" d="M30.27,24.71c-.32.22-.23.1-.25.69,0,.35,0,.75,0,1.11-.26-.62.13-1.58-.36-1.81-.33.13-.27.26-.33.74-.1.78-.25,2.79.82,2.77.82,0,.78-.88.59-1.55s-.14-1.68-.47-1.95Z"/><path class="cls-3" d="M16.63,24.26l.5.08a1.58,1.58,0,0,1,1-1.07c-.19.63.11.14-.43.47-.34.22-.28.21-.42.51a5.47,5.47,0,0,0,.89,0l.6-.08c.57-.29.56-.91.84-1.35-2.32.49-5,0-7.43-.05.42.34-.54-.17.25.16a24.5,24.5,0,0,0,3.74.37c.11.18,0,.31.12.48l.59-.43-.3.63a9.1,9.1,0,0,0,.9-.63c-.31.48-.33.26-.65.62-.16.18,0,0-.17.27Z"/><path class="cls-3" d="M18.15,26.61A3.92,3.92,0,0,0,20.08,26c.4-.2.87-.35,1-.88.1-.73.09-.39-.18-.55.09.33-.31.37-.61.48s-.61.21-.94.3a32.9,32.9,0,0,1-6.84.84A18.91,18.91,0,0,0,17.74,26l.25.57a1.12,1.12,0,0,1,.39-.61l-.23.68Z"/><path class="cls-3" d="M25.51,29.73c.13.1-.13.11.35.22-.56,1.59-1.54,3-1.75,4.85l.28-.53a23.13,23.13,0,0,1,1.68-3.85,2.68,2.68,0,0,0,.35,1.21.7.7,0,0,1,.06.09l.27.48c.17-.2.06-.13.17-.49l.4-1.19c.16-.35.2,0,.17-.56s-.35-.76-.69-.63c-.66.24-.06.61-1.29.4Z"/><path class="cls-2" d="M23.25,27.88c.79.06,1-.36,1.37-.75s.74-.72.25-1.39c-.55.16-1.15,1.43-1.18,1.56.12-.72.64-1.14.83-1.77L24,24.82a2.84,2.84,0,0,0-.78,3.06Z"/><path class="cls-2" d="M24.33,16.06l.75-1.53a4,4,0,0,0-1.78.91,3,3,0,0,1,1.62-1l-.28-.61a4.11,4.11,0,0,0-2,1.33c-.65,1.08.93,1.47,1.66.95Z"/><path class="cls-3" d="M23.67,28.3c.18,0,.09,0,0-.07a13.92,13.92,0,0,1-1.09,1.63,8.78,8.78,0,0,0-1.07,1.89c.37-.23.2-.08.53-.6l1.14-1.6.68,1h0v-1.4a3.66,3.66,0,0,1,.22,1.49l.05-.07.06-.07.66-1.07a3.38,3.38,0,0,0-.21-1.58c-.88.41-.64.14-1,.43Z"/><path class="cls-2" d="M26.13,28.45l.25-1.61-1-.09c-.06.83-.29,2.23.46,2.76.56-.19.79-.64,1.08-1.18.38-.74.2-.86-.1-1.64C26.36,27,26.3,27.88,26.13,28.45Z"/><path class="cls-2" d="M36.42,27.47a2.6,2.6,0,0,1-.53.25l-.57.15.6.94c-.41-.42-.73-1-1.17-1.47,0,.48-.85,1.5.85,2.19S36.63,28.3,36.42,27.47Z"/><path class="cls-2" d="M40.36,30.94a2.73,2.73,0,0,1-.58-.62l.2-.49a6.44,6.44,0,0,1-1-1.31l-1.24,0c-.18.45,0,.14,0,.4,0,.73,1.84,2.23,2.47,2.45C40.54,31.12,40.31,31.43,40.36,30.94Z"/><path class="cls-2" d="M33.89,30a4.62,4.62,0,0,1-.56-.78c-.1-.18-.14-.25-.25-.48L33,28.5l-.23-.31-.42.25a2.51,2.51,0,0,0,1.44,2c.62.07.32,0,.43-.13a2.31,2.31,0,0,0-.08-1.94L33,27.75A5.44,5.44,0,0,0,33.89,30Z"/><path class="cls-2" d="M24.87,25.35c.16-.18.07,0,.18-.35a3.19,3.19,0,0,1,.68-1.43A14.73,14.73,0,0,0,27,22.05a2.43,2.43,0,0,0-1.14.86A4,4,0,0,0,24.93,24a5.17,5.17,0,0,1,1.23-1.58l.48-.59c-1.07.05-3.44,2.29-1.77,3.54Z"/><path class="cls-2" d="M32.36,28.08a1.06,1.06,0,0,0,.16-1.22c-.33-.94-.09-1.24-.65-1.14s-.11,1.07-.05,1.58c-.44-.8-.37-2.41-1.06-2.77a9.38,9.38,0,0,0,.34,2.25C31.31,27.51,31.5,28.2,32.36,28.08Z"/><path class="cls-2" d="M31.32,30c-.09-.22-.26-.47-.36-.72-.26-.7,0-.74-.61-.79-.54.49.4,2.25,1.59,1.91a1.91,1.91,0,0,0-.36-2.13c-.3-.25-.24-.3-.49-.35C30.58,28.74,31.2,29.21,31.32,30Z"/><path class="cls-2" d="M23.27,22.07a11.35,11.35,0,0,1,1-.84c.43-.28,1-.38,1.17-.86-.64-.35-1.58.7-2.18.77l2.31-1.38c-.74-.4-4.27,1.26-2.28,2.31Z"/><path class="cls-2" d="M23.88,24.27l.26-.79a3,3,0,0,1,.51-.75c.68-.79,1.06-.69,1.23-1.28-1.07,0-1.39.91-1.95,1.35a3.17,3.17,0,0,1,.72-.92c.94-.92.72-.17.85-.89-1.2.29-3.16,1.91-1.62,3.28Z"/><path class="cls-2" d="M25.38,17.27c-.77-.34-1.18,0-1.81.21,1.13-.68,1.07-.41,1.15-.8-.24-.32,0-.3-.52-.19-1.63.36-1.95,2.28.07,1.55.67-.24,1-.12,1.11-.77Z"/><path class="cls-2" d="M23.63,24.43c-.71,0-1,.62-1.66.81l1-.72c.29-.26.12,0,.3-.38-.67.09-1.95.22-2.09,1.32-.06.54,0,.23.09.33.28.27,1.33,0,1.59-.16a1.9,1.9,0,0,0,.75-1.2Z"/><path class="cls-3" d="M34.69,30.52l.06-.78a12.74,12.74,0,0,0,2.1,2.85,7,7,0,0,0,.92.8,14.38,14.38,0,0,0-1.17-1.52c-.2-.27-.41-.51-.59-.76s-.25-.44-.48-.73a6.61,6.61,0,0,0,1.25.68l-.56-.57s.13.16.44,0c-.59-.31-.36-.21-.24-.45l.73,0a.54.54,0,0,0-.35-.17c-.95-.21-.33.36-1.61-.17-.26-.11-.3-.07-.55-.19,0,.42-.15.64,0,1Z"/><path class="cls-2" d="M38.91,28.06c-.22-.75-.71-1.24-.77-1.55-1.33.22-.22.76.07,1.29a7.62,7.62,0,0,1-.65-.58c-.38-.39-.35-.41-1-.52.11.65.18,1.07.78,1.27a2.49,2.49,0,0,0,1.61.09Z"/><path class="cls-3" d="M32.38,32.22c.22-.63.1-.62-.29-1s-.28-.39-1.08-.45a16.63,16.63,0,0,0,.89,5.44c.06-.24-.63-3.7-.55-4.86C32,31.78,31.76,31.91,32.38,32.22Z"/><path class="cls-2" d="M23.1,20.09a12.86,12.86,0,0,1,2-.71l-.19-.44a2.42,2.42,0,0,0-1.47.6c.51-.83,1.28-.27,1.41-1.31-.92.1-2.37.76-1.77,1.86Z"/><path class="cls-4" d="M22.16,26.43l-.13.93a1.48,1.48,0,0,1-.24-.75c-.1.55-.46,2.12-.23,2.44.41-.47.78-.85,1.25-1.31a3,3,0,0,0-.2-1.35C21.94,26.17,22.27,26.27,22.16,26.43Z"/><path class="cls-3" d="M33.22,31a10.39,10.39,0,0,0,.66,2.09,5.48,5.48,0,0,0,1,1.68c-.27-1-1-2.19-1.22-3.31l1.28.95a2.46,2.46,0,0,0-1-1.55h.28c-.18-.14-.25-.07-.91-.21a2.62,2.62,0,0,0,.28.5h-.07L33.22,31Z"/><path class="cls-5" d="M29.72,30.65c-.35.15-.21,0-.12.44,0,.14.09.17.15.44l-.25-.61c-.21.2-.32-.33-.18.44a2.74,2.74,0,0,1,.18.4c-.24-.56-.06-.41-.48-.61a3.61,3.61,0,0,0,.43,1.2c.07.17.14.37.21.52.23.49.2.33.4.47C29.83,31.81,30.12,31.55,29.72,30.65Z"/><path class="cls-5" d="M9,8.34c0,.2,0,.13.2.12L11.23,8c-.24-.08-.27,0-.74.09.16-.19.08-.19.37-.37L9.58,7.47l-.44.15a1.46,1.46,0,0,0,0,.39s.33.27-.17.33Z"/><path class="cls-2" d="M37.07,29.43a6.11,6.11,0,0,0,1.86,1.28,25.3,25.3,0,0,0-1.86-2.1Z"/><path class="cls-1" d="M20.93,33.66c-.43.13-.71.38-1.13.22l.06-.85c-.41.36-.44.53-.35,1.21l.93,0c.12-.68,0,0,.49-.6Z"/><path class="cls-4" d="M25,29.27s.36-.06.07-.74c-.18-.43-.07-.16-.23-.32,0,.48-.07.67.16,1.06Z"/><path class="cls-4" d="M17.13,24.34l.12-.09c.14-.3.08-.29.42-.51.54-.33.24.16.43-.47A1.58,1.58,0,0,0,17.13,24.34Z"/><path class="cls-4" d="M18.91,24.22c.57-.11.53,0,.57-.56C19,23.83,19.07,23.79,18.91,24.22Z"/><path class="cls-5" d="M31.73,30.81c.18.43.14.37.56.53C32.15,30.94,32.14,30.89,31.73,30.81Z"/></g></g></g></svg>