<svg xmlns="http://www.w3.org/2000/svg" viewBox="0 0 40.64 37.51"><defs><style>.cls-1{fill:#cbccce;}.cls-1,.cls-2,.cls-3,.cls-4,.cls-5,.cls-6{fill-rule:evenodd;}.cls-2{fill:#030305;}.cls-3{fill:#6b6c6e;}.cls-4{fill:#2a2a2d;}.cls-5{fill:#9a9a9d;}.cls-6{fill:#4d4d4e;}</style></defs><g id="Слой_2" data-name="Слой 2"><g id="Слой_1-2" data-name="Слой 1"><g id="_3015349871056" data-name=" 3015349871056"><path class="cls-1" d="M8.39,31.28c.11-.4.13-.44.53-.55C8.74,31.18,8.83,31.11,8.39,31.28ZM7.45,31c.07-.58.16-.85.72-1,.27,2-1.75,5.83-3.1,5.9a4.08,4.08,0,0,1-.13-2.35c-.2-.08.3-.33-.35.24a2,2,0,0,1,.68-1.77c.36-.47.59-1.08,1.16-1.25.19-.26.06-.1.37-.16l.59-.08a3.2,3.2,0,0,0-.24.57s.26-.12.3-.14Zm8.39-2.76c0,.1,0,.48,0,.57-.07.41-.07.26-.17.41,0,0-.42-.14,0-.82l.08-.08.09-.08Zm-5,.32c.38-.52.42-.2.79-1.07.39.26.07.27.72.35s.78-.23.95.25C13.74,29.36,11.4,33.25,10.83,28.56ZM9.32,30a6.75,6.75,0,0,0,.56-1.27c.27-.45-.14-.29.48-.24.46.6-.57,2-1.22,1.94s-.14.05-.38-.14a1.82,1.82,0,0,1,.84-2.43C10.06,28.66,9.48,29.22,9.32,30ZM4.61,27.5a1.31,1.31,0,0,0,1.06-.05l.26-.15C6,28,6.48,28.41,5.79,29c-.34.31-1.14.8-1.69.39s0-1.37.13-2A3.8,3.8,0,0,0,4.61,27.5Zm2.24,2.37a5.79,5.79,0,0,0,1-1.76c1.49.6-.77,2.55-1.28,2.19s0-2.26.08-2l1.09-.53A6.82,6.82,0,0,1,6.85,29.87Zm3.64-5.21c.32.49.13,1.52.15,2.15.32-1,0-1.6.34-2.16.13.08.28-.06.37.83a8.57,8.57,0,0,1,.05,1.24c-.12,2-2,1.88-1.46-.18.32-1.15.1-1.74.55-1.88Zm3.79,2.12,1-.1c.07.87.21,2.12-.37,2.73-.75-.05-1.5-1.48-1.36-2,0,0,.17-.42.17-.43l.16-.31,0-.07a6.63,6.63,0,0,1,.59,1.56Zm2.35-2a2.71,2.71,0,0,1,.76,3.06c-.46,0-2.79-1.08-1.34-2.32ZM9,25.64a3.63,3.63,0,0,1-.19,1.61c.52-.82.35-2.37,1.11-2.79,0,1-.39,3.13-1,3.5s-1-.47-.78-1C8.63,25.33,8.22,25.65,9,25.64Zm8.41-1.57A4.23,4.23,0,0,1,19,24.5a1.26,1.26,0,0,1,.42,1.26A1.82,1.82,0,0,1,17,24.4c.67-.07.95.51,1.53.68-.65-.46-.91-.54-1.14-1ZM20.85,24l.17-.14c.56-.49.53-.26.75.14l-.21.08c-.45.06,0,0-.29,0l-.24,0c-.19,0-.08,0-.18-.06Zm-8.52-.7c.59.1.72.77,1,1.91.19.79.36,2.05-.44,2.29-1.23.36-1.14-.87-1.18-1.62a8.21,8.21,0,0,1-.11-2.58c.37,0,.37-.21.71,1.11.15.59.23,1,.36,1.53a6.19,6.19,0,0,0-.19-1.36l-.22-1a.36.36,0,0,1,0-.1s0-.07,0-.1a.69.69,0,0,1,0-.1Zm1.29-.73c.58.24,2.7,2.94,1.29,3.8-1.2.6-1.17-1.18-1.58-2.26-.18-.47-.36-.61-.14-1,.48,0,.54.1.92.82a9.84,9.84,0,0,1,.51,1.12c-.11-1.31-1.08-1.65-1-2.5Zm7.38.69c-.32.95-1.95.85-2.83.66-.71-.16-.61-.09-.53-.79a13,13,0,0,0,2,.32c-2.76-.46-2.32-1.29-1.6-1.27A6.47,6.47,0,0,1,21,23.27Zm-6.49-1.41c.75.31,2.88,2,1.26,3.43-.17-.23-.44-1.25-.77-1.73a6.17,6.17,0,0,0-1.18-1.32c-.18-.17-.26.27-.1-.32a1.59,1.59,0,0,1,.57-.28l.22.22Zm.64-.93c1.39.26,3.12,2.05,1.6,3.28-.37-.85,0-1.05-1.36-2.16-.32-.27-.45-.19-.61-.63.46-.19.77.12,1.15.46l.88,1a4.23,4.23,0,0,0-1.48-1.58ZM18,20c1.13-.23,3.49.62,4.35,1-.46,1-2.91.95-4.1.88l.09-.9,2.56.16a19.83,19.83,0,0,0-2.61-.36c-.18-.3-.42-.39-.29-.74Zm-2.82-.33c.51-.27,1.71.34,2.13.59.68.4,1.14,1.27.1,1.7a6.79,6.79,0,0,0-1-.89c-.57-.35-1-.33-1-1l1.83.82a4,4,0,0,0-.95-.61c-.46-.23-.75-.27-1-.6Zm.68-1.35c.42-.27.88,0,1.35.32A1,1,0,0,1,17.62,20a9.79,9.79,0,0,1-2.07-.74l.2-.39a4.82,4.82,0,0,1,1.44.58,3.72,3.72,0,0,0-1.07-.65c-.27-.18-.13-.09-.3-.4Zm6.58,0c-.18,1.18-2.85,1.62-4.3,1.27l-.25-.91,2.69,0a12.78,12.78,0,0,0-3-.14s.05-.12.07-.1,0-.52.85-.62,3.15,0,3.94.53Zm4.11,2.94a10.93,10.93,0,0,1-2.67.11c-.51,0-.61.22-1.52-.63-.25-.24-.23-.25-.27-.57-.15,0-.33.49-.68,0s-.13-.16,0-.28a3.29,3.29,0,0,1,.62-.4c1.45-.94-.13-.54,2.63-.78a31.77,31.77,0,0,0,7.51-1.6c1.56-.61,2.6-.33,4-.7,0,1.1-2.15,2.64-3.45,2.87l.61.36a16,16,0,0,1-6.78,1.59ZM15.9,16.76c.09-.18,0-.75,1.17-.08,1.33.75.73,1.76-.58,1.32-.7-.23-1.07-.15-1.22-.77.7-.35,1.08-.1,1.72.12-.44-.38-.41-.27-.84-.46l-.25-.13Zm2.33.72c-.32-.52-.19-.46-.59-.84,1.18-.71.33-1,1.48-1.08.8-.1,3.81-.46,4.09,0,.55,1-2.43,2.17-5,1.88Zm-2.46-3.3c.31-.78.68-.39,1.32,0,1.72,1.13,1.22,2.55-.9,1.76-.14-1.08-.33-.9-.68-1.55a3.48,3.48,0,0,1,1.92,1.06,2,2,0,0,0-.67-.69A7.38,7.38,0,0,1,15.77,14.18Zm2.69,1.12a1.94,1.94,0,0,0-.59-1c.47-.43.3-.3.6-1l4.91-1C25.63,12.56,24.33,15.13,18.46,15.3Zm6.59-2.55c.18.09.13.11.21.2-.29.15-.4.36-.53-.29C25,12.71,24.79,12.63,25.05,12.75Zm6.43-4.4-.08,0-.08,0-4.17,1.69-.09,0a1.87,1.87,0,0,1-1,.06c.51-.19.23,0,.24.21l-.75.13a.61.61,0,0,0,.1-.52c-.13-.45.05-.25-.41-.45l-2.65.1.07-.11.07-.09a1.63,1.63,0,0,1,.11-.17,2.91,2.91,0,0,0-1.45.67l-.2.14c.8,0,3.48-.46,4-.06,0,0,.31-.11.06.41a2.21,2.21,0,0,1-.37.38c-2.09,1.61-7.1,2-7.55,2.22l.72.25c-.14,1.2-1.07.55-1.78,0,.17-.78.15-.77.84-1l2.81-.77c.41-.08,1.07-.15,1.39-.26a17,17,0,0,0-3.71.69c-1.58.53-.87.32-1.13.14.2-.59.24-.2.69-.66-.3.06-.42.15-.64.18l-.69.09-.11,0c.1,0,.57-.22.41.79a2.81,2.81,0,0,1-1.53,2.14l.17.06c.74.17.39,0,.73.24a1.21,1.21,0,0,1,.34,1c-.13.95-1,.9-1.45,1.42.45.14,1.27.56,1.1,1.23s-1,.62-1.84.64c.28.25,2,.53,1.14,1.72a1,1,0,0,1-1,.35c-.41-.09-.53-.44-.78-.75-.28.5.61,1.43.22,2.15-1.2.65-1.6-.23-2-.71,0,.59.63,3-1.06,2.11-.3-.16-.22-.1-.35-.37l-.21-.57c-.07.82,0,1.56-.5,2-1.49.11-.86-.87-1.23-1.51-.36.76-.46,1.77-1.23,2.14-1.09-.21-.89-1.08-.74-1.87-.61.33-2.32,2.19-2.21-.15a.16.16,0,0,0-.07.12l-.15.48c-.08.5.19,0-.08.64.57.07.38.24.92.22s.39-.21,1-.23c.2.08.3.54.55.79l.69.31c1.17.08.53-1,1.59-.82.33.7-.62,2.66-1.46,2.42-.48-.13-.28-.67-.26-1.23-.78.16-.53.84-1.61.74-.45-1-.06-.83,0-1.56-.28.14-.43.3-.71.46-.82.49-.85-.06-.89-.13l-.43.31c.3.07.33.16.5.43l-.81.89c.28,0,.57-.4.73-.56.47-.46.4-.39,1.06-.58,0,.5-.14,1-.63,1.26a2.9,2.9,0,0,1-1.62.2L2,27.21c-.4.22-.07-.1-.24.26s-.06.14-.09.33c-.08.53.17.1-.09.78h.14c.17-.25,0-.11.29-.2l.36,0a3.47,3.47,0,0,0,.64,0l.63,0a1.28,1.28,0,0,1,0,.56c0,.57.07.25-.15.45a13,13,0,0,1-1.6,1.23c-.08.12.13.18-.3.32s-.21,0-.53,0a3,3,0,0,1-.7.36c-.27-.19-.07.08-.12-.38-.29.34-.38.38-.19.79a8.49,8.49,0,0,0,1.26-.51.37.37,0,0,1,.58.11c.25.31-.05.55.39.74l.36-.51c-.19-.11-.06,0-.44.22.16-1,.6-1.66,1.53-1.76.21-.41.38.2,1.66-.32L6,29.43l0,.64a7.78,7.78,0,0,1-1.49,2.3c-.36.47-1.39,1.79-2.34,1.56l0-1c-.67.69-.16,2.13,1,1.17.72-.59.68-.3,1.25-.32A9.27,9.27,0,0,0,5,36.34c1.37.09,1.14-2,2.52-1.3-.06-.91.15-2.39.72-2.84-.17-.79.54-1.9,1.19-1.13,0-.85,0-.22.18-.47s.27-.23.66-.16c.36,2.07-.32,6.54-2,6.54-.49-.52-.37-.9-.68-1.25a1.71,1.71,0,0,0,1.05,1.68,3.71,3.71,0,0,0,1-1,8.85,8.85,0,0,0,.61-1.73c.49.27.37.35.64.65a3.45,3.45,0,0,1-.23-1.68c-.11-1,.08-1.83,0-2.56-.06-.49-.34-.36,0-.86.6.3.07.79,1.22,1,.14.32-.08,0,.35.17a1.08,1.08,0,0,1,.77-.76,11.52,11.52,0,0,1,.68,3.51c0,1,0,3.12-1.24,3.05.36.84.91.1,1.13-.38.44-1,0-1.32.53-1.85l.54.17c-.31-.93-.76-1.2-.72-2.4-.25-.3-.17-.51-.22-.92-.13-1-1.12-2.21-.21-2.49.36-.06.28-.07.52.14a4,4,0,0,1,.31.41l.31.35c-.32-.95-.08-.2.05-.45.56,0,.27,0,.65-.24,1.09,1,2.54,5.18,1.76,7.08l-.7-.17s0,.39.78.52c.92-1.22-.27-3.34.2-4.33.55-.1.29-.12.81.1-.52-.8-1.44-.71-1.68-2.19,0,0,0-.09-.05-.07s-.08-.12-.1-.15l-.65-.84L16,27.79c.7.18.66.45.7.67l.17-.2.89-.23a7.71,7.71,0,0,1,2,2.46c.09.17.16.32.25.48l.32.48.07.07c0-.82-.44-.35-.12-1.17l.74.07a.74.74,0,0,0-.22-.21,2,2,0,0,0-.32-.2c-.31-.19-.23-.06-.46-.36l-.53-.26s0-.05-.06-.06l-.12-.13-.06-.06L19.1,29,19,28.93a4,4,0,0,0-1.21-1.18c0-.29.05-.89.1-1.12s0-.27.23-.35c.57-.22.35.14.35.14.69-.55.08-.19,1.14-.44a8.39,8.39,0,0,1,2.11.77c.71.33,1.09.94,1.75,1.32-.36-.57-.17-.14-.25-.74a5.56,5.56,0,0,1,2.49.17,3.84,3.84,0,0,0,2.33-.33L29.32,27a4,4,0,0,0,1.83-.8,1,1,0,0,0,.28-.42c.17-.9-.06-.4-.19-.52l0,.58a4.81,4.81,0,0,1-4.06.92v.44a16.35,16.35,0,0,1-4.67-.56,5.29,5.29,0,0,1-1.07-.39l-.87-.36-.09,0a2.36,2.36,0,0,1-.39-.22l-.3-.22a1.24,1.24,0,0,1-.16-.4c-.12-.76-.07-.38.13-.54,1.17-.09,3,.14,4.34.15a15.33,15.33,0,0,1,4.49.27L29,25c-.16-.27,0-.08-.25-.35l-.07-.07-.31-.27a14.69,14.69,0,0,0,3.47-1.06,11,11,0,0,0,1.22-1c.35-.29,1.1-.79.5-1.44.09,1.36-2.24,2.51-3.72,2.89-1,.24-5.07.79-5.92.44l-.42.14-.21-.18-.3.09-.31-.1c-.47.14-.38.22-.62-.08-.36-.13-.48-.42-.74-.76v-.41c-.47,0-.38-.08-.79-.25l.57-.4c.18-.07.45-.14.64-.21a4.14,4.14,0,0,1,1.66-.13c4.4.05,8-1.06,10.12-1a.93.93,0,0,0-.7-.26c.37-.84.32,0,.89-1.12.31-.65.43-.5,1.12-.9.39-.23,2-1.52,1.31-2.1H34.85a1.11,1.11,0,0,1,.73-1.07A6.29,6.29,0,0,0,38,13.14l-.25-.24C37.5,14,35.3,15.47,34,16.07a23.11,23.11,0,0,1-5.39,1.6,2.33,2.33,0,0,1-.65.24l-.12,0-.11,0-.1,0h-.11l-3.33.39-.61,0-.83.08c-.31-.51-.34-.39-.88-.74l.54-.38.06-.08.06-.07c.6-.34.7-.75,1.41-.89,2.28-.46,3.18-.5,5.78-1.21,2.12-.59,3.56-1.28,5.36-1.67l1.61-.34A1.61,1.61,0,0,0,37,13l-.74,0H36l-.08,0,0-.18c.46-.37.76-.37,1-.81.54-.84,0-.1,1.19-1.06.45-.36,1.54-1.41,1.41-2.14l-.09-.16c-.57-.54,0,0-.12,0C39.38,10,37.13,11,36,11.85c.11.08,0,.05.25.15h.2a22.86,22.86,0,0,1-6.59,2.61l-.16.07-.18.06L26,15.56l-.1,0L23.76,16a.3.3,0,0,1,0-.1.77.77,0,0,1,0-.1s0-.14,0-.17c-.06-.29,0-.1-.18-.33L23.29,15c-.14-.17.16,0-.17-.24.25-.3.07-.08.35-.21A6.35,6.35,0,0,0,24.2,14c.84-.83,1.06-.54,2.77-.91a23.14,23.14,0,0,0,5.69-1.93,15,15,0,0,1,3.25-1.66,7.81,7.81,0,0,0,1.76-.77c-.92.28-.23.07-.52-.09,0-1.58,1.12-1.25,2.18-3.1.1-.19.21-.4,0-.62s.06-.12-.26-.16c-1-.1-.16-.08-.49.17h.62C38.91,6.21,36.42,8.26,35.41,9c-.82.61-3.93,2.68-5.14,2.67-.1.09-.05.09-.23.19l-.18.07c-.32.09-.14,0-.41,0a14.75,14.75,0,0,1-3.29.93c-.84.18-.91.08-1.75-.56-.24-.19,0-.07-.31-.18a2.76,2.76,0,0,1-.48-.11l.27-.2c.81-.27.87-.7,1.71-.93a33,33,0,0,0,6-2.17,36.57,36.57,0,0,0,5.16-3,6.18,6.18,0,0,1,.9-.43l.7-.31s.07,0,.09-.06.05,0,.08-.06L37.88,5c.18-.38.26-.28.5-.55s0-.19.31-.64c.13-.2,0-.06.27-.27l.31-.18.32-.17c.29-.17,0,0,.29-.19A3,3,0,0,0,40.5.15a.37.37,0,0,0-.06-.1c.23,2-.76,3.48-2.69,3.55.22.24.3.24.54.51-.41.73-5.51,3.94-6.81,4.24Z"/><path class="cls-2" d="M3.6,23.89c-.11,2.34,1.6.48,2.21.15-.15.79-.35,1.66.74,1.87.77-.37.87-1.38,1.23-2.14.37.64-.26,1.62,1.23,1.51.5-.49.43-1.22.5-2l.21.57c.13.27,0,.21.35.37,1.69.89,1-1.52,1.06-2.11.43.48.83,1.36,2,.71.39-.72-.5-1.65-.22-2.15.25.31.37.66.78.75a1,1,0,0,0,1-.35c.82-1.19-.86-1.47-1.14-1.72.81,0,1.65.12,1.84-.64s-.65-1.09-1.1-1.23c.46-.52,1.32-.47,1.45-1.42a1.21,1.21,0,0,0-.34-1c-.34-.28,0-.07-.73-.24l-.17-.06a2.81,2.81,0,0,0,1.53-2.14c.16-1-.31-.78-.41-.79-.22.27-.9.76-1.2,1a6.06,6.06,0,0,0-1.16,1.3,7.7,7.7,0,0,0-1,3.9c-.23,2.28-1,1.71-2.11,2.67a25.61,25.61,0,0,0-2.31,2.59c-.07-.24,0,.11,0-.18s0-.15-.09-.29C6.64,23,5.3,22.8,4.1,23l-.5.94Z"/><path class="cls-2" d="M22.83,9.31a1.63,1.63,0,0,0-.11.17l-.07.09-.07.11,2.65-.1,7.67-4a23.28,23.28,0,0,1,2.53-1.4,38.38,38.38,0,0,1-4.77,3l.65.42-1-.11a1.44,1.44,0,0,1,.93.3l.16.12A8.46,8.46,0,0,1,30,7.74l1.19.3c-.14.1.18.16-.49.15l.82.15c1.3-.29,6.4-3.5,6.81-4.23-.24-.27-.32-.27-.54-.51,1.93-.07,2.92-1.52,2.69-3.55-.91-.36-3.11,1.31-4.32,2-2.21,1.33-11.28,7-13.29,7.22Z"/><path class="cls-2" d="M21.38,20c1.11.47,6.54-.35,8.17-.62a24,24,0,0,1,2.51-.43,53.37,53.37,0,0,1-6,1.21c-.27.44.15-.45,0,.19-.09.32.14,0-.11.27l-.53-.36c.29.28.29.21.48.61-.51-.18-.71-.45-1-.52a1.94,1.94,0,0,1,.7.84c-.79-.41-.92-.7-1.32-.85.23.26.15.14.41.36,1.08.89.14.58,1.86.64a16,16,0,0,0,6.78-1.59l-.61-.36c1.3-.23,3.41-1.77,3.45-2.87-1.39.37-2.43.09-4,.7a31.77,31.77,0,0,1-7.51,1.6c-2.76.24-1.18-.16-2.63.78a3.29,3.29,0,0,0-.62.4Z"/><path class="cls-2" d="M37.67,8.74a7.81,7.81,0,0,1-1.76.77,15,15,0,0,0-3.25,1.66A23.14,23.14,0,0,1,27,13.1c-1.71.37-1.93.08-2.77.91a6.35,6.35,0,0,1-.73.56c.77.36,6.8-1.27,8.25-1.78.75-.26,1.9-.79,2.61-.95-1.1.85-2.89,1.19-4.4,1.84-.39.3.2-.29-.15.74L28.89,14c.27.12.54.5,1,.66A22.86,22.86,0,0,0,36.46,12h-.2c-.25-.1-.14-.07-.25-.15C37.13,11,39.38,10,39.3,8.48Z"/><path class="cls-2" d="M23.89,11.82c.13.1-.2.27,1.11,0l1.12-.22a26.55,26.55,0,0,0,4.27-1.36c.66-.26,1.43-.63,2-.81a8.49,8.49,0,0,1-2.59,1.34l.21.15c.27.19.19-.38.24.4,0,0-.1,0-.11.06l-.29.22c.17.07-.15.1.4.07,1.21,0,4.32-2.06,5.14-2.67,1-.74,3.5-2.79,3.83-4.06h-.62l-.13,0s-.07,0-.08.06-.07,0-.09.06l-.7.31a6.18,6.18,0,0,0-.9.43,36.57,36.57,0,0,1-5.16,3,33,33,0,0,1-6,2.17c-.84.23-.9.66-1.71.93Z"/><path class="cls-2" d="M22.53,17.21c.14.24,0,.24,1.15.06l3.48-.57a44.46,44.46,0,0,1,4.46-.89L29,16.59a1.57,1.57,0,0,0,.64.57,2.48,2.48,0,0,1-.41.08c-.27.06.17.19-.42,0-.35-.1-.54-.35-.87-.42l.55.58A11.23,11.23,0,0,1,27.35,17a6.39,6.39,0,0,0,1.26.71A23.11,23.11,0,0,0,34,16.07c1.3-.6,3.5-2,3.76-3.17L37,13a1.61,1.61,0,0,1-.3.15l-1.61.34c-1.8.39-3.24,1.08-5.36,1.67-2.6.71-3.51.75-5.78,1.21-.71.14-.81.55-1.41.89Z"/><path class="cls-2" d="M21.31,22.85c1.26,0,2.63.11,4,.07s2.64-.26,3.87-.26c-.87.48-3.57.56-4.8.61.06.1.15.14,0,.39l-.65-.39.4.63c-.44-.25-.49-.49-.88-.63l.67.88c.85.35,4.95-.2,5.92-.44,1.48-.38,3.81-1.53,3.72-2.89l-.05.05c-2.15-.07-5.72,1-10.12,1a4.14,4.14,0,0,0-1.66.13c-.19.07-.46.14-.64.21l-.57.4c.41.17.32.24.79.25Z"/><path class="cls-2" d="M22.53,26.68a16.35,16.35,0,0,0,4.67.56V26.8a4.78,4.78,0,0,0,4.06-.93l0-.57-2.63-.36a15.33,15.33,0,0,0-4.49-.27c-1.31,0-3.17-.24-4.34-.15,0,.35-.2.07.29.31,2.28,1.12,5.82,1,8.19,1.33a31.35,31.35,0,0,1-5.34-.25c-.3.31,0,.18-.15.53l-.43-.56s0,0-.07-.06l.26.86Z"/><path class="cls-2" d="M21.18,10.12l-4.05,1.31c-.45.46-.49.07-.69.66.26.18-.45.39,1.13-.14a17,17,0,0,1,3.71-.69c-.32.11-1,.18-1.39.26l-2.81.77c-.69.26-.67.25-.84,1,.71.55,1.64,1.2,1.78,0l-.72-.25c.45-.23,5.46-.61,7.55-2.22a2.21,2.21,0,0,0,.37-.38c.25-.52,0-.37-.06-.41-.5-.4-3.18,0-4,.06Z"/><path class="cls-2" d="M14.75,29.71c.48,1.63,1.56,3,1.79,4.93-.13-.16-.08,0-.23-.35a26.44,26.44,0,0,0-1.72-3.92,3,3,0,0,1-.44,1.39l.24-2c-.14.41-.2.87-.31,1.32A3.12,3.12,0,0,0,14,32.67c0,1.2.41,1.47.72,2.4.21-.06.11,0,.21-.12l.23-.24a6.76,6.76,0,0,0,1.18,1.5c.19.22.07.07.13.17l.7.17c.78-1.9-.67-6-1.76-7.08-.38.23-.09.23-.65.24Z"/><path class="cls-2" d="M20.57,28.48c.13.22.05-.26.14.32a1.4,1.4,0,0,1,0,.54c-.32-.17-.06,0-.33-.22l-.29-.27-.06.37,0,.43c.23.3.14.17.46.36a2,2,0,0,1,.32.2.74.74,0,0,1,.22.21l1,.31a2.46,2.46,0,0,0-.23-.65c.59.35,2.17,1.62,3.19.73.49-1.06-1.32-2.22-1.39-2.74-.66-.38-1-1-1.75-1.32A8.39,8.39,0,0,0,19.65,26s-.08,0-.09.06-.07,0-.09.05l-.08.05-.34.19a13.73,13.73,0,0,1,4.22,3.38,7.84,7.84,0,0,1-1.34-1.05,8.63,8.63,0,0,0-1.42-1l.06.85Z"/><path class="cls-2" d="M12,31.16c-.16.37-.4.9-.59,1.32l-.27.58c-.17.37-.09.29-.39.54a3.45,3.45,0,0,0,.23,1.68l.17.15.21-.62a5.22,5.22,0,0,0,1.2,2.32c1.25.07,1.26-2.1,1.24-3.05a11.52,11.52,0,0,0-.68-3.51,1.08,1.08,0,0,0-.77.76c-.43-.15-.21.15-.35-.17Z"/><path class="cls-2" d="M18.46,15.3c5.87-.17,7.17-2.74,4.92-3l-4.91,1c-.3.66-.13.53-.6,1A1.94,1.94,0,0,1,18.46,15.3Z"/><path class="cls-2" d="M16.85,28.26l.34.24A16.3,16.3,0,0,1,19.37,32c-.47-.37-1.49-2.27-1.88-2.52a1.75,1.75,0,0,1,0,.4c-.23.6-.06.22-.3.48l0-1.34c.15.22-.11.81-.31,1.06l-.24.37c.24,1.48,1.16,1.39,1.68,2.19.7.13,1.61,1.37,2.64,1.15,0-1.13-.5-1.62-.52-2.3l-.07-.07L20,31c-.09-.16-.16-.31-.25-.48a7.71,7.71,0,0,0-2-2.46l-.89.23Z"/><path class="cls-2" d="M9.64,30.6a17.19,17.19,0,0,1-.27,3.46c-.23,1.21-.15.74-.43,1a20.17,20.17,0,0,0,.35-3.84,4.26,4.26,0,0,1-.44.49l-.58.49c-.57.45-.78,1.93-.72,2.84l0,.69c.31.35.19.73.68,1.25,1.71,0,2.39-4.47,2-6.54-.39-.07-.41,0-.66.16Z"/><path class="cls-3" d="M25.23,9.58c.46.2.28,0,.41.45a.61.61,0,0,1-.1.52l.75-.13c0-.24.27-.4-.24-.21a1.87,1.87,0,0,0,1-.06l.09,0,4.17-1.69.08,0,.08-.05-.82-.15c.67,0,.35,0,.49-.15L30,7.74a8.46,8.46,0,0,0,1.44.18l-.16-.12a1.44,1.44,0,0,0-.93-.3l1,.11-.65-.42a38.38,38.38,0,0,0,4.77-3,23.28,23.28,0,0,0-2.53,1.4l-7.67,4Z"/><path class="cls-2" d="M7.45,31a10.82,10.82,0,0,1-.68,2.06,5,5,0,0,1-1,1.69A31.2,31.2,0,0,0,7,31.36a4.58,4.58,0,0,1-1.31,1c.6-.84-.43.14,1-1.58l-.31,0c-.57.17-.8.78-1.16,1.25a2,2,0,0,0-.68,1.77c.65-.57.15-.32.35-.24a4.08,4.08,0,0,0,.13,2.35c1.35-.07,3.37-3.86,3.1-5.89-.56.1-.65.37-.72.95Z"/><path class="cls-3" d="M23.47,14.57c-.28.13-.1-.09-.35.21.33.22,0,.07.17.23l.25.25c.22.23.12,0,.18.33,0,0,0,.15,0,.17a.77.77,0,0,0,0,.1.3.3,0,0,0,0,.1l2.12-.38.1,0,3.55-.81.18-.06.16-.07c-.44-.16-.71-.54-1-.66l.89.46c.35-1-.24-.44.15-.74,1.51-.65,3.3-1,4.4-1.84-.71.16-1.86.69-2.61.95-1.45.51-7.48,2.14-8.25,1.78Z"/><path class="cls-2" d="M18.23,17.48c2.55.29,5.53-.9,5-1.88-.28-.5-3.29-.14-4.09,0-1.15.13-.3.37-1.48,1.08.4.38.27.32.59.84Z"/><path class="cls-3" d="M22.53,17.21l-.06.07-.06.08-.54.38c.54.35.57.23.88.74l.83-.08.61,0L27.52,18h.11l.1,0,.11,0,.12,0a2.33,2.33,0,0,0,.65-.24A6.39,6.39,0,0,1,27.35,17a11.23,11.23,0,0,0,1.12.46l-.55-.58c.33.07.52.32.87.42.59.17.15,0,.42,0a2.48,2.48,0,0,0,.41-.08,1.57,1.57,0,0,1-.64-.57l2.64-.78a44.46,44.46,0,0,0-4.46.89l-3.48.57C22.55,17.45,22.67,17.45,22.53,17.21Z"/><path class="cls-2" d="M3.78,30c-.93.1-1.37.77-1.53,1.76.38-.22.25-.33.44-.23L2.33,32l-.12.86,0,1c1,.23,2-1.09,2.34-1.56a7.78,7.78,0,0,0,1.49-2.3l-.17-.35a12,12,0,0,1-3,3.62l2.26-3A4.87,4.87,0,0,1,3.83,31l.32-.55s0,0-.08-.05L4.56,30,3.78,30Z"/><path class="cls-3" d="M23.89,11.82l-.27.2a2.76,2.76,0,0,0,.48.11c.31.11.07,0,.31.18.84.64.91.74,1.75.56a14.75,14.75,0,0,0,3.29-.93c-.26-.57-.53-.18-.8-.7l.92.34c-.44-.49-.15-.32-.49-.43l.76.22-.07-.09c-.48-.52-.2-.34-.36-.29a.76.76,0,0,1,.31,0c.36,0,.13.16.31-.12l-.21-.15a8.49,8.49,0,0,0,2.59-1.34c-.59.18-1.36.55-2,.81a26.55,26.55,0,0,1-4.27,1.36L25,11.82c-1.31.27-1,.1-1.11,0Z"/><path class="cls-2" d="M3.09,26.1c0,.07.07.62.89.13.28-.16.43-.32.71-.46-.05.73-.44.52,0,1.56,1.08.09.83-.58,1.61-.74,0,.56-.22,1.1.26,1.23.84.24,1.79-1.72,1.46-2.42-1.06-.16-.42.9-1.59.82l-.69-.31c-.25-.25-.35-.71-.55-.79-.59,0-.49.22-1,.23s-.35-.15-.92-.22c-.07.44-.27.46-.21,1Z"/><path class="cls-2" d="M17.54,18.55a12.78,12.78,0,0,1,3,.14l-2.69,0,.25.91c1.45.35,4.12-.09,4.3-1.27-.79-.56-3.06-.63-3.94-.53s-.77.77-.85.62-.05.07-.07.1Z"/><path class="cls-2" d="M12.33,23.31a.69.69,0,0,0,0,.1s0,.07,0,.1a.36.36,0,0,0,0,.1l.22,1A6.19,6.19,0,0,1,12.66,26c-.13-.51-.21-.94-.36-1.53-.34-1.32-.34-1.11-.71-1.1a8.16,8.16,0,0,0,.11,2.57c0,.75,0,2,1.18,1.62.8-.24.63-1.5.44-2.29-.27-1.14-.4-1.81-1-1.91Z"/><path class="cls-3" d="M21.38,20c-.14.12-.32-.14,0,.28s.53,0,.68,0c0,.32,0,.33.27.57.91.85,1,.63,1.52.63a10.93,10.93,0,0,0,2.67-.11c-1.72-.06-.78.25-1.86-.64-.26-.22-.18-.1-.41-.36.4.15.53.44,1.32.85a1.94,1.94,0,0,0-.7-.84c.3.07.5.34,1,.52-.19-.4-.19-.33-.48-.61l.53.36c.25-.29,0,.05.11-.27.18-.64-.24.25,0-.19a53.37,53.37,0,0,0,6-1.21,24,24,0,0,0-2.51.43c-1.63.27-7.06,1.09-8.17.62Z"/><path class="cls-2" d="M10.83,28.56c.57,4.69,2.91.8,2.46-.47-.17-.48-.25-.17-.95-.25s-.33-.09-.72-.35C11.25,28.36,11.21,28,10.83,28.56Z"/><path class="cls-2" d="M22.31,21c-.86-.34-3.22-1.19-4.35-1-.13.35.11.44.29.74a19.83,19.83,0,0,1,2.61.36L18.3,21l-.09.9c1.19.07,3.64.12,4.1-.88Z"/><path class="cls-2" d="M14.91,26.38c1.41-.86-.71-3.56-1.29-3.8-.08.85.89,1.19,1,2.5A9.84,9.84,0,0,0,14.11,24c-.38-.72-.44-.83-.92-.82-.22.37,0,.51.14,1,.41,1.08.38,2.86,1.58,2.26Z"/><path class="cls-2" d="M17.64,23.14c-.08.7-.18.63.53.79.88.19,2.51.29,2.83-.66a6.47,6.47,0,0,0-2.93-1.08c-.72,0-1.16.81,1.6,1.27A13,13,0,0,1,17.64,23.14Z"/><path class="cls-3" d="M23.29,24.11a1.55,1.55,0,0,0-.67-.84c.4.37.31.49.91.72C23.34,24.2,23.61,24.05,23.29,24.11Zm-.61,0a2.93,2.93,0,0,0-.77-1c.12.19.13.06.39.34s.17.37.55.52c-.09.17.14,0-.17.09Zm-1.37-1.25v.41l.86.78-.12,0c.24.3.15.22.62.08l.31.1.3-.09.21.18.42-.14-.67-.88c.39.14.44.38.88.63l-.4-.63.65.39c.14-.25.05-.29,0-.39,1.23-.05,3.93-.13,4.8-.61-1.23,0-2.57.22-3.87.26s-2.73-.1-4-.07Z"/><path class="cls-3" d="M18.51,26.42l.26.07c.32.45.21.57.22.64l.21,1.31c.06.69.16.35-.16.49l.06.07.12.14.06.06.12.13s0,0,.06.06l.53.26,0-.43A5.94,5.94,0,0,1,19.7,27l.46,1.73V27.38l.33,1.46.09-.36-.06-.85a8.63,8.63,0,0,1,1.42,1,7.84,7.84,0,0,0,1.34,1.05,13.73,13.73,0,0,0-4.22-3.38l.34-.19.08-.05s.08,0,.09-.05.06,0,.09-.06c-1.06.25-.45-.11-1.14.44Z"/><path class="cls-2" d="M10.49,24.66c-.45.14-.23.73-.55,1.88-.57,2.06,1.34,2.21,1.46.18a8.57,8.57,0,0,0-.05-1.24c-.09-.89-.24-.75-.37-.83-.38.56,0,1.11-.34,2.16,0-.63.17-1.66-.15-2.15Z"/><path class="cls-2" d="M16.05,25.51c-1.45,1.24.88,2.32,1.34,2.32a2.71,2.71,0,0,0-.76-3.06Z"/><path class="cls-3" d="M22.53,26.68l-.26-.86s.06,0,.07.06l.43.56c.17-.35-.15-.22.15-.53a31.35,31.35,0,0,0,5.34.25c-2.37-.35-5.91-.21-8.19-1.33-.49-.24-.26,0-.29-.31-.2.16-.25-.22-.13.54a1.24,1.24,0,0,0,.16.4l.3.22a2.36,2.36,0,0,0,.39.22l.09,0,.87.36a5.29,5.29,0,0,0,1.07.39Z"/><path class="cls-3" d="M16.57,30.48l.24-.37c.2-.25.46-.84.31-1.06l0,1.34c.24-.26.07.12.3-.48a1.75,1.75,0,0,0,0-.4c.39.25,1.41,2.15,1.88,2.52a16.3,16.3,0,0,0-2.18-3.53l-.34-.24-.17.2c0-.22,0-.49-.7-.67l-.21,1.63.65.84s.06.25.1.15,0,.05.05.07Z"/><path class="cls-2" d="M16.19,16c2.12.79,2.62-.63.9-1.76-.64-.42-1-.81-1.32,0a7.38,7.38,0,0,0,1,.61,2,2,0,0,1,.67.69,3.48,3.48,0,0,0-1.92-1.06C15.86,15.07,16.05,14.89,16.19,16Z"/><path class="cls-2" d="M14.52,28.18a6.4,6.4,0,0,0-.59-1.55l0,.06-.16.31s-.17.43-.17.43c-.14.5.61,1.93,1.36,2,.58-.61.44-1.86.37-2.73l-1,.1Z"/><path class="cls-2" d="M5.67,27.45a2.63,2.63,0,0,1-.89,1.22l.51-1c-.23,0-.21.07-.44,0s-.07,0-.24-.2a3.8,3.8,0,0,1-.38-.08c-.13.62-.54,1.44-.13,2s1.35-.08,1.69-.39c.69-.61.23-1.07.14-1.72Z"/><path class="cls-2" d="M6.85,29.87a6.82,6.82,0,0,0,.86-2.13l-1.09.53c-.12-.23-.56,1.69-.08,2s2.77-1.59,1.28-2.19A5.79,5.79,0,0,1,6.85,29.87Z"/><path class="cls-2" d="M9,25.64c-.78,0-.37-.31-.89,1.28-.18.57.08,1.45.78,1s1-2.5,1-3.5c-.76.42-.59,2-1.11,2.79A3.63,3.63,0,0,0,9,25.64Z"/><path class="cls-2" d="M9.32,30c.16-.75.74-1.31.28-2.14a1.82,1.82,0,0,0-.84,2.43c.24.19-.31.11.38.14s1.68-1.34,1.22-1.94c-.62-.05-.21-.21-.48.24A6.75,6.75,0,0,1,9.32,30Z"/><path class="cls-2" d="M15.14,19.71c.27.33.56.37,1,.6a4,4,0,0,1,.95.61l-1.83-.82c0,.68.48.66,1,1a6.79,6.79,0,0,1,1,.89c1-.43.58-1.3-.1-1.7-.42-.25-1.62-.86-2.13-.59Z"/><path class="cls-2" d="M15.15,20.93l.18.33a4.23,4.23,0,0,1,1.48,1.58l-.88-1c-.38-.34-.69-.65-1.15-.46.16.44.29.36.61.63,1.35,1.11,1,1.31,1.36,2.16C18.27,23,16.54,21.19,15.15,20.93Z"/><path class="cls-2" d="M.29,30.89c.05.46-.15.19.12.38a3,3,0,0,0,.7-.36L2.64,29.4c-.36-.34-.23.18-.35-.21,0,0-.06,0-.09-.05.4-.26.26,0,.35-.64l-.83.07H1.58l-.91,1.2c.15.57,0-.07.23.52-.27.21-.38.47-.61.59Z"/><path class="cls-2" d="M13.82,22.24A6.17,6.17,0,0,1,15,23.56c.33.48.6,1.5.77,1.73,1.62-1.4-.51-3.12-1.26-3.43l-.4,0c.48.19.15.06.45.42s.92.65,1.22,1.64c-.47-.33-.87-1-1.5-1.48s-.32-.4-.46-.18Z"/><path class="cls-2" d="M17.41,24.07c.23.47.49.55,1.14,1-.58-.17-.86-.75-1.53-.68a1.82,1.82,0,0,0,2.36,1.36A1.26,1.26,0,0,0,19,24.5a4.23,4.23,0,0,0-1.55-.43Z"/><path class="cls-2" d="M17.07,16.68c-1.17-.67-1.08-.1-1.17.08l.25.13c.43.19.4.08.84.46-.64-.22-1-.47-1.72-.12.15.62.52.54,1.22.77,1.31.44,1.91-.57.58-1.32Z"/><path class="cls-3" d="M3.78,30l.78.05-.49.36s.07,0,.08.05L3.83,31a4.87,4.87,0,0,0,1.31-.66l-2.26,3a12,12,0,0,0,3-3.62l.17.35,0-.64-.59.22c-1.28.52-1.45-.09-1.66.32Z"/><path class="cls-2" d="M2,27.21l-.11.84a2.9,2.9,0,0,0,1.62-.2c.49-.22.59-.76.63-1.26-.66.19-.59.12-1.06.58-.16.16-.45.53-.73.56l.81-.89c-.17-.27-.2-.36-.5-.43l-.66.8Z"/><path class="cls-4" d="M19,28.93c.32-.14.22.2.16-.49L19,27.13c0-.07.1-.19-.22-.64l-.26-.07s.22-.36-.35-.14c-.2.08-.17.1-.23.35s-.06.83-.1,1.12A4,4,0,0,1,19,28.93Z"/><path class="cls-3" d="M10.7,33.6c.3-.25.22-.17.39-.54l.27-.58c.19-.42.43-.95.59-1.32-1.15-.19-.62-.68-1.22-1-.38.5-.1.37,0,.86C10.78,31.77,10.59,32.65,10.7,33.6Z"/><path class="cls-2" d="M17.17,18.68c-.47-.34-.93-.59-1.35-.32.17.31,0,.22.3.4a3.72,3.72,0,0,1,1.07.65,4.82,4.82,0,0,0-1.44-.58l-.2.39a9.79,9.79,0,0,0,2.07.74,1,1,0,0,0-.45-1.28Z"/><path class="cls-3" d="M7.45,31s-.28.12-.3.14a3.2,3.2,0,0,1,.24-.57l-.59.08c-.31.06-.18-.1-.37.16l.31,0c-1.45,1.72-.42.74-1,1.58a4.58,4.58,0,0,0,1.31-1,31.2,31.2,0,0,1-1.25,3.39,5,5,0,0,0,1-1.69A10.82,10.82,0,0,0,7.45,31Z"/><path class="cls-3" d="M8.27,32.2l.58-.49a4.26,4.26,0,0,0,.44-.49,20.17,20.17,0,0,1-.35,3.84c.28-.26.2.21.43-1a17.19,17.19,0,0,0,.27-3.46c-.19.25-.19-.38-.18.47C8.81,30.3,8.1,31.41,8.27,32.2Z"/><path class="cls-3" d="M14,32.67a3.12,3.12,0,0,1,.09-1.54c.11-.45.17-.91.31-1.32a4,4,0,0,0-.31-.41c-.24-.21-.16-.2-.52-.14-.91.28.08,1.47.21,2.49.05.41,0,.62.22.92Z"/><path class="cls-3" d="M14.75,29.71c-.13.25-.37-.5-.05.45l-.31-.35-.24,2a3,3,0,0,0,.44-1.39,26.44,26.44,0,0,1,1.72,3.92c.15.33.1.19.23.35C16.31,32.75,15.23,31.34,14.75,29.71Z"/><path class="cls-5" d="M2.64,29.4,1.11,30.91c.32,0,.16.14.53,0s.22-.2.3-.32c-.19-.13-.43.17.26-.51l1.36-1.51,0,.79c.22-.2.12.12.15-.45a1.28,1.28,0,0,0,0-.56l-.63,0c.16.31.05.16,0,.36v.13c-.08.48,0,.35-.37.58Z"/><path class="cls-3" d="M13.82,22.24c.14-.22-.05-.22.46.18s1,1.15,1.5,1.48c-.3-1-.85-1.2-1.22-1.64s0-.23-.45-.42l.4,0-.22-.22a1.59,1.59,0,0,0-.57.28C13.56,22.51,13.64,22.07,13.82,22.24Z"/><path class="cls-2" d="M1.94,30.61a13,13,0,0,0,1.6-1.23l0-.79L2.2,30.1C1.51,30.78,1.75,30.48,1.94,30.61Z"/><path class="cls-4" d="M20,29.22l.06-.37.29.27c.27.23,0,.05.33.22a1.4,1.4,0,0,0,0-.54c-.09-.58,0-.1-.14-.32l-.09.36-.33-1.46v1.39L19.7,27A5.94,5.94,0,0,0,20,29.22Z"/><path class="cls-4" d="M29.45,11.94c.27,0,.09.08.41,0l.18-.07c.18-.1.13-.1.23-.19-.55,0-.23,0-.4-.07l.29-.22c0-.05.07,0,.11-.06-.05-.78,0-.21-.24-.4-.18.28,0,.12-.31.12a.76.76,0,0,0-.31,0c.16-.05-.12-.23.36.29l.07.09-.76-.22c.34.11.05-.06.49.43l-.92-.34c.27.52.54.13.8.7Z"/><path class="cls-6" d="M1.72,28.57l.83-.07c-.09.6.05.38-.35.64,0,0,.08,0,.09.05.12.39,0-.13.35.21.34-.23.29-.1.37-.58v-.13c0-.2.15-.05,0-.36a4.64,4.64,0,0,1-.64,0l-.36,0c-.31.09-.12-.05-.29.2Z"/><path class="cls-5" d="M5.67,27.45a1.31,1.31,0,0,1-1.06.05c.17.2-.07.1.24.2s.21,0,.44,0l-.51,1A2.63,2.63,0,0,0,5.67,27.45Z"/><path class="cls-6" d="M21.27,24.09c.28,0-.16.06.29,0l.21-.08c-.22-.4-.19-.63-.75-.14l-.17.14c.1.08,0,0,.18.06l.24,0Z"/><path class="cls-4" d="M15.65,29.22c.1-.15.1,0,.17-.41,0-.09,0-.47,0-.57l-.09.08-.08.08c-.44.68,0,.81,0,.82Z"/><path class="cls-4" d="M25.26,13c-.08-.09,0-.11-.21-.2s-.09,0-.32-.09C24.86,13.31,25,13.1,25.26,13Z"/><path class="cls-6" d="M8.39,31.28c.44-.17.35-.1.53-.55C8.52,30.84,8.5,30.88,8.39,31.28Z"/><path class="cls-2" d="M22.06,24l.12,0-.86-.78c.26.34.38.63.74.76Z"/><path class="cls-2" d="M22.68,24.1c.31-.05.08.08.17-.09-.38-.15-.29-.22-.55-.52s-.27-.15-.39-.34a2.93,2.93,0,0,1,.77,1Z"/><path class="cls-2" d="M23.29,24.11c.32-.06.05.09.24-.12-.6-.23-.51-.35-.91-.72A1.55,1.55,0,0,1,23.29,24.11Z"/></g></g></g></svg>