<svg xmlns="http://www.w3.org/2000/svg" viewBox="0 0 49.13 16.37"><defs><style>.cls-1{fill:#2b2a29;fill-rule:evenodd;}</style></defs><g id="Слой_2" data-name="Слой 2"><g id="Слой_1-2" data-name="Слой 1"><path class="cls-1" d="M37.59.09c-4.11.44-10.74,3.29-9.92,6.72.95,4,6.82-1,12.3-1.5,2.36-.21,5.22,0,6.35,1.58,2.56,3.57-2.51,9.91-15.88,3.74-4-1.86-7-4.15-10.54-6.3S12.13-.16,7,.74C-3.43,2.59-2.5,17.5,11.73,16.3c3.5-.3,10.76-3.45,9.45-7.08s-9.25,1-12.12,1.68C-3.12,13.65,1.64-3.53,18.74,6.08c4.49,2.52,6.76,4.5,10.3,6.54,3.72,2.14,8.15,4,13.28,3.15C53,14.05,50.84-1.32,37.59.09Z"/></g></g></svg>