<svg xmlns="http://www.w3.org/2000/svg" viewBox="0 0 42.87 42.63"><defs><style>.cls-1{fill:#fbfbfb;}.cls-1,.cls-2,.cls-3,.cls-4,.cls-5,.cls-6,.cls-7{fill-rule:evenodd;}.cls-2{fill:#040404;}.cls-3{fill:#3e3e3d;}.cls-4{fill:#828282;}.cls-5{fill:#9ac219;}.cls-6{fill:#adadad;}.cls-7{fill:#636363;}</style></defs><g id="Слой_2" data-name="Слой 2"><g id="Слой_1-2" data-name="Слой 1"><g id="_3015518026592" data-name=" 3015518026592"><path class="cls-1" d="M11.69,9.67l.12,0,.35.07,0,.64,0,0c-.22.2.11,0-.22.19l-.27-.34-.13,0-.18.7c-.15.07,0,.1-.32,0l0,.34c-.06.12,0,0-.17,0s-.06-.23-.29.1-.06.07-.22.28-.1.07-.2.28l.38.33c.13.09.19.11.34.2a19.44,19.44,0,0,1,4.47,3.94,5.45,5.45,0,0,1-.93-.93,25,25,0,0,0-3-2.44c-.57-.42-1.57-1.21-2.32-.73-.38.24-.29.62-1,.83-1,.31-.4.46-1.59-.13.31.21.19.09.4.36s0,.17.38.38l3.22,1.36a34.23,34.23,0,0,1,3.88,2,1.52,1.52,0,0,1,.18.17l-4-2a40.56,40.56,0,0,0-4.16-1.73v-.07c-.08-.27-.7-.34-.79-.63l.65,0c-.17-.1-.36-.24-.56-.35l.92.15L6,12.12l.67,0c0-.11.07.14-.07-.05s-.1.14,0-.1c.43-.18.28-.06.57-.12a1.35,1.35,0,0,0-.72-.49.9.9,0,0,0,.6-.22l-.5-.1c.15,0,.56,0,.61,0,.43-.08.14,0,.27-.1.32-.19,0,.2.2-.23a5.28,5.28,0,0,1-1.57-.6,6.09,6.09,0,0,0-1.69-.55,5.27,5.27,0,0,0,.23,2l.12.4c.2,1.57.53.82,1.48,1.42-.55-.12-.61-.29-1.2-.19a3.44,3.44,0,0,0,1.25.56c-.42.16-.35.19-.52.58l-1,.24a4.61,4.61,0,0,0,1.14,1c0,.37-.13,0-.09.15s-.15,0,.08.09,0,0,.23.09c-.76.45,0-.21-.13.74a6.22,6.22,0,0,1-1.68-.6,6.26,6.26,0,0,0,.6.39c.3.15.63.21.89.33-.11.31,0,.08-.18.2s0-.28-.11.06l.63.32c.41.19.28,0,.24.2,0,0-.6.07.31.18,1.7,0,2.11-.48,5,0a18.29,18.29,0,0,1,4,1.33l.33-.31c.3-.38,0-.57-.26-.72a2.72,2.72,0,0,1,.44.1c0-.13-.05-.61-.05-.69L16.2,17a14.49,14.49,0,0,0-1-3.42,21.11,21.11,0,0,0-1-2A16.18,16.18,0,0,1,13,9.8c-.16-.12-.13-.17-.32-.21-.64-.16-.27-.34-1-.81l-.19.07a2.39,2.39,0,0,1,.84,1l-.54-.46c-.19.13-.19-.34-.14.31Z"/><path class="cls-1" d="M32.38,9.56c-.21.2.14-.08-.25,0l-.32.22c-.12.35-3.06,4.34-3.24,7.47.4-.18.21-.06.48-.35-.52,1.13-.15.65-.32,1.74l.29.25.06.06.14.14c1.08-.79,4.53-1.54,6.39-1.54.9,0,1.74.21,2.58.2s.32-.18.32-.19c0-.21-.18,0,.24-.21l.35-.27c0-.1-.19-.45.75-.49l.26-.25c.08-.08.19-.15.22-.18a2.9,2.9,0,0,1-1.46.44c0-.65,0,.18.05-.21.18-.88-.37-.16,0-.52a1.25,1.25,0,0,1,.37-.21c0-.15-.59.13.41-.65.22-.17.14-.17.33-.21-.11-.26.1-.06-.2-.15l-.76-.24c-.13-.25-.23-.4-.33-.61l-.19,0a4.27,4.27,0,0,0,1.25-.56c-.65-.12-.64.09-1.21.17l-1.32.49.08-.06.49-.46c.25-.33.08-.17.45-.43-1.08.61-.69.41-1.43.26a1,1,0,0,1-.57-.44,1.51,1.51,0,0,1,.75-.8l-.39.35c-.36.29,0,.14-.58.24l-.2,0c-.36-.57,0-.21-.49-.43-.18-.08-.2-.27-.89.15l-1.38.92a4.5,4.5,0,0,0-.45.31l-2.42,2-.36.4c-.11.13-.05.09-.15.18-.25.24,0,.06-.3.21.69-1.22,3.42-3.39,4.82-4.2l.39-.31-.34-.41a1.31,1.31,0,0,0-.61-.14c.15-.45,0-.07.21-.37h-.44c.08-.71.15-.52-.23-.55,0-.34-.07-.12-.49.12l-.25-.29h0c.14-.33.07-.24.39-.53a1.69,1.69,0,0,0,.37-.24l-.16-.16-.54.5c-.17-.12-.12.17-.17-.27Z"/><path class="cls-2" d="M5.59.85c0,.39-.12.41-.27.72a6.34,6.34,0,0,0-.26.81c-.29.78-.53,1-.68,1.55a13.42,13.42,0,0,0-.52,1.63c-.09.65-.14,1.3-.23,2l-.14.16c0,.29.18.13,0,1.14a6.6,6.6,0,0,0,.09,1.69c0,.38-.08.4,0,.77.16.73.51.86.32,1.32l0,.4c0,.21,0,.19-.31.35-.88.4.26.59-.63.34a2.57,2.57,0,0,1,.53,1.24c0,.45-.44.46.63,1.22l-.08,0-.26.15c-.32.18-.45-.06.27.42a1.12,1.12,0,0,1,.22.17c-.41-.14-.21-.14-.64-.06l.38.25c.38.23.55.28.73.56,0,.07.19-.08,0,.23,0,.07.06,0-.14.12s0,0-.3.1l-.35-.28s0,0,0,0l.51-.21c-.48-.17-.05,0-.28-.11l-.39-.23c-.29.46-.24.1-.62.35.15.05.16,0,.34.18s0,.24.25.39.67.27.84.38a2.53,2.53,0,0,1-1.15-.16l-.11.26.11-.05.79.21c.23.11.13,0,.29.19-.61,0-.74-.11-1.15.35l1-.08L4,19.69c1.48-.21.57-.2,1.25-.43.56,0,.12,0,.27-.09.61-.35.58-.15.89-.31l-.71-.22c-.09-.29,0,.24.08-.12,0,0,.31,0-.36-.38h.67l.51-.37c-.91-.11-.31-.17-.31-.18,0-.2.17,0-.24-.2l-.63-.32c.08-.34-.19.19.11-.06s.07.11.18-.2c-.26-.12-.59-.18-.89-.33a6.26,6.26,0,0,1-.6-.39,6.22,6.22,0,0,0,1.68.6c.14-.95-.63-.29.13-.74-.21-.07,0,.05-.23-.09s-.07,0-.08-.09.14.22.09-.15a4.61,4.61,0,0,1-1.14-1l1-.24c.17-.39.1-.42.52-.58A3.44,3.44,0,0,1,5,13.23c.59-.1.65.07,1.2.19-1-.6-1.28.15-1.48-1.42l-.12-.4a5.27,5.27,0,0,1-.23-2,6.09,6.09,0,0,1,1.69.55,5.28,5.28,0,0,0,1.57.6c.36.11,0-.08.22.19,0,0,0,0,0,0s0,0,0,0l.82.34a3.41,3.41,0,0,0,1,.43s0,0,0,0,0,0,0,0l0,0c.34-.31.32,0,.32,0s0,.27-.3-.12-.1,0-.25-.54c.52.07.55,0,.76.44,0-.86-.07-.13.33-.44.13.16,0,.23,0,.31.23-.33,0-.1.29-.1s.11.13.17,0a.76.76,0,0,1-.34-.12c.07-.61-.23-.49.43-.4l-.35-.46,0,0,.28.08c-.13-.3.11-.07-.21-.34a1.21,1.21,0,0,1,.67.25l.13,0a1.35,1.35,0,0,0-.21-.61h.35l-.12,0c-.63-.12-.25-.28-.54-.48L11,9.12,10.89,9l-.29-.17.14-.56c.25-.06.34-.1.8.27.15.12.07.06.18.2.7.47.33.65,1,.81.19,0,.16.09.32.21l-.55-.74a1.6,1.6,0,0,1-.3-.11c.1-.26.24-.45.55-.39l.11,0c.21.11,0-.1.19.22-.08-.52-.37-.46-.15-1-.1-.29-.14-.29-.43-.51A13.32,13.32,0,0,0,8.05,5.41c.52,0,.2,0,.41.13l1.32.7L9,6.18s0,.06,0,.09a7.6,7.6,0,0,1,2,1L8.65,6.59l.16.18c-.08.16,0,.14-.1.23a6.58,6.58,0,0,1,2.36,1c-.43-.08-1-.32-1.41-.45-.87-.27-.94,0-1.76-.12.27.1.61.12.95.24a2.44,2.44,0,0,1,.65.41s.06,0,.08.07C9.07,8,9.31,8,8.73,8l.44.35-1.1,0-.58.18a2.5,2.5,0,0,1,1.39.37c-.37.19-.46,0-1,.17l1.18.49c-.4,0-.29,0-.6-.06-.46,0-.37,0-.53.09.63.09.63,0,1.15.39l-.66-.11-.19.42,0,.06a5.92,5.92,0,0,1-3.29-.66c-.85-.31-.55-.52-.58-1.33l0-1.24c0-.57.08-.41.16-.87s0-.61.06-.92.46-1,.61-1.44c.09-.21.16-.49.27-.82a2.73,2.73,0,0,1,.94-1.27l.06,0,.35-.25c.63.92.2.1.81.48.36.22.48.63.86.9L9.66,4c.28.27.09.3.29-.09.14.79.29.22.47.87.46-.59-.11-.07.4.44l.58.3h0c.24,0,0,.25.63.86s.17.64,1.1,1c.27.25.19-.34.2.22a2.73,2.73,0,0,0-.17-.95c0-.5-.38-.61-.7-.91L11.74,5l-.07,0c-.33-.25-.17-.12-.41-.44L10,3.34c-.31-.29-.58-.47-.89-.75S8.62,2,8.33,1.76C7.89,1.36,6.77.91,6.52.45l-.93.4Z"/><path class="cls-2" d="M32.29,5.9c0,.09,0,.38,0,.45.09.31-.22.4.26.31.2-.5.15,0,.51-.58s.2-.45.47-.56l.05,0a1,1,0,0,0,.63-.81l.28-.11c.4-.31.28-.13.36-.63.16.29,0,.33.29.09a9.88,9.88,0,0,1,1.2-1.22c.46-.33.58-.91,1.1-1,0,0,.16.23.57-.4l.48.34A4.26,4.26,0,0,1,39.7,4a5.13,5.13,0,0,1,.58,1.47c0,.46.4,3.3.12,3.8s-.16.25-.6.4a6,6,0,0,1-3.32.64v-.06l-.78-.41a3,3,0,0,1,1.16-.3c-.2-.15,0-.06-.26-.1s-.12,0-.27,0a2.13,2.13,0,0,1-.61.06c.31-.26.84-.31,1.18-.53l-.34-.08-.09,0-.09,0-.18-.09a.25.25,0,0,1,.09,0l.55-.17a1.85,1.85,0,0,0,.49-.11l-.58-.12a3,3,0,0,0-1.11.05c.15-.15,0-.06.32-.26C36,8,36.15,8,36.24,8a2.15,2.15,0,0,0-1,.16l.44-.34A4.11,4.11,0,0,1,37,7.43a4.21,4.21,0,0,0-2.12.19,9.48,9.48,0,0,0-1.58.65,6.56,6.56,0,0,1,2.49-1.14,1.5,1.5,0,0,0,.13-.23c.1-.25,0,.1.07-.27l-2.15.65a7.2,7.2,0,0,1,2-1l0-.09,0,0c.08-.1-.07-.06.17-.13l-1,.19c.5-.36.89-.27,1.27-.74a13.31,13.31,0,0,0-2.68,1.17,3.72,3.72,0,0,0-2,1.65c.3.23-.34,0,.12,0,.23,0-.1-.15.13,0L31.49,9a.86.86,0,0,1,.28.33c.19-.39.14-.38.63-.48-.18.51-.41.58-.59,1l.32-.22c.39-.1,0,.18.25,0,0-.73,1.29-1.23,1.9-1.18l-.05.08,0,.08-.06.19c-.08.14-.08.11-.25.25-.5.42-.14.32-.63.51a1.69,1.69,0,0,1-.37.24c.18-.11.08,0,.33-.13l.22.52.51-.16c-.64.69.18,0-.09.58-.12.26,0,0-.12.19.37-.05.26,0,.52-.22L34.1,11a1.11,1.11,0,0,1,.69,0c-.26.22-.13.1-.21.5.32-.38.23-.38.81-.5-.17.51.12.29-.43.55a2,2,0,0,1,.64-.35c-.58.85-.2.56-.52.61l.52-.13.59-.33c.38-.17.27-.23.62-.29l.24,0s-.24.34,0-.14c.09-.23-.11-.23.22-.16.76-.09,2.13-1.06,3.23-1.15a12.67,12.67,0,0,1,0,1.31c0,.41-.24.7-.29,1-.16,1-.22,1.27-1.49,1.39v.09c.57-.08.56-.29,1.21-.17a4.27,4.27,0,0,1-1.25.56l.19,0,1,.08c-.35.15-.2,0-.43.24.41.23,0,.15.56.17l.37.31c.13.46.06,0-.17.2-.19,0-.11,0-.33.21-1,.78-.43.5-.41.65a1.39,1.39,0,0,0-.37.21c-.4.36.15-.36,0,.52-.08.39,0-.44-.05.21a2.9,2.9,0,0,0,1.46-.44c.33-.52.3-.23.55-.44s0,0,.15-.27a.24.24,0,0,0,0-.08s0-.05,0-.06c.17-.3-.08-.09.09-.06-.29.1-.34,0-.54-.28.43-.34.44-.19.73-.63l.09-.15.06-.08c.18-.21.16-.32.37-.42-1-.57-.24-.33-1.32-.1a1.24,1.24,0,0,0,.28-.2c.38-.36.09,0,.1-.22,0-.81.12.06.07-.64l-.26-.11c.62-.8.65-2.79.51-3.9-.08-.64.17-.67,0-.93l0,0a6.69,6.69,0,0,1-.31-2L40.29,3.5c-.6-1.28-.58-1.48-.78-1.93s-.34-.25-.28-.72l-.41,0c-.19-.4-.17,0-.37-.34a.11.11,0,0,0,0-.05V.38a11.38,11.38,0,0,1-1.68,1.19c-.49.33-.69.8-1.53,1.42a5.4,5.4,0,0,0-.82.72l-.74.67c-.36.39,0,.15-.58.61l-.79.91Z"/><path class="cls-1" d="M7.47,2.65c.28.2.38.2.41.59-.81.15-1.37.33-1.71,1.16L5.39,6.11s0,.35-.07.15c0,0,0,0,0,.07s-.08,0-.08-.22L5.57,5c.52-1.77.18-.71.71-1.68L6.44,3s0-.05,0-.07Zm.6,5.64L7.35,8l.75-.22c-.51-.12-.37.05-.5-.28,0,0,0-.07.05,0L7.9,7.4c.82.07.89-.15,1.76.12.45.13,1,.37,1.41.45A6.58,6.58,0,0,0,8.71,7L8.09,7a.67.67,0,0,1,.24-.11h.2C8,6.64,8.19,6.69,8,6.43L7.84,6.3c1,0,.71.16.81.29L11,7.27a7.6,7.6,0,0,0-2-1s0-.08,0-.09l.76.06-1.32-.7c-.21-.13.11-.1-.41-.13a13.32,13.32,0,0,1,4.38,2c.29.22.33.22.43.51.48.26.19.07.32,0l0-.44c-.93-.35-.43-.38-1.1-1s-.39-.83-.63-.86h0l-.58-.3c-.51-.51.06-1-.4-.44-.18-.65-.33-.08-.47-.87-.2.39,0,.36-.29.09L8.46,2.83c-.38-.27-.5-.68-.86-.9-.61-.38-.18.44-.81-.48l-.35.25-.06,0A2.73,2.73,0,0,0,5.44,3c-.11.33-.18.61-.27.82C5,4.22,4.62,5,4.56,5.27s0,.59-.06.92-.17.3-.16.87l0,1.24c0,.81-.27,1,.58,1.33a5.92,5.92,0,0,0,3.29.66l0-.06.19-.42.66.11c-.52-.37-.52-.3-1.15-.39.16-.12.07-.14.53-.09a2.05,2.05,0,0,0,.6.06L7.9,9c.52-.19.61,0,1-.17a2.5,2.5,0,0,0-1.39-.37l.58-.18Z"/><path class="cls-3" d="M28.67,34.37l.1.07,2.42-.09c.2.4-.05.2.35.38-.57.2-.36.48-.34.64h-.39l.07.27c.15.31,0,.14.27.28-.38.14-.78,0-.23.42l-.37.35a3.09,3.09,0,0,0-.69.54l-.47.57c-.8-.17-1.86-.63-2.77-.87-1.07-.28-2-.4-3-.64-.26-.09-.22-.16-.18.11,1.82,0,4,1.06,5.73,1.49l-.37.23c-1.28,1.13-1.06.59-3.24-.45-.39-.19-.72-.32-1.14-.49-1.08-.43-.89,0-1-.63-.25.16-.22-.27-.19.33a13.38,13.38,0,0,1,4.22,2.06,2.19,2.19,0,0,0-.91.13c-.32.16-.37.09-1.26,0s-.68,0-.87.21c1,.39.78.29.76.53s-.13,0-.5.48c-.18.26,0,.19-.47.31H24.1l-.14,0c-1.74.31,0,.37-1.63.38-1.13,0,0-.13-1.47-.38-.28,0,0,0-.27-.07h-.06l-.11,0c-.23-.08,0,0-.27-.3-.13-.16,0-.08-.21-.19s-.33,0-.25-.31,0-.15.76-.46c-.3-.29-.11-.21-.53-.25l-1.16.12c-.23,0-.18.08-.37.07l-1-.35c1.15-.62,2.84-1.77,4.21-2,.05-.6.06-.17-.18-.33-.1.48.1.19-.37.42l-1.19.43c-2.34,1-2.48,2-3.85.72l-.32-.26c1.21-.23,3.8-1.46,5.69-1.47-.09-.27,0-.06-.09-.24s-.07-.11-.21-.26c0,.6,0,.35,0,.34s0,.05-.05.08c-1,.2-1.95.38-3,.64s-1.85.67-2.69.84l0,0L15,37.23a4.44,4.44,0,0,0-.65-.54c-.77-.08-.28-.07-.45.19.44.18.26.2.52.5l.2.21c.18.23.05,0,0,.24l.05.3a6.16,6.16,0,0,0-2.1,1.08c.69-.19,1.71-.85,2.26-.93s.48.08.91.29l.2.09.74.39a16.52,16.52,0,0,1-2.37,1.69,16,16,0,0,0-2.19,1.89c.52-.47,4-3.19,4.78-3.34a1.25,1.25,0,0,1,.79.14,4.83,4.83,0,0,0,1.44.1c-.15.1-.37.31-.49.4l.42.14.06,0,.7.77c.53.48.66,0,1.36.5l.21.13a3.38,3.38,0,0,0,1.84.08c.78-.13.5-.63,1.66-.43a1.11,1.11,0,0,1,.37-.47c-.06-.33,0-.33-.26-.45l.39.33,0-.07,0-.07c.33-.49.69.08.3-.55.26.19.27.18.46,0-.26-.22-.24-.15-.45-.45a2.77,2.77,0,0,0,1.54-.09c.81-.29,1.51.39,2.23.84a19.91,19.91,0,0,1,3.11,2.3c-.94-1-4.4-3.35-4.47-3.48l1.39-.72c.75-.28,2.72.94,3.42,1.29a14.58,14.58,0,0,0,1.59.77l-.07-.06-4.31-2.2s0-.05,0-.06l0-.16c0-.29-.07-.23.16-.48l.05,0,.09-.11c.32-.41.78-.86,1.3-.78,1.13.15,2.3.78,3.39,1a4.71,4.71,0,0,0-1.87-.74c-.68-.19-1.3-.32-2-.5l.06-.5a21.21,21.21,0,0,1,3.89.65c1.18.27,2.51.79,3.56,1a5.68,5.68,0,0,0-1.72-.62c-1.73-.51-3.7-.74-5.4-1.2.33,0,.1-.12.1-.12,0-.22-.09.17,0-.29l.08-.21c.14-.69-.33-.6,1.89-.57l1.86,0c.05.16.09.12-.26.14.41.3.12.14.37.46.19-.22.17-.3.57-.35l1.05-.21A45.8,45.8,0,0,1,42,34.8a23.71,23.71,0,0,0-4.6-.54c.29-.33,0-.08.42-.26a1.4,1.4,0,0,0,.37-.17l.35-.3c.44-.46.85-.56,1-.76.33-.4-.16-.35.27-.48-.47-.55,0-.71-.42-.86l.42.11c.64-.4-.17-.15.57-.37l-.23-.09c.24-.07.1,0,.24-.1l.41-.54a1.84,1.84,0,0,0,.36-.92c0-.33,0-.22.12-.54L41,28.9a.49.49,0,0,0-.06.27c-.09-.3-.2-.28-.53-.37a2.94,2.94,0,0,0-.09.53c-.1.51-.07.46-.22.61A.6.6,0,0,1,40,30c-.49.26,0,.06-.42.06s-.1-.07-.43.07,0,0-.19.09l-.06,0-.07,0c-.25.08-.44.16-.62.21a11.79,11.79,0,0,1-2.15-.1c-.49,0-1.25-.17-1.67.11l-.7.18c.42.17.76.55,1.33.45s-.23-.05.35-.09l2.73.63c.37.15.13.06.35.11s0-.08.28.05c.51.22.26.44.26.44-.11.66,0,.07-.3.35s.08,0-.44.54l-.05.06c-.31.32.23.1-.37.28a2.11,2.11,0,0,1-.49,0l-.43.19c-.57.27-.31,0-.53.5l-4.14-.08c-.21-.47.28-.46-.43-.47.4-.15.39-.09.54-.32.52-.77-.07-1,.78-1.07-.21-.16-.3-.1-.17-.45a1.83,1.83,0,0,1,.3-.38c.44-.5.19-.12.18-.36,0-.05,0,0,0-.11-1.28-.31-.73.37-1.14.82-.14.16-.11,0-.28.37l-.56,1.52a3.81,3.81,0,0,0-.12.51l-2.66.17Z"/><path class="cls-2" d="M30.58,22.69A.74.74,0,1,1,29.3,22C29.74,21.16,31.08,21.84,30.58,22.69Zm1.17-1.26a3.61,3.61,0,0,1,1.78,1,3.27,3.27,0,0,1-1.76,3c-1,.44-3.22.41-4-.3a7,7,0,0,1,.55-2.1c.27.38.17,1,1,1.57a2,2,0,0,0,2,.16,2,2,0,0,0,1-2.51l-.36-.64c-.12-.19,0,0-.16-.25Zm2.77,1.37.87-.46c.19.26.07.22,0,.25l.67.13a1.79,1.79,0,0,0,1.18-.23.89.89,0,0,0-.81.05c0-.08.12-.15,0-.33l-.06,0c.33-.28.14-.2.57-.32.17-.08.07,0,.21-.16-.29-.15-.09.11-.23-.17l-.22-.19a6,6,0,0,0-.76.38.21.21,0,0,1,0-.06c-.15-.34.08-.17-.15-.2a3.9,3.9,0,0,1-.78.8,2.34,2.34,0,0,0,.38-.72l-.21.09-.06,0-.06,0c-.47.28-1-.24-.89.5l0-.63c-.69,0-.4-.09-.83-.45a4.42,4.42,0,0,0-2.88-.84,3.36,3.36,0,0,0-2.68,2.25l-1,2.7c-.17.5-.28.46-.41.79-.32.82.15,1.13.46,1.71.14.27.29.58.51.65.49.16-.17-.06.33,0a1.84,1.84,0,0,0,.42.1L28,28.19a.56.56,0,0,0,.73.17c-.17-.43.07-.05-.26-.35s-1.69-.81-1.09-1.55,2.09-.21,3.24-.3a3.08,3.08,0,0,0,1.55-.28c2-1.3.91-1.4,2.38-3.08Z"/><path class="cls-2" d="M13.57,22.73c-.2-1.52,1-1.13,1.22-.92.48.49.16,1.37-.91,1.19Zm3.06.93.31.68a1.92,1.92,0,0,1,.13.86c-.79.71-3,.75-4,.29a3.4,3.4,0,0,1-1.78-3,3.7,3.7,0,0,1,2.24-1.13c0,.1-1.83,2,.05,3.32a2,2,0,0,0,3.06-1Zm-8.22-2.1c.23-.06.37.26.69.48-.08.42.05.17-.3.54h.57l.93.21.6.83a8.18,8.18,0,0,1,.45,1A3.67,3.67,0,0,0,12.81,26c1,.49,3.58,0,3.93.07s.64.34.92.54c-.16,1.2-.87.86-1.69,1.81.54.25.73-.14.89-.13.42,0-.46-.12.18.08l.23.05s0,.3.1,0c0,0,0,0,.05,0,.33-.2.37-.35.58-.74s.84-.9.35-1.78c-.92-1.66-1.4-5.14-3.6-5.56-2.48-.48-3.28,1.2-4.2,1.31H10.5l-.19,0c-.23.06-.12.17-.85-.13.11.43.18.38.37.72A6.55,6.55,0,0,1,9,21.43v.18c0,.23,0,.07,0,.18-.28-.24-.19-.22-.58-.23Z"/><path class="cls-1" d="M23.19,36.88c-.25.64-.58.31-.43,1.29l1.45.65c.28.2.26,0,.08.33,0,0,.31.18-.28.08l-1-.42c-.31-.16,0-.12-.43-.23s-.58.17-1.28.45c-.43.17-1.05.24-.71-.17s1.32,0,1.64-1.22c-.22-.28-.42-.37-.59-.76-1.37.21-3.06,1.36-4.21,2l1,.35c.19,0,.14,0,.38-.07L19.92,39c.42,0,.23,0,.53.25-.79.31-.71.25-.76.46s0,.13.26.31.07,0,.2.19c.25.31,0,.22.27.3l.11,0h.06c.27.08,0,0,.27.07,1.44.25.34.39,1.47.38C24,41,22.22,41,24,40.64l.14,0h.06c.46-.12.29-.05.47-.31.37-.53.48-.14.5-.48s.27-.14-.76-.53c.19-.18.1-.31.87-.21s.94.17,1.26,0a2.19,2.19,0,0,1,.91-.13,13.38,13.38,0,0,0-4.22-2.06Z"/><path class="cls-2" d="M21,35.46l.07.41v0c.14.15.06,0,.21.26s0,0,.09.24l0,.16c.24.16.23-.27.18.33.17.39.37.48.59.76-.32,1.2-1.34.86-1.64,1.22s.28.34.71.17c.7-.28.93-.54,1.28-.45s.12.07.43.23l1,.42c.59.1.28,0,.28-.08.18-.31.2-.13-.08-.33l-1.45-.65c-.15-1,.18-.65.43-1.29,0-.6-.06-.17.19-.33l0-.15c0-.27-.08-.2.18-.11l.18-.4,0-.5a1,1,0,0,1,.25-.88c.75-.15,2.2-.11,1.54-1.15-.28-.44-.47-.37-1-.56a2.27,2.27,0,0,0-1.24-.25l-.15.16c-.52.38.31-.16-.1,0l-.75.18a1.09,1.09,0,0,1-.26,0A3.48,3.48,0,0,0,21,32.6c-.77-.06-2.87.91-1.59,1.67.79.47,1.7-.26,1.57,1.19Z"/><path class="cls-2" d="M39.32,22.81l-.28.28-.08.05a2.32,2.32,0,0,1-1.17.32l.09-.06c.43.23-.19-.31.24.27h-.66l-.1.21c.49.1.17.08.3.16,1,.62,1,.38,1.22,1.07.31.92.71,0,.72,1.57l-.08,0-.07,0-.08,0-.44.28a11.2,11.2,0,0,1-2.34.3,1.39,1.39,0,0,1,.33.11l-.43.37v.06a.18.18,0,0,1,0,.06l-.36-.05c-.22,0-.13,0-.27.14a2.19,2.19,0,0,1-.76.29c.23-.07.25,0,.55.09l.09,0,.1,0,.28.06a.16.16,0,0,1,.09,0,5.11,5.11,0,0,0,1.41.13c.33-.08-.2-.06.29-.08.31,0,.67.27.87.35l0-.54c.86.33.57-.16,1.2.39,0-.1-.07-.16.26-.37.16.35,0,.19.24.34s.44.07.53.37A.49.49,0,0,1,41,28.9c-.21-.73.06,0,.22-.5a3.56,3.56,0,0,0-.45-.56c.24.11.35.21.63.33a1.82,1.82,0,0,1,.39-.84c-1.05-.38.35-.17-.41-.46a2.06,2.06,0,0,1-.85-.47l.42-.09c.15-.11-.3-.25.48-.17l.3-.24c-.48,0-.72-.15-1-.18l1-.1c0-.39,0-.09-.27-.21s-.19-.06-.27-.09l.94-.35,0-.34c.1.27-.12.27-.55.32.07-.16.2-.69.25-.4v-.48c-.39.17-.19,0-.68.17l-.13.05c0-.05-.21,0-.06-.47a3.25,3.25,0,0,1-1.3.53l.51-.33c.33-.19.25-.14.41-.37l-1,.24c.18-.38.15-.45.48-.5-.32,0-.11.05-.4.1l-1.17.26.46-.5c.05,0,.12-.14.15-.16.19-.18,0,0,.24-.18s.1,0,.24-.11c-.16-.06,0-.14-.32,0Z"/><path class="cls-2" d="M5.49,23.08l.43.25c.17.14,0,0,.2.2,0,0,0,.13.07.1s0,.08.08.12c-.5-.07-.52-.16-1-.25a4,4,0,0,0-.59-.1c.39,0,.5.3.63.56-.6-.11-.56-.25-1.13-.31.34.54.43.24.91.7a1.65,1.65,0,0,1-1.2-.58l-.09-.07-.26.06c.18.21.26,0,.31.54-.52,0-.43-.3-.93-.08l.24.74c-.49-.07-.44,0-.64-.33.24.48,0,.19.38.42a3.44,3.44,0,0,0,.68.24c-.2.13.31.16-.37.11-.24.19,0-.08-.19.22l.39.25-.35.07.29.19c.88,0,.18,0,.45.14l-.43.28.58.06s.08,0,.1,0l-.64.25c.85,0,.23-.14.62.32-.26.15-.44.22-.53.55.37-.22.33-.42.7-.46a.74.74,0,0,1,.56.35c-.51.24-.4,0-.8.5l.54-.06c0,.08,0,.08,0,.15l-.09.43c.06.54-.41-.37,0,.11.24-.27.08-.21.42-.49.14.21-.1.64,1.25.15a1,1,0,0,0,0,.54c.41-.16.5-.43,1-.32l.14.05c.53.13,1-.16,1.56-.14.79,0,2.06,1,2.56.12a6.75,6.75,0,0,0-1.68-.24v-.07c0-.12.07.06,0-.15-1.11-.2-.32-.54-1.31-.35,0-.09.22.08,0-.12s-.14-.08-.32-.13l.29-.24c-1.13,0-1.11-.31-2.43.38a4.29,4.29,0,0,0,.91-.59l-.92,0-.21,0-.09,0H5.5c-.09,0-.85-.44-.34-1a3.41,3.41,0,0,1,.53-.61c.45-.43.16-.22.19-.32s0-.06.07-.18a1.87,1.87,0,0,1,1-.78c.59-.33-.2-.18.57-.38l-.11-.17H6.7c.06-.08-.08-.67.33-.21a2.09,2.09,0,0,1-.87-.18l-.66-.46c-.33-.2-.28,0-.3,0l.29.29Z"/><path class="cls-3" d="M19.25,8.3a1.12,1.12,0,0,1,0,.67,2.08,2.08,0,0,0,.72,0c0,.67,0,.78.25,1,0,.43,0,1,.11,1.43s.23.73.3,1.18c.14.92.22,1.64.32,2.64.41-.74.22-2.61.2-3.61-.21-.1,0,0-.12,0l0,0c-.14-1.35.06-.95-.32-1.84s.14-.87.48-1.24l.58.22.54,2a13.84,13.84,0,0,0,.27,2.1c.32.12.39,0,.49,0a8.16,8.16,0,0,1-.36-1.35c0-.32.05-.43,0-.72s-.08-.21-.06-.58c0,0-.19,0,0,.21s-.16.16.19,0a4.3,4.3,0,0,1,.35-1.66l.64-.22c.28.48.78.47.39,1.32a4.27,4.27,0,0,0-.29,1.76h-.17a11.74,11.74,0,0,0,.18,3.66,26.74,26.74,0,0,1,.47-3.25,5.88,5.88,0,0,0,.24-1.62c.07-.75.27-.43.29-1.47a1.93,1.93,0,0,0,.73,0l.05-.44c.59-.2,0,.27.17-.16-.69-.31-.33.22-.76.11s0,0-.3-.26c-.41-.46-.59-.24-.65-.25h-.05c-.38-.08-.16-.19-.66-.19s-.33.18-.73.35c-.65.27-.33-.12-.57.27,0-.25,0-.46-.44-.62s-.74.17-1,.19,0-.24-.56.12c-1,.65-.06.43-.88.21Z"/><path class="cls-4" d="M19.79,35.24l-2.95,0c-.89,0-2.08.16-2.94.15l-.05-.08L13.66,35a.2.2,0,0,0,0-.08c-.16-.23-.08-.28-.25-.11l.3-.4a27.86,27.86,0,0,1,6.12.83ZM8.21,33.88c-.06.21,0,.11-.15.35.36-.07.48,0,.82.13-.16.41.06.2-.39.27l.45.32S9,35,9,35c.25-.23.14-.21.43-.43-.36-.29-.35,0-.32-.16l3.71,0,.08,1.07c.14.39-.07,0,.08.05l.06,0c-.92.23-6.16,1-6.87,1.84,1.07-.17,2.33-.63,3.51-.92a22.6,22.6,0,0,1,3.59-.6l.11.38c-1.18.46-2.62.66-4,1.2L5.72,39c.18.14-.36.52.64.09l1.37-.71A28.23,28.23,0,0,1,13,36.54c.49-.08.52.17.87.34.17-.26-.32-.27.45-.19l-.14-.36a22.25,22.25,0,0,1,6.92-.46L21,35.46c-.57.06-.67-.13-1.23-.22-1.42-.79-4.31-.89-6.22-1.08a.34.34,0,0,0,0-.08l-.06-.16c-.23-.64-.06-.66-.46-1.13-.13.08,0,.07-.31.13s-.14,0-.37,0c.05.55-.17.58.62.81-.19-.12.24-.18-.2,0-.09,0,0,0-.13.13-.37.62.19-.28,0,.27l-4.14.09-.09-.25c0-.06.07-.1-.15,0Z"/><path class="cls-3" d="M3,27.3l0,.07.12.29,0,.06c.1.24.08.34.27.39s.07.06.32-.06c-.38.58-.11.47.07.64-.2.29-.38.23-.18,1.15.13.6.23.39.53.38-.21.23-.18-.08-.09.31l.54.55c-.22.1-.33.22-.5.28a.66.66,0,0,1,.58.32l.38.73c.08.24-.06-.1,0,.19.2.54.43.2.9.69,1.16,1.22.85.41,1.34,1a27.22,27.22,0,0,0-5.8.79c-.52.12-1.15.42-1.58.47,1.38-.16,2.48-.88,6.37-1.06a7.7,7.7,0,0,1,2.12.17c.45-.07.23.14.39-.27-.34-.09-.46-.2-.82-.13.17-.24.09-.14.15-.35l-.44-.23,0,0-.06-.18a.8.8,0,0,1-.67.1c-.3-.1-.16-.06-.33-.24-.79-.81.12-.19-.76-.78l-.21-.22c.14-.22.21-.37.47-.46l2.92-.75c.52-.08.64.05.64.05.64.15.87-.2,1.36-.36-.26-.19,0,0-.28-.12l-.52-.26c-.56,0-1.17,0-1.62,0-1.11,0-1.53.42-2.73-.1l-.14-.07c-.09-.05.07,0-.26-.13l-.89-.37a3.25,3.25,0,0,1-.11-.35c0-.1-.1.11-.12-.6-.46-.48,0,.43,0-.11l.09-.43c0-.07,0-.07,0-.14l-.54,0c.4-.46.29-.26.8-.5a.74.74,0,0,0-.56-.35c-.37,0-.33.24-.7.46.09-.33.27-.4.53-.55-.39-.46.23-.33-.62-.32l-.3,0c.19.26.29.26-.13.37Z"/><path class="cls-3" d="M6.62,17.76l-.51.37.92.06c0-.11-.1-.17-.26-.3,2,0,3.15-.36,5.26.14.75.18,1.47.39,2.2.62,1.76.55,1.61.42,1.76,1.06-1.68-.28-3.64-.81-5.87.13,2-.07,4.66-1.09,6.45.43l.41.3c-.07-.55-.14-.45,0-.93.32-1.34-.09-.49.43-1.11.26-.31.07-.05.18-.09.15-.43.8-1.29.1-2.14a5.26,5.26,0,0,0,.17,1.38l-.61-1.86s0,0-.05,0l-.05,0a1.29,1.29,0,0,1-.14-.31c-.09.51-.07.34-.34.65l-.38.69a17.09,17.09,0,0,0-2.94-6.79L13,9.8a16.18,16.18,0,0,0,1.15,1.83,21.11,21.11,0,0,1,1,2,14.49,14.49,0,0,1,1,3.42l-.14.48c0,.08.05.56.05.69a2.72,2.72,0,0,0-.44-.1c.3.15.56.34.26.72l-.33.31a18.29,18.29,0,0,0-4-1.33c-2.88-.5-3.29,0-5,0Z"/><path class="cls-3" d="M38.16,17.93l0-.16c-.84,0-1.68-.21-2.58-.2-1.86,0-5.31.75-6.39,1.54L29.08,19,29,18.91l-.29-.25c.17-1.09-.2-.61.32-1.74-.27.29-.08.17-.48.35.18-3.13,3.12-7.12,3.24-7.47-.23.13,0,0-.2.16a1.37,1.37,0,0,0-.16.18,16.53,16.53,0,0,0-2.9,6.72l-.14-.36c-.31-.62-.23,0-.61-1-.14.66-.16.41-.39.84-.15.28-.15.53-.3.87l.05-.94a1.48,1.48,0,0,0-.34,1.16c0,.47.23.44.43,1,.14,0-.08-.24.18.08l.14.18c.39.38.34,1.32.28,1.87.37-.19.14-.08.4-.3a1.73,1.73,0,0,1,1-.57c2.38-.64,4,0,6,.33a14,14,0,0,0-3-.7,10,10,0,0,0-3.39.38c.16-.66,0-.48.79-.73,3.39-1.11,4.59-1.55,8.54-1.05Z"/><path class="cls-5" d="M16.63,23.66a2,2,0,0,1-3.06,1c-1.88-1.35-.1-3.22-.05-3.32a3.7,3.7,0,0,0-2.24,1.13,3.4,3.4,0,0,0,1.78,3c1,.46,3.22.42,4-.29a1.92,1.92,0,0,0-.13-.86l-.31-.68Z"/><path class="cls-5" d="M31.75,21.43c.15.29,0,.06.16.25l.36.64a2,2,0,0,1-1,2.51,2,2,0,0,1-2-.16c-.79-.53-.69-1.19-1-1.57a7,7,0,0,0-.55,2.1c.8.71,3.05.74,4,.3a3.27,3.27,0,0,0,1.76-3,3.61,3.61,0,0,0-1.78-1Z"/><path class="cls-3" d="M7.42,11.63s0,0-.07-.06.77-.66,1.38.48c-.18.37,0,.22-.28.28A1,1,0,0,0,8,11.89s-.54-.14-.58-.26Zm3.14-.3c0-.08.09-.15,0-.31-.4.31-.32-.42-.33.44-.21-.4-.24-.37-.76-.44.15.5,0,.18.25.54s.17.17.3.12,0-.32-.32,0l0,0s0,0,0,0,0,.07,0,0a3.18,3.18,0,0,1-1-.44L7.84,11s0,0,0,0,0,0,0,0c-.18-.27.14-.08-.22-.19-.23.43.12,0-.2.23-.13.08.16,0-.27.1-.05,0-.46,0-.61,0l.5.1a.9.9,0,0,1-.6.22,1.35,1.35,0,0,1,.72.49c-.29.06-.14-.06-.57.12-.06.24-.14-.14,0,.1s.1-.06.07.05l-.67,0,.56.48-.92-.15c.2.11.39.25.56.35l-.65,0c.09.29.71.36.79.63v.07a40.56,40.56,0,0,1,4.16,1.73l4,2a1.52,1.52,0,0,0-.18-.17,34.23,34.23,0,0,0-3.88-2L7.29,13.7c-.37-.21-.1,0-.38-.38s-.09-.15-.4-.36c1.19.59.58.44,1.59.13.69-.21.6-.59,1-.83.75-.48,1.75.31,2.32.73a25,25,0,0,1,3,2.44,5.45,5.45,0,0,0,.93.93,19.44,19.44,0,0,0-4.47-3.94c-.15-.09-.21-.11-.34-.2l-.38-.33c.1-.21.08-.12.2-.28s0,0,.22-.28Z"/><path class="cls-1" d="M14.31,36.69a4.44,4.44,0,0,1,.65.54l.44.51,0,0c.84-.17,1.77-.59,2.69-.84s2-.44,3-.64c0,0,.05-.09.05-.08s0,.26,0-.34v0a22.25,22.25,0,0,0-6.92.46l.14.36Z"/><path class="cls-2" d="M3.22,20.78l.27.1a10.94,10.94,0,0,0-1.05.42l.52.26s0,0,0,0L2.56,22l0,.16c0,.37,0,.05,0,0,.19-.21.37-.23.74-.29l-.36.4c.24.12.21-.21.15.2,0,.17-.1.15-.17.18a1.69,1.69,0,0,1,.72-.3c-.15.18-.3.3-.44.49l.22,0a14,14,0,0,1,2.58-1c0-.29-.09-.28.48-.48l-.54-.21.75-.25-.57-.14.9-.2c.21,0,.14,0,.24-.15A4.16,4.16,0,0,0,4.4,20L4,20.1a1.43,1.43,0,0,0-.38.07c-.29.09-.43.21-.68.15.6.18.54.07,1.14,0-.29.45.19.1-.41.37a1.12,1.12,0,0,1-.45.09Z"/><path class="cls-1" d="M23.78,35.89l-.18.4c1,.24,1.95.36,3,.64.91.24,2,.7,2.77.87l.47-.57a3.09,3.09,0,0,1,.69-.54l0-.36c-1.09-.14-2.12-.34-3.37-.43a32.92,32.92,0,0,0-3.44,0Z"/><path class="cls-2" d="M10.7,27l.42.42.05,0c1.17.52-.14.14,1.7.81l.46.14c.49.1,1.82-.23,2-.86a4.91,4.91,0,0,1-2.42-.1,2.19,2.19,0,0,0-.58-.22,1.39,1.39,0,0,1-.52-.24c-.2-.16,0,0-.21-.23a1.27,1.27,0,0,0-.13-.19c-.24-.28-.19-.15-.5-.36l-.06-.05L9.66,24.86c-.85-1-1.76,0-1.84.2a2.7,2.7,0,0,0,.57.31c.41.24.23.43.71.8.83.63.85,0,1.6.81Z"/><path class="cls-2" d="M29.49,27.52c.19.64,1.47,1.06,2.39.74l.12,0c1.71-.65.69-.38,1.41-.72s.1.11.81-.64.72-.09,1.44-.64L36,25.9c.68-.91.51-.35,1-.84a1.52,1.52,0,0,0-.89-.6c-.65-.15-1.15.5-1.7,1.21l-.32.29a1.52,1.52,0,0,1-.18.17,1,1,0,0,1-.2.13c-.62.4-.31.46-.76.76a5.36,5.36,0,0,1-3.46.5Z"/><path class="cls-2" d="M40.39,20a4.5,4.5,0,0,0-2.83.4c.14.16.11.16.39.16l1.07.31-.4.14.6.27-.84,0c.45.15.06,0,.22.24l-.33.2c.78-.2,2.6,1,3.33,1.23.11-.26-.14-.65.44-.26-.14.05-.23-.09-.48-.28l-1.8-.9a5.48,5.48,0,0,1,2.11.71l-.35-.38c.44.08.36.13.6,0l-.77-.55.46-.19c-.52-.21-.37-.19-.53-.35l.43,0h-.09l-.87-.2c.25-.17-.18,0,.41-.16h.26l.51,0-.8-.3.79-.11-.4-.24a1.54,1.54,0,0,0-.57-.13c-.13.32-.16-.09,0,.18a.1.1,0,0,0,.16,0l-.5,0c.55.48.37,0,.23.25L40.39,20Z"/><path class="cls-2" d="M25.84,8.37c-.15.43.42,0-.17.16L25.62,9a2.65,2.65,0,0,1,.14.31h-.25a11.22,11.22,0,0,0,.28,2.19c.49,1.62.09.18.12,1.81,0,.86-.41.86-.21,1.46.12.35.06.13.14.25.07-.7.08-.67.51-1a1,1,0,0,1,.32-.69l.16-.18a5,5,0,0,1-.15-2.87c.27.28.15.26.45.21l.13-.05.24-.06L27.21,9l.24,0h.2c0-.46.08-.39-.1-.7Z"/><path class="cls-1" d="M37.22,10.74c.13.22,0,.27.45.32a3.29,3.29,0,0,1,.62,0l-.5.14c.13.09,0,0,.23.12l.32,0-.65.59h.38c.39,0,.21.1.29.19H38l.78,0-.55.49.92-.16a2.72,2.72,0,0,0-.56.37h.79a7.49,7.49,0,0,0-.75.5c1.27-.12,1.33-.42,1.49-1.39.05-.33.24-.62.29-1a12.67,12.67,0,0,0,0-1.31c-1.1.09-2.47,1.06-3.23,1.15Z"/><path class="cls-2" d="M39.85,16.61c-.94,0-.7.39-.75.49l-.35.27c-.42.2-.28,0-.24.21,0,0,.62.09-.32.19l0,.16a1.08,1.08,0,0,0-.42.25l1.64,0a.78.78,0,0,0-.37.26c-.25.48.17-.05.09.22l-.71.24c.19.09.45.06.73.19s.19.2.39.23c.76.21-.34.23,1.31.42l-.37-.36h1.07c-.47-.47-.44-.36-1.16-.36a3,3,0,0,1,1-.35l.1,0c-.08-.23,0-.17-.16-.34a1.51,1.51,0,0,1-.94.3c.4-.51.5-.28.71-.49s0-.31.52-.52a1.32,1.32,0,0,1-.41-.11c-.34-.15-.06-.13-.49-.17.36-.61.29-.14.36-.4,0,0,0,0,.07,0a2.91,2.91,0,0,0-.3,0l-.08,0-.18-.09s-.06,0-.07,0l.74-.34A5.8,5.8,0,0,0,40,16.8l0,0,0,0-.08-.11Z"/><path class="cls-2" d="M17.67,9.07l-.34,1.3c.1,0-.15-.06.17,0l.26.08c.3,0,.15,0,.37-.21.11,1,.09.4.21.42A7.85,7.85,0,0,1,18,13.12c.09.19,0,0,.16.19s0-.09.16.17a.86.86,0,0,1,.2.49c.19.11.25.08.37.35A3.77,3.77,0,0,1,19,15l.18-.82c0-.72,0-.05-.16-.63a8.48,8.48,0,0,1-.17-1c-.16-.74.5-1.32.46-3.33-.13.61.06.19-.27.36,0-.38,0-.38.17-.57a1.12,1.12,0,0,0,0-.67l-.53,0h-.07c-.24,0-.19-.12-.3,0L18.3,9l-.07-.09-.06-.09c-.59-.83.27.05-.2-.26h0l-.28-.07,0,.56Z"/><path class="cls-3" d="M13.16,7.42l0,.44c-.13.08.16.27-.32,0-.22.49.07.43.15,1-.15-.32,0-.11-.19-.22l-.11,0c-.31-.06-.45.13-.55.39a1.6,1.6,0,0,0,.3.11c0-.05,0-.76.7.41l.12-.22,0,0s0,0,0,0,.07,0,0-.25a7.45,7.45,0,0,1-.19-1c.66.2.12.15.72.41s.13-.05.59.18.58.6,1,.75L16,9.3h.1l.68,0c.66,0,.37-.06.85-.17l0-.56.28.07h0c.47.31-.39-.57.2.26l.06.09L18.3,9l.05-.7-1.28-.11H17c-.48.13-.14.07-.33.24-.05-.39-.19-.35-.58-.4s-.24,0-.64.13c-.31-.8,0-.09-.62-.61-.32-.27-.41-.47-.71-.72l.21.77a2.76,2.76,0,0,1-.43-1l-.05.08-.08.13c-.31.3.23,0-.58-.12a2.73,2.73,0,0,1,.17.95c0-.56.07,0-.2-.22Z"/><path class="cls-6" d="M23.82,35.39l0,.5a32.92,32.92,0,0,1,3.44,0c1.25.09,2.28.29,3.37.43l0,.36.37-.35c-.55-.42-.15-.28.23-.42-.29-.14-.12,0-.27-.28l-.07-.27a28.08,28.08,0,0,0-5.28-.08c.51-.45,2.46-.48,3-.68l.09,0s.07,0,.08-.06.07,0,.09-.06l-.1-.07a9.51,9.51,0,0,0-2.51.43,6.94,6.94,0,0,1-2.34.59Z"/><path class="cls-3" d="M27.55,8.36c.18.31.13.24.1.7h-.2c.23.34-.08.16.53.19l.75,0c1.14,0,.69-.3,1.54-.78.3-.17.74,0,1.29-.64.07-.07,0,.08.09-.15.36-.64.62-.5.92-1.06-.48.09-.17,0-.26-.31,0-.07,0-.36,0-.45-.57.17-.6.51-.91.89-.37-.09-.07-.06-.22-.15s.12-.13-.13-.08c-.09,0-.23.61-.57,1.08l.24-.77c-.29.25-.39.45-.71.72-.6.51-.34-.17-.62.61-.4-.16-.14-.2-.64-.13s-.41,0-.61.4c0-.1.08-.28-.35-.23l-.08,0c-.44.1,0-.25-.14.09Z"/><path class="cls-1" d="M21.44,36.55l0-.16c-1.89,0-4.48,1.24-5.69,1.47l.32.26c1.37,1.27,1.51.24,3.85-.72L21.07,37C21.54,36.74,21.34,37,21.44,36.55Z"/><path class="cls-1" d="M23.38,36.55c.13.58-.06.2,1,.63.42.17.75.3,1.14.49,2.18,1,2,1.58,3.24.45l.37-.23c-1.7-.43-3.91-1.52-5.73-1.49l0,.15Z"/><path class="cls-3" d="M8,21.46c-.21.1-.19,0-.28.13l.1.31c-.46-.2-.08-.19-.7-.22l.35.28c.2.23-.08.11.19.26L6.81,22l-.06.06-.52.11c.19.19.21.13.13.27L6,22.23c-.4.16,0,0-.18.29s0,.11-.28.3l.66.46a2.09,2.09,0,0,0,.87.18c-.41-.46-.27.13-.33.21h.66l.19-.18,0,0c-.24-.19-.1.1,0-.07,1.28.07.84-.61,2.83-.58l-.93-.21H8.8c.35-.37.22-.12.3-.54-.32-.22-.46-.54-.69-.48l-.19-.26c-.17.05-.09.06-.13.09s.13,0-.12.07Z"/><path class="cls-3" d="M35.6,11.7l-.09.38c.63-.06.59-.24.59.48.59-.1.22,0,.58-.24l.39-.35a1.51,1.51,0,0,0-.75.8,1,1,0,0,0,.57.44c.74.15.35.35,1.43-.26-.37.26-.2.1-.45.43l-.49.46-.08.06,1.32-.49v-.09a7.49,7.49,0,0,1,.75-.5h-.79a2.72,2.72,0,0,1,.56-.37l-.92.16.55-.49-.78,0c-.2.13-.24.11-.32.29.5-.34.15.13.33-.53l-.27.1c-.55.2-.21,0-.59.32l.2-1c-.09,0-.56.11-.54-.21-.35.07-.24.12-.62.29l-.59.33Z"/><path class="cls-3" d="M37,21.85c-.44.12-.25,0-.58.32l.06,0c.17.18,0,.25,0,.33a.89.89,0,0,1,.81-.05,1.79,1.79,0,0,1-1.18.23l-.67-.13s.14,0,0-.25l-.87.46c1.92,0,1.63.65,2.83.58.07.19.2-.14,0,.07,0,0-.1.1-.11.07s-.05,0-.08.09l.33.05h.66c-.43-.58.19,0-.24-.27l-.09.06A2.32,2.32,0,0,0,39,23.14l.08-.05.28-.28c-.27-.18-.11.16-.29-.28l-.05-.3-.54.19s.09-.11.2-.25c-.55-.15-.51,0-.41-.33-.55.05-.41.09-.89.31l.41-.49c-.68,0-.35.11-.81.19Z"/><path class="cls-7" d="M32.88,9.74c-.32.28-.25.19-.39.52h0l.25.29c.42-.24.47-.46.49-.12.38,0,.31-.16.23.55h.44c-.26.3-.06-.08-.21.37a1.31,1.31,0,0,1,.61.14l.34.41-.39.31c-1.4.81-4.13,3-4.82,4.2.29-.15.05,0,.3-.21.1-.09,0-.05.15-.18l.36-.4,2.42-2a4.5,4.5,0,0,1,.45-.31l1.38-.92c.69-.42.71-.23.89-.15.48.22.13-.14.49.43l.2,0c0-.72,0-.54-.58-.48l.08-.38-.52.13c.32-.05-.06.24.52-.61a2,2,0,0,0-.64.35c.55-.26.26,0,.43-.55-.58.12-.49.12-.81.5.08-.4,0-.28.21-.5a1.11,1.11,0,0,0-.69,0l.15-.47c-.26.2-.15.17-.52.22.09-.18,0,.07.12-.19.27-.6-.55.11.09-.58l-.51.16-.22-.52c-.25.11-.15,0-.33.14Z"/><path class="cls-1" d="M19.79,35.24a27.86,27.86,0,0,0-6.12-.83l-.3.4c.17-.17.09-.12.25.11a.2.2,0,0,1,0,.08l.19.33.05.08c.86,0,2-.12,2.94-.15l2.95,0Z"/><path class="cls-1" d="M28.77,34.44s-.07,0-.09.06-.06,0-.08.06l-.09,0c-.52.2-2.47.23-3,.68a28.08,28.08,0,0,1,5.28.08h.39c0-.16-.23-.44.34-.64-.4-.18-.15,0-.35-.38Z"/><path class="cls-2" d="M19.2,25.71a9.24,9.24,0,0,0,.25-1.17,4,4,0,0,1,.18-1.35,2.15,2.15,0,0,0,.13-2.35s0,0-.05,0c-.4-.05-.27,0-.29-.15-.25,1.38-.64,1.67-.49,2.3A14.75,14.75,0,0,1,19.2,25.71Z"/><path class="cls-7" d="M3.22,20.78a1.12,1.12,0,0,0,.45-.09c.6-.27.12.08.41-.37-.6.07-.54.18-1.14,0,.25.06.39-.06.68-.15A1.43,1.43,0,0,1,4,20.1L4.4,20l1.29-.56c-.51-.08-.29-.08-.42-.2-.68.23.23.22-1.25.43l.38-.39-1,.08c.41-.46.54-.33,1.15-.35-.16-.15-.06-.08-.29-.19l-.79-.21L3,18.82l.49.15-.51.18c0,.06,0,.3,0,.31-.06.46-.42.08-.47.79-.38,0,.56-.16,0,.44.88-.05.56-.22.72.09Z"/><path class="cls-3" d="M19.18,14.15,19,15a3.77,3.77,0,0,0-.12-.65c-.12-.27-.18-.24-.37-.35.09.37.26.71.36,1,.29.95.23.54.34.67.27.3.05.63.27,1,.37.61,1.2.9,1-.2-.1-.62-.27-.2-.5-.78a10.62,10.62,0,0,0-.46-1.38c-.21-.27.14-.3-.36-.17Z"/><path class="cls-2" d="M25.63,25.71c.05-.64,0-1.16.07-1.81.25-1.95.4-.58,0-2-.47-1.63-.13-.89-.43-1l-.09-.1a.15.15,0,0,1,0-.18,3.07,3.07,0,0,0-.4,1.25c-.12,1.44.39.2.56,2.72A9.2,9.2,0,0,0,25.63,25.71Z"/><path class="cls-3" d="M40.33,16.18s-.14.1-.22.18l-.26.25.08.11,0,0,0,0a5.8,5.8,0,0,1,1.31-.36l-.74.34s.06,0,.07,0l.18.09.08,0a2.91,2.91,0,0,1,.3,0s-.06,0-.07,0c-.07.26,0-.21-.36.4.43,0,.15,0,.49.17a1.32,1.32,0,0,0,.41.11l.31-.07c-.15-.32-.3-.35,0-.48l-.64,0c0-.09.17-.31.17-.32l.35-.71c-.42.1-.63.23-1,0,.34-.19.56-.35.57-.74s-.14-.17-.06-.43a.81.81,0,0,0,.13-.77.33.33,0,0,0-.06.08l-.09.15c-.29.44-.3.29-.73.63.2.26.25.38.54.28-.17,0,.08-.24-.09.06,0,0,0,.05,0,.06a.24.24,0,0,1,0,.08c-.13.3.17,0-.15.27s-.22-.08-.55.44Z"/><path class="cls-4" d="M41.6,23c.27.48.26.33.64.59,0-.58.14-.27-.2-.55l.53-.89-.25-.52.55,0c-.13-.25-.09-.6-1.16-.88l-.43,0c.16.16,0,.14.53.35l-.46.19.77.55c-.24.11-.16.06-.6,0l.35.38a5.48,5.48,0,0,0-2.11-.71l1.8.9c.25.19.34.33.48.28C41.46,22.32,41.71,22.71,41.6,23Z"/><path class="cls-7" d="M42.19,24.63l.2-.19,0,0c-.41-.22,0-1.35-.78-.49-.05-.28,0-.2-.18-.43-.49.1-.28,0-.64.29l.22-.48a2.13,2.13,0,0,1-.44.13l-.14-.1c-.46-.45-.39-.15-.74-.25s0,.27-.24-.18c-.27.16,0,0-.24.18,0,0-.1.12-.15.16l-.46.5,1.17-.26c.29,0,.08-.08.4-.1-.33.05-.3.12-.48.5l1-.24c-.16.23-.08.18-.41.37l-.51.33a3.25,3.25,0,0,0,1.3-.53c-.15.51,0,.42.06.47l.13-.05c.49-.17.29,0,.68-.17v.48c0-.29-.18.24-.25.4.43-.05.65-.05.55-.32Z"/><path class="cls-4" d="M39.51,19.29l-.37.13.65.32c.23.11.42.15.6.26l.45.07c.14-.23.32.23-.23-.25l.5,0a.1.1,0,0,1-.16,0c-.16-.27-.13.14,0-.18a1.54,1.54,0,0,1,.57.13l.4.24-.79.11.8.3-.51,0h-.26c-.59.12-.16,0-.41.16l.87.2c.21-.17-.16-.14.71-.05-.47-.73.34-.32,0-.47,0-.48.05-.2-.21-.48-.72-.76.25-.52-.7-.81l.57-.13-.58-.17a3.15,3.15,0,0,0-1.06.35c.72,0,.7-.11,1.17.36H40.45l.37.36c-1.65-.19-.55-.21-1.31-.42Z"/><path class="cls-2" d="M6.49,2.92s0,0,0,.07l-.16.31c-.53,1-.19-.09-.71,1.68L5.2,6.11c0,.24,0,.1.08.22s0-.09,0-.07c.06.2.06-.12.07-.15L6.17,4.4c.34-.83.9-1,1.71-1.16,0-.39-.13-.39-.41-.59Z"/><path class="cls-7" d="M24.37,16.3c.14-.15.23-.26.28-.15.35-.15-.07-.34.2,0s0,.07,0,.14a1,1,0,0,1,.31-.66,3.26,3.26,0,0,0,.11,1l0,.08c.24-.16.17-.2.21-.36,0,0,0-.34,0-.42,0-.29.08-.26.23-.34a6.74,6.74,0,0,0,.61-1.6c-.43.32-.44.29-.51,1-.08-.12,0,.1-.14-.25-.2-.6.25-.6.21-1.46l-.05.09-.12.31s.06.17-.42.4c-.08.27-.1.33-.21.63C24.44,16.59,24.81,15.47,24.37,16.3Z"/><path class="cls-2" d="M39.66,6.11a.85.85,0,0,0-.11-.23c-.5-.89-.21-1.56-1.12-2.8-.12-.18-1.19-.86-1.5.09.5.28,1.29.14,1.72,1.22.15.37.3.61.45,1s.14.34.24.54c.17.37.1.56.16.37,0,0,0,0,0,.07S39.66,6.35,39.66,6.11Z"/><path class="cls-1" d="M30.58,22.69c.5-.85-.84-1.53-1.28-.74A.74.74,0,1,0,30.58,22.69Z"/><path class="cls-1" d="M13.57,22.73l.31.27c1.07.18,1.39-.7.91-1.19C14.59,21.6,13.37,21.21,13.57,22.73Z"/><path class="cls-7" d="M36.2,28.58a.16.16,0,0,0-.09,0l-.28-.06-.1,0-.09,0c-.3-.07-.32-.16-.55-.09a2.19,2.19,0,0,0,.76-.29c.14-.1,0-.13.27-.14l.36.05a.18.18,0,0,0,0-.06v-.06l.43-.37a1.39,1.39,0,0,0-.33-.11c-.19.36.07.15-.33.24a2.55,2.55,0,0,1-.32-.05c0,.06,0,.09.06.28-.73,0-.76.37-1.28.52l-1.26.32c.41.89,1.94,0,2.74-.11Z"/><path class="cls-6" d="M6,21.83l.72-.15c-.36.27-.12.17-.38.35-.1.07-.24.1-.38.2l.4.24c.08-.14.06-.08-.13-.27l.52-.11L6.81,22l.82.19c-.27-.15,0,0-.19-.26l-.35-.28c.62,0,.24,0,.7.22l-.1-.31c.09-.13.07,0,.28-.13-.14-.26,0-.13-.25-.32-.47.14-.27.06-.36.4-.2-.21-.41-.3-.46-.37-.27-.35.1-.09.15-.3l0-.32-.9.2.57.14-.75.25.54.21c-.57.2-.53.19-.48.48Z"/><path class="cls-6" d="M41.81,27.33l.13-.57c0-.4.18-.27.21-.4s.06,0,.08-.07a.57.57,0,0,0-.49-.2l.49-.07c-.22-.48-.08-.15.32-.49a.73.73,0,0,0-1-.12c.32.12.23-.18.27.21l-1,.1c.25,0,.49.13,1,.18l-.3.24c-.78-.08-.33.06-.48.17l-.42.09a2.06,2.06,0,0,0,.85.47c.76.29-.64.08.41.46Z"/><path class="cls-3" d="M12.34,32.9c.23,0,.17.05.37,0s.18-.05.31-.13c-.41-1.4-.61-.78-.67-1.32s-.35-.64-1-.49c0,.17,0,0,0,.15l.08.21c.81.95.48.75.23.92l.45.14a2.05,2.05,0,0,1,0,.28c.08.31.16.22.16.22Z"/><path class="cls-7" d="M3.15,17.63c.38-.25.33.11.62-.35l.39.23c.23.11-.2-.06.28.11l-.51.21s0,0,0,0l.35.28c.31-.09,0,0,.3-.1s.09-.05.14-.12c.22-.31.08-.16,0-.23-.18-.28-.35-.33-.73-.56l-.38-.25c.43-.08.23-.08.64.06A1.12,1.12,0,0,0,4,16.76c-.72-.48-.59-.24-.27-.42l-.4-.25a2.71,2.71,0,0,0-.43-.1c.13.3,0,.14.2.35s.15.09.22.13l-.07.05-.07.2c.07.21.06,0,.25.32l-.64,0c.13.09.22,0,0,.53l.32,0Z"/><path class="cls-6" d="M3,27.3c.42-.11.32-.11.13-.37l.3,0,.64-.25s-.07-.07-.1,0l-.58-.06.43-.28c-.27-.18.43-.12-.45-.14l-.29-.19.35-.07L3,25.62c.14-.3,0,0,.19-.22-.3-.38-.77-.08-1,.15.27.2.23.08.53.36,0,0-.54.16.31.16l-.51.22c.53.45.15.18.34.79L3,27.3Z"/><path class="cls-7" d="M3.91,23.77a1.65,1.65,0,0,0,1.2.58c-.48-.46-.57-.16-.91-.7.57.06.53.2,1.13.31-.13-.26-.24-.52-.63-.56a4,4,0,0,1,.59.1c.46.09.48.18,1,.25,0,0-.06-.14-.08-.12s-.05-.08-.07-.1c-.18-.21,0-.06-.2-.2l-.43-.25c-.47.08-.36,0-.62,0-.56.05-.39.22-.4.22-.22.22-.08.18-.61,0C4.07,24,4.09,23.6,3.91,23.77Z"/><path class="cls-7" d="M32.38,9.56c0,.44,0,.15.17.27l.54-.5.16.16c.49-.19.13-.09.63-.51.17-.14.17-.11.25-.25l.06-.19,0-.08.05-.08c-.61-.05-1.87.45-1.9,1.18Z"/><path class="cls-4" d="M8.07,8.29l1.1,0L8.73,8c.58,0,.34,0,.85.15,0,0-.06-.09-.08-.07a2.44,2.44,0,0,0-.65-.41c-.34-.12-.68-.14-.95-.24l-.25.08s0,0-.05,0c.13.33,0,.16.5.28L7.35,8l.72.26Z"/><path class="cls-4" d="M3.42,22.86l-.22,0c.14-.19.29-.31.44-.49a1.69,1.69,0,0,0-.72.3c.07,0,.15,0,.17-.18.06-.41.09-.08-.15-.2l.36-.4c-.37.06-.55.08-.74.29,0,0,0,.33,0,0l0-.16a1.1,1.1,0,0,0-.32.11c.08.15,0,.68.53.87-.25.32-.15.07-.17.53a1.27,1.27,0,0,0,.82-.6Z"/><path class="cls-4" d="M36.75,8.29a.87.87,0,0,1,.82-.13c-.27-.27-.35-.25-.85-.33.5-.15.36,0,.5-.3-.08-.12.25-.1-.27-.1a4.11,4.11,0,0,0-1.28.36l-.44.34a2.15,2.15,0,0,1,1-.16C36.15,8,36,8,36,8.08c-.34.2-.17.11-.32.26a3,3,0,0,1,1.11-.05Z"/><path class="cls-3" d="M11.69,9.67c0-.65,0-.18.14-.31l.54.46a2.39,2.39,0,0,0-.84-1l.19-.07c-.11-.14,0-.08-.18-.2-.46-.37-.55-.33-.8-.27l-.14.56.29.17.15.08.11.07c.29.2-.09.36.54.48Z"/><path class="cls-7" d="M36.81,11.08c0,.32.45.22.54.21l-.2,1c.38-.36,0-.12.59-.32l.27-.1c-.18.66.17.19-.33.53.08-.18.12-.16.32-.29h.36c-.08-.09.1-.14-.29-.19h-.38l.65-.59-.32,0c-.21-.07-.1,0-.23-.12l.5-.14a3.29,3.29,0,0,0-.62,0c-.49-.05-.33-.1-.45-.32-.33-.07-.13-.07-.22.16-.19.48,0,.13,0,.14l-.24,0Z"/><path class="cls-7" d="M2.54,24.63c.2.36.15.26.64.33l-.24-.74c.5-.22.41.07.93.08-.05-.49-.13-.33-.31-.54l.26-.06c-.29-.23.38-.15-.38-.2l-.3.36c-.22-.27-.21-.19-.51-.21.15.36.1.64-.22.79l.13.19Z"/><path class="cls-3" d="M24.37,16.3a.86.86,0,0,0,.19,1c.28,0,.55-.34.71-.55l0-.08a3.26,3.26,0,0,1-.11-1,1,1,0,0,0-.31.66c.06-.07.26.12,0-.14s.15-.12-.2,0C24.6,16,24.51,16.15,24.37,16.3Z"/><path class="cls-4" d="M38.43.38v.1a.11.11,0,0,1,0,.05c.2.35.18-.06.37.34l.41,0,.44-.3c-.21-.14.09,0-.23-.1l-.22,0c.32-.18.27-.11.42-.46a1.11,1.11,0,0,0-.4.13c-.32.19-.15.07-.25.25l0-.17,0-.06a.17.17,0,0,0,0-.07c-.51.07-.24-.08-.45.29Z"/><path class="cls-4" d="M38.6,21.54c-.16-.25.23-.09-.22-.24l.84,0-.6-.27.4-.14L38,20.56l-.11.35c.48.21.36.25-.14.42l.91.21Z"/><path class="cls-4" d="M5.59.85l.93-.4C6.31.15,6.4.15,5.94.08l-.11.3C5.68.13,5.52.08,5.17,0a1.43,1.43,0,0,0,.42.56c-.59-.43-.46,0-.46,0Z"/><path class="cls-4" d="M3.32,18.68l.11-.26a2.52,2.52,0,0,0,1.15.16c-.17-.11-.72-.29-.84-.38s-.07-.19-.25-.39-.19-.13-.34-.18l-.16.9.33.15Z"/><path class="cls-4" d="M41.51,18.68c.68-.26.27-.47.25-.52s0-.05,0-.07l-.1-.46c-.57.21-.16.18-.52.52s-.31,0-.71.49a1.51,1.51,0,0,0,.94-.3C41.48,18.51,41.43,18.45,41.51,18.68Z"/><path class="cls-7" d="M11,11.24l0-.34c.34.12.17.09.32,0l.18-.7a1.14,1.14,0,0,0-.67-.25c.32.27.08,0,.21.34l-.28-.08,0,0,.35.46c-.66-.09-.36-.21-.43.4a.76.76,0,0,0,.34.12Z"/><path class="cls-2" d="M7.35,11.57s.06,0,.07.06.53.24.58.26a1,1,0,0,1,.45.44c.31-.06.1.09.28-.28-.61-1.14-1.37-.48-1.38-.48Z"/><path class="cls-7" d="M40.06,14.82c.23-.21.3.26.17-.2l-.37-.31c-.54,0-.15.06-.56-.17.23-.23.08-.09.43-.24l-1-.08c.1.21.2.36.33.61l.76.24c.3.09.09-.11.2.15Z"/><path class="cls-4" d="M11.67,10.24l.27.34c.33-.18,0,0,.22-.19l0,0,0-.64-.35-.07h-.35A1.35,1.35,0,0,1,11.67,10.24Z"/><path class="cls-4" d="M39.85,32.29a.46.46,0,0,1,0-.1l0-.1A.36.36,0,0,0,40,32l.2-.36c.17-.19.26-.19.52-.29l-.28-.18c-.74.22.07,0-.57.37l-.42-.11c.43.15,0,.31.42.86Z"/><path class="cls-4" d="M5.87,27.21l0-.36c-.44-.06-.31,0-.59-.24l.11-.27c-.36.06-.06.07-.19-.24-.51.6.25,1,.34,1h.07l.09,0Z"/><path class="cls-4" d="M8.71,7c.13-.09,0-.07.1-.23l-.16-.18c-.1-.13.15-.24-.81-.29L8,6.43c.22.26,0,.21.56.43h-.2A.67.67,0,0,0,8.09,7Z"/><path class="cls-7" d="M35.94,6.63c-.08.37,0,0-.07.27a1.5,1.5,0,0,1-.13.23l.52-.32c.29-.08.29,0,.44-.19s-.26.1.24-.29a1.61,1.61,0,0,0-1,.3Z"/><path class="cls-4" d="M36.92,21.52c.14.28-.06,0,.23.17.33-.25.3.08.16-.5-.44.12-.2,0-.39.33Z"/></g></g></g></svg>