<svg xmlns="http://www.w3.org/2000/svg" viewBox="0 0 46.39 26.54"><defs><style>.cls-1{fill-rule:evenodd;}</style></defs><g id="Слой_2" data-name="Слой 2"><g id="Слой_1-2" data-name="Слой 1"><g id="_3015518034896" data-name=" 3015518034896"><path class="cls-1" d="M0,23.06v.42c.53.67.65.3,1.27.53.07.44-.16.55-.22,1s0,.89.32.82,0-.54,0-.84c-.17-1.11.81-.91,1.22-1.07a3,3,0,0,0,.7-.43l-.34.68c.22-.14.36-.55.6-.73-.28,1.6.43,1.46.19,2.07s-1.63.46-1.17,1.06h.26a3.29,3.29,0,0,0,.66-.44c.2-.21.22-.46.55-.53.34.14.42.6.8.73s.78-.25.92-.55a2.63,2.63,0,0,0-.07-2.4,5.35,5.35,0,0,0,.57.59c.11.09.27.16.37.24a1,1,0,0,0,1.3.2c.28-.18.31-.42.42-.77s.47-.22.8-.4.29-.38.41-.79c.19-.65,1.4-.19,1.54-.81.09-.41-.84-1-1.23-1.11a4.32,4.32,0,0,0-2-.3,4.8,4.8,0,0,0-2.89,1.29l-.23.22s0,0,0,0,0,0,0,0l.23-.4a2.5,2.5,0,0,1-.24-.16c0-.46.3-1,.39-1.54a3,3,0,0,0-.11-1.56c0,.28.15.58.15,1s-.36,2.25-.83,2.44a5.39,5.39,0,0,0,.12-2.13c-.44-2.73-3-3.89-3.38-3.4s.68,1.18.08,1.76c-1,.92.09,1.08-.32,1.59-.17.2-.44.33-.45.77,0,1.15,1.33,1.12,2.05,1.4A2.27,2.27,0,0,0,.85,22,2.56,2.56,0,0,0,0,23.06Z"/><path class="cls-1" d="M11.59,16.26c.12-.25.17-.2.34-.4,1-1.18,1.22-3.38-.4-3A4.06,4.06,0,0,0,9.78,14c-.77,1,.16,1.78.23,1.95-.32-.08-.37-.41-.93-.48-1.15-.13-.77,2,.82,1.79-.4.11-.53.31-.6.77-.17,1.1.8,1.6,1.21,1.06s.13-.71.28-1.07c.14.23.06,1.33,1.26,1.45s3.75-1,1.86-2.3a4,4,0,0,0-2.17-.55c.24-.24.43.1.29-.41-.32,0-.12,0-.44.07Z"/><path class="cls-1" d="M5.28,12.73c.67-.28,1.3-.15,1.11-1.24-.16-.93-.33-1.17.05-2.05a2.57,2.57,0,0,0-2.12,2.77c-.28-.15,0-.08-.18-.23s-.23,0-.24,0c-.09.28.05.11.08.47a2.78,2.78,0,0,0-2-.38A2.46,2.46,0,0,0,.46,13c1.44,0,1.94,1.49,2.8,1.07.29-.14.38-.52.73-.61,0,.67-.45,1.09.15,1.65A1.11,1.11,0,0,0,4.25,15c.3-.47.68-.2.72-1.12v-.21A.91.91,0,0,0,5.8,14a3,3,0,0,0,.41-.19l.45-.16A1,1,0,0,0,6.1,13a6.49,6.49,0,0,0-.66-.16c-.21-.1-.08,0-.16-.15Z"/><path class="cls-1" d="M17.51,3.49l-.45.07A1.07,1.07,0,0,0,16,4.09c.37.19.27,0,.62.36a.66.66,0,0,0,.74.13v0c0,.14.1,0,.27-.06-.32,1-.05.82.24,1.21a2.19,2.19,0,0,1,.19.42c.7-.37.36-.94.5-1.57.43.19.41,1.31,1.56.74a2.8,2.8,0,0,1,2-.47,2.54,2.54,0,0,0-1.19-1.23,2.76,2.76,0,0,0-2-.11c.07-.34.3-.06.18-.45-.28-.09-.19.06-.5.18A2.62,2.62,0,0,0,17.1,0a2.72,2.72,0,0,1-.37,2c-.51,1.23.47,1.06.78,1.52Z"/><path class="cls-1" d="M32,12.45c.37.28,0,.37.26.67s.35-.14.31.68,1,.06,1.23-.9a2.51,2.51,0,0,0-.28-2c.23.09.05.16.34.06a.38.38,0,0,1-.13-.23,2.43,2.43,0,0,0,1.92.29c.54-.14,1.27-.58,1.28-1.13-.32-.16-.45,0-.8-.07-.45-.53.07-.33-.78-.46-.17-.2-.41-.67-.85-.32a2.74,2.74,0,0,0-.48.72,1.52,1.52,0,0,0-.31-1.17c-.52-.6-.64.08-.82.31-.23,0-.77-.56-.9-.17.26.21.43,0,.79.29a7.48,7.48,0,0,0,0,.91l0,.16c-.48-.21-.72,0-.94-.13s-.08-.6-.37-.79c-.07.06-.1,0-.09.22s.24.37.28.67c-.15.13-.06.05-.26.14s-.11,0-.21.18c-.27.58.69.84,1.27.83-.31.2-1.27.66-.52,1.21Z"/><path class="cls-1" d="M8.34,5c.93-.72-.24-.75-.91-.3a2.21,2.21,0,0,0-.9,1.51c-.07,0,.1.11-.1-.11-.06.07-.09-.11-.08.19-.17-.22-.24-.39-.43-.6a1.75,1.75,0,0,0-2.16-.42c.05.3.25.32.48.46.07.53-.1.44.33.69,0,.88.45.66,1,.45-.15.23-.56.88-.12,1.22.31.08.26-.1.56-.13.15.23.16.54.46.57.08-.39-.28-.08-.34-.63.11-.26.23-.17.32-.56.15.08.07,0,.13.16,0-.26,0-.2.08-.27.13.37.32.22.52.5.1.48-.29.36-.14.67.44-.16,0-.64.38-.68,0,0,.9.19.41-.71-.18-.32-.22-.26-.47-.46.26,0,.62.07.81-.09s.09-.42.06-.68.19-.18.17-.37-.08-.14-.1-.41Z"/><path class="cls-1" d="M9.59,10.51l.14-.06c.24-.06.29,0,.57-.1a0,0,0,0,1,0,0l0,0v.09c.11-.18,0-.08.2-.16,0,.28,0,.72,0,.82-.17.26-.4.06-.58.29.28.26.39-.17.78-.23.22.66.88.54.81-.78A2.15,2.15,0,0,0,12,11c.38.15.51-.19.6-.39.57,0,.4,0,.6-.44a1.57,1.57,0,0,0,.65-.12c0-.77-1.85-1.18-2.65-.44v0c0-.09.08-.07-.15-.12H11c.53-1.35-.43-2.53-1-2.47L10,7c-.13.22,0,.37,0,.67-.44.29-.23.18-.29.58s-.35.12-.25.73a4,4,0,0,0,.66.41,1.1,1.1,0,0,0-.92.41c-.4.58.35.36.42.73Z"/><path class="cls-1" d="M21.83,8.92c0-.28.16-1-.43-.81-.38.1-.45.52-.4,1-.69,0-1.22.49-.76.92A1,1,0,0,0,21,9.89c-.2.26-.65.45-.37,1.08s1.52,1.61,1.67.32A2.71,2.71,0,0,0,22,10c.1.13,0,.11.27.06l-.14-.23a2.37,2.37,0,0,0,1.42,0c1.14-.47-.17-1.47-.81-1.53s-.7.28-.89.65Z"/><path class="cls-1" d="M11.22,3.18c-.13.3-.72.22-.74.9.5-.16.46.2,1-.15l.11-.08c.07.58.19.42.81.8.22-.8-.2-.73-.21-1.13.55.15.66.62,1.2-.12a2,2,0,0,1,1-.87,1.74,1.74,0,0,0-2.31.22c-.1-.14,0-.11,0-.29-.31,0,0,0-.16.07l-.15.15A1.73,1.73,0,0,0,9.83,1.23a1.88,1.88,0,0,1,.41,1.23c.07.85.36.62,1,.72Z"/><path class="cls-1" d="M17,12.57a1.7,1.7,0,0,0,.14-2.14c-.31.56-.3.54-.94,1s-.16.77-.13,1.18c-.26,0-.61-.52-1.05-.25-.08.12-.05-.05,0,.1l.19.45a.73.73,0,0,0,.5.33c-.65.61-.18.39-.35,1.11.79-.08.71-.84.89-.67.18.33-.27.83.66,1a2.18,2.18,0,0,1,1.28.43,1.76,1.76,0,0,0-1.34-1.93c.09-.07.17-.07.25-.18-.14-.19-.08-.07-.33-.09l.22-.26Z"/><path class="cls-1" d="M27.58,10.54A1.76,1.76,0,0,0,29.41,9c-.65.28-.65.19-1.4.14s-.58.41-.8.82c-.32-.25-.08-.68-.67-.88l0,.05,0,.13c-.1.36-.28.57,0,1-.74,0-.42.07-1,.62.41.36.67.07,1.1,0-.09.44-.75.47-.13,1.2a1.81,1.81,0,0,1,.67,1.18,1.77,1.77,0,0,0,.25-2.39c.16.06.18.12.32,0,0-.31,0,0-.19-.3Z"/><path class="cls-1" d="M27.16,4.51l-.08-.19c-.06-.41-.3-.85-.65-.87a1.15,1.15,0,0,0-.16.61c-.34-.21-.44-.68-1.1-.63,0,.39.07.31.11.61-.14.23-.23.13-.19.47s0,.16-.14.45c-.19.46.38.5.6.66-.38.19-.89-.35-1.05.47,0,.23.15.35.2.43-.25.07-.45.1-.45.4.35-.06.21-.4.57-.35,0,.26-.5.35-.35.73.32-.14.1-.5.45-.57s.37.19.83.06v.32c.13-.63.91-.5,1.06-1,.06-.2,0-.09.09-.35A2.16,2.16,0,0,0,27,5.41a4.74,4.74,0,0,0,.12-.9Z"/><path class="cls-1" d="M40.17,9.54c-.26.38,0,.1-.4.26s0,.62-.06.92c-.54-.59-.31-.68-1.16-.38v.42c-.34-.1-.55-.29-.6,0,.23.08.43-.17.63.1-.26.16-.59-.09-.75.28.29.15.2-.2.71-.12.24.24.17.47.57.61l0,0c-.1.17-.07.05,0,.12.52-.12.78.2,1.11.15s0-.1.46-.25A2,2,0,0,0,42,10.34c.27-1.12-.64-.32-.65-.32,0-.43.05-1-.37-1.16-.24.16-.13.21-.28.46s-.31,0-.48.22Z"/><path class="cls-1" d="M30,6.17c.27-.46.31-1.63-.37-1.3-.34.17-1,.73-.4,1.35-.81-.13-.67.57.1.65-.07.35.07.92.5.67.18-.21.07-.28.08-.53.21.79,1,.28,1.33,0,.46-.48-.15-.89-1.09-.67-.05-.13.17.07,0-.11s0,0-.15,0Z"/><path class="cls-1" d="M16.3,8.78c.09-.25.09-.17.28-.31a1.93,1.93,0,0,0,.25-.24c.18-.2.22-.47.36-.63,0-.26,0-.33-.13-.52a.62.62,0,0,0-.36.26c-.08-.34-.09-.63-.41-.73-.12.17,0,.16-.12.3s0,0-.21.17-.07.13-.19.25-.08,0-.21.19.1.31.17.49c-.19-.12-.21-.21-.47-.28-.25.09-.35.16-.32.46l-.39,0c.13.28.19-.11.43.07-.22.19-.37,0-.43.32.21-.07.22-.24.42-.19s.31.26.42.34h0c.11.06.18,0,.38,0Z"/><path class="cls-1" d="M44.15,8c0-.15-.08.06,0-.08s.18-.13.26-.21c1-1-1.21-1-.8-.05a.43.43,0,0,0-.39-.2c-.22.31-.09.38.14.62-.19.17-.33.39,0,.65a.43.43,0,0,0,.33-.22c0,.31.11.46.44.5a.94.94,0,0,0,.7-.15c0-.49-.27-.6-.65-.79Z"/><path class="cls-1" d="M45.17,5.58c.34-.2.15-.06.37.06a.49.49,0,0,0,.47,0,.64.64,0,0,0,.37-.72c-.13,0,0,0-.21.06A.64.64,0,0,0,46,4.66a3,3,0,0,0-.27.3c-.15.16-.18.09-.06.32-.15-.11-.05-.07-.27-.1l-.11.16,0,0Z"/><path class="cls-1" d="M14.24,16.89c-.13-.21-.18-.06-.18-.06-.21.17-.06.28-.05.29.19.11.4,0,.23-.23Z"/><path class="cls-1" d="M9.59,10.51a.3.3,0,0,0-.09.08l0,.07a.52.52,0,0,0-.06.16c0,.21,0,.21.08.32.1-.08,0,.08.1-.13v-.5Z"/><path class="cls-1" d="M3.8,17.2c.06,0,.1,0,.18,0s.05,0,.12-.07l-.34.07c-.1.35.08.53.39.36,0-.23,0-.07-.06-.22l0,0,0,0c-.23.24,0,.07-.15.14-.15-.16-.12-.1-.07-.31Z"/><path class="cls-1" d="M27.08,4.32l.08.19V4.36s.06.23.22,0,0,0,.05-.17c-.24-.07-.18,0-.35.09Z"/><path class="cls-1" d="M8.61,19.94l0,0c-.35-.15-.2-.11-.19-.16s.35-.2-.08-.19c0,0-.2.06.06.3.07.07.13.06.25.07Z"/></g></g></g></svg>