<svg xmlns="http://www.w3.org/2000/svg" viewBox="0 0 51.42 38.66"><defs><style>.cls-1,.cls-2{fill-rule:evenodd;}.cls-2{fill:#fefefe;}</style></defs><g id="Слой_2" data-name="Слой 2"><g id="Слой_1-2" data-name="Слой 1"><g id="_3015518022272" data-name=" 3015518022272"><path class="cls-1" d="M22.86,35c.67.14,1.58,1.3,1.74,1.66C23.82,36.44,22.75,36,22.86,35Zm3.84,1.65C26.92,36.23,28,35,28.43,35,28.55,35.93,27.51,36.45,26.7,36.64Zm11.9-5.12a.38.38,0,0,1,.13-.1l.77-.2a4.07,4.07,0,0,1,2.7.54c-.6,0-1.3,0-1.91,0C39.44,31.78,39.16,32,38.6,31.52Zm-29.4.25a3.29,3.29,0,0,1,1.68-.57,4.33,4.33,0,0,1,1.08,0,1.65,1.65,0,0,1,.83.29c-.47.45-.93.26-1.67.25S9.82,31.79,9.2,31.77ZM42,30.49c1.92,0,3.23-.16,5.26-.07.83,0,1.27-.07,1.45.27a4.19,4.19,0,0,1-.9.08,10.42,10.42,0,0,0-3.65.9c-.65.31-.82.16-1.54.13-.11-.75-.42-.85-.62-1.31Zm-39.78.24c.12-.27.27-.23.66-.25,2.68-.17,3.89,0,6.5,0a3.29,3.29,0,0,0-.64,1.3C7,32.05,7,31.67,5.61,31.22A13.66,13.66,0,0,0,2.23,30.73Zm39.31-.66a2.69,2.69,0,0,1,1.65-.53A3.62,3.62,0,0,1,45,30ZM6.41,30l0,0,0,0,.09-.06a3.2,3.2,0,0,1,3.26.21Zm28.2,1.24a21.07,21.07,0,0,0-2.81.87l2.88-.64.1.79c-.79.32-1.91.25-2.59.63.5,0,1.57-.24,2.18-.33.77-.11.22,0,.57.16a5.06,5.06,0,0,1,2.24-.45,9,9,0,0,1,2.38.37l-.18-.5h3.69c-.09.18-.48.39-.79.61a8,8,0,0,1-.89.58c0,.16,0,.15.17.29a29.8,29.8,0,0,0-9.34.15c.73,0,1.52-.09,2.26-.13a37.69,37.69,0,0,1,6.89.27c-4.2.76-3,.2-6.61.26l-1.21.35L33,35a18.28,18.28,0,0,1-2.64,1.79,8.68,8.68,0,0,1-4.69,1.23A8,8,0,0,1,21,36.87a16.38,16.38,0,0,1-3.44-2.55h1.23l-1.67-.19c-.89.1-1.78,0-2.81.12a6.4,6.4,0,0,1-2.22.06c-.45-.1-1.9-.26-2.15-.37.58-.34,5.7-.35,6.94-.3.73,0,1.64.17,2.33.13-.7-.06-1.52-.25-2.32-.32a33.37,33.37,0,0,0-5.29,0c-.81.07-1.72.26-2.45.29l.5-.25-.18-.19a2.79,2.79,0,0,0-.25-.17l-1.28-.92a32.84,32.84,0,0,1,4.09,0l-.18.48a14,14,0,0,1,2.34-.37,5.41,5.41,0,0,1,2.31.46c.39-.16-.4-.31,1.29,0l1.41.18.06,0-2.62-.57.09-.77,3.12.69a16.72,16.72,0,0,0-3-.93,4.65,4.65,0,0,1,.66-1.57c1.27-2,1.44-.17,2.74-4.1.26-.77,1-2.74,1.71-2.77,1.77-.08,2.4,5.17,1.65,6.82-.54,1.17-1.36,1.42-1.65,2.91a4.16,4.16,0,0,0,.68,3.61,3.9,3.9,0,0,0,6.13,0,4.61,4.61,0,0,0,.71-3.68c-.27-1.23-1.11-1.62-1.68-2.82a7.91,7.91,0,0,1-.11-4.05c.19-1,.74-2.75,1.74-2.75s1.57,2,1.81,2.74c.41,1.22.72,2.35,1.6,3a4.48,4.48,0,0,1,1.83,2.73Zm-15.87-8.6c-.57-.55-.81-1.61-.43-1.95.19.13.07-.07.13.24l.08.76a1.3,1.3,0,0,0,.4.77,1.57,1.57,0,0,0,1.72.16C20.36,23.2,19.15,23,18.74,22.65Zm14.42-.8A1.71,1.71,0,0,1,31,22.91c-.93-.35-1.33-2-.8-2.22.33.42-.19,1.58,1,2s1.75-.68,2-.88Zm-.33-.74c-.18.11-.67.42-.78-.18s.3-.6.67-.5A.92.92,0,0,1,32.83,21.11ZM20.4,20.46c.53-.35.85.53.4.77a.4.4,0,0,1-.58-.21A.37.37,0,0,1,20.4,20.46ZM4.51,19.6a12.37,12.37,0,0,1,2.14-3A13,13,0,0,0,8.16,15,12.11,12.11,0,0,0,5.92,17c-.2.22-.49.47-.67.71a9.75,9.75,0,0,0-2,3.53c.56-.24.89-.84,1.55-1.05-.12.24-.5.72-.68,1s-.46.65-.67,1A15.7,15.7,0,0,0,.84,29.3c.32-.06.8-.61,1.16-.75-.07.27-.57,1.69-.68,1.9L0,30.75l1.29-.11L1,32c1.1,0,3-.43,4.06.19-.58.32-2.33.36-3,.76,2.86-.18,3-1.24,5.62.35a2.91,2.91,0,0,1-.72.53c-1.44,1-1.94.8-2.48,1.2l1.06-.15c0,.07,0,0,0,.1a17.69,17.69,0,0,1,4.77-.14c-.63.4-3.3.79-4.23,1.49a17.08,17.08,0,0,0,1.69-.52c2.22-.67,3.12-1,5.46-.54a27.57,27.57,0,0,1,3.46,1c.86.29,2.71,1.16,3.09,1.26a18.6,18.6,0,0,0-4.65-2.26c-.36-.13-1.48-.44-1.71-.57a16.06,16.06,0,0,1,3.9-.25l1.06,1c.37.32.7.63,1.12,1A12.39,12.39,0,0,0,22.07,38a6.55,6.55,0,0,0,3.5.67A6.67,6.67,0,0,0,29.05,38a12.15,12.15,0,0,0,2.56-1.59l2.18-2c.45-.41,3.12,0,3.83.06l-.93.35c-.31.09-.59.18-.89.29a21.74,21.74,0,0,0-3.31,1.46c-.28.15-1.36.82-1.43.83.47-.15,1.07-.46,1.59-.67a28.4,28.4,0,0,1,5.28-1.64,6.91,6.91,0,0,1,4,.12c.61.15,1.22.32,1.79.49s1.21.45,1.69.54a16.28,16.28,0,0,0-2.13-.86,18.67,18.67,0,0,1-2.3-.72l1.26-.05a22.9,22.9,0,0,1,3.22.23c-.11-.14-.32-.27-.38-.41L47,35,45,34.3a5,5,0,0,1-1.77-1.06c.91-.42,1.47-1,2.72-.86,1,.11,2.18.41,3.16.46-.72-.49-2.07-.38-2.92-.69-.17-.06-.09,0-.15-.08A9.28,9.28,0,0,1,49.94,32l-.27-1.39,1.75.16c-.48-.14-1.09-.16-1.59-.32l-.21-.09L49,28.55c.41.15.75.59,1.18.77a16.85,16.85,0,0,0-3.25-8.19,10.75,10.75,0,0,1-.66-.94,7.56,7.56,0,0,1,1.54,1A11.57,11.57,0,0,0,44,16c-.15-.12-.21-.21-.35-.33l-.79-.58a4.15,4.15,0,0,0,1,1.05,15.5,15.5,0,0,1,2.57,3.43c-.69-.17-1.22-.33-2-.46a8.67,8.67,0,0,0,.69.9c1.48,2,3.31,4.78,3.72,7.26-.35-.13-.82-.45-1.21-.64s-.86-.42-1.24-.57a17.8,17.8,0,0,1,2.08,4.14L45.38,30A12.08,12.08,0,0,1,45,28.71,11.86,11.86,0,0,0,40.2,22a16.54,16.54,0,0,0-4.58-2.06,26.84,26.84,0,0,0-5.74-.82c.2-1.2,1.29-1.54,1.34-1.74,0,0,0,0,0,0a3.57,3.57,0,0,0-1.1.18,1.45,1.45,0,0,1,.42-1A3.78,3.78,0,0,1,31.2,16a3,3,0,0,0-1.22.59,4.25,4.25,0,0,0-.79,1.07,6.86,6.86,0,0,0-.5,1.37,5.23,5.23,0,0,1-.38,1.48c-.95-.25-1.7-4.8-1.81-6.16s-.1-2.43-.29-3.72c-.06-.44-.46-3.24-.58-3.4-.1.2-.48,3-.54,3.42-.18,1.33-.18,2.41-.29,3.73C24.68,16,24,19.92,23,20.51A10.24,10.24,0,0,1,22.68,19c-.31-1.23-1.05-2.8-2.49-3a2,2,0,0,1,1,1.54,2.3,2.3,0,0,0-1.07-.17c.21.26.62.35.87.67a2.79,2.79,0,0,1,.52,1.11A18.83,18.83,0,0,0,11.17,22a7.34,7.34,0,0,0-.95.71l-.86.8a11.6,11.6,0,0,0-1.47,1.78C6.41,27.47,6.41,29.05,6,29.9L6,30c-.17.06-3.06.24-3.6.3.35-1.57,1.46-2.85,2.09-4.21a19.33,19.33,0,0,0-2.41,1.2,16,16,0,0,1,1.8-4.47,42.51,42.51,0,0,1,2.59-3.66,7.17,7.17,0,0,0-1.95.44Z"/><path class="cls-2" d="M34.61,31.25a4.48,4.48,0,0,0-1.83-2.73c-.88-.62-1.19-1.75-1.6-3-.24-.71-.94-2.74-1.81-2.74s-1.55,1.71-1.75,2.75a8,8,0,0,0,.12,4.05c.57,1.2,1.41,1.59,1.68,2.82a4.61,4.61,0,0,1-.71,3.68,3.9,3.9,0,0,1-6.13,0,4.16,4.16,0,0,1-.68-3.61c.29-1.49,1.11-1.74,1.65-2.91.75-1.65.12-6.9-1.65-6.82-.68,0-1.45,2-1.71,2.77-1.31,3.93-1.47,2.14-2.74,4.1a4.65,4.65,0,0,0-.66,1.57,16.72,16.72,0,0,1,3,.93L16.7,31.5l-.09.78,2.62.56-.06,0-1.41-.18c-1.69-.26-.9-.11-1.29,0a5.41,5.41,0,0,0-2.31-.46,14,14,0,0,0-2.34.37l.18-.48a32.84,32.84,0,0,0-4.09,0l1.28.92a2.79,2.79,0,0,1,.25.17l.18.19-.5.25c.73,0,1.64-.22,2.45-.28a32.22,32.22,0,0,1,5.29,0c.8.07,1.62.26,2.32.32-.69,0-1.6-.1-2.33-.13-1.24,0-6.36,0-6.94.3.25.11,1.7.27,2.15.37a6.4,6.4,0,0,0,2.22-.06c1-.08,1.92,0,2.81-.12l1.67.19H17.53A16.38,16.38,0,0,0,21,36.87a8,8,0,0,0,4.66,1.19,8.68,8.68,0,0,0,4.69-1.23A18.28,18.28,0,0,0,33,35l.59-.52,1.21-.35c3.56-.06,2.41.5,6.61-.26a37.69,37.69,0,0,0-6.89-.27c-.74,0-1.53.15-2.26.13a29.8,29.8,0,0,1,9.34-.15c-.12-.14-.15-.13-.17-.29a8,8,0,0,0,.89-.58c.31-.22.7-.43.79-.61H39.38l.18.5a9,9,0,0,0-2.38-.37,5.06,5.06,0,0,0-2.24.45c-.35-.13.2-.27-.57-.16-.61.09-1.68.31-2.18.33.68-.38,1.8-.31,2.59-.63l-.1-.79-2.88.64a21.07,21.07,0,0,1,2.81-.87Z"/><path class="cls-1" d="M37.61,5.09c-.08.12,0,0-.15.17l-.56.33A6.84,6.84,0,0,0,38.26,8l.71.6,0,0-.14.14a2.29,2.29,0,0,1-.27.14,2.41,2.41,0,0,1-.54.21c.11.27,0,.09.2.27L39,10a3.63,3.63,0,0,0,1.47.39c-.23,1.93-.07,4.37,1.87,5.3a1.9,1.9,0,0,0-.43-.5,3.65,3.65,0,0,1-.89-2c-.14-1.41.2-1.24,1.34-2.56a8,8,0,0,0,1.37-2.49c.26-.77.71-2.88-.13-3.28-.62.36-.22,1.4-1.48,2.71A7,7,0,0,1,39.56,9a2.62,2.62,0,0,0,.6-.91,1.93,1.93,0,0,1-1.87-.67,4.49,4.49,0,0,1-.76-1.79c.44-.45.7-.36.94-1.16a3.08,3.08,0,0,1-2.07-.06c-.54-.19-1.25-.64-1.6-.74A4.48,4.48,0,0,0,36,4.56a5.68,5.68,0,0,0,1.6.53Z"/><path class="cls-1" d="M7.8,13.61c-.09-.54-.5-1.53-.69-2.15S6.67,10,6.5,9.18C5.11,3,6.54-.11,12.65,3.23a10.48,10.48,0,0,0,.94.48c-.33-.26-.64-.54-1-.78-2-1.39-7.46-5.3-8-.89-.26,2,.5,4.54,1,6.26A39.21,39.21,0,0,0,7.8,13.61Z"/><path class="cls-1" d="M12.5,4.49a2,2,0,0,0,.92,1.17,3.62,3.62,0,0,1-.74,1.77c-.49.57-.81.73-1.86.69.15.52.42.6.58.92A6.32,6.32,0,0,1,8.87,7.5,3.61,3.61,0,0,1,8,6.28C7.8,5.82,7.78,5,7.39,4.81,6.33,5.13,7,8.56,8.5,10.43a8.94,8.94,0,0,0,.91,1c.45.44.58.44.55,1.41a4.33,4.33,0,0,1-1.22,2.71,3.27,3.27,0,0,0,1.58-2,7.62,7.62,0,0,0,.17-3.23A3.19,3.19,0,0,0,11.92,10l.82-.56a.52.52,0,0,0,.11-.1l0,0,.06-.07,0,0c-.36-.2-.78-.24-1-.55a5.45,5.45,0,0,0,2.11-3.07l-.53-.27c-.19-.14-.07,0-.18-.21a5.16,5.16,0,0,0,1.51-.5,5.7,5.7,0,0,0,1.1-.7c.18-.18,0,0,.14-.18-1.23.49-1.9,1.28-3.62.78Z"/><path class="cls-1" d="M37.28,3.82A16.19,16.19,0,0,1,41.15,2c2-.53,3.2.13,3.64,1.83A12.42,12.42,0,0,1,44.5,9c-.22,1-1.29,4.41-1.3,4.52a41.2,41.2,0,0,0,2.13-5.28C45.82,6.73,47.9.11,44.57,0c-2.32-.07-7,3.32-7.29,3.81Z"/><path class="cls-2" d="M2.23,30.73a13.66,13.66,0,0,1,3.38.49c1.38.45,1.43.83,3.14.57a3.29,3.29,0,0,1,.64-1.3c-2.61,0-3.82-.18-6.5,0C2.5,30.5,2.35,30.46,2.23,30.73Z"/><path class="cls-2" d="M42,30.49c.2.46.51.56.62,1.31.72,0,.89.18,1.54-.13a10.42,10.42,0,0,1,3.65-.9,4.19,4.19,0,0,0,.9-.08c-.18-.34-.62-.24-1.45-.27-2-.09-3.34,0-5.26.07Z"/><path class="cls-1" d="M16.09,3.24C16,3,15.91,3,15.72,2.86l-.43-.42a18.26,18.26,0,0,1,6.62,1.41c-.19-.35-.48-.53-.62-.86.68.09,1.23.12,1.91.27s1.14.38,1.66.51A10,10,0,0,0,20,2.43l.92.7c-.3,0-2.33-.62-2.92-.73a19.9,19.9,0,0,0-4.38-.32,5.2,5.2,0,0,0,1.26.54,9.77,9.77,0,0,1,1.17.62Z"/><path class="cls-1" d="M30,3.14a2,2,0,0,1,.4-.36l.5-.34,0,0a10.72,10.72,0,0,0-4.73,1.31A14.27,14.27,0,0,1,29.67,3l-.62.85a18.59,18.59,0,0,1,6.61-1.38c-.35.41-.45.3-.74.75.74-.41,1.53-.74,2.36-1.1a15.13,15.13,0,0,0-3.93.21c-.58.11-1.14.23-1.7.38s-1.28.4-1.62.44Z"/><path class="cls-2" d="M9.2,31.77c.62,0,1.28,0,1.92,0s1.2.2,1.67-.25a1.65,1.65,0,0,0-.83-.29,4.33,4.33,0,0,0-1.08,0A3.29,3.29,0,0,0,9.2,31.77Z"/><path class="cls-2" d="M38.6,31.52c.56.46.84.26,1.69.25.61,0,1.31,0,1.91,0a4.07,4.07,0,0,0-2.7-.54l-.77.2A.38.38,0,0,0,38.6,31.52Z"/><path class="cls-2" d="M6.41,30l3.44.09a3.2,3.2,0,0,0-3.26-.21L6.5,30l0,0Z"/><path class="cls-2" d="M41.54,30.07,45,30a3.62,3.62,0,0,0-1.77-.46A2.69,2.69,0,0,0,41.54,30.07Z"/><path class="cls-2" d="M33.16,21.85c-.23.2-.85,1.32-2,.88s-.65-1.62-1-2c-.53.22-.13,1.87.8,2.22a1.71,1.71,0,0,0,2.16-1.06Z"/><path class="cls-2" d="M22.86,35c-.11,1,1,1.45,1.74,1.66C24.44,36.29,23.53,35.13,22.86,35Z"/><path class="cls-2" d="M26.7,36.64c.81-.19,1.85-.71,1.73-1.63C28,35,26.92,36.23,26.7,36.64Z"/><path class="cls-2" d="M20.64,22.63a1.57,1.57,0,0,1-1.72-.16,1.37,1.37,0,0,1-.41-.77l-.07-.76c-.06-.31.06-.11-.13-.24-.38.34-.14,1.4.43,1.95C19.15,23,20.36,23.2,20.64,22.63Z"/><path class="cls-2" d="M32.83,21.11a.92.92,0,0,0-.11-.68c-.37-.1-.77,0-.67.5S32.65,21.22,32.83,21.11Z"/><path class="cls-2" d="M20.4,20.46a.37.37,0,0,0-.18.56.4.4,0,0,0,.58.21C21.25,21,20.93,20.11,20.4,20.46Z"/></g></g></g></svg>