<svg xmlns="http://www.w3.org/2000/svg" viewBox="0 0 34.46 46.42"><defs><style>.cls-1{fill:#010101;}.cls-1,.cls-2{fill-rule:evenodd;}.cls-2{fill:#fff;}</style></defs><g id="Слой_2" data-name="Слой 2"><g id="Слой_1-2" data-name="Слой 1"><g id="_3015518065376" data-name=" 3015518065376"><path class="cls-1" d="M9.51,45.4c0-.23.06-.42.05-.67s0-.5,0-.73c.08,0,.05,0,.13-.17s.07-.15.1-.26.08-.34.16-.56.18-.25.28-.42.17-.35.33-.41c0,.15-.08.24-.11.41a3.7,3.7,0,0,0-.06.48c-.09.93.14.77-.37,1.73-.1.18-.28.55-.49.6Zm-.7-3.87a.24.24,0,0,1,0-.07l0-.19c.06-.12.05-.12.2-.15a.5.5,0,0,1-.17.37c-.07.07,0,0-.07,0Zm11.32-2.62a.29.29,0,0,1,.19-.15C20.3,38.89,20.28,39,20.13,38.91ZM8,38.6c-.08,0-.07.08-.11.16s0,.11-.14.16A.35.35,0,0,1,8,38.48v.12Zm8.36-1.09s-.07,0-.05-.16,0-.12.12-.15,0,.21-.07.31Zm-1.91,0a1.92,1.92,0,0,1,0-.48c0-.17,0-.28.12-.34s.06.12.09.26a.55.55,0,0,1,0,.22.59.59,0,0,1-.24.34Zm1.87.07c.2-.16.08-.15.38-.51.06.11,0,.31-.1.42s-.14.28-.27.29Zm.59-.09a2.35,2.35,0,0,0,.1-.22c.12-.29.11-.57.37-.65A2.54,2.54,0,0,1,16.93,37.53Zm.11.08a2.15,2.15,0,0,1,.21-.4c.26-.35.43-1.06.59-1.12a3.77,3.77,0,0,1-.8,1.52ZM6.93,35.78c-.13-.06-.2-.53-.12-.69C7,35.24,7,35.59,6.93,35.78Zm4,0a5.66,5.66,0,0,1,.34-1.06,1.87,1.87,0,0,1-.08.57c-.06.15-.13.41-.26.49ZM21.37,33c.13.19-.05.68-.09.71a3.67,3.67,0,0,1-.14-.37A2.49,2.49,0,0,1,21,33l.2,0c.12,0,.05,0,.19,0Zm.17-1.39c0,.18-.08.25-.17.3s-.07-.11-.05-.27Zm.21-2c-.13,0-.13,0-.22-.14s-.1-.08-.15-.18a1.09,1.09,0,0,1,.43.18l-.06.14Zm-12-2.41c0-.09,0-.12.13-.13S9.91,27.17,9.79,27.17ZM8.28,24.52c.19,0,.29.27.33.52s.23.38.18.62a.44.44,0,0,1-.28,0,3.63,3.63,0,0,1-.23-1.16ZM17,24.7c0-.24-.18-.44-.33-.27a4.43,4.43,0,0,0-.1,1.34.65.65,0,0,1-.41-.27c0-.12.11-.5.11-.76s.06-.55-.13-.79A1.76,1.76,0,0,0,15,23.28a.67.67,0,0,1,.75-.24,7.13,7.13,0,0,1,.69.29c.89.29,1.73-.55,2.05-.2s-.13.34-.38.51l-.23.18a1.94,1.94,0,0,0-.48.58c-.16.32,0,.68-.06.86,0,0-.22.18-.35.16,0-.21,0-.49,0-.72ZM2.21,22.63c0-.13.36-.63.54-.63,0,.22,0,.11-.11.22a2.46,2.46,0,0,1-.43.41Zm30.3-.71c.07.14.22.26.21.49a.91.91,0,0,1-.33-.64C32.54,21.83,32.44,21.76,32.51,21.92ZM2.91,22c0-.13,0-.15.12-.26s.33-.41.53-.49c0,.15,0,.18-.1.25l-.35.36a.48.48,0,0,1-.2.14Zm30.15-4.18c-.11,0-.07,0-.15-.11a7,7,0,0,0-.75-.9c-.1-.08-.08,0-.12-.16.15,0,.1,0,.18.12s.09.06.16.13a1.84,1.84,0,0,1,.26.29,3.84,3.84,0,0,1,.42.63Zm-.74-.61a2,2,0,0,1-.81-.58l-.13-.33c.15.05.16.13.28.21s.16.15.23.21a2.1,2.1,0,0,1,.43.49Zm-2.4-2.84c.07-.07.9.15,1,.41C30.8,14.74,29.77,14.48,29.92,14.34ZM28.83,15a1.8,1.8,0,0,1-1.35-.69c.3.05.36,0,.44.18.29,0,.26.11.49.24a1.6,1.6,0,0,1,.42.27ZM5.91,14.26a1.07,1.07,0,0,1-.34-.16c-.17-.1-.22,0-.35-.17.39-.2.83.26,1.21.42.08,0,.07,0,.16.06-.2.2-.36-.07-.68-.15ZM3,14.14c.1.28.22.42.31.71a4.1,4.1,0,0,0,.36.65c.24.48.38.34.43.6-.24.15-.26.06-.57-.37A7.22,7.22,0,0,1,3.1,15a6.21,6.21,0,0,1-.42-1.26c-.06-.16-.14-.31,0-.4.1.08.06,0,.1.19Zm1.33,1.6c-.08-.12,0-.05-.12-.14A3.47,3.47,0,0,1,3.78,15a.76.76,0,0,1-.18-.33c-.08-.23-.26-.47-.35-.69s0-.2-.14-.37A.54.54,0,0,1,3,13.18.86.86,0,0,1,3.41,13a10.45,10.45,0,0,0,.52,1.49,2.87,2.87,0,0,0,.41.58c.28.5.37.4.45.55a.66.66,0,0,1-.36.24c-.09-.06-.07-.06-.12-.15ZM2.54,12.42a1.36,1.36,0,0,1,.17-.78c.13,0,.17,0,.17.19s0,.24,0,.29a.52.52,0,0,1-.3.3Zm.86-.7c0-.14,0-.15.14-.18l.25,0a1,1,0,0,1-.39.2ZM3,11a1,1,0,0,1,.14-.21c.13-.18.1-.31.32-.37a.53.53,0,0,1-.24.42.38.38,0,0,1,.22.1,1.48,1.48,0,0,1-.56.28L3,11ZM4.35,9.72c0-.09,0-.08-.06-.14l.38.12a1.24,1.24,0,0,1-.74.25C4,9.82,4.21,9.85,4.35,9.72Zm25,0c.12.2.08,0,.13.23a2.08,2.08,0,0,0-.36-.47c-.22-.25-.34-.28-.38-.45a.83.83,0,0,1,.49.41c0,.08.07.2.12.28Zm-1-.36a.89.89,0,0,0,.12-.53l.18,0c0,.21,0,.14-.11.29s-.14.5-.48.59l.29-.4Zm-.11-1.25c-.11-.07-.11.05-.11-.14s.64.21.78.3l.94.75a4.25,4.25,0,0,1,.57,1.07,4.51,4.51,0,0,1-.14,2,2.71,2.71,0,0,1-.21.37c-.06.13-.12.22-.18.35a5.55,5.55,0,0,1-.45.67.39.39,0,0,1-.26,0l0,0c.07-.15.14-.16.25-.33s.13-.21.21-.34c.2-.35.22-.5.35-.72l.3-.78a2,2,0,0,0-.19-1.37,2.31,2.31,0,0,0-.69-.94,2.77,2.77,0,0,0-.34-.2c-.1-.07-.07-.07-.17-.11a2.87,2.87,0,0,1-.5-.3c-.08-.12,0-.08-.12-.17Zm-1.06-.07c0-.33.15-.28.42-.27a.92.92,0,0,1-.14.26S27.3,8.08,27.19,8.09Zm-4.36-2.3c0-.15,0-.06.11-.15s.22-.33.39-.4C23.3,5.53,23.3,5.64,22.83,5.79ZM8,38.6a7.55,7.55,0,0,0,.56-1c.12-.31.13-.64.22-1,0-.14.08-.12.19-.11a2.57,2.57,0,0,1,.28-.82A7.48,7.48,0,0,1,9.68,35c-.39.07-.53.49-.67.79s0,.16-.17.31a3.79,3.79,0,0,1-.09-.78,6.24,6.24,0,0,1-.14-1.45,3.3,3.3,0,0,1,.21-.65c0-.11.08-.21.13-.31A1.07,1.07,0,0,1,9,32.76s0-.12.06-.16.05-.07.12-.11A5.5,5.5,0,0,0,9.74,32a4.74,4.74,0,0,1,.65-.68,1.73,1.73,0,0,1-.25.51,6.07,6.07,0,0,0-.68,1.41,3,3,0,0,0,.46-.64l.31-.52a1.67,1.67,0,0,1,.12-.13c.16-.19.61-1.26.84-1.31,0,.46-.72,1.38-.65,2.05a2.64,2.64,0,0,0,.14-.29c.05-.12.11-.2.15-.3s.16-.49.29-.54c-.06.24-.13.57-.17.85.11-.09.09-.26.24-.31.1.19,0,.2.05.4s0,.1-.07.33c-.06.41.26,1.29.06,2,0,.11,0,.1-.1.09s.08-.08-.14,0a1.51,1.51,0,0,1-.18.77l-.3.65c-.19.39-.67,1-.71,1.18.12-.08.19-.27.36-.31s.09,0,.23-.13l.52-.46a1.87,1.87,0,0,0,.29-.34c-.25,0-.44.36-.68.44a1.45,1.45,0,0,1,.65-.82h0l.11-.09c.16-.14.07,0,.21-.1s.19-.3.36-.36a7.72,7.72,0,0,1-.24.88c-.08.29-.36.4-.43.68a1.69,1.69,0,0,0,.28-.32l.53-.6c0-.08,0-.29.16-.37a1,1,0,0,1,.07.43c-.07.39-.25.85-.3,1.23.07-.07,0,0,.07-.09l0,0,0,0c.29-.51.37-1.34.53-1.45l0,.84a1.28,1.28,0,0,0,0,.39c0,.11.08,0,0,.37a3.07,3.07,0,0,1-.36,1,1.05,1.05,0,0,0-.16.26c.27-.07.53-.66.61-.9s.21-1.08.34-1.15l0,.6.08,0c.17.17,0,1-.06,1.18a1.66,1.66,0,0,0-.13.32c.12-.05.21-.27.28-.42a2.82,2.82,0,0,0,.14-.59c0-.18.1-.44.12-.61.08-.5.08-.22.23-.5.17.4,0,1.54.11,1.78a4.13,4.13,0,0,0,.15-1.46c0-.17,0-.08.08-.17l0,0,0-.06c0-.06,0,0,.06,0s0,.46,0,.57c0,.38.14.13.13.47a2,2,0,0,1-.05.6c-.08.17-.14.16-.19.42a1,1,0,0,1,.19-.22l0,.37c.16-.14.13-.52.24-.71s.28-.48.41-.48c.28.57-.15,1.08,0,1.35.41,0,.31-1.26.48-1.59a7.54,7.54,0,0,1,0,1.78.39.39,0,0,0,.06-.21l.09-.57c0-.1,0-.27.09-.37s0-.26,0-.38.06,0,.11.07,0,0,.11.09,0,.19,0,.34.14,0,.21-.05l.13-.14c.11.35.16.32-.13.59.17,0,.32-.16.44-.26s.26-.31.4-.36c-.05.16,0,0-.05.11s0,0,0,.09c.22-.07.11.05.36-.15.09-.08.21-.14.31-.23a3.49,3.49,0,0,0,.62-1,1.93,1.93,0,0,0,.26-.82c0-.16,0-.4.08-.48.24.2-.23,2.07-.13,2.32a13.29,13.29,0,0,1,.54-1.22c.09.19-.17.76-.23.93-.17.41-.43.6-.44.77a3,3,0,0,0,.41-.54c.06-.1.1-.2.17-.31a2,2,0,0,0,.36-1c0-.19-.08-.75-.05-.82s.2-.09.32-.17.19-.17.26-.16,0-.06,0,.08a.11.11,0,0,1,0,.06.94.94,0,0,1-.1.1.41.41,0,0,0-.15.28c.21.1.2.12.54-.21.5-.48.72.14.89-.89a2.19,2.19,0,0,0-.13-.77c-.17.09-.1.28-.07.44-.11,0-.16-.1-.29-.06-.08.2.06.8-.24.8l0-.14V34.2c0-.17,0-.34-.14-.42s-.11.07-.12.23-.23.6-.41.6c0-.12,0-.26,0-.38a2.15,2.15,0,0,0,.06-.8c-.05-.24,0-.19-.18-.27a3,3,0,0,0-.49.75c-.09.18-.4.52-.64.54,0-.18.11-.13.1-.44,0-.07,0-.46,0-.46-.13.19,0,.45-.43.89-.19.18-.5.58-.77.5,0-.15,0-.09.14-.17a1.75,1.75,0,0,0,.52-.41,4.57,4.57,0,0,0,.38-.81c-.1.09-.17.25-.31.28a3.3,3.3,0,0,1,.11-.34l-.2.18-.16.2-.15.19-.16.19-.57.57c-.11.09,0,.07-.14.13a1.57,1.57,0,0,1,.16-.49c.05-.18.14-.3.18-.42s.05-.88-.28-.91c0,.07,0,.17-.08.27l-.1.21c-.08.16-.11.31-.2.47s-.17.19-.31.36a2.12,2.12,0,0,0-.12.2l0,.11-.06.08a2.31,2.31,0,0,1,0-.37c0-.18-.07-.19-.11-.31s0-.51-.09-.7l-.09.34c-.08.23-.15.83-.32.94,0,0,0-.57-.06-.72s-.08-.43-.36-.38c-.08.23-.22.68-.44.76a3,3,0,0,0-.05-.54l-.26-.31c-.33,0-.29.3-.5.34,0-.21,0-.24,0-.43.17-.11.4-.17.43-.41l-.31.09a1.38,1.38,0,0,0,.23-.49c-.16.08-.14.07-.3,0s-.22,0-.36,0c.1-.21,0-.07.19-.17l.08-.11c.08-.13.15-.14.24-.3s.11-.07.12-.24c-.28,0-.69.26-.88.11.17,0,.32,0,.39-.07-.41-.25-.6,0-.83,0l.17-.17c.08-.07.2-.1.17-.23s0,0,0-.06.09,0,0-.39c.29-.08.37-.3.68-.31.67,0,.88-.61,1.16-.78a2.78,2.78,0,0,0,.27-.21c.43-.35.1-.17.51-.19a6.73,6.73,0,0,1,.77-.09c.08-.12,0-.07.11-.14s.45.11.62.26.21.19.32.15.07-.06.12-.12h.2c0,.09,0,0-.09.09s-.24.05-.23.21c.2.07.48-.26,1-.09.29.1.17,0,.38.22a3.1,3.1,0,0,0,1.61.84c.24.06.33,0,.43.17s-.07.08-.11.13c0,.32.22.41.29.7-.06.07-.05.05-.15.09a.81.81,0,0,0,.39.61h0l-.19.06c-.08.38.15.49.25.78.22.63-.07.58.29.74a1.91,1.91,0,0,1-.19.52,5.85,5.85,0,0,1-.41.92,1.73,1.73,0,0,0-.19.45c.06-.11.16-.15.23-.25a7.78,7.78,0,0,0,.78-1.26,1.78,1.78,0,0,0,.17-.34c.08-.25.17-.51.23-.78.15-.1.18,0,.25-.26s.08-.25.11-.36c.07-.28.06-.71-.13-.81-.21.05-.13.13-.17.32-.14-.06,0-.09-.2-.11-.1.23.05.2,0,.42a.41.41,0,0,1-.41-.13c.05-.14.08,0,.06-.16s0-.11,0-.24.12.1.11-.17c.15,0,.16,0,.25-.07a4.12,4.12,0,0,0,.73-1.3c.24,0,.26.2.35.41.09-.06.07-.05.17,0,0-.41-.11-.77-.17-1.16.34,0,1.3.72,1.63.78,0-.1-.1-.12-.22-.18a1.34,1.34,0,0,1-.23-.16,2.11,2.11,0,0,1-.44-.35l-.24-.18c-.37-.26-.49-.21-.42-.64a4.46,4.46,0,0,1,1.11.47l.95.6a.91.91,0,0,0-.2-.24,2.46,2.46,0,0,0-.66-.58c-.38-.2-.89-.35-1.18-.52l0-.43c.46,0,.87.5,1.27.71a12.4,12.4,0,0,1,1,.73,4.08,4.08,0,0,1,.9.81l.23.25c.28.29.68,1,.84,1.16A3.25,3.25,0,0,0,26.49,31l-.37-.45c-.09-.09-.13-.09-.22-.19a10.55,10.55,0,0,0-1-1,4.36,4.36,0,0,1-.83-.76c.33.11.56.41.89.52a0,0,0,0,0,0,0V28.9c.16.06.84.61,1.08.78a2.37,2.37,0,0,0-.57-.74,6.77,6.77,0,0,0-1.93-1.38c-.1,0-.36-.11-.38-.24.24-.14,1,.34,1.14.46a8.9,8.9,0,0,1,1.89,1.45l.8.84a1.81,1.81,0,0,0-.22-.44,5.94,5.94,0,0,0-1.31-1.29,4.67,4.67,0,0,1-1.11-.85,5.78,5.78,0,0,1,1.38.93l.48.41a2.48,2.48,0,0,0,.24.18,3.53,3.53,0,0,0-.82-.91,2.5,2.5,0,0,1-.46-.39,6,6,0,0,0-1.23-.78h0a1.15,1.15,0,0,1,.32,0,6.5,6.5,0,0,0,1.06.12c-.07-.2-.45-.36-.71-.44a5.63,5.63,0,0,0-1-.11c-.06-.14.23-.46.3-.56a.38.38,0,0,0-.54-.08c-.48.33-.22.66-.79.73a1.58,1.58,0,0,1-.68,0c.08-.2,0,0,.18-.09a.49.49,0,0,0-.25-.35l-.09.14a.94.94,0,0,1-.28-.32c.15,0,.15.09.28,0a.36.36,0,0,0-.13-.19c-.07-.07-.13-.07-.17-.18.33-.21.28.06.62-.07,0-.09,0,0-.09-.08l-.3-.18A.72.72,0,0,0,21.9,25c-.07.06,0,0-.09.1l0,.08c-.2.38-.43-.17-.67,0,0,.17.24.23.35.34l-.1.15c-.21,0-.11-.05-.33,0a1.13,1.13,0,0,0,.07.18c0,.11,0,0,0,.17s.54.57.63.73c-.23.17-.25-.1-.48-.14a.45.45,0,0,0,.07.24c-.11,0-.24.05-.24.19s.15.14.27.14c.48,0,.2.17.58.17L22,27a2.11,2.11,0,0,1,.62-.05c-.05.18-.09.23-.26.28s-.11.18-.06.28a1.92,1.92,0,0,0-.22,0,.38.38,0,0,1-.18,0c.08.07.08.06.2.1s.16,0,.2.12c-.17.08-.27-.13-.8-.25l-.16,0c-.16,0-.19.09-.17.33.2,0,.31-.19.55,0s.31.13.45.24l-.13.47a.8.8,0,0,1-.44-.06l.15-.05a.16.16,0,0,0,.1-.05.3.3,0,0,0-.15-.26c-.16,0-.23.17-.14.35-.4-.12-.14-.19-.56,0,0,.11.05.12.19.16a5,5,0,0,1,.79.18l0,.16c-.18,0-.15-.12-.35,0l-.42.18-.12,0c0,.43.35.56.58.83a.33.33,0,0,1-.14.27.35.35,0,0,1-.23.14c-.09-.13,0-.22-.21-.24s-.13.14-.14.27a1.66,1.66,0,0,1-.61.1,2.77,2.77,0,0,1-1.47-.63l-.16-.18a8.16,8.16,0,0,0-1-.79c-.11-.09-.28-.2-.37-.29s-.27-.2-.39-.31.05-1.57.12-1.84.1-.24.27-.42.13-.47.43-.72l.15-.11c.18-.1.29-.11.38-.28a2.8,2.8,0,0,0,1-.06,1,1,0,0,0,.6-.52c.05-.12.11-.27.16-.41s.26-.3.25-.55-.25,0-.18-.63c.14.11,0,.1.13.19a3.12,3.12,0,0,0,.19-.71.61.61,0,0,0-.1.18.27.27,0,0,1-.1.17c-.14-.2,0-.42-.22-.48a2.5,2.5,0,0,1,0,.25c0,.09-.06.05-.12.1a2,2,0,0,1,.05.63l-.32.16c-.1.1-.15.12-.26.22a.79.79,0,0,1-.73.16h0l0,0,0,0a.4.4,0,0,0,.12-.51c-.12-.27-.22-.26-.52-.32-.63-.11-.78.15-1.35.23s-.75-.26-1.33-.34-1.07,0-1.16.52a1.26,1.26,0,0,0-.51,0c-.16,0-.18.12-.21.31a1.33,1.33,0,0,0,.9,1.2,1.06,1.06,0,0,1,.35.19,2.17,2.17,0,0,1,.63.42c.47.41.19.17.38.67a3.73,3.73,0,0,0,.16.35,2.58,2.58,0,0,1,0,1.71c-.15.08-.47.14-.64.21a3.59,3.59,0,0,0-.92.77,4.33,4.33,0,0,1-.92.77,1.37,1.37,0,0,1-1.3.12c-.23-.12-.2,0-.51-.25.11-.2.68-.45.63-.68l-.18,0a.8.8,0,0,0-.09-.31c.18-.1.56-.25.65-.44a4.9,4.9,0,0,0-.85.44,3.26,3.26,0,0,0-.55.43c-.09.08-.07.11-.15.16s-.08-.05-.12-.14a5.2,5.2,0,0,1,.44-.35,1.21,1.21,0,0,0,.2-.19,1,1,0,0,0,.18-.19c-.32.08-.69.56-.89.58-.3-.34,0-.43.14-.53a5.31,5.31,0,0,1,.73-.3c.59-.25,1.1-.29.81-.53-.12,0-.09,0-.14.14-.28,0-.28-.15-.44-.11s0,.15-.12.26-.12-.05-.22-.16c-.25,0-.56,0-.8,0,.11-.16.28-.07.4-.19s0-.07.15-.13c.35-.12.92,0,1.23-.16a4.35,4.35,0,0,0-1,0c-.43,0-.55.2-.77,0a.72.72,0,0,0,.11-.15c-.46.09-.19.05-.5,0-.09,0-.08,0-.12,0a2.14,2.14,0,0,1-.24-.53c.24-.09.3.13.52,0,0-.06,0,0,0-.05l-.07,0-.11-.05-.25-.1c-.21-.05-.25-.15-.3-.36.18,0,.46.08.66.06s.45,0,.71,0a7.16,7.16,0,0,0-.73-.1c-.21,0-.5-.08-.7-.13A1.94,1.94,0,0,0,10,25.4.68.68,0,0,1,9.93,25a11.78,11.78,0,0,1,.51-2.38c.08-.2.17-.23,0-.37a.77.77,0,0,1-.12.24,4.89,4.89,0,0,0-.27.79c-.14.49-.12.68-.2,1,0,.06,0,0,0,.08l0,.05a5.52,5.52,0,0,1,.27-2.17c.05-.18.17-.43.07-.59a20.2,20.2,0,0,0-.52,2c-.43-.1.06-2.1.22-2.56a1.67,1.67,0,0,0,.19-.76c-.14.06-.23.44-.28.6a6.57,6.57,0,0,1-.22.67,10.61,10.61,0,0,0-.22,1.51c-.17,0-.11-.21-.1-.37a6.53,6.53,0,0,1,.24-2.08c.08-.23.23-.51.27-.7-.29.08-.49,1-.54,1.22-.13.56-.08,1.39-.16,1.5-.21-.12-.11-.56-.13-.79-.06-.9.49-1.82.44-2.18a4.71,4.71,0,0,0-.55,1.61c0,.21,0,.54,0,.69-.12,0-.09,0-.14-.12-.23-.49.27-2,.36-2.55,0-.17,0-.26,0-.42-.19.21-.22.86-.33,1.2a6.21,6.21,0,0,0-.14.62c0,.17,0,.53-.14.61a10,10,0,0,1,0-1.64,2.77,2.77,0,0,1,.36-1c.07-.09.14-.14.09-.26-.18.07-.29.35-.38.56-.19.41-.05.48-.35.61l0,.66c-.15-.12-.16-.71-.34-.77s0,0-.07,0a2.18,2.18,0,0,0,.08.86l.22.77a12.71,12.71,0,0,0,.56,1.44A14,14,0,0,1,9.22,24a3.38,3.38,0,0,1-.05,1.58.44.44,0,0,1-.07.17l-.22,0s.08-.5.1-.59a.92.92,0,0,0,0-.59,2.53,2.53,0,0,0-.52-.85,3.59,3.59,0,0,1-.54-.83,1,1,0,0,1-.24-.59L7.45,22c-.13.06-.11.12-.27.18.12,0,.05,0,.15,0,0,.29-.49.36-.64.67a2.2,2.2,0,0,0,.51-.25c.06,0,0,0,.09,0s0,0,.07,0c.2.23-1,.54-1.15.83l1.22-.52c.07.09,0,.15-.07.24a3.85,3.85,0,0,1-1,.95,1.94,1.94,0,0,0-.44.31A1.69,1.69,0,0,0,6.6,24l.28-.22c.12-.1.18-.19.3-.23,0,.27-.68.78-.76,1l0,0L7,24.22c.2-.13.36-.4.47-.39a5.23,5.23,0,0,1-.93,1.61c-.11.14-.36.31-.39.47a.87.87,0,0,0,.23-.19c.41-.42.67-.45,1-1.06a4.08,4.08,0,0,1,.29-.5.26.26,0,0,1,0,.21,1,1,0,0,1-.08.18,4.16,4.16,0,0,1-.94,1.19L6.34,26c-.16.16-.36.25-.5.42s0,0-.06.09c.27-.06.53-.38.75-.54a2.14,2.14,0,0,0,.19-.13c.1-.1.38-.4.5-.42A2,2,0,0,1,6.9,26a3,3,0,0,0-.39.48c.12,0,.43-.38.53-.49s.57-.81.91-.76a.56.56,0,0,1-.14.45.47.47,0,0,1-.09.1l-.06.13a1.59,1.59,0,0,1-.22.35,3.54,3.54,0,0,0-.33.46,5.11,5.11,0,0,0-.29.48c.15,0,.52-.55.61-.66a3.17,3.17,0,0,0,.29-.35A1.09,1.09,0,0,1,8,25.86c.12.08,0,0,.1.18l0-.1v0c0-.13.06-.13.21-.1-.06.14-.23.16,0,.32.12-.09.11-.18.15-.37l.58,0c.13.23.14.22,0,.44s-.05,0,0,.13c.17,0,.17-.13.3-.18,0,.38-.3.28-.6.41a5.71,5.71,0,0,0-.67.3c.26,0,1.28-.3,1.54-.31a1,1,0,0,1-.35.43c-.14.1-.4,0-.54.21.08.16.34.16.5.13l.52-.11c-.06.21-.19.15-.42.16a4.34,4.34,0,0,0-1.44.23,4,4,0,0,0-1.38.79l.73-.26c.24-.11.45-.23.7-.32a5.42,5.42,0,0,1,1.77-.24.57.57,0,0,1-.26.12c-.15.06-.08.08-.16.19a4,4,0,0,0-.72.21,5.11,5.11,0,0,0-1.15.63c-.1.07-.14.13-.25.2s-.2.07-.23.21A.85.85,0,0,0,7.22,29l.25-.19A5.1,5.1,0,0,1,8,28.47l.3-.15a2.83,2.83,0,0,1,.31-.11,1.39,1.39,0,0,1,.68-.16c-.19.24-1.22.3-1.39.56.15,0,.3-.1.5-.11s0,0,.07.16l.5-.09c.11,0,0,0,.15,0-.1.18-.21.09-.32.3s-.22.29-.14.41c.08-.06.11-.16.18-.24s.22-.31.49-.28.2,0,.39,0c0,.17-.05.28-.19.37l-.3.25-1,1.14c-.16.19-.29.42-.44.59a15.92,15.92,0,0,0,1.31-1.43,4.61,4.61,0,0,1,1.63-1.1,7.23,7.23,0,0,1-.8.6,5.06,5.06,0,0,0-.75.63l.17,0-.08.17c.17-.12.21-.28.42-.37.25.26.05.25.11.64.24,0,.07-.11.3-.11-.06.23-1.23,1.38-1.45,2.28.15-.06.25-.29.34-.46s.21-.33.32-.5c.22-.36.49-.61.72-.93.07.06,0,0,.05.08s0,.05,0,.06a1.19,1.19,0,0,1,.33-.34c-.09.3-.3.51-.41.81,0,.06,0,.17-.07.24a2.15,2.15,0,0,1-.4.5c-.07,0,0-.06-.1-.07a6.11,6.11,0,0,0-1,2.34,1.13,1.13,0,0,0,0,.26,2.11,2.11,0,0,1,.15,1,4.69,4.69,0,0,1-.39,1.95c0,.09-.11.24-.19.28s0,0,0-.09a5.56,5.56,0,0,0,0-1.75A3.56,3.56,0,0,0,7.7,35c-.11-.24-.11,0-.2-.31-.16-.55-.32-.62-.16-1.21a2.08,2.08,0,0,0,.14-.86,3.57,3.57,0,0,0-.09-.43c-.31-.82.15-.9.19-1.1,0,0,0,0,0,0-.21,0-.17,0-.28.13a1,1,0,0,0-.26.8c0,.72-.12.56-.29,1.15a2.37,2.37,0,0,0-.23,1.2c0,.44.09.89.09,1.34A3,3,0,0,1,6.2,35a4.34,4.34,0,0,1-.09-1c0-.13.18-.69.23-.88s.1-.36.12-.47a2.29,2.29,0,0,1,0-.25c0-.08,0-.11.06-.21s0,0-.08.09a.25.25,0,0,0,0,.11,5.33,5.33,0,0,1-.83,1.3,6.31,6.31,0,0,0-.71,1.71,3.72,3.72,0,0,1,0-1.15C5,34,5,33.84,5,33.64s.17-.36.09-.48-.11,0-.17.08c-.17.28-.35,1.09-.56,1.22a7.59,7.59,0,0,1-.06-.87,3.83,3.83,0,0,1,0-1.65c0-.11.3-.48.26-.56s0-.11-.15,0a1.8,1.8,0,0,0-.25.4,3.89,3.89,0,0,0-.22.63l-.3,1c0,.15,0,.21-.13.27-.18-.11-.23-1.15-.2-1.4a4.13,4.13,0,0,1,.31-1.38c-.09.06,0,0-.16.07a2,2,0,0,1,.14-.56c-.16.11-.24.48-.31.64-.27.57-.28,1.81-.53,2.49-.12-.1,0-.61,0-.74A17.11,17.11,0,0,1,3,30.59a5.08,5.08,0,0,1,.76-1.76,2,2,0,0,1,.4-.46c-.27-.08-.81.87-.92,1.12a5.07,5.07,0,0,0-.28.73l-.21.69c0,.06,0,0-.08.06-.23-1.17.6-2.32.65-2.77a2.1,2.1,0,0,1,.58-1A1.1,1.1,0,0,0,4.18,27c-.17-.11-.36.15-.46.27a6.51,6.51,0,0,0-1.08,2c-.05.14,0,.09-.12.15a3.2,3.2,0,0,1,.33-1.53,4,4,0,0,0,.28-.64c.07-.18.11-.15.18-.3l.16-.28a3.27,3.27,0,0,1,.83-1c.24-.17.35-.2.49-.43s.31-.41.24-.62c-.19.06-.17.26-.52.34s-.15,0-.29.16a1.62,1.62,0,0,1-.23.18c-.17.12-.25.26-.46.4a5.42,5.42,0,0,0-1,1.55c-.11.21-.2.35-.3.56s-.15.47-.3.57a5.77,5.77,0,0,1,.06-1,3,3,0,0,1,.24-.84,2.36,2.36,0,0,1,.44-.67c.27-.3.49-.59.78-.88a5.69,5.69,0,0,1,.9-.72L4.64,24c.51-.35.61-.45.65-1-.14,0-.24.22-.35.33-.34.35-.59.33-.81.49a3.22,3.22,0,0,1-.68.31c-.1,0-.16,0-.26,0a1.38,1.38,0,0,0-.39.25c-.22.13-.55.53-.77.57A2.51,2.51,0,0,1,2.49,24l.2-.28a1.67,1.67,0,0,1,.13-.12l.12-.14a1.71,1.71,0,0,1,.22-.25l.36-.37.12-.11c.44-.46.94-.37,1.34-1.1.26-.48.4-.31.4-1-.11,0-.4.42-.66.59l-.09.07c-.18.15-1.36,1-1.54,1.18a4.4,4.4,0,0,1-.8.6c.08-.15,1-1.08,1.18-1.35a1.64,1.64,0,0,1,.42-.41c0-.08-.05-.08-.08-.16A2,2,0,0,0,4,20.89a1.63,1.63,0,0,1,.74-.4c0-.22,0-.17-.08-.3a.34.34,0,0,0,.07-.49,2.94,2.94,0,0,0-1.4.62l-.28.22c-.08.06-.06.06-.13.13a1.42,1.42,0,0,1-.13.12c-.15.13-.35.38-.51.51A5.13,5.13,0,0,1,3.18,20a2.6,2.6,0,0,1,.33-.39,6.55,6.55,0,0,1,1.25-.95c.24-.1.36-.08.26-.37-.7-.08-1.44.64-1.71.69.12-.43.62-.7.66-1.33l-.76.79a2.06,2.06,0,0,1-1,.53c.06-.13.13-.11.25-.19l.72-.59.41-.45c.21-.22.24-.19.32-.52,0,0,0,0,0,0l.16-.06c.12-.06,0,0,.11-.11-.24-.29-.71.1-1.1,0,.2-.1.68-.11.89-.32s.22-.15.44-.26a8.54,8.54,0,0,0,.87-.55l.3-.18a4.31,4.31,0,0,1,.56-.39c.23-.11.41-.23.63-.33.42-.18,1.1-.1,1.54-.37,0-.17-.36-.23-.59-.22-.7,0-.49,0-.55-.17-.35,0-.34,0-.56-.17A8,8,0,0,0,5.4,13a2.11,2.11,0,0,0-1.83-.41c-.13,0-.25,0-.37,0l-.33.07c.19-.4,1.46-.91,1.91-1.12s.27-.28,1.2-.08c.2,0,.4.1.6.16l.58.14c0-.17-.17-.16-.31-.28a2.56,2.56,0,0,0-1.25-.57c-.49-.07-1.92.36-2.09.25a4.6,4.6,0,0,1,1-.31c.37-.09,1-.13,1.08-.2-.1-.19-.7-.1-.87-.06a6.4,6.4,0,0,1-.86.08A.3.3,0,0,1,4,10.36a1.91,1.91,0,0,1,.79.05c.1,0,0,.08.13,0s0-.07,0-.11.43.27.54.06,0,0-.12-.08l-.32-.15A1.56,1.56,0,0,0,4.88,10a.85.85,0,0,1-.22-.09c.21-.18.74.06,1,0-.13-.3-.82-.09-1-.34a1.89,1.89,0,0,1,.89.09,2.86,2.86,0,0,0,.74.27c0-.25-.08-.2-.29-.28a3.41,3.41,0,0,0-1.31-.22c-.57,0-1.4,0-1.78.33a6.68,6.68,0,0,1,.92-.17l-.46.52a2.71,2.71,0,0,1-.73.22c.14.09.26,0,.43,0L3,10.4H3a.65.65,0,0,0-.21.3c-.08.17-.1.33-.26.37-.09-.2,0-.55-.08-.67s-.11.05-.14.17,0,.17,0,.23c-.07.29,0,.32-.13.3s.06,0-.09,0c-.05.22.09.35,0,.61A4.37,4.37,0,0,0,1.8,13c0,.24,0,.42,0,.67a3,3,0,0,0,.09.67c.14.35.25.75.42,1.1a3.06,3.06,0,0,1,.28.49c-.15.1-.29.06-.51,0s-.22,0-.38-.19c0,0,0,0,0,0v.05l0,0c-.08.15.12.3.25.36.52.22,1.07,0,1.2.26a1.62,1.62,0,0,1-.71.18.81.81,0,0,1-.65-.19,2.38,2.38,0,0,0-.54-.31A1.08,1.08,0,0,0,.5,16c0,.1.12.13.25.18a2.65,2.65,0,0,1,.3.11l.74.35c.5.27.92.14,1.17.28-.14.08-.55,0-.75,0a1.18,1.18,0,0,1-.38,0c-.11,0-.21-.08-.3,0s-.07,0,.06.1c.53.36,1.42.19,2,.32-.18.21-1.13.8-1.16.87.48-.11.43-.24.62-.22a4.24,4.24,0,0,1-.87.74c-.28.24-.61.41-.91.62-.05,0,0,0-.06.05a3.89,3.89,0,0,0,1.58-.56A1.18,1.18,0,0,0,3,18.73a.52.52,0,0,1,.22-.14c0,.16,0,.11-.11.22L3,19c-.26.32-.58.59-.84.91L2,20c-.38.39-.36.66-.54.89a1.39,1.39,0,0,0-.24.34c.15,0,.24-.13.34-.23L1.66,21h0a1.7,1.7,0,0,1,.19-.2l.19-.15A3.78,3.78,0,0,1,2.87,20c0,.06.06.05.08.1s-.06.11-.11.17l-.16.14a.63.63,0,0,0-.21.22l-.36.6a3.06,3.06,0,0,1-.66.93l-.37.26c-.14.11-.32.16-.25.35.31.08.75-.32,1-.33l0,.17c.08,0,.15-.18.21-.26a4.44,4.44,0,0,1,.5-.53c.09-.11.07-.2.26-.21,0,.19,0,.26-.17.4a4.33,4.33,0,0,0-.27.37,7.1,7.1,0,0,0-1,1.58,3.35,3.35,0,0,0-.18.46,2.09,2.09,0,0,0,0,.56,1.66,1.66,0,0,1,.19-.52L1.66,24a2.91,2.91,0,0,1,.7-.66L2,23.91c-.45.63-.44,1.52-.89,2.19L1,26.23a.44.44,0,0,1-.09.13c-.08.09-.12.18-.19.26a1.27,1.27,0,0,0-.1.12.75.75,0,0,1-.07.12c-.36.59-.12.19-.27.62-.06.19-.24.34-.31.51.05,0,.05,0,.08-.07.2-.24.17,0,.66-.64a11.9,11.9,0,0,1,.82-1l.36-.41a7.52,7.52,0,0,1,1-.85c-.08.2-.58.7-.78,1a5.41,5.41,0,0,0-.39,1.42c0,.17,0,.27,0,.44a5.49,5.49,0,0,1-.1,1.17c-.08.24-.13.43-.22.67s-.08.21-.13.31-.11.18-.17.28H.65c0,.2.38.22.53.15a1.72,1.72,0,0,0,.59-.87.84.84,0,0,0,.05-.2,2.32,2.32,0,0,1,.38-1c-.13.75-.12,1.6-.29,2.36,0,.14,0,.3-.09.42a7.13,7.13,0,0,0-.29.77c.34,0,.49-.37.61-.64a2.65,2.65,0,0,0,.19-.45,2.78,2.78,0,0,1,.13-.46c.06.1-.06,2.47,0,2.95,0,.15,0,.37,0,.5s.07.27.1.41l.17,0c0,.39-.06,1.09-.1,1.49,0,0,0,0,0,0l.17-.22c.25-.25.12-.7.09-1A6.89,6.89,0,0,1,3,33.8a3.13,3.13,0,0,1,0-.36c0-.2,0-.24.13-.28a4.16,4.16,0,0,1,.13.92A4.38,4.38,0,0,1,3,35.79c-.09.36-.17.34-.46.41h0l0,0h0c.14.14.31.11.5,0a1.54,1.54,0,0,0,.6-.71A5.71,5.71,0,0,0,3.87,34a7.19,7.19,0,0,1,.21-1.1c.12.12.06.37.07.58A6.18,6.18,0,0,1,4,35c0,.16-.07.36-.12.51A5,5,0,0,0,3.58,37c.21,0,0-.06.16-.08l-.07.58c0,.18-.11.44-.11.61.34-.21.25-.57.37-.76L4,37.31a4,4,0,0,1,.41-2.08c0,.22,0,.44,0,.65a4,4,0,0,0,.09.54l.18,1.19a2.84,2.84,0,0,1-.46,1.59.35.35,0,0,1-.09.11c-.14.16-.16.1-.29.17.09.26.42,0,.59,0s.12-.09.23-.22,0,0,.11-.11a1.61,1.61,0,0,0,.39-1.44,6.5,6.5,0,0,1,0-1.59c0-.3.12-1.26.34-1.36.11.13.09.28.12.48s.09.32.13.47a7.88,7.88,0,0,1,.37,2.06q0,.3,0,.6c0,.17-.09.37,0,.5.36-.17.31-1.44.26-1.82a7.62,7.62,0,0,0-.18-.93,2.59,2.59,0,0,1-.18-.91c.15.08.33.76.4,1s.06.07.2.24a3.42,3.42,0,0,1,.26.64,2.21,2.21,0,0,1-.3,1.4,7,7,0,0,0-.29,1.5,7.51,7.51,0,0,0-.14.75c.23-.06.31-.6.37-.87s.12-.95.24-1h0c.3-.07.38-.61.42-.86a4.34,4.34,0,0,1,.2-.5c.07-.21,0-.36.19-.49,0,.43-.08,1,0,1.29s-.32.57-.5.82L7.27,39a3.4,3.4,0,0,1-.32.63,4.13,4.13,0,0,0-.48,2.18,2.44,2.44,0,0,0,.23.69,6.9,6.9,0,0,0,.11.78,5.66,5.66,0,0,0,.23.66c.09.16.12.13.22.23s.1.16.19.25c.07-.17,0-.24-.09-.32-.48-.63-.45-2.2.06-2.34a4.79,4.79,0,0,0,0,.65l.19.77c0,.12,0,0,0,.11l.18.62a2.35,2.35,0,0,1,0,1.12l-.16.79c-.07.22,0,.19,0,.22s.07-.08.13-.18l.23-.33a1.53,1.53,0,0,0,.18-1.19,4.06,4.06,0,0,1,.11-1,4.3,4.3,0,0,1,.12-1,6.46,6.46,0,0,1,.41,1.47,14.17,14.17,0,0,1-.18,1.64c.34-.15.3-1.49.27-1.81a3.16,3.16,0,0,1,0-.32,1.33,1.33,0,0,1,0-.2C9,43,9,43,9,43l0,0a4.84,4.84,0,0,1,.12,2.69,2.55,2.55,0,0,0-.25.78c.17-.1.24-.3.36-.45a.83.83,0,0,0,.09-.16c.23-.34.54-.27,1-1,.08-.13.1-.21.22-.28.73-.46.71-1.32,1.41-2.18a1.94,1.94,0,0,1,.27-.24.43.43,0,0,1,.32-.18c0,.23-.38.5-.49.73a4.47,4.47,0,0,0-.48,1.4,5.76,5.76,0,0,1-.51,1.33c.18-.09.26-.26.38-.43a3.28,3.28,0,0,1,.33-.47,7.1,7.1,0,0,0,.75-.88,3.09,3.09,0,0,1,.88-.73,5.39,5.39,0,0,1,1-.63l-.51.43-.48.47a1,1,0,0,0-.35,1.05c.05.23-.05.23.11.36,0-.09.07-.29.13-.41l.36-.66a1.44,1.44,0,0,1,.51-.5l.32-.19c.63-.4,1.37-.63,2-1a2.74,2.74,0,0,0,.55-.47c.1-.11.11-.22.21-.3s.13-.23.22-.26a1,1,0,0,1-.22.58l-.29.51c-.12.2-.73.69-.77.8.16,0,.38-.14.52-.2s.27-.17.44-.26c.36-.19.42-.43.63-.76.1-.15.19-.32.29-.45s.45-.09.95-.44c.14-.1.13,0,.25-.1s.07-.08.23-.15a2.47,2.47,0,0,1-.56.68.33.33,0,0,1,0,.22c.17-.15.05,0,.24-.1s.1-.09.2-.16a1.72,1.72,0,0,0,.34-.32,2.86,2.86,0,0,0,.69-.68c.06-.08.09-.15.13-.21l.32-.38a2,2,0,0,1,.15-.18c.2-.21.31-.53.5-.77l0,0a5.17,5.17,0,0,1-1,2,1.29,1.29,0,0,0-.15.17c-.13.2-.64.66-.65.84.17,0,.19-.08.3-.17s.12-.07.34-.14.17-.13.27-.2a4.18,4.18,0,0,0,.75-.69c.08-.09.13-.19.2-.27a4.59,4.59,0,0,0,.64-.8,1.49,1.49,0,0,1,.31-.41c.06-.07,0,0,.11-.12.38-.3.52-.84.79-1.08a2.75,2.75,0,0,1,0,.86c0,.6-.21.6-.11.7s.42-.37.47-.51a.58.58,0,0,1,.11-.21c.05-.09.05-.18.09-.26s.1-.11.15-.2a.75.75,0,0,0,.06-.13l.33-.85c.05-.28.12-.18.22-.44s.11-.32.18-.5a1.29,1.29,0,0,1,.22-.42,4.66,4.66,0,0,1,0,.66c0,.2,0,.39,0,.57a1.35,1.35,0,0,0,.14.54c.1.19.07.38.23.41.12-.28-.11-.88-.06-1.19s.13-.27.19-.48.09-.38.26-.38c0,.15-.11.34-.15.52A3,3,0,0,0,26,37.66c.2.37.1-.42.24.72,0,.34-.08,1.57.16,1.63a16.41,16.41,0,0,0,.12-2.17,8.68,8.68,0,0,0-.14-1,1.18,1.18,0,0,1,.1-.9,3.49,3.49,0,0,1,1-1.29,2.73,2.73,0,0,0,.63-.54.93.93,0,0,0,.23-.35c.06-.17,0-.32.13-.43a4.52,4.52,0,0,1,.27,1.07c.19,0,0-.11.15,0a.42.42,0,0,1,.09.16,3.84,3.84,0,0,1,.11.4c.06.21.1.14.14.38a1.07,1.07,0,0,0,.1.39c.15-.17,0-.68,0-.9s-.06-.26-.1-.41A2.8,2.8,0,0,1,29,33.15a3.26,3.26,0,0,1,.23-.78c.12.07.16.24.25.35l.69.9a1.69,1.69,0,0,1,.52.79,6.77,6.77,0,0,1,.15,1l0,0,.09-.13.06-.11c.11.14,0,.15.17.22A2.7,2.7,0,0,0,31,34.21a7.58,7.58,0,0,0-.4-.9,4.8,4.8,0,0,1-.48-2.15l.1,0c0-.26.05-.28,0-.54h.11c.06.08,0,.07.1.18s.35.08.54.51.41.51.48.92a6.2,6.2,0,0,1,0,1.3,2.12,2.12,0,0,0,.1.62c0,.18.11.4.3.39,0-.08,0-.69,0-.85s.09-.6.08-.8a4.38,4.38,0,0,0-.22-1.55c-.09-.22-.19-.41-.28-.62-.17-.44-.08-.05-.34-.55s-.37-.36-.56-1.2c.19.07.17.15.28.28s.15.14.25.26.28.4.45.59a3.38,3.38,0,0,1,.47.59c.09.2.16.71.24.81.16-.08.23-.55.23-.71a1.32,1.32,0,0,0-.26-.64,5.43,5.43,0,0,1-.35-.57,1.29,1.29,0,0,1-.2-.71c.1.06.08.09.15.12s0,0,.15,0,.29.45.39.2c-.07-.14-.08,0-.17-.2s0-.11-.11-.23a3.07,3.07,0,0,1-.61-1.42c.19.05.1.09.26.21a2.67,2.67,0,0,1,.75,1l.2.66c0,.15,0,.21.14.26.29-.2.2-.91,0-1.25l-.15-.26a9.25,9.25,0,0,0-.4-1.54,11.83,11.83,0,0,1-.65-1.62c.12,0,.28.12.37.18s.17.2.28.3a10.86,10.86,0,0,1,1,1.33,6.23,6.23,0,0,0,.48.67c0-.23,0-.18-.05-.33a2.43,2.43,0,0,1,0-.27,2.53,2.53,0,0,0-.46-1c-.3-.49-.7-.77-.88-1.26-.07-.19-.14-.33-.22-.51a4.48,4.48,0,0,1-.22-.44.69.69,0,0,1,.42.27l.36.38a4.56,4.56,0,0,1,1,1.81c.14.33.16,1,.36,1a.73.73,0,0,0,0-.3A3.42,3.42,0,0,0,33.67,25c-.09-.18-.4-.63-.37-.82.1-.61-.08-.59-.1-1,.25.08.35.24.59.33,0-.23-.4-.89-.52-1.1a4,4,0,0,1-.35-1.28c.23.1.14.05.35,0,0-.32-.09-.44-.26-.66a5.81,5.81,0,0,0-.36-.55l-.25-.24a2.11,2.11,0,0,1-.18-.27,1.48,1.48,0,0,1-.37-.55A7.2,7.2,0,0,1,33.16,20c.05.06.13.18.24.07s0-.2,0-.3c0-.26-.34-.57-.51-.75l-.18-.19a2.59,2.59,0,0,1-.62-1,4.41,4.41,0,0,1,1,.62.63.63,0,0,1,.17.15c.15.14.24.06.34.3.18.41.08.78.56,1.35.12.14.22.18.32.29a2.63,2.63,0,0,1-.39-.81,5,5,0,0,0,0-1.12,1,1,0,0,1-.12-.19,3.23,3.23,0,0,0-.45-1l-.51-.67c-.19-.21-.43-.34-.65-.56a4.78,4.78,0,0,0-.5-.39l-.54-.32c-.22-.1-.66-.2-.85-.32,0,0-.09,0,.09-.05a.74.74,0,0,1,.29.08l.74.34a2.86,2.86,0,0,0,.35.18,3,3,0,0,0-.15-.32c0-.14-.15-.12-.17-.26.21.08.69.29,1,.17,0-.2-.09-.13-.27-.2a1.81,1.81,0,0,1-.72-.68l0,0c-.55-.74-.91-.63-1.17-.83a2.4,2.4,0,0,1,.17-.4,5.73,5.73,0,0,0,.32-1.36,1.44,1.44,0,0,1,.15-.43,3.17,3.17,0,0,1,.14-.4,3,3,0,0,0,.37-.76c-.13,0-.1.06-.21.12-.05-.11,0-.09,0-.18s.08-.19.1-.29-.09,0,0-.26.08-.12,0-.26c-.15.18-.3.73-.44.84-.06-.06,0,0-.06-.09l-.09-.32a2,2,0,0,0-.15-.39c-.05-.07-.07-.12-.11-.18a4.51,4.51,0,0,0-.85-.84A2,2,0,0,0,29.18,8a1.21,1.21,0,0,1-.33-.2,4.3,4.3,0,0,0,.74-.25l.1,0,.09-.09c-.55,0-.79.25-1.47.15,0-.24.43-.47.61-.57s.76-.09,1-.18c-.06-.19-.39-.24-.57-.24a3.23,3.23,0,0,0-.71.07c-.4.15-.55.55-.81.8h-.51a1.15,1.15,0,0,1,.53-.67l.41-.2a3.53,3.53,0,0,0,.46-.15c0-.41-.29-.17-.74,0a6.24,6.24,0,0,1-.82.32c0-.15.13-.2.23-.31s.4-.25.65-.43c.4-.28.74-.68,1.12-1,.12-.09.22-.12.28-.22-.12-.07-.35.11-.46.17-.26.15-.59.48-.87.5a2.2,2.2,0,0,0-.58.08,1.61,1.61,0,0,0-.85.52c-.16.16-.57.52-.81.49,0-.06.2-.33.33-.65a2.12,2.12,0,0,0,.3-1.18c-.06-.24,0-.23,0-.44a1,1,0,0,0-.17-.6l-.05-.15s0,.32,0,.51a2.79,2.79,0,0,1-.56,1.19c-.22.24-.33.4-.55.62a3.25,3.25,0,0,1-.72.46c0-.14.1-.13.18-.29s.48-.85.29-1-.41.34-.52.45-.24.32-.44.33a2.11,2.11,0,0,1,.24-.44c.25-.39,0-.83.08-1.13,0-.11.15-.45-.08-.48C24,4,24.23,4,24,4.17c0,.4.07.38-.16.77-.07.13-.09.16-.12.11s0-.7-.06-1a.42.42,0,0,0-.28,0c-.08.15-.06.29-.13.44l0,.07-.05,0c-.07-.06-.05,0-.07-.15a1.1,1.1,0,0,0,0-.16C23,4.2,23,4.08,23,4a2.86,2.86,0,0,0-.36-.88l-.32-.51c-.15-.25-.19-.14-.22-.1s-.05.06,0,.17l.15.53a1.67,1.67,0,0,1,0,.86c-.12-.16,0-.41-.29-.93-.06-.1-.08-.09-.16-.17a.83.83,0,0,0-.12-.16c-.32-.32-.65-.34-.95-.86-.19-.32-.31-.42-.24-.8,0-.17-.22.06-.28.13a.78.78,0,0,0-.09.46l-.52-.28c-.18-.11-.33-.17-.5-.26l-.15-.08L18.78,1a2.06,2.06,0,0,0-.26-.12L18,.66a2.42,2.42,0,0,1-.32-.1c-.35-.14-.23-.31-.77-.37L16.27.05a2.37,2.37,0,0,0-.71,0c.12.12.89.35,1.12.52s.43.41.68.56.15.08.18.22A1.49,1.49,0,0,1,17,1.17c-.18-.07-.28-.23-.42,0,0,.2.34.34.57.42A1.15,1.15,0,0,1,17.7,2l-1.24-.47a5,5,0,0,1-.62-.21.54.54,0,0,0-.64.06c.15.29,1.45.65,1.65,1.16a2.84,2.84,0,0,1-.46-.24,7.05,7.05,0,0,0-1-.45,11,11,0,0,0-1.65-.55,6.18,6.18,0,0,0-.62-.12c-.26,0-.38-.19-.45-.19-.15.27.39.53.59.6a4.71,4.71,0,0,1,1.17.65c.13.08.24.17.35.25a3.78,3.78,0,0,1,.68.51,11.22,11.22,0,0,1-1.31-.58,2.43,2.43,0,0,0-1.52-.32c0,.23.28.12.7.25a12.2,12.2,0,0,1,1.83.84,7.37,7.37,0,0,1,1.34.88c.11.11.16.1.26.18s.32.36.48.4c.1-.27-.15-.3-.29-.56l-.37-.54s-.06,0-.14,0a.73.73,0,0,1-.16-.14c-.18-.19-.45-.33-.64-.51l-.16-.12a.3.3,0,0,1-.1-.14,2.59,2.59,0,0,1,1,.67c0-.12,0,0-.05-.09s-.14-.12-.18-.21c.56.07,1.54,1.09,1.79,1.16.22-1.23-.24-1.13-.27-1.53a2.86,2.86,0,0,1,1,.89c.06.09.11.13.17.22s.06.38.26.47c.1-.1.07,0,.08-.16a1.83,1.83,0,0,0-.68-1.53c-.17-.19-.37-.3-.53-.49l-.21-.27a.85.85,0,0,1,.42.25l.37.3.49.5a.64.64,0,0,1,.13.18c.09.14.22.27.28.39s.15.28.24.43a9.39,9.39,0,0,0,.45.86c.18-.33-.21-1.18-.38-1.5a5.31,5.31,0,0,0-.65-1,10.87,10.87,0,0,1-.74-.84c.17,0,.34.19.51.28s.46.22.67.35l.11.08a2.55,2.55,0,0,1,.24.14,9.58,9.58,0,0,1,.76.8,1.55,1.55,0,0,1,.49.68,1.9,1.9,0,0,1,.1.28c.25.64,0,.31.09.55.42,0,.33-.56.24-.78.44.32.22,1.9.28,2,.1-.08.11-.23.13-.39,0-.4,0-.13.41-.64,0,0,.16-.26.18-.25.21.14-.08.87-.2,1.06s-.13.14-.17.27c.16-.06.31-.19.47-.12,0,.14,0,.11-.06.24.32.11.78-.24,1-.43s.13-.18.27-.24a1.32,1.32,0,0,1-.3.59l-.21.23a.44.44,0,0,0-.14.27c.4.27.64-.14,1-.28-.15.35-.63.62-.57.7s.23,0,.34,0c.48-.21.25,0,.89-.32a2.29,2.29,0,0,0,.27-.14,5,5,0,0,0,.63-.55c.09.18-.43.77-.54.87s-.27.18-.44.29-.06.17-.51.21-1.67.78-1.71,1.21a2,2,0,0,0,.25-.18,5.87,5.87,0,0,1,1.4-.69c.26,0,.56,0,.82,0a3.13,3.13,0,0,0,.66-.2c.59-.25.78-.85,1.39-1.06a2.52,2.52,0,0,1-.32.43c-.49.66-.22.79-.52,1.08-.1.1-.37.23-.38.38.23.22.52-.3.76-.28.12.28-.34.8-.54,1a1.9,1.9,0,0,0-.2.18c-.09.08-.12.08-.22.16s-.14.14-.2.18-.18.08-.25.16a.44.44,0,0,0,.3-.11,1.51,1.51,0,0,0,.21-.14,5.59,5.59,0,0,1,.6-.09c.46-.13.65-.55.85-.62l-.06.1-.06.07a.63.63,0,0,1-.1.12,3,3,0,0,1-.22.26c-.15.15-.31.29-.44.44a.79.79,0,0,0,.83-.34,4,4,0,0,0,.35-.61c.07-.11,0-.1.16-.17a1.34,1.34,0,0,1-.28,1c-.25.34-.66.35-.73.5.62.12,1.17-.44,1.28-.48,0,.31-.67.62-.93.78l-.12.1s0,0,0,0a4.77,4.77,0,0,0,1-.31c-.09.15-.17.16-.31.25.2.07.42-.12.63-.16-.28.39-.81.46-1.18.7,0,0,0,0-.06.05a1.78,1.78,0,0,0,.67-.16c.25-.09.4-.24.61-.31-.07.31-.34.3-.59.39s-.12.07-.21.1-.18,0-.25.07-.06.08-.18.14-.19,0-.25.07c-.45.12,0,.26.16.31h-.35c.1.17.33.12.51.2-.12.08-.24,0-.44.17,0,.15,0,.06.09.17s-.11.06-.13.12.24,0,.39,0l.26-.05c.06,0,0,0,.07,0-.05.21-.27.06-.37.22.07.12.05,0,.16.13s-.14.24-.31.4c0,.16.13.21.21.31a.8.8,0,0,1,.2.29l-.11,0c-.11,0-.06,0-.12,0s.39.14.44.18-.1,0-.17,0l-.17-.06c-.14-.05-.26-.06-.32-.16l.2-.06a.62.62,0,0,0-.29-.1.62.62,0,0,0-.12.19c.11.15.18.11.29.21s0,.06.11.15.05,0,.1.12c-.2,0-.15-.14-.41-.19-.06.09,0,.11-.11.21a3,3,0,0,1-1.07-.4l-.5-.27a2.83,2.83,0,0,0-.46-.28c.13.3.4.37.68.54a2.22,2.22,0,0,0,.84.37,1.81,1.81,0,0,1,1.21.6l.27.31a2.56,2.56,0,0,0,.79.42,7.26,7.26,0,0,1,1,.18,5.47,5.47,0,0,0,.89.32c.34.09.57.11.71.47-.19,0-.51-.33-.75-.22,0,.17.28.23.42.32s.31.2.42.29l0,.19c-.14-.05-.09-.09-.2-.21s-.74-.55-.72-.17c.17.07.18,0,.35.12l.43.49c.2.27.35.54.53.84l.3.59-.37,0-.07.08a.23.23,0,0,0-.08.07c.06.24.31.34.45.49a2.78,2.78,0,0,1,.39.55c-.18,0-.55-.32-.63-.19s.13.24.22.33a1.64,1.64,0,0,1,.25.36,2.54,2.54,0,0,1,.39.79c-.32-.08-.56-.7-.91-.6,0,.14,0,0,.09.13a.85.85,0,0,1,.1.17,4.82,4.82,0,0,1,.58.94c-.15,0-.14-.07-.25-.17a1.08,1.08,0,0,1-.34-.39c-.11-.2-.33-.43-.44-.63l-.13-.23a.92.92,0,0,0-.13-.21c-.09.17.07.61.11.81a3.71,3.71,0,0,0,.65,1.32,1.31,1.31,0,0,1,.36.61c-.22,0-.12-.05-.27-.17-.12.22.06.32.17.47a1.68,1.68,0,0,1,.25.48c-.21,0-.39-.13-.54-.14,0,.25,0,.14.18.29a2,2,0,0,1,.44.88l-.1-.05-.06,0-.12-.07a.93.93,0,0,0-.5-.07h-.09c-.09,0-.05,0-.07,0-.45.18-.06.47,0,.79-.22-.07-.17-.18-.36-.27l-.11.09a4.8,4.8,0,0,1,.68,1.23.26.26,0,0,0-.28-.08C31,26,31,26,31,26.1s0,.27-.06.38a2.45,2.45,0,0,0,0,.81,8.3,8.3,0,0,1,.17,1.47c-.13,0-.33-.44-.36-.58a4.61,4.61,0,0,1-.06-1.28,2,2,0,0,0-.16-1.12l-.17.06c.1.64-.42,1.26-.39,2.07A9.2,9.2,0,0,0,30.05,29c.05.15.11.34.16.48a4.5,4.5,0,0,0,.19.42.8.8,0,0,1-.51-.23c-.08-.1,0-.06-.13-.11l0,.1s0,.06,0,.08c0,.43-.09.79-.1,1.24s.16,1.28.14,1.42a.37.37,0,0,1-.19-.18l-.13-.15c-.2-.13-.13-.34-.25-.54-.19,0-.16.08-.14.33a3.84,3.84,0,0,1-.3,1.1c-.18-.08-.16-1.16-.22-1.33l0,.06-.1.34c0,.16,0,.31-.05.47a3.75,3.75,0,0,1-1,1.58c-.13.14-.08.18-.29.23.05-.28.25-.48.32-.8a.78.78,0,0,0-.34.33l-.28.32-.28.36a1,1,0,0,1-.27.33c-.11,0,0,0-.09-.11-.24.31-.46.82-.59.88a3.35,3.35,0,0,1,.26-1.09c0-.12.12-.18.14-.31l-.09,0c-.06,0,0,0-.07,0,0-.2.14-.38.21-.57-.18,0-.23.14-.33.26-.29.37-.54,1-.68,1.09l0-.43a3.12,3.12,0,0,0-.23.85L24.21,37l-.34.74c0-.16.13-.85.12-1.16a1.37,1.37,0,0,0-.13-.52c0-.15-.06-.38-.2-.43s0,.12-.12.22l0,0s0,0-.06.06l-.19.35c-.13.24-.22.5-.35.73a7.52,7.52,0,0,1-.8,1.35c0-.1.17-.84.2-1,.07-.34.13-.86-.21-.91-.12,0-.09.22-.24.39s-.14.24-.24.3h0l-.08-.45c0-.12.13-.2.23-.27a3.58,3.58,0,0,0,.82-1c.11-.18.41-.73.27-1-.13.06-.41.81-.51,1a1.73,1.73,0,0,0-.17.21c-.12.16-.32.49-.51.56a2.78,2.78,0,0,1,.08-.49.68.68,0,0,0,0-.29.12.12,0,0,0,0-.08,5.66,5.66,0,0,1-.31.48c-.44.67-.24.65-.41,1.12a3,3,0,0,1-.28.48,5,5,0,0,1-.66.87c-.15.15-.53.69-.79.73a2.43,2.43,0,0,1,.34-.54,3.43,3.43,0,0,0,.28-.58,2.31,2.31,0,0,0,.22-.64.84.84,0,0,0-.05-.57c-.07-.09,0-.06-.12-.08a15,15,0,0,1-.76,1.78,5.25,5.25,0,0,1-.83,1.08c-.12.1-.28.16-.28.35a.68.68,0,0,0,.57,0l.49-.24A10.06,10.06,0,0,0,20,39c-.06.25-.77.76-1,.85l-.33.15c-.74.32-.69.52-.82.28-.37.18.15-.24-.69.43A8.75,8.75,0,0,1,15,42c0-.2.36-.4.52-.54a3.47,3.47,0,0,0,.29-.25,5,5,0,0,0,.49-.56,2,2,0,0,1,.25-.25,1.86,1.86,0,0,0,.46-.56l-.14.08-.16.1a3.76,3.76,0,0,0-.89.6A8.73,8.73,0,0,1,14,41.88l-.59.39-.59.4-.29.21a1,1,0,0,0-.24.21,1,1,0,0,1,.2-.4l.57-.7a1.57,1.57,0,0,0,.21-.12c.1-.08,0-.09.23,0l0-.21c.15-.08.24-.18.38-.24l-.14-.07a4.64,4.64,0,0,0,.86-.51c.11-.1.7-.46.62-.66-.12,0-.46.34-1,.5a6.74,6.74,0,0,0-1,.49c-.85.47-1,.23-1.82,1.17-.31.37-.48,1.23-.69,1.29a2.39,2.39,0,0,1,.83-2.23c.14-.14.21-.3.39-.41a2.83,2.83,0,0,0,.89-.66c.2-.31.18-.16.21-.55-.16,0-.2.08-.28.16A8.41,8.41,0,0,1,11.17,41c-.46.24-.68,0-1.28.94a3.7,3.7,0,0,0-.49,1.29s0,0-.06-.05l0-.06a6.33,6.33,0,0,1-.25-1A2.37,2.37,0,0,1,9.17,41,.23.23,0,0,1,9,41c0-.23.12-.14.19-.3a.51.51,0,0,0-.35.12c-.12.09-.18.1-.26.22A2.54,2.54,0,0,0,8,42.37a5.14,5.14,0,0,1,0,.87L7.91,43a2.93,2.93,0,0,1-.21-1.68c.12-.57.58-.73.87-1.16l.1-.15c-.14,0,0-.06-.19,0l-.58.31a1.09,1.09,0,0,1,.33-.49c-.13,0-.3.33-.45.44s-.37.22-.46.42L6.81,41.8c-.06.1,0,.07-.12.11-.06-.43.13-.66.19-1a3.34,3.34,0,0,1,.52-1.23l.23-.34A3.53,3.53,0,0,0,8,38.6Z"/><path class="cls-1" d="M7,6.71c0-.08-.06,0,.22-.17a2.58,2.58,0,0,1,.9-.3,1.8,1.8,0,0,1-.54.25A4.79,4.79,0,0,1,7,6.71ZM10.91,6c-.36.18-.65-.11-1.09-.2a1.5,1.5,0,0,1-.39-.08A1.6,1.6,0,0,1,10.91,6Zm.35-.55c.18,0,.47.34.45.46s.07,0-.08,0-.14-.13-.18-.17S11.29,5.55,11.26,5.4Zm0-.85c.22-.1.69.18.77.34a1.54,1.54,0,0,1-.38-.17C11.5,4.65,11.35,4.62,11.24,4.55Zm-1.7-.28c.06-.1.25-.17.36-.22s.18-.07.41,0a1.94,1.94,0,0,1,.81.27c-.24.1-.51,0-.78,0S9.82,4.32,9.54,4.27Zm2.28-.66a4.71,4.71,0,0,1,1.67.88,2.84,2.84,0,0,1-.94-.4l-.87-.46.14,0Zm-.93-1.27a3.83,3.83,0,0,1-.59,0l0,0c.05,0,0,0,.07,0l.11.05,1.68.64a4.42,4.42,0,0,1,.41.26c.28.15,1,.64,1,1a6,6,0,0,0-1.76-.87,4.2,4.2,0,0,1-.75-.14c-.07-.09,0-.13-.16-.25a3.27,3.27,0,0,0-.77-.57,1.8,1.8,0,0,0-.8-.05c-.1,0-.15.11-.28.17s-.24,0-.27.16a1.83,1.83,0,0,0,.47,0,1.47,1.47,0,0,1,.85.25c.09.08.27.16.29.28s-.08.07-.21.11a3.58,3.58,0,0,0-.68.34,7.93,7.93,0,0,1-1.34.66c-.34.07-.51.25-.81.33L6.74,5c.08.18.12.14.29.17C8.2,5.32,9,4.41,9.5,4.74l-.18.08a1.27,1.27,0,0,1,1,.21,4,4,0,0,0-1.65.13,2,2,0,0,0-.31.13,3,3,0,0,0-.32.15,6.31,6.31,0,0,1-.54.39c-.2.12-.34.25-.54.38a2.07,2.07,0,0,1-1.44.41c-.27,0-.65,0-.63.3L5.4,7l.26,0a.38.38,0,0,1,.23.08l-.74.27c-.14.06-.18.11-.33.18a4,4,0,0,0-1.32.78c-.13.1-.21.12-.28.26a.61.61,0,0,0,.16-.12,2.9,2.9,0,0,1,.52-.38,7.59,7.59,0,0,1,.81-.36,7,7,0,0,1,2-.37c-.08.07-.88.37-1,.44-.33.16-.69.33-1,.5a7,7,0,0,1-1,.53C3.32,9,3.15,9,3,8.88a.7.7,0,0,0-.49-.1.88.88,0,0,0,1.12.39A4.83,4.83,0,0,1,4.22,9c.2,0,.38,0,.58,0H5a1.91,1.91,0,0,1-.43.21l-.35.13c-.07,0-.06,0-.1.07.45.25,1.7-.59,2.29-.55a2.24,2.24,0,0,1,.37.1,2,2,0,0,1,.44.06c.13-.06,0,0,.12-.11a3.39,3.39,0,0,1,1.18.6,1.49,1.49,0,0,1,.18.17,4,4,0,0,0,.37.34c0-.16,0-.17-.11-.29l0-.08a1.34,1.34,0,0,0-.11-.14A1.15,1.15,0,0,0,8.41,9a13.52,13.52,0,0,0-1.85-.76l.1,0c.22-.05.76,0,.86,0-.43-.14-.37-.22-.91-.1a2.11,2.11,0,0,0-.7.26c-.13.18.26,0,.49.16a3.5,3.5,0,0,0-.84.18,3,3,0,0,1-.87.08c.06-.13.25-.14.4-.19L6.36,8a8.22,8.22,0,0,1,.87-.33,3.06,3.06,0,0,1,1.09-.09c0-.18.11-.28-.31-.5a2.14,2.14,0,0,0-.72-.2,6.9,6.9,0,0,1,1.58-.68,2.36,2.36,0,0,1,1.44,0c.14.07.2.2.38.18.11-.2,0-.11,0-.3.15,0,.27,0,.35.06l0-.1c.22,0,.29.18.46.21,0-.17-.11-.13,0-.23a.52.52,0,0,1,.31,0c.09.07.27.38.37.3L12,5.81c-.23-.23-.3-.4-.6-.57l-.14-.09c-.05-.06,0,0-.05-.06.12,0,1.18.52,1.4.62.42.18,1,.77,1.19.82V6.3l.1,0c-.15-.15-.21-.55-.51-.93a3.46,3.46,0,0,0-.82-.65,3.73,3.73,0,0,1-.6-.37c.13-.07.66.24.82.32s.38.23.59.33a6.07,6.07,0,0,0,1.11.41l.78.13c.13,0,.17,0,.23-.08a.22.22,0,0,0-.05-.08A1.52,1.52,0,0,0,14.79,5c-.12,0-.09,0-.14-.11s-.05-.13-.09-.2c-.21-.45-.5-.54-.79-.89a2.43,2.43,0,0,0-.57-.54s0-.08.23.05a7.15,7.15,0,0,1,2,1.26,4.58,4.58,0,0,1,.73.73,1.37,1.37,0,0,0,.4.34c.13-.2.08-.22,0-.4a2,2,0,0,0-.44-.71,2.43,2.43,0,0,0-.3-.26,6.4,6.4,0,0,0-1.28-1l-.15-.11-.07-.06c-.79-.7-1.11-.6-2-1a2.68,2.68,0,0,0-.78-.38c.07.21.61.47.82.56s.8.34.92.43c-.44-.11-.58-.21-.82-.28s-.29,0-.44-.09l-.38-.2a2.2,2.2,0,0,1-.55-.28,2.33,2.33,0,0,0-.55-.31c-.14-.05-.28-.07-.43-.13,0,.22.24.33.37.49s.36.27.43.44Z"/><path class="cls-1" d="M22,10.59c.05-.05.22-.1.3-.16s.14-.18.33-.2a1.07,1.07,0,0,1-.27.29c-.09.07-.25.25-.36.07Zm-2.69-.3A5.64,5.64,0,0,1,19.45,9c-.34.07-.37,1.31-.34,1.65s.05.4.26.43a.78.78,0,0,1-.1-.47.74.74,0,0,0,.29-.26c.07-.1,0,0,.11-.1,0,.26-.21.59.14.69v0c0-.08,0-.07,0-.14s0,.06.19.08c.16-.24-.14-.14.35-.38.17-.08.12,0,.23-.15s.11-.15.23-.07c-.07.18-.12,0-.15.22.23,0,.33-.17.55,0s.11.1.21.14.23,0,.32.05,0,.1.07.19,0,0,.12.14,0,.17.27.24c0,.34-.09.3.2.43a.47.47,0,0,0,.27.05c.23,0,.11,0,.24.11.31.26.73,0,1.09,0l.26.22c.28.2.5.5.91.5,0-.12-.05-.12-.17-.2a5.82,5.82,0,0,1-.68-.52s0,0,.07,0l.1,0,.2,0a.8.8,0,0,0,.34-.18s0-.07-.17,0a1.64,1.64,0,0,1-.66.08c-.16,0-.22-.15-.35-.14s-.18.11-.39.06c.05-.08,0,0,.08-.09l.17-.14h0c.18-.18.12-.3.33-.43a1,1,0,0,0,.35-.29l.19-.37c0-.06,0,0,0,0a3.84,3.84,0,0,0-.46.4c-.37.33-.33.06-.55.23a.42.42,0,0,1-.14.09c-.11.07-.06,0-.13.1s-.72.54-.93.36c.1-.07.69-.12.84-.59a.61.61,0,0,0,0-.4c-.2,0-.27.31-.51.32.2-.49.12-.17.48-.41a2.27,2.27,0,0,0,.61-.66l0-.09c.05-.1,0,0,0-.1-.3,0-.59.57-.91.63.07-.21.38-.6.37-.81-.17,0-.34.37-.44.44l-.64.25a5.19,5.19,0,0,1,.37-.45A1.05,1.05,0,0,0,23,8.8L22,9.74c-.12.09-.28.12-.34.27a1.28,1.28,0,0,0,.47-.1l0,0-.05.05c-.06,0,0,0-.09,0s-.36.21-.58.14a1.65,1.65,0,0,1,.3-.46c.26-.2,1-1,1-1.3-.24.12-.4.46-.64.58,0-.36.47-.72.27-1.07-.23.13-.5,1.05-1,1.24,0-.17.07-.11.13-.22-.19,0-.35.21-.47.32s-.23.3-.43.39c.17-1,.52-1,.57-1.34s.16-.23.21-.41C20.78,8,19.93,9,19.67,9.56l-.26.56c-.06.12,0,.12-.14.17Z"/><path class="cls-1" d="M25.12,15.62a1,1,0,0,1,.36.17.76.76,0,0,1,.33.23l0,0a3.74,3.74,0,0,1-.45-.12.33.33,0,0,1-.26-.3ZM27.41,17c-.25-.14-.24-.46-.78-.69s0-.19-.81-.69c-.49-.31-.83-.37-1.2-1a3.32,3.32,0,0,0-.32-.42c-.23.19,0,.52.19.77a2.15,2.15,0,0,0,.59.61c-.06.1-.09,0-.12.19-.1.56,1,.58,1.47.89a2.62,2.62,0,0,1,.76,1.86A3.31,3.31,0,0,1,27,17.8a1.68,1.68,0,0,0-.25-.68,1.33,1.33,0,0,0-1.23-.52c0,.21.07.12.43.28a1,1,0,0,1,.43.29c.13.2.48.65.44,1-.32-.33-.8-.81-1.28-.78,0,.19,0,.07.24.21A2.18,2.18,0,0,1,27,19c0,.22,0,.28.09.39v-.25c.08,0,.08,0,.13.3,0,.13,0,.28.06.38s0,0,0,0l0-.46c0-.18-.06-.33-.06-.47.15-.13.11,0,.19-.33a4,4,0,0,0,.11-.47,6.27,6.27,0,0,0-.1-1c.12.05.13.14.2.33s.12.24.18.39.22.73.35.79a5.06,5.06,0,0,0,0-1,2.6,2.6,0,0,0-.4-1.05c-.07-.08-.07-.09-.14-.18a1.58,1.58,0,0,0-.12-.15c-.28-.28-.51-.56-.75-.78s-.19-.21-.3-.31a8.88,8.88,0,0,0-1-.8l-.35-.25a4.27,4.27,0,0,1-.62-.59.64.64,0,0,1-.17-.42c.09,0,.09,0,.13-.11.1-.29-.19-.4-.33-.5a3.22,3.22,0,0,0-.52-.33c-.09-.08-.05-.09-.15-.15-.21.49.23.41.26.74a.65.65,0,0,0,.16.41,6.14,6.14,0,0,0,.4.73l.3.28c.48.5.63.46,1.1.9l.16.13A7.62,7.62,0,0,1,27.41,17Z"/><path class="cls-1" d="M26.2,19.59c-.36-.46-.55-.26-.61-.45.11-.07,0-.1.37.08a1.63,1.63,0,0,1,.34.21,1.5,1.5,0,0,1,.37.72,4.62,4.62,0,0,1-.47-.56Zm-.59-1.34c0,.27,0,0,.47.48a1.79,1.79,0,0,1,.42.55,3.28,3.28,0,0,0-.86-.38c-.06-.1,0-.14-.14-.2s-.05,0-.11.13l-.31,1c-.09.28-.16,1-.28,1.31l-.2.56c-.05.13-.07.06-.12.17s.05.14,0,.24a1.2,1.2,0,0,0-.13.78,2.5,2.5,0,0,1-.07,1.54c0,.14-.09.34-.14.46l-.34.53c-.12.11-.13,0-.13.17.19.15.24-.15.54-.27s.41-.19.51-.42a2.37,2.37,0,0,0,.24-1.5h.16a7.45,7.45,0,0,0-.24-1.2c-.1,0-.15,0-.22-.15s.13-.13.18-.15,0,.18.07.3a1.82,1.82,0,0,0,.14.28c.09.18.14.39.22.56s.25,0,.28-.22,0-.23,0-.48c.23-.14,0,0,.16-.22.19,0,.14.16.3.14l-.14-.33.1-.13a1.69,1.69,0,0,1-.19-.45l.12-.09a5.81,5.81,0,0,1-.3-.85c.22,0,.41.73.58.86s.06,0,.15.11,0,.07.12.13c.08-.31-.57-1.33-.79-1.62-.08-.1-.09-.12-.05-.29.38,0,.74,1.19.87,1.31a1.59,1.59,0,0,0,0-.54c.23.12.3.62.36.88s0,.23.1.32c0-.08,0-.17,0-.28s.1,0,.11-.13,0-.09-.06-.22a2.1,2.1,0,0,0-.06-.48l.12,0s0,0,0,0a3.45,3.45,0,0,0-.45-1.4,1.56,1.56,0,0,0-.4-.52c-.12-.08-.41-.33-.61-.24Z"/><path class="cls-1" d="M12.47,10.57c-.23-.2.08-.59-.33-1.46-.16-.34-.09-.45-.35-.41l.4,2.11c0,.09,0,0-.09.11s-.26,0-.38-.18a3.14,3.14,0,0,1-.79-1.94c-.06,0-.11,0-.11.26a3,3,0,0,0,.45,1.47l.33.44c-.16,0-.15-.1-.26-.2a2.71,2.71,0,0,1-.38-.51c-.07-.11-.09-.22-.2-.26s0,.2.07.32a8.07,8.07,0,0,0,.61.85c-.45.14-.5-.44-.73-.82-.06-.09-.07-.17-.13-.28s0,0,0-.06,0-.07-.09-.23-.2-.42-.39-.42a3.76,3.76,0,0,0,.11.76c0,.12,0,.25.08.38s.1.22.08.33a1.26,1.26,0,0,1-.48-.42c-.1-.18-.17-.56-.39-.54a5.53,5.53,0,0,0,.33.85c-.1-.09-.14-.09-.32-.05a.73.73,0,0,0,.2.5c.07.09.07.11.14.21a1,1,0,0,1,.16.24,1.73,1.73,0,0,1-.51-.18c-.11-.06,0-.08-.13,0s-.05,0,0,.11a.27.27,0,0,0,.06.1,5.79,5.79,0,0,0,1.43.88c0-.17-.14-.18-.49-.36.25-.14.65.22.95-.1,0-.15,0,0,0-.19s0,.06,0-.07-.72-.07-.91-.42a5,5,0,0,0,1,.26c.29,0,.47-.59.8-.4-.07.09-.16.08-.26.11.08.44.52.21.63.13.35-.28.09-.37.15-.78.2-.07.09.09.4-.26.16,0,.12.16.4,0,.48-.26.32-1.19.22-1.64-.05-.21-.06-.23-.18-.34S13.2,8,13,8a5.39,5.39,0,0,1,.14.6c-.13,0-.11-.07-.17-.2a1.33,1.33,0,0,0-.51-.58,3.7,3.7,0,0,1,.37,1.34c0,.24.07,1.12-.13,1.29h0l-.16.14Z"/><path class="cls-1" d="M21.85,17.56a1,1,0,0,1,.09-.26c.09-.14.54-.23.6.12a.89.89,0,0,1-.69.14Zm-.34-.1c.07-.1.12-.17.26-.18a.34.34,0,0,1-.09.28Zm-.14-.35a.42.42,0,0,1,.25-.06.24.24,0,0,1-.24.2Zm1.34.11a.35.35,0,0,1-.27-.19l0-.05C22.67,17.09,22.68,17.11,22.71,17.22Zm0-.45c.09.06.11.06.08.2s-.11,0-.18,0l.1-.15Zm.25.35a2.35,2.35,0,0,0,0-.46.33.33,0,0,1,.25.13l-.09.19c0,.12,0,.11-.16.14Zm-2.6.87c0,.06,0,0,.06.07s0,0,.06.08,0,0,0,0,0,0,0-.05l.05-.05.4-.2a.48.48,0,0,1-.37.34l-.09,0h0c0,.13.12.11,0,.14s0,0-.11,0a2.45,2.45,0,0,0-.16.62v0l.05-.14c.07-.16,0-.09.1-.12V19c.06-.15,0-.35.08-.51s.23-.14.37-.23S21,18,21.24,18c.41-.05.4.39,1.48-.16.71-.36.42-.49.65-.59a1,1,0,0,1,.05.35c0,.13-.11.19-.18.25-.44.36-.79.35-1.36.77-.08.05-.21.16-.19.25a.76.76,0,0,0,.73.2c.13-.06,0,0,.12-.06l.12.13c.07-.18,0-.48.11-.71s1.22-.4,1-1.14a.53.53,0,0,0-.18-.25c-.15.05,0,.07-.19.08s0-.06,0-.17c.22-.06.29.19.53.06s.13-.22.17-.46c-.25-.32-.24-.12-.61-.23s-1.13-1-2.05-.18a2.55,2.55,0,0,0-.6.66c-.21.4,0,1-.44,1.24Z"/><path class="cls-1" d="M12.27,17.36c-.07-.18-.24-.38.26-.5a.54.54,0,0,1,.17.38,1.09,1.09,0,0,1-.43.12ZM11.44,17c0-.16.05-.24.21-.31.19.1-.06.13.4.26v.32a2.23,2.23,0,0,1-.61-.27Zm1.5-.05a.54.54,0,0,1-.15.15.62.62,0,0,1-.21-.45c.16,0,.08.06.18.13s.08,0,.18.17Zm-1.69-.32a.88.88,0,0,0,.35-.06c0,.06-.18.23-.3.24Zm.92-.27c.06,0,0,0,.07,0,0,.23-.24.16-.16,0Zm-2,.33c.24,0,.19,0,.34-.06.23.14.18.08.48.1a1.6,1.6,0,0,0,.93.94,1.28,1.28,0,0,1,.34.14.63.63,0,0,0,.38.09,1.2,1.2,0,0,1,.44,0c.18.1,0,.09.32.15a6,6,0,0,0,0,.74h.15c.05-.16-.05-.3,0-.55a3.58,3.58,0,0,0-.09-1.18c0-.14-.12-.38-.13-.5.3.13.33.1.37.52h0l0,0c.05,0,0,0,.07,0a1.51,1.51,0,0,0,.06.36s0,0,0,0,0,0,0,0a2,2,0,0,0-.06-.78c.2-.17.58-.19.29-.42s-.43-.18-.62-.3a1.77,1.77,0,0,0-.56-.36c-.41-.17-.68-.56-1.37-.26-.31.13-.37.12-.57.35a2.44,2.44,0,0,1-.22.23c-.19.16,0,.15-.19.29s-.11.06-.22.21,0,.06-.11.12-.09,0-.11.13Z"/><path class="cls-1" d="M24.86,25.37c.05-.28.72-.68.48-.29A.46.46,0,0,1,24.86,25.37Zm1.7-2.57v-.21c.17,0,.5.55.53.71-.16-.11-.2-.28-.35-.41S26.68,22.85,26.56,22.8Zm-.93,2.49a.82.82,0,0,1,.22.5,1.14,1.14,0,0,0,.16.52,4.67,4.67,0,0,0,.07-.94c0-.28-.09-.23-.15-.4a.36.36,0,0,1,.15-.35,6.93,6.93,0,0,1,.68,1.28,3.53,3.53,0,0,0-.57-1.63,2.72,2.72,0,0,1,0-.69c.08,0,.09,0,.18.18a8.66,8.66,0,0,1,.73,1.91c.09.38.2.61.31,1.19,0,.18.18,1.23.21,1.28a9.38,9.38,0,0,0-.29-2.21l-.17-.69a4.74,4.74,0,0,0-.76-1.83c-.23-.23-.18-.37,0-.62.15,0,.16.13.24.28a7.15,7.15,0,0,1,.59,1,4.57,4.57,0,0,1,.26.79l.17.75c.05.1,0,.06.08.08a5.82,5.82,0,0,0-.18-1.21c.05,0,0,0,0,0h.07c0-.19-.05-.19,0-.34s0-.24,0-.36a1.86,1.86,0,0,0-.47-1.07c-.27-.37-.24-.18-.4-.36.1-.11.17-.05.28-.23.2-.33-.22-.32-.33-.29s-.06,0-.16.13a3.12,3.12,0,0,0-.55.49c-.46.65-.25,1-.37,1.25s-.08,0-.09.14.11.05-.18.58-.2.32-.62.71a.83.83,0,0,0-.11.15c-.18.39.48.31.62.24s.18-.19.33-.23Z"/><path class="cls-1" d="M6,16.87c.16.08.7-.13.88-.2l.42-.19c.17-.07.22-.16.42-.21a3.44,3.44,0,0,1-1.09.91,3,3,0,0,0-.44.21c.17.16.68-.17.92-.2-.08.27-.62.45-.72.62.19.08.8-.26,1-.4s.13-.18.3-.18c.09.21,0,.24-.11.34a3.89,3.89,0,0,1-.71.56c-.11.06-.1,0-.16.12.21.08.32,0,.52,0-.08.16-.3.27-.49.4s-.13.07-.15.14a3.48,3.48,0,0,0,1.09-.48,1.77,1.77,0,0,0,.17-.14c.16-.14.13-.2.4-.28a1.46,1.46,0,0,1-.39.61,8.49,8.49,0,0,1-1,.93,5.3,5.3,0,0,0-.57.42,1.37,1.37,0,0,0,.78-.4c.11-.09.24-.16.35-.26s.2-.24.32-.25c0,.28-.34.47-.38.63s0,.07,0,.15,0,.06,0,.12c.27-.1.25-.2.43-.4a2.12,2.12,0,0,0,.38-.52,6,6,0,0,0,.44-1.29c-.27,0-.09.06-.28.16a.56.56,0,0,1,0-.29c0-.12,0-.24,0-.35a1.91,1.91,0,0,1,.09-.64c.05-.14.07-.11,0-.27-.08-.42.19-.49.14-.81-.38,0-.54.28-.87.59A6.44,6.44,0,0,1,6,16.87Z"/><path class="cls-1" d="M16,8.2a1.45,1.45,0,0,1,.08.88c-.11,0-.14-.06-.17-.39A1,1,0,0,1,16,8.2Zm.55,1.36c-.19-.14-.08-.37-.05-.61a4.2,4.2,0,0,1,0-.71c-.12-.08-.12,0-.24-.22a.48.48,0,0,0-.09-.13c-.07-.1,0-.08-.13-.14a.65.65,0,0,1-.11.22,1.15,1.15,0,0,0,0,1.29c.17.22,0,.26,0,.53l.18,0s0,0,0,0c0,.35-.08.2-.05.5.13.09.19,0,.31.1a.88.88,0,0,1-.12.15c-.06.06-.12.07-.1.15s0,.13.25,0,.21-.55.5-.5a.67.67,0,0,1,0,.28c0,.11,0,.2-.05.31a2.53,2.53,0,0,0,0,.62.6.6,0,0,0,.15-.35c0-.15,0-.32.1-.43.11,0,.23.61.29.73.07-.09,0-.14,0-.29a.73.73,0,0,1,.08.33c0,.24.16.75.41.85a5.06,5.06,0,0,0-.22-.53,3.94,3.94,0,0,1-.2-1.31c0-.26,0-.48,0-.7-.15.2,0,.66-.19.77-.21-.36-.06-1.07-.07-1.51,0-.26,0-.51-.06-.8A1.63,1.63,0,0,0,17,7.42c-.05.43.08,1.14-.14,1.11-.07-.18-.09-2.08-.15-2.19S16.65,7.88,16.65,8s-.06,1.38-.1,1.51l0,.07v0Z"/><path class="cls-2" d="M15,23.28a1.76,1.76,0,0,1,1.15.67c.19.24.12.45.13.79s-.15.64-.11.76a.65.65,0,0,0,.41.27,4.43,4.43,0,0,1,.1-1.34c.15-.17.33,0,.33.27s0,.51,0,.72c.13,0,.35-.16.35-.16.06-.18-.1-.54.06-.86a1.94,1.94,0,0,1,.48-.58l.23-.18c.25-.17.58-.28.37-.51s-1.15.49-2,.2a7.13,7.13,0,0,0-.69-.29.67.67,0,0,0-.75.24Z"/><path class="cls-1" d="M13.8,8.2c-.2-.09-.21-.24-.34-.3a6.32,6.32,0,0,1,.35.94,7.91,7.91,0,0,1,.2,1.1c.12,0,0,0,.23-.19s.1-.53,0-.89c.07,0,0,0,.05.07l.18.33a4.5,4.5,0,0,0,.2.51c.19-.07.28-.37.33-.49v0c.2.2.22.57.57.57a2.61,2.61,0,0,0-.2-.32,2.46,2.46,0,0,1-.19-.32l.1-.08c.11.08.21.36.35.31s-.13-.22-.21-.53,0-.62,0-.7c-.21,0-.11.31-.22.46C15,8.48,15,8,14.67,7.54c-.09-.1-.13-.27-.26-.3a6.75,6.75,0,0,0,0,.9c-.25-.09-.29-.51-.49-.78s0-.19-.21-.23c-.22.33,0,.78.09,1.07Z"/><path class="cls-1" d="M18.3,12.27c.09-.09.11,0,.27,0,.34,0,.91.09,1-.1a4.17,4.17,0,0,0-.9-.12c0-.33.12-.41.06-.53a.69.69,0,0,0-.12.3l-.08.11a4.32,4.32,0,0,1-.42-1.21A2.55,2.55,0,0,1,18,9.28a3.15,3.15,0,0,1,.24-.89A8.21,8.21,0,0,1,19.87,5.7c-.25,0-.55.31-.68.48l-.08.09h0A8.65,8.65,0,0,0,18,8.47a3.74,3.74,0,0,0-.26,2l.1.77c0,.19,0,.11.05.26s.15.3.21.39.19.14.25.36Z"/><path class="cls-1" d="M9.47,12.85c-.21.11-1-.22-1.19-.36s-.23-.18-.35-.12c.15.1.3.15.45.25s.1.1.19.16a2,2,0,0,0,.77.28c.26,0,.48-.06.64.08,0,.12-.09.14-.21.22a1.84,1.84,0,0,1-1.14.2,2.57,2.57,0,0,1-1.19-.17c-.1-.06-.14-.15-.23-.18s0,.13-.07.22c-.56-.09-.74-.89-1.34-1.06-.16,0-.5-.13-.67-.16.13.21.53.09.91.46l.33.33c.24.26.25.44.75.62l.52.19a5.61,5.61,0,0,0,1.24.13c.18-.09,0,0,.14-.1a1.66,1.66,0,0,1,.22,0,1.36,1.36,0,0,0,.42-.09L10,13.5a.72.72,0,0,0,.18-.33c-.07-.12-.14-.16-.17-.28.2-.05.25,0,.36-.07s.06-.06-.27-.12a2.25,2.25,0,0,1-1-.24l-.55-.25A5.34,5.34,0,0,0,8,11.94a2.78,2.78,0,0,0,.87.6c.13.06.1.07.19.13s.31.1.44.18Z"/><path class="cls-1" d="M18.92,11.48l0-.19c.11,0,.06,0,.15-.06a3,3,0,0,1,0-1.77L19,9.52l-.11.24c-.05.2,0,.26-.12.32a.82.82,0,0,1,0-.44l-.06,0c-.07,0,0,0-.06,0a3.44,3.44,0,0,1,.87-1.8c.37-.39.61-.82.89-1.11s.16-.22.26-.39a1.18,1.18,0,0,0-.71.48l-.13.12a7.57,7.57,0,0,0-.86,1.14,3.47,3.47,0,0,0-.18.33A2.72,2.72,0,0,0,18.39,10c.06.44.19.26.24.49a1.81,1.81,0,0,1,0,.23C18.71,11,18.71,11.42,18.92,11.48Z"/><path class="cls-2" d="M28.14,8c0,.19,0,.08.11.14s0,.05.12.17a2.87,2.87,0,0,0,.5.3c.1,0,.07,0,.17.11a2.77,2.77,0,0,1,.34.2,2.31,2.31,0,0,1,.69.94,2,2,0,0,1,.19,1.37L30,12c-.13.22-.15.37-.35.72-.08.13-.13.23-.21.34s-.18.18-.25.33l0,0a.39.39,0,0,0,.26,0,5.55,5.55,0,0,0,.45-.67c.06-.13.12-.22.18-.35a2.71,2.71,0,0,0,.21-.37,4.51,4.51,0,0,0,.14-2,4.25,4.25,0,0,0-.57-1.07l-.94-.75c-.14-.09-.63-.37-.78-.3Z"/><path class="cls-2" d="M9.51,45.4c.21,0,.39-.42.49-.6.51-1,.28-.8.37-1.73a3.7,3.7,0,0,1,.06-.48c0-.17.08-.26.11-.41-.16.06-.25.29-.33.41s-.2.2-.28.42-.1.34-.16.56-.07.17-.1.26-.05.12-.13.17c0,.23,0,.49,0,.73s-.06.44-.05.67Z"/><path class="cls-1" d="M10.62,14.62c.09-.09,0-.11.47-.46a1.28,1.28,0,0,1,.6-.31,1.63,1.63,0,0,1,1.48.18,1.28,1.28,0,0,1,.38.54c.11.19.25.37.36.55s.31.6.67.74c.14.05.28.05.24-.14s-.31-.4-.39-.54a3.11,3.11,0,0,0-.37-.55c-.36-.47-.28-.68-1-.91-.12,0-.23-.1-.32-.12a3.32,3.32,0,0,0-.46,0,2,2,0,0,0-1.07.29c-.26.19-.71.44-.62.75Z"/><path class="cls-2" d="M3,13.18a.54.54,0,0,0,.09.39c.11.17.06.19.14.37s.27.46.35.69a.76.76,0,0,0,.18.33,3.47,3.47,0,0,0,.41.64c.09.09,0,0,.12.14s0,.09.12.15a.66.66,0,0,0,.36-.24c-.08-.15-.17-.05-.45-.55a2.87,2.87,0,0,1-.41-.58A10.45,10.45,0,0,1,3.41,13a.86.86,0,0,0-.39.15Z"/><path class="cls-1" d="M20.06,16.29c.08-.06,0,0,.06-.06l.26-.4a3.08,3.08,0,0,1,.41-.36,2.07,2.07,0,0,1,1-.53,1.3,1.3,0,0,1,.68,0c.29.18.51.56.87.65.12,0,.74.15.49-.13-.08-.08-.4-.1-.55-.22s-.12-.12-.19-.18-.13-.13-.2-.19a1.64,1.64,0,0,0-1.3-.16,2.29,2.29,0,0,0-1.27,1,1.27,1.27,0,0,0-.28.54Z"/><path class="cls-1" d="M6.09,16.31c.21.05.41-.06.71-.17a3.9,3.9,0,0,0,.9-.57l.52-.43a.56.56,0,0,1,.15-.1l.14-.13c-.08-.09,0-.06-.15-.07s0,0-.17-.08a7.52,7.52,0,0,1-1.85,1.33c-.14.06-.18.07-.25.22Z"/><path class="cls-2" d="M4.08,16.1c0-.26-.19-.12-.43-.6a4.1,4.1,0,0,1-.36-.65c-.09-.29-.21-.43-.31-.71l-.17-.58c0-.16,0-.11-.1-.19-.17.09-.09.24,0,.4A6.21,6.21,0,0,0,3.1,15c.15.27.26.49.41.71C3.82,16.16,3.84,16.25,4.08,16.1Z"/><path class="cls-1" d="M23.14,31.08l-.08.52c-.21,0-.22-.15-.32-.06s0,.34,0,.57,0,.42,0,.65c.33-.11.36-.34.51-.79.05-.14.31-1-.1-.89Z"/><path class="cls-1" d="M11.17,23.8c.15,0,.16-.12.19-.27.16-.79-.14-.46.4-1.57a3.73,3.73,0,0,1,.16-.35,5.19,5.19,0,0,0,.3-.68c-.26,0-.64,1.08-.73,1.27a1.38,1.38,0,0,0-.22.75c0,.29-.11.66-.1.85Z"/><path class="cls-1" d="M13.09,18.14,12.35,18c-.54-.11-.7,0-1.34-.47a.77.77,0,0,1-.22-.22c-.14-.2,0-.27-.16-.34-.12.22.1.5.26.61a2.32,2.32,0,0,0,1.35.54,2.38,2.38,0,0,0,.85.06Z"/><path class="cls-1" d="M22.24,33.12c.36-.09.55-1.23.1-1.22-.09.22,0,.4-.06.64A1.06,1.06,0,0,0,22.24,33.12Z"/><path class="cls-2" d="M8.51,25.68a.44.44,0,0,0,.28,0c.05-.24-.12-.25-.18-.62s-.14-.48-.33-.52a3.63,3.63,0,0,0,.23,1.16Z"/><path class="cls-1" d="M17.64,12.81c-.09.15-.25,1.7,0,1.45a4.89,4.89,0,0,0,.17-1.16c0-.2,0-.25-.16-.29Z"/><path class="cls-2" d="M9.54,4.27c.28.05.47,0,.8,0s.54.15.78,0A1.94,1.94,0,0,0,10.31,4c-.23-.06-.19-.11-.41,0S9.6,4.17,9.54,4.27Z"/><path class="cls-2" d="M11.68,3.63l.87.46a2.84,2.84,0,0,0,.94.4,4.71,4.71,0,0,0-1.67-.88l-.14,0Z"/><path class="cls-2" d="M28.83,15a1.6,1.6,0,0,0-.42-.27c-.23-.13-.2-.26-.49-.24-.08-.15-.14-.13-.44-.18a1.8,1.8,0,0,0,1.35.69Z"/><path class="cls-1" d="M4.73,16.55a2.69,2.69,0,0,0,1.53-.73,3.63,3.63,0,0,1,.76-.6c-.39,0-.35.18-.84.49a5.92,5.92,0,0,1-.82.58A5.59,5.59,0,0,0,4.73,16.55Z"/><path class="cls-2" d="M9.43,5.67a1.5,1.5,0,0,0,.39.08c.44.09.73.38,1.09.2A1.6,1.6,0,0,0,9.43,5.67Z"/><path class="cls-1" d="M10.56,12.63c0-.19-.09-.08-.43-.2-.57-.21-1.1-.75-1.24-.75a3.89,3.89,0,0,0,.69.63C9.74,12.45,10.26,12.8,10.56,12.63Z"/><path class="cls-1" d="M27.11,28.09c-.3-.54-.72-.6-1.12-.79-.25-.12-.19-.26-.37-.32,0,.58.55.45,1.12.85l.19.12c.07.05.12.12.18.14Z"/><path class="cls-1" d="M23.81,34c.3-.13-.1-.6.4-1.3a.7.7,0,0,0,.22-.35c-.21.07-.45.44-.54.63a1.68,1.68,0,0,0-.08,1Z"/><path class="cls-1" d="M23,35a2.22,2.22,0,0,0,.67-1.54c-.1,0-.29.61-.34.74A6.38,6.38,0,0,0,23,35Z"/><path class="cls-1" d="M14.26,18.64c-.26,0-.25-.19-.36.09l.12.16h0L14,19c-.09.09,0,0-.09.13l.29-.11c-.06.24-.38.42-.43.57.17,0,.37-.29.5-.47s0-.19.13-.38.13-.14.1-.36c0,0,0,0,0,.06a.22.22,0,0,0-.05.08.61.61,0,0,1-.09.16Z"/><path class="cls-2" d="M5.22,13.93c.13.14.18.07.35.17a1.07,1.07,0,0,0,.34.16c.32.08.48.35.68.15-.09-.06-.08,0-.16-.06-.38-.16-.82-.62-1.21-.42Z"/><path class="cls-1" d="M13.41,20.24c.2,0,.31-.17.4-.24s0,0,.07-.05c-.09.41-.65.7-.66,1.11a4.55,4.55,0,0,0,.56-.73.88.88,0,0,0,.18-.46c0-.19.23-.3.17-.43l-.16.22c-.05.08-.11.12-.17.2-.29.35-.31.2-.39.38Z"/><path class="cls-1" d="M24,11.2c.2.2.9,0,1-.65-.15,0-.27.24-.46.38S24.11,11,24,11.2Z"/><path class="cls-2" d="M25.59,19.14c.06.19.25,0,.61.45a4.62,4.62,0,0,0,.47.56,1.5,1.5,0,0,0-.37-.72,1.63,1.63,0,0,0-.34-.21c-.38-.18-.26-.15-.37-.08Z"/><path class="cls-2" d="M21.85,17.56a.89.89,0,0,0,.69-.14c-.06-.35-.51-.26-.6-.12a1,1,0,0,0-.09.26Z"/><path class="cls-1" d="M24.69,33.93c.22-.08.42-.66.49-.88l.06-.24c0-.11,0-.05,0-.11A3.31,3.31,0,0,0,24.69,33.93Z"/><path class="cls-2" d="M32.32,17.18a2.1,2.1,0,0,0-.43-.49c-.07-.06-.15-.15-.23-.21s-.13-.16-.28-.21l.13.33a2,2,0,0,0,.81.58Z"/><path class="cls-2" d="M11.44,17a2.23,2.23,0,0,0,.61.27V17c-.46-.13-.21-.16-.4-.26-.16.07-.17.15-.21.31Z"/><path class="cls-1" d="M8.21,36.56a4.16,4.16,0,0,0-.29-1.79A9.7,9.7,0,0,0,8.21,36.56Z"/><path class="cls-2" d="M12.27,17.36a1.09,1.09,0,0,0,.43-.12.54.54,0,0,0-.17-.38c-.5.12-.33.32-.26.5Z"/><path class="cls-2" d="M2.54,12.42a.52.52,0,0,0,.3-.3,2.89,2.89,0,0,0,0-.29c0-.15,0-.16-.17-.19a1.36,1.36,0,0,0-.17.78Z"/><path class="cls-1" d="M15,22.19a2.14,2.14,0,0,1-.15-.38c0-.25,0-.33,0-.5-.08,0-.07-.07-.21.16s0,.45.11.61.1.16.23.11Z"/><path class="cls-2" d="M21.28,33.7s.22-.52.09-.71c-.14,0-.07,0-.19,0L21,33a2.49,2.49,0,0,0,.16.33,3.67,3.67,0,0,0,.14.37Z"/><path class="cls-1" d="M11.33,25.22c0,.13-.33.58-.18.74.25,0,0-.4.25-.56s.19,0,.31-.06,0,0,.12-.07.09,0,.16-.06c-.12-.09-.14,0-.28,0a1.61,1.61,0,0,1-.38,0Z"/><path class="cls-2" d="M2.88,11.22a1.48,1.48,0,0,0,.56-.28.38.38,0,0,0-.22-.1.53.53,0,0,0,.24-.42c-.22.06-.19.19-.32.37A1,1,0,0,0,3,11l-.12.22Z"/><path class="cls-2" d="M30.92,14.75c-.1-.26-.93-.48-1-.41S30.8,14.74,30.92,14.75Z"/><path class="cls-1" d="M7.31,14.1c0-.29-.88-.68-1.16-.91a1.35,1.35,0,0,0-.41-.28c0,.11,0,0,.06.1.22.24,1,.64,1.33,1a1.94,1.94,0,0,1,.18.14Z"/><path class="cls-1" d="M12.13,26.89a.87.87,0,0,0,.51.15.28.28,0,0,0-.18-.39c-.16,0-.27.11-.33.24Z"/><path class="cls-2" d="M14.47,37.55a.59.59,0,0,0,.24-.34.55.55,0,0,0,0-.22c0-.14,0-.18-.09-.26s-.1.17-.12.34a1.92,1.92,0,0,0,0,.48Z"/><path class="cls-2" d="M17,37.61a3.77,3.77,0,0,0,.8-1.52c-.16.06-.33.77-.59,1.12a2.15,2.15,0,0,0-.21.4Z"/><path class="cls-2" d="M16,8.2a1,1,0,0,0-.09.49c0,.33.06.36.17.39A1.45,1.45,0,0,0,16,8.2Z"/><path class="cls-2" d="M33.06,17.79a3.84,3.84,0,0,0-.42-.63,1.84,1.84,0,0,0-.26-.29c-.07-.07-.08,0-.16-.13s0-.09-.18-.12c0,.13,0,.08.12.16a7,7,0,0,1,.75.9c.08.11,0,.12.15.11Z"/><path class="cls-2" d="M2.91,22a.48.48,0,0,0,.2-.14l.35-.36c.07-.07.15-.1.1-.25-.2.08-.36.32-.53.49s-.07.13-.12.26Z"/><path class="cls-1" d="M11.15,25.14c.24.06.65-.27.57-.48-.18-.06-.05.05-.47.32C11.17,25,11.15,25,11.15,25.14Z"/><path class="cls-2" d="M28.07,9.81c.34-.09.37-.39.48-.59s.1-.08.11-.29l-.18,0a.89.89,0,0,1-.12.53l-.29.4Z"/><path class="cls-1" d="M15.87,22.1c0-.15-.12-.27-.16-.41s0-.37,0-.48c-.25.27-.14.85.19.89Z"/><path class="cls-1" d="M14.69,22.19c0-.13-.07-.21-.08-.63,0-.11,0-.12-.07-.2a.5.5,0,0,0-.09.48A.56.56,0,0,0,14.69,22.19Z"/><path class="cls-1" d="M15.17,21.4a1.46,1.46,0,0,0,.14.75.53.53,0,0,1,.18,0,1.48,1.48,0,0,1-.18-1s0,0,0,0l-.12.15Z"/><path class="cls-2" d="M24.86,25.37a.46.46,0,0,0,.48-.29C25.58,24.69,24.91,25.09,24.86,25.37Z"/><path class="cls-1" d="M20.52,20.38c0-.16-.05-.25-.06-.44a1.21,1.21,0,0,0,0-.33c-.06-.16,0-.05-.07-.1s-.06.07-.05.21S20.24,20.26,20.52,20.38Z"/><path class="cls-2" d="M7,6.71a4.79,4.79,0,0,0,.58-.22,1.8,1.8,0,0,0,.54-.25,2.58,2.58,0,0,0-.9.3C7,6.67,7.06,6.63,7,6.71Z"/><path class="cls-2" d="M16.34,37.62v.2c.13,0,.17-.1.27-.29s.16-.31.1-.42C16.42,37.47,16.54,37.46,16.34,37.62Z"/><path class="cls-2" d="M25.48,15.79a1,1,0,0,0-.36-.17.33.33,0,0,0,.26.3,3.74,3.74,0,0,0,.45.12l0,0a.76.76,0,0,0-.33-.23Z"/><path class="cls-2" d="M11,35.82c.13-.08.2-.34.26-.49a1.87,1.87,0,0,0,.08-.57A5.66,5.66,0,0,0,11,35.82Z"/><path class="cls-2" d="M2.21,22.63a2.46,2.46,0,0,0,.43-.41c.13-.11.11,0,.11-.22-.18,0-.56.5-.54.63Z"/><path class="cls-1" d="M19.46,22.27c.06-.07.05-.07.08-.19a1.7,1.7,0,0,0,0-.22.63.63,0,0,0,0-.3.08.08,0,0,1,0,0c0-.07,0,0-.05-.06a1.64,1.64,0,0,0,0,.38.85.85,0,0,0,0,.43Z"/><path class="cls-1" d="M19.53,23a1.5,1.5,0,0,0,.15-.36,1.1,1.1,0,0,0,.05-.48,1.62,1.62,0,0,0-.24.71C19.49,23.06,19.5,23,19.53,23Z"/><path class="cls-2" d="M22.83,5.79c.47-.15.47-.26.5-.55-.17.07-.26.28-.39.4S22.86,5.64,22.83,5.79Z"/><path class="cls-2" d="M27.19,8.09c.11,0,.23,0,.28,0a.92.92,0,0,0,.14-.26C27.34,7.81,27.19,7.76,27.19,8.09Z"/><path class="cls-2" d="M29.53,10c-.05-.25,0,0-.13-.23s-.07-.2-.12-.28a.83.83,0,0,0-.49-.41c0,.17.16.2.38.45a2.08,2.08,0,0,1,.36.47Z"/><path class="cls-2" d="M4.35,9.72c-.14.13-.32.1-.42.23a1.24,1.24,0,0,0,.74-.25l-.38-.12C4.35,9.64,4.34,9.63,4.35,9.72Z"/><path class="cls-2" d="M26.75,22.89c.15.13.19.3.35.41,0-.16-.36-.7-.53-.71v.21C26.68,22.85,26.65,22.8,26.75,22.89Z"/><path class="cls-1" d="M21.85,23.37s0,0,0-.09a1,1,0,0,0,0-.17.9.9,0,0,0-.06-.22c0-.08-.06-.13-.09-.2l-.14-.19a.72.72,0,0,0,.12.41,1.66,1.66,0,0,1,.06.21.67.67,0,0,0,.08.25Z"/><path class="cls-2" d="M16.93,37.53a2.54,2.54,0,0,0,.47-.87c-.26.08-.25.36-.37.65A2.35,2.35,0,0,1,16.93,37.53Z"/><path class="cls-2" d="M6.93,35.78c0-.19.05-.54-.12-.69C6.73,35.25,6.8,35.72,6.93,35.78Z"/><path class="cls-1" d="M12.87,26.61l.13.23c.35,0,.15-.29.08-.35A.24.24,0,0,0,12.87,26.61Z"/><path class="cls-2" d="M12.79,17.13a.54.54,0,0,0,.15-.15c-.1-.2,0-.05-.17-.17s0-.12-.19-.13a.62.62,0,0,0,.21.45Z"/><path class="cls-2" d="M22,10.59c.11.18.27,0,.36-.07a1.07,1.07,0,0,0,.27-.29c-.19,0-.2.11-.33.2s-.25.11-.3.16Z"/><path class="cls-1" d="M11.46,26.67l.14.13a.46.46,0,0,0,.15-.42.32.32,0,0,0-.29.29Z"/><path class="cls-2" d="M11.71,5.86c0-.12-.27-.41-.45-.46,0,.15.1.18.19.3s.11.15.18.17S11.67,5.87,11.71,5.86Z"/><path class="cls-1" d="M16.7,31.1c.09-.09.09-.12.09-.29s0-.18-.12-.28A.64.64,0,0,0,16.7,31.1Z"/><path class="cls-2" d="M23,17.12c.13,0,.11,0,.16-.14l.09-.19a.33.33,0,0,0-.25-.13,2.35,2.35,0,0,1,0,.46Z"/><path class="cls-1" d="M19.29,23.42a2.7,2.7,0,0,0-.16-.41,1.26,1.26,0,0,0-.36-.27c0,.17-.05,0,.27.32.13.12.06.31.25.36Z"/><path class="cls-2" d="M11.24,4.55c.11.07.26.1.39.17a1.54,1.54,0,0,0,.38.17C11.93,4.73,11.46,4.45,11.24,4.55Z"/><path class="cls-1" d="M15.82,29.69c0,.21.09.09.23.21s0,.17.24.17a.66.66,0,0,0-.36-.4C15.79,29.65,15.85,29.68,15.82,29.69Z"/><path class="cls-2" d="M32.72,22.41c0-.23-.14-.35-.21-.49s0-.09-.12-.15A.91.91,0,0,0,32.72,22.41Z"/><path class="cls-2" d="M21.75,29.58l.06-.14a1.09,1.09,0,0,0-.43-.18c.05.1.07.09.15.18s.09.11.22.14Z"/><path class="cls-2" d="M8.81,41.53s0,0,.07,0a.5.5,0,0,0,.17-.37c-.15,0-.14,0-.2.15l0,.19a.24.24,0,0,0,0,.07Z"/><path class="cls-2" d="M8,38.6v-.12a.35.35,0,0,0-.26.44c.09-.05.09-.06.14-.16s0-.11.11-.16Z"/><path class="cls-1" d="M17.3,30.36l.07.1.23-.07a.2.2,0,0,0,0-.17.31.31,0,0,0-.27.14Z"/><path class="cls-1" d="M20.35,22.22c.11-.11,0-.4,0-.52,0,0-.07-.06,0,.27A.61.61,0,0,0,20.35,22.22Z"/><path class="cls-2" d="M21.32,31.63c0,.16,0,.18.05.27s.14-.12.17-.3Z"/><path class="cls-1" d="M21.9,24.65a.33.33,0,0,0,.11-.42C21.87,24.29,21.89,24.51,21.9,24.65Z"/><path class="cls-2" d="M21.51,17.46l.17.1a.34.34,0,0,0,.09-.28C21.63,17.29,21.58,17.36,21.51,17.46Z"/><path class="cls-1" d="M11.11,24.89c.17.07.3-.16.25-.28s-.07,0-.15.11-.1,0-.1.17Z"/><path class="cls-1" d="M17,30.71c0-.16.07-.28-.15-.29C16.87,30.63,16.86,30.68,17,30.71Z"/><path class="cls-2" d="M11.25,16.66l.05.18c.12,0,.26-.18.3-.24A.88.88,0,0,1,11.25,16.66Z"/><path class="cls-2" d="M3.4,11.72a1,1,0,0,0,.39-.2l-.25,0c-.13,0-.13,0-.14.18Z"/><path class="cls-1" d="M17.18,30.57a.21.21,0,0,0,0-.33A.24.24,0,0,0,17.18,30.57Z"/><path class="cls-2" d="M21.37,17.11v.14a.24.24,0,0,0,.24-.2A.42.42,0,0,0,21.37,17.11Z"/><path class="cls-2" d="M16.38,37.51c.06-.1.13-.21.07-.31s-.1,0-.12.15,0,.14.05.16Z"/><path class="cls-2" d="M22.44,17a.35.35,0,0,0,.27.19c0-.11,0-.13-.23-.24Z"/><path class="cls-1" d="M16.25,29.51a.32.32,0,0,0,.3,0c0-.06,0-.07-.17-.11s-.11,0-.13.07Z"/><path class="cls-1" d="M13.21,28c0-.08,0-.06,0-.19s-.15,0-.17.07,0,.1.12.12Z"/><path class="cls-2" d="M22.64,16.92c.07,0,.07.06.18,0s0-.14-.08-.2l-.1.15Z"/><path class="cls-2" d="M12.08,16.4c-.08.18.15.25.16,0-.07,0,0,0-.07,0Z"/><path class="cls-2" d="M20.13,38.91c.15.06.17,0,.19-.15A.29.29,0,0,0,20.13,38.91Z"/><path class="cls-2" d="M9.79,27.17c.12,0,.12,0,.13-.13S9.8,27.08,9.79,27.17Z"/><path class="cls-1" d="M13.46,26.5l.06-.14C13.32,26.35,13.39,26.44,13.46,26.5Z"/><path class="cls-1" d="M7,6.71c0-.08-.06,0,.22-.17a2.58,2.58,0,0,1,.9-.3,1.8,1.8,0,0,1-.54.25A4.79,4.79,0,0,1,7,6.71ZM10.91,6c-.36.18-.65-.11-1.09-.2a1.5,1.5,0,0,1-.39-.08A1.6,1.6,0,0,1,10.91,6Zm.35-.55c.18,0,.47.34.45.46s.07,0-.08,0-.14-.13-.18-.17S11.29,5.55,11.26,5.4Zm0-.85c.22-.1.69.18.77.34a1.54,1.54,0,0,1-.38-.17C11.5,4.65,11.35,4.62,11.24,4.55Zm-1.7-.28c.06-.1.25-.17.36-.22s.18-.07.41,0a1.94,1.94,0,0,1,.81.27c-.24.1-.51,0-.78,0S9.82,4.32,9.54,4.27Zm2.28-.66a4.71,4.71,0,0,1,1.67.88,2.84,2.84,0,0,1-.94-.4l-.87-.46.14,0Zm-.93-1.27a3.83,3.83,0,0,1-.59,0l0,0c.05,0,0,0,.07,0l.11.05,1.68.64a4.42,4.42,0,0,1,.41.26c.28.15,1,.64,1,1a6,6,0,0,0-1.76-.87,4.2,4.2,0,0,1-.75-.14c-.07-.09,0-.13-.16-.25a3.27,3.27,0,0,0-.77-.57,1.8,1.8,0,0,0-.8-.05c-.1,0-.15.11-.28.17s-.24,0-.27.16a1.83,1.83,0,0,0,.47,0,1.47,1.47,0,0,1,.85.25c.09.08.27.16.29.28s-.08.07-.21.11a3.58,3.58,0,0,0-.68.34,7.93,7.93,0,0,1-1.34.66c-.34.07-.51.25-.81.33L6.74,5c.08.18.12.14.29.17C8.2,5.32,9,4.41,9.5,4.74l-.18.08a1.27,1.27,0,0,1,1,.21,4,4,0,0,0-1.65.13,2,2,0,0,0-.31.13,3,3,0,0,0-.32.15,6.31,6.31,0,0,1-.54.39c-.2.12-.34.25-.54.38a2.07,2.07,0,0,1-1.44.41c-.27,0-.65,0-.63.3L5.4,7l.26,0a.38.38,0,0,1,.23.08l-.74.27c-.14.06-.18.11-.33.18a4,4,0,0,0-1.32.78c-.13.1-.21.12-.28.26a.61.61,0,0,0,.16-.12,2.9,2.9,0,0,1,.52-.38,7.59,7.59,0,0,1,.81-.36,7,7,0,0,1,2-.37c-.08.07-.88.37-1,.44-.33.16-.69.33-1,.5a7,7,0,0,1-1,.53C3.32,9,3.15,9,3,8.88a.7.7,0,0,0-.49-.1.88.88,0,0,0,1.12.39A4.83,4.83,0,0,1,4.22,9c.2,0,.38,0,.58,0H5a1.91,1.91,0,0,1-.43.21l-.35.13c-.07,0-.06,0-.1.07.45.25,1.7-.59,2.29-.55a2.24,2.24,0,0,1,.37.1,2,2,0,0,1,.44.06c.13-.06,0,0,.12-.11a3.39,3.39,0,0,1,1.18.6,1.49,1.49,0,0,1,.18.17,4,4,0,0,0,.37.34c0-.16,0-.17-.11-.29l0-.08a1.34,1.34,0,0,0-.11-.14A1.15,1.15,0,0,0,8.41,9a13.52,13.52,0,0,0-1.85-.76l.1,0c.22-.05.76,0,.86,0-.43-.14-.37-.22-.91-.1a2.11,2.11,0,0,0-.7.26c-.13.18.26,0,.49.16a3.5,3.5,0,0,0-.84.18,3,3,0,0,1-.87.08c.06-.13.25-.14.4-.19L6.36,8a8.22,8.22,0,0,1,.87-.33,3.06,3.06,0,0,1,1.09-.09c0-.18.11-.28-.31-.5a2.14,2.14,0,0,0-.72-.2,6.9,6.9,0,0,1,1.58-.68,2.36,2.36,0,0,1,1.44,0c.14.07.2.2.38.18.11-.2,0-.11,0-.3.15,0,.27,0,.35.06l0-.1c.22,0,.29.18.46.21,0-.17-.11-.13,0-.23a.52.52,0,0,1,.31,0c.09.07.27.38.37.3L12,5.81c-.23-.23-.3-.4-.6-.57l-.14-.09c-.05-.06,0,0-.05-.06.12,0,1.18.52,1.4.62.42.18,1,.77,1.19.82V6.3l.1,0c-.15-.15-.21-.55-.51-.93a3.46,3.46,0,0,0-.82-.65,3.73,3.73,0,0,1-.6-.37c.13-.07.66.24.82.32s.38.23.59.33a6.07,6.07,0,0,0,1.11.41l.78.13c.13,0,.17,0,.23-.08a.22.22,0,0,0-.05-.08A1.52,1.52,0,0,0,14.79,5c-.12,0-.09,0-.14-.11s-.05-.13-.09-.2c-.21-.45-.5-.54-.79-.89a2.43,2.43,0,0,0-.57-.54s0-.08.23.05a7.15,7.15,0,0,1,2,1.26,4.58,4.58,0,0,1,.73.73,1.37,1.37,0,0,0,.4.34c.13-.2.08-.22,0-.4a2,2,0,0,0-.44-.71,2.43,2.43,0,0,0-.3-.26,6.4,6.4,0,0,0-1.28-1l-.15-.11-.07-.06c-.79-.7-1.11-.6-2-1a2.68,2.68,0,0,0-.78-.38c.07.21.61.47.82.56s.8.34.92.43c-.44-.11-.58-.21-.82-.28s-.29,0-.44-.09l-.38-.2a2.2,2.2,0,0,1-.55-.28,2.33,2.33,0,0,0-.55-.31c-.14-.05-.28-.07-.43-.13,0,.22.24.33.37.49s.36.27.43.44Z"/><path class="cls-1" d="M22,10.59c.05-.05.22-.1.3-.16s.14-.18.33-.2a1.07,1.07,0,0,1-.27.29c-.09.07-.25.25-.36.07Zm-2.69-.3A5.64,5.64,0,0,1,19.45,9c-.34.07-.37,1.31-.34,1.65s.05.4.26.43a.78.78,0,0,1-.1-.47.74.74,0,0,0,.29-.26c.07-.1,0,0,.11-.1,0,.26-.21.59.14.69v0c0-.08,0-.07,0-.14s0,.06.19.08c.16-.24-.14-.14.35-.38.17-.08.12,0,.23-.15s.11-.15.23-.07c-.07.18-.12,0-.15.22.23,0,.33-.17.55,0s.11.1.21.14.23,0,.32.05,0,.1.07.19,0,0,.12.14,0,.17.27.24c0,.34-.09.3.2.43a.47.47,0,0,0,.27.05c.23,0,.11,0,.24.11.31.26.73,0,1.09,0l.26.22c.28.2.5.5.91.5,0-.12-.05-.12-.17-.2a5.82,5.82,0,0,1-.68-.52s0,0,.07,0l.1,0,.2,0a.8.8,0,0,0,.34-.18s0-.07-.17,0a1.64,1.64,0,0,1-.66.08c-.16,0-.22-.15-.35-.14s-.18.11-.39.06c.05-.08,0,0,.08-.09l.17-.14h0c.18-.18.12-.3.33-.43a1,1,0,0,0,.35-.29l.19-.37c0-.06,0,0,0,0a3.84,3.84,0,0,0-.46.4c-.37.33-.33.06-.55.23a.42.42,0,0,1-.14.09c-.11.07-.06,0-.13.1s-.72.54-.93.36c.1-.07.69-.12.84-.59a.61.61,0,0,0,0-.4c-.2,0-.27.31-.51.32.2-.49.12-.17.48-.41a2.27,2.27,0,0,0,.61-.66l0-.09c.05-.1,0,0,0-.1-.3,0-.59.57-.91.63.07-.21.38-.6.37-.81-.17,0-.34.37-.44.44l-.64.25a5.19,5.19,0,0,1,.37-.45A1.05,1.05,0,0,0,23,8.8L22,9.74c-.12.09-.28.12-.34.27a1.28,1.28,0,0,0,.47-.1l0,0-.05.05c-.06,0,0,0-.09,0s-.36.21-.58.14a1.65,1.65,0,0,1,.3-.46c.26-.2,1-1,1-1.3-.24.12-.4.46-.64.58,0-.36.47-.72.27-1.07-.23.13-.5,1.05-1,1.24,0-.17.07-.11.13-.22-.19,0-.35.21-.47.32s-.23.3-.43.39c.17-1,.52-1,.57-1.34s.16-.23.21-.41C20.78,8,19.93,9,19.67,9.56l-.26.56c-.06.12,0,.12-.14.17Z"/><path class="cls-1" d="M25.12,15.62a1,1,0,0,1,.36.17.76.76,0,0,1,.33.23l0,0a3.74,3.74,0,0,1-.45-.12.33.33,0,0,1-.26-.3ZM27.41,17c-.25-.14-.24-.46-.78-.69s0-.19-.81-.69c-.49-.31-.83-.37-1.2-1a3.32,3.32,0,0,0-.32-.42c-.23.19,0,.52.19.77a2.15,2.15,0,0,0,.59.61c-.06.1-.09,0-.12.19-.1.56,1,.58,1.47.89a2.62,2.62,0,0,1,.76,1.86A3.31,3.31,0,0,1,27,17.8a1.68,1.68,0,0,0-.25-.68,1.33,1.33,0,0,0-1.23-.52c0,.21.07.12.43.28a1,1,0,0,1,.43.29c.13.2.48.65.44,1-.32-.33-.8-.81-1.28-.78,0,.19,0,.07.24.21A2.18,2.18,0,0,1,27,19c0,.22,0,.28.09.39v-.25c.08,0,.08,0,.13.3,0,.13,0,.28.06.38s0,0,0,0l0-.46c0-.18-.06-.33-.06-.47.15-.13.11,0,.19-.33a4,4,0,0,0,.11-.47,6.27,6.27,0,0,0-.1-1c.12.05.13.14.2.33s.12.24.18.39.22.73.35.79a5.06,5.06,0,0,0,0-1,2.6,2.6,0,0,0-.4-1.05c-.07-.08-.07-.09-.14-.18a1.58,1.58,0,0,0-.12-.15c-.28-.28-.51-.56-.75-.78s-.19-.21-.3-.31a8.88,8.88,0,0,0-1-.8l-.35-.25a4.27,4.27,0,0,1-.62-.59.64.64,0,0,1-.17-.42c.09,0,.09,0,.13-.11.1-.29-.19-.4-.33-.5a3.22,3.22,0,0,0-.52-.33c-.09-.08-.05-.09-.15-.15-.21.49.23.41.26.74a.65.65,0,0,0,.16.41,6.14,6.14,0,0,0,.4.73l.3.28c.48.5.63.46,1.1.9l.16.13A7.62,7.62,0,0,1,27.41,17Z"/><path class="cls-1" d="M26.2,19.59c-.36-.46-.55-.26-.61-.45.11-.07,0-.1.37.08a1.63,1.63,0,0,1,.34.21,1.5,1.5,0,0,1,.37.72,4.62,4.62,0,0,1-.47-.56Zm-.59-1.34c0,.27,0,0,.47.48a1.79,1.79,0,0,1,.42.55,3.28,3.28,0,0,0-.86-.38c-.06-.1,0-.14-.14-.2s-.05,0-.11.13l-.31,1c-.09.28-.16,1-.28,1.31l-.2.56c-.05.13-.07.06-.12.17s.05.14,0,.24a1.2,1.2,0,0,0-.13.78,2.5,2.5,0,0,1-.07,1.54c0,.14-.09.34-.14.46l-.34.53c-.12.11-.13,0-.13.17.19.15.24-.15.54-.27s.41-.19.51-.42a2.37,2.37,0,0,0,.24-1.5h.16a7.45,7.45,0,0,0-.24-1.2c-.1,0-.15,0-.22-.15s.13-.13.18-.15,0,.18.07.3a1.82,1.82,0,0,0,.14.28c.09.18.14.39.22.56s.25,0,.28-.22,0-.23,0-.48c.23-.14,0,0,.16-.22.19,0,.14.16.3.14l-.14-.33.1-.13a1.69,1.69,0,0,1-.19-.45l.12-.09a5.81,5.81,0,0,1-.3-.85c.22,0,.41.73.58.86s.06,0,.15.11,0,.07.12.13c.08-.31-.57-1.33-.79-1.62-.08-.1-.09-.12-.05-.29.38,0,.74,1.19.87,1.31a1.59,1.59,0,0,0,0-.54c.23.12.3.62.36.88s0,.23.1.32c0-.08,0-.17,0-.28s.1,0,.11-.13,0-.09-.06-.22a2.1,2.1,0,0,0-.06-.48l.12,0s0,0,0,0a3.45,3.45,0,0,0-.45-1.4,1.56,1.56,0,0,0-.4-.52c-.12-.08-.41-.33-.61-.24Z"/><path class="cls-1" d="M12.47,10.57c-.23-.2.08-.59-.33-1.46-.16-.34-.09-.45-.35-.41l.4,2.11c0,.09,0,0-.09.11s-.26,0-.38-.18a3.14,3.14,0,0,1-.79-1.94c-.06,0-.11,0-.11.26a3,3,0,0,0,.45,1.47l.33.44c-.16,0-.15-.1-.26-.2a2.71,2.71,0,0,1-.38-.51c-.07-.11-.09-.22-.2-.26s0,.2.07.32a8.07,8.07,0,0,0,.61.85c-.45.14-.5-.44-.73-.82-.06-.09-.07-.17-.13-.28s0,0,0-.06,0-.07-.09-.23-.2-.42-.39-.42a3.76,3.76,0,0,0,.11.76c0,.12,0,.25.08.38s.1.22.08.33a1.26,1.26,0,0,1-.48-.42c-.1-.18-.17-.56-.39-.54a5.53,5.53,0,0,0,.33.85c-.1-.09-.14-.09-.32-.05a.73.73,0,0,0,.2.5c.07.09.07.11.14.21a1,1,0,0,1,.16.24,1.73,1.73,0,0,1-.51-.18c-.11-.06,0-.08-.13,0s-.05,0,0,.11a.27.27,0,0,0,.06.1,5.79,5.79,0,0,0,1.43.88c0-.17-.14-.18-.49-.36.25-.14.65.22.95-.1,0-.15,0,0,0-.19s0,.06,0-.07-.72-.07-.91-.42a5,5,0,0,0,1,.26c.29,0,.47-.59.8-.4-.07.09-.16.08-.26.11.08.44.52.21.63.13.35-.28.09-.37.15-.78.2-.07.09.09.4-.26.16,0,.12.16.4,0,.48-.26.32-1.19.22-1.64-.05-.21-.06-.23-.18-.34S13.2,8,13,8a5.39,5.39,0,0,1,.14.6c-.13,0-.11-.07-.17-.2a1.33,1.33,0,0,0-.51-.58,3.7,3.7,0,0,1,.37,1.34c0,.24.07,1.12-.13,1.29h0l-.16.14Z"/><path class="cls-1" d="M21.85,17.56a1,1,0,0,1,.09-.26c.09-.14.54-.23.6.12a.89.89,0,0,1-.69.14Zm-.34-.1c.07-.1.12-.17.26-.18a.34.34,0,0,1-.09.28Zm-.14-.35a.42.42,0,0,1,.25-.06.24.24,0,0,1-.24.2Zm1.34.11a.35.35,0,0,1-.27-.19l0-.05C22.67,17.09,22.68,17.11,22.71,17.22Zm0-.45c.09.06.11.06.08.2s-.11,0-.18,0l.1-.15Zm.25.35a2.35,2.35,0,0,0,0-.46.33.33,0,0,1,.25.13l-.09.19c0,.12,0,.11-.16.14Zm-2.6.87c0,.06,0,0,.06.07s0,0,.06.08,0,0,0,0,0,0,0-.05l.05-.05.4-.2a.48.48,0,0,1-.37.34l-.09,0h0c0,.13.12.11,0,.14s0,0-.11,0a2.45,2.45,0,0,0-.16.62v0l.05-.14c.07-.16,0-.09.1-.12V19c.06-.15,0-.35.08-.51s.23-.14.37-.23S21,18,21.24,18c.41-.05.4.39,1.48-.16.71-.36.42-.49.65-.59a1,1,0,0,1,.05.35c0,.13-.11.19-.18.25-.44.36-.79.35-1.36.77-.08.05-.21.16-.19.25a.76.76,0,0,0,.73.2c.13-.06,0,0,.12-.06l.12.13c.07-.18,0-.48.11-.71s1.22-.4,1-1.14a.53.53,0,0,0-.18-.25c-.15.05,0,.07-.19.08s0-.06,0-.17c.22-.06.29.19.53.06s.13-.22.17-.46c-.25-.32-.24-.12-.61-.23s-1.13-1-2.05-.18a2.55,2.55,0,0,0-.6.66c-.21.4,0,1-.44,1.24Z"/><path class="cls-1" d="M12.27,17.36c-.07-.18-.24-.38.26-.5a.54.54,0,0,1,.17.38,1.09,1.09,0,0,1-.43.12ZM11.44,17c0-.16.05-.24.21-.31.19.1-.06.13.4.26v.32a2.23,2.23,0,0,1-.61-.27Zm1.5-.05a.54.54,0,0,1-.15.15.62.62,0,0,1-.21-.45c.16,0,.08.06.18.13s.08,0,.18.17Zm-1.69-.32a.88.88,0,0,0,.35-.06c0,.06-.18.23-.3.24Zm.92-.27c.06,0,0,0,.07,0,0,.23-.24.16-.16,0Zm-2,.33c.24,0,.19,0,.34-.06.23.14.18.08.48.1a1.6,1.6,0,0,0,.93.94,1.28,1.28,0,0,1,.34.14.63.63,0,0,0,.38.09,1.2,1.2,0,0,1,.44,0c.18.1,0,.09.32.15a6,6,0,0,0,0,.74h.15c.05-.16-.05-.3,0-.55a3.58,3.58,0,0,0-.09-1.18c0-.14-.12-.38-.13-.5.3.13.33.1.37.52h0l0,0c.05,0,0,0,.07,0a1.51,1.51,0,0,0,.06.36s0,0,0,0,0,0,0,0a2,2,0,0,0-.06-.78c.2-.17.58-.19.29-.42s-.43-.18-.62-.3a1.77,1.77,0,0,0-.56-.36c-.41-.17-.68-.56-1.37-.26-.31.13-.37.12-.57.35a2.44,2.44,0,0,1-.22.23c-.19.16,0,.15-.19.29s-.11.06-.22.21,0,.06-.11.12-.09,0-.11.13Z"/><path class="cls-1" d="M24.86,25.37c.05-.28.72-.68.48-.29A.46.46,0,0,1,24.86,25.37Zm1.7-2.57v-.21c.17,0,.5.55.53.71-.16-.11-.2-.28-.35-.41S26.68,22.85,26.56,22.8Zm-.93,2.49a.82.82,0,0,1,.22.5,1.14,1.14,0,0,0,.16.52,4.67,4.67,0,0,0,.07-.94c0-.28-.09-.23-.15-.4a.36.36,0,0,1,.15-.35,6.93,6.93,0,0,1,.68,1.28,3.53,3.53,0,0,0-.57-1.63,2.72,2.72,0,0,1,0-.69c.08,0,.09,0,.18.18a8.66,8.66,0,0,1,.73,1.91c.09.38.2.61.31,1.19,0,.18.18,1.23.21,1.28a9.38,9.38,0,0,0-.29-2.21l-.17-.69a4.74,4.74,0,0,0-.76-1.83c-.23-.23-.18-.37,0-.62.15,0,.16.13.24.28a7.15,7.15,0,0,1,.59,1,4.57,4.57,0,0,1,.26.79l.17.75c.05.1,0,.06.08.08a5.82,5.82,0,0,0-.18-1.21c.05,0,0,0,0,0h.07c0-.19-.05-.19,0-.34s0-.24,0-.36a1.86,1.86,0,0,0-.47-1.07c-.27-.37-.24-.18-.4-.36.1-.11.17-.05.28-.23.2-.33-.22-.32-.33-.29s-.06,0-.16.13a3.12,3.12,0,0,0-.55.49c-.46.65-.25,1-.37,1.25s-.08,0-.09.14.11.05-.18.58-.2.32-.62.71a.83.83,0,0,0-.11.15c-.18.39.48.31.62.24s.18-.19.33-.23Z"/><path class="cls-1" d="M6,16.87c.16.08.7-.13.88-.2l.42-.19c.17-.07.22-.16.42-.21a3.44,3.44,0,0,1-1.09.91,3,3,0,0,0-.44.21c.17.16.68-.17.92-.2-.08.27-.62.45-.72.62.19.08.8-.26,1-.4s.13-.18.3-.18c.09.21,0,.24-.11.34a3.89,3.89,0,0,1-.71.56c-.11.06-.1,0-.16.12.21.08.32,0,.52,0-.08.16-.3.27-.49.4s-.13.07-.15.14a3.48,3.48,0,0,0,1.09-.48,1.77,1.77,0,0,0,.17-.14c.16-.14.13-.2.4-.28a1.46,1.46,0,0,1-.39.61,8.49,8.49,0,0,1-1,.93,5.3,5.3,0,0,0-.57.42,1.37,1.37,0,0,0,.78-.4c.11-.09.24-.16.35-.26s.2-.24.32-.25c0,.28-.34.47-.38.63s0,.07,0,.15,0,.06,0,.12c.27-.1.25-.2.43-.4a2.12,2.12,0,0,0,.38-.52,6,6,0,0,0,.44-1.29c-.27,0-.09.06-.28.16a.56.56,0,0,1,0-.29c0-.12,0-.24,0-.35a1.91,1.91,0,0,1,.09-.64c.05-.14.07-.11,0-.27-.08-.42.19-.49.14-.81-.38,0-.54.28-.87.59A6.44,6.44,0,0,1,6,16.87Z"/><path class="cls-1" d="M16,8.2a1.45,1.45,0,0,1,.08.88c-.11,0-.14-.06-.17-.39A1,1,0,0,1,16,8.2Zm.55,1.36c-.19-.14-.08-.37-.05-.61a4.2,4.2,0,0,1,0-.71c-.12-.08-.12,0-.24-.22a.48.48,0,0,0-.09-.13c-.07-.1,0-.08-.13-.14a.65.65,0,0,1-.11.22,1.15,1.15,0,0,0,0,1.29c.17.22,0,.26,0,.53l.18,0s0,0,0,0c0,.35-.08.2-.05.5.13.09.19,0,.31.1a.88.88,0,0,1-.12.15c-.06.06-.12.07-.1.15s0,.13.25,0,.21-.55.5-.5a.67.67,0,0,1,0,.28c0,.11,0,.2-.05.31a2.53,2.53,0,0,0,0,.62.6.6,0,0,0,.15-.35c0-.15,0-.32.1-.43.11,0,.23.61.29.73.07-.09,0-.14,0-.29a.73.73,0,0,1,.08.33c0,.24.16.75.41.85a5.06,5.06,0,0,0-.22-.53,3.94,3.94,0,0,1-.2-1.31c0-.26,0-.48,0-.7-.15.2,0,.66-.19.77-.21-.36-.06-1.07-.07-1.51,0-.26,0-.51-.06-.8A1.63,1.63,0,0,0,17,7.42c-.05.43.08,1.14-.14,1.11-.07-.18-.09-2.08-.15-2.19S16.65,7.88,16.65,8s-.06,1.38-.1,1.51l0,.07v0Z"/><path class="cls-2" d="M15,23.28a1.76,1.76,0,0,1,1.15.67c.19.24.12.45.13.79s-.15.64-.11.76a.65.65,0,0,0,.41.27,4.43,4.43,0,0,1,.1-1.34c.15-.17.33,0,.33.27s0,.51,0,.72c.13,0,.35-.16.35-.16.06-.18-.1-.54.06-.86a1.94,1.94,0,0,1,.48-.58l.23-.18c.25-.17.58-.28.37-.51s-1.15.49-2,.2a7.13,7.13,0,0,0-.69-.29.67.67,0,0,0-.75.24Z"/><path class="cls-1" d="M13.8,8.2c-.2-.09-.21-.24-.34-.3a6.32,6.32,0,0,1,.35.94,7.91,7.91,0,0,1,.2,1.1c.12,0,0,0,.23-.19s.1-.53,0-.89c.07,0,0,0,.05.07l.18.33a4.5,4.5,0,0,0,.2.51c.19-.07.28-.37.33-.49v0c.2.2.22.57.57.57a2.61,2.61,0,0,0-.2-.32,2.46,2.46,0,0,1-.19-.32l.1-.08c.11.08.21.36.35.31s-.13-.22-.21-.53,0-.62,0-.7c-.21,0-.11.31-.22.46C15,8.48,15,8,14.67,7.54c-.09-.1-.13-.27-.26-.3a6.75,6.75,0,0,0,0,.9c-.25-.09-.29-.51-.49-.78s0-.19-.21-.23c-.22.33,0,.78.09,1.07Z"/><path class="cls-1" d="M18.3,12.27c.09-.09.11,0,.27,0,.34,0,.91.09,1-.1a4.17,4.17,0,0,0-.9-.12c0-.33.12-.41.06-.53a.69.69,0,0,0-.12.3l-.08.11a4.32,4.32,0,0,1-.42-1.21A2.55,2.55,0,0,1,18,9.28a3.15,3.15,0,0,1,.24-.89A8.21,8.21,0,0,1,19.87,5.7c-.25,0-.55.31-.68.48l-.08.09h0A8.65,8.65,0,0,0,18,8.47a3.74,3.74,0,0,0-.26,2l.1.77c0,.19,0,.11.05.26s.15.3.21.39.19.14.25.36Z"/><path class="cls-1" d="M9.47,12.85c-.21.11-1-.22-1.19-.36s-.23-.18-.35-.12c.15.1.3.15.45.25s.1.1.19.16a2,2,0,0,0,.77.28c.26,0,.48-.06.64.08,0,.12-.09.14-.21.22a1.84,1.84,0,0,1-1.14.2,2.57,2.57,0,0,1-1.19-.17c-.1-.06-.14-.15-.23-.18s0,.13-.07.22c-.56-.09-.74-.89-1.34-1.06-.16,0-.5-.13-.67-.16.13.21.53.09.91.46l.33.33c.24.26.25.44.75.62l.52.19a5.61,5.61,0,0,0,1.24.13c.18-.09,0,0,.14-.1a1.66,1.66,0,0,1,.22,0,1.36,1.36,0,0,0,.42-.09L10,13.5a.72.72,0,0,0,.18-.33c-.07-.12-.14-.16-.17-.28.2-.05.25,0,.36-.07s.06-.06-.27-.12a2.25,2.25,0,0,1-1-.24l-.55-.25A5.34,5.34,0,0,0,8,11.94a2.78,2.78,0,0,0,.87.6c.13.06.1.07.19.13s.31.1.44.18Z"/><path class="cls-1" d="M18.92,11.48l0-.19c.11,0,.06,0,.15-.06a3,3,0,0,1,0-1.77L19,9.52l-.11.24c-.05.2,0,.26-.12.32a.82.82,0,0,1,0-.44l-.06,0c-.07,0,0,0-.06,0a3.44,3.44,0,0,1,.87-1.8c.37-.39.61-.82.89-1.11s.16-.22.26-.39a1.18,1.18,0,0,0-.71.48l-.13.12a7.57,7.57,0,0,0-.86,1.14,3.47,3.47,0,0,0-.18.33A2.72,2.72,0,0,0,18.39,10c.06.44.19.26.24.49a1.81,1.81,0,0,1,0,.23C18.71,11,18.71,11.42,18.92,11.48Z"/><path class="cls-2" d="M28.14,8c0,.19,0,.08.11.14s0,.05.12.17a2.87,2.87,0,0,0,.5.3c.1,0,.07,0,.17.11a2.77,2.77,0,0,1,.34.2,2.31,2.31,0,0,1,.69.94,2,2,0,0,1,.19,1.37L30,12c-.13.22-.15.37-.35.72-.08.13-.13.23-.21.34s-.18.18-.25.33l0,0a.39.39,0,0,0,.26,0,5.55,5.55,0,0,0,.45-.67c.06-.13.12-.22.18-.35a2.71,2.71,0,0,0,.21-.37,4.51,4.51,0,0,0,.14-2,4.25,4.25,0,0,0-.57-1.07l-.94-.75c-.14-.09-.63-.37-.78-.3Z"/><path class="cls-2" d="M9.51,45.4c.21,0,.39-.42.49-.6.51-1,.28-.8.37-1.73a3.7,3.7,0,0,1,.06-.48c0-.17.08-.26.11-.41-.16.06-.25.29-.33.41s-.2.2-.28.42-.1.34-.16.56-.07.17-.1.26-.05.12-.13.17c0,.23,0,.49,0,.73s-.06.44-.05.67Z"/><path class="cls-1" d="M10.62,14.62c.09-.09,0-.11.47-.46a1.28,1.28,0,0,1,.6-.31,1.63,1.63,0,0,1,1.48.18,1.28,1.28,0,0,1,.38.54c.11.19.25.37.36.55s.31.6.67.74c.14.05.28.05.24-.14s-.31-.4-.39-.54a3.11,3.11,0,0,0-.37-.55c-.36-.47-.28-.68-1-.91-.12,0-.23-.1-.32-.12a3.32,3.32,0,0,0-.46,0,2,2,0,0,0-1.07.29c-.26.19-.71.44-.62.75Z"/><path class="cls-2" d="M3,13.18a.54.54,0,0,0,.09.39c.11.17.06.19.14.37s.27.46.35.69a.76.76,0,0,0,.18.33,3.47,3.47,0,0,0,.41.64c.09.09,0,0,.12.14s0,.09.12.15a.66.66,0,0,0,.36-.24c-.08-.15-.17-.05-.45-.55a2.87,2.87,0,0,1-.41-.58A10.45,10.45,0,0,1,3.41,13a.86.86,0,0,0-.39.15Z"/><path class="cls-1" d="M20.06,16.29c.08-.06,0,0,.06-.06l.26-.4a3.08,3.08,0,0,1,.41-.36,2.07,2.07,0,0,1,1-.53,1.3,1.3,0,0,1,.68,0c.29.18.51.56.87.65.12,0,.74.15.49-.13-.08-.08-.4-.1-.55-.22s-.12-.12-.19-.18-.13-.13-.2-.19a1.64,1.64,0,0,0-1.3-.16,2.29,2.29,0,0,0-1.27,1,1.27,1.27,0,0,0-.28.54Z"/><path class="cls-1" d="M6.09,16.31c.21.05.41-.06.71-.17a3.9,3.9,0,0,0,.9-.57l.52-.43a.56.56,0,0,1,.15-.1l.14-.13c-.08-.09,0-.06-.15-.07s0,0-.17-.08a7.52,7.52,0,0,1-1.85,1.33c-.14.06-.18.07-.25.22Z"/><path class="cls-2" d="M4.08,16.1c0-.26-.19-.12-.43-.6a4.1,4.1,0,0,1-.36-.65c-.09-.29-.21-.43-.31-.71l-.17-.58c0-.16,0-.11-.1-.19-.17.09-.09.24,0,.4A6.21,6.21,0,0,0,3.1,15c.15.27.26.49.41.71C3.82,16.16,3.84,16.25,4.08,16.1Z"/><path class="cls-1" d="M23.14,31.08l-.08.52c-.21,0-.22-.15-.32-.06s0,.34,0,.57,0,.42,0,.65c.33-.11.36-.34.51-.79.05-.14.31-1-.1-.89Z"/><path class="cls-1" d="M11.17,23.8c.15,0,.16-.12.19-.27.16-.79-.14-.46.4-1.57a3.73,3.73,0,0,1,.16-.35,5.19,5.19,0,0,0,.3-.68c-.26,0-.64,1.08-.73,1.27a1.38,1.38,0,0,0-.22.75c0,.29-.11.66-.1.85Z"/><path class="cls-1" d="M13.09,18.14,12.35,18c-.54-.11-.7,0-1.34-.47a.77.77,0,0,1-.22-.22c-.14-.2,0-.27-.16-.34-.12.22.1.5.26.61a2.32,2.32,0,0,0,1.35.54,2.38,2.38,0,0,0,.85.06Z"/><path class="cls-1" d="M22.24,33.12c.36-.09.55-1.23.1-1.22-.09.22,0,.4-.06.64A1.06,1.06,0,0,0,22.24,33.12Z"/><path class="cls-2" d="M8.51,25.68a.44.44,0,0,0,.28,0c.05-.24-.12-.25-.18-.62s-.14-.48-.33-.52a3.63,3.63,0,0,0,.23,1.16Z"/><path class="cls-1" d="M17.64,12.81c-.09.15-.25,1.7,0,1.45a4.89,4.89,0,0,0,.17-1.16c0-.2,0-.25-.16-.29Z"/><path class="cls-2" d="M9.54,4.27c.28.05.47,0,.8,0s.54.15.78,0A1.94,1.94,0,0,0,10.31,4c-.23-.06-.19-.11-.41,0S9.6,4.17,9.54,4.27Z"/><path class="cls-2" d="M11.68,3.63l.87.46a2.84,2.84,0,0,0,.94.4,4.71,4.71,0,0,0-1.67-.88l-.14,0Z"/><path class="cls-2" d="M28.83,15a1.6,1.6,0,0,0-.42-.27c-.23-.13-.2-.26-.49-.24-.08-.15-.14-.13-.44-.18a1.8,1.8,0,0,0,1.35.69Z"/><path class="cls-1" d="M4.73,16.55a2.69,2.69,0,0,0,1.53-.73,3.63,3.63,0,0,1,.76-.6c-.39,0-.35.18-.84.49a5.92,5.92,0,0,1-.82.58A5.59,5.59,0,0,0,4.73,16.55Z"/><path class="cls-2" d="M9.43,5.67a1.5,1.5,0,0,0,.39.08c.44.09.73.38,1.09.2A1.6,1.6,0,0,0,9.43,5.67Z"/><path class="cls-1" d="M10.56,12.63c0-.19-.09-.08-.43-.2-.57-.21-1.1-.75-1.24-.75a3.89,3.89,0,0,0,.69.63C9.74,12.45,10.26,12.8,10.56,12.63Z"/><path class="cls-1" d="M27.11,28.09c-.3-.54-.72-.6-1.12-.79-.25-.12-.19-.26-.37-.32,0,.58.55.45,1.12.85l.19.12c.07.05.12.12.18.14Z"/><path class="cls-1" d="M23.81,34c.3-.13-.1-.6.4-1.3a.7.7,0,0,0,.22-.35c-.21.07-.45.44-.54.63a1.68,1.68,0,0,0-.08,1Z"/><path class="cls-1" d="M23,35a2.22,2.22,0,0,0,.67-1.54c-.1,0-.29.61-.34.74A6.38,6.38,0,0,0,23,35Z"/><path class="cls-1" d="M14.26,18.64c-.26,0-.25-.19-.36.09l.12.16h0L14,19c-.09.09,0,0-.09.13l.29-.11c-.06.24-.38.42-.43.57.17,0,.37-.29.5-.47s0-.19.13-.38.13-.14.1-.36c0,0,0,0,0,.06a.22.22,0,0,0-.05.08.61.61,0,0,1-.09.16Z"/><path class="cls-2" d="M5.22,13.93c.13.14.18.07.35.17a1.07,1.07,0,0,0,.34.16c.32.08.48.35.68.15-.09-.06-.08,0-.16-.06-.38-.16-.82-.62-1.21-.42Z"/><path class="cls-1" d="M13.41,20.24c.2,0,.31-.17.4-.24s0,0,.07-.05c-.09.41-.65.7-.66,1.11a4.55,4.55,0,0,0,.56-.73.88.88,0,0,0,.18-.46c0-.19.23-.3.17-.43l-.16.22c-.05.08-.11.12-.17.2-.29.35-.31.2-.39.38Z"/><path class="cls-1" d="M24,11.2c.2.2.9,0,1-.65-.15,0-.27.24-.46.38S24.11,11,24,11.2Z"/><path class="cls-2" d="M25.59,19.14c.06.19.25,0,.61.45a4.62,4.62,0,0,0,.47.56,1.5,1.5,0,0,0-.37-.72,1.63,1.63,0,0,0-.34-.21c-.38-.18-.26-.15-.37-.08Z"/><path class="cls-2" d="M21.85,17.56a.89.89,0,0,0,.69-.14c-.06-.35-.51-.26-.6-.12a1,1,0,0,0-.09.26Z"/><path class="cls-1" d="M24.69,33.93c.22-.08.42-.66.49-.88l.06-.24c0-.11,0-.05,0-.11A3.31,3.31,0,0,0,24.69,33.93Z"/><path class="cls-2" d="M32.32,17.18a2.1,2.1,0,0,0-.43-.49c-.07-.06-.15-.15-.23-.21s-.13-.16-.28-.21l.13.33a2,2,0,0,0,.81.58Z"/><path class="cls-2" d="M11.44,17a2.23,2.23,0,0,0,.61.27V17c-.46-.13-.21-.16-.4-.26-.16.07-.17.15-.21.31Z"/><path class="cls-1" d="M8.21,36.56a4.16,4.16,0,0,0-.29-1.79A9.7,9.7,0,0,0,8.21,36.56Z"/><path class="cls-2" d="M12.27,17.36a1.09,1.09,0,0,0,.43-.12.54.54,0,0,0-.17-.38c-.5.12-.33.32-.26.5Z"/><path class="cls-2" d="M2.54,12.42a.52.52,0,0,0,.3-.3,2.89,2.89,0,0,0,0-.29c0-.15,0-.16-.17-.19a1.36,1.36,0,0,0-.17.78Z"/><path class="cls-1" d="M15,22.19a2.14,2.14,0,0,1-.15-.38c0-.25,0-.33,0-.5-.08,0-.07-.07-.21.16s0,.45.11.61.1.16.23.11Z"/><path class="cls-2" d="M21.28,33.7s.22-.52.09-.71c-.14,0-.07,0-.19,0L21,33a2.49,2.49,0,0,0,.16.33,3.67,3.67,0,0,0,.14.37Z"/><path class="cls-1" d="M11.33,25.22c0,.13-.33.58-.18.74.25,0,0-.4.25-.56s.19,0,.31-.06,0,0,.12-.07.09,0,.16-.06c-.12-.09-.14,0-.28,0a1.61,1.61,0,0,1-.38,0Z"/><path class="cls-2" d="M2.88,11.22a1.48,1.48,0,0,0,.56-.28.38.38,0,0,0-.22-.1.53.53,0,0,0,.24-.42c-.22.06-.19.19-.32.37A1,1,0,0,0,3,11l-.12.22Z"/><path class="cls-2" d="M30.92,14.75c-.1-.26-.93-.48-1-.41S30.8,14.74,30.92,14.75Z"/><path class="cls-1" d="M7.31,14.1c0-.29-.88-.68-1.16-.91a1.35,1.35,0,0,0-.41-.28c0,.11,0,0,.06.1.22.24,1,.64,1.33,1a1.94,1.94,0,0,1,.18.14Z"/><path class="cls-1" d="M12.13,26.89a.87.87,0,0,0,.51.15.28.28,0,0,0-.18-.39c-.16,0-.27.11-.33.24Z"/><path class="cls-2" d="M14.47,37.55a.59.59,0,0,0,.24-.34.55.55,0,0,0,0-.22c0-.14,0-.18-.09-.26s-.1.17-.12.34a1.92,1.92,0,0,0,0,.48Z"/><path class="cls-2" d="M17,37.61a3.77,3.77,0,0,0,.8-1.52c-.16.06-.33.77-.59,1.12a2.15,2.15,0,0,0-.21.4Z"/><path class="cls-2" d="M16,8.2a1,1,0,0,0-.09.49c0,.33.06.36.17.39A1.45,1.45,0,0,0,16,8.2Z"/><path class="cls-2" d="M33.06,17.79a3.84,3.84,0,0,0-.42-.63,1.84,1.84,0,0,0-.26-.29c-.07-.07-.08,0-.16-.13s0-.09-.18-.12c0,.13,0,.08.12.16a7,7,0,0,1,.75.9c.08.11,0,.12.15.11Z"/><path class="cls-2" d="M2.91,22a.48.48,0,0,0,.2-.14l.35-.36c.07-.07.15-.1.1-.25-.2.08-.36.32-.53.49s-.07.13-.12.26Z"/><path class="cls-1" d="M11.15,25.14c.24.06.65-.27.57-.48-.18-.06-.05.05-.47.32C11.17,25,11.15,25,11.15,25.14Z"/><path class="cls-2" d="M28.07,9.81c.34-.09.37-.39.48-.59s.1-.08.11-.29l-.18,0a.89.89,0,0,1-.12.53l-.29.4Z"/><path class="cls-1" d="M15.87,22.1c0-.15-.12-.27-.16-.41s0-.37,0-.48c-.25.27-.14.85.19.89Z"/><path class="cls-1" d="M14.69,22.19c0-.13-.07-.21-.08-.63,0-.11,0-.12-.07-.2a.5.5,0,0,0-.09.48A.56.56,0,0,0,14.69,22.19Z"/><path class="cls-1" d="M15.17,21.4a1.46,1.46,0,0,0,.14.75.53.53,0,0,1,.18,0,1.48,1.48,0,0,1-.18-1s0,0,0,0l-.12.15Z"/><path class="cls-2" d="M24.86,25.37a.46.46,0,0,0,.48-.29C25.58,24.69,24.91,25.09,24.86,25.37Z"/><path class="cls-1" d="M20.52,20.38c0-.16-.05-.25-.06-.44a1.21,1.21,0,0,0,0-.33c-.06-.16,0-.05-.07-.1s-.06.07-.05.21S20.24,20.26,20.52,20.38Z"/><path class="cls-2" d="M7,6.71a4.79,4.79,0,0,0,.58-.22,1.8,1.8,0,0,0,.54-.25,2.58,2.58,0,0,0-.9.3C7,6.67,7.06,6.63,7,6.71Z"/><path class="cls-2" d="M16.34,37.62v.2c.13,0,.17-.1.27-.29s.16-.31.1-.42C16.42,37.47,16.54,37.46,16.34,37.62Z"/><path class="cls-2" d="M25.48,15.79a1,1,0,0,0-.36-.17.33.33,0,0,0,.26.3,3.74,3.74,0,0,0,.45.12l0,0a.76.76,0,0,0-.33-.23Z"/><path class="cls-2" d="M11,35.82c.13-.08.2-.34.26-.49a1.87,1.87,0,0,0,.08-.57A5.66,5.66,0,0,0,11,35.82Z"/><path class="cls-2" d="M2.21,22.63a2.46,2.46,0,0,0,.43-.41c.13-.11.11,0,.11-.22-.18,0-.56.5-.54.63Z"/><path class="cls-1" d="M19.46,22.27c.06-.07.05-.07.08-.19a1.7,1.7,0,0,0,0-.22.63.63,0,0,0,0-.3.08.08,0,0,1,0,0c0-.07,0,0-.05-.06a1.64,1.64,0,0,0,0,.38.85.85,0,0,0,0,.43Z"/><path class="cls-1" d="M19.53,23a1.5,1.5,0,0,0,.15-.36,1.1,1.1,0,0,0,.05-.48,1.62,1.62,0,0,0-.24.71C19.49,23.06,19.5,23,19.53,23Z"/><path class="cls-2" d="M22.83,5.79c.47-.15.47-.26.5-.55-.17.07-.26.28-.39.4S22.86,5.64,22.83,5.79Z"/><path class="cls-2" d="M27.19,8.09c.11,0,.23,0,.28,0a.92.92,0,0,0,.14-.26C27.34,7.81,27.19,7.76,27.19,8.09Z"/><path class="cls-2" d="M29.53,10c-.05-.25,0,0-.13-.23s-.07-.2-.12-.28a.83.83,0,0,0-.49-.41c0,.17.16.2.38.45a2.08,2.08,0,0,1,.36.47Z"/><path class="cls-2" d="M4.35,9.72c-.14.13-.32.1-.42.23a1.24,1.24,0,0,0,.74-.25l-.38-.12C4.35,9.64,4.34,9.63,4.35,9.72Z"/><path class="cls-2" d="M26.75,22.89c.15.13.19.3.35.41,0-.16-.36-.7-.53-.71v.21C26.68,22.85,26.65,22.8,26.75,22.89Z"/><path class="cls-1" d="M21.85,23.37s0,0,0-.09a1,1,0,0,0,0-.17.9.9,0,0,0-.06-.22c0-.08-.06-.13-.09-.2l-.14-.19a.72.72,0,0,0,.12.41,1.66,1.66,0,0,1,.06.21.67.67,0,0,0,.08.25Z"/><path class="cls-2" d="M16.93,37.53a2.54,2.54,0,0,0,.47-.87c-.26.08-.25.36-.37.65A2.35,2.35,0,0,1,16.93,37.53Z"/><path class="cls-2" d="M6.93,35.78c0-.19.05-.54-.12-.69C6.73,35.25,6.8,35.72,6.93,35.78Z"/><path class="cls-1" d="M12.87,26.61l.13.23c.35,0,.15-.29.08-.35A.24.24,0,0,0,12.87,26.61Z"/><path class="cls-2" d="M12.79,17.13a.54.54,0,0,0,.15-.15c-.1-.2,0-.05-.17-.17s0-.12-.19-.13a.62.62,0,0,0,.21.45Z"/><path class="cls-2" d="M22,10.59c.11.18.27,0,.36-.07a1.07,1.07,0,0,0,.27-.29c-.19,0-.2.11-.33.2s-.25.11-.3.16Z"/><path class="cls-1" d="M11.46,26.67l.14.13a.46.46,0,0,0,.15-.42.32.32,0,0,0-.29.29Z"/><path class="cls-2" d="M11.71,5.86c0-.12-.27-.41-.45-.46,0,.15.1.18.19.3s.11.15.18.17S11.67,5.87,11.71,5.86Z"/><path class="cls-1" d="M16.7,31.1c.09-.09.09-.12.09-.29s0-.18-.12-.28A.64.64,0,0,0,16.7,31.1Z"/><path class="cls-2" d="M23,17.12c.13,0,.11,0,.16-.14l.09-.19a.33.33,0,0,0-.25-.13,2.35,2.35,0,0,1,0,.46Z"/><path class="cls-1" d="M19.29,23.42a2.7,2.7,0,0,0-.16-.41,1.26,1.26,0,0,0-.36-.27c0,.17-.05,0,.27.32.13.12.06.31.25.36Z"/><path class="cls-2" d="M11.24,4.55c.11.07.26.1.39.17a1.54,1.54,0,0,0,.38.17C11.93,4.73,11.46,4.45,11.24,4.55Z"/><path class="cls-1" d="M15.82,29.69c0,.21.09.09.23.21s0,.17.24.17a.66.66,0,0,0-.36-.4C15.79,29.65,15.85,29.68,15.82,29.69Z"/><path class="cls-2" d="M32.72,22.41c0-.23-.14-.35-.21-.49s0-.09-.12-.15A.91.91,0,0,0,32.72,22.41Z"/><path class="cls-2" d="M21.75,29.58l.06-.14a1.09,1.09,0,0,0-.43-.18c.05.1.07.09.15.18s.09.11.22.14Z"/><path class="cls-2" d="M8.81,41.53s0,0,.07,0a.5.5,0,0,0,.17-.37c-.15,0-.14,0-.2.15l0,.19a.24.24,0,0,0,0,.07Z"/><path class="cls-2" d="M8,38.6v-.12a.35.35,0,0,0-.26.44c.09-.05.09-.06.14-.16s0-.11.11-.16Z"/><path class="cls-1" d="M17.3,30.36l.07.1.23-.07a.2.2,0,0,0,0-.17.31.31,0,0,0-.27.14Z"/><path class="cls-1" d="M20.35,22.22c.11-.11,0-.4,0-.52,0,0-.07-.06,0,.27A.61.61,0,0,0,20.35,22.22Z"/><path class="cls-2" d="M21.32,31.63c0,.16,0,.18.05.27s.14-.12.17-.3Z"/><path class="cls-1" d="M21.9,24.65a.33.33,0,0,0,.11-.42C21.87,24.29,21.89,24.51,21.9,24.65Z"/><path class="cls-2" d="M21.51,17.46l.17.1a.34.34,0,0,0,.09-.28C21.63,17.29,21.58,17.36,21.51,17.46Z"/><path class="cls-1" d="M11.11,24.89c.17.07.3-.16.25-.28s-.07,0-.15.11-.1,0-.1.17Z"/><path class="cls-1" d="M17,30.71c0-.16.07-.28-.15-.29C16.87,30.63,16.86,30.68,17,30.71Z"/><path class="cls-2" d="M11.25,16.66l.05.18c.12,0,.26-.18.3-.24A.88.88,0,0,1,11.25,16.66Z"/><path class="cls-2" d="M3.4,11.72a1,1,0,0,0,.39-.2l-.25,0c-.13,0-.13,0-.14.18Z"/><path class="cls-1" d="M17.18,30.57a.21.21,0,0,0,0-.33A.24.24,0,0,0,17.18,30.57Z"/><path class="cls-2" d="M21.37,17.11v.14a.24.24,0,0,0,.24-.2A.42.42,0,0,0,21.37,17.11Z"/><path class="cls-2" d="M16.38,37.51c.06-.1.13-.21.07-.31s-.1,0-.12.15,0,.14.05.16Z"/><path class="cls-2" d="M22.44,17a.35.35,0,0,0,.27.19c0-.11,0-.13-.23-.24Z"/><path class="cls-1" d="M16.25,29.51a.32.32,0,0,0,.3,0c0-.06,0-.07-.17-.11s-.11,0-.13.07Z"/><path class="cls-1" d="M13.21,28c0-.08,0-.06,0-.19s-.15,0-.17.07,0,.1.12.12Z"/><path class="cls-2" d="M22.64,16.92c.07,0,.07.06.18,0s0-.14-.08-.2l-.1.15Z"/><path class="cls-2" d="M12.08,16.4c-.08.18.15.25.16,0-.07,0,0,0-.07,0Z"/><path class="cls-2" d="M20.13,38.91c.15.06.17,0,.19-.15A.29.29,0,0,0,20.13,38.91Z"/><path class="cls-2" d="M9.79,27.17c.12,0,.12,0,.13-.13S9.8,27.08,9.79,27.17Z"/><path class="cls-1" d="M13.46,26.5l.06-.14C13.32,26.35,13.39,26.44,13.46,26.5Z"/></g></g></g></svg>