<svg xmlns="http://www.w3.org/2000/svg" viewBox="0 0 39.02 35.39"><defs><style>.cls-1{fill:#fff;}.cls-1,.cls-2{fill-rule:evenodd;}.cls-2{fill:#010101;}</style></defs><g id="Слой_2" data-name="Слой 2"><g id="Слой_1-2" data-name="Слой 1"><g id="_3015518057840" data-name=" 3015518057840"><path class="cls-1" d="M27.92,14.26a3,3,0,0,1-2.42,1.38c-.77,0-.7-.3-1.15-.35-.54.34-.24,1.16-.64,1.37-.27-.29-.1-.75,0-1.08s.1-.7.25-1.11c.78-2.13,2.78-1.27,3.73-1.17A3.84,3.84,0,0,0,29,13.19c.37-.33-.17-.73.38-.88a.83.83,0,0,1,.22.89c-.11.37-.47.22-.43.75a2.25,2.25,0,0,1-.52,1.78,8.08,8.08,0,0,1-1.47.92,5.34,5.34,0,0,0-1.43,1c.08-.45.49-.68.87-.87a3.37,3.37,0,0,0,.56-.3c.19-.13.31-.27.49-.39a3.64,3.64,0,0,0,.52-.35,2.12,2.12,0,0,0,.61-1.93c-.68-.26-.63.15-.86.49ZM13.28,17.63a1.43,1.43,0,0,0-.66-.54c-1.77-1-2.9-1.25-2.75-3.15,0-.51-.33-.38-.44-.74a.86.86,0,0,1,.23-.89c.58.18-.05.6.41.91a6,6,0,0,0,1.16.09c.9-.08,3-1,3.79,1.16.15.4.09.73.25,1.12s.31.76,0,1.07c-.38-.17-.16-1.25-.64-1.36s-.37.35-1.19.34a2.66,2.66,0,0,1-2.06-1c-.54-.59-.32-.47-.59-.92-.27,0-.43-.09-.59.09a2,2,0,0,0,.25,1.43c.29.5.48.49.92.83.16.12.3.27.48.38C12.31,16.73,13.24,17,13.28,17.63Zm11-7.53a1.88,1.88,0,0,1,.88-.59c-.2-.4-.27-.21-.61-.4-.16-.75.71-.33.89.42s.34.94-.14,1.59c-.92,1.24-1.14.67-1.94,2.13.05-.67,1-1.19,1-1.91,0-.37-.25-.94-.09-1.24ZM15,12.39c-.46-.4-.61-.47-1.14-1a1.59,1.59,0,0,1-.48-1.51l.16-.4c.26-.93,1.16-.9.89-.42-.15.26-.44,0-.61.42a4.13,4.13,0,0,1,.42.22c.63.48.51.56.37,1.24a1.1,1.1,0,0,0,.19,1,7.38,7.38,0,0,1,.5.74l-.3-.28ZM5.82,3.79c.17-.52-.89-1.23-1.5-1.17-.29,0-1,.22-1.09-.16S3.71,2,4,1.91a1.84,1.84,0,0,0-1.49-.24c-2.08.89-2.13,1.5-1,3.18A4.69,4.69,0,0,1,2,6.25c.2.62.57.62.75,1.15s0,1.27.4,1.51,1-.17,1.38-.28c-.27.55-1.39,1.06-.61,2.28.68,1.07,1,.52,2.24.09a10.63,10.63,0,0,1-.49,2.41,19.33,19.33,0,0,0,.53,7.74,14,14,0,0,0,1.66,4.06c1.57,2.23,2.58,1.7,3.07,2.62.1-1.46-.46-3.2.26-4.6.39-.77.76-.75-.16-1.57-1.09-1-1.16-2.79-1.85-4,.18.25.36.27.56.69.5,1.07.38,1.61,1.23,2.63.58.7,1.13,1.15,1.87.17l.89-1a16.1,16.1,0,0,1-1.52,2.24c-.73,1-1,1-.94,2.77a7.29,7.29,0,0,0,.51,3.2,9.68,9.68,0,0,0,1.58,2.12c1.63,1.76,3.36.74,5-.46,1.2-.87.19-2.34.11-2.65-.14-.59-.48-.5-.8-1.05s-.73-.53-1-.9c.49.1.51.33,1.17.14.14-.47-.25-.44-.52-.67s-.44-.45-.74-.47c-.21.23-.17.39-.11.77-.29-.09-.35-.24-.54-.38s-.36-.19-.53-.28c-.39-.22-.68-.82,0-.79a2.24,2.24,0,0,0,.47,1l.1-.23a.81.81,0,0,1,.47-.51c.37-.19.61,0,1,.06a8.62,8.62,0,0,0,2,.5c1.24,0,2.34-.93,3.07-.54.53.28.29.47.53.72a2.25,2.25,0,0,0,.48-1c.72,0,.42.57,0,.82l-1,.62c.17-1.11-.3-.77-.86-.29-.18.15-.71.27-.48.65s.82,0,1.12-.13c-.09.36-.75.56-.95.91s-.66.48-.8,1.05c-.09.36-1.12,1.77.15,2.68,1.67,1.19,3.41,2.25,5,.36l.87-1c1.15-1.3,1.11-2.71,1.18-4.44.06-1.58-.41-1.79-1.05-2.71L26,21.18c-.14-.21-.24-.36-.38-.55s-.25-.48-.31-.55a3.64,3.64,0,0,1,.61.69c.37.4.81,1.27,1.48.92A4.18,4.18,0,0,0,29,19.34c.38-1.38.49-1.06.91-1.65-.79,1.17-.62,2.73-1.89,4s.07.85.23,2.89c.08,1.08-.19,2.26-.09,3.25.39-.71,1.08-.63,1.7-1.14,1.73-1.43,2.4-3.32,3-5.58a18,18,0,0,0,.68-5c0-3.36-.69-3.85-.65-5.08.44.16.88.36,1.3.53s.81-.29,1-.63a2.33,2.33,0,0,0-.32-2.64c1.61.67,1-.54,1.76-1.36a2.22,2.22,0,0,0,.58-1.22c.33-1.33,2-2.36.36-3.46A2.05,2.05,0,0,0,35,1.91c.32.12.89.24.72.63s-1.1-.12-1.67.18c-.36.19-.89.55-.92,1,.26.39.89.29,1.39.25-.35.8-1.75.45-2.37.55A2.37,2.37,0,0,1,33,6.36a19.81,19.81,0,0,0-2.43-1.43l-.74-.56-.07.55c-.41-.16-.81-.95-2-1.4a25.38,25.38,0,0,1-2.27-1.17c-2-1-3.58-.83-6-.82s-3.95-.15-6,.85a21,21,0,0,1-2.27,1.17,4.34,4.34,0,0,0-1.52,1l-.23.21c-.14.12,0,.1-.23.13l0-.55c-.18.09-.21.19-.35.3C8.19,5.18,6.78,5.87,6,6.35a2.87,2.87,0,0,1,.27-1.1,8.31,8.31,0,0,1,.53-.74,4.59,4.59,0,0,1-2-.18A.69.69,0,0,1,4.47,4c.43,0,1.12.12,1.35-.18Z"/><path class="cls-2" d="M15.53,32.41c-.08-.38.54-.45.83-.59s.63-.34,1-.5a9.81,9.81,0,0,0,1-.42c.51-.31.27-.43,1.08-.41s.54-.13,1.13.3a4.88,4.88,0,0,0,1,.47c.34.14.63.31.94.47.72.37,1.62.32.45,1.31a5.41,5.41,0,0,1-3.3,1.07,5.52,5.52,0,0,1-3.36-1,4.66,4.66,0,0,1-.73-.75ZM5.82,3.79c-.23.3-.92.22-1.35.18a.69.69,0,0,0,.39.36,4.59,4.59,0,0,0,2,.18,8.31,8.31,0,0,0-.53.74A2.87,2.87,0,0,0,6,6.35c.76-.48,2.17-1.17,2.84-1.68.14-.11.17-.21.35-.3l0,.55c.2,0,.09,0,.23-.13l.23-.21a4.34,4.34,0,0,1,1.52-1,21,21,0,0,0,2.27-1.17c2-1,3.52-.85,6-.85s4-.15,6,.82a25.38,25.38,0,0,0,2.27,1.17c1.21.45,1.61,1.24,2,1.4l.07-.55.74.56A19.81,19.81,0,0,1,33,6.36a2.37,2.37,0,0,0-.8-1.84c.62-.1,2,.25,2.37-.55-.5,0-1.13.14-1.39-.25,0-.45.56-.81.92-1,.57-.3,1.41.18,1.67-.18S35.35,2,35,1.91a2.05,2.05,0,0,1,2.53.31c1.65,1.1,0,2.13-.36,3.46a2.22,2.22,0,0,1-.58,1.22c-.8.82-.15,2-1.76,1.36a2.33,2.33,0,0,1,.32,2.64c-.18.34-.48.84-1,.63s-.86-.37-1.3-.53c0,1.23.69,1.72.65,5.08a18,18,0,0,1-.68,5c-.63,2.26-1.3,4.15-3,5.58-.62.51-1.31.43-1.7,1.14-.1-1,.17-2.17.09-3.25-.16-2-1.45-1.68-.23-2.89s1.1-2.82,1.89-4c-.42.59-.53.27-.91,1.65a4.18,4.18,0,0,1-1.62,2.35c-.67.35-1.11-.52-1.48-.92a3.64,3.64,0,0,0-.61-.69c.06.07.21.4.31.55s.24.34.38.55l.79,1.06c.64.92,1.11,1.13,1.05,2.71-.07,1.73,0,3.14-1.18,4.44l-.87,1c-1.61,1.89-3.35.83-5-.36-1.27-.91-.24-2.32-.15-2.68.14-.57.52-.56.8-1.06.2-.34.86-.54.95-.91-.3.12-.76.37-1.12.14s.3-.5.48-.65c.56-.48,1-.82.86.29l1-.62c.46-.25.76-.84,0-.82a2.25,2.25,0,0,1-.48,1c-.24-.25,0-.44-.53-.72-.73-.39-1.83.53-3.07.54a8.62,8.62,0,0,1-2-.5c-.38-.11-.62-.25-1-.06a.81.81,0,0,0-.47.51l-.1.23a2.24,2.24,0,0,1-.47-1c-.71,0-.42.57,0,.79.17.09.39.19.53.28s.25.29.54.38c-.06-.38-.1-.54.11-.77.3,0,.54.3.74.47s.66.2.52.67c-.66.19-.68,0-1.17-.14.23.37.72.49,1,.9s.66.46.8,1.05c.08.31,1.09,1.78-.11,2.65-1.65,1.2-3.38,2.22-5,.46a9.68,9.68,0,0,1-1.58-2.12,7.29,7.29,0,0,1-.51-3.2c-.08-1.74.21-1.76.94-2.77a16.1,16.1,0,0,0,1.52-2.24l-.89,1c-.74,1-1.29.53-1.87-.17-.85-1-.73-1.56-1.23-2.63-.2-.42-.38-.44-.56-.69.69,1.18.76,3,1.85,4,.92.82.55.8.16,1.57-.72,1.4-.16,3.14-.26,4.6-.49-.92-1.5-.39-3.07-2.62a14,14,0,0,1-1.66-4.06,19.33,19.33,0,0,1-.53-7.74A10.63,10.63,0,0,0,6.12,11c-1.24.43-1.56,1-2.24-.09-.78-1.22.34-1.73.61-2.28-.35.11-1,.57-1.38.28s-.23-1-.4-1.51S2.16,6.87,2,6.25a4.69,4.69,0,0,0-.51-1.4c-1.09-1.68-1-2.29,1-3.18A1.84,1.84,0,0,1,4,1.91c-.27.11-.81.22-.75.55s.8.18,1.09.16c.61-.06,1.67.65,1.5,1.17ZM39,3.88a2.82,2.82,0,0,0-.44-2,3.42,3.42,0,0,0-.46-.8A2,2,0,0,0,35.47.14a21.92,21.92,0,0,0-3.41,1.6c-.54.31-.94.69-1.48,1-1.49.9-2.48-.08-3.61-.68A18.67,18.67,0,0,0,23.23.83C21.14.41,20.4,1,18.62.75a12,12,0,0,0-6.2,1.16c-.62.26-1.07.61-1.63.88-1.64.82-2.46-.1-3.5-.84A21.15,21.15,0,0,0,4,.27a2.88,2.88,0,0,0-2.1-.1A4.37,4.37,0,0,0,.67,1.49C-.57,3.74.22,3.86.56,5.3a2.92,2.92,0,0,0,.89,1.62,1.23,1.23,0,0,1,.41.84C2,8.87,2.93,8.79,3,10.41c0,.89.47,1.08,1.1,1.39.79.39.8.7.81,1.72,0,.81,0,1.64-.06,2.45a10.84,10.84,0,0,0,.44,4.55,22.06,22.06,0,0,0,1.07,4c.9,2,2.05,2.26,3,3.24l1,.9a1.6,1.6,0,0,1,.32.28l1.93,1.83,1.45,1c1,.89.69,2.15,2.13,2.88a8.34,8.34,0,0,0,4.21.63c1.54-.28,2.8-.47,3.42-1.58a10.35,10.35,0,0,1,.85-1.66A9.61,9.61,0,0,1,26.1,31c1-.78,1.65-1.62,2.6-2.41.48-.39.89-.78,1.34-1.16l1.37-1.14c1.42-1.24,1.84-3.35,2.23-5.29.14-.69.36-1.32.48-2a30.3,30.3,0,0,0,0-4.86c0-.86-.12-1.67.43-2.09a8.93,8.93,0,0,1,.81-.45,1.28,1.28,0,0,0,.59-.66c.24-.73-.3-.94.82-2.34.61-.77.22-.85.52-1.33.15-.24.4-.46.57-.68.69-.94.41-.93.73-1.78A8.21,8.21,0,0,0,39,3.88Z"/><path class="cls-1" d="M15.53,32.41a4.66,4.66,0,0,0,.73.75,5.52,5.52,0,0,0,3.36,1A5.41,5.41,0,0,0,22.92,33c1.17-1,.27-.94-.45-1.31-.31-.16-.6-.33-.94-.47a4.88,4.88,0,0,1-1-.47c-.59-.43-.29-.28-1.13-.3s-.57.1-1.08.41a9.81,9.81,0,0,1-1,.42c-.34.16-.63.34-1,.5s-.91.21-.83.59Z"/><path class="cls-2" d="M12.27,13.8a.58.58,0,0,1,.41.52l-.3.17a.88.88,0,0,0,1,.11c.44-.25.31-.4.5-.86.48.33.19,1.6-1,1.39-.85-.14-1.48-1.12-1-1.5l.25.38,0,0,.09-.17Zm1,3.83c0-.63-1-.9-1.4-1.17-.18-.11-.32-.26-.48-.38-.44-.34-.63-.33-.92-.83a2,2,0,0,1-.25-1.43c.16-.18.32-.13.59-.09.27.45,0,.33.59.92a2.66,2.66,0,0,0,2.06,1c.82,0,.75-.3,1.19-.34s.26,1.19.64,1.36c.28-.31.1-.73,0-1.07s-.1-.72-.25-1.12c-.82-2.18-2.89-1.24-3.79-1.16a6,6,0,0,1-1.16-.09c-.46-.31.17-.73-.41-.91a.86.86,0,0,0-.23.89c.11.36.48.23.44.74-.15,1.9,1,2.14,2.75,3.15A1.43,1.43,0,0,1,13.28,17.63Z"/><path class="cls-2" d="M25.12,13.74c.17.47.08.63.49.86a.88.88,0,0,0,1-.11c-.13-.1-.15-.05-.3-.17a.57.57,0,0,1,.42-.52.33.33,0,0,1,.07.13l.09.21a2.24,2.24,0,0,1,.1-.26l.12-.25c.76.67-1.18,2.24-2.05,1.17-.19-.23-.29-.88,0-1.06Zm-1.41,2.92c.4-.21.1-1,.64-1.37.45.05.38.35,1.15.35a3,3,0,0,0,2.42-1.38c.23-.34.18-.75.86-.49a2.12,2.12,0,0,1-.61,1.93,3.64,3.64,0,0,1-.52.35c-.18.12-.3.26-.49.39a3.37,3.37,0,0,1-.56.3c-.38.19-.79.42-.87.87a5.34,5.34,0,0,1,1.43-1,8.08,8.08,0,0,0,1.47-.92A2.25,2.25,0,0,0,29.15,14c0-.53.32-.38.43-.75a.83.83,0,0,0-.22-.89c-.55.15,0,.55-.38.88a3.84,3.84,0,0,1-1.25.11c-.95-.1-2.95-1-3.73,1.17-.15.41-.09.72-.25,1.11s-.31.79,0,1.08Z"/><path class="cls-2" d="M24.58,9.11c.34.19.41,0,.61.4a1.88,1.88,0,0,0-.88.59c-.16.3.11.87.09,1.24,0,.72-1,1.24-1,1.91.8-1.46,1-.89,1.94-2.13.48-.65.3-.91.14-1.59s-1-1.17-.89-.42Z"/><path class="cls-2" d="M15.34,12.67a7.38,7.38,0,0,0-.5-.74,1.1,1.1,0,0,1-.19-1c.14-.68.26-.76-.37-1.24a4.13,4.13,0,0,0-.42-.22c.17-.44.46-.16.61-.42.27-.48-.63-.51-.89.42l-.16.4a1.59,1.59,0,0,0,.48,1.51c.53.52.68.59,1.14,1l.3.28Z"/><path class="cls-1" d="M13.9,13.74c-.19.46-.06.61-.5.86a.88.88,0,0,1-1-.11l.3-.17a.58.58,0,0,0-.41-.52l-.09.17,0,0-.25-.38c-.5.38.13,1.36,1,1.5,1.2.21,1.49-1.06,1-1.39Z"/><path class="cls-1" d="M25.12,13.74c-.33.18-.23.83,0,1.06.87,1.07,2.81-.5,2.05-1.17l-.12.25a2.24,2.24,0,0,0-.1.26l-.09-.21a.33.33,0,0,0-.07-.13.57.57,0,0,0-.42.52c.15.12.17.07.3.17a.88.88,0,0,1-1,.11c-.41-.23-.32-.39-.49-.86Z"/></g></g></g></svg>