<svg xmlns="http://www.w3.org/2000/svg" viewBox="0 0 60.79 37.97"><defs><style>.cls-1{fill:#211f20;fill-rule:evenodd;}</style></defs><g id="Слой_2" data-name="Слой 2"><g id="Слой_1-2" data-name="Слой 1"><g id="_3015165428160" data-name=" 3015165428160"><path class="cls-1" d="M20.53,34.28c5.37,0,11.8.7,14.82,3.69-.73-1.3-2.47-2.36-4.28-3.14-3.84-1.64-8.88-2-13.07-2-2.44,0-4.87.38-7.26.36-4.74,0-8.27-1.91-9.49-5.53a9.83,9.83,0,0,1,.31-6.34c.95-2.72,1.7-3.13,2.75-4.87-1.44.72-3.54,4.82-4,6.89a8.48,8.48,0,0,0,2.13,8.22c4.69,4.65,11,2.68,18.12,2.69Z"/><path class="cls-1" d="M34.32,7.49a11.49,11.49,0,0,1,1.29-2c1.31-1.73,4.15-4.07,6.43-4-.28.31-.57.38-.84.73a16.72,16.72,0,0,1,5.64.13,12.9,12.9,0,0,1,4.37,1.73,2.3,2.3,0,0,0-1.43.26A24.57,24.57,0,0,1,52.58,6a18.48,18.48,0,0,1,5.77,7.76,16.18,16.18,0,0,0-2.8-1.08,17.32,17.32,0,0,1,3.59,2.93A17.37,17.37,0,0,1,60.77,18c.23-2.83-1.62-7.16-3.38-9.24a15.13,15.13,0,0,0-2.58-2.48c-.33-.23-1.26-.81-1.49-1L55,5.11C53.19,2.42,47.62,1,44.13,1.2c.13-.28.08-.28.72-.59.26-.12.56-.21.82-.34-.77-.5-3.22-.2-4.19.06a11,11,0,0,0-7.16,7.16Z"/><path class="cls-1" d="M45.85,33.2c.14-1.63,0-4.06-.9-5.22a14.09,14.09,0,0,1-1.21,3.32,16.93,16.93,0,0,1-5.82,5.62,13.34,13.34,0,0,0-1.44.86c2.19-.35,4.88-2.78,6.54-4.34l1.84-1.83a6.45,6.45,0,0,1-.7,3.63c-.25.43-.47.56-.66.91a9.9,9.9,0,0,0,4.19-2.88,15.87,15.87,0,0,0,1.73-2.56A24,24,0,0,0,52,21.76s0,0,0,.08l-.26.7c-.07.29-.15.55-.24.85A26.35,26.35,0,0,1,48,30.91a9.3,9.3,0,0,1-2.13,2.29Z"/><path class="cls-1" d="M49.23,16.82c-.63-.38-.89-1.1-2.18-1.27a7.53,7.53,0,0,1,.82,2.26,10.82,10.82,0,0,1,0,2.9c-.47-.27-.49-.49-1.22-.71a4.87,4.87,0,0,1-.36,3.45c-.32-.68-.53-1.3-1.11-1.58a5.67,5.67,0,0,1-1.88,4.29c-.25.23-.31.41-.58.63s-1.17.77-1.47,1.08a7.59,7.59,0,0,0,3.56-2.18c.6-.64.6-.85.86-1.11a5.28,5.28,0,0,1-.07,1.61,6.75,6.75,0,0,0,1.85-3.68c0-.37,0-.5.21-.68.69.7.64,1.48.66,2.57,1-1.72.53-5.22,0-7.06.78.33,1.37,1.68,1.76,2.68a12,12,0,0,0-.85-7.39A4.21,4.21,0,0,0,48,11.23a8.34,8.34,0,0,1,1.24,5.59Z"/><path class="cls-1" d="M55.82,25.46a7.44,7.44,0,0,1-.62-1.23A8.86,8.86,0,0,0,52.57,21c.28.6.78,1.18,1.14,2a7.92,7.92,0,0,1,.72,2.49,5.48,5.48,0,0,1-1.77,4.62,5.32,5.32,0,0,0,2.52-2.48c.37.79-.47,2.39-.64,3.13a18.22,18.22,0,0,0,3.73-8.57c.37-3.15-.78-7.6-2.89-9.25a23.56,23.56,0,0,1,1.28,2.72,13.4,13.4,0,0,1-.84,9.83Z"/><path class="cls-1" d="M42.75,6.75c1.62,0,3.43-.74,5-.18A4.35,4.35,0,0,1,46.7,9.29c-1.08,1.41-1.42,1.23-2,1.88,2.6-.41,5.58-2.81,4.6-6C47.05,4.66,43.76,5.66,42.75,6.75Z"/><path class="cls-1" d="M11,11.35c1.7-.7,2.69-1.25,4.91-.63,1.26.36,4.12.63,4.93,1.23,1.33,1,.79,1.29,3.43,2.64C25.57,15.26,27.92,16,28,17c-.24.17-.42.18-.69.38s-.19.3-.44.77c-.79.15-1.44-.41-1.51.63.8.22,1.6,0,2.08.65s.78,3.77-3.88,4c1.8.11,2.21.12,3.5-.9a2.75,2.75,0,0,0,.58-.63c.2-.28.19-.48.53-.69.11-.06,1-.3.51-1.49a1.11,1.11,0,0,0-.14-.26c0,.16,0,.57,0,.71-.11.5-.06.24-.28.34-.52-.59.11-2.18.26-2.92.29-1.34-.64-1.59-1.57-2-2.13-1-3-1.09-4.69-2.79-.64-.65-.73-1.34-2-1.59C19.11,11,18,11,16.89,10.73c-3.06-.75-3.5-.6-5.9.62Z"/><path class="cls-1" d="M9.84,19.82c-.62-1.08-2.61-3.75-2.45-5.47.24-2.59,4.57-.56,5.87-.34a10.73,10.73,0,0,0-3.4-1.86c-1.24-.39-3.23-.44-3.77,1.09C5.3,15.49,9,19.16,9.84,19.82Z"/><path class="cls-1" d="M13.24,25.11a10.84,10.84,0,0,0-3.17.09c4.23.27,5.5,1,7.91,3.68.72.8,1.4,2,1.66,2.29a11.54,11.54,0,0,0-1.61-3c-.21-.25-.31-.41-.48-.62l-1.78-1.74a11,11,0,0,0-6.89-2.39A17.17,17.17,0,0,1,13.24,25.11Z"/><path class="cls-1" d="M19.12,27.38c.28-.51.09-2.33,1.1-3,2.3-1.51,8.31,4.09,8-2.59L28.1,22c-1.21,2.3-1.25,2.93-4.9,1.86C19.94,22.93,19,24.25,19.12,27.38Z"/><path class="cls-1" d="M34.44,32.34a9.5,9.5,0,0,1,1.77-2.63,8.74,8.74,0,0,1,2.57-1.95l-.38,1c.18-.12.2,0,.47-.5.13-.22.19-.36.3-.58.65-1.31.91-3.52.28-4.58a5.21,5.21,0,0,1-1.38,3.93,9.23,9.23,0,0,0-2.64,2.75,6.66,6.66,0,0,0-1,2.53Z"/><path class="cls-1" d="M43.71,13.14c-.26.1-.28,0-.61-.1a7.69,7.69,0,0,1,.35,3.8l-.43-.3a11.33,11.33,0,0,1-1.17,2.53,7.68,7.68,0,0,1-.78,1.09,8.55,8.55,0,0,0-.88,1,5.66,5.66,0,0,0,1.87-1.59c.66-.88,1.16-1.82,1.32-2l.35.72A4.17,4.17,0,0,0,44.1,16a19.12,19.12,0,0,0-.42-2.13s.61.75.67.79a4.21,4.21,0,0,0-.92-3.1l.28,1.58Z"/><path class="cls-1" d="M36.91,11.82c.26.23.17.11.54.26l.27.12c-.27.17-.25.19-.4.49.37-.11.36-.23.73-.14s.39.26,1,.19c.77-.09,1-.62,1.29-1l.28,0c.41-.08.07.1.36-.15A2.93,2.93,0,0,0,39,11l.74-.44c.27-.08.64-.14.91-.19a2.41,2.41,0,0,0-2.16.36,7,7,0,0,0-.72.61,8.54,8.54,0,0,1-.82.5Z"/><path class="cls-1" d="M31.94,19.1l.14-.45c.32-.89,2.19-.7,1.9-1.78l-.34-.07a2.09,2.09,0,0,0-.36.07c-1.1.29-.91,0-2.22-.19.08-1.09,1.15-2,1.51-2.93l-1.95,2.56C30.08,17.3,31,18,31.94,19.1Z"/><path class="cls-1" d="M34.23,9.09a13.79,13.79,0,0,1,3.44-2.45,14.18,14.18,0,0,1,3.25-1c.94-.17,1-.07,1.33-.31a18.37,18.37,0,0,0-2.78.12l.73-.58.07-.06a7.12,7.12,0,0,0-3.53,1.59,11.33,11.33,0,0,0-2.51,2.73Z"/><path class="cls-1" d="M32,21.4a2.17,2.17,0,0,0,.5-.81,6.85,6.85,0,0,0,3,1.45A4.62,4.62,0,0,0,39,21.1c-1.07.13-1.77.65-3.67.17a10,10,0,0,1-2.87-1.33c-.38.29-.3.28-.55.74-.25-.3-.18-.49-.31-.84l-.13-.27c-.13,1,0,1.32.55,1.83Z"/><path class="cls-1" d="M9.29,15.67c-.22.15.08,0-.19.08s0-.05-.2,0c1.08,1.21.61,1,.42,1.3a5.8,5.8,0,0,1,1.17,1.46c0-.72-.08-.54.33-1a1.11,1.11,0,0,1-.15-.82c0-.58-.09-.28-.31-.83.14-.09-.14-.32.55,0-.59-.52-1.37-1.49-2.7-1.27.48.55,0-.22,1.08,1.09Z"/><path class="cls-1" d="M38.11,22.77c-1.34.56-4.67,1.84-5.77,0-.14-.23-.07-.19-.15-.38,0,0,0-.05,0-.08l-.21-.3a1.65,1.65,0,0,0,0,1.69c.06.07.1.08.11.08h.19c.82.18,1,.92,2.07.53.3-.12,2.94-.39,3.76-1.54Z"/><path class="cls-1" d="M10.21,11.61C11.67,10.69,12.43,10,14.8,10,12.74,8.77,10.66,9.23,10.21,11.61Z"/><path class="cls-1" d="M14.51,24.3a6.58,6.58,0,0,1-1.8-4.59c-1.1.38-1.08.2-2-.14.9.89.62.43,1.14.85S12.63,23.55,14.51,24.3Z"/><polygon class="cls-1" points="18.13 15.66 20.35 15.58 19.77 14.26 18.13 15.66"/></g></g></g></svg>