<svg xmlns="http://www.w3.org/2000/svg" viewBox="0 0 39.44 46.64"><defs><style>.cls-1{fill:#010101;}.cls-1,.cls-2{fill-rule:evenodd;}.cls-2{fill:#fff;}</style></defs><g id="Слой_2" data-name="Слой 2"><g id="Слой_1-2" data-name="Слой 1"><g id="_2979014474688" data-name=" 2979014474688"><path class="cls-1" d="M14.56,34.18a1.83,1.83,0,0,1,.15.77A5.85,5.85,0,0,0,15.32,37a12.53,12.53,0,0,1,.62-3.2s.3,2.24.37,2.56l.56,2a.53.53,0,0,0,.06.13c.08.14,0,.06.09.13a24.41,24.41,0,0,1,.83-4.09A16.51,16.51,0,0,0,18.51,38a22.46,22.46,0,0,0,1.07,2.84l.14.19c.52-.5,1.48-4,1.62-4.64s.15-1.21.25-1.84a24.21,24.21,0,0,1,.83,4.09l.06-.08.07-.13.28-.86c.12-.42.22-.78.3-1.21s.37-2.55.37-2.56a12.88,12.88,0,0,1,.62,3.2.68.68,0,0,0,.17-.3c0-.11.07-.22.11-.34a7.18,7.18,0,0,0,.37-1.82l0-.16.06-.16,0,0c.3,2.5.61,4.46-.78,6.88A7.43,7.43,0,0,1,23,42.58a12.38,12.38,0,0,0-.19-1.52l-.42-1.32a9.19,9.19,0,0,1-1.64,4.6,7.15,7.15,0,0,1-1,1.15A8.92,8.92,0,0,1,18,43.07a9.19,9.19,0,0,1-.89-3.33,1.7,1.7,0,0,0-.25.61,10.28,10.28,0,0,0-.36,2.23,7.08,7.08,0,0,1-1.14-1.52,8.66,8.66,0,0,1-.79-1.93,12,12,0,0,1,0-5Zm4.19-5.05c.41-.23.74-.61,1-.72.22.11.56.5,1,.72l-.12-.57c.35.18.93.8,1.29.88-.11-.26-.28-.49-.4-.75a10.66,10.66,0,0,0,1.41.86l-.12-.33a4.66,4.66,0,0,0,.75.23,1.33,1.33,0,0,1,.67.34,4.7,4.7,0,0,1,.51.49,1.54,1.54,0,0,1,.35.66,1.48,1.48,0,0,0-.67-.11,3.17,3.17,0,0,1,.16,1.05c-.33-.12-.4-.41-.81-.52a2.23,2.23,0,0,1-.18,1.48c-.16-.14-.08-.09-.2-.27a1.67,1.67,0,0,0-.61-.65,3,3,0,0,1-1,1.62l-.1-.11c-.26-.33-.35-.61-.79-.77-.77.65-.78,1.06-1.13,1.32-.33-.24-.37-.65-1.13-1.32-.47.18-.55.49-.85.85l0,0a3,3,0,0,1-1-1.62c-.61.43-.53.67-.81.92a2.05,2.05,0,0,1-.18-1.48c-.41.1-.45.36-.81.52a3.27,3.27,0,0,1,.16-1.06l-.67.11a2.45,2.45,0,0,1,1.48-1.47,4.56,4.56,0,0,0,.79-.24l-.11.33A10.66,10.66,0,0,0,18,28.69c-.13.25-.29.5-.41.75.37-.08.95-.7,1.3-.88l-.14.57Zm11.46-4.59a17.77,17.77,0,0,1,1.09,2.95c.67,2.52.62,6.43-.57,8.8a3.82,3.82,0,0,1-.85,1.2,12,12,0,0,0-.18-5.07,15.54,15.54,0,0,1-1.17,4.18A12.47,12.47,0,0,1,27,39.06c-.25.3-.39.57-.69.72a8,8,0,0,0,.1-3.78c-.1-.56-.23-1.14-.38-1.69s-.39-1-.56-1.55c.82.37,1.56,3,1.64,3.17A16.44,16.44,0,0,0,27,32.71c-.11-.77-.6-2.6-.61-2.82a3.48,3.48,0,0,1,.56.67,13.7,13.7,0,0,1,1.19,2.59c.06.12.05.09.07.11.36-1.51-.46-4.37-.67-5.64.71.2,1.32,1.72,1.6,2.45l.41,1A14.63,14.63,0,0,0,29,26.73c-.11-.35-.36-.9-.42-1.18a9.2,9.2,0,0,1,2.26,4.94l.09.31,0,.05a.11.11,0,0,0,0,0,12,12,0,0,0-.05-3.39,16.86,16.86,0,0,0-.69-3ZM8.49,30.9a13.31,13.31,0,0,0,.4-1.53,7.75,7.75,0,0,1,2-3.82c-.06.27-.3.8-.4,1.13a14.65,14.65,0,0,0-.55,4.42s0-.06,0-.05l.77-1.91c.28-.58.69-1.37,1.21-1.52-.32,1.93-.91,3.24-.68,5.67.28-.39.62-2.2,1.83-3.4,0,.88-1,2.71-.79,6a11.29,11.29,0,0,1,1-2.52c.1-.14.12-.18.24-.33s.12-.22.35-.32A14.38,14.38,0,0,0,13,36a7.9,7.9,0,0,0,.1,3.78c-.3-.14-.43-.41-.66-.68a12.61,12.61,0,0,1-1.54-2.5,15.54,15.54,0,0,1-1.17-4.18,12,12,0,0,0-.18,5.07,6,6,0,0,1-1.4-2.67A15.18,15.18,0,0,1,8.62,26c.18-.52.45-1,.61-1.41a15,15,0,0,0-.74,6.36Zm8.77-6.38c-.46-.22-.27-.86.63-.76a7.7,7.7,0,0,0,3.55,0c.66-.09,1.23.06.83.75-.3-.13-.15-.42-.63-.36a2.05,2.05,0,0,0-1.2.95c-.19.35,0,.49.14.72a.73.73,0,0,1-.52.46c-.53.1,0-1.28-.34-1.81-.25.45.12,1.33-.14,1.7s-.62-.11-.72-.35c.17-.33.5-.54-.33-1.27a1.6,1.6,0,0,0-.63-.38c-.46-.11-.46,0-.64.33Zm1-12.66c.55.42.94,1.09,1.46,1.53.54-.46.9-1.1,1.46-1.53a10.35,10.35,0,0,1-.85,1.74c-.24.54-.55,1.67-.1,2.16.23-1.21-.09-1.39.59-2.49l.66-.91c.41-.47.17-.68.39-1.19.4-.44,3.61.21,4.69.71a6.44,6.44,0,0,1,1.15.79l-.88.08c.09.19.17.19.32.37a9,9,0,0,1,1.68,3.26l-1.32-.26c.3.55.71,1,1,1.61a9.81,9.81,0,0,1,.7,1.87l-.58-.43c-.1-.07,0,0-.14-.09l.65,2.73c-.24-.15-.19-.27-.53-.48A6.24,6.24,0,0,1,28.41,24a6.37,6.37,0,0,1-.59-.8c-.33.41-.54,1.11-1.05,1.26l-.63-1c-.54-1,1.58-2.05,2.27-2.43a7.17,7.17,0,0,0-.12-1.73l-.21-1.18c-.08-.45.09-.08-.13-.42a10.35,10.35,0,0,0-.06,1.48,13.38,13.38,0,0,1,.08,1.5c-.09.45-1.35,1-1.93,1.19a4.47,4.47,0,0,0-1.48-2.22c.39,1.38,1.2.9,1,3.4-.28,0-.45-.19-1-.13a1.3,1.3,0,0,1,.86.48,4,4,0,0,1-1.37.8,3.37,3.37,0,0,0,1.68-.53,2.18,2.18,0,0,1,.36.82,5.58,5.58,0,0,0-.59.31,5.55,5.55,0,0,1-2,.65,5.82,5.82,0,0,0,2.73-.5,1.6,1.6,0,0,1,.19.84,10.26,10.26,0,0,1-1.33.5L24,26.56c-.49.07-.11-.09-.43.12a9.29,9.29,0,0,0,3-.28l-.11.8a13.73,13.73,0,0,1-3.39.48,8,8,0,0,0,1.51.19c.61,0,1.15-.08,1.68-.07A2.61,2.61,0,0,1,22.68,29c-2.87-1.11-2.9-.6-2.69-2.47.54-.35.81-.3.55-.94,1.35-.67,2.43-.94,2.83-2-.21.19-.3.44-.65.54-.46-1.31-1.55-.37-3-.37-.63,0-2.08-.52-2.6-.24-.23.13-.28.4-.42.59-.34-.06-.43-.29-.61-.54.1,1,1.94,1.62,2.81,2.05-.26.63,0,.6.54.94.21,1.86.2,1.37-2.68,2.47a2.63,2.63,0,0,1-3.57-1.2,10.69,10.69,0,0,0,3.19-.12A12.59,12.59,0,0,1,13,27.19l-.15-.79a7.5,7.5,0,0,0,3.12.23,9.81,9.81,0,0,1-3.07-.79,1.7,1.7,0,0,1,.2-.85,5.54,5.54,0,0,0,2.73.51,6.35,6.35,0,0,1-2.58-1,1.94,1.94,0,0,1,.38-.76,3.13,3.13,0,0,0,1.31.51l.27,0a2.15,2.15,0,0,1-1.3-.83,2.51,2.51,0,0,1,.87-.39c-.5-.06-.67.14-.95.13-.17-2.47.65-2,1-3.4a4.47,4.47,0,0,0-1.48,2.22c-.56-.15-1.8-.74-1.91-1.14a8.55,8.55,0,0,1,.06-1.49,9.87,9.87,0,0,0-.06-1.54,5.71,5.71,0,0,0-.33,1.55A7.06,7.06,0,0,0,11,21.08c.69.38,2.7,1.35,2.29,2.39-.05.13-.25.31-.34.48l-.25.45s0,0,0,0l0,0a1.36,1.36,0,0,1-.61-.55c-.13-.2-.25-.54-.47-.67-.23.28-.33.53-.56.76a6.17,6.17,0,0,1-.22-2.69c-.34.21-.29.34-.53.48l.65-2.73c-.26.13-.47.4-.72.52a10.07,10.07,0,0,1,.7-1.87c.31-.61.72-1.06,1-1.61l-1.32.27a9.23,9.23,0,0,1,.79-2l1.21-1.63-.88-.06a5.69,5.69,0,0,1,1.1-.78,6.44,6.44,0,0,1,1.4-.49c.68-.14,2.71-.57,3.34-.24.21.49,0,.68.36,1.16.13.16.22.22.35.4s.2.31.32.5c.71,1.14.37,1.27.61,2.53.44-.48.15-1.58-.08-2.12a10.07,10.07,0,0,1-.87-1.78Zm9.47,0c.33.15.74.27,1.11.43A14.87,14.87,0,0,1,35,17.31a12.61,12.61,0,0,1,2.06,7.59,10.48,10.48,0,0,1-.39,2.84c-.3-1.39-.51-3.11-1.39-3.92.28,2.36.74,3.33.13,6.18a11.26,11.26,0,0,1-1.79,4.19l-.42.5a16.25,16.25,0,0,0-.4-3.59,32.6,32.6,0,0,0-.62-3.42,14,14,0,0,0-1.88-4.16A5.83,5.83,0,0,1,29.78,22a13,13,0,0,1,2.59,3.26,18.3,18.3,0,0,1,1.68,4.07c.31-2.24-.93-5.16-2-6.86a19.47,19.47,0,0,1-1.54-2.11c-.21-.41-.42-.81-.59-1.21A10.78,10.78,0,0,1,33.73,22c.22.23.34.38.54.6s.3.42.49.61a10.68,10.68,0,0,0-1.55-3.39,9.6,9.6,0,0,0-2.54-2.5,7.19,7.19,0,0,1-1.43-1.94,15.54,15.54,0,0,1,5.07,3.4,18.79,18.79,0,0,1,1.33,1.57c0-.08,0,0,0-.17a10.64,10.64,0,0,0-2.22-3.69c-.18-.18-.31-.34-.49-.52s-.17-.14-.27-.24a14.82,14.82,0,0,0-3.34-2.38,6.68,6.68,0,0,1-.71-.37,5.88,5.88,0,0,1-.91-1.12ZM3.8,20.32a15.17,15.17,0,0,1,2.8-2.87,13.38,13.38,0,0,1,3.6-2.1,5.31,5.31,0,0,1-.62,1,2.68,2.68,0,0,1-.77.94,9.6,9.6,0,0,0-3.18,3.49,10,10,0,0,0-1,2.42c.32-.33.91-1.14,1.55-1.76a10.35,10.35,0,0,1,3.33-2.31c-1.05,2.51-1.5,2.08-2.78,4.38a11.7,11.7,0,0,0-1.41,5.76c.22-.42.55-1.55.75-2.08A14.61,14.61,0,0,1,9.66,22c-.38,2.09-1.41,2.28-2.38,5.68a26,26,0,0,0-.62,3.41,17.2,17.2,0,0,0-.41,3.64,1.75,1.75,0,0,1-.39-.47,9.55,9.55,0,0,1-1-1.63,12.23,12.23,0,0,1-.86-2.54,13.55,13.55,0,0,1-.29-3.14,30.08,30.08,0,0,1,.41-3.09c-.88.81-1.09,2.52-1.4,3.92a13,13,0,0,1-.39-3.41,12.13,12.13,0,0,1,3.49-8.75c.23-.23.42-.46.68-.7s.24-.18.39-.31l1.17-.91a16.23,16.23,0,0,1,2.62-1.47c.33-.13.69-.24,1-.37a6.33,6.33,0,0,1-.87,1.11c-.21.16-1.76.89-2.61,1.54a13.18,13.18,0,0,0-2.21,2,10.28,10.28,0,0,0-2,3.12l-.18.77ZM35.11,6.83A14.26,14.26,0,0,1,36.94,9.5a17.36,17.36,0,0,1,1.41,3.16,10.56,10.56,0,0,0-1.89-1.29c-.55-.27-1-1.23-1.58-1.63.12-1,.2-1.81.23-2.91Zm-34,5.83A17.89,17.89,0,0,1,2.47,9.54,13.91,13.91,0,0,1,4.33,6.83c0,1.1.11,1.87.23,2.91A8.75,8.75,0,0,0,3.42,11c-.23.28-.07.2-.44.38A10.21,10.21,0,0,0,1.09,12.66ZM21.5,7.5a7.07,7.07,0,0,1,4.69-.84A7.25,7.25,0,0,1,30,8.56,7.68,7.68,0,0,0,27,8.18c-2.75.26-4.62,1.7-6.43,3.42-.17.17-.23.29-.42.48a9.19,9.19,0,0,1,.83-1.84,4.57,4.57,0,0,1,1.25-1.45c1.44-1.13,2.93-.94,4.18-1.24-1.42-.83-3.62-.25-4.87,0Zm-8.43,0c.73.18,1.54.16,2.34.37a4.77,4.77,0,0,1,3.09,2.32,8.63,8.63,0,0,1,.82,1.84c-.17-.18-.23-.3-.38-.45a10.59,10.59,0,0,0-6.46-3.45,7.68,7.68,0,0,0-3.07.38L10.14,8A6.92,6.92,0,0,1,11,7.4a7.25,7.25,0,0,1,4.82-.7,6.73,6.73,0,0,1,2.08.8,15.8,15.8,0,0,0-2.44-.38,5.05,5.05,0,0,0-2.43.43ZM38.61,21.32,37.1,19.17a22.17,22.17,0,0,0-2.54-3.63,18.34,18.34,0,0,0-2.69-2.22c-1.14-.77-2.95-1.59-3.21-1.77,1.64.16,4.67,1.67,6.1,2.42-.28-.89-2.23-2.49-3.16-3.09a16.48,16.48,0,0,0-3.72-1.76c-.47-.16-.3,0-.53-.18l-.05,0,0,0a16.15,16.15,0,0,1,4.52.87,8.06,8.06,0,0,0-1.8-2,8.49,8.49,0,0,0-3.65-1.64C26,6,25.52,6,25.17,5.92c.95-.83,1.33-.65,2.61-.16a18.63,18.63,0,0,1,6.29,4.09c.19.2.3.26.47.47A14.87,14.87,0,0,1,37.42,15a16.14,16.14,0,0,1,1.19,6.37ZM7.66,9.75a16.15,16.15,0,0,1,4.52-.87L11.9,9l-.29.08A15.15,15.15,0,0,0,6.5,11.87,8.72,8.72,0,0,0,4.68,14c1.41-.75,4.48-2.26,6.1-2.42A26,26,0,0,0,6.2,14.34a13.13,13.13,0,0,0-3.36,4,8.64,8.64,0,0,1-1,1.48c-.19.26-.89,1.39-1,1.5A16.11,16.11,0,0,1,4,11.36c.28-.38.57-.69.86-1a4.57,4.57,0,0,1,.44-.44c1.78-1.8,5.35-4.19,7.73-4.55a2,2,0,0,1,1.2.59,11.94,11.94,0,0,0-2.17.39A8.88,8.88,0,0,0,9.13,8c-.12.1-.22.25-.33.35A8,8,0,0,0,7.66,9.75ZM32.53,5.58a2.23,2.23,0,0,0-1.4-.37l.26.2a2.19,2.19,0,0,0-1.38.5c-.24.17-.2.11-.53,0a2.56,2.56,0,0,1-.64-.32c1.64-.73,3.21-2.36,4.49-1.71A2.58,2.58,0,0,1,34.43,6a12.75,12.75,0,0,1-.1,3.1c-.81-.74-.68-.25-.65-1.3A3.64,3.64,0,0,0,33.39,6c-.14.19-.1.26-.2.45l0,.08,0,0,0,0a1.73,1.73,0,0,0-.68-1.53l.13.52ZM5.11,9.13A12.75,12.75,0,0,1,5,6c.27-2.49,1.63-2.85,3.5-1.67a20.28,20.28,0,0,0,2.09,1.2,2.56,2.56,0,0,1-.64.32c-.34.14-.29.2-.53,0a2.27,2.27,0,0,0-1.38-.49l.26-.2a2.41,2.41,0,0,0-1.4.37L7,5.06a1.74,1.74,0,0,0-.68,1.53l-.09-.11C6.15,6.28,6.2,6.18,6,6A4.87,4.87,0,0,0,5.8,8.52,6.42,6.42,0,0,1,5.11,9.13ZM21.88,4.78c2-.52,2.9-1.1,5.47-.85a7.2,7.2,0,0,1-1,.47c-1.09.51-2.43,1.61-2.68,1.67a7.9,7.9,0,0,0-2.19.77,5.16,5.16,0,0,0-.86.58l-.72.74c.35-1.26,2.24-2.52,3.47-3,.48-.2,1.15-.37,1.56-.57a20.09,20.09,0,0,0-3,.21Zm-2.67,3a6.1,6.1,0,0,0-3.4-1.7,3.59,3.59,0,0,1-.91-.6,16.47,16.47,0,0,0-2.82-1.54c2.58-.25,3.45.33,5.48.85-.4,0-1-.13-1.43-.17a11.87,11.87,0,0,0-1.58,0c.42.2,1.1.38,1.61.59,1.19.5,3.07,1.75,3.42,3l-.37-.39Zm-4-5.5A7.42,7.42,0,0,0,13.12.67,15.55,15.55,0,0,1,18.53,2a3.65,3.65,0,0,1,1.19,1A3.44,3.44,0,0,1,21,2,15.92,15.92,0,0,1,26.32.69a6.61,6.61,0,0,0-2.07,1.59c.62-.14,1.16-.32,1.85-.42a14,14,0,0,1,5.59.29c-.34.21-2.06.42-2.59,1.14a4,4,0,0,1,1.71.38,15.07,15.07,0,0,1-2.87,1.61L26.86,5s0,0,0,0,2.43-1,2.45-1.06c-.87-.78-4.31-.62-5.71-.26-1,.26-1.7.54-2.34.7.55-1,1.61-1.48,2-2a6.41,6.41,0,0,0-2,.7l-1.2.75c-.13.08-.24.19-.36.26L19,3.49a7.59,7.59,0,0,0-2.76-1.16,11.44,11.44,0,0,0,1.13.9,4.38,4.38,0,0,1,.9,1.07c-.5-.13-1.1-.38-1.88-.58a11,11,0,0,0-2-.38c-1-.09-3.49-.07-4.14.52,0,0,2.33,1,2.45,1.06l-.28.13c-1.24.36-.82.3-1.86-.26A13.26,13.26,0,0,1,8.63,3.67a4,4,0,0,1,1.71-.38c-.54-.73-2.23-.92-2.59-1.14a13.36,13.36,0,0,1,3.4-.45,14,14,0,0,1,4,.57Zm-2.36-1A18.15,18.15,0,0,0,9,1.32a10.42,10.42,0,0,0-3.17,1c.55.41,1.73.34,2.36.72l0,0c-.58.15-.26.24-.92.09A2.2,2.2,0,0,0,4.84,4.29c-.71,1.36.2.53-1.33,2.25S-.06,11.92,0,14a16.37,16.37,0,0,1,2.3-1.48,17.61,17.61,0,0,0-2,5.05A16.84,16.84,0,0,0,0,20.74a11.25,11.25,0,0,0,.32,3.2l1.17-2c-.28,2.67-.42,4.23.49,6.87a5.35,5.35,0,0,0,.88,1.83l.26-1.87c.37.88-.24,2.83,2.5,6.8a8.42,8.42,0,0,0,1.5,1.65l0-2.24a24.88,24.88,0,0,0,1.39,2.75,8.37,8.37,0,0,0,2,2.15l-.27-2.53a9.11,9.11,0,0,0,3.8,4.7L14,40.62a8.69,8.69,0,0,1,.59,1.09c.21.34.43.64.66,1A9.33,9.33,0,0,0,17,44.37l.1-1.53A7.42,7.42,0,0,0,18.18,45a10.77,10.77,0,0,0,1.54,1.69A8.74,8.74,0,0,0,21.26,45a5.31,5.31,0,0,0,1.08-2.15l.13,1.57a9.26,9.26,0,0,0,1.65-1.66,13.89,13.89,0,0,0,1.22-2l0,0,0,0L25.31,42a6.84,6.84,0,0,0,1.19-.89,6.77,6.77,0,0,0,1.07-1.07,8.48,8.48,0,0,0,1.53-2.74l-.26,2.52a8,8,0,0,0,2-2.14,9.34,9.34,0,0,0,.76-1.31c.16-.34.47-1.22.61-1.44l.07,2.24c.84-.47,2.19-2.61,2.67-3.57a13.11,13.11,0,0,0,.86-2.22c.2-.72.42-2.52.48-2.66l.26,1.87a4.57,4.57,0,0,0,.47-.83c.15-.34.26-.6.38-.95.94-2.67.8-4.22.48-6.91l1.19,2a11.62,11.62,0,0,0,.33-3.2,16.57,16.57,0,0,0-1.16-5.9,25.5,25.5,0,0,0-1.17-2.34A14.54,14.54,0,0,1,39.41,14c.07-1.54-1.13-4-1.93-5.27A14.44,14.44,0,0,0,35.4,5.94c-.88-.82-.43-2.23-2.08-2.77a2.35,2.35,0,0,0-1.12-.06c-.74.16-.32.1-1-.07A.48.48,0,0,1,31.35,3c.11,0,0,0,.14,0a11.09,11.09,0,0,0,2.14-.63,10.68,10.68,0,0,0-3.18-1,18.74,18.74,0,0,0-3.84-.08c.15-.06.66-.44.87-.58l.45-.31L28.15.2a.53.53,0,0,0,.11-.09c.09-.07,0,0,.11-.11a17.48,17.48,0,0,0-7,1.14,13.4,13.4,0,0,0-1.63.9A11.57,11.57,0,0,0,16.19.52,21.15,21.15,0,0,0,11.07,0c.06.09,0,0,.11.11l1.65,1.13Z"/><path class="cls-2" d="M22.44,21a1,1,0,0,1,.61.2c.23.15.24.24.41.38a2.2,2.2,0,0,0-1.32-2,.56.56,0,0,1-.11-.11,1.53,1.53,0,0,1,.89.32c-.07-.61-.38-1-.16-1.73l.88,2.55c.25.82.3,2.24-.25,2.77C23.58,21.64,23.38,22,22.44,21ZM16,23.37a3.24,3.24,0,0,1-.23-2.82L16.68,18c.21.74-.08,1.12-.17,1.74a1.59,1.59,0,0,1,.9-.32c-.25.29-.54.23-1,.84A2.62,2.62,0,0,0,16,21.63c.25-.2.4-.65,1-.64-.31.32-.69.51-.88.94-.26.58-.1.84-.08,1.44Zm1.06-5.81a2.4,2.4,0,0,1,2-.77c.4,0,.43.14.63.28l0,0a2.14,2.14,0,0,1,2.58.53,5.61,5.61,0,0,0-1.42-.43c-.9-.05-.78.38-1.2.71-.41-.32-.3-.76-1.2-.71A5.61,5.61,0,0,0,17.1,17.56Zm7.78-2.28c.42-.14.39-.84.44-1.34a1.93,1.93,0,0,1,.31,1.39.79.79,0,0,0,.87-.41c.43-.56.28-.64.46-.94a1.36,1.36,0,0,1-.57,1.59l.25.26c-.48-.07-.7-.31-1.32-.26a3.42,3.42,0,0,0-.7.12.7.7,0,0,0-.51.29c1.63-.62,1.57.18,2.32.44l.29.08s0,0,0,0c-.2.29-.4.29-.84.23a1.24,1.24,0,0,1-1.16.9c-.25,0-.83-.06-1,0s-.28.34-.52.43a3.74,3.74,0,0,1,.27-1.69,2.53,2.53,0,0,0-.09-1.68c.39.23.39.56.66.91.31-.29.2-.88.19-1.37.33.26.35.77.58,1Zm-11.07.05a1.93,1.93,0,0,1,.31-1.39,4.37,4.37,0,0,0,.18,1.13c.12.22.08.16.26.21l0,0c.15-.24.22-.52.37-.77s0-.09.18-.23c0,.49-.12,1.08.19,1.37.27-.35.27-.68.66-.91a2.47,2.47,0,0,0-.07,1.72,3.58,3.58,0,0,1,.25,1.65c-.25-.09-.32-.39-.56-.45s-.7.05-.93,0a1.24,1.24,0,0,1-1.16-.9c-.44.06-.64.06-.84-.23l.37-.12c.67-.26.75-1,2.28-.42-.14-.21-.25-.24-.56-.3-1.29-.3-1.25,0-2,.15.08-.09.17-.18.24-.27A1.34,1.34,0,0,1,12.48,14c.19.31.15.58.46.94s.38.49.87.41Zm4.45-3.47a10.07,10.07,0,0,0,.87,1.78c.23.54.52,1.64.08,2.12-.24-1.26.1-1.39-.61-2.53-.12-.19-.18-.31-.32-.5s-.22-.24-.35-.4c-.38-.48-.15-.67-.36-1.16-.63-.33-2.66.1-3.34.24a6.44,6.44,0,0,0-1.4.49,5.69,5.69,0,0,0-1.1.78l.88.06L11.4,14.37a9.23,9.23,0,0,0-.79,2l1.32-.27c-.3.55-.71,1-1,1.61a10.07,10.07,0,0,0-.7,1.87c.25-.12.46-.39.72-.52l-.65,2.73c.24-.14.19-.27.53-.48A6.17,6.17,0,0,0,11,24c.23-.23.33-.48.56-.76.22.13.34.47.47.67a1.36,1.36,0,0,0,.61.55l0,0s0,0,0,0L13,24c.09-.17.29-.35.34-.48.41-1-1.6-2-2.29-2.39a7.06,7.06,0,0,1,.13-1.78,5.71,5.71,0,0,1,.33-1.55,9.87,9.87,0,0,1,.06,1.54,8.55,8.55,0,0,0-.06,1.49c.11.4,1.35,1,1.91,1.14a4.47,4.47,0,0,1,1.48-2.22c-.39,1.38-1.21.93-1,3.4.28,0,.45-.19.95-.13a2.51,2.51,0,0,0-.87.39,2.15,2.15,0,0,0,1.3.83l-.27,0a3.13,3.13,0,0,1-1.31-.51,1.94,1.94,0,0,0-.38.76,6.35,6.35,0,0,0,2.58,1A5.54,5.54,0,0,1,13.11,25a1.7,1.7,0,0,0-.2.85,9.81,9.81,0,0,0,3.07.79,7.34,7.34,0,0,1-3.12-.23l.15.79a12.59,12.59,0,0,0,3.37.49,10.69,10.69,0,0,1-3.19.12A2.63,2.63,0,0,0,16.76,29c2.88-1.1,2.89-.61,2.68-2.47-.53-.34-.8-.31-.54-.94-.87-.43-2.71-1.08-2.81-2.05.18.25.27.48.61.54.14-.19.19-.46.42-.59.52-.28,2,.24,2.6.24,1.45,0,2.54-.94,3,.37.35-.1.44-.35.65-.54-.4,1.09-1.48,1.36-2.83,2,.26.64,0,.59-.55.94-.21,1.87-.18,1.36,2.69,2.47a2.61,2.61,0,0,0,3.57-1.2c-.53,0-1.07.1-1.68.07a8,8,0,0,1-1.51-.19,13.73,13.73,0,0,0,3.39-.48l.11-.8a9.29,9.29,0,0,1-3,.28c.32-.21-.06-.05.43-.12l1.16-.22a10.26,10.26,0,0,0,1.33-.5,1.6,1.6,0,0,0-.19-.84,5.82,5.82,0,0,1-2.73.5,5.55,5.55,0,0,0,2-.65,5.58,5.58,0,0,1,.59-.31,2.18,2.18,0,0,0-.36-.82,3.37,3.37,0,0,1-1.68.53,4,4,0,0,0,1.37-.8,1.3,1.3,0,0,0-.86-.48c.5-.06.67.14,1,.13.16-2.5-.65-2-1-3.4A4.47,4.47,0,0,1,26,21.92c.58-.16,1.84-.74,1.93-1.19a13.38,13.38,0,0,0-.08-1.5A10.35,10.35,0,0,1,28,17.75c.22.34.05,0,.13.42l.21,1.18a7.17,7.17,0,0,1,.12,1.73c-.69.38-2.81,1.39-2.27,2.43l.63,1c.51-.15.72-.85,1.05-1.26a6.37,6.37,0,0,0,.59.8,6.24,6.24,0,0,0,.22-2.69c.34.21.29.33.53.48l-.65-2.73c.16.08,0,0,.14.09l.58.43a9.81,9.81,0,0,0-.7-1.87c-.31-.61-.72-1.06-1-1.61l1.32.26a9,9,0,0,0-1.68-3.26c-.15-.18-.23-.18-.32-.37l.88-.08a6.44,6.44,0,0,0-1.15-.79c-1.08-.5-4.29-1.15-4.69-.71-.22.51,0,.72-.39,1.19l-.66.91c-.68,1.1-.36,1.28-.59,2.49-.45-.49-.14-1.62.1-2.16a10.35,10.35,0,0,0,.85-1.74c-.56.43-.92,1.07-1.46,1.53C19.2,13,18.81,12.28,18.26,11.86Z"/><path class="cls-2" d="M4,19.55a10.28,10.28,0,0,1,2-3.12,13.18,13.18,0,0,1,2.21-2c.85-.65,2.4-1.38,2.61-1.54a6.33,6.33,0,0,0,.87-1.11c-.29.13-.65.24-1,.37a16.23,16.23,0,0,0-2.62,1.47l-1.17.91c-.15.13-.25.18-.39.31s-.45.47-.68.7a12.13,12.13,0,0,0-3.49,8.75,13,13,0,0,0,.39,3.41c.31-1.4.52-3.11,1.4-3.92a30.08,30.08,0,0,0-.41,3.09,13.55,13.55,0,0,0,.29,3.14,12.23,12.23,0,0,0,.86,2.54,9.55,9.55,0,0,0,1,1.63,1.75,1.75,0,0,0,.39.47,17.2,17.2,0,0,1,.41-3.64,26.33,26.33,0,0,1,.62-3.42c1-3.39,2-3.58,2.38-5.67a14.61,14.61,0,0,0-3.54,5.21c-.2.53-.53,1.66-.75,2.08a11.7,11.7,0,0,1,1.41-5.76c1.28-2.3,1.73-1.87,2.78-4.38a10.35,10.35,0,0,0-3.33,2.31C5.59,22,5,22.85,4.68,23.18a10,10,0,0,1,1-2.42,9.6,9.6,0,0,1,3.18-3.49,2.68,2.68,0,0,0,.77-.94,5.31,5.31,0,0,0,.62-1,13.36,13.36,0,0,0-3.6,2.09,15.52,15.52,0,0,0-2.8,2.88L4,19.55Z"/><path class="cls-2" d="M27.73,11.82A5.64,5.64,0,0,0,28.64,13a6.68,6.68,0,0,0,.71.37,14.82,14.82,0,0,1,3.34,2.38c.1.1.17.14.27.24s.31.34.49.52a10.64,10.64,0,0,1,2.22,3.69c0,.16,0,.09,0,.17a18.79,18.79,0,0,0-1.33-1.57,15.54,15.54,0,0,0-5.07-3.4,7.19,7.19,0,0,0,1.43,1.94,9.72,9.72,0,0,1,2.54,2.49,10.83,10.83,0,0,1,1.55,3.4c-.18-.19-.32-.42-.49-.61s-.32-.37-.54-.6a10.78,10.78,0,0,0-3.85-2.86c.17.4.38.8.59,1.21A19.47,19.47,0,0,0,32,22.43c1.11,1.7,2.35,4.62,2,6.86a18.3,18.3,0,0,0-1.68-4.07A13,13,0,0,0,29.78,22a6.21,6.21,0,0,0,.51,1.56,14,14,0,0,1,1.88,4.16,32.6,32.6,0,0,1,.62,3.42,16.25,16.25,0,0,1,.4,3.59l.42-.5A11.26,11.26,0,0,0,35.4,30c.61-2.85.15-3.82-.13-6.18.88.81,1.09,2.53,1.4,3.92a10.9,10.9,0,0,0,.38-2.84A12.61,12.61,0,0,0,35,17.31a14.87,14.87,0,0,0-6.15-5.06c-.37-.16-.77-.28-1.11-.43Z"/><path class="cls-2" d="M14.56,34.18a12,12,0,0,0,0,5,8.66,8.66,0,0,0,.79,1.93,7.08,7.08,0,0,0,1.14,1.52,10.28,10.28,0,0,1,.36-2.23,1.7,1.7,0,0,1,.25-.61A9.19,9.19,0,0,0,18,43.07a8.92,8.92,0,0,0,1.74,2.42,7.15,7.15,0,0,0,1-1.15,9.19,9.19,0,0,0,1.64-4.6l.42,1.32A12.38,12.38,0,0,1,23,42.58a7.43,7.43,0,0,0,1.14-1.52c1.39-2.42,1.08-4.38.78-6.88l0,0-.06.16,0,.16a7.18,7.18,0,0,1-.37,1.82c0,.12-.07.23-.11.34a.68.68,0,0,1-.17.3,12.88,12.88,0,0,0-.62-3.2s-.3,2.26-.37,2.56-.18.79-.3,1.21l-.28.86-.07.13-.06.08a24.21,24.21,0,0,0-.83-4.09c-.1.63-.12,1.2-.25,1.84s-1.1,4.14-1.62,4.64l-.14-.19A22.46,22.46,0,0,1,18.51,38a16.51,16.51,0,0,1-.66-3.45A24.41,24.41,0,0,0,17,38.65c-.06-.07,0,0-.09-.13a.53.53,0,0,1-.06-.13l-.56-2c-.07-.32-.36-2.54-.37-2.56a12.53,12.53,0,0,0-.62,3.2A5.85,5.85,0,0,1,14.71,35a1.83,1.83,0,0,0-.15-.77Z"/><path class="cls-2" d="M15.19,2.27a14,14,0,0,0-4-.57,13.36,13.36,0,0,0-3.4.45c.36.22,2.05.41,2.59,1.14a4,4,0,0,0-1.71.38,13.26,13.26,0,0,0,1.85,1.12c1,.56.62.62,1.86.26l.28-.13c-.12,0-2.43-1-2.45-1.06.65-.59,3.15-.61,4.14-.52a11,11,0,0,1,2,.38c.78.2,1.38.45,1.88.58a4.38,4.38,0,0,0-.9-1.07,11.44,11.44,0,0,1-1.13-.9A7.59,7.59,0,0,1,19,3.49l.77.55c.12-.07.23-.18.36-.26L21.28,3a6.41,6.41,0,0,1,2-.7c-.42.49-1.48.93-2,2,.64-.16,1.34-.44,2.33-.7,1.41-.36,4.85-.52,5.72.26,0,0-2.33,1-2.45,1.06s0,0,0,0l1.08.33a15.07,15.07,0,0,0,2.87-1.61,4,4,0,0,0-1.71-.38c.53-.72,2.25-.93,2.59-1.14a14,14,0,0,0-5.59-.29c-.69.1-1.23.28-1.85.42A6.61,6.61,0,0,1,26.32.69,15.92,15.92,0,0,0,21,2a3.44,3.44,0,0,0-1.23,1,3.65,3.65,0,0,0-1.19-1A15.55,15.55,0,0,0,13.11.67a7.34,7.34,0,0,1,2.08,1.6Z"/><path class="cls-2" d="M7.66,9.75A8,8,0,0,1,8.8,8.3c.11-.1.21-.25.33-.35a8.88,8.88,0,0,1,3-1.64,11.94,11.94,0,0,1,2.17-.39,2,2,0,0,0-1.2-.59c-2.38.36-5.95,2.75-7.73,4.55a4.57,4.57,0,0,0-.44.44c-.29.35-.58.67-.86,1a16.11,16.11,0,0,0-3.21,10c.14-.11.84-1.24,1-1.5a8.64,8.64,0,0,0,1-1.48,13.13,13.13,0,0,1,3.36-4,26,26,0,0,1,4.58-2.79c-1.62.16-4.69,1.67-6.1,2.42a8.72,8.72,0,0,1,1.82-2.1A15.15,15.15,0,0,1,11.61,9.1L11.9,9l.28-.14a16.15,16.15,0,0,0-4.52.87Z"/><path class="cls-2" d="M27.3,8.91l.05,0c.23.13.06,0,.53.18a16.48,16.48,0,0,1,3.72,1.76c.93.6,2.88,2.2,3.16,3.09-1.43-.75-4.46-2.26-6.1-2.42.26.18,2.07,1,3.21,1.77a18.34,18.34,0,0,1,2.69,2.22,22.17,22.17,0,0,1,2.54,3.63l1.51,2.15A16.14,16.14,0,0,0,37.42,15a14.87,14.87,0,0,0-2.88-4.63c-.17-.21-.28-.27-.47-.47a18.63,18.63,0,0,0-6.29-4.09c-1.28-.49-1.66-.67-2.61.16.35.07.78.07,1.16.14A8.49,8.49,0,0,1,30,7.7a8.06,8.06,0,0,1,1.8,2.05,16.15,16.15,0,0,0-4.52-.87l0,0Z"/><path class="cls-2" d="M8.49,30.9a15,15,0,0,1,.74-6.36c-.16.42-.43.89-.61,1.41a15.18,15.18,0,0,0-.46,8.87,6,6,0,0,0,1.4,2.67,12,12,0,0,1,.18-5.07,15.54,15.54,0,0,0,1.17,4.18,12.61,12.61,0,0,0,1.54,2.5c.23.27.36.54.66.68A7.9,7.9,0,0,1,13,36,14.38,14.38,0,0,1,14,32.76c-.23.1-.18.12-.35.32s-.14.19-.24.33a11.29,11.29,0,0,0-1,2.52c-.17-3.33.74-5.16.79-6-1.21,1.2-1.55,3-1.83,3.4-.23-2.43.36-3.74.68-5.67-.52.15-.93.94-1.21,1.52L10,31.05s0,0,0,.05a14.65,14.65,0,0,1,.55-4.42c.1-.33.34-.86.4-1.13a7.75,7.75,0,0,0-2,3.82,13.31,13.31,0,0,1-.4,1.53Z"/><path class="cls-2" d="M30.21,24.54a16.86,16.86,0,0,1,.69,3A12,12,0,0,1,31,30.9a.11.11,0,0,1,0,0l0-.05-.09-.31a9.2,9.2,0,0,0-2.26-4.94c.06.28.31.83.42,1.18a14.63,14.63,0,0,1,.53,4.37l-.41-1c-.28-.73-.89-2.25-1.6-2.45.21,1.27,1,4.13.67,5.64,0,0,0,0-.07-.11a13.7,13.7,0,0,0-1.19-2.59,3.48,3.48,0,0,0-.56-.67c0,.22.5,2.05.61,2.82a16.44,16.44,0,0,1,.18,3.22c-.08-.17-.82-2.8-1.64-3.17.17.53.39.93.56,1.55s.28,1.13.38,1.69a8.06,8.06,0,0,1-.1,3.79c.3-.16.44-.43.69-.73a12.47,12.47,0,0,0,1.51-2.46,15.54,15.54,0,0,0,1.17-4.18,12,12,0,0,1,.18,5.07,3.82,3.82,0,0,0,.85-1.2c1.19-2.37,1.24-6.28.57-8.8a17.77,17.77,0,0,0-1.09-2.95Z"/><path class="cls-2" d="M24.34,30.83a1.48,1.48,0,0,1,.67.11,1.54,1.54,0,0,0-.35-.66,4.7,4.7,0,0,0-.51-.49,1.33,1.33,0,0,0-.67-.34,4.66,4.66,0,0,1-.75-.23l.12.33a10.66,10.66,0,0,1-1.41-.86c.12.26.29.49.4.75-.36-.08-.94-.7-1.29-.88l.12.57c-.39-.22-.73-.61-1-.72-.23.11-.56.49-1,.72l.14-.57c-.35.18-.93.79-1.3.88.12-.25.28-.5.41-.75a10.66,10.66,0,0,1-1.41.86l.11-.33a4.56,4.56,0,0,1-.79.24,2.45,2.45,0,0,0-1.48,1.47l.67-.11a3.27,3.27,0,0,0-.16,1.06c.36-.16.4-.42.81-.52a2.05,2.05,0,0,0,.18,1.48c.28-.25.2-.49.81-.92a3,3,0,0,0,1,1.62l0,0c.3-.36.38-.67.85-.85.76.67.8,1.08,1.13,1.32.35-.26.36-.67,1.13-1.32.44.16.53.44.79.77l.1.11a3,3,0,0,0,1-1.62,1.67,1.67,0,0,1,.61.65c.12.18,0,.13.2.27a2.23,2.23,0,0,0,.18-1.48c.41.1.48.4.81.52a3.17,3.17,0,0,0-.16-1.05Z"/><path class="cls-2" d="M21.5,7.5c1.25-.2,3.45-.78,4.87,0-1.25.3-2.74.11-4.18,1.24a4.57,4.57,0,0,0-1.25,1.45,9.19,9.19,0,0,0-.83,1.84c.19-.19.25-.31.42-.48C22.34,9.88,24.21,8.44,27,8.18A7.68,7.68,0,0,1,30,8.56a7.25,7.25,0,0,0-3.84-1.9,7.07,7.07,0,0,0-4.69.84Z"/><path class="cls-2" d="M13.07,7.55a5.05,5.05,0,0,1,2.43-.43,15.8,15.8,0,0,1,2.44.38,6.73,6.73,0,0,0-2.08-.8A7.25,7.25,0,0,0,11,7.4a6.92,6.92,0,0,0-.9.55l-.73.61a7.68,7.68,0,0,1,3.07-.38,10.59,10.59,0,0,1,6.46,3.45c.15.15.21.27.38.45a8.63,8.63,0,0,0-.82-1.84,4.77,4.77,0,0,0-3.09-2.32c-.8-.21-1.61-.19-2.34-.37Z"/><path class="cls-2" d="M32.4,5.06a1.73,1.73,0,0,1,.68,1.53l0,0,0,0,0-.08c.1-.19.06-.26.2-.45a3.64,3.64,0,0,1,.29,1.84c0,1.05-.16.56.65,1.3a12.75,12.75,0,0,0,.1-3.1,2.58,2.58,0,0,0-1.1-2.18c-1.28-.65-2.85,1-4.49,1.71a2.56,2.56,0,0,0,.64.32c.33.14.29.2.53,0a2.25,2.25,0,0,1,1.38-.49l-.26-.2a2.23,2.23,0,0,1,1.4.37l-.13-.52Z"/><path class="cls-2" d="M5.11,9.13a6.42,6.42,0,0,0,.69-.61A4.87,4.87,0,0,1,6,6c.16.19.11.29.23.49l.09.11A1.74,1.74,0,0,1,7,5.06l-.13.52a2.41,2.41,0,0,1,1.4-.37l-.26.2a2.27,2.27,0,0,1,1.38.49c.24.18.19.12.53,0a2.56,2.56,0,0,0,.64-.32,20.28,20.28,0,0,1-2.09-1.2C6.64,3.18,5.28,3.54,5,6A12.75,12.75,0,0,0,5.11,9.13Z"/><path class="cls-2" d="M35.11,6.83c0,1.1-.11,1.87-.23,2.91.58.4,1,1.36,1.58,1.63a10.56,10.56,0,0,1,1.89,1.29A17.36,17.36,0,0,0,36.94,9.5a14.26,14.26,0,0,0-1.83-2.67Z"/><path class="cls-2" d="M1.09,12.66A10.21,10.21,0,0,1,3,11.37c.37-.18.21-.1.44-.38A8.75,8.75,0,0,1,4.56,9.74c-.12-1-.2-1.81-.23-2.91A13.91,13.91,0,0,0,2.47,9.54,17.89,17.89,0,0,0,1.09,12.66Z"/><path class="cls-2" d="M21.88,4.78a20.09,20.09,0,0,1,3-.21c-.41.2-1.08.37-1.56.57-1.23.5-3.12,1.76-3.47,3l.72-.74a5.16,5.16,0,0,1,.86-.58,7.9,7.9,0,0,1,2.19-.77c.25-.06,1.59-1.16,2.68-1.67a7.2,7.2,0,0,0,1-.47c-2.57-.25-3.44.33-5.47.85Z"/><path class="cls-2" d="M12.08,3.93A16.47,16.47,0,0,1,14.9,5.47a3.59,3.59,0,0,0,.91.6,6.1,6.1,0,0,1,3.4,1.7l.37.39c-.35-1.25-2.23-2.51-3.42-3C15.65,5,15,4.77,14.55,4.57a11.87,11.87,0,0,1,1.58,0c.45,0,1,.17,1.43.17-2-.52-2.9-1.1-5.48-.85Z"/><path class="cls-1" d="M15.29,16.47c.17.24.33.32.27.76C14.44,18.31,13,16,14.7,16.13c-.1.19-.34.54,0,.73C15.13,17.16,15.2,16.66,15.29,16.47Zm-1.48-1.14c-.49.08-.64-.13-.87-.41s-.27-.63-.46-.94A1.34,1.34,0,0,0,13,15.56c-.07.09-.16.18-.24.27.72-.11.68-.45,2-.15.31.06.42.09.56.3-1.53-.62-1.61.16-2.28.42l-.37.12c.2.29.4.29.84.23a1.23,1.23,0,0,0,1.16.9c.23,0,.82,0,.93,0s.31.36.56.45a3.58,3.58,0,0,0-.25-1.65A2.47,2.47,0,0,1,16,14.7c-.39.23-.39.57-.66.91-.31-.29-.21-.88-.19-1.37-.17.14-.08,0-.18.23s-.22.53-.37.77l0,0c-.17,0-.13,0-.25-.21a4.37,4.37,0,0,1-.18-1.13,1.93,1.93,0,0,0-.31,1.39Z"/><path class="cls-1" d="M24.74,16.13c1.7-.17.26,2.18-.86,1.1-.06-.44.1-.52.27-.76.1.2.12.63.58.42S24.84,16.33,24.74,16.13Zm.14-.85c-.23-.27-.25-.78-.58-1,0,.49.12,1.08-.19,1.37-.27-.35-.27-.68-.66-.91a2.53,2.53,0,0,1,.09,1.68,3.74,3.74,0,0,0-.27,1.69c.24-.09.31-.35.52-.43s.72,0,1,0a1.24,1.24,0,0,0,1.16-.9c.44.06.64.06.84-.23,0,0,0,0,0,0l-.29-.08c-.75-.26-.69-1.06-2.32-.44a.7.7,0,0,1,.51-.29,3.42,3.42,0,0,1,.7-.12c.62-.05.84.19,1.32.26l-.25-.26A1.36,1.36,0,0,0,27,14c-.18.3,0,.38-.46.94a.79.79,0,0,1-.87.41,1.93,1.93,0,0,0-.31-1.39c-.05.5,0,1.2-.44,1.34Z"/><path class="cls-2" d="M18.86,25.84c.1.24.49.65.72.35s-.11-1.25.14-1.7c.3.53-.19,1.91.34,1.81a.73.73,0,0,0,.52-.46c-.12-.23-.33-.37-.14-.72a2.05,2.05,0,0,1,1.2-.95c.48-.06.33.23.63.36.4-.69-.17-.84-.83-.75a7.7,7.7,0,0,1-3.55,0c-.9-.1-1.09.54-.63.76.18-.28.18-.44.64-.33a1.6,1.6,0,0,1,.63.38c.83.73.5.94.33,1.27Z"/><path class="cls-1" d="M22.92,19.78a1.53,1.53,0,0,0-.89-.32.56.56,0,0,0,.11.11,2.2,2.2,0,0,1,1.32,2c-.17-.14-.18-.23-.41-.38a1,1,0,0,0-.61-.2c.94,1,1.14.65.95,2.38.55-.53.5-1.95.25-2.77l-.88-2.55C22.54,18.77,22.85,19.17,22.92,19.78Z"/><path class="cls-1" d="M16,23.37c0-.6-.18-.86.08-1.44.19-.43.57-.62.88-.94-.64,0-.79.44-1,.64a2.62,2.62,0,0,1,.43-1.33c.48-.61.77-.55,1-.84a1.59,1.59,0,0,0-.9.32c.09-.62.38-1,.17-1.74l-.87,2.51A3.24,3.24,0,0,0,16,23.37Z"/><path class="cls-1" d="M17.1,17.56a5.61,5.61,0,0,1,1.42-.43c.9-.05.79.39,1.2.71.42-.33.3-.76,1.2-.71a5.61,5.61,0,0,1,1.42.43A2.14,2.14,0,0,0,19.76,17l0,0c-.2-.14-.23-.26-.63-.28A2.4,2.4,0,0,0,17.1,17.56Z"/><path class="cls-2" d="M24.74,16.13c.1.2.35.59,0,.76s-.48-.22-.58-.42c-.17.24-.33.32-.27.76C25,18.31,26.44,16,24.74,16.13Z"/><path class="cls-2" d="M15.29,16.47c-.09.19-.16.69-.63.39-.3-.19-.06-.54,0-.73-1.7-.17-.26,2.18.86,1.1C15.62,16.79,15.46,16.71,15.29,16.47Z"/></g></g></g></svg>