<svg xmlns="http://www.w3.org/2000/svg" viewBox="0 0 64.86 57.48"><defs><style>.cls-1{fill:#181818;}.cls-1,.cls-2,.cls-3{fill-rule:evenodd;}.cls-2{fill:#fefefe;}.cls-3{fill:#676767;}</style></defs><g id="Слой_2" data-name="Слой 2"><g id="Слой_1-2" data-name="Слой 1"><g id="_2979010329952" data-name=" 2979010329952"><path class="cls-1" d="M46.34,39.46,46.18,41,44,38.69a6.67,6.67,0,0,1-.92-3.43c1.12.77,1.23,1.28,3.19,1.58a11,11,0,0,0,4.18-.12c.66.64,0-.22.08.42v.38a.29.29,0,0,0,0,.14,7.32,7.32,0,0,0,3.61-.15c-.1.94.15,2.92-.26,3.68s-.18.26-.43.21c-1-.22.2-.94-1.26,1.69l-.4.58s-.08.09-.12.13a1.46,1.46,0,0,1-.09-.16s-.07-.12-.09-.17l-.81-1.26C49.41,40.79,48.07,40.8,46.34,39.46ZM57.09,30l1.11.17a2.08,2.08,0,0,1-1.11,1.72ZM52,29l1.35.13A2.07,2.07,0,0,1,52,31Zm7.4-.46a3.07,3.07,0,0,1,1.73-2.9C61.26,27.2,60.56,28.26,59.39,28.53ZM50.73,16.86l-.09.59a30.08,30.08,0,0,1,6.7,2c1.58.65,5.14,2.06,3.89,4.1a.34.34,0,0,1-.13,0c-1.37,0-1.25-1.43-5.37-.38l1.3.21c.26,1.15-.32.75.42,1.37.28.23.72.19,1.1.51.79.68.35,3.77-5.58,2.37-5-1.17-6.66,1.24-9.69,2.63,1.12-2.46,3.89-4.81,6.3-6.21a8.55,8.55,0,0,0-7.09,3.44,6.22,6.22,0,0,1,1.9-4c1.73-1.76,1.75-1.1,3.9-2-4.62-1.15-10.58,3.15-10.3-1.77-1.3,1.29-1.26,2.48,0,3.73-4,2.18-1.43.46-3.77,3.19-1.08-1.59-.25-4.94.22-6.62-3.21.25-5.06-.12-3.7-3.25a5.31,5.31,0,0,0-2.44.92l.79-1.93a9.39,9.39,0,0,0-4.39,2c0,1.94,2.65,3.28,4.87,3.54a6.77,6.77,0,0,0-.82,4.4c-1.19-.79-1.47-1.68-1.24-3.66a6.79,6.79,0,0,1-4.4-2.66C21.62,17.4,23.8,16,25,15.2a19,19,0,0,1,10.92-3c-.89-1.08-3.49-1.6-4.95-2l-1.53-.62c4.63-.4,15.11,1.14,18.3,4,1.54,1.4.57-.22,1.79.89a3.68,3.68,0,0,1,1.23,2.29ZM8.68,3.11c1.62,3.5,7.05,5.27,11,5.3,1.66,0,3.54-.46,4.84-.42-3.17,1.13-4.06,2.28-9.6,2.24-4.61,0-6.26-1.06-9.2-2.94L6.6,10C2.69,9.15,1.44,6.84,0,5.39c.76,5.18,4.87,9,10.45,9.68a18.52,18.52,0,0,1-1.38-2.89c1.86.87,2.52,2.79,9.37,4.06a5.55,5.55,0,0,1-2.23.6,17.45,17.45,0,0,1-7-.23c1.23,1.52,1.52,1.85,4.11,2.49A13.17,13.17,0,0,0,9.49,24,20.61,20.61,0,0,0,8.1,31.77l.63-.87c.25-.41.27-.48.52-.83,1-1.42,2.84-3.62,4.3-4.28C13.07,27.08,12.28,28,12,29.63A28.24,28.24,0,0,0,14.63,28c1-.58,1.88-1,2.93-1.6a23.08,23.08,0,0,1,6.72-2.44c-1.77,3.83-11,11.53-3,25.47a15.76,15.76,0,0,0,2.1,3c-.52-4.3-.56-7.12.75-11.12.78-2.38,3-6.79,4.59-7.57a7.07,7.07,0,0,0,.8,4c.73-.61,3.21-6.24,7.7-7.25-.62,2.59-1.52,4.15-1.85,7.31a40.11,40.11,0,0,0,.13,8.56c-1.44-1.7-1.56-2.8-2.18-3.59-.89,2-.7,6.11-.27,8.22a13.44,13.44,0,0,0,3,6.47c2.34-1,10.92-8.7,11.75-10.41-2.28-2.16-2.94-1.44-3.32-3.73l3.62.93,0-.51s0-.09,0-.13c.9.39,1.21,1,1.65,2A10.79,10.79,0,0,1,50.16,47a2.79,2.79,0,0,0,.68,1.48c.74-1.35,1.93-2,3.17-4.78.62.32.17.11.57.88,2.38-4.29.91-4.94,1.53-9l-3.06.47c-.28-.84.14-.26.05-1-.21-1.79-1.77-1-3.21-.79.81-2.5.21,0,2.64-1.59.52-.33,2.75-2.8,2.85-1.86,0,.26.37-.33.12,3.38a7.89,7.89,0,0,0,2.62-1.14,11.21,11.21,0,0,0,1.83-2c1.39-1.53,2.42-1.55,3.2-4.29a5.18,5.18,0,0,1,1.21-2.41,2.48,2.48,0,0,0,0-2.94c-1.56-2.05-7.3-4.58-9.79-5.19-1.89-.46-1.18,0-2-1.57-.63-1.15-1.1-1.27-1.81-2.07-.83-1,.59-2.45-2.4-4.61-1-.75-3.68-2.12-5.18-2.11L44,7.81a43.53,43.53,0,0,0-6.38-5.62C27-5,20.29,8.16,8.68,3.11Z"/><path class="cls-2" d="M42.78,15.42a6.12,6.12,0,0,0,1.87-.22c1-.38,2.91,1.42,3.16,2l-3.34.11c.29-1.36.22-.85-1.69-1.87Zm7.86,2-.51-.2.6-.39a3.68,3.68,0,0,0-1.23-2.29c-1.22-1.11-.25.51-1.79-.89-3.19-2.9-13.67-4.44-18.3-4l1.53.62c1.46.37,4.06.89,4.95,2A19,19,0,0,0,25,15.2c-1.17.83-3.35,2.2-1.86,4.24a6.79,6.79,0,0,0,4.4,2.66c-.23,2,0,2.87,1.24,3.66a6.77,6.77,0,0,1,.82-4.4c-2.22-.26-4.84-1.6-4.87-3.54a9.39,9.39,0,0,1,4.39-2l-.79,1.93a5.31,5.31,0,0,1,2.44-.92c-1.36,3.13.49,3.5,3.7,3.25-.47,1.68-1.3,5-.22,6.62,2.34-2.73-.25-1,3.77-3.19-1.26-1.25-1.3-2.44,0-3.73-.28,4.92,5.68.62,10.3,1.77-2.15.88-2.17.22-3.9,2a6.22,6.22,0,0,0-1.9,4,8.55,8.55,0,0,1,7.09-3.44c-2.41,1.4-5.18,3.75-6.3,6.21,3-1.39,4.72-3.8,9.69-2.63,5.93,1.4,6.37-1.69,5.58-2.37-.38-.32-.82-.28-1.1-.51-.74-.62-.16-.22-.42-1.37l-1.3-.21c4.12-1.05,4,.39,5.37.38a.34.34,0,0,0,.13,0c1.25-2-2.31-3.45-3.89-4.1A30.08,30.08,0,0,0,50.64,17.45Z"/><path class="cls-2" d="M46.18,41l.16-1.52c1.73,1.34,3.07,1.33,4.35,2.75l.81,1.26c0,.05.07.13.09.17a1.46,1.46,0,0,0,.09.16s.1-.17.12-.13l.4-.58c1.46-2.63.24-1.91,1.26-1.69.25.05,0,.5.43-.21s.16-2.74.26-3.68a7.32,7.32,0,0,1-3.61.15.29.29,0,0,1,0-.14v-.38c0-.64.58.22-.08-.42a11,11,0,0,1-4.18.12c-2-.3-2.07-.81-3.19-1.58A6.67,6.67,0,0,0,44,38.69Z"/><path class="cls-1" d="M29.59,52.48c-.43-7.29-.66-2.57.14-10.64-1.95,1-4.5,6.53-2.29,8.64.38.36.61.69,1,1.05s.77.57,1.15.95Z"/><path class="cls-1" d="M13.15,32.11a9.33,9.33,0,0,0,.5,2l.71,1.32a1.27,1.27,0,0,0,.36.32A24.44,24.44,0,0,0,15.8,33c.37-.89.88-1.85,1.14-2.67a15.21,15.21,0,0,0-3.79,1.78Z"/><path class="cls-1" d="M42.78,15.42c1.91,1,2,.51,1.69,1.87l3.34-.11c-.25-.56-2.15-2.36-3.16-2a6.12,6.12,0,0,1-1.87.22Z"/><path class="cls-2" d="M59.39,28.53c1.17-.27,1.87-1.33,1.73-2.9A3.07,3.07,0,0,0,59.39,28.53Z"/><path class="cls-2" d="M52,31a2.07,2.07,0,0,0,1.35-1.87L52,29Z"/><path class="cls-2" d="M57.09,31.89a2.08,2.08,0,0,0,1.11-1.72L57.09,30Z"/><polygon class="cls-3" points="50.64 17.45 50.73 16.86 50.13 17.25 50.64 17.45"/></g></g></g></svg>