<svg xmlns="http://www.w3.org/2000/svg" viewBox="0 0 39.19 28.51"><defs><style>.cls-1{fill:#010101;}.cls-1,.cls-2{fill-rule:evenodd;}.cls-2{fill:#fefefe;}</style></defs><g id="Слой_2" data-name="Слой 2"><g id="Слой_1-2" data-name="Слой 1"><g id="_2979802481088" data-name=" 2979802481088"><path class="cls-1" d="M31.87,24.34l-.19-.63c.68-.12.7-.15.94.38C32.36,24.34,32.37,24.41,31.87,24.34ZM6.56,24.09c.24-.58.28-.52.9-.36l-.08.48-.08.11C6.7,24.45,6.91,24.46,6.56,24.09Zm28.63.51-.29-1a4.5,4.5,0,0,1,.43-.36,1.78,1.78,0,0,1,.54-.3l.36,1-1,.66ZM3.26,22.92a3.77,3.77,0,0,1,1,.67l-.24,1c-.4-.18-.7-.4-1.05-.59l.28-1.06Zm19.76,0c.25-.85.87-.7.85.09C23.1,23.3,23.51,23.27,23,22.93Zm9.24-.9c.63-.12.36-.13.72.23-.22.59-.23.5-.9.39l.18-.62ZM6.2,22.26c.4-.41.23-.37.91-.22,0,.45.06.64-.41.69s-.39-.33-.5-.47Zm19.39-.16c-.2-1.84,4.23-1.69,4.36,0S25.77,23.67,25.59,22.1Zm-12.13.33c-.87,1.53-5,1.17-4.13-.69C10.08,20.18,14.51,20.61,13.46,22.43Zm6.22-2.13c.24.4.59.8.85,1.15a3,3,0,0,1-1,1.29,4.19,4.19,0,0,0-.84-1.1,3.28,3.28,0,0,1,1-1.34Zm4.47.64c-.14.72-.27.64-.89.37C23.37,20.58,23.5,20.5,24.15,20.94Zm-9.11,0c.45-.3.3-.42.87,0C15.79,21.72,15.22,21.76,15,20.94Zm22.63-3c-.14-.79-.08-.88.56-1.17C38.27,17.54,38.31,17.62,37.67,17.93ZM1,16.83c.67.17.61.42.51,1.1C1,17.73.78,17.45,1,16.83Zm18.23-1.36.69.09C19.93,16.3,19.28,16.22,19.25,15.47ZM9.17,14.83c-1.76-.21-3.15-.3-3.8,1A2.29,2.29,0,0,0,6.8,19.14c-.16-2.58,1.7-2.45,2.46-2.08,1.93.93-.39,5.13-4.67,3.37a3.79,3.79,0,0,1-2.18-2.88c1.34.23,1.51.69,2.41,1.05-.1-1.18-.42-3-1.13-3.68A5.32,5.32,0,0,1,1.7,16l1.4-2.33L0,14.16a5.23,5.23,0,0,0,.47,1.66c.36,1-.21.75-.06,1.58.09.47,2,1.91,2.05,4.7,0,2-1.32,1.51.86,3a10.23,10.23,0,0,1,1.2,1.14c1.05-.14,2.79-1.12,6.85-1.63,5.71-.72,14.27-.71,19.91.6,1.14.27,2.49.92,3.39,1,1-1.23,2.13-1.54,2.34-2.1s-.75-2.76.62-5.23c.32-.57.87-.82,1-1.21.4-.91-.25-.91,0-1.79a6.61,6.61,0,0,0,.52-1.74l-3.08-.56L37.55,16a3.91,3.91,0,0,1-2-1.07c-.73.76-1,2.72-1.18,3.68.69-.12,1.09-.77,2.44-1a4.23,4.23,0,0,1-6.26,2.74c-.76-.47-2.11-2.33-.7-3.18.36-.21,2.76-1,2.56,2C34.93,18.2,35,14,30,14.85c.25-1.48.69-2.85-.37-4.08a3.41,3.41,0,0,0-2,3.87c-1.07-.37-2.34-1.35-3.62-.09s.24,2.82.62,3.23c.14-.14.06,0,.21-.31a2.63,2.63,0,0,0,.15-.35c1.15-2.36,4.88.67,1.24,2.33-2.15,1-5.53.11-5.92-2.87,1.12.27,1.26.77,2.23,1l0-3.66c-1,.18-1,.76-2,1.17l1.17-2.73-4.22,0L18.71,15c-1.41-.45-.76-.9-2.12-1.13v3.66c1.08-.19,1-.68,2.21-.95-.16,2.28-2.86,4.14-5.75,2.9-3.84-1.63-.14-4.65,1-2.47.25.45.11.47.52.81.33-.6.77-.69,1-1.43a1.9,1.9,0,0,0-.43-1.82c-1.3-1.28-2.43-.39-3.6.07a3.53,3.53,0,0,0-2-3.89c-1.09,1.08-.62,2.66-.39,4.07Z"/><path class="cls-1" d="M5.49,26.74c2.6,2.34,25.69,2.36,28.21,0C32.51,24,6.58,24,5.49,26.74Z"/><path class="cls-1" d="M20.58,6.71c-1,.41-1.59.38-2.25-.34a2.57,2.57,0,0,1,1.3-.13l.55.13c.51.23.22.13.4.34ZM20.1,4.42c.57.27.59.2.87.77l-1,.2.13-1Zm-1.82.63a1,1,0,0,1,1-.62v.93Zm1-3.06c-.71-.14-.91-.52-1.76-.68l0,2.12c.92-.15,1-.45,1.77-.58v1c-.92.43-1.71.56-1.8,1.72a1.86,1.86,0,0,0,1.87,1.85A2.06,2.06,0,0,0,21.67,6c.27-1.39-.75-1.65-1.62-2.14l0-1c.71.21,1,.59,1.75.57V1.57c-.66,0-1.09.4-1.77.64.07-1.34.73-1.09.94-2.2H18.36c.16,1.12.77,1,.92,2Z"/><path class="cls-1" d="M21.11,11.71c1-.09.73-.52,1-1.44.21-.62.5-1.11.7-1.66a28.83,28.83,0,0,1,10.76,4,8.37,8.37,0,0,0,1.25.82c.39-.41.29-.2.56-.69-1.74-.86-2.52-1.83-5.75-3.1a24.34,24.34,0,0,0-7.29-1.89c-.47.55-1.85,3.2-1.25,4Z"/><path class="cls-1" d="M3.81,12.74c.74,1.54.76-.05,5.42-2.06a26,26,0,0,1,7.14-2.07c.17.57.48,1.05.69,1.68.3.91,0,1.34,1,1.42.56-.76-.79-3.37-1.24-3.94A23.4,23.4,0,0,0,9.67,9.59C6.18,11,5.93,11.65,3.81,12.74Z"/><path class="cls-2" d="M13.46,22.43c1-1.82-3.38-2.25-4.13-.69C8.44,23.6,12.59,24,13.46,22.43Z"/><path class="cls-2" d="M25.59,22.1c.18,1.57,4.51,1.85,4.36,0S25.39,20.26,25.59,22.1Z"/><path class="cls-2" d="M19.68,20.3a3.28,3.28,0,0,0-1,1.34,4.19,4.19,0,0,1,.84,1.1,3,3,0,0,0,1-1.29c-.26-.35-.61-.75-.85-1.15Z"/><path class="cls-1" d="M23.12,6.15c-.31.16-.3-.05-.48.44s.54,1.24,1.36,1c1.13-.4.31-2-.88-1.39Z"/><path class="cls-1" d="M14.75,6.36l-.08.86c1,.58,2.12.52,1.8-.89a1.29,1.29,0,0,0-1.72,0Z"/><path class="cls-1" d="M25.32,6.77a1.17,1.17,0,0,0,.27,1.16c1.07.2,1.37,0,1.38-1a1.41,1.41,0,0,0-1.65-.17Z"/><path class="cls-1" d="M13.87,6.76l-1.1-.24C11,8,14.29,9,13.87,6.76Z"/><path class="cls-1" d="M18.91,8.09c-.38,1.09.91,1.27,1.32.74S20,7.31,18.91,8.09Z"/><path class="cls-1" d="M11.49,7.83a1.15,1.15,0,0,0-1.19-.28C9.17,8.89,11.67,9.4,11.49,7.83Z"/><path class="cls-1" d="M27.7,8.51c1.11.64,2.14-.17,1.06-1C27.87,7.45,27.62,7.68,27.7,8.51Z"/><path class="cls-1" d="M9.35,9.31l.05-.8C7.52,7.7,7.47,10.16,9.35,9.31Z"/><path class="cls-1" d="M29.73,9l.29.45c1.62.25,1.64-1.28,0-1.06C29.82,8.65,29.81,8.57,29.73,9Z"/><path class="cls-1" d="M6,9.6c0,.92.16,1,1.14.89C7.75,9.28,6.45,9.2,6,9.6Z"/><path class="cls-2" d="M36.23,23.94l-.36-1a1.78,1.78,0,0,0-.54.3,4.5,4.5,0,0,0-.43.36l.29,1,1-.66Z"/><path class="cls-2" d="M3,24c.35.19.65.41,1.05.59l.24-1a3.77,3.77,0,0,0-1-.67L3,24Z"/><path class="cls-1" d="M32.06,10.38c1.5.61,1.75-1.39,0-.84-.11.3-.15.05-.11.45C32,10.63,31.93,10.17,32.06,10.38Z"/><path class="cls-2" d="M18.33,6.37c.66.72,1.23.75,2.25.34-.18-.21.11-.11-.4-.34l-.55-.13a2.57,2.57,0,0,0-1.3.13Z"/><path class="cls-1" d="M20.16,10.41l.07-.72C18.42,8.87,18.67,11.3,20.16,10.41Z"/><path class="cls-1" d="M35,11.38l0-.64C33.55,9.91,33.23,12.14,35,11.38Z"/><path class="cls-1" d="M4.32,10.74l-.15.64c.68.26,1,.35,1.24-.4-.36-.51-.4-.53-1.09-.24Z"/><path class="cls-1" d="M19.15,11.1l0,.65.73,0c0-.13.42-.3,0-.66a.7.7,0,0,0-.77,0Z"/><path class="cls-1" d="M2.9,11.92c-.2.69.37.88.75.52.07-.07.4-.59-.31-.64s-.17,0-.44.12Z"/><path class="cls-1" d="M36.27,11.93s-.15-.38-.67-.06a.34.34,0,0,0-.07.58c.38.34.94.1.74-.52Z"/><path class="cls-2" d="M18.28,5.05l1,.31V4.43A1,1,0,0,0,18.28,5.05Z"/><path class="cls-2" d="M20,5.39l1-.2c-.28-.57-.3-.5-.87-.77l-.13,1Z"/><path class="cls-2" d="M7.11,22c-.68-.15-.51-.19-.91.22.11.14,0,.52.5.47s.37-.24.41-.69Z"/><path class="cls-2" d="M23.26,21.31c.62.27.75.35.89-.37C23.5,20.5,23.37,20.58,23.26,21.31Z"/><path class="cls-2" d="M7.46,23.73c-.62-.16-.66-.22-.9.36.35.37.14.36.74.23l.08-.11Z"/><path class="cls-2" d="M15,20.94c.18.82.75.78.87,0C15.33,20.52,15.49,20.64,15,20.94Z"/><path class="cls-2" d="M1.53,17.93c.1-.68.16-.93-.51-1.1C.78,17.45,1,17.73,1.53,17.93Z"/><path class="cls-2" d="M37.67,17.93c.64-.31.6-.39.56-1.17C37.59,17.05,37.52,17.14,37.67,17.93Z"/><path class="cls-2" d="M33,22.26c-.36-.36-.09-.35-.72-.23l-.18.62c.67.11.68.2.9-.39Z"/><path class="cls-2" d="M23.87,23c0-.79-.6-.94-.85-.09C23.51,23.27,23.1,23.3,23.87,23Z"/><path class="cls-2" d="M31.87,24.34c.5.07.49,0,.75-.25-.24-.53-.26-.5-.94-.38Z"/><path class="cls-2" d="M19.94,15.56l-.69-.09C19.28,16.22,19.93,16.3,19.94,15.56Z"/></g></g></g></svg>