<svg xmlns="http://www.w3.org/2000/svg" viewBox="0 0 41.8 24.11"><defs><style>.cls-1{fill:#030708;}.cls-1,.cls-2{fill-rule:evenodd;}.cls-2{fill:#f6f8f7;}</style></defs><g id="Слой_2" data-name="Слой 2"><g id="Слой_1-2" data-name="Слой 1"><g id="_2979802482960" data-name=" 2979802482960"><path class="cls-1" d="M19.13,16c.34-.64.62-.29,1.15-.83.32-.33.32-.64.62-1.07.48.33.33.72.72,1.14s.67.23,1.15.56c-.36.49-.67.2-1.16.7s-.15.72-.71,1.1c-.65-1.13-.25-1.26-1.77-1.6ZM0,12.36v1.5l2,3.82c.19.49.23,1.1.44,1.5,5.92.28,12.55-.12,18.49-.12s12.49.36,18.49.13c.39-.63.62-1.93,1.13-2.77s.81-1.63,1.28-2.51v-1.8c-.86-1.26-1.22-2.88-4.06-1.83a11.1,11.1,0,0,1-.09,2.32c-.19.78-.61,1-.57,1.64A1.94,1.94,0,0,0,40,13.77c.76-1.84-1.15-1.78-1.63-2.17.57-1.55,2.81.4,2.12,2.35A1.89,1.89,0,0,1,38.9,15.3a2.4,2.4,0,0,1-2.12-.77c-.44.61-.3.73-1.42.79.54-.86,1.33-1.23,1.66-2.7.75-3.27-2.9-6.8-6.31-4.43,0,1.13.67,1.56.79,2.63.15,1.41-.64,1.61-.48,2.88,1.68.54,3.21.06,3.59-1.42.57-2.28-1.15-2.23-2.33-2.77.74-1.15,1.95,0,2.45.48,1.88,1.86.07,4-1.3,4.65-1.54.68-2-.07-2.88-.51-.4.28-.1,0-.41.44a1.46,1.46,0,0,1-1.56.87c.18-.78.72-.85,1.21-1.54a4.94,4.94,0,0,0-.29-6.07c-1.95-2.37-5.44-2.6-7.19,0s0,6.54,3.41,6c3.19-.49,3.41-5.88-1.12-5,.48-1.88,3-.81,3.65.23a4.44,4.44,0,0,1-.13,4.43c-1.07,1.58-4,2.11-6.11,0-.55-.55-.68-1.28-1.11-1.54-.54.46-.81,2.09-3,2.71a3.85,3.85,0,0,1-4.21-1.23C11.1,9.41,16.29,6,17.22,8.85c-4.48-.81-4.39,4.64-1,5.05s5.21-3.69,3.21-6.14c-3.56-4.36-9.16,0-8.21,4.34.42,2,1.64,2.41,2,3.29-1.35.22-1.2-.68-2-1.25-.89.53-1.36,1.24-3,.43C4,12.43,8.05,7.47,9.59,9.51c-.65.37-1.27.15-1.9.78-1.3,1.29-.32,4.36,3.12,3.43.2-1-.55-1.57-.49-2.74s.78-1.6.8-2.82A3.94,3.94,0,0,0,5.39,9.44c-1.88,3.33.54,5,1.08,5.89-1.26-.09-.86-.19-1.49-.78-.68.5-.73,1-2.07.75a1.89,1.89,0,0,1-1.5-1.24c-.67-1.77,1-3.94,2.08-2.63-.18.59.12.18-.66.43-2.65.83,0,4.06,1.92,2.42.06-1.14-.6.06-.66-4a3,3,0,0,0-2.77.08C.4,11,.51,11.43,0,12.36Z"/><path class="cls-1" d="M3.12,22.7c.66,1.18,9.1,1.32,11.57,1.35h1.25c3.74.13,21.55.12,22.6-1.36-.74-.75-7.16-.19-8.64-.14-5.34.18-12.67.19-18,0-1.33,0-8.21-.72-8.78.14Z"/><path class="cls-1" d="M20.9,7.81c.47-.26.22.17.43-.58.06-.21.08-.51.12-.7.55-2.34,1.76-1.76,2.48-2.44-.17-1.19-1.08-.33-1.9-1.65a5.38,5.38,0,0,1-.53-1.23C21.29.55,21.4.26,20.9,0c-.37.45-.58,1.61-1.15,2.41C18.92,3.56,18,3.07,18,4.23c1.06.44,1.38.21,2,1.18a4.15,4.15,0,0,1,.61,1.82Z"/><path class="cls-1" d="M13.23,20.91l-.65.86,7.11.08L18.87,21c.36-.59.48-.43.77-1l-7,0Z"/><path class="cls-1" d="M31.48,20.77l-.63,1A30.64,30.64,0,0,0,39.28,21c-.25-.53-.15-.54-1.66-.71C35.53,20.05,33,20,30.88,20l.6.77Z"/><path class="cls-1" d="M22.59,20.93l-.63.88,6.43,0c-.15-.44-.39-.53-.62-.92l.7-.91H22C22.17,20.61,22.22,20.37,22.59,20.93Z"/><path class="cls-1" d="M2.39,20.71c.3.64.74.57,1.48.68l6.25.36-.73-1,.78-.71a28.33,28.33,0,0,0-7.78.67Z"/><path class="cls-1" d="M29.37,5.86c1.27.58.6.76,1.22,1.48.38-.36.25-.74.66-1.14s.8-.19,1.17-.71c-.41-.28-.76-.29-1.14-.72s-.23-.66-.76-1c-.22.39-.2.71-.59,1.12s-.61.27-1.11.61c.3.51-.12.07.55.37Z"/><path class="cls-1" d="M9.45,5.65c.51.33.74.17,1.18.63s.2.66.62,1.09c.44-.46.17-.69.72-1.16s.81-.14,1.08-.78c-1.69-.32-1.05-.73-1.8-1.58l-.42.58c-.67,1.15-.81.51-1.38,1.22Z"/><path class="cls-2" d="M19.13,16c1.52.34,1.12.47,1.77,1.6.56-.38.21-.59.71-1.1s.8-.21,1.16-.7c-.48-.33-.74-.13-1.15-.56s-.24-.81-.72-1.14c-.3.43-.3.74-.62,1.07-.53.54-.81.19-1.15.83Z"/><path class="cls-1" d="M2.44,8.24c1.65.63.7.6,1.6,1.4.4-.9.32-1.12,1.42-1.36-.27-.46.08,0-.25-.26s.53.31-.21-.12c-.91-.53-.43-.29-1-1.17-.56.39-.27.53-.74.92s-.48.07-.84.59Z"/><path class="cls-1" d="M37.94,9.53c.88-1.75.66-.72,1.44-1.47a8.76,8.76,0,0,1-.88-.56c-.4-.37-.24-.4-.56-.86-.22.16,0,0-.23.24l-.11.2c-.18.32,0,.18-.3.5s-.51.21-.89.48c.68.7.51-.24,1.24,1.1.18.32.09.2.29.37Z"/></g></g></g></svg>