<svg xmlns="http://www.w3.org/2000/svg" viewBox="0 0 41.02 22.86"><defs><style>.cls-1{fill:#2b2a29;fill-rule:evenodd;}</style></defs><g id="Слой_2" data-name="Слой 2"><g id="Слой_1-2" data-name="Слой 1"><g id="_2979802494000" data-name=" 2979802494000"><path class="cls-1" d="M27.64,15.5A1.33,1.33,0,0,1,28.73,14a1.3,1.3,0,0,1,.38,2.58A1.33,1.33,0,0,1,27.64,15.5ZM12.21,16.58a1.27,1.27,0,0,1-1.36-1.22,1.3,1.3,0,1,1,1.36,1.22ZM21.07,12h.67A5.28,5.28,0,0,0,23,15.24a4.42,4.42,0,0,0,.83.67,5.65,5.65,0,0,1-1.52.39c-.56-1.74-1.14-1.9-1.19-4.31Zm-2.33,4.3a5.46,5.46,0,0,1-1.47-.38,2.86,2.86,0,0,0,.8-.67,5.13,5.13,0,0,0,1-1.94c.11-.4.11-.94.21-1.29l.64,0a6.17,6.17,0,0,1-.8,3.3c-.16.3-.25.72-.39,1ZM21.1,9.82a6.24,6.24,0,0,1,.5-3,25.73,25.73,0,0,0,1.11-2.38A3.43,3.43,0,0,0,21.24.54,3.37,3.37,0,0,0,20.49,0C19,1,17.64,2.5,18.31,4.47c.52,1.52,1.86,2.92,1.61,5.35H19.3c-.09-.33-.12-.79-.19-1.14C18,2.69,11.58,4.26,11.73,8a3.26,3.26,0,0,0,2.51,2.83,3.78,3.78,0,0,1,.11-2.11,1.76,1.76,0,0,1,1.31-1,2.31,2.31,0,0,1,2.41,2.22c-.55.05-1.15-.22-1.15.44,0,2-.32,1.7,1.22,1.73a2.06,2.06,0,0,1-.44,1.09,1.4,1.4,0,0,1-1.12.38,1.1,1.1,0,0,1-.91-.59,2,2,0,0,1-.23-1.28A2.81,2.81,0,0,0,14,13.85c-.19-.11-.24-.23-.38-.38a4.68,4.68,0,0,1-.92-1.2,1.08,1.08,0,0,0-.74-1.93c-.85.06-1.5,1.11-.46,2A9.24,9.24,0,0,1,9.6,15.14a4.61,4.61,0,0,1-2,1.39,2.77,2.77,0,0,1-.5.1c-.25,0-.28,0-.4.16A2.86,2.86,0,0,0,6,16.21a6,6,0,0,1-.9-.85A3.33,3.33,0,0,1,4.89,15a3.21,3.21,0,0,1-.4-.76l.46-.2.48.7a3.74,3.74,0,0,0,1,.9c1.92,1.2,3.72-.49,3.05-2a2.22,2.22,0,0,0-1.89-1.24,1.84,1.84,0,0,1,.26,1c0,1-1.44,1.27-2,.23.22-.19.59-.24.8-.46A5,5,0,0,0,6,11.76c-.47-.09-.59.2-1,.29C4.8,11,5.09,9.75,6.2,9.59a1.43,1.43,0,0,1,1.32.53,3.74,3.74,0,0,1,.61,1.19l0,.07A3.06,3.06,0,0,0,9,10.1c.85-2.53-2.36-4-4.28-2.4A2.55,2.55,0,0,0,3.88,9c-.49,1.48.07,2.36.29,3.53l-.42.19a4.83,4.83,0,0,1-.44-.94,4.24,4.24,0,0,1-.24-1.08C3,9.83,3.13,8.84,3,8.07A2.26,2.26,0,0,0,2,6.44,4.8,4.8,0,0,0,0,5.77C0,6,1.29,8.57,1.5,9c.55,1,1,2.15,1.53,3.19s1,2.16,1.54,3.2,1,2.13,1.51,3.16a.7.7,0,0,1-.3.07c0,.14,0,1.15,0,1.32.55.08,20.83,0,22.11,0,1,0,6.93.07,7.35,0V18.58l-.29,0,.77-1.61c.22-.53.52-1.05.76-1.58.49-1.08,1-2.1,1.52-3.17S39,10,39.5,9c.26-.54.52-1.07.76-1.59A15,15,0,0,0,41,5.76c-1.58.23-2.8.88-3,2.38-.11.79,0,1.77-.07,2.61a5.55,5.55,0,0,1-.67,1.95l-.44-.22A5.53,5.53,0,0,0,37.13,9c-.7-2.24-4.06-2.73-5.07-.57a2.69,2.69,0,0,0,.8,3l.09-.21c.26-.83.84-1.78,1.91-1.58A1.81,1.81,0,0,1,35.94,12c-.87-.23-.74-.89-1.48.83-.23.53.45.52.76.79a1.11,1.11,0,0,1-1.59.51.92.92,0,0,1-.47-.79c0-.52.19-.63.27-1a2.28,2.28,0,0,0-1.88,1.23c-.67,1.56,1.13,3.27,3.05,2,1.07-.7,1-1.17,1.48-1.61l.44.23a4.37,4.37,0,0,1-1,1.42,9.53,9.53,0,0,0-1.26,1.11l-.07-.17a3.5,3.5,0,0,1-1.72-.55,6.81,6.81,0,0,1-1.2-1,11.33,11.33,0,0,1-1.76-2.69,1.17,1.17,0,0,0,.48-.43,1.1,1.1,0,0,0,.13-.7,1,1,0,0,0-.86-.89,1.07,1.07,0,0,0-1.19.6,1.15,1.15,0,0,0,.26,1.28A5.61,5.61,0,0,1,27,13.87a2.84,2.84,0,0,0-1.46-2.19c0,.77-.08,1.78-1.14,1.87S23,13,22.89,12.08c1.52,0,1.27.12,1.23-1.74,0-.61-.64-.42-1.18-.42A2.32,2.32,0,0,1,25.4,7.69a1.79,1.79,0,0,1,1.28,1.06,4,4,0,0,1,.1,2.08,3.5,3.5,0,0,0,.94-.42C30.17,8.85,29.66,5.8,27,4.89a3.73,3.73,0,0,0-2.29,0C23,5.43,22.22,7.08,21.9,8.73c-.06.29-.1.82-.19,1.09Z"/><path class="cls-1" d="M6.84,21.67c.08.9-.17,1.12.13,1.18H31.89c2.67,0,2.58.25,2.55-1.19a2.3,2.3,0,0,1-.61.09h-.71V20.62a4.8,4.8,0,0,1-1.5.07H9.36a5,5,0,0,1-1.45-.07v1.12a2.86,2.86,0,0,1-1.07-.07Z"/></g></g></g></svg>