<svg xmlns="http://www.w3.org/2000/svg" viewBox="0 0 61.9 40.57"><defs><style>.cls-1{fill:#0e1011;}.cls-1,.cls-10,.cls-11,.cls-12,.cls-13,.cls-14,.cls-15,.cls-16,.cls-17,.cls-18,.cls-19,.cls-2,.cls-20,.cls-21,.cls-23,.cls-3,.cls-4,.cls-5,.cls-6,.cls-7,.cls-8,.cls-9{fill-rule:evenodd;}.cls-2{fill:#0a090e;}.cls-3{fill:#090d10;}.cls-4{fill:#04080b;}.cls-5{fill:#121314;}.cls-6{fill:#0a0e11;}.cls-7{fill:#060a0d;}.cls-8{fill:#070b0e;}.cls-9{fill:#ebeff2;}.cls-10{fill:#edf1f3;}.cls-11{fill:#eaedee;}.cls-12{fill:#eaeef1;}.cls-13{fill:#121619;}.cls-14{fill:#f2f2f3;}.cls-15{fill:#caccce;}.cls-16{fill:#caced1;}.cls-17{fill:#0b0f12;}.cls-18{fill:#e9edf0;}.cls-19{fill:#dce0e3;}.cls-20{fill:#e5e9eb;}.cls-21{fill:#dde0e1;}.cls-22,.cls-24{fill:none;}.cls-22{stroke:#2b2a29;stroke-miterlimit:10;stroke-width:0.57px;}.cls-23{fill:#2b2a29;}</style></defs><g id="Слой_2" data-name="Слой 2"><g id="Слой_1-2" data-name="Слой 1"><g id="_2979802501440" data-name=" 2979802501440"><path class="cls-1" d="M19.65,30.76l.2.11a1.43,1.43,0,0,1,.26.19c.2.16.27.25.43.37l-1.37.1A7,7,0,0,1,19.65,30.76ZM31,30.38l.5.54-1.1,0a1.86,1.86,0,0,1,.27-.33A1.25,1.25,0,0,1,31,30.38ZM8.71,29.27c.13,1.53-1.12,1.26-1.36.72a.71.71,0,0,1,.31-.94,1,1,0,0,1,1.05.22Zm5-.93c1.05-.21,1.32.1,1.13,1.06a1.61,1.61,0,0,1-.94.26C13.38,29.25,13.06,29.05,13.67,28.34Zm-1.31.49s.08-.11.09-.08.14-.12.16-.13c.17-.15.06,0,.14-.13,0,1.47.19.94.82,1.73-.89,2.37-3.66,1.3-2.69-.24.93-.12,1.21.35,1.59.89.35-1.1.44-1.18-.11-2Zm25-.45c-.89.07-1.21-.19-1-1C37.3,26.59,38.33,27.45,37.36,28.38Zm-13-.12-.15-.92a1.48,1.48,0,0,1,1-.29C26.08,27.83,25.55,28.74,24.33,28.26ZM26.15,27c.32.11.45.21.84.32a2.79,2.79,0,0,0,.25,2c.8-.55.9-1.37,2.29-1.1.44,1-.17,1.7-1.31,1.93C26.78,30.46,26,30,25.68,29c.57-1.17.63-.38.47-1.93Zm-8,0c0-.66.25-.83.86-1,.34.22.95.53.48,1.17s-1,.14-1.34-.21Zm13.53-.1a1.13,1.13,0,0,1-1.11.12.71.71,0,0,1-.17-1C31,25.17,32.13,26.28,31.63,26.91ZM20.87,23.64c-.73,1.34-.21,1-.9,1,.23-.72-.06-.12.44-.58ZM5.59,24c-.59-.26-.27-.11-.32-1C5.74,23.35,6,23.5,5.59,24Zm-1.92-.27c-.13-.71,0-.94.81-.76a.69.69,0,0,1,.11.7C4.2,24,4,23.9,3.67,23.77Zm25.18-1.7c1.14-.36.61,0,1.34-.77.49.72.48.23.46,1.37,0,1.72-.1,1.37.34,1.62.44-.38.27-1,.27-1.61,0-1.2.08-.73.48-1.4.59.77.36.45,1.33.85a2.35,2.35,0,0,1-1,1.73c-.34.26-.65.33-.82.65-.44.81.5.42-.3.68-.57-.19-.09,0-.31-.4C30.14,23.69,28.94,23.91,28.85,22.07Zm-24.12.38c-.65-.17-.55,0-.43-.78Zm-2.19.21c-.6-.62-.45-1.55.56-1.3C3.84,21.55,4,22.8,2.54,22.66Zm14.84-1.93a1.41,1.41,0,0,1,0,.41c0,.25-.07.21-.17.38l-.57-.23c.1-.54.12-.41.74-.56Zm14.09,0c-.35.7-.63.6-1.08.05a1.44,1.44,0,0,1,.59-.2A.81.81,0,0,1,31.47,20.7ZM1.52,19.45a.82.82,0,1,1,1,1.33,1,1,0,0,1-1.29-.31C.74,19.58,1.49,19.46,1.52,19.45Zm14.68,0c.83-.32,1-.26,1,.58C16.57,20.28,16.09,20.53,16.2,19.48Zm14.22.37c-.08-1,1.1-1.12,1,.1Zm-15.19.76-.31-1.5c.75.35.48.17.65.9a1.89,1.89,0,0,0,.55.83Zm2.15-2.68c.27.35.51.91.74,1.28.32.54.54.5.83,1.13A3.88,3.88,0,0,0,17.86,20c-.1-1.55-.65,0-.48-2.06Zm-2.06-.09c.88-.67,1.57-.17,1.32.85l-.94.19-.43-.39.05-.65ZM2.89,18.91a7.57,7.57,0,0,0,.71-1A7.19,7.19,0,0,0,4,21.27c-.22-.16-.5-.36-.72-.54a2,2,0,0,0-.43-1.82Zm28.59-.51c-1.15.34-1.62-.55-1.11-1S32.05,17.19,31.48,18.4ZM1.28,16.68c1.28-.72,2.37,1.11,1.12,1.8S-.23,17.53,1.28,16.68ZM14.74,15.5c.61-.17,1.3-.32,1.52.4S15.81,17,15.07,17C14.45,16.33,14.43,16.34,14.74,15.5ZM3.32,16.68a10.49,10.49,0,0,0,.88-.63L3.6,17.4l-.28-.72ZM30.44,15.2a.81.81,0,1,1,1.12,1.17,1,1,0,0,1-1.33-.11C29.8,15.67,30.19,15.4,30.44,15.2ZM14.65,18.52c-1.21-1.12-1.12-2.44-.58-3.81l.38.32c-.67.84-.74,1.55.15,2.26C14.91,17.53,14.78,17.59,14.65,18.52ZM2,14.07c1.48-1,2.64,1.24,1.28,1.91S.52,15.06,2,14.07Zm3.52.26a8.43,8.43,0,0,0-1.09,1.33l.07-1.15Zm2.11,8.49c-.57-.57-.83-.53-1.36-1.22A6.18,6.18,0,0,1,5.41,20a4.48,4.48,0,0,1,.65-3.9,7.22,7.22,0,0,1,7.52-2.4c.3.64-1,1.79-.28,3.78.54,1.48,1.49,1.56,1.15,3.63a2.23,2.23,0,0,1,2.15.92l-1.27.12c-.26,1.58,2,2.6,2.2,2.85-.85-.13-1.36-1.11-2.42-1.33-.42.62-.2,1.31-.41,1.8-.12.29-.26.27-.44.73a7.23,7.23,0,0,0-.19.77c.43.38,1.2.78,1.72,1.16a2.48,2.48,0,0,0,.58,2.12c.55-.73.34-1.5,1.62-1.05A1.15,1.15,0,0,1,17,30.91c-1.13.25-1.47-.52-1.94-.94.78-1.48.21-2.57-1.74-2.17.26-.48.34-.27.52-.79a2.92,2.92,0,0,0-2-1.12,1.44,1.44,0,0,0-.72-1.61,5.72,5.72,0,0,0-2.1,1.64c-.36-1.29.16-1.2.24-2.21l-2,.8.32-1.69Zm7.25-10.1c1.57-.67,2.31,1.38,1,1.9S13.58,13.29,14.91,12.72ZM4.41,12a1,1,0,1,1,.67,1.81C3.76,14.24,2.93,12.61,4.41,12Zm2.06,11.2a5.56,5.56,0,0,1-2.25-3.5c-1.13-6.6,8.32-8,9.58-6.69A14.05,14.05,0,0,1,11.33,13c-7.89.52-8,8-4.36,9.92a5.55,5.55,0,0,1-.34,1.86C6,24.27,6.34,24,6.47,23.24ZM7.55,12.91,7.48,13l-.08.07-.08.06-.09.05-1,.6.17-.84Zm0,0,.75-.77.75.32-.22.09-1.28.36Zm2.82-1.2c1,.56.72.57,1.87,0,.8.46,1,.3,1.87,0,.2.39.23.24.35.59a15.42,15.42,0,0,1-2.52-.15c-.9,0-1.65.17-2.47.17C10.05,12,9.85,12.07,10.37,11.71Zm5.38.19c.45-.47,1-1.06,1.88-.35S18,13,17.21,13.3c-.73-1.36-.94-.86-1.46-1.4Zm-9.69-.57c.66-.6,1-.64,1.63-.08L7.61,12l-.23.32-.89,0-.43-.37Zm8.64-.5c.56-.43,1.07.2.68.65-.18.2-.41.44-.78.09S14.45,11,14.7,10.83Zm-2,.55c-.34-.83.39-1.14.82-.75S13.59,11.72,12.68,11.38Zm-.82-.21c-.64.54-1.45.33-1.15-.48C10.91,10.14,11.93,10.09,11.86,11.17Zm-2.19-.78c.51,1,0,1.38-.59,1.34a.82.82,0,0,1-.72-.54c-.09-.38.1-.49.25-.83Zm9.13,1.82c-.17-.16-.08,0-.22-.26-1.09-1.67-.51-.55-1.15-1.28C18.2,9.57,20.47,10.75,18.8,12.21ZM33,11.14c-.4-.24-.45-.51-.7-1l1.35.19C33.4,10.94,33.42,10.88,33,11.14Zm-11.2-.5.4.42c.16.06,0,0,.28,0l.24-.1c-.63-.21-.23.33-.34-.7,0-.31,0-.39-.1-.68.59.16.72.3.77.95l.49.21s.06-.35.1-.48c.13-.4,0-.2.2-.2.28.48.16.15.1.75l.44.56c.88,0,.15.05.46-.26-.5-.27-.33.17-.32-.41a.33.33,0,0,1,.35-.34l0,.73.63-.07.12-.42c.33.25.26.41.1.73s-.11,0-.28.34l-.1.43a.33.33,0,0,0,0,.11l.72.25a6.5,6.5,0,0,0,.79.17l.95-1.54c0,.35,0,.35.21.57l.35.13a1.13,1.13,0,0,0-.11-1,.48.48,0,0,0-.49-.27l.74.28-.07-.48,1.3-.19-.41.95c.41-.22.22-.14.5-.09.48.09.22.1.47.29a1.16,1.16,0,0,1,1.87.63,2.82,2.82,0,0,0-1.56-.22c.43.34.11-.15.11.25,0,0-.06.15-.06.13s-.07.09-.1.14c.8,0,1.33,0,1.55.6a1.06,1.06,0,0,1-.42,1.34c-1,.56-2.23-.29-1.61-1.47a3,3,0,0,1-.36.13c-.79.11,0,.06-.34-.05A1.39,1.39,0,0,0,30,14.55c-.45,1-.89,1.35.06,2.33a1.19,1.19,0,0,0-.41,1c.09.85.48.4.37,1a2.72,2.72,0,0,0-.07,1.23c0,.49-.21.56-.46,1.06-.46-.71-.43-.72-1.18-1.09a1,1,0,0,0,0,.17l.29.26c-.29,0,.42.31-.46-.06,0,0,.07,0,.08.09l.32.33a1.39,1.39,0,0,1,.32.48c-.49.35-.58,0-.59.83,0,1.32,1.62,2.18,1.82,2.63-1-.06-1.5-1.4-2.53-1.91a8.19,8.19,0,0,0-.55.73c-.28.5,0,0-.17.41-.4,1.1-1.05.57-1.57,1.91.19.19,0,0,.24.2s.46.29.69.81c0,0-.08-.09-.09-.07s-.08,0-.1-.06a2.77,2.77,0,0,0-.26-.19,1.48,1.48,0,0,0-1.84.13c-.9.93,0,1.61.43,2.12-.73,2.15-3.77,1.6-3.22-.23.88-.42,1.22.12,1.8.14,1,0,.17-1.39.1-1.59,1-.55.41-.58,1.82-1.26a5.47,5.47,0,0,0-1.33-1.29c-.78-.62.11.14-.92-1.78a7.13,7.13,0,0,1-.78.41,6,6,0,0,1-.89.27,5,5,0,0,0,.28-2.21c-.8-.23-.4.05-1-.28l.5-1L19,18.36l-.1.27c-1.86-2.45.16-3.75,0-4.68l-.07-.34c-.61.29-.21.23-.51,0a1.7,1.7,0,0,0-.68.82,4.4,4.4,0,0,0-.38,1,6.05,6.05,0,0,0,.09,2.45,3.33,3.33,0,0,0-.77-.81c.28-.92.56-1.32-.24-2,.7-.49.52-.92,1-1.21.74-.45.82-.19,1.13-1.16.8,0,.21,0,.44.27.38-.12.05,0,.32-.13A7,7,0,0,1,21,12a11.41,11.41,0,0,1,2.89-.2c-.2-.23-.11-.45-1.21-.44-.64,0-2.64,0-2.72.72-.43-.32-.81-.26,0-.62,0-1.21-.17-.76-.65-1.59.76-.07.75,0,1.23.36l0,.73.61-.7-.32-.54c.79,0,.9.21.87.93ZM32.23,6.55a1.58,1.58,0,0,1,1.05.61,4.58,4.58,0,0,1,.4.49c.33.66.12.4-.12.51.39.81.44.36-.22.38l.68.32-.11.9c-2.46.05-.7-.65-5.95.05l-.1-1c.5-.24.54-.09.61-.27s.08,0,.11-.06l-.4.06.08-.46c-.36-.12-.29,0-.05-.4s.15,0,.31-.65c-.34,0-.12.1-.32-.16-.83.42-.16.36-1.24,1.66.13.42.26.22.34.91.06.43.08.35-.4.93-1.1,0-3-1.39-5.29-1.28-.62,0-1,.08-1.54.12l-2.72.68c-.75.44-.18.56-1,.82-.68-.19-.07,0-.51-.31-.77-.56-.91-.35-1.79,0-.63-.91-1-.28-1.76-.36-.42,0-.58-.48-1.45-.18l-.33.16-.1.06-.11.07c-.93-.49-1.85-.8-2.4.38-1.28-.45-2.21-.26-2.41,1-1.64-.26-2.31.16-2.48,1.74C1,13.34.42,14.31,1.09,16l-.17.14-.17.13c-1.39,1.17-.56,2,.14,2.8-.58.92-.52,2,.75,2.38-.28,1.09.15,1.65,1.31,1.87l.23.92C.7,25,2,26.89,3.32,26.46c.51-.17.5-.45.78-.79l.13-.14a17.45,17.45,0,0,1,3,3c-.29.41-.83,1-.37,1.75a1.52,1.52,0,0,0,1.87.5c.31.65.25.89.86,1.27l.29-.27c-1.49-3.34.78-3.14.94-4.18-.56-.45-1.49.18-2,.52-1.66,1-2.7-3.41-5.15-3.24-.19.26-.11.6-.45,1-1.81,0-.23-1.49,1.51-1.45,1.48,0,1.76,1.12,2.36,2.09.33-1.07.2-1.45,1.26-1.73l.37,2.27c.24.69-.11.42.55.5.6-.45-.06-2,2-2.57.22.81-.16.83.06,1.34l.52.12a2.4,2.4,0,0,1,1.34.54c-.9,1.94-1.85,1-2.3,1.81.41.73.74-.11,1.26.68-1.3-.47-2.52.35-2,1.58.45,1.06,1.61,1,2.85,1,.45.06.4.17.3-.22,0,0,0-.09,0-.07l1.08-1.65c.81.22.48.83,1.59,1.23a2.31,2.31,0,0,0,2.29-.54c1.32-1.16.12-3.14-1.89-1.92,0-1.32.82-.17,1.17-1-.22-.46.05-.23-.72-.31-1.66-.18-2.46-1-1.65-1.75.48-.42.26.11.7-.45-.3-.69-.57,0-.43-1,.59.29,2.78,2.37,2.7.12-.92-.63-1.72-.7-2.13-2l1.39-.56c.84.53.65,1.09.79,1.54.2.66-.09.29.42.46.67-.84-.47-2-.61-2.66.42.28.33.29.58.71l.65-.34a1.13,1.13,0,0,0,.09.34c.13.23.06.1.2.23a2.16,2.16,0,0,1,1.15-.49c-.24,2.51-1.87,2-1,3.31,1,.17,1,0,1.41-.64s.48-.53,1.33-.75c.12.83,0,.41-.24,1.11a1.81,1.81,0,0,1,1.3.53c.35.41.15.17.32.52-.64.25-.41.4-.89.7s-.86.09-1.06.63c.19.56.45.16.89.91-3.52-.66-2.42,1.83-1.51,2.39a2.64,2.64,0,0,0,2.39.07c.93-.32,1-.76,1.36-1.64.53.6.49,1.3,1.59,1.67a4,4,0,0,0,3-.43A1.57,1.57,0,0,0,30.05,28c-.8-1-1.88-.13-2.54.15.14-1.19.74-.42,1-1.13-.05-.66-.69,0-1.5-.27a2.51,2.51,0,0,1-1-1c1.08-.95.88-.36,1.62-.67.42-1-.68-.18,0-1.2.44.15.85.87,2.28,1.73l.1.07-.35.36-.07.09s0,.06-.07.08c-.54-.35-1.56-.93-2.4-.44.34,1,.57-.31,2.56,1.27.93.73,1.05,1.51.92,3-1,.62-1,1-2.74,1.07a3.5,3.5,0,0,1-2.87-.95c-.88.47-.84,1-2.57,1-2.92,0-2.88-2.24-2.18-4.21.39-1.11,1.73-.53,2.61-1-.3-1-2.25-.15-2.7.11-.77-.33-1.41-1.22-2.65.37l-.07.09a5.49,5.49,0,0,0-1.08-.1c-.65,0-.67-.07-.86.33.42.71,1.21-.27,2.14.65.73.73,1.18.67,1.49,1.41a2.32,2.32,0,0,1-.34,2.27c-.49.57-1.17.66-2.19.65.23.42.24-.56,0,.26-.15.51-2.08.35-2.58.61s-.06-.1-.51.43l7.11-.72A159.78,159.78,0,0,1,38.08,32l2.35.17c1.82.23,8.94.73,10.09,1.5a2.92,2.92,0,0,1,.29.26l.43.16.16-.42a.48.48,0,0,0,0-.12c-.11-.41-1.09-.56-1.52-.65a75.54,75.54,0,0,0-12.7-1.32c-1,0-1.57-.15-2.57-.14l-2.25-.17-.12,0-.1,0-.1,0c.3-.5-.25-.52.75-.22-.48-.48-1.17-.53-1.41-1.12-.6-1.54.78-3.38,2.5-3.67.79-.13.73.12.92-.44-.87-.51-1.8.2-2.45.41L32,25.59s0,0,0,0a3.83,3.83,0,0,0,1.17-.73c.3-.29.73-.75,1-1a1.78,1.78,0,0,1,.4.42c-.27.75-.38,0-.34.83.71.31.64-.3,1.64.7a2,2,0,0,1-.89,1c-.65.26-1-.11-1.52.12,0,1.05.83-.05.94,1.28-.67-.26-1.79-1-2.49-.18-1.2,1.39,1,3.3,3.28,2.76,1.15-.27,1.15-.83,1.72-1.66l.12.19a2.37,2.37,0,0,0,1.24,1.39c2.28,1,3.87-1,3.2-2.12-.45-.76-1.43-.46-2.25-.32.14-.74,1.79-.72.39-1.33-.73-.32-.56,0-1.47-1.1a2.72,2.72,0,0,1,1.62-.91c-.3-.52-.32-.27-.23-1l1.09.21s.11,0,.13,0,.22,0,.26.05l.39.12c-.33-.67-1.35-1-2.06-1.27-1,1.81-.06,1.1-.85,1.72a9.7,9.7,0,0,0-1.36,1.37c1.1.45,1.11.93,1.9,1.2-.33.62-.56.76-.28,1.69.93-.13,1.06-.54,2.13-.27.59,1.86-2.61,2.51-3.25.29l.58-.62A1.27,1.27,0,0,0,37,26.46a1.31,1.31,0,0,0-1.36,1c-.19,1,.34.93.58,1.55-.62.9-.86,1.48-2.5,1.18-1-.19-1.87-.78-1.38-1.88,1.21-.44,1.67.59,2.24,1l.35-.86a1.91,1.91,0,0,0,0-1c.65-.38.47-.18.92-.68l.83-.72c-.59-1.33-.94-.91-1.37-1.49s-.14-.95-1-1.52c-.86.46-1.44,1.73-2.45,1.9.31-.61.75-.51,1.26-1.25a3,3,0,0,0,.58-1.85l-.59-.4c.32-.7,1-.92,1.7-1.39a8.3,8.3,0,0,1-.74-1.61c-.48-.31.67.1-.51-.21l0,.7L34,20a2.24,2.24,0,0,0-1.43,1.19c-.89-.8-.43-1-.48-1.67,0-.45-.11-.29-.1-.58,0-1,.83-.37-.07-2.11a1.24,1.24,0,0,0,0-2.08c.95-.79.82-1.41.78-3a1,1,0,0,1,.78.46,1,1,0,0,1,.06-.14L33.6,12l.19-.23-.24-.16c.16-.3,0-.09.19-.31s.12-.07.22-.11l.16-.21a2.54,2.54,0,0,0,.06-.33l.74.2c.14-1-.13,0,.3.28.22-.33.24-.27.17-.56l-.17-.13-.41,0c-.15-.63-.26-.18-.22-1s0-.25.37-.83c-1.18-1.4-.25-.47-1-1.6a2.87,2.87,0,0,0-1.65-1.09c0,.08-.5.53-.08.17-.55,1-.22.29,0,.49Z"/><path class="cls-2" d="M14,36.47c.5-.38.87-.52,1.32-.92.73.38.36-.19,1.05.64L14,36.47Zm-1.66.27c.14-.5,1-.83,1.55-1A4.16,4.16,0,0,1,12.29,36.74Zm32.76-1.48c.21.23.49,0,0,.51-.09-.05-.22.15-.25-.25S45,35.32,45.05,35.26Zm-8,.37c.8-.92.28-.45,1.41-1a1.09,1.09,0,0,0,.43.55l.58.47Zm-14.24-.25a1.32,1.32,0,0,0,.6-.7c1.06.4.8.1,1.41.94l-2.37.06Zm-5.88-.1c.26.39.21.15.05.52C16.63,35.67,16.18,35.64,16.93,35.28Zm33.17-.2c.17.28.82.81.06,1-.27.06-1-.37-1.25-.48.15-.18-.1-.15.47-.38A2,2,0,0,1,50.1,35.08Zm-17.94.44c1.77-1.31,1.92,0,2.66-1.36.55,1,.59,0,1.2,1.41l-3.86,0ZM12,35.05l1,.34a2,2,0,0,1-1.22.69l-.51-.29.68-.74Zm34.45.07c-.8,0-.32.1-.49-.29,0,0-.08-.35.38,0,.28.18.08.11.11.34Zm-21.17-.5c.37.22.57.18,0,.47C24.73,34.63,25.17,34.72,25.24,34.62ZM16,35c-.54.38-.29.19-.48-.14.15-.06,0-.12.32-.08S15.86,34.73,16,35Zm20.37-.14c.15-.12-.23-.1.26-.15s.09,0,.31.15C36.56,35.25,36.56,35.15,36.33,34.83Zm8.1-.43c-.09.5.12.3-.46.46C44,34.26,43.67,34.45,44.43,34.4Zm-27,.15c.51-.38.37-.22.57.19C17.32,35,17.64,34.94,17.43,34.55ZM23,34.46a2.33,2.33,0,0,1-2.13.83c-.85,0-1.74-.49-1.44-1.36C19.8,32.82,23.12,32.25,23,34.46ZM14.2,35.65s0,0,0-.06,0-.05,0-.06c-.12-.43.15-.16-1-.6l-.73-.3-.59-.36a10.14,10.14,0,0,1,1.42.4c.52.17.88.17,1.14.61-.11.32.06.08-.25.37Zm28.24-1a2.33,2.33,0,0,1-2.34.51c-.64-.15-1.54-.67-1.17-1.54s3.93-1.15,3.51,1Zm-4.59-.63c.08.21-.13.49-.45.07,0,0,.18-.16.18-.17S37.77,33.83,37.85,34.06ZM31,33.69a3.8,3.8,0,0,1,.84.5l-.89.46-.86-.53Zm-6.81.18c.08,0,.24-.11.27.27s-.18.22-.27.27C23.83,34,23.92,34.19,24.18,33.87Zm11.33.28c-.28-.25,0-.25,0-.29.34-.13.3,0,.4.26-.21.1-.06.38-.44,0Zm-9.19-.42c.17.31.24.15,0,.51C25.71,34,25.82,34,26.32,33.73ZM45.41,34s0,.06-.06.1c-.55-.24-.47-.26,0-.46.11.16.08,0,.1.26C45.45,33.87,45.41,34,45.41,34Zm-28.57-.11c-.07,0,.18.53-.5,0,.09-.42.05-.23.27-.22C17.06,33.64,16.67,33.58,16.84,33.85ZM10.73,34c-.32-.58.31-.66,1-.75Zm35.38.11c0-.52.06-.62-.25-.89a18,18,0,0,1,3.69.58L47,34.63c-.33-.44-.23-.39-.9-.53Zm-9.38-1.21c.39.52.25.28-.15.46-.15-.18-.14,0-.08-.28S36.51,33,36.73,32.89Zm-11.24.27c-.57.47-.44.08-.55,0C25.08,32.55,25.32,32.89,25.49,33.16Zm-13.12.68A10.27,10.27,0,0,1,16,33.18c-.75,1.08.36.24-1.23,1.42ZM27.8,34c.68-.26.22.07.86-.05.06,0,.73-.3.83-.35.54-.26,1-.5,1.5-.69,2.92,1.49,2.13.84,3.18,1.06-.12.29.19.38-.55.39-.4,0-.16-.14-.67,0a4.07,4.07,0,0,0-2.12-1.28c-.68.08-2.71,2.17-3,.89Zm14,1.85c.21-.18,0,0,.31-.22,2.19-1.44.32-2.79,0-2.83l2.74.26-.6.67-.31.13c-.62.27-.69.35-.59,1.15.68.54.78.17.86,1Zm-22-3a1.47,1.47,0,0,0,0,2.78l.31.2s.08,0,.11,0l-2.54.22c.18-1.08.05-.34.69-.92.38-.34.26-.58.15-1.06C17.38,33.55,17.63,34,17,33l2.7-.21Zm17.85.43-.28-.76,1.93.09-.08.1-.93.87Zm-13-.72c-.54.86,0,.64-1,1l-.09-.09-.08-.09-.87-.75,2.07-.07Zm10.16,1.33c-1.06-.83-.91.11-3.34-1.39h4.69a2.68,2.68,0,0,1-.26.46c-.19.27-.09.16-.4.34-.56.32-.3,0-.69.58Zm-4.08-1.5c-2.71,1.94-3.72.16-3.46,2.2,1,.58,1.5.14,2.49,1l-3.81.08c.28-.86.11-.52.7-.89.3-.19.54-.28.45-.83-.17-.94-.53.09-1.27-1.48Zm16.58-.22c-.48-.13-.3-.13-.56-.36.81-.34.73.13,1.13.35A1.37,1.37,0,0,1,47.27,32.12Zm-33.21-.07a1,1,0,0,1,1.13-.21c-.17.13.15.16-.63.28-.39.06-.39,0-.5-.07Zm27.33-.61c.3-.28.52-.43.83-.77l.53.84-1.36-.07Zm.93-5c.87-.58,1.42-.4,1.51.63C42.86,27.69,42.3,27.71,42.32,26.42ZM32.79,31c-1-.3-.45-.28-.75.22l.1,0,.1,0,.12,0,2.25.17c1,0,1.56.15,2.57.14a75.54,75.54,0,0,1,12.7,1.32c.43.09,1.41.24,1.52.65a.48.48,0,0,1,0,.12l-.16.42L50.81,34c-.05,0-.17-.17-.29-.26-1.15-.77-8.27-1.27-10.09-1.5L38.08,32a159.78,159.78,0,0,0-17.52.25L13.45,33c.45-.53-.07-.13.51-.43s2.43-.1,2.58-.61c.24-.82.23.16,0-.26-.88-.28-1.38-.47-2-.74-.53.37-.72.57-1.28.94.1.39.15.28-.3.22-1.23.08-1.06.77-2.81-.21-.27-.15,0-.05-.25-.12l-.29.27c.09.42.54.49,1,.81-1.64,1.35.23,1.65.67,1.95a6.43,6.43,0,0,1-.84.81c.33.47,1,.71,1.32,1.44-.74.47-1.36.4-1.31,1.55l.48.3.54-.12c-.33-.46-.26-.13-.42-.68,3.12-2.4,21.39-2.12,27.2-1.91.89,0,1.36-.12,2-.12a6.8,6.8,0,0,1,.82.14c.45,0,0-.06.68-.32.26.14.65.83,2.87.71.87,0,.16-.07.91-.24.65.26.17.42,1,.45s.53-.16,1.34.21c0-.88-.06-.51-1.54-.76-.1,0-.28,0-.37-.08-.39-.11-.21-.05-.32-.12.41-.52-.07-.26.48-.4.7-.18.49,0,.82.15.75.43.56.71,1.3.3,0,0-.06-.12-.08-.1L48,35.86c-.45-.4-1.35-.81,1.43-1.43l-1.77,1c.64.64,1.23.65,1.69,1l.39.46c1.32-.48.49-.38,1.66-1a7.19,7.19,0,0,0-.81-1s.09-.08.11,0,.14-.06.22-.09c1.23-.49,1.37-1.18.34-1.72l.27-.32-.06-.07-.26-.22a9,9,0,0,1-1.28,0,9.07,9.07,0,0,1-.94-.26c-.87.11-.29.09-.4-.24-.57-.33-.84-.66-1.33-.95-1.34,1.16-4.19,1.19-4.57-.92a2,2,0,0,1,1.17-2.27c.4-.3.51-.61,1-.72.8-.18,1.14.22,1.54-.3-.34-.54-.79-.34-2-.24-.77-1.13-1.49-1.19-2.57-.44-.62-.27-2.15-.95-2.78-.3.26.46-.12.22.77.33.73.09,1.54.1,1.84.81.71,1.72.88,4.31-2.23,4.26a2.65,2.65,0,0,1-2.37-1.07l-.84.55c-1.27.69-2.57.28-3.47.35Z"/><path class="cls-3" d="M49.43,30.79c.42-.45.66-1.14,1.55-.74a.59.59,0,0,1,.2.95,1.77,1.77,0,0,1-1.06.58c-1.1.18-1.56-.54-1.78-1.36.15-.22,0-.06.21-.25l.6-.53a2.66,2.66,0,0,0,.28,1.35ZM53.5,29c1.26,0,1.36.89.79,1.25-.87.55-1.15-.31-1.12-.9L53.5,29Zm-6.23.57c-.57-1.09.27-1.67,1-1.2S48.69,29.83,47.27,29.57Zm1.82-1c.35.13.67,0,.27.63a1.2,1.2,0,0,1-.25.29Zm-3.72-4.1a2,2,0,0,1-.23.3c-.64.67-.76.2-.78.16ZM58.2,23.8c-1,.28-1.16-.15-.81-.86C58.28,22.92,58.44,23.11,58.2,23.8Zm.18-2.24c.75-.46,1.48-.19,1.3.84a1,1,0,0,1-1.21.18A1.56,1.56,0,0,1,58.38,21.56Zm-13.15-.27c-.46.3-.54.16-.7.16l0-.68c.66,0,.62,0,.72.52Zm-2.14,0c.13-.6.14-.47.71-.64l-.11.13-.6.51Zm16.35-1.78c1.1-.79,1.9.86.94,1.31a.92.92,0,0,1-1.27-.38C58.88,20,59.15,19.69,59.44,19.49Zm-13.79,0c.15,1-.51,1-.91.57S45,19.22,45.65,19.45Zm-.41-.84c-.13-.8.12-1,.93-1.09.43.37.43.31.52.88-.55.65-.67.63-1.45.21Zm14.53-2a1,1,0,1,1,.76,1.92C59,19,58.19,17.05,59.77,16.64ZM46,15.56c1.15-.74,1.82.72,1,1.23A.85.85,0,0,1,45.62,16c.12-.66,0-.22.35-.42ZM58.65,14c1.51-.85,2.66,1.46,1.07,2S57.27,14.76,58.65,14Zm-1.79-1.94a1,1,0,1,1,.69,1.81C56.13,14.21,55.54,12.59,56.86,12.05ZM44.59,13.31c-1.93-1.18.56-3.08,1.52-1.38l-.46.28c-.75.42-.44.32-.92.95Zm10.17-2.38c1.06-.42,1.55,1.16.53,1.4S53.69,11.36,54.76,10.93Zm-2.48.72c-.71-1.19.25-1.78,1.24-1l-.08.79A1.29,1.29,0,0,1,52.28,11.65Zm-1.11-.45c-.6.51-1.42.28-1.12-.49C50.24,10.23,51.34,10,51.17,11.2Zm-7.93,1c-1.78-.71,0-2.87,1.24-1.5L44,11c-.25.18-.17.06-.39.33a2.27,2.27,0,0,0-.41.84ZM41.67,9.9l.89-.08c-.29.66-.53.55-.67,1.41-.18.18.3.25-.37.09-.38.71-.93.35-1.62.33-.48,0-1.43.14-1.66-.14a15.23,15.23,0,0,1,2.86.2c.6.09,1.67.26,1.77,1.13.15,0-.26-.19.47,0l.29.58h0a4.44,4.44,0,0,0,.63.39c1.17.62.28.55,1.21,1.21-.46,1-.72.84-.18,2.09a4.53,4.53,0,0,0-.74.67h0l.08,1c-.36.45-.55.47-.58,1.27-.6.06-.78.07-1.14.39l-.53.26s-.12,0-.18,0c.12-1-.36-.22.23-1A6.74,6.74,0,0,1,43,19a3.87,3.87,0,0,0,.86-2.79,3.42,3.42,0,0,0-.4-1.35,4.39,4.39,0,0,0-.71-1c-.43.15,0-.05-.28.18,0,0-.07.14-.09.11s0,.09-.08.13c-.06-.81-.45-.45-.67-.25l.07.29.78,0c.53,1.26,1.66,2.33-.19,4.75-.41.54-.74.69-1.09,1.12a6.37,6.37,0,0,1,.5,1c-.3.21.09,0-.34.12s-1.14,0-.55,1.67a3.84,3.84,0,0,0,.49.95c.23.29.55.47.4.8-.31-.19-.14.3-.35-.45L41,24.12s-.23,0-.26-.05-.09,0-.13,0a5.71,5.71,0,0,0,.65,1.14c1.38.16,1.57-.6.87-1.34a2.45,2.45,0,0,1-.82-2,1.46,1.46,0,0,1,1,.5c.39-.2.29-.31.47-.54l.57.25c.18-.29.17-.46.59-.63,0,.56-.89,1.12-.84,2.07,0,.66-.06.37.29.56.55-.3.25-.38.42-1a8,8,0,0,1,.45-1c.71.24.22-.09.49.6h1.18c-.85,2-2.26,1.31-2.18,2.35.12,1.54,2.36-.39,2.75-.47,0,.93-.36.19-.37,1.05.64.37.85.18,1,1.12-1.79,1.61-2.72.59-2.73,1.26.15.52.1.12.78.33.42.13.57.11.32.5-.3.12.27.11-.15,0-2.42-.85-2.66,1.25-1.63,2.12,2.09,1.78,3.46-.63,3.74-.73.35.2.46.65,1.09,1.55l.09.16c.11.33-.47.35.4.24,1.33-.08,2.54,0,2.88-1.18.43-1.5-1-1.56-2.06-1.49.76-.68,1.22-.07,1.24-.63s-1.8,0-2.27-1.87c1-.59,1.25-.31,1.8-.53.3-.62-.21-.39.11-1.34,1.62.06,1.71,2.21,1.89,2.49.65,0,.36.24.61-.42l.31-2.38c1.37.37.83.87,1.35,1.75.52-.76.69-1.84,2-2.05s2.81.29,2.51,1.38l-.77.05L58.27,25c0-.06-.05-.07-.07-.1-1.49,0-2.57,1.69-3.3,2.57-1.77,2.12-2.35-.52-3.71.09-.29.83,1,.29,1.33,2.35.26,1.49-.65,1.76-1.29,2.47l.26.22.06.07c1.33-.51,1-1,1.66-1.82,1.6.54,2.71-1.06,1.36-2.28,1.13-.83,1.81-2.44,3.17-3.06.39.51.18.78.88,1,1,.28,2.08-.76,1.11-1.71l-1-.68.24-.69c1-.58,1.46-.47,1.3-2,1.38-.4,1.28-1.41.69-2.36,1.68-1.71.7-2.06-.19-3.07.7-1.65,0-2.67-1.94-2.7,0-1.41-.78-2.11-2.31-1.78-.68-1-.75-1.54-2.42-1-.66-.72-1.56-1.21-2.42-.25-1.8-1.09-1.31.13-2.57-.24l-.65.1-.11.44.82.07c.27.52.15.16.09.76.41-.13.16-.08.52,0l.23.11c-1.22,0-.12,0-.6.25h.51c.59.69,1,.27,1.61,0l.85.69c-.2.34-.13.13.19.14l.53-.31c.23-.08.36-.1.55-.15.41.72.71.84,1.8.82l.21.92s-.46-.27.12.45l.59.24c.22-.22,0-.12.44-.1.14,0,.39.05.57.05,0,.21,0,.44,0,.63s0,0,0,.31l-.13.18c.09.38,0,.14.19.4s.18.17.19.14.08,0,.11.05c.48.08.21,0,.84.5-.21.62-.1.63-.43,1-.12.86,0,.35.16.44l.53,1s-.11.13-.13.17c-.38.58-.19.93-.13,1.51l-.58.31c-.61.1-.41-.16-.43.41.2.25.09-.1.17.39a2.68,2.68,0,0,1,0,.4l-.65.07c-.71.12-.48-.06-.58.52.1.1.21.07.17.62s.1.18-.21.48l-.35-.45a1.21,1.21,0,0,1,.23-.34,1.49,1.49,0,0,1,.18-.17c-.18-.49.27-.39-.49-.33l-.54.46c.13.91.28.83-.15,1.52a4.9,4.9,0,0,1-.37-1.66c.6-.75,1-.71,1.47-1.76l-.19,0h-.08c-.63-.11.36.8-.15-.07a20.64,20.64,0,0,0-1.73,1.57l.26,1.73-1.94-.83c.21,1.05.49,1,.24,2.24a5.1,5.1,0,0,0-2.17-1.67,1.6,1.6,0,0,0-.54.7,1.11,1.11,0,0,0-.11.88c-1.22.31-1.15.6-2,.93a3.54,3.54,0,0,0,.52,1c-3-.68-1.81,2.11-1.81,2.11-.44.67-1.23,1.48-2.32.75-.73-.48-1.17-1.57.41-1.58.26.37.47.84.7,1.12a2.21,2.21,0,0,0,.58-2.13A6.13,6.13,0,0,0,47.77,27c0-1.1-.57-1.22-.67-1.7s.23-1-.39-1.62c-.37.13-.64.36-1.09.55a7.69,7.69,0,0,0,.93-1.46c.32-.9-.43-.64-1.32-.7.88-.75.74-.89,2.24-.94l-.14-.33c-.47-.19.1,0-.27-.15s.13-.05-.34-.15l-.87.33c.22-.68.56-.27.46-1.44l.68-.29c.38-.11.38.45.28-.41l-.22-1.19.49-.46a1.26,1.26,0,0,0,.07-1.78c-.2-.42.08.48-.13-.41l-.55-.25c-.88.24-1.62-.17-1.59-1s.88-1,1.82-.92v-.62c-.65.14-.39.28-.47-.14l.47-.24c-1-.1-1.15-.94,0-1l-.24-.27s0,0-.06,0l.43-.1s-.16-.49-1,0-.1.39-.79.48c-.72-.26-.45-.77-1.43-1a9.36,9.36,0,0,0-2.2-.5l.1.06.2.51c-.25-.61.08-.52-.79-.19.29-.07.17-.08.29.26Z"/><path class="cls-4" d="M37.7,37.23c-1.27.45-11.93.23-13.91,0ZM11.46,38.81l-.54.12.19.17c2.4,1.54,17.31,1.45,19.72,1.45,5.75,0,15.63.32,20.25-1.56-.87-.67-.37-.08-1.64-.08l-7,.79c-5.12.47-27.54.73-29.91-1.1.51-.36,2.77.19,3.6.29,3.54.43,8.87.63,12.41.65,2.72,0,15,0,16.66-.66-.53-1-.26-.11-1.26,0l-1.59-.14c-.79-.09.07,0-.68.1a8,8,0,0,1-.89-.05c-2.67,0-7,.22-10.28.22-3,0-13.87-.14-16-.9a56.19,56.19,0,0,1,6,.4c2,.16,4.18.22,6.21.27l12.11-.14c.88-.1.41.11.58-.29,0-.54-1.94-.19-2.27-.17-.92.05-1.93,0-2.86,0-4.3.07-9.77,0-14.06-.27l-2.5-.26-.12,0c3.54,0,7.17.36,10.79.36s7.24,0,10.92-.16l.18-1c-7.2-.07-18.15-.61-25.4.74a8.27,8.27,0,0,0-1.54.39c-.79.32-.6.64-1.12.88Z"/><path class="cls-5" d="M38,13.14c.22-.16,0-.11.4-.23l.46-.05a3.31,3.31,0,0,1,1.95.33l-2.81,0Zm-1.33-1.76c-.62-.19-.75-.28-.3-.81Zm.47-1.05.1.1.37.74c-.64-.11-.64-.26-.47-.84Zm1-.35.24.5a2.05,2.05,0,0,1,.06.46C37.88,10.71,37.89,10.53,38.08,10Zm2.43,1c-.63-.54-.61-1.21.48-1.31Zm-1.62-.43c0-.64.13-.88.79-.92A2.16,2.16,0,0,0,39.61,11a1.07,1.07,0,0,1-.72-.44Zm-3.67-.15.17.13c.07.29,0,.23-.17.56-.43-.24-.16-1.3-.3-.28l-.74-.2a2.54,2.54,0,0,1-.06.33l-.16.21c0,.78.13.5-.17.58L33.6,12l-.07.12a1,1,0,0,0-.06.14,3.44,3.44,0,0,1,.44,3.11c-.49,1.7-.75,1.58-.37,3.58l0-.7c1.18.31,0-.1.51.21-.39-1.74.65-2.77.64-4.57a32.17,32.17,0,0,0,3.39.58,16.54,16.54,0,0,0,3.62-.09l-.07-.29c.22-.2.61-.56.67.25,0,0,.06-.16.08-.13s.06-.09.09-.11c.26-.23-.15,0,.28-.18-.14-.32,0-.25-.35-.5s-.07,0-.27-.15c-.42-.33-.1,0-.36-.4a3.86,3.86,0,0,1,2.15,4.65,3.39,3.39,0,0,1-.33.8,2.32,2.32,0,0,1-.2.38A.93.93,0,0,1,43,19a6.74,6.74,0,0,0-.62.66c-.59.8-.11,0-.23,1,.06,0,.15-.07.18,0l.53-.26c.07-.38.13-.33.33-.55s.3-.35.52-.64a6.55,6.55,0,0,0,.79-1.51h0a5.08,5.08,0,0,0,0-2.42,19.71,19.71,0,0,0-.91-1.94h0l-.13-.06-.63-.48c-.1-.87-1.17-1-1.77-1.13a15.23,15.23,0,0,0-2.86-.2c.23.28,1.18.12,1.66.14.69,0,1.24.38,1.62-.33l-.09-.24c-.26-.68-.17-.65.11-1s.05,0,.13-.19c-.12-.34,0-.33-.29-.27.87-.32.54-.41.79.2L42,9.32l-.1-.06c-2,.08-1.72-.63-4.18.34l-2.47.8Z"/><path class="cls-6" d="M20.05,13.61A25.89,25.89,0,0,0,23,13.7c1,0,2.09-.23,2.87-.2-.78.45-3.32.41-4.38.4a4.58,4.58,0,0,1-.74,0l-.67-.26Zm4.06-.56a7.91,7.91,0,0,1-2.89.06A4.08,4.08,0,0,1,24.11,13.05ZM20.59,11c-.26.38-.11.28-.62.5-.83.36-.45.3,0,.62.08-.72,2.08-.72,2.72-.72,1.1,0,1,.21,1.21.44A11.41,11.41,0,0,0,21,12a7,7,0,0,0-1.71.88c-.27.14.06,0-.32.13a.81.81,0,0,0-.37.18c-.53.48-.13.07-.24.44.3.22-.1.28.51,0,.31-.14.44-.37,1-.64-.21.37,0,.1-.23.35l-.73.63c.12.93-1.9,2.23,0,4.68l.1-.27c-.13-1.76-1.09-1,.35-4,1.26-.06,2.69.15,4.09.1s2.62-.47,3.75-.56C27.1,17,29,16.07,27.12,20a2.2,2.2,0,0,0,1,.5c.88.37.17.08.46.06l-.29-.26a.5.5,0,0,1,0-.17c-.66-1.28,1-1.37-.09-4.25-.54-1.39-.64-3.77,1-4.17l.09,1c.36.11-.45.16.34.05.06,0,.32-.11.36-.12a2.67,2.67,0,0,1,.48-.48c0-.05.09-.18.1-.14s.06-.11.06-.13c0-.4.32.09-.11-.25l-.74.26a1.25,1.25,0,0,1,.43-.67c-.25-.19,0-.2-.47-.29-.28-.05-.09-.13-.5.09-.93.08-.27,0-.82-.28l-.74-.28a.48.48,0,0,1,.49.27,1.13,1.13,0,0,1,.11,1l-.35-.13c-.22-.22-.18-.22-.21-.57l-.95,1.54a6.5,6.5,0,0,1-.79-.17l-.72-.25a.33.33,0,0,1,0-.11l.1-.43c.17-.32.21.09.28-.34l-.41,0,.19-.33-.63.07v0c-.31.32.42.26-.46.26l-.44-.56c-.31.08-.4.3-.4-.07L23,10.53l-.33.43-.24.1c-.32,0-.12.06-.28,0l-.4-.42c-.37.49.06.15-.52.39l0-.78-.61.7Z"/><path class="cls-7" d="M47.3,10.31l-.44.1s0,0,.06,0l.24.27c.09.16.17.23.34.56l-.34.44-.47.24c.08.42-.18.28.47.14v.62c.09.29.43.28.46.92a.9.9,0,0,1-.69,1l.55.25.41-.13A3.59,3.59,0,0,1,48.13,17c-.2.75-.77,1.26-.86,1.68.1.86.1.3-.28.41l-.27,1.4c.47.1.06,0,.34.15s-.19,0,.27.15c0-1.78.69-1.9,1.23-3.26.81-2-.29-2.43-.35-3.84,2.92-.22,5.19,0,6.83,1.55a4.83,4.83,0,0,1,1.55,2.61c.39,1.9-.51,2.35-.61,3.38.51.87-.48,0,.15.07h.08l.19,0c1.14-.79,1.47-4.16-.77-6.33-2-1.9-4-2.11-7.52-1.87.5-.54,1.56-.47,2.53-.43,7.42.37,8.72,7.45,5.35,10.07.76-.06.31-.16.49.33l0-.14c.1-.58-.13-.4.58-.52a2.44,2.44,0,0,0,.5-.86c0-.57-.18-.31.43-.41a6,6,0,0,1,.3-1.22,5.18,5.18,0,0,0,0-1.8c-.17-.09-.28.42-.16-.44a2.67,2.67,0,0,0-.4-1.54s-.1-.08-.12-.05-.06,0-.19-.14-.1,0-.19-.4c-.1-.56.11,0-.08-.31l-.75-.76-.59-.24c-.58-.72-.12-.44-.12-.45a6,6,0,0,0-3.09-1.28c-.32,0-.39.2-.19-.14-2.24-.43-2.93-.09-5-.05.18-.35.18-.29.34-.6.23,0,1.81.59,1.71,0,.48-.3-.62-.25.6-.25l-.23-.11c-.36-.11-.11-.16-.52,0-.81.08-1.15.33-.91-.83l.11-.44.65-.1c-1.23-.32-.69.44-1.83.31Z"/><path class="cls-7" d="M31.46,3a14.48,14.48,0,0,0,2.28-.5v1.9A3.8,3.8,0,0,0,31.46,4V5.67l-1.08,0,.06-1.72a4.22,4.22,0,0,0-2.25.54l0-1.93,2.25.57L30.07,1l1.83.05a5.63,5.63,0,0,0-.44,2ZM28.2,6.92c.2.26,0,.12.32.16a11.68,11.68,0,0,0,1.12-.61V8l-1.38.16-.08.46.4-.06a6.74,6.74,0,0,0,1.68-.07l0-2.21,1.3,0,0,2.22a5.6,5.6,0,0,0,1.72.11c.66,0,.61.43.22-.38l-1.29-.22,0-1.39c-.26-.2-.59.54,0-.49-.42.36,0-.09.08-.17a4.72,4.72,0,0,1-.2-1.36,4.69,4.69,0,0,1,2.5,1.26,10.88,10.88,0,0,1,0-4.58c-.88.46-.78.88-2.42,1.14A7.74,7.74,0,0,1,33.07,0c-2.24.43-1.15.94-4.25,0a8.52,8.52,0,0,1,.92,2.31A3.28,3.28,0,0,1,27.4,1.24c-.06.6.16,1.44.16,2.17,0,.89-.14,1.56-.18,2.39a4.6,4.6,0,0,1,2.48-1.29c-.07,2.33-1.26,1.16-1.66,2.41Z"/><path class="cls-8" d="M41.37,34.4c-.37.13-1.8.27-1.29-.48C40.29,33.6,41.38,33.49,41.37,34.4Zm-2-.27c0,1.22,2.77,1.36,2.69,0,0-.53-.73-1-1.37-1s-1.34.44-1.32,1Z"/><path class="cls-3" d="M20.84,33.73c.65,0,.54-.11,1,.19,0,.86-1,.71-1.44.37C20.59,33.87,20.52,34.05,20.84,33.73Zm-1,.54c.54,1.15,1.83,1.07,2.68.17l0-.7C21.6,32.88,20.11,32.9,19.83,34.27Z"/><path class="cls-9" d="M32.16,35.52l3.86,0c-.61-1.41-.65-.38-1.2-1.41-.74,1.38-.89.05-2.66,1.36Z"/><path class="cls-10" d="M14.74,15.5c-.31.84-.29.83.33,1.46.74,0,1.44-.25,1.19-1.06S15.35,15.33,14.74,15.5Z"/><path class="cls-11" d="M37.05,35.63l2.42,0-.58-.47a1.09,1.09,0,0,1-.43-.55C37.33,35.18,37.85,34.71,37.05,35.63Z"/><path class="cls-12" d="M37.59,33.23l.64.3.93-.87.08-.1-1.93-.09Z"/><path class="cls-9" d="M41.37,34.4c0-.91-1.08-.8-1.29-.48C39.57,34.67,41,34.53,41.37,34.4Z"/><path class="cls-9" d="M30.39,20.75c.45.55.73.65,1.08-.05a.81.81,0,0,0-.49-.15A1.44,1.44,0,0,0,30.39,20.75Z"/><path class="cls-13" d="M40.37,38.46c.57.23.84.13.8-.5C40.35,38,40.4,37.89,40.37,38.46Z"/><path class="cls-14" d="M16.64,21.29l.57.23c.1-.17.13-.13.17-.38a1.41,1.41,0,0,0,0-.41c-.62.15-.64,0-.74.56Z"/><path class="cls-15" d="M46.71,31.76c.26.23.08.23.56.36a1.37,1.37,0,0,0,.57,0C47.44,31.89,47.52,31.42,46.71,31.76Z"/><path class="cls-16" d="M44.36,24.89s.14.51.78-.16a2,2,0,0,0,.23-.3Z"/><path class="cls-17" d="M45.74,38.89l.71-.08c-.18-.39,0-.15-.3-.5l-.41.58Z"/><path class="cls-18" d="M45.92,34.83c.17.39-.31.25.49.29,0-.23.17-.16-.11-.34-.46-.3-.35,0-.38,0Z"/><path class="cls-19" d="M45.05,35.77c.49-.54.21-.28,0-.51-.1.06-.27-.06-.25.26S45,35.72,45.05,35.77Z"/><path class="cls-20" d="M44,34.86c.58-.16.37,0,.46-.46C43.67,34.45,44,34.26,44,34.86Z"/><path class="cls-21" d="M36.33,34.83c.23.32.23.42.57,0-.22-.16.29-.2-.31-.15S36.48,34.71,36.33,34.83Z"/><path class="cls-12" d="M45.35,34.06s.06-.13.06-.1,0-.09,0-.1c0-.28,0-.1-.1-.26C44.88,33.8,44.8,33.82,45.35,34.06Z"/><ellipse class="cls-22" cx="41.62" cy="38.33" rx="10.01" ry="1.36"/><path class="cls-23" d="M50.57,38.54a1.21,1.21,0,0,0,1-.24c.06.39-.7.51-1,.55a.16.16,0,0,1-.16-.15A.16.16,0,0,1,50.57,38.54Z"/><path class="cls-24" d="M50.57,38.7c.29,0,.87-.09,1-.4"/><path class="cls-23" d="M39.49,36.71a3.67,3.67,0,0,1,.42.07c-.24.22-.1.14-.42.23a.15.15,0,0,1-.16-.15.16.16,0,0,1,.16-.15Z"/><path class="cls-24" d="M39.49,36.86a1.16,1.16,0,0,0,.42-.08"/><path class="cls-23" d="M39.29,37.58a9.39,9.39,0,0,1,2.1-.41,44.48,44.48,0,0,1,7.73.74c.36.08,2.36.28,2.53.6A11.46,11.46,0,0,0,49.06,38,48.39,48.39,0,0,0,43,37.45c-2.74-.13-2.18.25-3.71.43a.16.16,0,0,1-.16-.15.15.15,0,0,1,.16-.15Z"/><path class="cls-24" d="M39.29,37.73a8.43,8.43,0,0,1,2.1-.42,15.43,15.43,0,0,1,3.1.17,22,22,0,0,1,4.6.5c.34.11,2.35.21,2.56.53"/><path class="cls-23" d="M39.49,37.26a23,23,0,0,1,2.32.07,21.17,21.17,0,0,1-2.32.23.15.15,0,0,1-.16-.15A.16.16,0,0,1,39.49,37.26Z"/><path class="cls-24" d="M39.49,37.41c.7,0,1.52-.08,2.32-.08"/><path class="cls-23" d="M39.49,37.05a4.63,4.63,0,0,1,1.78.1c-.65,0-1.14.14-1.78.2a.15.15,0,0,1-.16-.15A.16.16,0,0,1,39.49,37.05Z"/><path class="cls-24" d="M39.49,37.2a7.56,7.56,0,0,1,1.78-.05"/><path class="cls-23" d="M40.61,37a5.84,5.84,0,0,1,2.73.15c-1.53.14-.86-.09-2.65.15a.17.17,0,0,1-.2-.11A.16.16,0,0,1,40.61,37Z"/><path class="cls-24" d="M40.65,37.15a7.31,7.31,0,0,1,2.51,0l.18,0"/><path class="cls-23" d="M42.81,37a7.07,7.07,0,0,1,3.14.6,15.08,15.08,0,0,0-3.14-.3.15.15,0,1,1,0-.3Z"/><path class="cls-24" d="M42.81,37.15a6.55,6.55,0,0,1,2.63.32,4.23,4.23,0,0,1,.51.13"/><path class="cls-23" d="M44.29,37.07a10.61,10.61,0,0,1,2.61.63c-1.72-.24-.85-.13-2.61-.32a.16.16,0,0,1-.16-.16.16.16,0,0,1,.16-.15Z"/><path class="cls-24" d="M44.29,37.22a16.39,16.39,0,0,1,2.61.48"/><path class="cls-23" d="M44.49,37a11.84,11.84,0,0,1,2.77.41c-.39,0-2.5-.09-2.79-.11a.16.16,0,0,1-.15-.16A.15.15,0,0,1,44.49,37Z"/><path class="cls-24" d="M44.48,37.1c.52,0,1.72.18,2.24.16.14,0,.39.1.54.1"/><path class="cls-23" d="M46.29,37.28c.52.28.65.12,1.31.34a2.55,2.55,0,0,1-1.48-.08.14.14,0,0,1,0-.2.16.16,0,0,1,.22-.06Z"/><path class="cls-24" d="M46.21,37.41c.52.29.82.08,1.39.21"/><path class="cls-23" d="M48,37.4a16.1,16.1,0,0,0,1.7.56,4.41,4.41,0,0,1-1.82-.28.16.16,0,0,1-.09-.2A.18.18,0,0,1,48,37.4Z"/><path class="cls-24" d="M47.93,37.54a2.92,2.92,0,0,0,.87.26,8.25,8.25,0,0,0,.89.16"/><path class="cls-23" d="M46.63,37.27a3.38,3.38,0,0,0,1.11.33,1.57,1.57,0,0,1-1.22-.05.14.14,0,0,1-.1-.19A.17.17,0,0,1,46.63,37.27Z"/><path class="cls-24" d="M46.58,37.41a1.93,1.93,0,0,0,1.16.19"/><path class="cls-23" d="M47.14,37.15c.24.15.44.24.68.37a1.16,1.16,0,0,1-.85-.11.15.15,0,0,1,0-.21A.17.17,0,0,1,47.14,37.15Z"/><path class="cls-24" d="M47.06,37.28a2,2,0,0,0,.76.24"/><path class="cls-23" d="M47.46,37.38a.86.86,0,0,1,.33.27.8.8,0,0,1-.46,0,.15.15,0,0,1-.08-.2.16.16,0,0,1,.21-.08Z"/><path class="cls-24" d="M47.4,37.52l.39.13"/><path class="cls-23" d="M47.55,37.21a1.46,1.46,0,0,1,.53.33,1.58,1.58,0,0,1-.61,0,.16.16,0,0,1-.12-.18.16.16,0,0,1,.2-.12Z"/><path class="cls-24" d="M47.51,37.36c.11,0,.54.19.57.18"/><path class="cls-23" d="M47.65,37.15a4,4,0,0,1,.82.47,3.37,3.37,0,0,1-1-.21.13.13,0,0,1-.06-.2A.16.16,0,0,1,47.65,37.15Z"/><path class="cls-24" d="M47.57,37.28l.9.34"/><path class="cls-23" d="M48.39,37.3a1.7,1.7,0,0,1,.48.35,1.22,1.22,0,0,1-.6-.07.16.16,0,0,1-.09-.2A.17.17,0,0,1,48.39,37.3Z"/><path class="cls-24" d="M48.33,37.44c.26.09.23.11.54.21"/><path class="cls-23" d="M49.14,37.76c.35.16.2.05.46.31a2.06,2.06,0,0,1-.5,0,.15.15,0,0,1-.14-.17.16.16,0,0,1,.18-.13Z"/><path class="cls-24" d="M49.12,37.91a3.38,3.38,0,0,1,.48.16"/><path class="cls-23" d="M49.91,37.93h0Z"/><path class="cls-24" d="M49.91,37.93h0"/><path class="cls-23" d="M48.84,37.5a1.81,1.81,0,0,1,.71.41c-.34.12-.46-.14-.7-.11a.16.16,0,0,1-.17-.15.16.16,0,0,1,.16-.15Z"/><path class="cls-24" d="M48.84,37.65c.22,0,.44.26.71.26"/><path class="cls-23" d="M49.1,37.42a1.56,1.56,0,0,1,.82.41,3.79,3.79,0,0,1-.82-.11.15.15,0,1,1,0-.3Z"/><path class="cls-24" d="M49.1,37.57a4.72,4.72,0,0,1,.82.26"/><path class="cls-23" d="M49.26,37.5a4.63,4.63,0,0,1,1,.51,4.85,4.85,0,0,1-1.07-.22.15.15,0,0,1-.1-.19.17.17,0,0,1,.2-.1Z"/><path class="cls-24" d="M49.21,37.65c.11,0,1,.37,1,.36"/><path class="cls-23" d="M49.94,37.79c.19,0,.25.06.32.22a1.57,1.57,0,0,1-.31.08.16.16,0,0,1-.16-.15.14.14,0,0,1,.15-.15Z"/><path class="cls-24" d="M50,37.94c.19,0,.21.06.31.07"/><path class="cls-23" d="M50.22,37.76a1.19,1.19,0,0,1,.79.44c-.29,0-.5-.12-.79-.14a.15.15,0,1,1,0-.3Z"/><path class="cls-24" d="M50.22,37.91a2.16,2.16,0,0,1,.79.29"/><path class="cls-23" d="M50.72,37.92c.23.12.12,0,.31.23a.65.65,0,0,1-.38.06.15.15,0,0,1-.12-.18.16.16,0,0,1,.19-.11Z"/><path class="cls-24" d="M50.69,38.07l.34.08"/><path class="cls-23" d="M49.86,37.52c.53.08.75.38,1.14.73-.54-.15-.73-.42-1.13-.42a.16.16,0,1,1,0-.31Z"/><path class="cls-24" d="M49.86,37.67c.43,0,.75.44,1.14.58"/><path class="cls-23" d="M50.51,37.62c.42.26.74.4,1.14.66a3.34,3.34,0,0,1-1.3-.4.13.13,0,0,1-.06-.2.17.17,0,0,1,.22-.06Z"/><path class="cls-24" d="M50.43,37.75a6.18,6.18,0,0,0,1.22.53"/><path class="cls-23" d="M40.85,38l1,.2a2.23,2.23,0,0,1-1.06.1.15.15,0,0,1-.12-.18A.18.18,0,0,1,40.85,38Z"/><path class="cls-24" d="M40.81,38.12a4.34,4.34,0,0,0,1,.05"/><path class="cls-23" d="M42.9,38.6a13.86,13.86,0,0,0,1.8.1,4,4,0,0,1-1.82.2.16.16,0,0,1-.15-.16.15.15,0,0,1,.17-.14Z"/><path class="cls-24" d="M42.89,38.75a5.38,5.38,0,0,0,1.81,0"/><path class="cls-23" d="M44.77,38.47c1,.1.47,0,1.49.17a5.19,5.19,0,0,1-1.57.12.16.16,0,0,1-.12-.18.17.17,0,0,1,.2-.11Z"/><path class="cls-24" d="M44.73,38.62c.26.05,1.21,0,1.53,0"/><path class="cls-23" d="M45.05,38.73a1.93,1.93,0,0,1,.9.12c-.56.13-.29.07-.8.17a.15.15,0,0,1-.2-.1A.15.15,0,0,1,45.05,38.73Z"/><path class="cls-24" d="M45.1,38.88a4,4,0,0,1,.85,0"/><path class="cls-23" d="M46.36,38.49c1.52-.09,3.18-.2,4.68-.23a40.12,40.12,0,0,1-4.68.53.15.15,0,0,1-.16-.15A.16.16,0,0,1,46.36,38.49Z"/><path class="cls-24" d="M46.36,38.64c.54,0,.86-.1,1.47-.1a16.63,16.63,0,0,0,2.22-.19,6.87,6.87,0,0,0,1-.09"/><path class="cls-23" d="M49.88,38.31c.62.08.53.09.76.49-.33.06,0-.23-.76-.19a.15.15,0,1,1,0-.3Z"/><path class="cls-24" d="M49.88,38.46c.75,0,.47.24.76.34"/><path class="cls-23" d="M50.44,38.33a.67.67,0,0,1,.63,0,4,4,0,0,0-.45.26.18.18,0,0,1-.23-.05A.15.15,0,0,1,50.44,38.33Z"/><path class="cls-24" d="M50.53,38.46a1,1,0,0,1,.54-.13"/><path class="cls-23" d="M50.87,38.41h0Zm.44.1h.11s0,0-.06-.06l0,.07Zm.11,0h0Zm0-.14c.38.12.11.22-.22.25a.6.6,0,0,1-.34.1.16.16,0,0,1-.16-.12c-.17,0-.22-.14,0-.32a1,1,0,0,1,.45-.21C51.38,37.82,51.51,38.1,51.4,38.36Z"/><path class="cls-24" d="M50.84,38.56c.6,0,.48-.77.36-.32-.06.25-.49.57,0,.07.31-.34-1.37.36.22.26.24,0,0-.24-.31-.24"/><path class="cls-23" d="M42.34,38.6c1.77,0,.89,0,2.63.12-1.74.16-.86.1-2.63.18a.16.16,0,0,1-.16-.15A.15.15,0,0,1,42.34,38.6Z"/><path class="cls-24" d="M42.34,38.75c.88,0,1.8,0,2.63,0"/><path class="cls-23" d="M42.91,38.5c1.11-.21,1.58.13,2.9,0a34.44,34.44,0,0,0,3.86-.34h.18c-.1.07-.08,0-.14.05a23.12,23.12,0,0,1-3.83.52c-1.33.2-1.89-.11-2.87.1a.17.17,0,0,1-.2-.1A.15.15,0,0,1,42.91,38.5Z"/><path class="cls-24" d="M43,38.64c.88-.26,1.85.23,2.89-.06a15.52,15.52,0,0,1,1.83-.2,4.33,4.33,0,0,0,2-.23c.08,0,0,0,.17,0"/><path class="cls-23" d="M49.11,38.18h.24l.12-.06h.06l.38-.25c.15-.09.87.25.49.46h0a1,1,0,0,1-.35.1,1.37,1.37,0,0,1-.81,0h-.12a.16.16,0,0,1-.16-.15s0,0,0-.06a.19.19,0,0,1,.15-.09Z"/><path class="cls-24" d="M49.11,38.33c.16,0,1.57.06,1.18-.17s0-.44-.61.07c-.2.17-.85.29.4,0,.52-.1-.29,0-.64-.05.25-.06,1.44.05.5,0-.39,0-1.85.13,0,.13a1.91,1.91,0,0,0,.48,0"/><path class="cls-23" d="M39.22,38.36a15.34,15.34,0,0,1,2.69.13c-.58.1-2,.13-2.69.17a.15.15,0,0,1-.16-.15A.16.16,0,0,1,39.22,38.36Z"/><path class="cls-24" d="M39.22,38.51a12.2,12.2,0,0,1,2,0h.67"/><path class="cls-23" d="M41.78,38.18c.18,0,.09,0,.27.1-.1.16,0,.1-.18.19a.16.16,0,0,1-.2-.1A.16.16,0,0,1,41.78,38.18Z"/><path class="cls-24" d="M41.83,38.33l.22,0"/><path class="cls-23" d="M41.13,38.32a38,38,0,0,1,5.94-.25,6.7,6.7,0,0,0,1.76-.13,4.18,4.18,0,0,1-1.76.28,43.62,43.62,0,0,0-5.84.38.17.17,0,0,1-.21-.1.14.14,0,0,1,.11-.18Z"/><path class="cls-24" d="M41.18,38.46l1.33-.18c.69,0,2.73,0,3.34-.14a14.58,14.58,0,0,0,2.52-.1,3.78,3.78,0,0,0,.46-.1"/><path class="cls-23" d="M40.45,38.08a8.06,8.06,0,0,1,1.39.1,7.06,7.06,0,0,1-1.39.2.15.15,0,1,1,0-.3Z"/><path class="cls-24" d="M40.45,38.23c.52,0,.91,0,1.39,0"/><path class="cls-23" d="M39,38.05a3.68,3.68,0,0,1,1.48.07c-.53.06-1,.17-1.48.23a.16.16,0,0,1-.16-.15A.15.15,0,0,1,39,38.05Z"/><path class="cls-24" d="M39,38.2a7.55,7.55,0,0,1,1.48-.08"/><path class="cls-23" d="M39.42,38.13l.3,0c0-.15.61-.24.6,0h0c.12,0,.18.1.16.15h.05c.24.13.08.18-.19.18a.09.09,0,0,0,.06.06l-.17-.06h-.1a1.28,1.28,0,0,1-.62-.1h-.08a.17.17,0,0,1-.15-.09c-.11-.05-.14-.1,0-.14h0a.17.17,0,0,1,.14-.06Z"/><path class="cls-24" d="M39.42,38.28c.24,0,1.41,0,.26.07-.32,0,1.35.21.56.06-1-.19.91,0-.4-.24,1.1-.15-.67.16-.16.22,1.63.2-1.45-.23,0-.1,1.22.11.4,0,0,0h.56"/><path class="cls-23" d="M41.17,38A15.55,15.55,0,0,0,43.9,38a7.28,7.28,0,0,1-2.83.2.16.16,0,0,1-.11-.19.17.17,0,0,1,.21-.1Z"/><path class="cls-24" d="M41.12,38.09A10.27,10.27,0,0,0,43.9,38"/><path class="cls-23" d="M43.07,37.94a14.94,14.94,0,0,0,4.31-.21,9.51,9.51,0,0,1-4.3.51.15.15,0,0,1-.17-.14A.16.16,0,0,1,43.07,37.94Z"/><path class="cls-24" d="M43.08,38.09a13.78,13.78,0,0,0,2.87,0c.41-.11,1-.17,1.43-.32"/><path class="cls-23" d="M46.88,37.77H47l.08,0a.32.32,0,0,1,.18-.05,6.79,6.79,0,0,1,1.1-.13.45.45,0,0,1,.16,0c.12,0,.1,0,0,.06v0a1.69,1.69,0,0,0-.48.12c2.59.47.67,1-.46.43-1.26.39-1.38.12-1.08-.14-.25,0-.48,0-.48,0l0-.12.1,0h0a7.59,7.59,0,0,1,.78,0v0ZM48,38a6.17,6.17,0,0,0,.64.09L48.07,38Zm-.1-.32.11,0-.23,0,.12,0Z"/><path class="cls-24" d="M47.1,38.09c-.88,0,1.48-.18-.2-.18-.26,0,1.65,0,.37,0-.69,0-1.49.54.13.13,1-.24.54-.24.11-.05.19.24,3.12.44.71-.08a3.15,3.15,0,0,0-1.09-.17c0,.19,1.36.15.19.15-2.74,0-.35.05-.23,0-.47-.23,1.21-.31,1.39-.31-.46,0-1.22.62-1.63.37"/><path class="cls-23" d="M48,37.77l.19,0c.15,0,.3,0,.32.09l.09,0,.31.12a.73.73,0,0,1,.39-.08s0-.09,0-.12-.19-.23-.51-.3h0a2.54,2.54,0,0,1-.66-.19,1.28,1.28,0,0,0-.28-.07.65.65,0,0,1,.41.06l.24.08c-.1-.1.08-.16.69,0l.15,0c.11,0,.19,0,.23.07a.18.18,0,0,1-.09.08.49.49,0,0,1,0,.28h0v0l0,0h.08l0,.17a.83.83,0,0,1-.25.09c-.18.13-.49,0-.79-.06a2.24,2.24,0,0,1-.36.13c-.22.06-.36,0-.26-.23h0c-.15,0-.2,0-.2-.1h0a.14.14,0,0,1,0-.21.16.16,0,0,1,.23,0Z"/><path class="cls-24" d="M47.87,37.88c.33.25.52,0,.63.21,0,0-.72.32-.24-.08,0-.1-.59.12,0-.11.13,0,.12.33-.07.11,0,0-.42-.11.2,0,0,0,1.06.59,1.06,0,.05.41.07.05-.31.14s.85,0,.39,0,.53-.43-.65-.66c-.51-.09,0-.1.21,0s1,.1-.35.07c-.27,0-.34-.27-.82-.27"/><path class="cls-23" d="M39.84,37.58a20.71,20.71,0,0,0,4.09-.22c-.89.51-3.09.48-4.09.52a.16.16,0,0,1-.16-.15A.15.15,0,0,1,39.84,37.58Z"/><path class="cls-24" d="M39.84,37.73c.72,0,3.67,0,4.09-.37"/><path class="cls-23" d="M40.92,37.42a8.47,8.47,0,0,1,1.45.1,9.06,9.06,0,0,1-1.45.2.15.15,0,1,1,0-.3Z"/><path class="cls-24" d="M40.92,37.57c.48,0,1.08,0,1.45,0"/><path class="cls-23" d="M42.05,37.48c-.2-.07-.36,0-.45-.12.19-.18.22-.18.52-.17a.14.14,0,0,1,.12.18.15.15,0,0,1-.19.11Z"/><path class="cls-24" d="M42.08,37.33c-.36-.07-.28,0-.48,0"/><path class="cls-23" d="M42.05,37.46c-.21,0-.37-.07-.34-.23l.17,0,0,0,.08,0c.28-.06.46,0,.5.1l.13,0a.42.42,0,0,1,.34,0h0c1,.11.48,0,1.5.19l-1.51-.06c.07.09-.11.17-.7.19a.17.17,0,0,1-.17-.15.14.14,0,0,1,0-.06Z"/><path class="cls-24" d="M42.2,37.52c1.08,0,.22-.15-.37-.25,0,0,.73,0,.41.1s.09.27.35,0c.11-.09.31,0,.32,0,.43,0,1,.1,1.5.1"/><path class="cls-23" d="M42.48,37.94c1.36-.06,2.78-.14,4.14-.11-1.34.24-2.77.3-4.14.41a.15.15,0,0,1-.16-.15A.16.16,0,0,1,42.48,37.94Z"/><path class="cls-24" d="M42.48,38.09c.9,0,2-.18,3.06-.18.45,0,.66-.08,1.08-.08"/><path class="cls-23" d="M42.76,37.5a19.55,19.55,0,0,1,2.78.1c-1.82.15-.89.08-2.78.2a.16.16,0,0,1-.16-.15A.15.15,0,0,1,42.76,37.5Z"/><path class="cls-24" d="M42.76,37.65c.72,0,2.18-.1,2.78,0"/><path class="cls-23" d="M44.46,37.34s2.08.07,1.3.31a1.06,1.06,0,0,1-.56,0l.23-.06-1,0a.15.15,0,1,1,0-.3Zm1.28.13Z"/><path class="cls-24" d="M44.46,37.49a12.28,12.28,0,0,1,1.37,0c-.06.13-.48.15-.63.15"/><path class="cls-23" d="M45.07,37.5a29.71,29.71,0,0,1,3.4.54c.06.18-1,.69-1.23.37a1.19,1.19,0,0,0,1-.31c-1,0-2.09-.19-3-.31a.17.17,0,0,1-.21-.1A.15.15,0,0,1,45.07,37.5Z"/><path class="cls-24" d="M45.12,37.65s3.27.41,3.27.42-.87.61-1.15.34"/><path class="cls-23" d="M47.67,36.4s2.21-.5,1.87-.08h0c-.06.07,0,0-.1.1a1.39,1.39,0,0,1,0-.17h0a11.39,11.39,0,0,0-1.81.45.17.17,0,0,1-.17-.15.16.16,0,0,1,.17-.15Z"/><path class="cls-24" d="M47.67,36.55c.06,0,2.09-.61,1.84-.25l-.06.12"/><path class="cls-23" d="M47.74,36.82a18,18,0,0,1,1.83-.14,9.53,9.53,0,0,1-1.75.43.17.17,0,0,1-.2-.11A.16.16,0,0,1,47.74,36.82Z"/><path class="cls-24" d="M47.78,37c.27-.06,1.72-.24,1.79-.29"/><path class="cls-23" d="M49.72,36.29v0h0c.37-.1.48,0,.09.3-.59.42-1,.48-1.23.39s-.39.07-.43,0S48,37,48,36.89a.08.08,0,0,1,0,0c-.39.4-.52.32-.47.14l0,0,.06-.06a1.05,1.05,0,0,1,.14-.2l0,0s0,0,0-.06c-.18-.14.09-.2.4-.2l.12,0c.15-.1.19-.1.19-.05a1.29,1.29,0,0,1,.52,0h.1a.27.27,0,0,1,.24-.08c.1,0,.12.06.09.12l.16.07Z"/><path class="cls-24" d="M47.78,36.63a4.41,4.41,0,0,0,1.37-.22.89.89,0,0,0-.59.36c-.13.17,1.07-.09,1.3-.42a7.12,7.12,0,0,1-1.31.5c-.86.16,1.11-.36.57-.39-.15,0-1.79.57-.39.13.75-.24-.75-.11-.95.06.9.12,1.55-.52.53.06-.71.4.9-.21-.36-.21-.54,0,.06.33.52,0,0,.05-.64.49-.38.17,0,0-.75.34.13-.06,0,0-.3,0-.69.44,1.5-1.41-.06.09.71-.27.49-.24.9-.17.92-.47-.36.13-.34.8,0,.24-1-.14-1.15.86-.28-.13.22-.24-.94.48,0,.08.73-.32-.53.3.35.13.23-.42-.44.15.15,0s-1.52-.35-.94-.07,1.4-.23.42-.12c-.29,0,0,.2.19.24"/><path class="cls-23" d="M38.74,36a24,24,0,0,1,4.22.39c-1.53,0-2.76-.19-4.22-.09a.15.15,0,1,1,0-.3Z"/><path class="cls-24" d="M38.74,36.18a4.34,4.34,0,0,1,1.56,0c.23.09,2.54.09,2.66.19"/><path class="cls-23" d="M45,36.42a11.53,11.53,0,0,1,1.85.28,9.2,9.2,0,0,1-1.85.13.22.22,0,0,1-.23-.2A.22.22,0,0,1,45,36.42Z"/><path class="cls-24" d="M45,36.63c.51,0,1.21.07,1.85.07"/><path class="cls-23" d="M47,36.69c1.88.15,3.84-.15,4.6,1.59C50.44,36.72,48.84,37.09,47,37a.17.17,0,0,1-.17-.15.16.16,0,0,1,.16-.15Z"/><path class="cls-24" d="M47,36.84c.17,0,1.23.1,1.7.1,1.17,0,2.38.19,2.89,1.34"/></g></g></g></svg>