<svg xmlns="http://www.w3.org/2000/svg" viewBox="0 0 43.9 27.52"><defs><style>.cls-1,.cls-2,.cls-3,.cls-4,.cls-5,.cls-6{fill-rule:evenodd;}.cls-2{fill:#c6c6c1;}.cls-3{fill:#a7a8a2;}.cls-4{fill:#64645b;}.cls-5{fill:#454539;}.cls-6{fill:#898982;}</style></defs><g id="Слой_2" data-name="Слой 2"><g id="Слой_1-2" data-name="Слой 1"><g id="_3015303254304" data-name=" 3015303254304"><path class="cls-1" d="M20.5.4c-.13,0,0,0-.14.07s-.1,0-.18.06L19.81.8a2.22,2.22,0,0,0-.48.53,1.38,1.38,0,0,0-.39.82,2.72,2.72,0,0,1-.07.33,3.16,3.16,0,0,0,.1,1c.05.15.12.14.17.25s0,.1.05.16,0,0,.11.08,0,.1.05.15,0,.05.12.11l.2.19c.08,0,0,0,.1,0a1.56,1.56,0,0,1,.38.32c.24,0,.1.09.34.15a.71.71,0,0,1,.33.18l.09.06c0,.3-.09.3-.16.44a1.55,1.55,0,0,0-.07.23c0,.09-.08.1-.11.17-.09.58-.14.23-.21.52s0,.16-.11.25-.05.08-.11.23-.1.07-.16.22,0,.15-.11.23-.07.07-.12.26-.08.11-.2.17c-.05.35-.08.15-.18.36l-.25.43s0,.05-.08.09-.06.12-.11.23-.09,0-.16.18l-.24.38c-.05.06,0,0-.05,0V9.7c-.1.05-.29.41-.43.57s0,.21-.29.31v0c0,.22,0,.08-.18.3s-.13.07-.13.2-.06.16-.22.25l-.05,0c0,.11-.05.06-.1.13,0,.26-.1.13-.26.37s-.07,0-.15.15-.08.15-.21.14a.67.67,0,0,0-.14.11l-.28.27c-.08.07,0,.07-.15.1-.05.19-.06.15-.11.19l0,0c-.07.05,0,0-.09.09s-.05,0-.12.05l-.31.23-.11.07c-.13.08,0,.07-.23.13s-.1.07-.23.12c-.29.11-.07,0-.24.12a.61.61,0,0,1-.32.06c-.15.24-.17.09-.54.15s0,.13-.6.12c-.37,0-.25-.06-.42-.1s-.42,0-.6-.12l-.11-.09c-.15,0-.19-.09-.34-.13a.83.83,0,0,1-.3-.13c-.32,0-.21-.08-.4-.16L10.27,13a2.33,2.33,0,0,1-.49-.28c-.12-.1,0,0-.17-.09s0,0-.14-.11a2.61,2.61,0,0,1-.61-.41l-.28-.19c-.11,0,0,0-.13,0l-1-.79L7.42,11l-.6-.57a.69.69,0,0,0-.18-.1.71.71,0,0,0-.09-.15c0-.05,0,0-.08-.07s0,0-.14-.19l0,0A3.22,3.22,0,0,0,6,9.63C6,9.55,6,9.56,5.9,9.5a1.18,1.18,0,0,1-.11-.19h0c-.13,0-.1,0-.17-.14L5.3,8.84c-.16-.21-.08-.06-.2-.19s0-.09-.09-.14-.11,0-.12-.16S5,8.19,5,8.19s-.07,0,0,0a2,2,0,0,0,.38-.26,2.29,2.29,0,0,1,.32-.28l.05,0v0l0-.07c.14-.27.06-.16.21-.29s.09-.27.15-.36a.62.62,0,0,0,.11-.41,7.85,7.85,0,0,0,0-1c0-.16,0-.08-.1-.17S6.06,5.19,6,5.09c-.1-.38-.1-.14-.19-.34s0-.08-.22-.32a5.06,5.06,0,0,0-.8-.62.68.68,0,0,1-.2-.08c-.19-.11-.3-.06-.46-.14A4.49,4.49,0,0,0,2.47,3.5c-.22,0-.29.11-.48.13a1.91,1.91,0,0,0-.57.24c-.09.08,0,0-.15.08s0,0-.18.13S1,4.15,1,4.2l-.66.9c0,.17,0,.31-.06.47a.35.35,0,0,1-.06.19l-.05.07-.07,0H0l0,.32s.06,0,.12,0,.09.36.1.46c.06.46.2.18.22.58,0,.14.05,0,.05.15s0,0,.11.07l.07.09c.06,0,.11.08.11.16.18.06.12,0,.24.13s0,0,.1.07,0,0,.22.13l.33.17c.17.09,0,.09.25.12.55.07.15.12.54.15s.79,0,.87.17,0,.15.08.24a.37.37,0,0,1,.12.19c0,.17,0,.37.05.57s.07,0,.13.19a.57.57,0,0,1,0,.26c0,.19.1.27.16.4a1.68,1.68,0,0,1,0,.51c.14,0,.17.12.19.22s0,.22.05.34a.69.69,0,0,0,.12.26c.13.28-.06.46.14.62s.09.11.1.28c.06.62.14.32.19.61,0,.12,0,.25,0,.36,0,.28.1-.17.18.57,0,.2.06.15.13.26s0,.47.11.65.1.07.13.27a1.7,1.7,0,0,1,0,.39c0,.11.08.21.11.31.1.34,0,.15.18.71,0,.12,0,.27.09.37s.12.14.15.29,0,.27,0,.4.13.15.16.29,0,.46.08.59,0,.08.08.16,0,.24.07.37.08.16.13.31a1.76,1.76,0,0,1,.06.4c0,.13.1.2.13.32a2.66,2.66,0,0,0,.07.39c0,.09.08.12.14.29s0,.28,0,.37l.17.27a1.75,1.75,0,0,1,0,.33c0,.31.17.14.19.61s.16.12.19.56a1.23,1.23,0,0,0,0,.34c.06.11,0,0,.11.11s0,.11.06.16c.29,0,6.65,0,7.13,0H35.33a5.16,5.16,0,0,0,.89,0v0c0,.05,0,0,0,0l0-.08.11-.16c0-.12,0-.39.13-.56s.06-.39.17-.62.09-.1.11-.29a2.88,2.88,0,0,1,.05-.33c0-.13,0-.24.17-.27-.05-.3.16-.61.19-.8s0-.33.06-.42.11,0,.14-.38a.68.68,0,0,1,.12-.37c.12-.19,0-.33.22-.78a1.68,1.68,0,0,0,.06-.45c0-.13.13-.17.17-.32a3.49,3.49,0,0,1,.07-.43c0-.13.12-.17.14-.34.06-.63.14-.23.21-.78a1,1,0,0,1,.13-.39,1.49,1.49,0,0,0,.08-.42.49.49,0,0,1,.18-.36l0,0a2.27,2.27,0,0,0,.07-.43,3.3,3.3,0,0,0,.14-.4,1.6,1.6,0,0,1,.11-.43.36.36,0,0,0,.06-.2s0-.18,0-.19a.58.58,0,0,1,0-.19c.13-.29,0,.05.14-.46a1.34,1.34,0,0,1,.1-.32.56.56,0,0,0,.08-.3,2.57,2.57,0,0,1,.18-.62c0-.11,0-.23.06-.35s.08-.14.12-.27a3.13,3.13,0,0,1,.16-.62c.09-.19.06-.37.12-.5a2.44,2.44,0,0,0,.2-.77c0-.12.09-.13.12-.29a.43.43,0,0,1,.13-.26c1.36-.06.8-.09,1.12-.16.14,0,.25,0,.35-.08s.11-.06.27-.14,0,0,.12-.08L42.76,8a1.88,1.88,0,0,1,.28-.2c.07,0,0,0,.06,0s0-.09.19-.32.08-.07.13-.14a2.33,2.33,0,0,0,.34-.88c.15-.07,0,.05.09,0V5.6c-.08,0,0,.06-.07,0h0a.47.47,0,0,0-.06-.19c-.06-.14,0-.24-.13-.39s0-.13-.21-.33l-.24-.3c-.14-.2-.07,0-.22-.19s-.11,0-.22-.17-.07,0-.17-.09,0,0-.17-.11l-.19-.1a6.2,6.2,0,0,0-.62-.2,12.5,12.5,0,0,0-1.63,0c-.13,0,0,0-.1.06s-.14,0-.27.07-.2.16-.5.17c0,.11,0,.06-.16.15a4.69,4.69,0,0,0-.64.54c-.26.26,0,.09-.18.27s-.09.07-.12.14c-.1.22,0,.05-.18.39a5.61,5.61,0,0,0,0,1.42c.1,0,0,0,.15,0a2.09,2.09,0,0,0,0,.28c.05.18.06,0,.15.17s0,.16.1.23,0,0,.09.07l0,.08c.11.13.09,0,.19.15a1.85,1.85,0,0,0,.56.41c0,.32,0,.18-.13.35s0,.12-.27.27c0,.17,0,0-.13.15l-.14.16h0l-.14.14a1.31,1.31,0,0,1-.15.12,1.18,1.18,0,0,1-.27.31,1.07,1.07,0,0,0-.14.16c-.07.09-.08.06-.14.12s0,.11-.1.18-.05.11-.23.23,0,.09-.15.16l-.16.12c-.09.09-.07,0-.14.1s0,0-.05.09,0,0-.09.05,0,.13-.18.11v0c0,.15-.08.15-.19.23s-.11.15-.18.19c-.23.16-.12.13-.21.18-.29.17-.05.11-.27.16a5.46,5.46,0,0,0-.48.34c-.17.12-.28.28-.53.32,0,0,.11-.07,0,.08l-.19.11-.08,0c-.16.08,0,0-.22.17s0,.09-.16.14-.08,0-.24.09,0,0-.35.17c-.1.07-.17,0-.28.12a2,2,0,0,1-.29.15c-.25.14-.18,0-.31.11s0,.07-.29.12-.12.08-.26.14a2.68,2.68,0,0,1-.44,0,1.7,1.7,0,0,0-.35.07A5.09,5.09,0,0,1,30,13.8a.4.4,0,0,0-.13-.06s-.13,0-.14-.07l0,0c0-.05,0,0-.07,0l-.07,0a.49.49,0,0,1-.31-.1,1.61,1.61,0,0,0-.26-.09,2.41,2.41,0,0,0-.39-.29c-.14,0,0,0-.13-.06s0,.06-.27-.23h0l0-.07L28,12.67c-.2,0-.12,0-.21-.11s-.06,0-.1-.07,0,0-.07-.08a4.11,4.11,0,0,1-.55-.51c-.17-.27-.13-.07-.21-.22l-.23-.34c0-.05,0,0-.11-.07l-.15-.15c-.13-.12-.05-.17-.17-.26s-.08,0-.13-.18,0-.06-.14-.14a.78.78,0,0,1-.11-.2c-.09-.17-.11,0-.09-.16s-.07,0-.1-.13,0-.05-.1-.11,0-.09-.21-.21a1.16,1.16,0,0,0,0-.18c-.06-.1,0,0-.11-.08s0-.17-.12-.27S25,9.2,24.91,9a.35.35,0,0,0-.16-.22l0-.1c-.09,0-.05,0-.1-.11s-.05,0-.06-.13-.06,0-.11-.13,0,0-.11-.13,0-.23-.18-.31l0-.06c-.13,0,0,0-.1-.17s-.07-.07-.13-.12,0,0-.17-.32,0-.22-.17-.34,0-.17-.16-.33-.09-.07-.16-.35-.14-.06-.19-.3,0-.07-.11-.19h0l0,0A.86.86,0,0,1,23,5.13l.15,0c.21-.08,0-.12.47-.17l.11-.08.16-.16c.23-.12.08,0,.16-.12s0,0,.18-.13l.19-.11c.12-.18.11,0,.18-.24s.13-.08.19-.25,0-.12.14-.27A2.41,2.41,0,0,0,25,2.93a4.47,4.47,0,0,0-.1-1l-.09,0a.29.29,0,0,1-.09-.16s0-.08,0-.11,0,0-.08-.08-.07-.15-.13-.23-.12-.1-.17-.16C24.11.88,24.21.92,24,.78L23.69.56c-.07,0-.05,0-.13,0s-.09-.08-.23-.13a1.89,1.89,0,0,1-.23,0c-.17-.08,0-.1-.32-.12A10.18,10.18,0,0,0,21,.23a.2.2,0,0,1-.17.12,2.26,2.26,0,0,1-.29,0Z"/><path class="cls-1" d="M7.86,27.42c.31,0,6.55,0,7,0H34.26c.53,0,1.24,0,1.75,0a.3.3,0,0,0,.1-.28c0-.78,0-1.84,0-2.57-.34-.09-2.91,0-3.5,0H11.31c-.61,0-3.17-.06-3.53,0v2.73s0,0,0,.06,0,0,0,.07Z"/><path class="cls-2" d="M37,21.46l-.16.73c0,.15-.1.19-.13.3s0,.26-.07.37a2.13,2.13,0,0,1-.11.33c-.16.48,0,.74-.65.73-1.43,0-2.87,0-4.3,0H10.11c-.72,0-1.44,0-2.15,0-.24,0-.27,0-.4-.1s-.11-.42-.23-.65a.9.9,0,0,1-.08-.24l-.06-.09c-.05.24.11.36.18.78,0,.17,0,.25.18.33A.77.77,0,0,0,8,24H35.77c.44,0,.69,0,.75-.34a1.43,1.43,0,0,1,.08-.37c0-.06.06,0,.09-.13a1.33,1.33,0,0,0,0-.21,4.1,4.1,0,0,1,.21-.75.79.79,0,0,1,.1-.34.91.91,0,0,0,.09-.36.82.82,0,0,1,.1-.4c.13-.22.07-.41.21-.72a.56.56,0,0,0,.06-.39s0,0,0,0l0,0a.45.45,0,0,1,0,.11,1.65,1.65,0,0,0-.14.53,3.82,3.82,0,0,1-.13.36c-.07.2,0,.34-.12.36Z"/><path class="cls-3" d="M7.86,27.42c-.11,0-.11,0-.15-.07s0-2.51,0-2.78a6,6,0,0,1,1.68-.08h23.3c.47,0,3.25,0,3.49.05a24.84,24.84,0,0,1,0,2.86,2,2,0,0,1-.83.06H8.69c-.17,0-.82,0-.83,0Zm-.22-2.9c0,.23,0,2.23,0,2.66,0,.16,0,.28.16.32s13.41,0,14.19,0H35.64c.52,0,.66.06.66-.36,0-.76.05-2,0-2.61a1.53,1.53,0,0,0-.8-.09H9.35a7.2,7.2,0,0,0-1.71.07Z"/><path class="cls-4" d="M7.86,27.42c0-.07,0,0,0-.07s0,0,0-.06V24.56c.36-.09,2.92,0,3.53,0h21.3c.59,0,3.16-.06,3.5,0,0,.73,0,1.79,0,2.57a.3.3,0,0,1-.1.28c-.51,0-1.22,0-1.75,0H14.9c-.49,0-6.73,0-7,0Zm0,0c0,.08.66,0,.83,0H35.33a2,2,0,0,0,.83-.06,24.84,24.84,0,0,0,0-2.86c-.24-.1-3-.05-3.49-.05H9.38a6,6,0,0,0-1.68.08c0,.27,0,2.7,0,2.78s0,.08.15.07Z"/><path class="cls-5" d="M6.88,21.47l.1.37a2.29,2.29,0,0,0,.09.5c.06.15.08,0,.1.24a1.28,1.28,0,0,1,0,.26l.06.09a.9.9,0,0,0,.08.24c.12.23,0,.47.23.65s.16.11.4.1c.71,0,1.43,0,2.15,0H31.6c1.43,0,2.87,0,4.3,0,.69,0,.49-.25.65-.73a2.13,2.13,0,0,0,.11-.33c0-.11,0-.27.07-.37s.09-.15.13-.3l.16-.73c-.12,0-.14.14-.17.27a2.88,2.88,0,0,0-.05.33c0,.19,0,.14-.11.29s0,.43-.17.62-.08.44-.13.56l-.11.16,0,.08s0,.09,0,0v0a5.16,5.16,0,0,1-.89,0H14.81c-.48,0-6.84,0-7.13,0,0-.05,0-.12-.06-.16s0,0-.11-.11a1.23,1.23,0,0,1,0-.34c0-.44-.16-.1-.19-.56s-.15-.3-.19-.61a1.75,1.75,0,0,0,0-.33l-.17-.27Z"/><path class="cls-3" d="M7,21.84l-.1-.37c0-.09,0-.26,0-.37s-.12-.2-.14-.29a2.66,2.66,0,0,1-.07-.39c0-.12-.1-.19-.13-.32a1.76,1.76,0,0,0-.06-.4c0-.15-.09-.16-.13-.31s0-.25-.07-.37-.06-.09-.08-.16,0-.46-.08-.59S6,18.14,5.91,18s0-.29,0-.4-.09-.18-.15-.29,0-.25-.09-.37c-.22-.56-.08-.37-.18-.71,0-.1-.12-.2-.11-.31l0-.12a1.38,1.38,0,0,0,0-.26,2.37,2.37,0,0,1-.13-.34,2.82,2.82,0,0,0-.18-.64c0-.07,0,0-.06-.07l.22,1a1.27,1.27,0,0,1,.14.44,2.5,2.5,0,0,0,.14.46c.06.14,0,.34.11.48.16.41.13.54.28.9.06.14,0,.34.1.48.25.6.09.62.26.92s.06.28.1.5a.42.42,0,0,0,0,.1l0,.05c.16.3.1.53.21.73s0,.15.13.46a3.41,3.41,0,0,1,.2.7c0,.22.1.16.15.18Z"/><path class="cls-3" d="M20.15,4.86V4.8c-.12,0-.17-.08-.26-.14l-.11-.09c-.07-.05-.09-.05-.11-.13l-.2-.19c-.08-.06-.07,0-.12-.11s0-.1-.05-.15-.05,0-.11-.08,0-.09-.05-.16S19,3.65,19,3.5a3.16,3.16,0,0,1-.1-1,2.72,2.72,0,0,0,.07-.33,1.38,1.38,0,0,1,.39-.82A2.22,2.22,0,0,1,19.81.8l.37-.27c.08-.05.09,0,.18-.06s0,0,.14-.07.14-.06.25-.11c.42-.2.38-.07.83-.17a2.77,2.77,0,0,1,1.19.06,1.8,1.8,0,0,1,.74.26c.08,0,.15,0,.23.09a.93.93,0,0,0,.19.14c.38.24.23.18.42.36s0,0,.12.06c-.08-.2-.1-.11-.19-.22S24.19.78,23.93.6s.05,0-.24-.16,0,0-.34-.17.14,0-.43-.13C22.63.09,22.84,0,22.17,0a2.9,2.9,0,0,0-1.08.08c-.22.1-.27,0-.44.14s0,0-.14.07l-.42.21c-.07.05,0,0-.11.08a1,1,0,0,0-.36.28l-.69.88a3.31,3.31,0,0,0-.17,1.3c0,.09.07.11.09.25.09.5.12.32.22.58l.55.65c.13.11.32.32.53.33Z"/><path class="cls-6" d="M39.21,13.55c.21-.11.22-.5.25-.6s.11-.12.18-.58a1.55,1.55,0,0,1,.06-.31,1.72,1.72,0,0,0,.11-.29c0-.1,0-.23.06-.32s.1-.12.12-.26a2.08,2.08,0,0,1,.15-.64c.1-.16.08-.43.16-.61a1,1,0,0,0,.11-.29,1.55,1.55,0,0,1,.06-.31,2.06,2.06,0,0,0,.12-.26c.11-.43-.18-.29.85-.45.66-.11.26-.07.5-.15s.13,0,.33-.11l.13-.07L42.92,8c.22-.17.18-.13.18-.2l-.06,0a1.88,1.88,0,0,0-.28.2l-.24.16-.12.07c-.16.08-.1,0-.27.14s-.21,0-.35.08c-.32.07.24.1-1.12.16a.43.43,0,0,0-.13.26c0,.16-.09.17-.12.29a2.37,2.37,0,0,1-.2.77c-.06.13,0,.31-.12.5a3.13,3.13,0,0,0-.16.62c0,.13-.09.15-.12.27s0,.24-.06.35a2.57,2.57,0,0,0-.18.62.56.56,0,0,1-.08.3,1.5,1.5,0,0,0-.1.32c-.1.51,0,.17-.14.46a.59.59,0,0,0,0,.2Z"/><path class="cls-4" d="M37,21.46c.09,0,0-.16.12-.36a3.82,3.82,0,0,0,.13-.36,1.65,1.65,0,0,1,.14-.53.45.45,0,0,0,0-.11l0,0c0-.06,0,0,0,0,0-.43.14-.27.18-.61a1.12,1.12,0,0,1,.07-.29,3.06,3.06,0,0,0,.17-.64A.8.8,0,0,1,38,18.2a3.35,3.35,0,0,0,.11-.67c-.06,0,0,0,.06,0,.07-.42.23-.8.3-1.18a3.94,3.94,0,0,0,.17-.57c0-.27.15-.52.15-.62l0,0a.49.49,0,0,0-.18.36,1.49,1.49,0,0,1-.08.42,1,1,0,0,0-.13.39c-.07.55-.15.15-.21.78,0,.17-.1.21-.14.34a3.49,3.49,0,0,0-.07.43c0,.15-.15.19-.17.32a1.68,1.68,0,0,1-.06.45c-.2.45-.1.59-.22.78a.68.68,0,0,0-.12.37c0,.36-.06.25-.14.38s0,.29-.06.42-.24.5-.19.8Z"/><path class="cls-6" d="M2.25,3.46l-.06,0c-.3.15-.15,0-.2.14.19,0,.26-.11.48-.13a4.49,4.49,0,0,1,1.69.09c.16.08.27,0,.46.14a.68.68,0,0,0,.2.08,5.06,5.06,0,0,1,.8.62c.21.24.13.11.22.32s.09,0,.19.34c0,.1,0,.12.08.19s.06,0,.1.17a7.85,7.85,0,0,1,0,1,.62.62,0,0,1-.11.41c-.06.09-.1.31-.15.36s-.07,0-.21.29l0,.07c.26-.07,0-.08.28-.3.09-.07.11-.22.19-.34a2.63,2.63,0,0,0,0-1.77C6.08,5,6.12,4.94,6,4.81a.48.48,0,0,1-.1-.17A3.39,3.39,0,0,0,5.18,4a.85.85,0,0,0-.37-.2c-.1,0-.09-.06-.18-.1l-.71-.21a4.36,4.36,0,0,0-1.67,0Z"/><path class="cls-6" d="M39.45,3.63a.45.45,0,0,0,.16,0l.06,0a2.59,2.59,0,0,1,.8-.12,1,1,0,0,1,.51,0c.23,0,.42,0,.54.06a6.2,6.2,0,0,1,.62.2l.19.1c.19.07.05,0,.17.11s.12,0,.17.09,0,0,.22.17.08,0,.22.19l.24.31c.19.19.07.16.21.32s.07.25.13.39a.53.53,0,0,1,.06.19h0c0,.08,0,0,.07,0v.83c-.13.05.06-.07-.09,0a2.33,2.33,0,0,1-.34.88c-.05.07-.08.06-.13.14s-.2.19-.19.32l.07,0a1.75,1.75,0,0,0,.34-.4l.16-.27c.13-.23,0-.26.16-.43s.06-.39.06-.52a6.27,6.27,0,0,0,0-.75c-.13-.07,0,.08-.13-.25l-.67-.91c-.1-.07,0,0-.11-.09s0,0-.22-.15-.06,0-.15-.1,0,0-.25-.14c-.07,0-.09-.06-.15-.09a.62.62,0,0,0-.16,0,1,1,0,0,0-.32-.12,1.87,1.87,0,0,1-.37-.07,3,3,0,0,0-1.88.23Z"/><path class="cls-3" d="M24.93,1.89a4.47,4.47,0,0,1,.1,1,2.41,2.41,0,0,1-.15.63c-.12.15-.08.09-.14.27s-.13.07-.19.25-.06.06-.18.24,0,0-.14.15l-.16.15a1.07,1.07,0,0,1-.39.22l-.11.08c-.05.06,0,0-.06,0l-.19.09c-.27.17-.46,0-.16.57,0,.07.05.15.09.22s.07.11.12.19,0,.14.08.24.08.11.12.19.1.31.27.41c0-.18-.13-.2-.19-.44s-.07-.1-.13-.19A1.14,1.14,0,0,1,23.45,6c-.07-.21-.08,0-.2-.41-.06-.21-.17-.09-.17-.42.15,0,.22,0,.34-.1s.21-.07.3-.14.15-.09.25-.17,0,0,.15-.09.1-.08.23-.17l.28-.32c.12-.22.08,0,.17-.23a.85.85,0,0,1,.11-.26,2.39,2.39,0,0,0,.22-1.29,2.41,2.41,0,0,0-.22-.75c-.09-.12-.09-.22-.2-.29l-.07,0c0,.09.1.16.15.27a1.38,1.38,0,0,1,.14.27Z"/><path class="cls-4" d="M38.77,8.59c-.05.17-.13.11-.19.29,0,0,0,0,0,0l0-.06c.28-.15.17-.14.27-.27s.17,0,.13-.35a1.85,1.85,0,0,1-.56-.41c-.1-.14-.08,0-.19-.15l0-.08c-.06-.06-.05,0-.09-.07s0-.17-.1-.23-.1,0-.15-.17a2.09,2.09,0,0,1,0-.28c-.19,0,0,0-.15,0a5.61,5.61,0,0,1,0-1.42c.21-.34.08-.17.18-.39,0-.07.06-.06.12-.14s-.08,0,.18-.27A4.69,4.69,0,0,1,38.86,4c.14-.09.13,0,.16-.15a.6.6,0,0,0-.33.16.44.44,0,0,1-.15.1l-.36.32,0,.07h0l-.3.45a.48.48,0,0,1-.08.16,1.67,1.67,0,0,0-.15.89c0,1,.07.68.21,1.08a2.36,2.36,0,0,0,.36.53l.07.07.15.17a1.71,1.71,0,0,0,.56.37c0,.15.06.13,0,.23s0,.06-.12.15Z"/><path class="cls-5" d="M4.87,14.47c.06,0,0,0,.06.07a2.82,2.82,0,0,1,.18.64,2.37,2.37,0,0,0,.13.34,1.38,1.38,0,0,1,0,.26l0,.12a1.7,1.7,0,0,0,0-.39c0-.2-.06-.14-.13-.27s0-.48-.11-.65S5,14.53,5,14.33c-.08-.74-.14-.29-.18-.57,0-.11,0-.24,0-.36,0-.29-.13,0-.19-.61,0-.17,0-.19-.1-.28s0-.34-.14-.62a.63.63,0,0,1-.12-.26c0-.12,0-.22-.05-.34s0-.21-.19-.22c0,.16,0,.08.07.2s.06.17.07.22a1,1,0,0,0,.11.43.79.79,0,0,1,.09.44,1.45,1.45,0,0,0,.14.4c.11.3,0,.18.19.66a.73.73,0,0,1,0,.2c0,.39.22.69.2.85Z"/><path class="cls-4" d="M29.66,13.65l0,0s.11.06.14.07a.4.4,0,0,1,.13.06,5.09,5.09,0,0,0,1.14.15,1.69,1.69,0,0,1,.36-.07,2.63,2.63,0,0,0,.43,0c.14-.06-.05-.09.26-.14s.14-.05.29-.12.06,0,.31-.11a2,2,0,0,0,.29-.15c.11-.08.18-.05.28-.12.31-.2.19,0,.35-.16s.09-.05.24-.1,0,0,.16-.14.06-.09.22-.17l.08,0,.19-.11c.13-.15,0-.06,0-.08l-.27.13c-.18.13-.1,0-.24.15a1.54,1.54,0,0,1-.49.3l-1.11.51a1.15,1.15,0,0,0-.29.12c-.1,0-.21.06-.31.09a1.68,1.68,0,0,1-.7.14,4.67,4.67,0,0,1-1.5-.2Z"/><path class="cls-3" d="M4,11.07a1.68,1.68,0,0,0,0-.51c-.06-.13-.17-.21-.16-.4s0,0,0-.1,0-.08,0-.12-.06-.13-.09-.23a3.69,3.69,0,0,0-.1-.5c-.2-.47,0-.57-.69-.6a3,3,0,0,1-.91-.18A4.34,4.34,0,0,1,.82,7.77c0-.08,0-.11-.11-.16L.64,7.52c-.09-.09,0,0-.11-.07,0,.12.09.18.18.28l.77.58c.16.06.2.11.32.15l.2,0c.06,0,0,0,.14.07L3,8.72c.47,0,.26.17.38.48a.86.86,0,0,1,.11.3,2,2,0,0,0,.07.46l0,0v0l.07.13a4.76,4.76,0,0,0,.15.47c.13.26,0,0,.08.3,0,0,0,.08,0,.08s0,0,.06.07Z"/><path class="cls-5" d="M20.5.4l.28-.05A.18.18,0,0,0,21,.23a10.18,10.18,0,0,1,1.83,0c.33,0,.15,0,.32.12s.15,0,.23,0,0,.07.23.13.06,0,.13,0L24,.78c.23.14.13.1.35.34.05,0,.16.13.17.15s.05.15.13.23,0,0,.08.08,0,.07,0,.11a.29.29,0,0,0,.09.16.19.19,0,0,0,.09,0,1.38,1.38,0,0,0-.14-.27c-.05-.11-.12-.18-.15-.27s-.11-.17-.17-.26,0,0-.12-.06,0-.12-.42-.36a.93.93,0,0,1-.19-.14c-.08-.05-.15,0-.23-.09a1.8,1.8,0,0,0-.74-.26A2.77,2.77,0,0,0,21.58.12c-.45.1-.41,0-.83.17-.11.05-.18,0-.25.11Z"/><path class="cls-5" d="M14.57,13.49a5.26,5.26,0,0,1-.73.28.53.53,0,0,1-.31,0c-.06,0,0,0-.21.06l-.22,0a3.62,3.62,0,0,1-.47,0,5.58,5.58,0,0,1-.81-.17l.11.09c.18.15.37.06.6.12s.05.09.42.1c.61,0,.32-.07.6-.12s.39.09.54-.15a.74.74,0,0,0,.32-.05c.17-.11-.05,0,.24-.13.13-.05,0-.05.23-.12s.1,0,.23-.13l.11-.07.31-.23c.07,0,.05,0,.12-.05s0,0,.09-.09l0,0c.05,0,.06,0,.11-.19l-.1.07-.07.07-.45.31a1.84,1.84,0,0,1-.7.39Z"/><path class="cls-3" d="M18.48,9.62c.08,0,0,0,.05,0l.24-.38c.07-.14.09-.06.16-.18s0-.14.11-.23.06,0,.08-.09l.25-.43c.1-.21.13,0,.18-.36a.78.78,0,0,1,.11-.18.51.51,0,0,0,.07-.17,11,11,0,0,0,.54-1c-.1,0,0,0-.07,0l-.11.13A2,2,0,0,1,20,7a2.14,2.14,0,0,0-.13.19l-.31.58a.59.59,0,0,0-.12.2c0,.12-.05.06-.12.17a2.18,2.18,0,0,0-.09.23c0,.09-.08.07-.13.17s0,.13-.09.18c-.22.19,0,.14-.25.36s-.05.09-.1.19-.21.19-.19.39Z"/><path class="cls-5" d="M24.24,7.77c0-.25-.15-.36-.21-.47s-.2-.28-.19-.43c-.17-.1-.21-.29-.27-.41s-.09-.09-.12-.19,0-.14-.08-.24-.09-.1-.12-.19-.05-.15-.09-.22c-.3-.54-.11-.4.16-.57L23.51,5c.07,0,0,0,.06,0-.42,0-.26.09-.47.17l-.15,0A.84.84,0,0,0,23,5.6l0,0h0c.1.12.07,0,.11.19s.16.14.19.3,0,.14.16.35,0,.16.16.33,0,.16.17.34.05.2.17.32.1.06.13.12,0,.16.1.17Z"/><path class="cls-6" d="M8.58,11.93l.28.19a2.61,2.61,0,0,0,.61.41c.12.07,0,.05.14.11s.05,0,.17.09a2.33,2.33,0,0,0,.49.28l.51.26c.19.08.08.12.4.16-.08-.09,0,0-.11-.07l-.09,0a.63.63,0,0,1-.2-.13l-1.14-.63a.23.23,0,0,0-.09-.06s0,0-.08,0,0,0-.12-.11-.07,0-.18-.09a7.5,7.5,0,0,0-.91-.63c0,.09,0,0,.08.11l.08,0a.73.73,0,0,1,.16.15Z"/><path class="cls-5" d="M3.75,10.16a.57.57,0,0,0,0-.26c-.06-.2-.08,0-.13-.19s0-.4-.05-.57A.37.37,0,0,0,3.45,9c-.06-.09,0-.14-.08-.24S3,8.58,2.5,8.54s0-.08-.54-.15c-.24,0-.08,0-.25-.12L1.38,8.1c-.24-.08-.07,0-.22-.13s0,0-.1-.07S1,7.83.82,7.77a4.34,4.34,0,0,0,1.05.66,3,3,0,0,0,.91.18c.69,0,.49.13.69.6a3.69,3.69,0,0,1,.1.5c0,.1.06.13.09.23s0,.07,0,.12,0,0,0,.1Z"/><path class="cls-5" d="M28,12.67a1.92,1.92,0,0,0-.22-.18,3.92,3.92,0,0,1-.59-.62s0,0,0,0l-.13-.09c-.16-.12-.07-.06-.17-.2l-.94-1.16a.32.32,0,0,0-.19-.19c0,.18,0,0,.09.16a.78.78,0,0,0,.11.2c.1.08.1,0,.14.14s0,.09.13.18,0,.14.17.26l.15.15c.06.05.06,0,.11.07l.23.34c.08.15,0,0,.21.22a4.11,4.11,0,0,0,.55.51c.05.06,0,0,.07.08s.05,0,.1.07,0,.09.21.11Z"/><path class="cls-3" d="M6.3,9.92c.17.05.2.17.37.32l.12.1s.06.08.1.12a2.55,2.55,0,0,1,.36.32.63.63,0,0,0,.13.11l.58.52.13.1c.09.08.05.07.18.1A1.58,1.58,0,0,0,8,11.3l-1.08-1c-.1-.12-.06,0-.17-.13l-.09-.08c-.2-.18,0-.09-.21-.2s-.27-.3-.36-.38,0-.19-.25-.2a1.18,1.18,0,0,0,.11.19c.06.06.08.05.14.13a3.22,3.22,0,0,1,.26.29Z"/><path class="cls-2" d="M25.75,10.18a.32.32,0,0,1,.19.19l.94,1.16c.1.14,0,.08.17.2l.13.09c0-.21-.06-.07-.15-.19s0-.11-.17-.24c0,0,0,0,0,0a.53.53,0,0,1-.06-.1c-.08-.09-.09,0-.16-.15s-.07-.09-.17-.23l-.09-.12c-.21-.19-.08-.15-.22-.27s-.06-.15-.19-.27-.07,0-.12-.17-.07-.1-.14-.18-.06-.13-.11-.19-.07,0-.14-.18,0-.09-.12-.18S25.39,9.07,25,9c0,.16.07.08.19.34l.39.58c.07.12.18.15.16.31Z"/><path class="cls-5" d="M0,5.63v.91H.13a1.68,1.68,0,0,0,.21.56l.14.19c0-.4-.16-.12-.22-.58,0-.1,0-.38-.1-.46s-.07,0-.12,0l0-.32h0l.07,0,.05-.07a.35.35,0,0,0,.06-.19c0-.16,0-.3.06-.47-.14.15,0,.37-.23.5L0,5.63Z"/><path class="cls-2" d="M11.18,13.43c.16.11.1.07.3.13s.19.09.34.13a5.58,5.58,0,0,0,.81.17,3.62,3.62,0,0,0,.47,0l.22,0c.16,0,.15,0,.21-.06-.23,0-.6,0-.9,0s-.36-.11-.65-.15-.13-.05-.31-.12l-.16,0-.73-.31a.63.63,0,0,0,.2.13l.09,0C11.19,13.42,11.1,13.34,11.18,13.43Z"/><path class="cls-3" d="M37,10.41c.15,0,.27-.21.38-.31l0-.06,0,0,.06,0c.06-.06.07,0,.14-.12a1.07,1.07,0,0,1,.14-.16,1.18,1.18,0,0,0,.27-.31,1.31,1.31,0,0,0,.15-.12l.14-.14h0L38.51,9c.12-.12.1,0,.13-.15l0,.06s0,0,0,0c.06-.18.14-.12.19-.29l-.13,0a2.64,2.64,0,0,1-.49.6v0h0L38,9.42c-.05.06-.07.05-.11.09l-.31.35c-.07.05-.07,0-.12.1S37.06,10.23,37,10.41Z"/><path class="cls-5" d="M8.58,11.93a.73.73,0,0,0-.16-.15l-.08,0c-.11-.09-.05,0-.08-.11h0c-.13,0-.09,0-.18-.1L8,11.41l-.58-.52a.63.63,0,0,1-.13-.11,2.55,2.55,0,0,0-.36-.32s-.07-.1-.1-.12l-.12-.1c-.17-.15-.2-.27-.37-.32l0,0c.15.16,0,.1.14.19s0,0,.08.07a.71.71,0,0,1,.09.15.69.69,0,0,1,.18.1l.6.57.07.06,1,.79c.1.06,0,0,.13,0Z"/><path class="cls-2" d="M14.57,13.49a1.84,1.84,0,0,0,.7-.39l.45-.31.07-.07.1-.07c.1,0,.07,0,.15-.1l.28-.27a.67.67,0,0,1,.14-.11c0-.07,0,0,.05-.08l0,0c.06-.06.05-.07.06-.14-.18.07-.44.41-.55.49l-.55.45c-.06,0-.09,0-.14.08-.21.18-.08,0-.27.18-.47.38-.5.16-.54.37Z"/><path class="cls-6" d="M0,5.63l.06,0c.21-.13.09-.35.23-.5L1,4.2H.84l-.23.23a1.27,1.27,0,0,0-.28.42c0,.06,0,0-.09.12a1,1,0,0,0-.1.35L0,5.39l0,.24Z"/><path class="cls-6" d="M34.57,12.41c.25,0,.36-.2.53-.32a5.46,5.46,0,0,1,.48-.34l.09-.1.09-.08c.15-.15.39-.27.48-.45-.14,0-.15.08-.25.17l-.39.33-.22.15a1.46,1.46,0,0,0-.19.16l-.33.24c-.29.21-.31.15-.29.24Z"/><path class="cls-5" d="M20.39,6.28c0,.09,0,0-.07.13a.41.41,0,0,0-.05.16,9.82,9.82,0,0,1-.54,1,.51.51,0,0,1-.07.17.78.78,0,0,0-.11.18c.12-.06.18-.07.2-.17s0-.13.12-.26.06-.11.11-.23.12-.1.16-.22,0-.14.11-.23.08-.1.11-.25.12.06.21-.52c-.05,0,0,0-.07.06s0,.08,0,.14l-.07,0Z"/><path class="cls-5" d="M25.75,10.18c0-.16-.09-.19-.16-.31l-.39-.58C25.08,9,25.05,9.11,25,9s-.05-.13-.15-.25l0,0,0,0,0,.1a.35.35,0,0,1,.16.22c.08.24,0,.1.16.24s0,.18.12.27,0,0,.11.08a1.16,1.16,0,0,1,0,.18c.19.12.1.07.21.21s.06,0,.1.11,0,.08.1.13Z"/><path class="cls-3" d="M20.39,6.28l.07,0c0-.06,0-.1,0-.14s0,0,.07-.06.07-.08.11-.17a1.55,1.55,0,0,1,.07-.23c.07-.14.17-.14.16-.44l-.09-.06c-.28,0-.24-.14-.54-.17.09.11,0,0,.15.08s-.06,0,.38.15c0,.19,0,.17-.09.3s-.06.15-.1.26-.09.13-.14.23a.88.88,0,0,0-.09.3Z"/><path class="cls-3" d="M28.16,12.8c.18.06.1,0,.17.1s.1,0,.23.19a2,2,0,0,1,.39.29,1.61,1.61,0,0,1,.26.09.56.56,0,0,0,.31.11c-.07-.17.07,0-.22-.16l-.18-.07-.31-.18c-.08-.05,0-.06-.14-.11s0,0-.08,0l0,0s0,0,0,0-.07,0-.15-.1a.23.23,0,0,1-.07-.11l-.18,0,0,.07Z"/><path class="cls-3" d="M5.78,9.32c0-.14-.08-.17-.19-.27s0-.05-.09-.12,0,0-.11-.11A.54.54,0,0,1,5.3,8.7a1.1,1.1,0,0,0-.12-.11c-.06-.06,0-.08-.08-.13S5,8.42,5,8.37s0-.09,0-.18-.11,0-.08.16.06.09.12.16,0,.08.09.14,0,0,.2.19l.31.34c.07.1,0,.12.17.14Z"/><path class="cls-4" d="M39.45,3.63c-.09,0-.38.15-.39.15s0,0,0,.05c.3,0,.27-.13.5-.17s.18,0,.27-.07,0,0,.1-.06a12.5,12.5,0,0,1,1.63,0c-.12-.07-.31,0-.54-.06a1,1,0,0,0-.51,0,2.59,2.59,0,0,0-.8.12l-.06,0a.45.45,0,0,1-.16,0Z"/><path class="cls-3" d="M16.73,11.84l.18-.15c.11-.09,0-.11.17-.18s.07,0,.1-.13,0-.06.13-.14,0-.05.06-.07,0,0,.08-.06,0,.05.13-.2.17-.08.18-.3l-.18.16c-.1.09,0,.08-.11.16s-.09,0-.13.14a3.73,3.73,0,0,1-.39.44c-.17.26-.21.16-.22.33Z"/><path class="cls-2" d="M.84,4.21H1c.07,0,0,0,.14-.12s0-.06.18-.13.06,0,.15-.08A1.91,1.91,0,0,1,2,3.63c.05-.09-.1,0,.2-.14l.06,0c-.33,0-.11,0-.45.12l-.54.26c-.08,0-.06,0-.13.09S1,4,.89,4.15l-.05.06Z"/><path class="cls-5" d="M37,10.41c0,.1-.49.41-.58.6.21,0,0,0,.18-.11s0,0,.09-.05,0,0,.05-.08,0,0,.14-.11l.16-.12c.1-.07,0-.06.15-.16s.08-.11.23-.23.07-.05.1-.18l-.06,0,0,0,0,.06c-.11.1-.23.27-.38.31Z"/><path class="cls-3" d="M17.77,10.58c.28-.1.19-.19.29-.31s.33-.52.43-.57V9.62c-.15,0-.14.12-.21.23s-.07.06-.11.11a.75.75,0,0,0-.06.13A4.68,4.68,0,0,0,17.77,10.58Z"/><path class="cls-3" d="M.53,7.45c0-.15,0,0-.05-.15L.34,7.11a1.68,1.68,0,0,1-.21-.56H0v.12l.1,0a.92.92,0,0,0,.15.43.82.82,0,0,1,.11.17c.1.21.08.15.16.15Z"/><path class="cls-3" d="M28,12.67l.12.05c0-.11,0-.08-.1-.13s0,0-.12-.1-.06,0-.13-.09,0,0-.11-.11-.33-.4-.47-.42a3.92,3.92,0,0,0,.59.62A1.92,1.92,0,0,1,28,12.67Z"/><path class="cls-6" d="M5,8.19a.84.84,0,0,0,.44-.25l.09-.08.08-.08c.1-.09.13,0,.15-.2l-.05,0a2.29,2.29,0,0,0-.32.28A2,2,0,0,1,5,8.14c-.08,0,0,0,0,0Z"/><path class="cls-5" d="M36.24,11.12c-.09.18-.33.3-.48.45l-.09.08-.09.1c.22-.05,0,0,.27-.16.09-.05,0,0,.21-.18.07,0,.11-.14.18-.19s.16-.08.19-.23c-.15,0-.1,0-.19.13Z"/><path class="cls-5" d="M16.73,11.84c-.05.09,0,0-.11.08s0,.08-.06.14l0,0c-.06.07,0,0-.05.08.13,0,.16-.05.21-.14s.08,0,.15-.15.22-.11.26-.37c-.13.07-.06.09-.17.18l-.18.15Z"/><path class="cls-4" d="M24.62,8.4a.28.28,0,0,0-.05-.2c-.07-.12-.07,0-.11-.13s-.05-.32-.22-.3l0,.06c.16.08.08.18.18.31s.05,0,.11.13S24.53,8.37,24.62,8.4Z"/><path class="cls-5" d="M23.68,4.84a1.07,1.07,0,0,0,.39-.22l.16-.15c.11-.11.09,0,.14-.15l-.19.11c-.15.15-.12.08-.18.13s.07,0-.16.12l-.16.16Z"/><path class="cls-5" d="M20.15,4.86c.1,0,.1.06.13.1.3,0,.26.12.54.17A.71.71,0,0,0,20.49,5c-.24-.06-.1-.13-.34-.15Z"/><path class="cls-5" d="M20.15,4.8a1.56,1.56,0,0,0-.38-.32c-.05,0,0,0-.1,0s0,.08.11.13l.11.09C20,4.72,20,4.81,20.15,4.8Z"/><path class="cls-6" d="M24.78,8.64c0-.08,0-.1,0-.17s-.06-.08-.14-.07,0,0,.06.13S24.69,8.6,24.78,8.64Z"/><path class="cls-4" d="M28.56,13.09c-.13-.15-.16-.12-.23-.19s0,0-.17-.1c.24.29.09.07.27.23S28.42,13.07,28.56,13.09Z"/><path class="cls-5" d="M17.18,11.38l.05,0c.16-.08.2-.1.22-.25-.07,0,0,0-.08.06s0,0-.06.07-.08,0-.13.14Z"/></g></g></g></svg>