<svg xmlns="http://www.w3.org/2000/svg" viewBox="0 0 65.54 32.99"><defs><style>.cls-1{fill:#1c1c1c;}.cls-1,.cls-2,.cls-3,.cls-4{fill-rule:evenodd;}.cls-2{fill:#1a1a1a;}.cls-3{fill:#161616;}.cls-4{fill:#efefef;}</style></defs><g id="Слой_2" data-name="Слой 2"><g id="Слой_1-2" data-name="Слой 1"><g id="_3015324098976" data-name=" 3015324098976"><path class="cls-1" d="M18.81,29.41c2.21-.73,10.42.09,13.45.1,3.44,0,11.12-.85,13.71-.25-2.25.86-5.3.26-7.14.88,1.41,0,2.89-.19,4.27-.18,1.21,0,2.69.34,3.71.22a174,174,0,0,1-28,0c.38.08,6.11-.12,7.63,0l-7.58-.77ZM11.28,30c1.48-2.05,6.5-2.41,9.49-2.65,8.75-.7,26.75-1.27,33.49,2.26-.39.31.29.68-1.22.11-6.47-2.44-23.52-1.83-31.56-1.48A45.09,45.09,0,0,0,11.28,30ZM49,27c0-.09-.14-.07-.21-.11a.87.87,0,0,1,.73-.59c1.35-.29-.24-.36,2,1.13L49,27Zm-35,.52c1.83-1.84,1.8-1.67,2.37-.63Zm4.14-1c.41-1.56.85-1.3.92-1.59,0-.14.15-.14.22-.22C19.73,26,19.73,26,21,26.48l-2.63.17c0-.08-.15,0-.22-.07Zm35.81,0c-.17.16.15,1.2-1.37-.76l1.08-.48C54.37,26.22,54.33,25.81,54,26.57Zm-14.4-.33c.67-1.6-.08-.72,1.28-1.33,1,.63.87.48,1.31,1.43Zm-5.64-.17c1-1.39,1.79-.41,3-1.74,1.16.85.86.39,1.41,1.86Zm-5.4-1.75c.8,1.34,1.21.46,2.68,1.73l-4,.05Zm-3.92.57c1.67.73.52.56,1.46,1.28l-2.58.18,1.12-1.46ZM13,25.94c-1.06,1.37-2.25,1.35-1.17-.68ZM42.71,24c.25-.15,0-.86,1.25,0C43.42,24.72,43.37,24.94,42.71,24Zm-9.47,0c-.61,1-.15.72-1.37.25,0-.25.6-.43.77-.47C33.72,23.62,32.75,23.75,33.24,24Zm-11.44.51c-.28,0-.45-.29-.55-.39.57-.94,1-.45,1.53-.12A.87.87,0,0,1,21.8,24.54Zm-9.23-.77a15.54,15.54,0,0,1,3.73-.93c-.26,1.2-.43,1-1.24,1.72C14.56,24.44,13.12,24,12.57,23.77Zm36.68-.7c.48-.19-.73-.18.73-.13l3,.86-2.59.72c-1.52-1.12-.58.06-1.17-1.45Zm-28.56-.13a1.9,1.9,0,0,1,3,.65l-1.68-.7a4.27,4.27,0,0,0-1.44.33l.05,1.86,2.39.47c-2.95.4-4.31-.89-2.36-2.61Zm23.55,3.45c2.32-.83,2-2.32,1-4.15l2.48.39c-.84,1.78.55.65-1.59,1.54.46,2.12.85.91,1.25,2.69Zm-2.1-1.54c-.6-.84-.26,1-.47-.85a1.36,1.36,0,0,1,1.43-1.5,2.73,2.73,0,0,1,2.39,1.94c-.49.57-1.14,1.72-2.7,1.2-1.15-.39-.27.05-.66-.82,2.83,2,4.16-2.59.11-1.8l-.1,1.83ZM20,22.28l-.69,1.22c-.15.32-.23.6-.34.84-.89-.95-.67-.27-1.38-1.7Zm19.83-.52,2.11.36c-.66.71-.48,1-1.73.92ZM25.26,23.08c-1.07,0-1-.26-1.55-1.17l2-.18Zm12.9-1.4c-.08,1,0,.94-.68,1.56s-3.79-.79-4.26-1.69Zm-5.88-.06c-1.86,1.79-2.85.94-3.59,2-.81-1.27-.74-.16-1.3-2l4.89,0ZM10.7,23.39c0-.08-1-.16.2-.93.08-.06,1.08-.37,1.2-.4l8-1.55a99.2,99.2,0,0,1,30.43.8c3.47.64,4.07.73,4.36,2.2C49.17,21.15,39,20.7,32.26,20.69a113.29,113.29,0,0,0-11.78.67c-1.9.21-3.78.5-5.62.87-.69.13-4.09,1.17-4.16,1.16Zm22-5.6c0-.11.12-.1.21-.17l.61,1.25-1.61-.26.45-.5c.1-.11.28-.07.34-.32ZM6.18,15.63c.39-.73,1.44-.48,1.73.67-.43.51-.37.49-1.13.61-.47-.5-.46-.4-.6-1.28Zm36.57-.86a9.25,9.25,0,0,1,1.29,0c.6.1.39.14.68.34-.51,1.08.29.83-1.66.63l-.31-1ZM22.51,15c-.74,1.45-1.32,1.06-1.93-.05C21.61,14.64,21.46,14.49,22.51,15Zm27-.22-.08,1.5c-1.66.11-1-.14-1.93-1.29-.53,1.77-2.19,2.13-.43,4.31,2.33.8,2.82-.82,4.56-1.66l1,2.11c-1.13-1.13-.5-1.17-2.19-.52a8.07,8.07,0,0,1-2.29.78,33,33,0,0,1-5.34-.73c1.56-.22,2.7-.35,3-1.74.52-2.3-1.57-1.94.15-3-4.12-1.44-2.67-6.92.9-6.77A3.29,3.29,0,0,1,50,11c.15,2.34-1.14,2.84-2.4,3.77ZM33.09,12.43c-1.77-.08-1.46-1.41-.1-1.6C33.48,12,33.42,11.2,33.09,12.43Zm20.53,2.34-.1-.21-.74-1.66c.72-.83.76-.94,2.14-.9l0-2.31c2.19,1.34,1,1.92,2.17,3.81.19-.25.12-.07.34-.65.44-1.16.31-2.82.94-3.74l1.27,1.54c.58-.4,0,.19.65-.64.39-.48.2-.38.51-.76,1.44-1.75,4.8-.74,3.6,1.34-1.69-.61,0-.36-1.26-1.61C61,9.56,60.09,13.3,58,14.66a23.89,23.89,0,0,0-2.71-1.37c-.44,2.08.56.39,1.36,2.28.64,1.51-.06,5-1.87,5.33a1.57,1.57,0,0,1-2.11-1.12c1.1.65.88.54,2.3.55.43-.72,1.28-1.5,1.05-2.87A1.56,1.56,0,0,0,53.94,16c.5-.65.62-.46,1.15-1.07l-1.47-.12ZM16.39,13.25c-.44-.41-.41-.08-.7-1.06A4.16,4.16,0,0,1,16.27,9c2.95-4.38,9.4,3.59,2.92,5.6,1.5.61.94-.22.6,1.07-.43,1.61-1.16,3.07,2.63,3.61l-.23.08c-5,1.37-6.1.07-8.29-.55-.71,2.41-5.06,3.93-5.08-1.78,0-2.54.74-2.15,1.1-2.89s.35-.1,0-.69c-.62-.1-1.71.86-2.46,1.24C3.84,11.87,4.89,9.81,2.64,9c-1.36.82-.1.21-1,1.58-1.94-.73.23-2.4,1.56-2.23,1.17.15,2,2.4,2.76,3.2.12-1.29,0-1.62,1.1-2.36.62,1.3.21,3.27,1.27,4.38.93-1,.33-.51.66-2.25.25-1.31.36-1.13,1.25-1.58a4.58,4.58,0,0,1,.34,2.18c1.52.14,1.19-.07,2.13.8a1.89,1.89,0,0,1-.65,1.65l-1.89.93c1.26.27.74-.09,1.45.65-2.1-.16-2.45,1.19-2.29,3.08,2.35,1.91,3,2.17,4.74-1.3,1.29.54,3.05,3,4.52.9.86-1.58.07-2.57-.77-3.44-1,.42.07.93-1.52,1.13-1.22-1.77.36-1.32,1.35-1.77-1.42-.61-1.12,0-1.3-1.28Zm16.8-5.83.14,1.89c2.59.69,2.25-1.74,5-2.93.53,1.5.2,1.15-.28,2.38C39.82,9,40,9,40.78,10.1c-1,2.28-1.35,1.38-3.09,2.14.63,1.61.94.22.9,2.37-1-.7-1.79-2-3.55-.56-2.44,2,.94,7.28,6.14,2.38a26.92,26.92,0,0,1,1.65,2.85c-1.31-.48-1.14-1-1.91-1.89-3,3.11-7.31,1.49-7.68-.72-.5-3,.68-4.61,2.94-5.6.1,0,1.12-.43,1.14-.45.76-.43.32.27.64-.61-1.38-.63-2.88.74-3.88,1.3a4.65,4.65,0,0,0-.74-1.4c-1.75.21-1.66.12-2.19,1.35-1.64-.63-1.62-1.64-3.53-1.41.56,1.06.6.56,1.84,1.38a7,7,0,0,1,2.68,3.08,3.27,3.27,0,0,1-.06,2.53c-.93,2.29-4.37,3.29-7.46.65-.63.87-.74,1.72-2.2,1.78,1-1.2.71.08,1.84-2.9,1.18.55,2.14,2.19,4.17,2.14s2.78-1.72,2.74-3.87c-1.39-.89-1.73-1.52-3.21-.66l-.87.6c-.11-.86-.25-.7.16-1.31s.65-.36,1-1c-.81-.32-1.37.1-2.2-.49A4.09,4.09,0,0,1,24.94,10c.84-1.11,1-1.17,2.7-1.19-.4-1.24-1-1.4-.11-2.47,2,.89,2.49,4.15,4.4,2.74.44-.52.48.79.33-1-.06-.79-.4-.57-1.36-1.52A3.83,3.83,0,0,1,29.59,4l.65-.39.42-.25c.75-.54.16.13.77-.82.71-1.12.23-1.16,1.58-1.65l.5,1.28c2.15,2.54.63.64,2.17,1.83a2.69,2.69,0,0,1-.85,2.25L33.19,7.42ZM24.44,8.83l-.66,2,2,1.85c.51.72.47,1.69.87,2.72,1.32-.09.9-.63,2-1,.83-.23,1.16.21,1.67.68C30.15,18,28.24,18.35,26,16.6c-.94-.74-1.09-1.24-2-1.52C23,17.42,23.8,18.8,20.42,18l-.1-1.48a3.85,3.85,0,0,0,2.73-.3l.28-1.11c-.53-.84-.43-.62-1.33-1.27a6.66,6.66,0,0,0,.11-5.1c-.82-.51-1.2-1.39-2.61-1.68a3.39,3.39,0,0,0-3.48,1c-1.74,2-1.67,4-.08,6.12l-.48.67c-.93,1.66.49,3.07,2.74,1.64l.17,1.33c-2.1,1.45-2.34-.17-4.26-1.34l-.59.85-.13.21c-2.29,3.71-3.89,1.3-2.84-.89,1.07.2.39-.16,1.62,1.05.05,0,.16.23.19.18s.11.12.18.18c.19-1.52.46-1.83-.34-3l1.18-1c.47-.75.34-.55.41-1.58-4.45-3.64-.93-.92-3.19-4-1.72.61-1.13,1.12-2.23,2-.45-1.1-.11-1.78.09-3a5.52,5.52,0,0,0-2.84,1.7c-2.89-4.7-7.85,1.13-4.5,2.05,1.4.38,1.31-.34,1.84-1.18l2.69,4.12c.42.83-1.89,4,2.34,3.39a5.8,5.8,0,0,0,.74,2.49c.7,1.39.34.67,1.47,1.65-.67.93-.7.71-.56,2a3.5,3.5,0,0,1,1.57.92l-1,1.51,1.54,2.09c-.71.63-1,.7-1.18,1.73,2.92,3.44,16.72,2.86,22,2.88,6.42,0,17.55.24,22.35-2.44l-.84-2.17c0-.1-.1-.11-.12-.18,1.35-1.89,1.17-1.18.54-3.5,1.05-1.24,2-.76.54-2.87,1.64-1.3,2.34-1.48,2.42-4.2,1.14.24,2.12.14,2.42-1,.65-2.49-2.33.17,2.64-6.43.75.74.86,1.51,2.46,1,1.72-1.3-.88-4.88-3.65-3.35l-1.09.89-.19.15-.4.3C59,8.72,57.79,8,57.23,7.54l.1,3.12A8.17,8.17,0,0,0,55,8.48a12,12,0,0,0-.73,1.86c-.67,1.68.26.09-1.21,1.32s-.66,1.4-.31,3.13l.92,0c-.69,1.3-.72,1.38-.57,3.22.76-.22,0,0,.54-.36,1-.77.21-.66,1.28-.89.57,1.51.48,1.62-.32,2.73-2.59-.29-1.09-1.57-2.86-3-1.2.7-1.9,1.85-3.82,2.3-.54-.76-.83-.79-.6-2.08,3.66,1.84,4.22-1.95,2.27-1.9.92-2.1,2.58-3.58.25-6.38A3.85,3.85,0,0,0,46.59,7c-1.85.06-1.83,1-2.89,1.14a5.67,5.67,0,0,0-.92,3.8c.33,2.6.79.39,0,2.87-.63.81-.25.49,0,1.88l2.29-.27c0,1.69-1.92,4.32-3.38-1.46-1.61.85-2.19,2.32-3.79,2.69C36,18,35,16.78,35,15.11c1.94-1.31,2.19-.56,4.06.45.37-1.61.3-3.68,2.81-4.76a12.14,12.14,0,0,0-1-2.2c-.62-.16,0,.38-.86-.32C39.44,7.8,39.38,7,39,5.89c-3.11-.48-3,2.13-5.11,2.77.47-1.75,2.68-1.18,2.71-5.52C33.08,2,33.7-2.51,30.79,1.87c-.93,1.4-.65.36-1.72,1.45-.2,4.18,1.4,3.09,2.42,5.25-2.28-.28-2-3.44-4.35-2.78-2.19,1.39.34,1.82-2.69,3Z"/><path class="cls-2" d="M33.19,7.42a14.53,14.53,0,0,1,.32-5.29c-1.06.14-.52.12-1.71-.29,1,4,.49.79.63,5.31l.76.27Z"/><path class="cls-3" d="M47.45,13.84c-2.49-1.34-2.12,0-3-3.13-.65.32-.94-.14-.57,1.27a3.4,3.4,0,0,0,2.27,2.33c1.43.37,1,.1,1.26-.47Z"/><path class="cls-3" d="M16.39,13.25c.85.94,1.74,1.46,2.68.78-.79-.65-1.23-.48-1.95-1.31-.56-.63-.53-1.27-1.12-1.92l.39,2.45Z"/><path class="cls-4" d="M13,25.94l-1.17-.68C10.79,27.29,12,27.31,13,25.94Z"/></g></g></g></svg>