<svg xmlns="http://www.w3.org/2000/svg" viewBox="0 0 39.24 31.87"><defs><style>.cls-1{fill:#010103;fill-rule:evenodd;}</style></defs><g id="Слой_2" data-name="Слой 2"><g id="Слой_1-2" data-name="Слой 1"><g id="_3015384691184" data-name=" 3015384691184"><path class="cls-1" d="M0,6.51v.75a4.51,4.51,0,0,1,.14.58,3.52,3.52,0,0,0,.19.52A2.93,2.93,0,0,0,2.28,10a3.85,3.85,0,0,1,.62.09,6.83,6.83,0,0,1,.26,1.08c.25,1,.46,2.26.72,3.34s.79,3.49,1,4.45l.49,2.23c.1.54,1.37,6.47,1.45,6.61l25.73,0c.31-1.23.7-3.17,1-4.45l.48-2.22c.1-.38.16-.72.24-1.12s.17-.69.24-1.07l.95-4.45c.12-.48.89-4.3,1-4.38A3.85,3.85,0,0,1,37,10l.51-.18a2.9,2.9,0,0,0,1.6-1.85,2.41,2.41,0,0,0,.08-.25,1,1,0,0,0,0-.14c0-.11,0,0,.05-.1V6.62a7,7,0,0,1-.19-.76,3.45,3.45,0,0,0-.3-.64,2.71,2.71,0,0,0-2.52-1.34A3.09,3.09,0,0,0,34,8.55a2.48,2.48,0,0,0,.4.56c.14.16.38.31.47.45a24.79,24.79,0,0,1-2,2.8c-.26.34-1.33,1.44-1.65,1.75l-.79.64a7.41,7.41,0,0,1-1.14.78,4.41,4.41,0,0,1-1.4.52,3.41,3.41,0,0,1-2.64-1.24,12.4,12.4,0,0,1-.88-1,20.14,20.14,0,0,1-1.46-2.37c-.24-.39-.43-.91-.65-1.32A34.9,34.9,0,0,1,20.57,6a6.12,6.12,0,0,0,.82-.54,3.1,3.1,0,0,0,1-2.91A2.88,2.88,0,0,0,19.58,0c-2.3,0-3.52,2.8-2.3,4.79A3.12,3.12,0,0,0,18.69,6,39.69,39.69,0,0,1,17,10.11c-.2.39-.39.9-.63,1.29s-.46.87-.71,1.25A12.38,12.38,0,0,1,14,14.83c-1.25,1.25-2.4,1.63-4,.68A10.62,10.62,0,0,1,8.29,14.3a19.53,19.53,0,0,1-1.91-2,23.76,23.76,0,0,1-2-2.77c.09-.14.34-.3.49-.47a3.25,3.25,0,0,0-.38-4.66A2.74,2.74,0,0,0,.21,5.8L0,6.51Z"/><path class="cls-1" d="M6.88,31.84c1,.06,2.2,0,3.24,0,2,0,22,.06,22.26,0v-3.4c-.39-.1-2.62,0-3.2,0H13.26c-2.09,0-4.29-.06-6.39,0v3.44Z"/></g></g></g></svg>