<svg xmlns="http://www.w3.org/2000/svg" viewBox="0 0 34.49 28.86"><defs><style>.cls-1{fill:#050505;}.cls-1,.cls-2,.cls-3,.cls-4,.cls-5,.cls-6,.cls-7{fill-rule:evenodd;}.cls-2{fill:#242424;}.cls-3{fill:#fefefe;}.cls-4{fill:#a1a1a1;}.cls-5{fill:#737373;}.cls-6{fill:#545454;}.cls-7{fill:#cdcdcd;}</style></defs><g id="Слой_2" data-name="Слой 2"><g id="Слой_1-2" data-name="Слой 1"><g id="_3015384692048" data-name=" 3015384692048"><path class="cls-1" d="M17.52,26.12c-.09.45-.72-.06-.8-.13-.11-.42-.07-.75.29-.9s.58.09.82.29c0,.4.06.65-.31.74Zm-9-.27c-.26-.8.94-1,1-.35A.55.55,0,0,1,8.5,25.85Zm-3.11-.5c0,.36.06.66-.26.8C4.06,26.61,4.05,24.43,5.39,25.35ZM29.11,26c-.1-.7,0-.89.75-.82.21.26.43.46.16.83S29.39,26.18,29.11,26Zm-3.18-.06c-.3.61-1.23.16-.94-.52A.54.54,0,1,1,25.93,25.92Zm-4.1,0a.54.54,0,1,1-.95-.52A.54.54,0,0,1,21.83,25.92Zm-9.23-.14a.53.53,0,1,1,1-.2A.53.53,0,0,1,12.6,25.78Zm-.36-2.9a1.18,1.18,0,1,1-.69-1.48A1.23,1.23,0,0,1,12.24,22.88Zm10-.21a1.29,1.29,0,0,1,1-1.33,1.19,1.19,0,0,1,1.35,1.12,1.32,1.32,0,0,1-.3.91,1.22,1.22,0,0,1-2.09-.7Zm-5.51-.07c-.44-.27-.27-.46-.38-1a.59.59,0,0,1,.14-.41.39.39,0,0,1,.39-.21c.37,0,.72,0,.9.31,0,0,.26,0,.29.5a1.21,1.21,0,0,1-.17.61.82.82,0,0,1-.83.35c-.35,0-.25-.05-.34-.19ZM30.15,12.45c-.47,0-.72-.38-.94-.68C27.72,9.76,30.39,10.49,30.15,12.45Zm-25.81,0a1.77,1.77,0,0,1,.33-1.32c.68-1,1.6-.73.6.62-.22.3-.43.69-.93.7ZM8.57,8.81C8.5,9,8.47,9,8.15,9a.68.68,0,0,1-.43-.07c-.1-.57.79-1,1.14-1s.74-.28,1.12,0c0,.45-1,.88-1.41.88Zm7.51-2.53c.11-.32.37-.68.71-.69.74,0,1.24,0,1.5.59.67,1.57-1.15,2.46-1.9,1.62-.58-.64-.32-.77-.31-1.52Zm-.27-4.34c.25.1.11-.15.24.19a1.18,1.18,0,0,1-.12-1c.2-.54.34-.67.66-.69a1.23,1.23,0,1,1,1,2.23c-.21.19.27.11-.28.18l-.51-.07c.11.06,0,0,.08.17a1.24,1.24,0,0,1-.75,1.14,2.61,2.61,0,0,1-.78.12,3.2,3.2,0,0,0-.74.22c-.44.33-1,1.08-.67,1.78a21.55,21.55,0,0,1,1.53,3.83,15.08,15.08,0,0,1,.48,2.2c.18.11.18.11.2.4s-.11.43-.11.43a5.08,5.08,0,0,1-.57-1.19,6.51,6.51,0,0,0-2.9-3c-4.71-2-5.27,4.93-.47,7.24.33.17.67.31,1,.46.19.08.39.15.55.23s.33.18.49.26c.35,0,.45.49.42.69-.26.17-.12.06-.67.11s-.81.81-.5,1.4,1.12.57,1.64.31a1.79,1.79,0,0,0,.13-2.93,30.61,30.61,0,0,1-2.5-1.95,9.93,9.93,0,0,1-1-1.21c-1.19-1.63.37-3.12,2-1.62a10.21,10.21,0,0,1,2.34,4.46c.31,1.14,1.15,2.87-.7,4a4.79,4.79,0,0,1-1.46.74c-.18.22-.07.11-.35.21a2.23,2.23,0,0,1-.44.13l.28.18a3.85,3.85,0,0,0,.41.09.9.9,0,0,1,.63.34,3.83,3.83,0,0,1,1.92,2H11.86c.12-.28,1-.68.71-1.77A1.45,1.45,0,0,0,11.18,21c-2-.06-1.84,2.53-.93,2.74.28.07.23,0,.3.25-.2.14-.14.1-.42.08l-1.63,0a1.23,1.23,0,0,1-.56-.75c-.05-.13,0,0-.07-.14l-.11-.12c-.2-.12-.19.5-.16-1a2.16,2.16,0,0,1-.86.16,1.1,1.1,0,0,1-.52-.1.52.52,0,0,1-.36-.28s0,0-.08-.08-.09-.07-.13-.09a.65.65,0,0,1-.49-.41L4.6,20c-.11-.34-.22-.41-.15-.8s-.09-3,.76-3.57c.25-.18.36-.13.49,0,.7.56-.8,2.92-.78,3.64,0,1.12-.24.79.29,1.7l.4.49c.21.23,1,.42.88-.52s-.85-.77-1-.85c-.18-1,.88-1.14,1.52-3.75.15-.59.34-1.87-.12-2.3-.72-.67-1.55.06-1.81.23l-.84,1.29a1.81,1.81,0,0,1,.25-1.11c.16-.37.15-.26.22-.33a6.87,6.87,0,0,1,2.08-2.46,2.39,2.39,0,0,0,.43-1.07c0-.48-.41-.58.14-1.11s.92.15,2.35-.76c.35-.22.63-.37.59-.75-.08-.91-2.51-.37-2.87.82-.11.27,0,.13-.28.26a1.08,1.08,0,0,1-.46.12C6.13,9.32,6.26,9,5.75,9s-.64.26-.91.29c-.09.22,0,.13-.11.18a.84.84,0,0,1-.46.34A10.51,10.51,0,0,1,3.79,11,14.07,14.07,0,0,0,3,13.75c-.11.5,0,1.07-.14,1.57-.39-.83,0-3.67-1.23-3.62C.14,11.77-.72,16.42.78,19c.87,1.49,2.44,1.55,2.54,2.28,0,.25-.42.3.17,1.28,0,.08.85,1,1,.51s.27-.24-.15-1.39a2.89,2.89,0,0,0-.5-.91l-.25-.31-.7-.73a5.46,5.46,0,0,1-1.47-2c-.26-.65-.63-2.46.14-2.85.32.12.44.65.56,1.14.28,1.13.48,1.61.79,2.59.17.53.34.81.48,1.18l.21.28a1.47,1.47,0,0,1,.11.25.53.53,0,0,1,.13.13l.58,1A3.62,3.62,0,0,1,5,22.59c0,.4.24.86.24,1.38H3.53a22.14,22.14,0,0,0,0,3.55c.59.09,5.74,0,6.81,0s20.13.1,20.54,0S31,24.34,31,24H29.28a3.37,3.37,0,0,1,.16-.94,6.89,6.89,0,0,0,.25-.85c0-.28-.05-.12.21-.53a5,5,0,0,0,.68-1.09l.21-.26a.59.59,0,0,1,.3-.41l.69-1.81c.11-.33.16-.32.26-.63s.22-.95.36-1.41.27-1.06.5-1.24c.86.17.66,2.83-.68,4.36a4.61,4.61,0,0,1-.48.51l-.54.46-.09.18-.12,0c0,.28-.27.37-.42.56a2,2,0,0,0-.31.61c-.2.51-.5.92-.23,1.55.61.25,1.3-.76,1.24-1.38s-.43-.57,1.11-1.38a4.08,4.08,0,0,0,1.36-1.38,6.82,6.82,0,0,0,.71-2.11c.36-4.28-1.63-6.35-2.38-4.44-.37,1-.08,2.16-.44,2.42l-.09-.45a1.15,1.15,0,0,0-.08-.46c-.08-.3-.06-.58-.14-.93a15.05,15.05,0,0,0-1.13-3.1A1.92,1.92,0,0,0,28.89,9c-.8.18-.55,1.09-.58,1.28-.31,0-.64,0-.84,0-.07.59,0,.29.07.89a1.17,1.17,0,0,0,.48.73,5.11,5.11,0,0,1,.68.59c.26.24,1,1.09,1,1.49.21,0,.27.36.32.51a1.42,1.42,0,0,1,.17.68c-.39-.18-.14-.15-.59-.69l-.2-.28c-.09,0-1.19-1-1.81-.16a1.5,1.5,0,0,0-.31,1,8.25,8.25,0,0,0,.21,1.19,8,8,0,0,0,1.25,2.82,1.14,1.14,0,0,1,.31,1,1,1,0,0,0-1,.75c0,.79.1.75.73.66.15-.25.47-.37.74-.89.45-.84-.17-1.6-.23-2.26,0-.47-1.09-2.25-.55-2.75.31-.35.64.14.77.34.79,1.21.43,2.68.49,3.55a2.73,2.73,0,0,1-.35,1.19c-.16.37-.23.69-.62.9a.88.88,0,0,1-.44.28h-.09c-.12.13,0,.07-.25.18a.92.92,0,0,1-.27.08,2.34,2.34,0,0,1-.7,0L26.82,22c0,.49.1,1.08-.3,1.32v.11c-.11.34-.3.43-.49.67H24.51a.94.94,0,0,1-.29,0c-.28-.09-.07.05-.17-.18.11-.22,0-.08.21-.16,1-.19,1.13-2.79-.81-2.76a1.53,1.53,0,0,0-1.32,2.2l.4.51c.19.21,0-.12.18.24h-4.5c.06-.56.95-1.37,1.3-1.64,1.14-.86,1.8-.58,2-.93a7,7,0,0,1-2.84-1.52c-.95-1-.69-2.15-.28-3.51.05-.14,0,0,.06-.15s.05-.12.08-.21c.53-1.52,1.74-4.83,3.62-4.77.72,0,1,.42,1,1.21A2.86,2.86,0,0,1,22.43,14l-1.1,1.08c-.95.94-3.51,2-2.65,3.72a1.43,1.43,0,0,0,2.2.63c.29-.33.22-.42.29-.89-.3-.23-.19-.52-.65-.66-.29-.09-.68,0-.66-.25s.13-.21.19-.24c.33-.95,3.85-.85,5.26-4.4.57-1.45.51-4.18-1.51-4.44a3.94,3.94,0,0,0-2.54.67l-.9.73A7.7,7.7,0,0,0,19,11.79a6.79,6.79,0,0,1-.54,1.08c-.19-.34.44-2.5.59-3.07A27.83,27.83,0,0,1,20.11,7c.49-1,.8-1.1.25-2-.69-1.08-1.24-.71-2-.94a1.33,1.33,0,0,1-.78-.9c0-.44.39-.26.73-.66a1.49,1.49,0,0,0,.37-.74A1.5,1.5,0,0,0,16.37.28a1.55,1.55,0,0,0-.56,1.66Z"/><path class="cls-2" d="M3.28,28.11c.6-.11,5.93,0,7,0,1.78,0,20.09-.09,20.94,0,0,.54-.27.4-1.34.4-4.38,0-26.18.1-26.56-.07l0-.33Zm0,.69c.93.11,27.5.05,27.72,0,.54-.08.82-.65.33-1-.8-.1-6.12,0-7.38,0H5.4c-.91,0-2.29-.21-2.42.32s.15.42.3.69Z"/><path class="cls-3" d="M10.27,28.07c-1.06,0-6.39-.07-7,0l0,.33c.38.17,22.18.07,26.56.07,1.07,0,1.35.14,1.34-.4C30.36,28,12.05,28.07,10.27,28.07Z"/><path class="cls-4" d="M3.28,28.8c-.15-.27-.4-.29-.3-.69s1.51-.32,2.42-.32H24c1.26,0,6.58-.07,7.38,0l-.16-.17s0,0-.05,0c0-.63,0-1.27,0-1.9S31.25,24.07,31,24c.06.38.22,3.42-.08,3.53s-19.52.05-20.54,0-6.22.07-6.81,0a22.14,22.14,0,0,1,0-3.55c-.24.14-.16,0-.17.4l0,1.42c0,.61,0,1.22,0,1.83l-.1.06c-.73.44-.45,1,0,1.13Z"/><path class="cls-3" d="M16.08,6.28c0,.75-.27.88.31,1.52.75.84,2.57,0,1.9-1.62-.26-.6-.76-.56-1.5-.59-.17.25-.19.15-.36.32S16.42,6.1,16.08,6.28Z"/><path class="cls-3" d="M2.85,19.71c.33.15.18.15.54.32l0-.3c-.14-.37-.31-.65-.48-1.18-.31-1-.51-1.46-.79-2.59-.12-.49-.24-1-.56-1.14-.77.39-.4,2.2-.14,2.85A5.46,5.46,0,0,0,2.85,19.71Z"/><path class="cls-3" d="M31.09,19.89c-.05.27,0,0-.09.3.08-.08.13,0,.2-.06l.53-.46a4.6,4.6,0,0,0,.49-.5c1.34-1.54,1.54-4.2.68-4.37-.23.18-.39.9-.5,1.25s-.23,1-.36,1.4-.15.3-.26.63l-.69,1.81Z"/><path class="cls-3" d="M22.27,22.67a1.22,1.22,0,0,0,2.09.7,1.32,1.32,0,0,0,.3-.91,1.19,1.19,0,0,0-1.35-1.12,1.29,1.29,0,0,0-1,1.33Z"/><path class="cls-3" d="M16.59.46a3,3,0,0,0-.45.59,1.59,1.59,0,0,0,0,1c.24.55.69.68,1.43.65a1.23,1.23,0,1,0-1-2.23Z"/><path class="cls-3" d="M12.24,22.88a1.23,1.23,0,0,0-.69-1.48,1.18,1.18,0,1,0,.69,1.48Z"/><path class="cls-3" d="M25.64,19.42a1.19,1.19,0,0,0,1,2.17A1.23,1.23,0,0,0,27.21,20,1.21,1.21,0,0,0,25.64,19.42Z"/><path class="cls-3" d="M7.91,19.47a1.18,1.18,0,1,0,1.14,2.06,1.21,1.21,0,0,0-.11-2.11l-.79-.06C7.78,19.44,8,19.4,7.91,19.47Z"/><path class="cls-2" d="M7.91,19.47c.1-.07-.13,0,.24-.11l.79.06a1.21,1.21,0,0,1,.11,2.11A1.18,1.18,0,1,1,7.91,19.47Zm-2,2.4c.08.13.09.18.36.28a1.1,1.1,0,0,0,.52.1,2.16,2.16,0,0,0,.86-.16c0,1.46,0,.84.16,1A1.8,1.8,0,0,1,7.82,22c.41,0,1.58.26,2.07-.89a1.55,1.55,0,0,0-2.77-1.36A1.64,1.64,0,0,0,7,21a1.4,1.4,0,0,0,.42.64c.16.18.1.05.17.27a2.43,2.43,0,0,1-1.74,0Z"/><path class="cls-3" d="M4.45,19.21s0,0,0,.05a.06.06,0,0,0,0,0l.06.17c0,.15.06.18.11.31.12-.22,0-.09.08-.29s0,0,0-.12,0,0,.12-.14c0-.72,1.48-3.08.78-3.64-.13-.09-.24-.14-.49,0-.85.61-.67,3.09-.76,3.57Z"/><path class="cls-3" d="M29.27,18.35c.19.12.14,0,.32.64,0,.14.07.21.1.33l.12.41c0-.09-.09,0,.17-.24-.06-.87.3-2.34-.49-3.55-.13-.2-.46-.69-.77-.34C28.18,16.1,29.26,17.88,29.27,18.35Z"/><path class="cls-2" d="M25.64,19.42a1.21,1.21,0,0,1,1.57.6,1.23,1.23,0,0,1-.61,1.57A1.19,1.19,0,0,1,25.64,19.42Zm-.26,2.41a2,2,0,0,0,1.54,0l0,0c.1-.2.33-.33.5-.68a2.16,2.16,0,0,0,.1-1.13,1.52,1.52,0,0,0-2.37-.72,1.46,1.46,0,0,0-.57,1.36,1.31,1.31,0,0,0,.75,1.2Z"/><path class="cls-3" d="M16.38,21.64c.11.5-.06.69.38,1,1,.2,1.37-.25,1-1.27-.18-.34-.53-.27-.9-.31-.15.28-.1.09-.29.32s0,.06-.11.17S16.46,21.57,16.38,21.64Z"/><path class="cls-3" d="M30.15,12.45c.25-2-2.43-2.69-.94-.68C29.43,12.07,29.68,12.46,30.15,12.45Z"/><path class="cls-3" d="M4.34,12.46c.5,0,.71-.4.93-.7,1-1.35.08-1.62-.6-.62a1.77,1.77,0,0,0-.33,1.32Z"/><path class="cls-3" d="M25,8.48c.55.15.95.53,1.65.41,0-.39-.21-.41-.38-.69a.62.62,0,0,1-.38-.2,1.55,1.55,0,0,0-1.42-.07c.06.34.35.44.53.55Z"/><path class="cls-5" d="M26,9c.64,0,.64.14.9-.19l0,0,.1.3c-.33.15-.77.29-1-.07Zm.33-.8c.17.28.38.3.38.69C26,9,25.59,8.63,25,8.48c.09.11-.05,0,.18.17.53.35.2-.09.41.37l-.44-.16a.61.61,0,0,0,.34.25c.11,0,.14,0,.23.05s0,0,.21.07c.83.31.77-.2,1.15.24l.28.23a1,1,0,0,1-.14-.64l.49.12c.11.17.15.2.44.18s.27-.13.31-.31a.91.91,0,0,1-.71,0l-.49-.2c-.38-.15-.35-1.11-1.59-1.3.11.22.05.12.24.21a1.16,1.16,0,0,1,.61.38l-.25,0Z"/><path class="cls-3" d="M8.86,7.89c-.24.3-1,.39-1.06,1a2.76,2.76,0,0,0,.77,0c.41,0,1.37-.43,1.41-.88-.38-.32-.72-.07-1.12,0Z"/><path class="cls-2" d="M25.19,8.86l.44.16c-.21-.46.12,0-.41-.37-.23-.15-.09-.06-.18-.17s-.47-.21-.53-.55A1.55,1.55,0,0,1,25.93,8a.62.62,0,0,0,.38.2l.25,0A1.16,1.16,0,0,0,26,7.8c-.19-.09-.13,0-.24-.21-.05,0-1.35-.43-1.52.23-.1.38.12.52.33.68a1.39,1.39,0,0,0,.67.36Z"/><path class="cls-3" d="M8.5,25.85a.55.55,0,0,0,1-.35C9.44,24.88,8.24,25.05,8.5,25.85Z"/><path class="cls-3" d="M5.39,25.35c-1.34-.92-1.33,1.26-.26.8C5.45,26,5.43,25.71,5.39,25.35Z"/><path class="cls-3" d="M21.83,25.92a.54.54,0,0,0-.95-.52A.54.54,0,1,0,21.83,25.92Z"/><path class="cls-3" d="M25.93,25.92A.54.54,0,1,0,25,25.4C24.7,26.08,25.63,26.53,25.93,25.92Z"/><path class="cls-3" d="M12.6,25.78a.53.53,0,0,0,1-.2A.53.53,0,1,0,12.6,25.78Z"/><path class="cls-3" d="M29.11,26c.28.2.61.4.91,0s.05-.57-.16-.83C29.14,25.09,29,25.28,29.11,26Z"/><path class="cls-2" d="M15.81,1.94a1.27,1.27,0,0,0,.47.77l.61.26c-.07-.13,0-.11-.08-.17l.51.07c.55-.07.07,0,.28-.18-.74,0-1.19-.1-1.43-.65a1.59,1.59,0,0,1,0-1,3,3,0,0,1,.45-.59c-.32,0-.46.15-.66.69a1.18,1.18,0,0,0,.12,1c-.13-.34,0-.09-.24-.19Z"/><path class="cls-6" d="M28.5,9.05c0,.18.05.27-.31.31s-.33,0-.44-.18c.13.41.26.45,0,.84-.21-.06-.1,0-.23-.12a.65.65,0,0,1-.08-.09l-.09-.11c.07.62-.05.4-.11.79l.09.51c.1.15,0,.07.17.17-.09-.6-.14-.3-.07-.89.2,0,.53,0,.84,0,0-.19-.22-1.1.58-1.28-.12-.1.18-.09-.22-.09C28.47,9,28.51,9,28.5,9.05Z"/><path class="cls-3" d="M17.52,26.12c.23-.38.35-.44,0-.89L17,25.18c-.21.18-.42.39-.2.74S17.25,26.15,17.52,26.12Z"/><path class="cls-6" d="M28.76,21.5l.31-.1c-.09.07,0,0-.06.18.39-.21.46-.53.62-.9A2.73,2.73,0,0,0,30,19.49c-.26.24-.14.15-.17.24l-.12-.41c0-.12-.06-.19-.1-.33-.18-.62-.13-.52-.32-.64.06.66.68,1.42.23,2.26-.27.52-.59.64-.74.89Z"/><path class="cls-6" d="M3.55,20.44l.25.31a2.89,2.89,0,0,1,.5.91c.42,1.15.26.9.15,1.39.36-.12.21-.42.23-.82l.3.36a3.62,3.62,0,0,0-.6-1.23l-.58-1a.53.53,0,0,0-.13-.13l0,.22-.14,0Z"/><path class="cls-6" d="M29.69,22.18c.18.09.07-.07.12.21a1.4,1.4,0,0,1,0,.29c0,.3,0,.28.22.39-.27-.63,0-1,.23-1.55a2,2,0,0,1,.31-.61c.15-.19.38-.28.42-.56l-.16.13,0-.18-.21.26a4.73,4.73,0,0,1-.68,1.09c-.26.41-.2.25-.21.53Z"/><path class="cls-2" d="M5.65,21.7c-.14-.18.12,0-.14-.16,0-.22,0,0,.1-.11l-.4-.49c-.53-.91-.34-.58-.29-1.7-.16.12,0-.06-.12.14s0,0,0,.12,0,.07-.08.29c-.05-.13-.06-.16-.11-.31l-.06-.17a.06.06,0,0,1,0,0s0,0,0-.05c-.07.39,0,.46.15.8l.56,1.28a.65.65,0,0,0,.49.41Z"/><path class="cls-4" d="M27,21.8c-.06.12.1.09-.06.1l.35.2a2.34,2.34,0,0,0,.7,0,.92.92,0,0,0,.27-.08c.26-.11.13-.05.25-.18a2.79,2.79,0,0,1-1.49,0c.24-.25.44-.32.59-.72a3.84,3.84,0,0,0,.13-.54,1.93,1.93,0,0,0,0-.34c-.05-.25-.08-.21-.14-.29a2.16,2.16,0,0,1-.1,1.13c-.17.35-.4.48-.5.68Z"/><path class="cls-6" d="M24.26,23.78c-.22.08-.1-.06-.21.16.1.23-.11.09.17.18a.94.94,0,0,0,.29,0H26c.19-.24.38-.33.49-.67A1.41,1.41,0,0,0,26,24H24.27v-.17Z"/><path class="cls-5" d="M10.25,23.76c.05.14,0,.11.07.18H8.5l-.56-.62a1.23,1.23,0,0,0,.56.75l1.63,0c.28,0,.22.06.42-.08-.07-.26,0-.18-.3-.25Z"/><path class="cls-4" d="M14.62,4.45a3.2,3.2,0,0,1,.74-.22,2.61,2.61,0,0,0,.78-.12A1.24,1.24,0,0,0,16.89,3l-.61-.26c.12.29-.05.09.25.24l.28.11A1.2,1.2,0,0,1,16,4a9.67,9.67,0,0,0-1.08.18c-.25.07-.22.11-.31.25Z"/><path class="cls-1" d="M27.4,9.7h0l.09.11a.65.65,0,0,0,.08.09c.13.11,0,.06.23.12.22-.39.09-.43,0-.84l-.49-.12a1,1,0,0,0,.14.64Z"/><path class="cls-5" d="M17.52,26.12c-.27,0-.51.08-.68-.2s0-.56.2-.74l.49.05C17.87,25.68,17.75,25.74,17.52,26.12Zm0,0c.37-.09.34-.34.31-.74-.24-.2-.4-.47-.82-.29s-.4.48-.29.9c.08.07.71.58.8.13Z"/><path class="cls-4" d="M5.06,14.24c-.29.12-.1.09-.4.23l0-.38c-.07.07-.06,0-.22.33a1.81,1.81,0,0,0-.25,1.11l.84-1.29Z"/><path class="cls-5" d="M25.38,21.83c.08.12-.08.18.63.26.31,0,.3-.06.62,0a1,1,0,0,1,0,.92l-.13.36c.4-.24.33-.83.3-1.32l.44.09-.35-.2c.16,0,0,0,.06-.1l0,0a2,2,0,0,1-1.54,0Z"/><path class="cls-4" d="M14.31,22a.9.9,0,0,0-.63-.34,3.85,3.85,0,0,1-.41-.09L13,21.39a2.23,2.23,0,0,0,.44-.13c.28-.1.17,0,.35-.21a2.34,2.34,0,0,0-1,.35l.18.26a13.6,13.6,0,0,1,1.37.34Z"/><path class="cls-7" d="M29.4,14.21l.2.27c.45.54.2.51.59.69a1.42,1.42,0,0,0-.17-.68c-.05-.15-.11-.46-.32-.51,0,.32,0,.12.1.41-.22-.1,0,.06-.13-.09s0-.05,0-.07l-.26,0Z"/><path class="cls-4" d="M16.76,22.6c.09.14,0,.16.34.19a.82.82,0,0,0,.83-.35,1.21,1.21,0,0,0,.17-.61c0-.55-.27-.5-.29-.5C18.13,22.35,17.8,22.8,16.76,22.6Z"/><path class="cls-4" d="M28.57,21.86a.88.88,0,0,0,.44-.28c0-.15,0-.11.06-.18l-.31.1c-.63.09-.76.13-.73-.66-.45.32-.07.88.5.85.15.11,0-.07,0,.17Z"/><path class="cls-4" d="M8.57,8.81a2.76,2.76,0,0,1-.77,0c.1-.56.82-.65,1.06-1-.35.05-1.24.46-1.14,1A.68.68,0,0,0,8.15,9C8.47,9,8.5,9,8.57,8.81Z"/><path class="cls-4" d="M21.17,18.51v-.26c-.45-.37-.3-.6-1.16-.61l0-.28c-.06,0-.18-.05-.19.24s.37.16.66.25c.46.14.35.43.65.66Z"/><path class="cls-5" d="M16,12.26l.06.57a2.85,2.85,0,0,0-.54-.93,5.08,5.08,0,0,0,.57,1.19s.14,0,.11-.43S16.14,12.37,16,12.26Z"/><path class="cls-4" d="M13.92,17.85c.55-.05.41.06.67-.11,0-.2-.07-.71-.42-.69a1.91,1.91,0,0,1,.33.62c-.07,0-.34,0-.35,0-.29.06-.17.06-.23.18Z"/><path class="cls-1" d="M26,9c.26.36.7.22,1,.07l-.1-.3,0,0c-.26.33-.26.19-.9.19Z"/><path class="cls-4" d="M3.55,20.44l.14,0,0-.22A1.47,1.47,0,0,0,3.56,20l-.21-.28,0,.3c-.36-.17-.21-.17-.54-.32Z"/><path class="cls-4" d="M30.79,20.3l0,.18.16-.13.12,0,.09-.18c-.07,0-.12,0-.2.06.13-.26,0,0,.09-.3a.62.62,0,0,0-.3.41Z"/><path class="cls-5" d="M16.08,6.28c.34-.18.09-.11.35-.37s.19-.07.36-.32c-.34,0-.6.37-.71.69Z"/><path class="cls-6" d="M16.38,21.64c.08-.07.05,0,.13-.13s0-.07.11-.17.14,0,.29-.32a.39.39,0,0,0-.39.21.59.59,0,0,0-.14.41Z"/><path class="cls-4" d="M6.67,9.14A1.08,1.08,0,0,0,7.13,9c.28-.13.17,0,.28-.26L7,8.92A.59.59,0,0,0,6.87,9C6.64,9.11,6.78,9,6.67,9.14Z"/><path class="cls-4" d="M4.27,9.79a.84.84,0,0,0,.46-.34c.16,0,0,0,.11-.18-.25.13,0,0-.17.1a.73.73,0,0,0-.13.1,1.11,1.11,0,0,0-.27.32Z"/></g></g></g></svg>