<svg xmlns="http://www.w3.org/2000/svg" viewBox="0 0 54.39 21.56"><defs><style>.cls-1{fill:#050505;}.cls-1,.cls-2,.cls-3,.cls-4{fill-rule:evenodd;}.cls-2,.cls-3{fill:#fff;}.cls-3{stroke:#fff;stroke-miterlimit:10;stroke-width:0.57px;}.cls-4{fill:#010101;}</style></defs><g id="Слой_2" data-name="Слой 2"><g id="Слой_1-2" data-name="Слой 1"><g id="_3015324102240" data-name=" 3015324102240"><path class="cls-1" d="M23.55,6.84a4.94,4.94,0,0,1-.64-.49l-.68-.54C18.82,3.13,15.57.74,11,.29a11.46,11.46,0,0,0-7.73,1.6c-4.74,3-4.2,10.22.43,12.38a13.23,13.23,0,0,0,8.06.94,16.76,16.76,0,0,0,8-3.86A29.86,29.86,0,0,0,22.29,9a12.59,12.59,0,0,1,1.26-1.19c1.51.68,5,3.73,6.47,5a7.73,7.73,0,0,1,.92.78c-.13.75-.4,1.65.49,1.82.72.13,1.4-.5,1.79-.79.25.44.35,1.61,2.27.81.51-.21.68.19,1.35-.31.36-.28.69-.67,1-.88-.07.56-.27,1.5.31,1.7s1.1-.25,1.48-.55c.72.58.86.18,1.49-.18.05.11.08,1.66,2.11,1a4.64,4.64,0,0,0,2-1.55c.28-.32.53-.53.82-.9A12.63,12.63,0,0,0,48,10.26a8,8,0,0,0-.45-6.11C44.94-.52,36.29-.73,31.85,1c-4.19,1.6-7.87,5.65-8.3,5.86Z"/><path class="cls-2" d="M24.1,7.26c.57.5,1.21.88,1.79,1.37,1.77,1.47,2.67,2.32,4.3,3.81.32.3.48.63.83.81.15-.21,1.2-3.19,2.28-3.31.33,1.3-.72,2.94-1.51,3.63A1.35,1.35,0,0,0,31.54,15c1.2.37,1.89-1.37,2.84-1.9a1.63,1.63,0,0,1,1.86.06c.73.73-.11,1.42-.09,1.85.5,0,.87-.37,1.15-.63a2,2,0,0,0,.81-1.15l.59-.06c0,.87-.47,1.43-.24,2.33a.62.62,0,0,0,.76-.07c.35-.29.28-.3.36-.87a1.64,1.64,0,0,1,1.15-1.17c.09,1.09-.85,1.34-.81,1.89,1,.66,1.55-1.72,3.12-1.8.91,0,1.3.61.65,1.18s-1.23.46-1.81.72c0,1.22,1.61.46,2.06.15A8,8,0,0,0,45.52,14a8.69,8.69,0,0,0,2.1-4.39,5.79,5.79,0,0,0-1.34-5.13,6.29,6.29,0,0,0-.78-.76A9.89,9.89,0,0,0,42.38,2c-6.29-2.2-12.66.14-17.51,4.42-.15.13-.25.23-.41.39s-.3.23-.36.47Z"/><path class="cls-2" d="M23,7.51a53.22,53.22,0,0,0-5.61-3.65C14.14,2.13,12.82,1.59,9.26,1.6A13.11,13.11,0,0,0,4.35,2.93c-3.21,1.67-5.09,4.51-3,8.13A6.05,6.05,0,0,0,5.1,13.74c5.11,1.49,10.36-.17,14.51-3.21a21.13,21.13,0,0,0,3.37-3Z"/><path class="cls-2" d="M35.14,13.17c-1.28.56-1.64,2.74-.23,2.24.84-.31.41-.77.79-1.36.14-.22.41-.37.2-.73a.6.6,0,0,0-.76-.15Z"/><path class="cls-2" d="M41.92,15.14c.67-.06,1.93-.78,1.43-1.3S42,14.59,41.92,15.14Z"/><polygon class="cls-3" points="28.34 7.32 50.53 7.32 50.53 17 28.34 17 28.34 7.32"/><path class="cls-4" d="M37.8,11.39a.58.58,0,0,0-.39-.22.58.58,0,0,0,.2.47s0,0,0,0-.21-.06-.16.23a.7.7,0,0,0,.23.33c-.19,0-.11-.07-.27,0,0,.28.14.23,0,.45l-.06.07c.43,1.42-.16.48.39,1.74-.79.07-2.43-2-2.93-2.19a3.08,3.08,0,0,0,.23.88v0c.2.54-.07.13.23.43s0,.08.15.29.15.12.24.25c.83,1.13.76.77,1.17,1.22a2,2,0,0,0,.68.64,4.44,4.44,0,0,1,.63.3,5.89,5.89,0,0,1-.6,1.37c-.13.23-.24.38-.38.6a3.13,3.13,0,0,0-.4.6c.18-.12.38-.45.51-.54s.15,0,.38-.17a4.21,4.21,0,0,1,.86-.72c.64-.43.2-.21.71-.38.27-.88.76-.49,1.32-1.62a1.23,1.23,0,0,1,.19-.31l.16-.17a.43.43,0,0,0,.09-.1c-.67,0-.52-.36-1.17.05-.33-.93.09-.73-.24-1.14S38.67,11.23,37.7,11l.1.37Z"/><path class="cls-4" d="M31.88,9.34a2.68,2.68,0,0,0-.41-.69c-.29,1.14-.08.19-.44.8-.12.21,0,.05-.14.21,0,0-.15.08-.2.12-.1.51.09.27-.2.63-.11.15-.08.09-.12.28-.16.73-.14.27-.28.63-.08.2,0,.23-.1.39s0,0-.13.28c-.2.62-.08,0-.28.6l-.12.31a4.19,4.19,0,0,1-.3,1.34,3.46,3.46,0,0,0-.25.66,6,6,0,0,1-2-.71c-.76-.49-.92-1.23-1.23-1.54-.06,1.12-.1.59.11,1.19a1.7,1.7,0,0,0,.49.65l.62.47c.14.13-.09,0,.22.19a9.86,9.86,0,0,0,1.18.4l.28.14c-.29.51-.72.52-1.27.8a4.77,4.77,0,0,1-1.46.58,9.49,9.49,0,0,0,1.76-.14,3.6,3.6,0,0,0,1.73-.34,10.89,10.89,0,0,0,2.17-.92,2.08,2.08,0,0,1,.69-.39s0,0,0,0c-.07.17-.07-.7-1.14-.56a6.68,6.68,0,0,0,.61-1.42c.07-.41.16-.38.28-.77a16.17,16.17,0,0,0,.4-2.65c0-.34,0-1.57-.35-1.69l-.07,1.18Z"/><path class="cls-4" d="M44.49,14.12c.27.12.6.14.8.33a13.48,13.48,0,0,0-3.3.69l-.57.21c.56,0,1.14-.14,1.78-.09l1.59.41c1.22.43,2.86-.15,3.67-.16-.56-.77-.54-.68-1.5-1,.09-.27.18-.27.36-.46-.15-1-3.51-3.72-5.09-4,.15.41.58.51.9.81a6.08,6.08,0,0,1,1.17,1.39c.06.09.33.4.4.51.27.45-.19.8-.21,1.35Z"/><path class="cls-4" d="M48.88,5.71c.75.31,1.36-.09,2,.26a6.56,6.56,0,0,0-1.18,1.72c-.14.25-.29.38-.39.59-.12,0,0-.09.05.06s0,0,.06.15A14.41,14.41,0,0,0,51.63,7l0,.94c.4-.2.31-.09.35-.06.45.28-.23-.09.11.09l.5-.58c.94-1.16.76-1.5,1.84-1.54-.32-.6-.28-.62-1-.86a3.41,3.41,0,0,0-1.63-.15,6.12,6.12,0,0,0-1.45.44A5,5,0,0,1,48.88,5.71Z"/><path class="cls-4" d="M30.57,18.37c.74.31,1.35-.1,2,.25a6.73,6.73,0,0,0-1.18,1.72c-.14.26-.3.38-.39.59-.13,0,0-.08.05.07s0,0,.05.14a13.7,13.7,0,0,0,2.19-1.48l0,.94c.39-.19.3-.09.35-.06.44.28-.24-.09.11.09l.5-.57c.94-1.17.76-1.51,1.84-1.55-.32-.6-.29-.61-1-.86a3.57,3.57,0,0,0-1.64-.15A5.51,5.51,0,0,0,32,18a5.88,5.88,0,0,1-1.43.42Z"/><path class="cls-4" d="M40.43,18.58c-.3-.07-1-.78-1.51-.86.11.43.34.29.69.89a1.94,1.94,0,0,0,.52.55c.34.22,0,.06.38.65.12.18.14.19.42.14,0,0,0,0,0,0l0,0-.16.15a2.42,2.42,0,0,0-.65.58c.08,0,.07,0,.1.08-.28.17-.8.46-.93.74.12-.08.21-.19.36-.28.35-.19.29,0,.51-.09s.23-.2.36-.29a.83.83,0,0,1,.49-.2c.27,0,.2-.1.44-.2a3.86,3.86,0,0,0,1.32-.75c-.27-.22-.24-.3-.75-.25a.78.78,0,0,0-.28-.87,4.67,4.67,0,0,0-2.17-1.44c.13.25.18.14.3.3s0,.15.22.34A1.32,1.32,0,0,1,40.43,18.58Z"/><path class="cls-4" d="M48.29,9.76c-.2,0-.69-.53-1-.59.08.3.23.21.47.61a1.31,1.31,0,0,0,.36.38c.24.15,0,0,.26.44.08.13.1.13.29.1l0,0,0,0-.11.1a1.68,1.68,0,0,0-.44.4c.05,0,.05,0,.07,0-.19.12-.55.32-.64.51a1.81,1.81,0,0,1,.25-.19c.24-.13.2,0,.35-.06s.15-.14.24-.2a.55.55,0,0,1,.34-.14c.18,0,.14-.06.3-.14a2.7,2.7,0,0,0,.9-.5c-.18-.15-.17-.21-.52-.18a.53.53,0,0,0-.18-.59,3.15,3.15,0,0,0-1.49-1c.1.16.12.09.21.2s0,.1.15.23a.86.86,0,0,1,.26.51Z"/></g></g></g></svg>