<svg xmlns="http://www.w3.org/2000/svg" viewBox="0 0 48.42 35.39"><defs><style>.cls-1,.cls-2{fill-rule:evenodd;}.cls-2{fill:#fff;}</style></defs><g id="Слой_2" data-name="Слой 2"><g id="Слой_1-2" data-name="Слой 1"><g id="_3015384728624" data-name=" 3015384728624"><path class="cls-1" d="M23.33,5.37c-.12.42-.52,1.26-.7,1.69-.24.6-.48,1.14-.72,1.72-.15.35-1.38,3.15-1.43,3.42.08.07.15.11.23.17a2,2,0,1,1-2.9.39c.06-.09.14-.14.18-.24-.14-.26-.94-1.28-1.13-1.53L15.73,9.46,14.59,7.93c-.19-.26-.36-.5-.56-.76-.88-1.17-.5-.49-.33-1.55a3.64,3.64,0,0,0,0-1C13.53,2.83,12,1,10.66,1.7c-.91.49-1.05,1.93-.69,3.12a3.52,3.52,0,0,0,1.25,1.89,5.2,5.2,0,0,0,.69.36l.21,6a2.07,2.07,0,0,1,1.29.37,2,2,0,0,1,0,3.36,2.07,2.07,0,0,1-2.5-.19,2.1,2.1,0,0,1-.64-1.85,6.4,6.4,0,0,1,.22-.63,5.22,5.22,0,0,0-.72-.67l-.38-.33-.18-.17-2.1-1.88a4.4,4.4,0,0,0-.39-.35L5.17,9.33a5.59,5.59,0,0,1-.77-.69,2.64,2.64,0,0,0-.06-1.85A4.48,4.48,0,0,0,3.52,5.4c-.43-.52-1.89-1.78-3-1S.11,6.78.65,7.63A3.33,3.33,0,0,0,3.34,9.34c.13.27,3.78,11.85,4.18,13.14a3.65,3.65,0,0,0,.3.86c.26-.14.79-.56,1.56-.95,6.25-3.18,17.33-3.22,24-1.85a20.08,20.08,0,0,1,6.46,2.29c.27.16.5.37.78.51.12-.18,1-3,1.13-3.5l2.22-7c.19-.57.37-1.17.56-1.75.09-.3.18-.58.28-.88a5.55,5.55,0,0,1,.29-.87c2.54-.05,4.26-3.87,2.78-4.93-1.06-.76-2.56.48-3,1a4.26,4.26,0,0,0-1,2.26,2.53,2.53,0,0,0,.13,1l-4.55,4.09A20.19,20.19,0,0,0,38,14.1a4.7,4.7,0,0,1,.22.61,1.91,1.91,0,0,1,0,.79,2.06,2.06,0,0,1-.62,1.08,2,2,0,0,1-3.28-2.19,1.94,1.94,0,0,1,1.29-1.25A4,4,0,0,1,36.3,13l.21-6a2.37,2.37,0,0,0,1-.65,4,4,0,0,0,.93-3.84c-.7-1.89-2.9-.95-3.6,1.23a3.85,3.85,0,0,0,0,2.23c.13.37.23.26,0,.57l-2.92,3.94c-.21.28-1.33,1.72-1.46,2A2.64,2.64,0,0,1,31,13.59,2,2,0,0,1,28.64,16a2,2,0,0,1-1.49-2.91,2.64,2.64,0,0,1,.78-.85L25.08,5.37a7,7,0,0,0,.47-.55C26.61,3.16,26,0,24.21,0s-2.47,3.63-1.12,5.12a1.9,1.9,0,0,1,.24.25Z"/><path class="cls-1" d="M12.3,30.65c.34,0,.94.26,1.32.35,6.25,1.53,15.55,1.57,21.78-.2a4.43,4.43,0,0,1,.69-.19c.14.27.56.62-.24,1.25a10.76,10.76,0,0,1-4.36,1.4,54.77,54.77,0,0,1-14.47,0c-1.09-.18-4.28-.71-4.86-1.88A.7.7,0,0,1,12.3,30.65Zm2.23-1.12a24.9,24.9,0,0,1,4.53-.89,47.49,47.49,0,0,1,12.6.34,12.64,12.64,0,0,1,2.16.53,20.62,20.62,0,0,1-2.21.42,51,51,0,0,1-12.53.32,37.6,37.6,0,0,1-4.55-.72Zm-6,1.28c.2,1.14,1.67,2.06,2.64,2.53,3.45,1.68,9.52,2,13.41,2a44,44,0,0,0,9.36-1,13.71,13.71,0,0,0,3.8-1.37c.83-.45,2.48-1.57,2.06-3-.32-1.07-1.7-1.9-2.76-2.41a26.36,26.36,0,0,0-8.32-2,46.42,46.42,0,0,0-9.79.08,30.28,30.28,0,0,0-4.36.8A17.51,17.51,0,0,0,10.83,28C10,28.39,8.32,29.47,8.55,30.81Z"/><path class="cls-1" d="M31.17,23.49a5.27,5.27,0,0,1,1.51-.78,5.91,5.91,0,0,1,1.47.78,4.88,4.88,0,0,1-1.5.8,5.81,5.81,0,0,1-1.43-.75h0s0,0,0,0,0,0,0,0Zm-16.9,0a5.78,5.78,0,0,1,1.5-.78,6.33,6.33,0,0,1,1.48.78,4.83,4.83,0,0,1-1.51.8A5.19,5.19,0,0,1,14.27,23.49Zm8.45-.81a4.4,4.4,0,0,1,1.49-.82,4.42,4.42,0,0,1,1.49.82c-1.89,1-1.18,1-3,0ZM8.3,28.75a7.5,7.5,0,0,1,1.36-1.17,17.84,17.84,0,0,1,5.42-2.11,39.56,39.56,0,0,1,9.13-1c4.32,0,10.87.64,14.57,3.09a8.34,8.34,0,0,1,1.35,1.15,10.79,10.79,0,0,0,.53-2.6,8.68,8.68,0,0,0,0-1.53c0-.3-.13-.31-.33-.44l-.47-.3a18.42,18.42,0,0,0-4.48-1.75,48.37,48.37,0,0,0-22.32,0,17,17,0,0,0-5,2.06c-.23.16-.26.12-.29.48a8.35,8.35,0,0,0,0,1.5,10.7,10.7,0,0,0,.54,2.57Z"/><path class="cls-2" d="M12.3,30.65a.7.7,0,0,0-.14.75c.58,1.17,3.77,1.7,4.86,1.88a54.77,54.77,0,0,0,14.47,0,10.76,10.76,0,0,0,4.36-1.4c.8-.63.38-1,.24-1.25a4.43,4.43,0,0,0-.69.19c-6.23,1.77-15.53,1.73-21.78.2C13.24,30.91,12.64,30.69,12.3,30.65Z"/><path class="cls-2" d="M14.53,29.53a37.6,37.6,0,0,0,4.55.72,51,51,0,0,0,12.53-.32,20.62,20.62,0,0,0,2.21-.42A12.64,12.64,0,0,0,31.66,29a47.49,47.49,0,0,0-12.6-.34,24.9,24.9,0,0,0-4.53.89Z"/><path class="cls-2" d="M31.17,23.49s0,0,0,0,0,0,0,0h0a5.81,5.81,0,0,0,1.43.75,4.88,4.88,0,0,0,1.5-.8,5.91,5.91,0,0,0-1.47-.78,5.27,5.27,0,0,0-1.51.78Z"/><path class="cls-2" d="M14.27,23.49a5.19,5.19,0,0,0,1.47.8,4.83,4.83,0,0,0,1.51-.8,6.33,6.33,0,0,0-1.48-.78A5.78,5.78,0,0,0,14.27,23.49Z"/><path class="cls-2" d="M22.72,22.68c1.8,1,1.09,1,3,0a4.42,4.42,0,0,0-1.49-.82,4.4,4.4,0,0,0-1.49.82Z"/></g></g></g></svg>