<svg xmlns="http://www.w3.org/2000/svg" viewBox="0 0 55.7 45.52"><defs><style>.cls-1,.cls-2,.cls-3,.cls-4,.cls-5{fill-rule:evenodd;}.cls-2{fill:#fefefe;}.cls-3{fill:#4a7787;}.cls-4{fill:#9ac8d8;}.cls-5{fill:#cae1ec;}</style></defs><g id="Слой_2" data-name="Слой 2"><g id="Слой_1-2" data-name="Слой 1"><g id="_3015384736064" data-name=" 3015384736064"><path class="cls-1" d="M51,32.57c-1.27,1.65-4,4-6.28,3s-2.21-4.69-1.28-7.2c1.15-3.15,1.46-2.51,1.82-3.1.62-1,1.84-2.18,2.93-1.29a1.48,1.48,0,0,1,.14,1.8c-.63,1.29-2.46.58-4.27,3-1.22,1.65.11,2.06.73,1.68.3-.19.27-.36.5-.71a3.75,3.75,0,0,1,1.26-1.17c1-.5,3.43-.86,3.71-3.56.23-2.21-1.28-2.59-1.81-3,3.1-1.65,5.12.18,5.17,3.44A11.55,11.55,0,0,1,51,32.57ZM7.23,22a2.85,2.85,0,0,0-1.75,3.06C5.93,27.77,8,28,9.26,28.59c1.09.51,1.33,1.59,1.77,1.87a.79.79,0,0,0,.92,0c1-.76-.88-2.47-1.45-2.9-1.17-.9-2.54-.77-3.08-1.78-1-2,1.36-3.32,3-.55.45.74.37-.06,1.09,1.35a10.56,10.56,0,0,1,1.37,5.94c-.32,3.26-2.88,4.09-5.57,2.4-4.51-2.83-7-10.47-3.83-13a2.72,2.72,0,0,1,1.86-.51,4.69,4.69,0,0,1,1.85.6Zm23.63-4a7.62,7.62,0,0,1,2.33-2.6,4.41,4.41,0,0,1,4-.63c2.2.84,3.9,3.65,4.24,5.74a3.27,3.27,0,0,0-4.16,1.93c-1,2.4.69,3.49,1.45,4.48s.12,2.13.68,2.58c.39.32,1.52.39,1.39-1.51s-1-2.33-1.66-3.21c-1.81-2.33,2.51-4.35,2.61-.69,0,1,.16.72.07,1.49a14.23,14.23,0,0,1-2,6.06,7.23,7.23,0,0,1-3.45,3c-2.69.94-4.77-1-6-3.18a5.39,5.39,0,0,1-.79-2.33,3.11,3.11,0,0,1,4.06-2.09,2.1,2.1,0,0,1,.5,3.84c-1.38.85-1.6-.24-2.33-.26a.8.8,0,0,0-.83.81c0,.5.38.69.7.89,2.22,1.44,5.42-1,5.15-3.54-.41-4-5.31-4.42-7.42-2.37a1.9,1.9,0,0,1-.39.34l.06-.79c.28-.11.41-.1.6-.37.65-.93-1.07-1.57-.12-4.53.69-2.15,3.73-1.17,3.13.64-.13.38-1,.89-1.42.56-.23-.19-.19-.4-.54-.55a.81.81,0,0,0-.8.1c-1,.66,0,2.14,1.37,2.27a2.92,2.92,0,0,0,2.54-4.77,3.53,3.53,0,0,0-3-1.32ZM14.29,20.56a9.63,9.63,0,0,1,1.49-3.48c2.16-3.26,5.56-3.2,8-.42a6,6,0,0,1,1,1.4,3.36,3.36,0,0,0-3,1.38,2.92,2.92,0,0,0,1,4.38c2.44,1.24,4.22-1.22,2.93-2a.77.77,0,0,0-.84,0c-.34.19-.31.45-.54.55A1.19,1.19,0,0,1,23,21.66,1.54,1.54,0,0,1,25.18,20a1.65,1.65,0,0,1,1,1.21c1,3.08-1.33,4.13.47,4.77l.15.06-.05.74a5.07,5.07,0,0,0-4.83-1.38,3.78,3.78,0,0,0-3,3.47c-.21,2.45,2.91,5,5.28,3.44,1.19-.78.41-1.69-.25-1.65s-1.05,1.12-2.37.23a2.1,2.1,0,0,1,.63-3.84,3.15,3.15,0,0,1,4,2.21,7.53,7.53,0,0,1-.82,2.31c-2.83,5.45-8.33,3.87-10.55-2.18A11.33,11.33,0,0,1,14,24c.19-2.71,2.92-2.25,3-.25.08,1.45-2,1.53-2.07,4.47-.07,1.84,1.25,1.58,1.55,1.2s-.07-1.64.57-2.5a8.2,8.2,0,0,0,1.41-1.84,3.43,3.43,0,0,0-2.82-4.7,3,3,0,0,0-1.38.17Zm14.46-7.18a11.11,11.11,0,0,1,.71-3.32c.86-2.07,1.36-1.65,1.7-2.34a1.08,1.08,0,0,0-.4-1.4c-1.44-.74-3,2.83-3,2.86-.41-1-1.77-3.52-3-2.84a1.06,1.06,0,0,0-.36,1.39,1.39,1.39,0,0,0,.5.52c1.18.88,2,4.1,1.93,5.1a3.31,3.31,0,0,1-.47-.8,8.83,8.83,0,0,0-1.63-2.14,5.16,5.16,0,0,0-1.51-1.05c-1.54-.68-2,.63-1.45,1.39.31.45,1.28.39,2.19,1.57a10.68,10.68,0,0,1,1.78,3.27c-1.06-1.08-1.59-2.05-3.53-2.86a6.11,6.11,0,0,0-5.22.09c-4.14,2-4.86,7.36-5,7.66a6.49,6.49,0,0,1,0-2.94c.15-.46.47-.81.54-1.08.24-1-1.35-2.31-2.16.15a10.31,10.31,0,0,0-.31,2.89,8.17,8.17,0,0,0-1.61-1.76c-2.27-1.89-3.07-.55-2.64.27s1,.35,2,1.43a12,12,0,0,1,.78.92C7,19.58,5.06,18.57,2.9,19.59,0,21-.4,24.57.29,27.52l.81,2.9a9.65,9.65,0,0,0,.7,1.16,35.63,35.63,0,0,1,2.14,3.35c1.61,3.15-.08,4.25,3.39,3.67,2.16-.36,4.32-.59,6.51-.84a134.17,134.17,0,0,1,28.12,0c2.23.25,4.36.51,6.54.87a4.28,4.28,0,0,0,1.65.12c.58-.2.61-.45.77-1.08a12.94,12.94,0,0,1,2.33-5,6.44,6.44,0,0,0,1.23-2.47,10,10,0,0,0,1-2.72,10.91,10.91,0,0,0,.18-3.38c-.46-3.58-3-5.44-6.09-4.7A9.53,9.53,0,0,0,47,20.42a4.81,4.81,0,0,1,1.79-1.71c.51-.26.77-.18,1-.7.42-.89-.41-2.12-2.64-.28a9.16,9.16,0,0,0-1.61,1.78,9.66,9.66,0,0,0-.32-2.93c-.21-.66-.89-1.92-1.79-1.16s-.12,1.44,0,1.66a6,6,0,0,1,.21,3.46c-.13-.39-.18-.89-.31-1.31-.75-2.5-2.33-5.29-4.76-6.42-3.56-1.65-6.53.08-8.76,2.82a11.65,11.65,0,0,1,1.24-2.56c1.5-2.26,2.36-1.73,2.75-2.36A1.14,1.14,0,0,0,34,9.78c-.54-1.56-2.63.15-3.15.66a12,12,0,0,0-2.05,2.94Z"/><path class="cls-2" d="M30.86,18.05a3.53,3.53,0,0,1,3,1.32,2.92,2.92,0,0,1-2.54,4.77C29.92,24,29,22.53,29.91,21.87a.81.81,0,0,1,.8-.1c.35.15.31.36.54.55.41.33,1.29-.18,1.42-.56.6-1.81-2.44-2.79-3.13-.64-.95,3,.77,3.6.12,4.53-.19.27-.32.26-.6.37l-.06.79a1.9,1.9,0,0,0,.39-.34c2.11-2,7-1.61,7.42,2.37.27,2.55-2.93,5-5.15,3.54-.32-.2-.69-.39-.7-.89a.8.8,0,0,1,.83-.81c.73,0,1,1.11,2.33.26a2.1,2.1,0,0,0-.5-3.84,3.11,3.11,0,0,0-4.06,2.09,5.39,5.39,0,0,0,.79,2.33c1.22,2.22,3.3,4.12,6,3.18a7.23,7.23,0,0,0,3.45-3,14.23,14.23,0,0,0,2-6.06c.09-.77-.05-.45-.07-1.49-.1-3.66-4.42-1.64-2.61.69.68.88,1.54,1.36,1.66,3.21s-1,1.83-1.39,1.51c-.56-.45,0-1.64-.68-2.58s-2.43-2.08-1.45-4.48a3.27,3.27,0,0,1,4.16-1.93c-.34-2.09-2-4.9-4.24-5.74a4.41,4.41,0,0,0-4,.63,7.62,7.62,0,0,0-2.33,2.6Z"/><path class="cls-2" d="M14.29,20.56a3,3,0,0,1,1.38-.17,3.43,3.43,0,0,1,2.82,4.7,8.2,8.2,0,0,1-1.41,1.84c-.64.86-.31,2.17-.57,2.5s-1.62.64-1.55-1.2c.11-2.94,2.15-3,2.07-4.47-.1-2-2.83-2.46-3,.25a11.33,11.33,0,0,0,.82,5.4c2.22,6.05,7.72,7.63,10.55,2.18a7.53,7.53,0,0,0,.82-2.31,3.15,3.15,0,0,0-4-2.21,2.1,2.1,0,0,0-.63,3.84c1.32.89,1.78-.19,2.37-.23s1.44.87.25,1.65c-2.37,1.55-5.49-1-5.28-3.44a3.78,3.78,0,0,1,3-3.47,5.07,5.07,0,0,1,4.83,1.38l.05-.74L26.61,26c-1.8-.64.56-1.69-.47-4.77a1.63,1.63,0,0,0-1-1.21A1.54,1.54,0,0,0,23,21.66a1.19,1.19,0,0,0,1.37.72c.23-.1.2-.36.54-.55a.79.79,0,0,1,.84,0c1.29.77-.49,3.23-2.93,2a2.92,2.92,0,0,1-1-4.38,3.36,3.36,0,0,1,3-1.38,6,6,0,0,0-1-1.4c-2.4-2.78-5.8-2.84-8,.42a9.63,9.63,0,0,0-1.49,3.48Z"/><path class="cls-2" d="M48.41,22c.53.38,2,.76,1.81,3-.28,2.7-2.69,3.06-3.71,3.56a3.75,3.75,0,0,0-1.26,1.17c-.23.35-.2.52-.5.71-.62.38-2,0-.73-1.68,1.81-2.44,3.64-1.73,4.27-3a1.48,1.48,0,0,0-.14-1.8c-1.09-.89-2.31.28-2.93,1.29-.36.59-.67,0-1.82,3.1-.93,2.51-.94,6.17,1.28,7.2s5-1.32,6.28-3a11.55,11.55,0,0,0,2.62-7.09c0-3.26-2.07-5.09-5.17-3.44Z"/><path class="cls-2" d="M7.23,22a4.69,4.69,0,0,0-1.85-.6,2.72,2.72,0,0,0-1.86.51c-3.14,2.49-.68,10.13,3.83,13,2.69,1.69,5.25.86,5.57-2.4a10.56,10.56,0,0,0-1.37-5.94c-.72-1.41-.64-.61-1.09-1.35-1.68-2.77-4.06-1.4-3,.55.54,1,1.91.88,3.08,1.78.57.43,2.41,2.14,1.45,2.9a.79.79,0,0,1-.92,0c-.44-.28-.68-1.36-1.77-1.87C8,28,5.93,27.77,5.48,25.09A2.85,2.85,0,0,1,7.23,22Z"/><path class="cls-1" d="M23.45,44.54a164.28,164.28,0,0,1,21.65.74c.62.06,2,.26,2.53.24.9,0,1.33-1.1.64-1.49a45.88,45.88,0,0,0-5-.58,189.18,189.18,0,0,0-34.82.42C7,44,7.4,45,7.81,45.31s1.8.07,2.5,0,1.68-.16,2.5-.23C16.32,44.8,19.89,44.66,23.45,44.54Z"/><path class="cls-1" d="M41.78,38.58a2.36,2.36,0,0,1,.19,3c-.24.33-.44.43-.64.69l7.34.72a22,22,0,0,0,1.25-3.32,69.5,69.5,0,0,0-8.14-1.11Z"/><path class="cls-1" d="M30,37.88c.12.21.2.22.35.43a2.41,2.41,0,0,1-.61,3.44l7.51.28a2.86,2.86,0,0,1-.49-1,2.46,2.46,0,0,1,.57-2.17l.7-.64a79.63,79.63,0,0,0-8-.35Z"/><path class="cls-1" d="M14.49,42.28c-.13-.13-.26-.22-.37-.34a2.78,2.78,0,0,1-.67-1.31,2.41,2.41,0,0,1,.52-2c-1.29.07-6.74.75-7.87,1a15,15,0,0,0,1.22,3.25,30.4,30.4,0,0,0,3.54-.35c1.11-.09,2.55-.3,3.63-.29Z"/><path class="cls-1" d="M26.15,41.76A2.52,2.52,0,0,1,25.09,40a2.62,2.62,0,0,1,.78-2.11c-2.73,0-5.35.24-8,.37a.63.63,0,0,0,.11.12l.11.09a2.53,2.53,0,0,1,1,2.62,3,3,0,0,1-.44.9l7.51-.22Z"/><path class="cls-1" d="M27.89,0c-.51.65-2.18,4.32-1.46,5.67a1.82,1.82,0,0,0,1.46,1.08,1.78,1.78,0,0,0,1.45-1,3.19,3.19,0,0,0,0-2.18A21,21,0,0,0,27.89,0Z"/><path class="cls-1" d="M7.4,12.6c-.16,1.19-.46,3.7.72,4.35,1.37.76,2.51-.68,1.05-2.52A11.42,11.42,0,0,0,7.4,12.6Z"/><path class="cls-1" d="M48.2,12.6c-.51.57-3.45,2.83-2,4.32.57.6,1.8.11,2.07-1A10.34,10.34,0,0,0,48.2,12.6Z"/><path class="cls-1" d="M29.42,40.12c.52-1.77-2.42-2.46-3-.73S28.91,41.87,29.42,40.12Z"/><path class="cls-1" d="M14.75,40.5a1.6,1.6,0,0,0,1.64,1.24,1.3,1.3,0,0,0,1.4-1.49c-.31-1.71-3.35-1.59-3,.25Z"/><path class="cls-1" d="M38,40.63c.21,1.69,3.26,1.35,3-.52C40.88,38.42,37.8,38.84,38,40.63Z"/><path class="cls-3" d="M51,45.17c.21-.09.12,0,.2-.21l.11.17s0,0,0,0v-.38H51v.39Z"/><path class="cls-4" d="M53.5,45.16h.15L53.59,45c.16-.07.12-.06.28-.21-.13-.13.23-.08-.16-.11l-.2.07Z"/><path class="cls-5" d="M51.76,45.15l.1,0v-.39c-.13-.06-.29-.19-.23.06s0,.15.13.31Z"/><path class="cls-3" d="M51.86,45.17c.21-.1,0,.06.19-.2l.13.2v-.39c-.19.08-.1.06-.26.21,0-.3,0-.14-.06-.21v.39Z"/><path class="cls-3" d="M50.06,45c-.11.14,0,.1-.24.14l0-.27C50.11,44.91,49.91,44.75,50.06,45Zm.06-.12c-.54-.24-.55.49,0,.24Z"/><path class="cls-3" d="M52.65,45.11c-.21,0-.24,0-.18-.21,0,0,.07-.19.19,0S52.67,45,52.65,45.11Zm-.4,0a.7.7,0,0,0,.49,0c0-.17,0-.34-.22-.28s-.1.08-.17.17S52.34,45,52.25,45.1Z"/><path class="cls-3" d="M53.5,45.16v-.37h-.24l-.05.34.21-.18s0,0,0,0l0,.14S53.5,45.14,53.5,45.16Z"/><path class="cls-3" d="M54.56,44.88c-.24,0,.08,0-.07,0s0,0,0,0,0,0-.05,0v.38c.18-.12,0,0,.09-.11s0,0,.1-.07l0,0,0,0,0,0,.07-.31c-.23.18-.07.12-.19.1Z"/><path class="cls-3" d="M53,44.88l-.07,0a.05.05,0,0,1,0,0s0,0,0,0v.39l.1-.11c.09-.1,0,0,.1-.08a.76.76,0,0,0,.08.11l0-.31c-.2.18-.1.11-.18.1Z"/><path class="cls-3" d="M53.65,45.16h.26l0-.33c-.16.15-.12.14-.28.21l.06.12Z"/><path class="cls-3" d="M50.52,45.17l-.12-.31s-.14.07-.17,0,0,0,0,0v.39c.15-.1,0,0,.14-.18.13,0,0,0,.1.07s0,.15.07.07,0,0,0,0Z"/><path class="cls-3" d="M54,45.16c.24-.09.05.06.23-.18.06.19,0,.08.11.18v-.38c-.18.07-.11-.06-.2.21Z"/><path class="cls-5" d="M52.47,44.9c-.06.2,0,.17.18.21,0-.09.07-.08,0-.19S52.48,44.9,52.47,44.9Z"/><path class="cls-5" d="M49.82,45.11c.22,0,.13,0,.24-.14-.15-.22,0-.06-.22-.13Z"/><path class="cls-3" d="M50.77,45l.15.18v-.38l-.15.1h0l-.11.29.14-.18Z"/><path class="cls-3" d="M49.5,45c0-.13-.06,0,.21-.19-.29,0-.29,0-.29.34l.29,0-.05,0,0,0L49.5,45Z"/><path class="cls-3" d="M51.76,45.15c-.13-.16-.09-.1-.13-.31-.09.08,0,.06-.07,0l-.1.29,0,0s0,0,0,0,.1,0,.22,0Z"/></g></g></g></svg>