<svg xmlns="http://www.w3.org/2000/svg" viewBox="0 0 41.12 29.15"><defs><style>.cls-1{fill:#030303;}.cls-1,.cls-2{fill-rule:evenodd;}.cls-2{fill:#fff;}</style></defs><g id="Слой_2" data-name="Слой 2"><g id="Слой_1-2" data-name="Слой 1"><g id="_3015384751520" data-name=" 3015384751520"><path class="cls-1" d="M33,25.6c-.67,2-10.9,2.09-12.87,2.09A56.61,56.61,0,0,1,13,27.28c-1.09-.14-6.11-.87-4.67-2.35,1.81-1.84,9.35-2.29,12.69-2.26a41.19,41.19,0,0,1,6.9.57C29.17,23.46,33.39,24.3,33,25.6ZM21.49,19.67a1,1,0,1,1-1.86-.39A1,1,0,0,1,21.49,19.67Zm10.84-3.3a3.91,3.91,0,0,0,2.49-.5c.24-.16.39-.34.59-.46,0,1.95.87,2.34,1.25,3a4.73,4.73,0,0,0-1.86.17,3,3,0,0,0-1.21.81c-.18-1.24.1-1.33-1-2.71l-.25-.32Zm-24.79,3c-1.18-.9-1.18-.91-3.11-1,.15-.21.31-.33.49-.56a3.21,3.21,0,0,0,.76-2.48c1.14.84,1.11,1,3.1,1C8.44,17,7.49,17.4,7.54,19.37Zm18.1-5.63a6,6,0,0,0,2.17-.4,3.64,3.64,0,0,0,.8-.46l.64-.64a3.65,3.65,0,0,0,.56,2.08,12.46,12.46,0,0,0,1.24,1.41,6.92,6.92,0,0,0-2.14.38c-1,.41-1.09.85-1.49,1.09C27.44,15.06,26,14.22,25.64,13.74Zm-12,3.5a4.11,4.11,0,0,0-1.43-1.11,5.64,5.64,0,0,0-1-.28c-1.32-.25-1.59.2-.63-.75a3.5,3.5,0,0,0,.59-.73,3.54,3.54,0,0,0,.58-2.14c.16.09.43.45.65.63a5,5,0,0,0,3,.89c-.88.92-1.77,1.59-1.8,3.49Zm3.65-4.14a9.73,9.73,0,0,0,2-1.15c1-.9.78-1,1.27-1.86A3.83,3.83,0,0,0,21.82,12a11.82,11.82,0,0,0,2,1.13,9.24,9.24,0,0,0-2,1.12,3.88,3.88,0,0,0-1.24,1.87c-.19-.31-.29-.69-.52-1a6.22,6.22,0,0,0-2.71-2Zm-.78-10,.19.11c.87.39,2.39.8,2.83,1.65.3.6-.13,1.36-.34,1.88a7.45,7.45,0,0,0-.47,1.94c-.18-.32-.25-.8-.42-1.15a2,2,0,0,0-3.08-1c.51.5,1.49.8,1.49,2.32,0,2.51-3.91,2.7-4.25.52a2.3,2.3,0,0,1,.33-1.55,8,8,0,0,1,.92-1.06l-1.12-.22a3.66,3.66,0,0,1-1.77-.85A5.28,5.28,0,0,0,10.22,5,3.74,3.74,0,0,1,9,7.71c-.26.26-.49.41-.71.66l.18.06c1,.23,1.9.33,2.36,1.41.93,2.2-2.09,4-4.13,2.63a2.15,2.15,0,0,1-1-1.08c-.31-.72,0-1.13.24-1.66a4.38,4.38,0,0,1-1.4,0,3.08,3.08,0,0,1-1-.49,2.6,2.6,0,0,1-.09,1.35c-.15.42-.48.76-.57,1.05,3.19-.22,2.52,4.11-.1,5.16-1.27.5-1.65.14-2.76.06a11,11,0,0,1,3.27,5c.15.45.49,1.84.65,2.12.38-.59.27-.85,1-1.5a7.59,7.59,0,0,1,1.44-1.07A21.16,21.16,0,0,1,13.8,19a25.41,25.41,0,0,1,4.48-.46,2.55,2.55,0,0,0,0,2.08c-3.26,0-8.35.89-11.09,2.56-.7.42-2.21,1.44-1.59,2.7.77,1.56,4.22,2.36,6.38,2.71a60,60,0,0,0,17.09,0c2.16-.35,5.64-1.12,6.42-2.72.59-1.21-.93-2.29-1.6-2.68-2.62-1.56-5.91-2.06-9-2.42-.66-.07-1.51-.06-2.15-.17a2.55,2.55,0,0,0,0-2.08c4,.26,8.53.9,11.94,2.9a8.31,8.31,0,0,1,1.41,1,3.75,3.75,0,0,1,.8,1.06l.21.46c.47-.81.68-3.44,2.56-5.69.21-.25.43-.46.66-.72s.47-.38.7-.64c-.92,0-1.16.51-2.74-.06a3.42,3.42,0,0,1-2.12-4.06c.32-.92.91-1.14,2-1.1a2.41,2.41,0,0,0-.3-.48,2.59,2.59,0,0,1-.35-1.93c-.88.33-.53.71-2.46.47a1.84,1.84,0,0,1-.62,2.7,3,3,0,0,1-3.11.16c-2.21-1.31-1.4-3.72,1-4.1l.3-.06h0l0,0,.05,0c-.43-.65-1.87-1.1-2-3.35-.36.13-.61,1.1-2.41,1.52l-.83.14-.15,0h-.05l-.1,0c.26.37.62.55.9,1a2.4,2.4,0,0,1,.35,1.57c-.32,1.7-2.66,1.94-3.68.93A2.3,2.3,0,0,1,25.26,7l.5-.34c.1-.09,0,0,.09-.1a2.84,2.84,0,0,0-1.28-.35c-1.43,0-1.89,1.31-2.25,2.56a5.81,5.81,0,0,0-.43-2c-.73-1.86-.81-2.21,1.76-3.31a4.79,4.79,0,0,0,.89-.39c-.44-.43-2.22-.63-3.6-2.53C20.82.34,20.75.1,20.57,0c-.17.07-.25.28-.37.47a6,6,0,0,1-2.42,2,6,6,0,0,0-1.22.58Z"/><path class="cls-2" d="M33,25.6c.43-1.3-3.79-2.14-5-2.36a41.19,41.19,0,0,0-6.9-.57c-3.34,0-10.88.42-12.69,2.26-1.44,1.48,3.58,2.21,4.67,2.35a56.61,56.61,0,0,0,7.06.41C22.06,27.69,32.29,27.6,33,25.6Z"/><path class="cls-2" d="M17.34,13.1a6.22,6.22,0,0,1,2.71,2c.23.35.33.73.52,1a3.88,3.88,0,0,1,1.24-1.87,9.24,9.24,0,0,1,2-1.12,11.82,11.82,0,0,1-2-1.13,3.83,3.83,0,0,1-1.25-1.88c-.49.82-.23,1-1.27,1.86a9.73,9.73,0,0,1-2,1.15Z"/><path class="cls-2" d="M13.69,17.24c0-1.9.92-2.57,1.8-3.49a5,5,0,0,1-3-.89c-.22-.18-.49-.54-.65-.63a3.54,3.54,0,0,1-.58,2.14,3.5,3.5,0,0,1-.59.73c-1,1-.69.5.63.75a5.64,5.64,0,0,1,1,.28,4.11,4.11,0,0,1,1.43,1.11Z"/><path class="cls-2" d="M25.64,13.74c.31.48,1.8,1.32,1.78,3.46.4-.24.5-.68,1.49-1.09a6.92,6.92,0,0,1,2.14-.38,12.46,12.46,0,0,1-1.24-1.41,3.65,3.65,0,0,1-.56-2.08l-.64.64a3.64,3.64,0,0,1-.8.46A6,6,0,0,1,25.64,13.74Z"/><path class="cls-2" d="M7.54,19.37c0-2,.9-2.37,1.24-3-2,0-2-.18-3.1-1a3.21,3.21,0,0,1-.76,2.48c-.18.23-.34.35-.49.56C6.36,18.46,6.36,18.47,7.54,19.37Z"/><path class="cls-2" d="M32.58,16.69c1.11,1.38.83,1.47,1,2.71a3,3,0,0,1,1.21-.81,4.73,4.73,0,0,1,1.86-.17c-.38-.68-1.3-1.06-1.25-3-.2.12-.35.3-.59.46a3.91,3.91,0,0,1-2.49.5l.25.32Z"/><path class="cls-2" d="M21.49,19.67a1,1,0,0,0-1.86-.39A1,1,0,1,0,21.49,19.67Z"/></g></g></g></svg>