<svg xmlns="http://www.w3.org/2000/svg" viewBox="0 0 40.49 23.57"><defs><style>.cls-1{fill:#171719;}.cls-1,.cls-2{fill-rule:evenodd;}.cls-2{fill:#fdfdfd;}</style></defs><g id="Слой_2" data-name="Слой 2"><g id="Слой_1-2" data-name="Слой 1"><g id="_3015384754256" data-name=" 3015384754256"><path class="cls-1" d="M7.75,18.83C4.37,18.5,3.29,16,3.63,12.42,6.89,12.54,7.49,16,7.75,18.83Zm25,0c.19-2.68,1-6.43,3.93-6.26C38.28,15.42,35.3,18.63,32.75,18.78ZM3,17.47c-1.61-.78-1.72-1.7-3-2.32l2.13,6.38c3.61,0,5.82-3,18-3a56.18,56.18,0,0,1,9.67.82,26.55,26.55,0,0,1,4.09,1,16.1,16.1,0,0,0,4.36,1.23,32.9,32.9,0,0,0,2.23-6.36c-1.31.77-1.57,1.71-3,2.06.48-2.47,2-5,.15-7.43C35.55,9.66,35,11.05,34,12.16c-3.1,3.46-3.61-.2-4.45,3.11-.18.72.08.39-.37,1-1.35-1.2-.7-2.37-1.22-4-1.55.5-1.75,3.36-5.35,3.81-.74-1.27-.29-2.8-2.21-2.92S18.69,14.45,18,16c-3.52-.12-3.45-3-5.4-3.41-.22,1.37-.31,2.72-1.17,3.62-.49-.8-.2-1.27-.75-2-1.71-.95-2.36-.07-4.1-2-1.31-1.43-1.35-2.47-4-2.54A21.47,21.47,0,0,0,2,13.91,32.26,32.26,0,0,0,3,17.47Z"/><path class="cls-1" d="M20.14,3.34c1.65.81,4,6.61,0,6.58S18.86,4.53,20.14,3.34Zm-5.6,3.27C12.87,6,12.9,4.48,9.73,5c-4.85.74-4.82,7.3-1,6.81,3.32-.43.74-3.95.65-4.27,3.25-.44,2.91-.08,3.66,2.79.58,2.18,1.44,3,3.9,3.31l-.37-3.24c1.33.44,1.45,1.4,3.35,1.53,2.6.17,2-.92,4-1.43l-.21,3.14C29.73,13,25.32,6.35,31,7.5c.12,1-1.06,1.11-.8,3.49,4.74,3.79,6.62-6.07-.54-6.18-2.59,0-2.18,1.48-3.89,1.75-3.51-6-5.16-9.28-8.8-3.65a33.56,33.56,0,0,1-2.39,3.7Z"/><path class="cls-1" d="M4.19,22.9c2.2,1.2,5.4.11,7.75-.39,15.43-3.34,22.16,3.41,24.11.15C32.43,18.25,5.26,18.68,4.19,22.9Z"/><path class="cls-2" d="M20.14,3.34c-1.28,1.19-4.07,6.55,0,6.58S21.79,4.15,20.14,3.34Z"/><path class="cls-2" d="M32.75,18.78c2.55-.15,5.53-3.36,3.93-6.26C33.75,12.35,32.94,16.1,32.75,18.78Z"/><path class="cls-2" d="M7.75,18.83c-.26-2.84-.86-6.29-4.12-6.41C3.29,16,4.37,18.5,7.75,18.83Z"/><path class="cls-1" d="M15,4.23l.14-1.84c-1.11-.16-1.9-.05-1.92,1S14,4.39,15,4.23Z"/><path class="cls-1" d="M25.62,4.33l1.62.25v-2c-1.67-.14-2.1.24-1.63,1.79Z"/></g></g></g></svg>