<svg xmlns="http://www.w3.org/2000/svg" viewBox="0 0 82.49 73.19"><defs><style>.cls-1{fill-rule:evenodd;}</style></defs><g id="Слой_2" data-name="Слой 2"><g id="Слой_1-2" data-name="Слой 1"><g id="_3015420634192" data-name=" 3015420634192"><path class="cls-1" d="M49.51,44l2.1.53c.41.14.12,0,.6.17l.65.41c1.31,1.23-1-.18.3.31.13.05,2,.28,1.05,1.27a5.11,5.11,0,0,1-2.09.56,2.27,2.27,0,0,0-1.34-1c-1.3-.36-1-.12-2.35,0a9.09,9.09,0,0,1-2.23-.07c-.85-.16-.39-.36-.43.2l-1.51.37L44,45.51c-1-1.84.22-.6-.78-1.42L41.71,43l.93-.32.17,0c2.55.19,1.91-.42,2,.8.5-.52,1.15-.71,1.52-.14l.11.27c1-.44.35-.37,1.57-.16,1,.16,1.05,0,1.47.46ZM30,40.37a42.55,42.55,0,0,1,8.11-.43c2.62.06,6.18.62,8.52.5a2.43,2.43,0,0,1,1.71.45c3.56.12,8.72,2.75,7.69,4.73-.74-.63-.25-.82-2.77-1.76a39.39,39.39,0,0,0-12.16-2.19,82.32,82.32,0,0,0-9.53.36l-1.77.12c-1.28.82-1.88.44-3.08-.35-.37-.24-.36-.27-.77-.52.92-.62,2.77-.76,4.05-.91ZM56,43c-.06-1.83,1.38-4.4,2.82-4.06C59.61,39.44,58.84,42.93,56,43ZM17.37,40.59c.15-2.87,2.92-.5,2.95.46l-.67,1.11c-.38.39,0,.07-.43.34C18.26,41.05,18.12,41.58,17.37,40.59Zm7.76-.67a2,2,0,0,1-1.65-.06C23.46,38.7,24.87,38.23,25.13,39.92Zm-6.21-1.43a2.21,2.21,0,0,1,2.42,1.31c.33.77.18.55-.18,1-1.21-.26.09-.14-1.66-1.6-.76-.63-.29-.38-.58-.69ZM55.4,42.75l-.74-.51c-.06-1.68,1.39-4.1,3.34-4.15-.23.72-.12.37-.74.88a5.38,5.38,0,0,0-1.86,3.78ZM37.88,39.33c-.85-.8-1.5-1.15-1-2.92.95-3.58,4-1.63,3.65,1.13C40.26,39.18,39.6,39.32,37.88,39.33Zm-1.37-3.9c-.12,2.87-.74.37.26,3.86-5.08.07-7.75.79-9.86.81a3,3,0,0,1-2.49.61c.71-.38.84-.29,1.27-1-.88-1.93-1.5-1.39-2.73-.64-.15,1-.16.55.28,1.37-1.84-.12-.85-.45-2-1.59l-.55-.5-.26-.24a10,10,0,0,1,1.75-.65l2.77-1c-.28.85-.52.7-.69,1.53,1.32-.86.15-1.32,2.12-1.95a32.43,32.43,0,0,1,3.43-.8c1.7.19.72-.36,1,.61,1.23-.94.83-1.14,2.89-1.06.44-.43.15-.08.94-.2.47-.06.77-.15,1.37-.19l1.28,0c-.25.74-.14.7-.73,1.08Zm6-.8c1,.14,2-.06,2.7.3,1.83.46,4.37.63,6.59,1,.55.17,1.21.42,1.59.53s1.35.14,1.19.39a20.27,20.27,0,0,1,2.39.8c-1.11,1.23-2.68,2.07-2.78,4.28A18.64,18.64,0,0,0,50,40.4L48.49,40l-8.26-.69c1.37-2.42,1-3.36-.08-4.9C41.07,34.46,41.57,34.59,42.54,34.63ZM17,35.75a2.67,2.67,0,0,1-1.47-1.35c-1.77-2.72,2.64-2.67,2.69.49Zm4.58-2.88c0,.65.17.56-.42.85-.31.16-.53.21-.74,0S20.21,32.54,21.59,32.87ZM62,32.05c.89,1.64-2,3.54-3,2.57S60.37,31.82,62,32.05Zm-5.72,1.2c.09-.93-.41-.58.7-.69C56.74,33.5,57,33.07,56.29,33.25Zm-14,.73a24.73,24.73,0,0,0-4.15-.32c-1,0-3,.22-3.58.12-.89.46-.49.25-1.54.28l-.77.17-6,1,.11.08-1.3.21-.66.31c-.87.79-.68.23-1.79.57h-.07l-1.29.35-.13.06-3,1.53-.57-.86c0-1.62,1.2-2.12,2.63-2.69C23.31,33.54,31,31.36,34,32.3a6,6,0,0,1,6.35-2c1.44.36,2.06,1.17,2.9,1.38,1.4.34,15.5-.24,16.31,5.47l-.52,1c-.64-.11-.62-.28-1.14-.59L54.92,36l-.43,0c-1.1-.2-.62,0-1-.44l-.13.13L51.21,35a1.6,1.6,0,0,1-.84.08c-.07,0-.18,0-.24-.07s-.14-.07-.22-.11l.07,0c-1,0-1.11.12-1.7-.39-.91.26-.77.38-1.45-.16l0,0-1.36-.2-.59-.08-.68-.06c-.55-.29-.94.35-.37-1l-.53,1Zm-19.94-.87c0-.49.17-1.5.86-.85S22.79,33.05,22.33,33.11Zm32.55-.77c.53-.44.08-.32.87-.19C55.42,32.9,55.33,32.84,54.88,32.34Zm-30.5-.89c1.54.06,1.24,1.12-.37,1.16Zm28.93.43c.21-.13,0-.64.93,0C53.9,32.36,53.86,32.6,53.31,31.88Zm-.64-.23c-.76.38-.56.47-1.14-.23.23-.12-.09-.57.67-.3S52.57,31.49,52.67,31.65ZM19,34.6c-.42-.47-.24-.45-.59-1-1.24-2-2.25-1.31-3.21-1.93,1-1.5,2.45-.43,3.19.35C20.25,34,20,34.11,19,34.6Zm38.39-1.12c1-2.09,4.13-4.17,5.26-2.29l-.3.2-.18.07c-2.2.64-1.92-.35-4,2.58Zm-7.2-1.87c-1,0-.74-.31-.84-.42.21-.22,0-1.2,1.64-.23C50.81,31.41,51.05,31.61,50.16,31.61Zm-22,.15c-.35-1,.08-1.4,1.11-1.46C29.67,31.25,29.43,31.81,28.17,31.76Zm2.35-.33c-.08-.11-.65-.27-.16-1C30.65,30,31,30,31.61,30c.19,1.05.19,1.89-1.09,1.46Zm16.84-1c.85-.35.44-.32,1.42,0,0,1-.6,1.05-1.52.76Zm-2.1.56c-.29-1.28.75-1,1.4-.66C46.53,31.17,46.26,31.34,45.26,31Zm-2-.17c-.79-1.82,2.13-1.06,1.1,0C43.6,31.55,43.22,30.79,43.21,30.79Zm-9.44-1c.42,1.09.14,1.74-1.05,1.62-.51-.72-.35-.58-.32-1.48Zm1.06.79c0-.94,3-4,3.61-6,.66.87.85,1.84,1.7,2.9a10.25,10.25,0,0,1,1.91,2.8c-2.38-.71-5.38-1.43-7.22.29ZM25,26c2.07-.6,2.25,2.92.68,3.42S23.05,26.57,25,26Zm36.7,4.18c.53-1.37,1.67-1.64,2.78-2.61.7-.6.32-.41,1.14-.57-.93,1.11-2.63,2.92-3.92,3.18ZM25,30a2.14,2.14,0,0,0,2-1.24c.58-1.19-.09-2.09-.41-3a2.21,2.21,0,0,1,1,3.09A1.83,1.83,0,0,1,25,30Zm12.63-15.6c.3-.69-.74-2.69-.75-4.34,0-5.39,3.77-4.11,3.58,0-.08,1.86-.83,3-.64,4.8,1.11-.48.14-.53,1.49-.94,2.93,1.51-1.89,6.1-2.68,9a13.71,13.71,0,0,1-1.19-2.36c-.41-.86-.75-1.26-1.21-2.1-.84-1.52-1.48-3.45-.07-4.68,1.32,0,.38.22,1.47.61Zm.14-13.09a2.31,2.31,0,0,0,.49-.77c.58.3.28.1.67.49l.39.56c.26.48.27.71.6,1.31,1.84,3.35,2.37,5.55,1.14,9-.34-.71.39-4.67-1.35-5.87-.73-.51-.16-.2-1.79-.28a.45.45,0,0,1-.12.12L36.52,7.66c-.41,1.19-.2,1.89-.65,2.51-.68-3.69-.24-6.07,1.9-8.82ZM37.26.91c-.16.48,0,.2-.39.68a8.13,8.13,0,0,0-.5.7c-.32.52-.63,1.29-.84,1.53-.61,3.35-.86,3.42-.24,6.87-.88.11-4.75-.76-4.54,4a10.73,10.73,0,0,0,2.38,5.75l.43.67c1.22-.16.15.08.51-.55a9.66,9.66,0,0,1-2.72-5.43c-.27-2.3,1.29-5.46,3.83-3.57.7.45.11.06,1.33,1.53l-1.16.85-.72.73s-.08.2-.1.16-.06.12-.1.17c.06,3,1.54,4.77,2.74,6.77,1.63,2.71-.48,4.84-1.79,6.58l-.7,1-1.89.13-.65.13c-3.72.16-.48,0-2.2.33-1.23.22.08-.43-1.5,0-1,.27-.24.5-1.29.44.15-.58.57-.62.88-1.48s-.14-1.05.52-1.78L28.36,27c-.45-.52,0,.07-.41-.48a2.83,2.83,0,0,1-.2-.28c-.33-.59-.15.06-.16-.69l-.76,0a10.61,10.61,0,0,1-.7-1.64,3,3,0,0,1,.43-1.63L26,22a4.92,4.92,0,0,0,.19,3.08l-1.47.33-.48.29c-1.3.84-.16.43-1,.81.32,1.37.26-.17.31,1.21,0,.6,0,.94,0,1.62.66,1,.33.62,1.48,1.23a1.76,1.76,0,0,1,.31.17l.28.2c-.79.19-.28-.32-1.47.23L21,32.33c-1,.28-.56.33-1.27.62-1.8-2.71-2.08-1.68-3.3-2.81-.77-.71-1.78-2.41-3.48-2.7h-.2c.55,1,1.55.57,2.93,2,.85.88.2,1,.12,1.11l-2.19-1.7-.15-.1s-.11-.07-.15-.11l-.14-.12-.26-.23c-.59-.49-.27-.5-1.14-.41l-1-.54c-1.06-.59-1-.25-1-.23a18.18,18.18,0,0,1,3.09,2.22c1.82,1.49,1.72.82,1.66,3.67-.05,2.21,1.36,2.13,2,3.19a11.13,11.13,0,0,1,.53,2.05c.41,1.31,0,.69-.41,2A3.08,3.08,0,0,1,15,39.4l-.15.25c.56,1.09,3,1.13,4.35,3.46-1.18,3.14-.78,2.92-.78,6.12-1.14-.6-1.26-.95-1.87-2.08-1.94-.64-1.31-1-3.12,0-1.33,1.79-.63,3.06-.6,4.12a38.7,38.7,0,0,0-4.14-3.41c-.06-.06-.16-.19-.2-.14s-.14-.1-.19-.13a1.45,1.45,0,0,1-.19-.12c-3.91-.16-3.56,1-5.31,3.44C1.82,52.19-1,54.08.37,57.28c1,2.31,2.07,1.81,3.13,3.07,1.63.18.48.18.91-.38A4.68,4.68,0,0,1,.54,56.64a4.22,4.22,0,0,1,.21-2.76,8,8,0,0,1,.84-1.1c.56-.71.08-.51,1-.85a1.47,1.47,0,0,1,.25-.48c.25-.31.15-.17.42-.39.36-1.59,2.52-4.27,5-3A14.86,14.86,0,0,1,10.61,50c1.28,1,1.23,1.41,2.15,2.23.62.41.31.38.61,1l-.78.21,1.59.41-.61-1.77.74,0,0-.1c-.51-.67-1.19-1.16-1.18-2.38,0-1,.3-2,1.15-2.35a2.24,2.24,0,0,1,2.32.92c1.3,1.81,1.21,1.47,1.16,2.7l.13.24.53-.9a1,1,0,0,1,.09-.17c.26.55.45,1.17.69,1.64l.28-.49c-.36-1.05-1.37-4.57-.35-5.6-.08-1.4,1-5.3,4.53-4.47A12.86,12.86,0,0,1,27,42.49c1.38.61,2.51.67,3,2.16a9.66,9.66,0,0,1,.64,4.2c0,1.84-.72,3-.8,4.16l.13.34c.24-.76,0-.41.55-.81l.58-1.16c-.13-1,0-4,.35-4.65.45-.45,0-.19.72-.33a2,2,0,0,1,1.11,0c-1.13-.48-1.42-.16-2.26.13a1.92,1.92,0,0,0,0-1.42S31,45,31,45l-.09-.14L30.3,44c1-.46,2.31-.34,2.91-.77-1,.14-2.19.49-3.08.11.65-.11.92-.29,1.69-.39s1.47-.18,1.87-.23a23.5,23.5,0,0,1,4.38-.17l-1,1.57c-.52.76-.45,1-1,1.25a4.34,4.34,0,0,0-.17.4c-.09.42-.07,0-.06.58l.17.24a12.45,12.45,0,0,1,1.35-2.2,17.48,17.48,0,0,1,1.8-1.92c2.14-.17,2.84.54,3.43,2,.69.36,1.48,2.14,1.77,3a4.63,4.63,0,0,1-.41.57c-.33.54-.15,0-.28.58h.2c.8-.24,1.54-1.82,4.36-2,2.47-.16,4.14.28,4.38,2.39H53l-.17-1.36a8.1,8.1,0,0,0,3.34-1.45c1.63-1.22,0-2.09,1.68-3.24a3.76,3.76,0,0,0,1.79-2.86L60,35.61c5.89-2.7-.14-4.28,6.84-8.75A14,14,0,0,0,70,24.77c-1.09-1.07-3.41-1.06-5.16-.48-1.35.45-1.43,0-2.78.39-1,.3-1.34.89-2.11,1.14-1.15-3.73-3.23-2.5-3.67-1.67l-.12.33a1.42,1.42,0,0,0,0,.16l0,.15s0,.1,0,.15c-1.3-2,.91-3.67,2.48-4.22-.5-.33.27-.18-.41-.12l-1,.43c-.83.45-.59.4-1.2,1.14l-.28.31c-.41.19-.52.25-.6.91a8.47,8.47,0,0,0,.06,1.48c-.72.07-.88,0-1.19.44.83-.11.49-.29,1.2-.34.87.72.59.74,1.93.52-.29-.91-.33-2.19,1.32-1.53,1,.41.79,1.47,1.13,2.45,1.34.17,1.17-.29,2-.89s1.26-.39,2.37-.5c1.55-.15,2.91-1.1,4.82-.25a25,25,0,0,1-3.12,1.61,22.37,22.37,0,0,0-3.94,3.16c-1.11,1-2,.29-4.1,2.79L56,31.87l-.18-.08L49,30c-2.26-.83-.61.28-2.56-.33-.78-.24-.15-.16-1,0-.52.09.09.12-.49.09-.83,0-.84-1-1.7-.3-.64.4.81.55-.77.29,0-1.16-.38-.64-.5-1.12l0-.87,0-.05c-.23.86.11.31-.4.71-.91-.66-.4-.24-.74-.82-.14-1.18-2.37-2.38-1.33-5.15.45-1.18,2.27-3.46,2.38-4.21,2.05-4,.5-4,0-4.88L43,14a5.44,5.44,0,0,0-1.39-1c-.55-.41-.05.31-.44-.49,3.21-.44,1.52,1.46,2.37.22l-1.73-.79c1.64-2.23,4.42-.66,4,2.74-.42,3.22-1.91,4-2.4,5.8,1.18.13.21,0,.54.32l.32,1.05L44.72,23c1-.1,1.78-.66,2.58.29.94,1.12-.18.92-.66,1.9.46.89,1.64,1.37,2.29.46l.78-1.11c.55-1.37.2-.83-.17-1.09-.18,1.09-.73,2.36-2.2,1.86.24-.52,1.55-.41.59-2.14-.61-1.08-1.42-1-3-.89-.48-2.22-1.55-1.33-.19-3.25,1.48-2.09,3.93-9.53-2.67-8.5a13.68,13.68,0,0,0-.78-5.95A9.06,9.06,0,0,0,38.61,0L37.26.91Z"/><path class="cls-1" d="M55.78,59.57c-2.57-.45,1.09-3.9,1.09-3.9a11.26,11.26,0,0,0-.95,1.76C55.72,58.11,56.1,58.64,55.78,59.57ZM59,48.25c-.83-2.17.9-5.1,2.17-5.89,4.15-2.58,4.45,3.73.31,5.28l1.44-1.73-1.81,1.41A2.54,2.54,0,0,1,59,48.25Zm5.35-6.66c-.61-.54-1-.22-.46-1.23,1.78,0,2,2.18,1.29,3.14-.2-.69-.17-1.32-.83-1.91Zm16.63-2.06c-.89,3.57-3.53,3.78-7.7,3.56-.18-.61-.1-.23.62-.45l-.21,0-.88-.33c1-.38.85-.79,1.68-1.23,1.43-3.46,2.13-2,1.78-7.06,4-2.32,6.44-1,5.51,4l-.08.57c-.14.77-.3.78-.72,1ZM67.06,37.06c.26-6.14,5.86-9.5,7.72-5.37-2.61-1-4.19.42-5.17,1.86-.17.25-1.24,2.39-1.3,2.42-.74.53.29.08-.28,0-.39-.09.24-.59-.18.08-.63,1,.24.49-.79,1.06ZM53,49h-.41l.09,1.84c.18,1.08.35,1.15-.37,2.06-.88,3.69-3.75,5.63-7.85,3.41-.88-.08-.69-.26-.56.55,1.54.72,0,3.21-.59,3.84-.83-.23-.06,0-.88-.54l0,.14.21,1c-.74.49-.86,1.12-2,1.13S39,61.7,38.44,61.33c-.28.2.22.11-.21,0a2.74,2.74,0,0,1-.36-.17c-.33,1.88-2.63,2.12-3.74-.1-.86-1.72-1.58-2.57-1.38-3.65-.72.41-.32-.46-.6.64l2,4a2.65,2.65,0,0,0,2,1.08c1,0,1.47-.72,2-1.25,2.67,1.63,2.73,1.43,4.74-.2.74.16.89.62,1.94.71.7.06,3.31-.48,4-1.9a2.3,2.3,0,0,0,.11-2.36c-.6,1.44.1,2.48-1.68,3.19a4.28,4.28,0,0,1-3.85.12,4.08,4.08,0,0,0,1.39-2,2,2,0,0,0,.32-2l1.12.41c0,.93.15.43-.21.95s-.41.32-.67,1.06l.26.52c.56-1,1.11-.7,1.81-2.34,4-1,3.44-2,4.5-2.48.56-.91,1.38-.94,2.55-1.24a4.6,4.6,0,0,1,3.42.09c-.49.5-4.46,3.15-3.09,5,.86,1.19.32-.39,1.64,1.24a2.92,2.92,0,0,0,5.16-.89c-.57.2-.46.29-1.07.89a2.9,2.9,0,0,1-1.17.76,2.35,2.35,0,0,1-2.6-1c2.18,1.23,3.56.76,4.64-1l-.14-.4c-1.45.77-2.46,3-4.64.5a3.62,3.62,0,0,1,1.23-3.6c.36-.83.58-.77.92-1.25-1.17-1.44-1.85-.64-3.5-1.06l-1.54.05c4.74-1.76,4.05-3,4.94-4.35.23-.33.11-.17.39-.41l-.38,1.92c2-.23,4.09-1.62,5.64-2.4l1.18-1a4.33,4.33,0,0,0,1.17-1,14.33,14.33,0,0,0,.86-1.23c.52-.73.61-.45.83-1.49l.12-.86c.37,0,.33.62.33.62.51-.49.63-.56.74-1.12V40.16l-1,1.42a1.93,1.93,0,0,1-.37-.84c-.48-2.08,1.39-7,3-8C75.53,30,76.32,36,75.33,38a12.27,12.27,0,0,1-3.48,4.45c.46-.74.69-.68,1-1.66-2,1.13-1.18,2.54-2.5,1.87,0,.32.6,1-1.42,2.76l-3,2.76c-1.07.62-.69.06-1.26,1.14,2-.17,1.64.07,2.39-.6l-1.28,0,5.17-5c2.44-1.16,6,.79,9-1.53,2.24-1.78,2.71-4.56,2.61-7.13a2.71,2.71,0,0,0-2.61-2.61c-2.07-.16-2.63.82-3.94,1.15-.86-1.43-.71-2.75-1.92-3.6a3.66,3.66,0,0,0-4.25.45,8.84,8.84,0,0,0-2.66,9.89c.22.64.69,1.27.83,1.74a4.19,4.19,0,0,1-1.3,3.8c-2.1,2.38-4.28,3-6.85,4,2.21-2.91,1.33-1,2.93-2.41,5-4.44,4-9.46-1.33-6.78a4.45,4.45,0,0,0-2.63,2.85c-1.48,5,.43,5.45-2.5,8a8.17,8.17,0,0,1-3.34,1.8c.15-1.46.66-3,.06-4.35Z"/><path class="cls-1" d="M28.22,66.57c.42-1,.68-.6,1.31-1.46.33-.46.66-1.18,1-1.62C30.44,65.13,29.83,66.3,28.22,66.57Zm9.66-9.7L39,59.43a11.53,11.53,0,0,1-1.12.79c-1.46-1-1.1-2.36,0-3.35Zm-8.77,1.46c.12-.45-.08-.18.23-.71s.19-.28.44-.48l.31.3Zm12.81.26c-.19-1.89-.33-3.36.86-4.63a6.84,6.84,0,0,1,.27,2.68A2.7,2.7,0,0,1,41.92,58.59ZM38.54,55.3,39,54.08c.61,1.13,1.7,2.71,0,3.79l-.55-1.44c.13,0,.23-.16.25-.11l.55-.14-.68-.88ZM40,54.74c.37-.62.14-.37.77-.83.9.25.8.05,1,.7Zm-.39-.59c-.81-2,2.3-3.66,2.66-.19-1.19-.25-.07-.09-.79-.28-1.51-.39-1.59.58-1.72.37C39.73,54,39.65,54.12,39.6,54.15Zm-6.12-7.6-.16-.14a2,2,0,0,0-1.11,0c-.76.14-.27-.12-.72.33,3.72-.26,7.62,4.34,7.76,5.15A1.18,1.18,0,0,1,38.86,53a5.66,5.66,0,0,0-2.26-1.24l2.13,1.34c-.28.63-.48,1-.7,1.47l-.05,1c-1,.34-1.22-.21-1.78.11l1.36.27-.66.86a2.14,2.14,0,0,1-1.27.41c-3.38.33-5.76-2.24-6.57-2.82l.37-.16.58-.93L29.88,53c-1.24.69-1.37,1.65-3.36,2.17-1.71.45-4.23-.91-4.23-.91s-.12,0-.17-.05l0,.17c.09.65-.09,0,.42.46s.38,0,.57.87A12.44,12.44,0,0,1,23,58.37l-.71.5c.23,1.89-.93,2.6-2.87,2.4,0,.56.14.43-.46.35l2,0a7.67,7.67,0,0,0,1.48-.82c.2-.21.38-.39.54-.53-.31-1.58.08-1.49,1.19-2.11s.78-1.3,1.59-1.49c-.22-.62.49-.55-.47-.45-.85.35-.14.91-1.63.93l0-1.62c.82.54,1.44.42,2.59.32a26.27,26.27,0,0,1,2.53-1.08c.22,1.28.37,2-.17,3-.76,1.41-.66,1.26-1.92,2l-.45.77,0,.1a.18.18,0,0,1-.06.08c-1.17,1.92-3.26,4.46.58,5.85l.07-.52c-.48,0-.09.17-.69,0-.93-.31-.27-.07-.65-.43A3.8,3.8,0,0,1,26.72,61c.05,0,.13-.15.16-.11l.81-.41a3.1,3.1,0,0,0,.8-.92l1.8-1.46c.82-.73.24-.06.56-.87-.58-.26-.68-.18-1.08-.83l2.41,1c-.69,1,.2-.19-1.72,1.1-.92.62-.64.83-1.5,1.34a1.8,1.8,0,0,0-.2.24l-.11.14a1.84,1.84,0,0,1-.1.16c.85.64.66.55,1.13,1.36.86,1-.41,4.3-2.32,4.21.22.51-.26,0,.47.76a2.71,2.71,0,0,0,3.06-2.5c.49-2.62-.77-2.76-1.08-4.51A3.73,3.73,0,0,1,32.15,58c.28-1.1-.12-.23.6-.64,2.64.49.54,1.12,3.16,2.25,0-1.09-.06-.74-.49-1.64l1.09-.34c-1,1.51.82,2.74,1.36,3.48a2.74,2.74,0,0,0,.36.17c.43.12-.07.21.21,0-.37-1.32-.15-.75.39-1.77.69-.09.2-.05,1.19.43-.49-2-.2-1.8.38-3.12a.84.84,0,0,1,.06-.14c0-.06.09-.33.12-.4l-.25.87c1.41,0,.83,0,1.2,1.54a2.89,2.89,0,0,0,.83,1.56l0-.14c0-1.27.64-2.13,1.15-3.36.09-1,.3-1.27-.15-2.15l0-.22c-.09-.2-.32-.73-.51-1.08a3.63,3.63,0,0,0-.69-1.14c.47-1.23,1.08-2.38,1.58-3.6h-.2c-.88.61-.54.8-1.18,1.37l-.6,1.71a2.41,2.41,0,0,0-1.37-.3l-.86.22c-.31-1.28-.45-.9-1.17-1.69a6.22,6.22,0,0,0-2.55-2.19L36,46.62l-.17-.24c-.36.34-.19-.07-.44.94l-1.87-.77Z"/><path class="cls-1" d="M22,17c1-.08,1.2.3,1.61.89l-.69.91-1-.45Zm-.8,1.13c-1.47-.47-.71-1.7-.1-3.84a4,4,0,0,1,2.27,1.33c.93.86,1.38.66.76,1.76-.82-.36-1.08-.91-2.36-.79-.1.27-.09.5-.21.84l-.25.53S21.23,18.1,21.18,18.15Zm-3-.19c-.15-3.48.71-4.94,1.64-7.54,2.74.41,5.35,3.33,6.05,5.69l-1,.45c-.77-.89-.61-1-1.65-1.71a3.9,3.9,0,0,0-2-1.06,6.26,6.26,0,0,0-1.07,4.1L18.18,18Zm-.93.25c-1.19.86-2.35,1.16-2.39,2.9,2.43,0,3.42-1.18,5.64.4,1.55,1.1,2.65,2.53.93,4.25-1-.58-.23-1.41-2-1.32-1.29.07-1.32.78-2,1.43-3.85-1.82-2.35-.52-5-1-1.9-.35-3.88-.25-5.13.84.5.91,1,.62,2.38,1.46,0,0,0-.36,1,.23l1,.54c0-1,.12-.64,1-.47h.2c-.84-1.07-3.07-1.26-4-1.75,1.93-1.12,3.16,0,5-.14,2.94-.23,2.65,1,4.33,1.56.6-1.33-.35-1.82,1.82-2.24.76.69.07.31.42.89a1.55,1.55,0,0,0,1.17.62c.87-.15,1.81-2.23,1.15-3.31-.15-.25-.22-.27-.41-.55a6.92,6.92,0,0,1-.55-.89,3.2,3.2,0,0,1,1.54,1.58c.5.8.19.51.45.4-1.51-3.82-4.47-4-8.13-3.18,1.68-3.65,7.78-.65,7.82-.64,1.68-5,7-3.05,6.59-.92-.84-.33.43-.52-1-.23-.79.16-1.94,1.51-2.31,2.09l.84-.13c-.15,1-.52.79-.57,2.57-.05,1.6.34,1.25.48,2.33l1.71.88-.94.57.19.16a2.62,2.62,0,0,0,1.85-1.42c-.41-1-.95-.84-.57-2a1.38,1.38,0,0,1,1.59-.92c1.6.25,1.4,2.06,2,3.3l.39-1-.33-.54L33.25,24l.06-.48-.1-.75L32,22.51c-.75-.65-1.94.09-2.32.56-.8,1-.37,1.68,0,2.7-1.76-.36-2.47-1.81-1.85-3.8a7.32,7.32,0,0,1,1.12-1.9c.59-.58,1.16-.55,1.84-1,.11-2.14-2-3.22-4.39-3.08A7.68,7.68,0,0,0,24,12.06c-.79-.81-2.46-2.25-4.29-2.17C17,12.68,18,18,17.25,18.21Z"/><path class="cls-1" d="M51.21,35l.17-.68c.82.21.35-.33.53.77l-.7-.09Zm-2.93-.47c.15-.67.06-.45.45-.77,1.07.36.35-.17.77.62-.36.22,0,.13-.57.23A6,6,0,0,1,48.28,34.55Zm-2.84-.32.11-.85c1.13,0,.75-.15.84.81l-1,0ZM17.52,37.51l.57.86,3-1.53c-.81-.43-.28-.35.2-.55l-.07.49,1.29-.35-.69-.29.94-.59-.18.89c1.11-.34.92.22,1.79-.57,0-1-.32-.31.29-1,.6.29.38-.24.37.68l1.3-.21c-.89-.12-.3.32-.71-.26.23-.54-.36-.61.41-.39.26.08.18.41.19.57l6-1c0-1.38-.19.59,0-.46.06-.34.43-.3.72-.31.31.44.33,0,0,.6,1,0,.65.18,1.54-.28l0-.68c1.46-.5,2.67-1.38,4.59-1.4s3.56.77,3.16,2.28l1,.19.53-1c-.57,1.3-.18.66.37,1L44,33.2l.87.24,0,.71.59.08,1.36.2c.12-.71-.14-.67.44-.76,1-.16.34.07.53.5-.46.36.72.49-.94.22.68.54.54.42,1.45.16.59.51.74.39,1.7.39.1-.87-.09-.55.42-1,0,0,.5,0,.19.66-.23.45.71.44-.68.31.08,0,.17,0,.22.11s.17.07.24.07a1.6,1.6,0,0,0,.84-.08l2.12.66.06-.82c.62.22.34-.15.57.72l-.5,0c.41.43-.07.24,1,.44-.09-1.1.46-1.22.67,0l-.24,0,2.93,1.49c.52.31.5.48,1.14.59l.52-1c-1-.31-2.37-1.72-4.55-2.46-4.86-1.63-11.06-1.79-11.6-2-1-.31-.85-1-2-1.35A7.89,7.89,0,0,0,38.11,31a6.15,6.15,0,0,0-3.25,1.21c-1.49,1.19-3.64.84-7.64,1.55-7.37,1.31-8.22,3.67-9.7,3.71Z"/><path class="cls-1" d="M16.2,59.88c-2.75-.14-2.94-2.74-1.4-4.14C16.18,57.12,16.15,57.51,16.2,59.88Zm3-8.26.44,4.9c-.85-.47-1.13-1.19-1.76-2H16.76l.43,3a13,13,0,0,1-2.88-3.75c-.79.37-.19-.3-.38.68.55.34.11-.53.49.45s0,.38-.16.55C13.11,56.6,13,59,11.64,60.34A4.46,4.46,0,0,1,6,60.76a1.14,1.14,0,0,0-.73-.22c-.81.14,0-.29-.55.34a5.57,5.57,0,0,1,2.29.8c1.72.76.82.23,2.43.3.7.86.4,1.19,1.38,2.08,1.58,1.44,2.52.78,4,.39,2.75-.73,1,.33,3.61-1.63V62c-1.08,2.32-2.48,1.68-4.07,2.27A3.36,3.36,0,0,1,10,62.14c.92-.83.93-.15,1.52-1.19,1,.4,1.65,1.34,3.3-.19l-1.16-.33a6.81,6.81,0,0,1-1-.31,5.44,5.44,0,0,1,.5-.93c2.82,1.58.57.69,2.79,1.23,1,.23.39.2,1.21.65a6.06,6.06,0,0,0,1.84.55c.6.08.46.21.46-.35a7.57,7.57,0,0,1-2.89-1.21l-.31-2.58c1.2.64.48.77,2.1,1.28-.28-1.28-.64-1.1-.87-3.12.61.49.85,1.63,1.48,2.83.49,1,1,2.12,2,2.52-.72-1.3-2-2.83-2.5-4.43,1.07.44.78.66,2.13,1.06-.24-1-.32-.63-.55-1.39l2.29,2.64.71-.5c-.87.2-.73.14-1.32-.62-1.43-1.83-1.79-2.34-1.76-4.44l2.2,1.08,0-.17c-.31-.55-.06-.39-.64-.67a6.35,6.35,0,0,1-.8-.85L20,52.05l-.06.16-.45-1.08-.28.49Z"/><path class="cls-1" d="M53.84,16.75c1-.54.59-.75,1.72-1,.44.83.29,1,.29,2l-1.3.55-.71-1.58Zm0,0-.59-.23c.29-1.14,2.12-2.34,3.41-2.63.19.92,1,2.95-.12,3.57-.74-1.14,0,.58-.25-.72a5,5,0,0,0-.09-.61,3.11,3.11,0,0,0-.46-.91,3.25,3.25,0,0,0-1.9,1.53Zm-2.63-1.38c1-1.7,4.36-4.93,7-5.17a10.1,10.1,0,0,1,1.15,6.92l-1.85.09c0-1.58,0-2.71-.93-3.87a7.05,7.05,0,0,0-3.63,2.74,2.74,2.74,0,0,1-1.7-.71Zm-4.54,3.55,1.26.37-.3-.61-.22-.33c-.18-1.29,1.81-2.29,3.47-2.08,1.94.24,2.47,1.5,3.18,2.74,1.65.18,2-1.11,4.2-1.16s2.53.85,3.67,1.19c.87.79.3.43.55-.07-.63-1-1.55-1.15-2.52-1.76.23-2.25,0-6.19-1.64-7.45-1.88-.44-5.67,2.89-6.49,3.75C49.7,15.76,52,15,49,15.89a2.82,2.82,0,0,0-2.32,3Z"/><path class="cls-1" d="M75.44,53.08c.52-.3-.45-.67.75-.34.25.87-.65,1.78-1.49,2.29a9.44,9.44,0,0,0-1.41.75c-.69.52-.25.42-1.21.63a7.76,7.76,0,0,0,1.06-3.58,2.61,2.61,0,0,1,1.15,1.37l-.2-.94c.92.31.18-.17.86.32l-.45-.52c0-.11-.09-.13-.13-.21l1.07.23Zm-2.72-1.49L71.4,50.21l1.27-.42c.83-.18,1-.3,1.79-.43,2.51-.62,4.74-1.53,6.92-2.07a11.68,11.68,0,0,1-1.61,2.16c-1.07,1-6,4.59-7,2.14ZM68,48.75c-.56.41.61-.44-.42.25-.16.1-.36.34-.39.29s-.15.1-.22.16c1.43,0,1.94-.7,3.07-.37,1.33.39.6.82.53,1.35.29,1,0,.22.51.9.33.44.16.33.63.67,1.55,1.11.31,3.74-.58,4.68-.69.73-2.72,2.42-4.27,2.15l-1.16-.47s-.16,0-.2-.06-.13,0-.2-.06c-1.25-.29-1.7-.62-1.79-1.87l-.19-.43c-1.07.64.13,2.16,2.5,2.88s3,.1,4.55-1c1.86-1.35,4.14-1.88,5.72-3.37a1.56,1.56,0,0,0,.43-2.18c3.28-1.49,5-4.45,5.51-4.93v-.49c-1.17-.13-4.93,1.57-6.69,1.9-7.62,1.41-2.31-.68-7.34,0Z"/><path class="cls-1" d="M64.35,53.44C63.24,54.57,64,55,62.18,55.3c-.61-.51-.5-.54-.86-1.19a6,6,0,0,1,3.75-2.75l1.15-.44c-.43.65-.5.65-.89,1.31A3.28,3.28,0,0,1,64.35,53.44ZM61,53.68c-1.53-1-2.71-.76-3.46-1.16,1-.34,6.57-3.52,9.26-2.07-4.64,1.76-1.74-.39-5.8,3.23ZM55.83,53c.27.66-.37.27.68.39a2.41,2.41,0,0,0,.82-.14c2.18-.37,3.29.46,4.19,2.21.55,1.75.07,2-.26,3.49l.14.4a2.33,2.33,0,0,1,.85-.46c-.15-.9.21-2,0-3.11,1.21-.14.59,0,1,.19l.19.43c.33-2.11,1.79-3.31,3.23-4.46.61-.49.81-.88,1.4-1.14.69-1.12-.36.49.16-.55L68,50.13c-2.82-.4-4.27-.72-7,.32a26.24,26.24,0,0,0-2.69,1.16A13,13,0,0,1,55.83,53Z"/><path class="cls-1" d="M19.1,45.53c-1,1,0,4.55.35,5.6l.45,1.08A35.6,35.6,0,0,0,25,51.13a.33.33,0,0,0-.14-.06L24.34,51l-1.15.12,1.12-1c-.38.07-.93.45-1.47.14C23.75,49.93,24,50,24.53,49a9.78,9.78,0,0,0-3.35,1.64c-.87.62,0,.19-.91.66a10.16,10.16,0,0,1,1.94-2c2.24-1.65.59-1.39,2-1.65l-.33-.2a.66.66,0,0,0-.15-.05c-.61-.07-1.75,1.27-2.38,1.78-.4.33-.63.56-1.05,1,1.08-3.12,2.64-3.07,3.39-5-1.71.46-2.95,3.45-4.09,4.64l1-3.15c-1.75,1-.82.57-1.07,2-.13.71-.1.46-.34.82,0-.87-.11-1.14-.15-2,0-.73.09-1.38,0-1.94Z"/><path class="cls-1" d="M46.67,18.92c.18.92.22.33,1.41.71a1.85,1.85,0,0,1,1.2.9,4.25,4.25,0,0,1,.26,3c.37.26.72-.28.17,1.09l-.78,1.11c.78-.08.62-.25.54.46.69-.29.12.05.72-.41s-.16,0,.7-.59l1,.07c-.63-.31-.75-.24-1.64-.17.64-1.48,1.94-2,1-4.5-.68-1.8-1.72-2-3.87-2.2l.22.33.3.61Z"/><path class="cls-1" d="M61.93,19c-.69,1.11-.16,0-3.44.45a7.3,7.3,0,0,0-3,1.07,5,5,0,0,0-2.15,1.92c-1.24,2,.12,2.58-.76,2.93l1,.95c.31-.17-.71-.45.8,0-1-1.6.66.09-.54-.62-.26-1.34.13-.17-.58-1.22a24.32,24.32,0,0,1,1-2.22c.43-.71,1.29-1.47,1.41.16l.28-.31c.61-.74.37-.69,1.2-1.14l1-.43c.68-.06-.09-.21.41.12a8.94,8.94,0,0,1,4.57-.09c-.12-1.05,0-1-.62-1.66-.25.5.32.86-.55.07Z"/><path class="cls-1" d="M43,26.75c-.88-.12-1.33-.17-1.58-1.2A1.78,1.78,0,0,1,43,26.75Zm-1.65-2.63a1.89,1.89,0,0,1,1.85,1.77c-.52-.26,0,0-.53-.36C41.39,24.62,41.44,25.27,41.38,24.12Zm.23-1.07c1.06,0-.07-.19,2,1.28-.38-1.45-.63-1-1.58-1.87l.5-.83c.75.22.45.07,1,.63,1.46,1.53.58.91,0,2.75l-.65-.55c-.18-.16-.31-.3-.5-.45-.85-.7-.64.07-.76-1Zm-.79,4.49c.34.58-.17.16.74.82.51-.4.17.15.4-.71l-.05-.75c.81.25.58,0,.8.76l-.73,0,0,.87c.12.48.45,0,.5,1.12,1.58.26.13.11.77-.29-.44-.21-.69.12-.21-1.61L44.72,23l-.45-1.19-.21.65c-.3-.41-.43-.48-.68-.81-.46-.59-.23.11-.3-.79l.87-.1c-.33-.31.64-.19-.54-.32-1,.39-.89.44-1.45,1.24-1.92,2.73-.82,4.25-.76,5,.14,1.57.3.53-.38.8Z"/><path class="cls-1" d="M41.87,18.18c.55.27.16.17.85.13.71-1.86,1-1.74,1-4.12-.23.64.73,2-.83,4.25-.41.59-1.87.7-2.21,4.06.42-.59.89-1.5,1.34-2.15.67-1,3.51-3.25,2.43-6.45-.35-1-.68-1-.85-1.17-.85,1.24.84-.66-2.37-.22.39.8-.11.08.44.49A5.44,5.44,0,0,1,43,14l-1.2-.68c.55.89,2.1.89,0,4.88Z"/><path class="cls-1" d="M23.24,67.55c-1.58-.26-.94-.49-1.35-1.54l1.17-.25A3,3,0,0,1,23.24,67.55Zm1.39,4.06.07-1a4.66,4.66,0,0,0-.31.51c-.39.55.11,0-.34.39l-.07.86c-1.15.59-2.43.5-2.52-.55-1-.75-.75-1-.77-2.23.09-.38-.05-.1.19-.37L21,69.1l.14-.12.16-.11c-.81-.52-.32.09-.45-.67,1.17-.27.44.19.49-.57,1.35.63.17.7,1.32.58a1.85,1.85,0,0,1,.79,0l.75.34.22.11-.75.59a1.82,1.82,0,0,1,1,.4l0-1.13c-.32-2-1.36-2.67-1.83-3.65-2.54.54-2.87,4.47-2.59,5.81.56,2.67,3.69,3.59,4.37,1Z"/><path class="cls-1" d="M34.23,27.27c0-.71-.38-.31.33-.81l.63-.25C35.51,27.11,35.36,27.15,34.23,27.27Zm-.31-1.15c.09-.52.09-.68.59-.86,1-.38,1,.06,1.14.2-.4.77-.81.47-1.73.66Zm-.11-5,.82.85-1.42.73ZM32,22.51l1.22.25.1.75A2.23,2.23,0,0,1,35,22.31l.51.93c-1,.25-1.66.63-2.25.75l.23.61c.68-.43,2-1.59,2.32-.06l-2,.6-.39,1L34,28.89l-1.18.6,1.89-.13.7-1s-.29-.22-.29-.22L34.28,28c1.36-1,.25.95,1.26-.54s.38-4.62.25-5.39l-.36-.24c-.88-.62-.53-.2-.8-.76l-.56-.5c-.36.63.71.39-.51.55l-.43-.67a2.85,2.85,0,0,1-.25,1.3c-.41.92.06.73-.89.78Z"/><path class="cls-1" d="M68.09,50.77A17.06,17.06,0,0,1,66.92,53a18.92,18.92,0,0,0-1.41,2.3c0-.05,1.66-2.08,1.93-2.37.77.15,1.11-.89,1.37-2,.11.14.18-.11.15.59l-.64,2.78c-.37,1.89-1.07,1.82-1.56,3l-.16-1.16c-.65.73-.82,1.49-1.35,2.05.07,0,.17,0,.2.06s.16.05.2.06l1.16.47c-.2-1.43,1.35-2.53,1.92-4.58l.35-1.1a1.74,1.74,0,0,1,.11-.18l.26-.37c0,1.6-.65,3.62-.39,4.12,1.12-2.13.76-4,1-6.27-1.16-.46,0,0-.58,0-.9,0,.43.43-.45-.12-.36-.22-.22-.92-1-.23l.23.09c-.52,1,.53-.57-.16.55Z"/><path class="cls-1" d="M34.63,21.05c.27.56-.08.14.8.76l.36.24c-.72-2.09-3.72-5.77-2.25-8.64.37-.72.09-.43,1.05-.89a6,6,0,0,0-.35,6.19c.6,1,.14.31.87.79-.75-3.24-2.23-3.08-.46-6.48.12.52-.23,1-.22,2,0-.05.08-.2.1-.17s.08-.12.1-.16l.72-.73,1.16-.85c-1.22-1.47-.63-1.08-1.33-1.53.47.69.17.16,0,.39-2.59.13-2.4,2.28-2.3,4.35C32.94,17.71,34.64,20.93,34.63,21.05Z"/><path class="cls-1" d="M42.24,52.21a3.63,3.63,0,0,1,.69,1.14c.19.35.42.88.51,1.08.89-.09,1.22-.3,2.11-.4l1.09-.11a1.84,1.84,0,0,0,.61-.18,1.76,1.76,0,0,0,.6-.39,5.72,5.72,0,0,0-2.61.15,20.09,20.09,0,0,1,4.65-1.91c-.4-.23-.84-.16-1.61.08a4.88,4.88,0,0,0-1.44.64c-2.86-.69,2-.8-.86-.45-1.41.7-1.66.52-2.77,1.51l1.24-1.57c.69-1.19,1.47-1.1,2.93-2.48a8,8,0,0,0-2.65,1.57l-1.28.55c-.48.08-.15-.07-.57.23-2,1.44.76-.06-.64.54Z"/><path class="cls-1" d="M40.47,51.4a2.41,2.41,0,0,1,1.37.3l.6-1.71c-.53,0-.06,0-.48-.64l-.3,1.22a17.07,17.07,0,0,0-.16-3.11c-.42-3-.24-1.69.3-2.56l.55,2.27c.51-.7-.15-2.11.19-2.68-.59-1.45-1.29-2.15-3.43-2a3.66,3.66,0,0,1,.27,1.65l.5,1.58c0-.85-.12-2.63.21-3,.54.79-.08-.52.17.51l.46,1.4a9.65,9.65,0,0,1,.19,5.24l-.29.49C40.32,51.06,40.34,50.21,40.47,51.4Z"/><path class="cls-1" d="M57.85,55.82a1.32,1.32,0,0,1-.08.82c.67-.5.73-.48.89-1.25.28.39.33-.3.24.89l.28.68c0-.09.06-.11.1-.17l-.43,2.68A11.71,11.71,0,0,0,60,55.26c-.3.11-.42-.06-.13.48s.23.34.82.66l-.2-1.6c-.2.41-.1-.22.1.52a9.85,9.85,0,0,1,.12,2.39,2,2,0,0,0,.28-.56,6.85,6.85,0,0,1,.56-1.72c-.9-1.75-2-2.58-4.19-2.21a2.41,2.41,0,0,1-.82.14c-1-.12-.41.27-.68-.39-.95.43-.34.07-.56.55,1.65.41,2.33-.39,3.5,1-.34.48-.56.42-.92,1.25Z"/><path class="cls-1" d="M19.46,30.66c-1.18-1.32-.61-3.57,1.16-2.91C21.62,28.13,22.21,31.14,19.46,30.66Zm.61-3.6c1.24-.66,2.11.71,2.26,1.65a2.21,2.21,0,0,1-1.85,2.81l.67-.59c1-.79,1.55-2.84-1.08-3.87Zm-.36-.54c-.61,1-1.53,1.39-1.45,2.83A3.09,3.09,0,0,0,20,31.93a2.6,2.6,0,0,0,2.65-3.78c-.24-.58-.14-.84-1-1.3-.56-.32-1-.31-1.24-.59l-.69.26Z"/><path class="cls-1" d="M3.29,51.06c-.27.22-.17.08-.42.39a1.47,1.47,0,0,0-.25.48,14.1,14.1,0,0,1,5.23.53c.94.21,1.82.33,2.77.54,1.11.25,1.4,0,2,.41l.78-.21c-.3-.6,0-.57-.61-1-.36,0-4.38-1.78-6-2a6.24,6.24,0,0,0,2,1.25,10.14,10.14,0,0,0,2.52,1c-3.81,0-3.24-1-7.07-1.28l-.55,0C3.09,51.1,3.93,51.55,3.29,51.06Z"/><path class="cls-1" d="M8.06,47.46a1.45,1.45,0,0,0,.19.12c.05,0,.15.18.19.13s.14.08.2.14l0-3.64,1.27,1.22c-.26-.58,0-.25-.47-.77,0,0-.34-.37-.36-.39-.64-.75-.29-1.38.23-2l1.34,2c-.84-2-1.65-1-1.3-3.77l.19-.37c.34-1.21.79-1.24,1.54-1.84a6.11,6.11,0,0,1,3.69,1.33L15,39.4s-.12-.18-.14-.13l-.41-.38c-1.82-1.59-4.25-1.9-5.37,1a24.13,24.13,0,0,0-1,7.6Z"/><path class="cls-1" d="M13.38,47.14c1.81-1,1.18-.63,3.12,0a3.69,3.69,0,0,0-1.07-2L15,44.37a2,2,0,0,0-.34-.45,1.86,1.86,0,0,0-.47-.4c.39,2.51-.09.88.81,2.89L14,44.3c-.29-.47-.13-.36-.54-.62-.61,1.5.47,0-.07,2a2,2,0,0,0-.62-1.37c-.36-.47-.61-.84-.86-1.12,1.15,2.06-1.15-.5.57,2.94A1.93,1.93,0,0,0,13.38,47.14Z"/><path class="cls-1" d="M50.37,26.52c1.89-1.4,3.77-.05,2.8,1.76C52.56,29.41,50,29.52,50.37,26.52Zm1.2,3a2.11,2.11,0,0,1-2.26-1.61,1.92,1.92,0,0,1,1.39-2.23S48.28,28.48,51.57,29.5Zm-2.1-3.35-.72,1c.18,4.07,5.78,3.6,5.08-.52l-.3-.3-1-.95-.64-.19-1-.07c-.86.56-.17.19-.7.59s0,.12-.72.41Z"/><path class="cls-1" d="M57.9,29.92c-2.29,0-2.74-2.26-.63-2.57A1.55,1.55,0,0,1,57.9,29.92Zm-.22.87c-2.42-.05-4-2.57-1.87-3.47-1,2.31.3,2.42,1.37,3.05.53.31.15.08.5.42Zm-2.57-3.54c-.52.14-.24-.22-.59.45-1,1.92,2,4.1,3.31,3.47.83-.43,2.28-3.87-.45-4.19-1-.23-.89-.3-1.89.1Z"/><path class="cls-1" d="M53.51,67.4c-.39-1.15-.58-.38-.75-1.39,1.17.26.36.32,1.7.17l-.57,1.28c-.78,1.53-1.13,0-1.39-.74l.66.47c.05,0,.15.16.18.11s.12.07.17.1Zm-.57-3.7a3.6,3.6,0,0,1-.65,1.21c-.15,1.69-.9,3.25,1.23,3.53,1.95-1.16,1.63-3.55.31-4.93Z"/><path class="cls-1" d="M26.72,61a5,5,0,0,0-1.09,2.49c.91-.49.54-.35,1.5-1.74l.58-.83c-1.09,2.4-.45,2.38-.64,3.53-1.27.85,1.07-.57-.42.18-.63.31,0,0-.49.53s.21.11-.63.46c.38.36-.28.12.65.43.6.21.21,0,.69,0l-.07.52,1,.07c-.73-.76-.25-.25-.47-.76-.58-.1-.25-.34-.18-1.05.18-1.84-.23-1.29.56-3,.42-.92.05-.54.82-1l-.18,1.37a.92.92,0,0,0,.17.52c.19-.29.18.06.35-.79.2-1,.07-.25,0-.56.23,1.67-.31,1.25.43,2l.4-1.66c-.47-.81-.28-.72-1.13-1.36a1.84,1.84,0,0,0,.1-.16l.11-.14a1.8,1.8,0,0,1,.2-.24c-1,0-.26.07-.47-.25a3.1,3.1,0,0,1-.8.92l-.81.41S26.77,60.91,26.72,61Z"/><path class="cls-1" d="M17.51,51.82c-1.22-.42-1.41,0-2.44.15l.65-1.3C17,50.51,17.23,50.79,17.51,51.82Zm-3.23.1,0,.1c.35.52.91.6,1.31,1.1.67.83.16.6,1.14,1.4h1.09a9.25,9.25,0,0,1-.34-2.69c.43-.22,0,.22.33-.36a.61.61,0,0,0,0-.19.73.73,0,0,0,0-.22l-.13-.24c-.7-.57-1.15-1-2.12-.53-.66.31-.4.13-.7.72C14.37,52.05,15.26,51.33,14.28,51.92Z"/><path class="cls-1" d="M20.69,69.59c0,1.2-.21,1.48.77,2.23-.6-.77-.16-.52.81-.61-.42.57-.39-.07-.25.57.25,1.21.37.5.69.64.65-1.44-1.35.24,0-1,.57-.53.32-.07,1.34.11.45-.38-.05.16.34-.39a5.85,5.85,0,0,1,.31-.51l-.07,1,.05-3.11,0,1.13a1.82,1.82,0,0,0-1-.4l0,.55a1.79,1.79,0,0,1-1,.34c-.17-.62.82-.52-.25-1.53-.45.59-.13-.36,0,1.09-.91-1-1.26-.43-1.78-.09Z"/><path class="cls-1" d="M20,52.05l.72.65a6.35,6.35,0,0,0,.8.85c2,.84,1.78.15,2,.07.86-.27.45-.11,1.17,0,1.27.1.9,0,1.13-.14-.56-.16-1.23-.28-1.82-.42l-1.47-.46c0-.08-.13-.06-.18-.1,2.7-.58,4.16-.05,6.71.06a1.49,1.49,0,0,0-.47-.25l-4-.57c-1.62,0-2.88.38-4.66.36Z"/><path class="cls-1" d="M74.46,49.36c-.78.13-1,.25-1.79.43l-1.27.42,1.32,1.38-.22.09c1.18.15,2.24.51,3.16-.19l-1.26-.17a1,1,0,0,1,.18-.09l.67-.43-2.11-.21c.89-.72,3.46-.13,4-1.45C76.93,49.21,74.23,50,74.46,49.36Z"/><path class="cls-1" d="M26.65,38.07c.85-1.19.84-1.13,2.58-1.4,1.26-.21,2.08,0,2.62.94-.41,1.06-1,1.28-2.3,1.47C27.72,39.34,27.48,39.24,26.65,38.07Zm.55,1.33c1.71.37,4.1.13,5-1.33,0-2.21-1.68-2-3.88-1.83C24.73,38,26.61,38.52,27.2,39.4Z"/><path class="cls-1" d="M45.58,37.61c1-2,4.67-1.08,4.76.25C50.45,39.38,46.4,39.62,45.58,37.61Zm5.25.33,0-.21c-.68-2.34-5.79-2.47-5.6.34a3.15,3.15,0,0,0,3,1.35C49.78,39.42,50.49,39.12,50.83,37.94Z"/><path class="cls-1" d="M43.4,54.65c.45.88.24,1.13.15,2.15l.32.06c-.13-.81-.32-.63.56-.55l1.89.23c-.28-.46-1.33-.67-1.8-.82L47,56c-.55-.7-.64-.63-2.17-1a4.78,4.78,0,0,0,2-.44A10.33,10.33,0,0,0,43.4,54.65Z"/><path class="cls-1" d="M14.26,55.49c.14-.17.5.34.16-.55s.06-.11-.49-.45c0,.35.16.07-.27.38-1.27.93-.87.17-1.79,1.57a8.92,8.92,0,0,1-2.06,1.91l1-.64L10.34,59c2.42-1.06,2.08-2.61,3.33-3.48s.4-.2.59,0Z"/><path class="cls-1" d="M50.8,37.73l0,.21c.35-.24,1.48-.74,1.61-1.11a3.15,3.15,0,0,0-.86,1.29,2.65,2.65,0,0,0,1.06-.48l1.2-.55s0,.1,0,.12l0,.21c.74-.6.24.24.71-.62.16-.25-.9-.32-1.19-.39s-1-.36-1.59-.53a6.13,6.13,0,0,1-.44.78c0,.11-.19.49-.2.5C51,37.61,51.12,37.39,50.8,37.73Z"/><path class="cls-1" d="M46.47,37.23l-.31.64c1.54-.49,1.69.21,2.27.74,1.06-.09,1-.09,1.64-.77-.76-1-.34-.83-1.74-.85l-1.86.24Z"/><path class="cls-1" d="M71.66,52c-.47-.34-.3-.23-.63-.67-.52-.68-.22.1-.51-.9-.1.2-.1.07-.14.49l-.31,4.75a9.15,9.15,0,0,0,.71-3.89,6.19,6.19,0,0,1,.27,1.65c0,.11-.07.69-.07.7.08.75,0,.39.39.84Z"/><path class="cls-1" d="M53.79,25.76c1.2.71-.5-1,.54.62-1.51-.47-.49-.19-.8,0l.3.3c.09,0-.22-.35.57-.11,1.52.48.29-.1.71.7l.38-.17c1-.4.88-.33,1.89-.1-.47-.52-.43-.34-1.36-.45.85-.43.49,0,1-1-1.34.22-1.06.2-1.93-.52.12.64.2.26,0,.55Z"/><path class="cls-1" d="M23.05,60.23c-.16.14-.34.32-.54.53a5.43,5.43,0,0,0,1.86.32c.77-.08.85-.48,1.85-.37a.18.18,0,0,0,.06-.08l0-.1.45-.77-.47.1a1.79,1.79,0,0,0-.62-1.19c-.1.93-.45-.06-.3,1.43l-1.69.4-.65-.27Z"/><path class="cls-1" d="M29.73,37.84s-.09,0-.1.1l-.27.5c2.25.58,2-.77,2.11-1.29a8.15,8.15,0,0,0-2.37-.36c.17,1.21-.54.54.63,1.05Z"/><path class="cls-1" d="M38.69,37c-1,.14,0,.24-1.21,0l-.29.93c.6.53-.21.32,1,.3l-.11.8c1-.44.32-.28,1.24-.08,0-.47-.29-.44.26-1l.38-.23c-.07,0-.17-.17-.2-.1s-.15-.07-.19-.06c-.53.09-.18-.07-.46.34C39.17,36.91,39.36,37.3,38.69,37Z"/><path class="cls-1" d="M45.24,34.93c-.67-.36-1.73-.16-2.7-.3a4.13,4.13,0,0,1-.57,1.1c-.57.77-.26-.08-.62,1.14,1.34-.32.65-.63,1.82-1.33-.28.84-.16.45-.61,1.1.92-.65.81-1.49,2.68-1.71Z"/><path class="cls-1" d="M34.16,37.42l.92.24c0,.87,0,.73-.64,1C33.63,38.32,33.61,38.08,34.16,37.42Zm-1,.95c.77.53.68.72,1.88.67.56-.73.53-.45.56-1.47C34.36,36.48,33.6,36.66,33.19,38.37Z"/><path class="cls-1" d="M43.44,38.63c-.86.14-.51.23-1.14-.13-.24-.77.18-.9,1-.91Zm-1.74-.79c.09,2.47,3.45,1.34,1.62-.87C42.19,37.07,42.25,37,41.7,37.84Z"/><path class="cls-1" d="M34.36,35.76c.5.23.43-.68.4.53.53-.56.72-.48,1.89-.56l-.14-.3c.59-.38.48-.34.73-1.08l-1.28,0s-.29.3-.4.39a1.83,1.83,0,0,1-.42.28C34.29,35.58,34.83,34.89,34.36,35.76Z"/><path class="cls-1" d="M37.48,36.92c1.17.27.21.17,1.21,0-.14-.68,0-.06.17-.34a2,2,0,0,0,.36.26l.62.05c.42-.74.37-.32,0-.92-1.12-.25.64.14-.92.18-.29-.55,0-.54-.56-1.26a13.2,13.2,0,0,0-.9,1.08c.06,0,.17,0,.21.09.19.58.26-.29.69.62-.66.2-.2.18-1.09-.1l.2.31Z"/><path class="cls-1" d="M53.66,39.52c-1.84.83-2.2-1.22-.08-.94Zm-2-.31c.59,1.38,1.93,1.23,2.58,0A1.71,1.71,0,0,0,53.35,38,2,2,0,0,0,51.65,39.21Z"/><path class="cls-1" d="M34.36,35.76c.47-.87-.07-.18.78-.7a1.83,1.83,0,0,0,.42-.28c.11-.09.39-.39.4-.39-.6,0-.9.13-1.37.19-.79.12-.5-.23-.94.2l.23.08c-.56.85-.9,1.38-.42,2.1.34-.79.31-.5.9-1.2Z"/><path class="cls-1" d="M64.35,53.44a3.28,3.28,0,0,0,1-1.21c.39-.66.46-.66.89-1.31l-1.15.44-1.26,1.48.42.47Z"/><path class="cls-1" d="M52.28,52.9c.72-.91.55-1,.37-2.06-1.08.31-1.3.15-1.77.74,1,0,.9-.25,1.7.24-.51.74-.8.6-1.77.81C51.79,53.6,51.49,52.83,52.28,52.9Z"/><path class="cls-1" d="M30,53.35l-.58.93c1,.07.74.67,2,.39A2.42,2.42,0,0,1,30,53.35a10,10,0,0,0,1.5.76c-.53-.79-.38-.6-1.18-.88l.21-.69c-.51.4-.31.05-.55.81Z"/><path class="cls-1" d="M44.79,59.41l.36-.49.2.87c.26-.74.37-.63.67-1.06s.21,0,.21-.95l-1.12-.4a2,2,0,0,1-.32,2Z"/><path class="cls-1" d="M21.21,38.81a2.77,2.77,0,0,1,.45-.76,5,5,0,0,1,.49-.63,10,10,0,0,0-1.75.65l.26.24Z"/><path class="cls-1" d="M22.65,65.77c.71-.19.82-.13.5-.88C22.27,65,22.25,65,22.65,65.77Z"/><path class="cls-1" d="M46.53,26.75a4.56,4.56,0,0,0-.34-.79c-.35-.57-.25-.31-.46-.49C45.44,26.25,45.87,26.44,46.53,26.75Z"/><path class="cls-1" d="M23.39,69.62c.69-.9.05-.57,0-.66C22.85,69.39,22.78,69.3,23.39,69.62Z"/><path class="cls-1" d="M23.15,67.68c0-.05.1-.18.1-.14s.24-.07-.1-.61c-.52.52-.38-.9-.24.29C23,67.8,22.76,67.34,23.15,67.68Z"/><path class="cls-1" d="M21.05,36.84l.13-.06.07-.49C20.77,36.49,20.24,36.41,21.05,36.84Z"/><path class="cls-1" d="M49.51,44l2.1.53c.41.14.12,0,.6.17l.65.41c1.31,1.23-1-.18.3.31.13.05,2,.28,1.05,1.27a5.11,5.11,0,0,1-2.09.56,2.27,2.27,0,0,0-1.34-1c-1.3-.36-1-.12-2.35,0a9.09,9.09,0,0,1-2.23-.07c-.85-.16-.39-.36-.43.2l-1.51.37L44,45.51c-1-1.84.22-.6-.78-1.42L41.71,43l.93-.32.17,0c2.55.19,1.91-.42,2,.8.5-.52,1.15-.71,1.52-.14l.11.27c1-.44.35-.37,1.57-.16,1,.16,1.05,0,1.47.46ZM30,40.37a42.55,42.55,0,0,1,8.11-.43c2.62.06,6.18.62,8.52.5a2.43,2.43,0,0,1,1.71.45c3.56.12,8.72,2.75,7.69,4.73-.74-.63-.25-.82-2.77-1.76a39.39,39.39,0,0,0-12.16-2.19,82.32,82.32,0,0,0-9.53.36l-1.77.12c-1.28.82-1.88.44-3.08-.35-.37-.24-.36-.27-.77-.52.92-.62,2.77-.76,4.05-.91ZM56,43c-.06-1.83,1.38-4.4,2.82-4.06C59.61,39.44,58.84,42.93,56,43ZM17.37,40.59c.15-2.87,2.92-.5,2.95.46l-.67,1.11c-.38.39,0,.07-.43.34C18.26,41.05,18.12,41.58,17.37,40.59Zm7.76-.67a2,2,0,0,1-1.65-.06C23.46,38.7,24.87,38.23,25.13,39.92Zm-6.21-1.43a2.21,2.21,0,0,1,2.42,1.31c.33.77.18.55-.18,1-1.21-.26.09-.14-1.66-1.6-.76-.63-.29-.38-.58-.69ZM55.4,42.75l-.74-.51c-.06-1.68,1.39-4.1,3.34-4.15-.23.72-.12.37-.74.88a5.38,5.38,0,0,0-1.86,3.78ZM37.88,39.33c-.85-.8-1.5-1.15-1-2.92.95-3.58,4-1.63,3.65,1.13C40.26,39.18,39.6,39.32,37.88,39.33Zm-1.37-3.9c-.12,2.87-.74.37.26,3.86-5.08.07-7.75.79-9.86.81a3,3,0,0,1-2.49.61c.71-.38.84-.29,1.27-1-.88-1.93-1.5-1.39-2.73-.64-.15,1-.16.55.28,1.37-1.84-.12-.85-.45-2-1.59l-.55-.5-.26-.24a10,10,0,0,1,1.75-.65l2.77-1c-.28.85-.52.7-.69,1.53,1.32-.86.15-1.32,2.12-1.95a32.43,32.43,0,0,1,3.43-.8c1.7.19.72-.36,1,.61,1.23-.94.83-1.14,2.89-1.06.44-.43.15-.08.94-.2.47-.06.77-.15,1.37-.19l1.28,0c-.25.74-.14.7-.73,1.08Zm6-.8c1,.14,2-.06,2.7.3,1.83.46,4.37.63,6.59,1,.55.17,1.21.42,1.59.53s1.35.14,1.19.39a20.27,20.27,0,0,1,2.39.8c-1.11,1.23-2.68,2.07-2.78,4.28A18.64,18.64,0,0,0,50,40.4L48.49,40l-8.26-.69c1.37-2.42,1-3.36-.08-4.9C41.07,34.46,41.57,34.59,42.54,34.63ZM17,35.75a2.67,2.67,0,0,1-1.47-1.35c-1.77-2.72,2.64-2.67,2.69.49Zm4.58-2.88c0,.65.17.56-.42.85-.31.16-.53.21-.74,0S20.21,32.54,21.59,32.87ZM62,32.05c.89,1.64-2,3.54-3,2.57S60.37,31.82,62,32.05Zm-5.72,1.2c.09-.93-.41-.58.7-.69C56.74,33.5,57,33.07,56.29,33.25Zm-14,.73a24.73,24.73,0,0,0-4.15-.32c-1,0-3,.22-3.58.12-.89.46-.49.25-1.54.28l-.77.17-6,1,.11.08-1.3.21-.66.31c-.87.79-.68.23-1.79.57h-.07l-1.29.35-.13.06-3,1.53-.57-.86c0-1.62,1.2-2.12,2.63-2.69C23.31,33.54,31,31.36,34,32.3a6,6,0,0,1,6.35-2c1.44.36,2.06,1.17,2.9,1.38,1.4.34,15.5-.24,16.31,5.47l-.52,1c-.64-.11-.62-.28-1.14-.59L54.92,36l-.43,0c-1.1-.2-.62,0-1-.44l-.13.13L51.21,35a1.6,1.6,0,0,1-.84.08c-.07,0-.18,0-.24-.07s-.14-.07-.22-.11l.07,0c-1,0-1.11.12-1.7-.39-.91.26-.77.38-1.45-.16l0,0-1.36-.2-.59-.08-.68-.06c-.55-.29-.94.35-.37-1l-.53,1Zm-19.94-.87c0-.49.17-1.5.86-.85S22.79,33.05,22.33,33.11Zm32.55-.77c.53-.44.08-.32.87-.19C55.42,32.9,55.33,32.84,54.88,32.34Zm-30.5-.89c1.54.06,1.24,1.12-.37,1.16Zm28.93.43c.21-.13,0-.64.93,0C53.9,32.36,53.86,32.6,53.31,31.88Zm-.64-.23c-.76.38-.56.47-1.14-.23.23-.12-.09-.57.67-.3S52.57,31.49,52.67,31.65ZM19,34.6c-.42-.47-.24-.45-.59-1-1.24-2-2.25-1.31-3.21-1.93,1-1.5,2.45-.43,3.19.35C20.25,34,20,34.11,19,34.6Zm38.39-1.12c1-2.09,4.13-4.17,5.26-2.29l-.3.2-.18.07c-2.2.64-1.92-.35-4,2.58Zm-7.2-1.87c-1,0-.74-.31-.84-.42.21-.22,0-1.2,1.64-.23C50.81,31.41,51.05,31.61,50.16,31.61Zm-22,.15c-.35-1,.08-1.4,1.11-1.46C29.67,31.25,29.43,31.81,28.17,31.76Zm2.35-.33c-.08-.11-.65-.27-.16-1C30.65,30,31,30,31.61,30c.19,1.05.19,1.89-1.09,1.46Zm16.84-1c.85-.35.44-.32,1.42,0,0,1-.6,1.05-1.52.76Zm-2.1.56c-.29-1.28.75-1,1.4-.66C46.53,31.17,46.26,31.34,45.26,31Zm-2-.17c-.79-1.82,2.13-1.06,1.1,0C43.6,31.55,43.22,30.79,43.21,30.79Zm-9.44-1c.42,1.09.14,1.74-1.05,1.62-.51-.72-.35-.58-.32-1.48Zm1.06.79c0-.94,3-4,3.61-6,.66.87.85,1.84,1.7,2.9a10.25,10.25,0,0,1,1.91,2.8c-2.38-.71-5.38-1.43-7.22.29ZM25,26c2.07-.6,2.25,2.92.68,3.42S23.05,26.57,25,26Zm36.7,4.18c.53-1.37,1.67-1.64,2.78-2.61.7-.6.32-.41,1.14-.57-.93,1.11-2.63,2.92-3.92,3.18ZM25,30a2.14,2.14,0,0,0,2-1.24c.58-1.19-.09-2.09-.41-3a2.21,2.21,0,0,1,1,3.09A1.83,1.83,0,0,1,25,30Zm12.63-15.6c.3-.69-.74-2.69-.75-4.34,0-5.39,3.77-4.11,3.58,0-.08,1.86-.83,3-.64,4.8,1.11-.48.14-.53,1.49-.94,2.93,1.51-1.89,6.1-2.68,9a13.71,13.71,0,0,1-1.19-2.36c-.41-.86-.75-1.26-1.21-2.1-.84-1.52-1.48-3.45-.07-4.68,1.32,0,.38.22,1.47.61Zm.14-13.09a2.31,2.31,0,0,0,.49-.77c.58.3.28.1.67.49l.39.56c.26.48.27.71.6,1.31,1.84,3.35,2.37,5.55,1.14,9-.34-.71.39-4.67-1.35-5.87-.73-.51-.16-.2-1.79-.28a.45.45,0,0,1-.12.12L36.52,7.66c-.41,1.19-.2,1.89-.65,2.51-.68-3.69-.24-6.07,1.9-8.82ZM37.26.91c-.16.48,0,.2-.39.68a8.13,8.13,0,0,0-.5.7c-.32.52-.63,1.29-.84,1.53-.61,3.35-.86,3.42-.24,6.87-.88.11-4.75-.76-4.54,4a10.73,10.73,0,0,0,2.38,5.75l.43.67c1.22-.16.15.08.51-.55a9.66,9.66,0,0,1-2.72-5.43c-.27-2.3,1.29-5.46,3.83-3.57.7.45.11.06,1.33,1.53l-1.16.85-.72.73s-.08.2-.1.16-.06.12-.1.17c.06,3,1.54,4.77,2.74,6.77,1.63,2.71-.48,4.84-1.79,6.58l-.7,1-1.89.13-.65.13c-3.72.16-.48,0-2.2.33-1.23.22.08-.43-1.5,0-1,.27-.24.5-1.29.44.15-.58.57-.62.88-1.48s-.14-1.05.52-1.78L28.36,27c-.45-.52,0,.07-.41-.48a2.83,2.83,0,0,1-.2-.28c-.33-.59-.15.06-.16-.69l-.76,0a10.61,10.61,0,0,1-.7-1.64,3,3,0,0,1,.43-1.63L26,22a4.92,4.92,0,0,0,.19,3.08l-1.47.33-.48.29c-1.3.84-.16.43-1,.81.32,1.37.26-.17.31,1.21,0,.6,0,.94,0,1.62.66,1,.33.62,1.48,1.23a1.76,1.76,0,0,1,.31.17l.28.2c-.79.19-.28-.32-1.47.23L21,32.33c-1,.28-.56.33-1.27.62-1.8-2.71-2.08-1.68-3.3-2.81-.77-.71-1.78-2.41-3.48-2.7h-.2c.55,1,1.55.57,2.93,2,.85.88.2,1,.12,1.11l-2.19-1.7-.15-.1s-.11-.07-.15-.11l-.14-.12-.26-.23c-.59-.49-.27-.5-1.14-.41l-1-.54c-1.06-.59-1-.25-1-.23a18.18,18.18,0,0,1,3.09,2.22c1.82,1.49,1.72.82,1.66,3.67-.05,2.21,1.36,2.13,2,3.19a11.13,11.13,0,0,1,.53,2.05c.41,1.31,0,.69-.41,2A3.08,3.08,0,0,1,15,39.4l-.15.25c.56,1.09,3,1.13,4.35,3.46-1.18,3.14-.78,2.92-.78,6.12-1.14-.6-1.26-.95-1.87-2.08-1.94-.64-1.31-1-3.12,0-1.33,1.79-.63,3.06-.6,4.12a38.7,38.7,0,0,0-4.14-3.41c-.06-.06-.16-.19-.2-.14s-.14-.1-.19-.13a1.45,1.45,0,0,1-.19-.12c-3.91-.16-3.56,1-5.31,3.44C1.82,52.19-1,54.08.37,57.28c1,2.31,2.07,1.81,3.13,3.07,1.63.18.48.18.91-.38A4.68,4.68,0,0,1,.54,56.64a4.22,4.22,0,0,1,.21-2.76,8,8,0,0,1,.84-1.1c.56-.71.08-.51,1-.85a1.47,1.47,0,0,1,.25-.48c.25-.31.15-.17.42-.39.36-1.59,2.52-4.27,5-3A14.86,14.86,0,0,1,10.61,50c1.28,1,1.23,1.41,2.15,2.23.62.41.31.38.61,1l-.78.21,1.59.41-.61-1.77.74,0,0-.1c-.51-.67-1.19-1.16-1.18-2.38,0-1,.3-2,1.15-2.35a2.24,2.24,0,0,1,2.32.92c1.3,1.81,1.21,1.47,1.16,2.7l.13.24.53-.9a1,1,0,0,1,.09-.17c.26.55.45,1.17.69,1.64l.28-.49c-.36-1.05-1.37-4.57-.35-5.6-.08-1.4,1-5.3,4.53-4.47A12.86,12.86,0,0,1,27,42.49c1.38.61,2.51.67,3,2.16a9.66,9.66,0,0,1,.64,4.2c0,1.84-.72,3-.8,4.16l.13.34c.24-.76,0-.41.55-.81l.58-1.16c-.13-1,0-4,.35-4.65.45-.45,0-.19.72-.33a2,2,0,0,1,1.11,0c-1.13-.48-1.42-.16-2.26.13a1.92,1.92,0,0,0,0-1.42S31,45,31,45l-.09-.14L30.3,44c1-.46,2.31-.34,2.91-.77-1,.14-2.19.49-3.08.11.65-.11.92-.29,1.69-.39s1.47-.18,1.87-.23a23.5,23.5,0,0,1,4.38-.17l-1,1.57c-.52.76-.45,1-1,1.25a4.34,4.34,0,0,0-.17.4c-.09.42-.07,0-.06.58l.17.24a12.45,12.45,0,0,1,1.35-2.2,17.48,17.48,0,0,1,1.8-1.92c2.14-.17,2.84.54,3.43,2,.69.36,1.48,2.14,1.77,3a4.63,4.63,0,0,1-.41.57c-.33.54-.15,0-.28.58h.2c.8-.24,1.54-1.82,4.36-2,2.47-.16,4.14.28,4.38,2.39H53l-.17-1.36a8.1,8.1,0,0,0,3.34-1.45c1.63-1.22,0-2.09,1.68-3.24a3.76,3.76,0,0,0,1.79-2.86L60,35.61c5.89-2.7-.14-4.28,6.84-8.75A14,14,0,0,0,70,24.77c-1.09-1.07-3.41-1.06-5.16-.48-1.35.45-1.43,0-2.78.39-1,.3-1.34.89-2.11,1.14-1.15-3.73-3.23-2.5-3.67-1.67l-.12.33a1.42,1.42,0,0,0,0,.16l0,.15s0,.1,0,.15c-1.3-2,.91-3.67,2.48-4.22-.5-.33.27-.18-.41-.12l-1,.43c-.83.45-.59.4-1.2,1.14l-.28.31c-.41.19-.52.25-.6.91a8.47,8.47,0,0,0,.06,1.48c-.72.07-.88,0-1.19.44.83-.11.49-.29,1.2-.34.87.72.59.74,1.93.52-.29-.91-.33-2.19,1.32-1.53,1,.41.79,1.47,1.13,2.45,1.34.17,1.17-.29,2-.89s1.26-.39,2.37-.5c1.55-.15,2.91-1.1,4.82-.25a25,25,0,0,1-3.12,1.61,22.37,22.37,0,0,0-3.94,3.16c-1.11,1-2,.29-4.1,2.79L56,31.87l-.18-.08L49,30c-2.26-.83-.61.28-2.56-.33-.78-.24-.15-.16-1,0-.52.09.09.12-.49.09-.83,0-.84-1-1.7-.3-.64.4.81.55-.77.29,0-1.16-.38-.64-.5-1.12l0-.87,0-.05c-.23.86.11.31-.4.71-.91-.66-.4-.24-.74-.82-.14-1.18-2.37-2.38-1.33-5.15.45-1.18,2.27-3.46,2.38-4.21,2.05-4,.5-4,0-4.88L43,14a5.44,5.44,0,0,0-1.39-1c-.55-.41-.05.31-.44-.49,3.21-.44,1.52,1.46,2.37.22l-1.73-.79c1.64-2.23,4.42-.66,4,2.74-.42,3.22-1.91,4-2.4,5.8,1.18.13.21,0,.54.32l.32,1.05L44.72,23c1-.1,1.78-.66,2.58.29.94,1.12-.18.92-.66,1.9.46.89,1.64,1.37,2.29.46l.78-1.11c.55-1.37.2-.83-.17-1.09-.18,1.09-.73,2.36-2.2,1.86.24-.52,1.55-.41.59-2.14-.61-1.08-1.42-1-3-.89-.48-2.22-1.55-1.33-.19-3.25,1.48-2.09,3.93-9.53-2.67-8.5a13.68,13.68,0,0,0-.78-5.95A9.06,9.06,0,0,0,38.61,0L37.26.91Z"/><path class="cls-1" d="M55.78,59.57c-2.57-.45,1.09-3.9,1.09-3.9a11.26,11.26,0,0,0-.95,1.76C55.72,58.11,56.1,58.64,55.78,59.57ZM59,48.25c-.83-2.17.9-5.1,2.17-5.89,4.15-2.58,4.45,3.73.31,5.28l1.44-1.73-1.81,1.41A2.54,2.54,0,0,1,59,48.25Zm5.35-6.66c-.61-.54-1-.22-.46-1.23,1.78,0,2,2.18,1.29,3.14-.2-.69-.17-1.32-.83-1.91Zm16.63-2.06c-.89,3.57-3.53,3.78-7.7,3.56-.18-.61-.1-.23.62-.45l-.21,0-.88-.33c1-.38.85-.79,1.68-1.23,1.43-3.46,2.13-2,1.78-7.06,4-2.32,6.44-1,5.51,4l-.08.57c-.14.77-.3.78-.72,1ZM67.06,37.06c.26-6.14,5.86-9.5,7.72-5.37-2.61-1-4.19.42-5.17,1.86-.17.25-1.24,2.39-1.3,2.42-.74.53.29.08-.28,0-.39-.09.24-.59-.18.08-.63,1,.24.49-.79,1.06ZM53,49h-.41l.09,1.84c.18,1.08.35,1.15-.37,2.06-.88,3.69-3.75,5.63-7.85,3.41-.88-.08-.69-.26-.56.55,1.54.72,0,3.21-.59,3.84-.83-.23-.06,0-.88-.54l0,.14.21,1c-.74.49-.86,1.12-2,1.13S39,61.7,38.44,61.33c-.28.2.22.11-.21,0a2.74,2.74,0,0,1-.36-.17c-.33,1.88-2.63,2.12-3.74-.1-.86-1.72-1.58-2.57-1.38-3.65-.72.41-.32-.46-.6.64l2,4a2.65,2.65,0,0,0,2,1.08c1,0,1.47-.72,2-1.25,2.67,1.63,2.73,1.43,4.74-.2.74.16.89.62,1.94.71.7.06,3.31-.48,4-1.9a2.3,2.3,0,0,0,.11-2.36c-.6,1.44.1,2.48-1.68,3.19a4.28,4.28,0,0,1-3.85.12,4.08,4.08,0,0,0,1.39-2,2,2,0,0,0,.32-2l1.12.41c0,.93.15.43-.21.95s-.41.32-.67,1.06l.26.52c.56-1,1.11-.7,1.81-2.34,4-1,3.44-2,4.5-2.48.56-.91,1.38-.94,2.55-1.24a4.6,4.6,0,0,1,3.42.09c-.49.5-4.46,3.15-3.09,5,.86,1.19.32-.39,1.64,1.24a2.92,2.92,0,0,0,5.16-.89c-.57.2-.46.29-1.07.89a2.9,2.9,0,0,1-1.17.76,2.35,2.35,0,0,1-2.6-1c2.18,1.23,3.56.76,4.64-1l-.14-.4c-1.45.77-2.46,3-4.64.5a3.62,3.62,0,0,1,1.23-3.6c.36-.83.58-.77.92-1.25-1.17-1.44-1.85-.64-3.5-1.06l-1.54.05c4.74-1.76,4.05-3,4.94-4.35.23-.33.11-.17.39-.41l-.38,1.92c2-.23,4.09-1.62,5.64-2.4l1.18-1a4.33,4.33,0,0,0,1.17-1,14.33,14.33,0,0,0,.86-1.23c.52-.73.61-.45.83-1.49l.12-.86c.37,0,.33.62.33.62.51-.49.63-.56.74-1.12V40.16l-1,1.42a1.93,1.93,0,0,1-.37-.84c-.48-2.08,1.39-7,3-8C75.53,30,76.32,36,75.33,38a12.27,12.27,0,0,1-3.48,4.45c.46-.74.69-.68,1-1.66-2,1.13-1.18,2.54-2.5,1.87,0,.32.6,1-1.42,2.76l-3,2.76c-1.07.62-.69.06-1.26,1.14,2-.17,1.64.07,2.39-.6l-1.28,0,5.17-5c2.44-1.16,6,.79,9-1.53,2.24-1.78,2.71-4.56,2.61-7.13a2.71,2.71,0,0,0-2.61-2.61c-2.07-.16-2.63.82-3.94,1.15-.86-1.43-.71-2.75-1.92-3.6a3.66,3.66,0,0,0-4.25.45,8.84,8.84,0,0,0-2.66,9.89c.22.64.69,1.27.83,1.74a4.19,4.19,0,0,1-1.3,3.8c-2.1,2.38-4.28,3-6.85,4,2.21-2.91,1.33-1,2.93-2.41,5-4.44,4-9.46-1.33-6.78a4.45,4.45,0,0,0-2.63,2.85c-1.48,5,.43,5.45-2.5,8a8.17,8.17,0,0,1-3.34,1.8c.15-1.46.66-3,.06-4.35Z"/><path class="cls-1" d="M28.22,66.57c.42-1,.68-.6,1.31-1.46.33-.46.66-1.18,1-1.62C30.44,65.13,29.83,66.3,28.22,66.57Zm9.66-9.7L39,59.43a11.53,11.53,0,0,1-1.12.79c-1.46-1-1.1-2.36,0-3.35Zm-8.77,1.46c.12-.45-.08-.18.23-.71s.19-.28.44-.48l.31.3Zm12.81.26c-.19-1.89-.33-3.36.86-4.63a6.84,6.84,0,0,1,.27,2.68A2.7,2.7,0,0,1,41.92,58.59ZM38.54,55.3,39,54.08c.61,1.13,1.7,2.71,0,3.79l-.55-1.44c.13,0,.23-.16.25-.11l.55-.14-.68-.88ZM40,54.74c.37-.62.14-.37.77-.83.9.25.8.05,1,.7Zm-.39-.59c-.81-2,2.3-3.66,2.66-.19-1.19-.25-.07-.09-.79-.28-1.51-.39-1.59.58-1.72.37C39.73,54,39.65,54.12,39.6,54.15Zm-6.12-7.6-.16-.14a2,2,0,0,0-1.11,0c-.76.14-.27-.12-.72.33,3.72-.26,7.62,4.34,7.76,5.15A1.18,1.18,0,0,1,38.86,53a5.66,5.66,0,0,0-2.26-1.24l2.13,1.34c-.28.63-.48,1-.7,1.47l-.05,1c-1,.34-1.22-.21-1.78.11l1.36.27-.66.86a2.14,2.14,0,0,1-1.27.41c-3.38.33-5.76-2.24-6.57-2.82l.37-.16.58-.93L29.88,53c-1.24.69-1.37,1.65-3.36,2.17-1.71.45-4.23-.91-4.23-.91s-.12,0-.17-.05l0,.17c.09.65-.09,0,.42.46s.38,0,.57.87A12.44,12.44,0,0,1,23,58.37l-.71.5c.23,1.89-.93,2.6-2.87,2.4,0,.56.14.43-.46.35l2,0a7.67,7.67,0,0,0,1.48-.82c.2-.21.38-.39.54-.53-.31-1.58.08-1.49,1.19-2.11s.78-1.3,1.59-1.49c-.22-.62.49-.55-.47-.45-.85.35-.14.91-1.63.93l0-1.62c.82.54,1.44.42,2.59.32a26.27,26.27,0,0,1,2.53-1.08c.22,1.28.37,2-.17,3-.76,1.41-.66,1.26-1.92,2l-.45.77,0,.1a.18.18,0,0,1-.06.08c-1.17,1.92-3.26,4.46.58,5.85l.07-.52c-.48,0-.09.17-.69,0-.93-.31-.27-.07-.65-.43A3.8,3.8,0,0,1,26.72,61c.05,0,.13-.15.16-.11l.81-.41a3.1,3.1,0,0,0,.8-.92l1.8-1.46c.82-.73.24-.06.56-.87-.58-.26-.68-.18-1.08-.83l2.41,1c-.69,1,.2-.19-1.72,1.1-.92.62-.64.83-1.5,1.34a1.8,1.8,0,0,0-.2.24l-.11.14a1.84,1.84,0,0,1-.1.16c.85.64.66.55,1.13,1.36.86,1-.41,4.3-2.32,4.21.22.51-.26,0,.47.76a2.71,2.71,0,0,0,3.06-2.5c.49-2.62-.77-2.76-1.08-4.51A3.73,3.73,0,0,1,32.15,58c.28-1.1-.12-.23.6-.64,2.64.49.54,1.12,3.16,2.25,0-1.09-.06-.74-.49-1.64l1.09-.34c-1,1.51.82,2.74,1.36,3.48a2.74,2.74,0,0,0,.36.17c.43.12-.07.21.21,0-.37-1.32-.15-.75.39-1.77.69-.09.2-.05,1.19.43-.49-2-.2-1.8.38-3.12a.84.84,0,0,1,.06-.14c0-.06.09-.33.12-.4l-.25.87c1.41,0,.83,0,1.2,1.54a2.89,2.89,0,0,0,.83,1.56l0-.14c0-1.27.64-2.13,1.15-3.36.09-1,.3-1.27-.15-2.15l0-.22c-.09-.2-.32-.73-.51-1.08a3.63,3.63,0,0,0-.69-1.14c.47-1.23,1.08-2.38,1.58-3.6h-.2c-.88.61-.54.8-1.18,1.37l-.6,1.71a2.41,2.41,0,0,0-1.37-.3l-.86.22c-.31-1.28-.45-.9-1.17-1.69a6.22,6.22,0,0,0-2.55-2.19L36,46.62l-.17-.24c-.36.34-.19-.07-.44.94l-1.87-.77Z"/><path class="cls-1" d="M22,17c1-.08,1.2.3,1.61.89l-.69.91-1-.45Zm-.8,1.13c-1.47-.47-.71-1.7-.1-3.84a4,4,0,0,1,2.27,1.33c.93.86,1.38.66.76,1.76-.82-.36-1.08-.91-2.36-.79-.1.27-.09.5-.21.84l-.25.53S21.23,18.1,21.18,18.15Zm-3-.19c-.15-3.48.71-4.94,1.64-7.54,2.74.41,5.35,3.33,6.05,5.69l-1,.45c-.77-.89-.61-1-1.65-1.71a3.9,3.9,0,0,0-2-1.06,6.26,6.26,0,0,0-1.07,4.1L18.18,18Zm-.93.25c-1.19.86-2.35,1.16-2.39,2.9,2.43,0,3.42-1.18,5.64.4,1.55,1.1,2.65,2.53.93,4.25-1-.58-.23-1.41-2-1.32-1.29.07-1.32.78-2,1.43-3.85-1.82-2.35-.52-5-1-1.9-.35-3.88-.25-5.13.84.5.91,1,.62,2.38,1.46,0,0,0-.36,1,.23l1,.54c0-1,.12-.64,1-.47h.2c-.84-1.07-3.07-1.26-4-1.75,1.93-1.12,3.16,0,5-.14,2.94-.23,2.65,1,4.33,1.56.6-1.33-.35-1.82,1.82-2.24.76.69.07.31.42.89a1.55,1.55,0,0,0,1.17.62c.87-.15,1.81-2.23,1.15-3.31-.15-.25-.22-.27-.41-.55a6.92,6.92,0,0,1-.55-.89,3.2,3.2,0,0,1,1.54,1.58c.5.8.19.51.45.4-1.51-3.82-4.47-4-8.13-3.18,1.68-3.65,7.78-.65,7.82-.64,1.68-5,7-3.05,6.59-.92-.84-.33.43-.52-1-.23-.79.16-1.94,1.51-2.31,2.09l.84-.13c-.15,1-.52.79-.57,2.57-.05,1.6.34,1.25.48,2.33l1.71.88-.94.57.19.16a2.62,2.62,0,0,0,1.85-1.42c-.41-1-.95-.84-.57-2a1.38,1.38,0,0,1,1.59-.92c1.6.25,1.4,2.06,2,3.3l.39-1-.33-.54L33.25,24l.06-.48-.1-.75L32,22.51c-.75-.65-1.94.09-2.32.56-.8,1-.37,1.68,0,2.7-1.76-.36-2.47-1.81-1.85-3.8a7.32,7.32,0,0,1,1.12-1.9c.59-.58,1.16-.55,1.84-1,.11-2.14-2-3.22-4.39-3.08A7.68,7.68,0,0,0,24,12.06c-.79-.81-2.46-2.25-4.29-2.17C17,12.68,18,18,17.25,18.21Z"/><path class="cls-1" d="M51.21,35l.17-.68c.82.21.35-.33.53.77l-.7-.09Zm-2.93-.47c.15-.67.06-.45.45-.77,1.07.36.35-.17.77.62-.36.22,0,.13-.57.23A6,6,0,0,1,48.28,34.55Zm-2.84-.32.11-.85c1.13,0,.75-.15.84.81l-1,0ZM17.52,37.51l.57.86,3-1.53c-.81-.43-.28-.35.2-.55l-.07.49,1.29-.35-.69-.29.94-.59-.18.89c1.11-.34.92.22,1.79-.57,0-1-.32-.31.29-1,.6.29.38-.24.37.68l1.3-.21c-.89-.12-.3.32-.71-.26.23-.54-.36-.61.41-.39.26.08.18.41.19.57l6-1c0-1.38-.19.59,0-.46.06-.34.43-.3.72-.31.31.44.33,0,0,.6,1,0,.65.18,1.54-.28l0-.68c1.46-.5,2.67-1.38,4.59-1.4s3.56.77,3.16,2.28l1,.19.53-1c-.57,1.3-.18.66.37,1L44,33.2l.87.24,0,.71.59.08,1.36.2c.12-.71-.14-.67.44-.76,1-.16.34.07.53.5-.46.36.72.49-.94.22.68.54.54.42,1.45.16.59.51.74.39,1.7.39.1-.87-.09-.55.42-1,0,0,.5,0,.19.66-.23.45.71.44-.68.31.08,0,.17,0,.22.11s.17.07.24.07a1.6,1.6,0,0,0,.84-.08l2.12.66.06-.82c.62.22.34-.15.57.72l-.5,0c.41.43-.07.24,1,.44-.09-1.1.46-1.22.67,0l-.24,0,2.93,1.49c.52.31.5.48,1.14.59l.52-1c-1-.31-2.37-1.72-4.55-2.46-4.86-1.63-11.06-1.79-11.6-2-1-.31-.85-1-2-1.35A7.89,7.89,0,0,0,38.11,31a6.15,6.15,0,0,0-3.25,1.21c-1.49,1.19-3.64.84-7.64,1.55-7.37,1.31-8.22,3.67-9.7,3.71Z"/><path class="cls-1" d="M16.2,59.88c-2.75-.14-2.94-2.74-1.4-4.14C16.18,57.12,16.15,57.51,16.2,59.88Zm3-8.26.44,4.9c-.85-.47-1.13-1.19-1.76-2H16.76l.43,3a13,13,0,0,1-2.88-3.75c-.79.37-.19-.3-.38.68.55.34.11-.53.49.45s0,.38-.16.55C13.11,56.6,13,59,11.64,60.34A4.46,4.46,0,0,1,6,60.76a1.14,1.14,0,0,0-.73-.22c-.81.14,0-.29-.55.34a5.57,5.57,0,0,1,2.29.8c1.72.76.82.23,2.43.3.7.86.4,1.19,1.38,2.08,1.58,1.44,2.52.78,4,.39,2.75-.73,1,.33,3.61-1.63V62c-1.08,2.32-2.48,1.68-4.07,2.27A3.36,3.36,0,0,1,10,62.14c.92-.83.93-.15,1.52-1.19,1,.4,1.65,1.34,3.3-.19l-1.16-.33a6.81,6.81,0,0,1-1-.31,5.44,5.44,0,0,1,.5-.93c2.82,1.58.57.69,2.79,1.23,1,.23.39.2,1.21.65a6.06,6.06,0,0,0,1.84.55c.6.08.46.21.46-.35a7.57,7.57,0,0,1-2.89-1.21l-.31-2.58c1.2.64.48.77,2.1,1.28-.28-1.28-.64-1.1-.87-3.12.61.49.85,1.63,1.48,2.83.49,1,1,2.12,2,2.52-.72-1.3-2-2.83-2.5-4.43,1.07.44.78.66,2.13,1.06-.24-1-.32-.63-.55-1.39l2.29,2.64.71-.5c-.87.2-.73.14-1.32-.62-1.43-1.83-1.79-2.34-1.76-4.44l2.2,1.08,0-.17c-.31-.55-.06-.39-.64-.67a6.35,6.35,0,0,1-.8-.85L20,52.05l-.06.16-.45-1.08-.28.49Z"/><path class="cls-1" d="M53.84,16.75c1-.54.59-.75,1.72-1,.44.83.29,1,.29,2l-1.3.55-.71-1.58Zm0,0-.59-.23c.29-1.14,2.12-2.34,3.41-2.63.19.92,1,2.95-.12,3.57-.74-1.14,0,.58-.25-.72a5,5,0,0,0-.09-.61,3.11,3.11,0,0,0-.46-.91,3.25,3.25,0,0,0-1.9,1.53Zm-2.63-1.38c1-1.7,4.36-4.93,7-5.17a10.1,10.1,0,0,1,1.15,6.92l-1.85.09c0-1.58,0-2.71-.93-3.87a7.05,7.05,0,0,0-3.63,2.74,2.74,2.74,0,0,1-1.7-.71Zm-4.54,3.55,1.26.37-.3-.61-.22-.33c-.18-1.29,1.81-2.29,3.47-2.08,1.94.24,2.47,1.5,3.18,2.74,1.65.18,2-1.11,4.2-1.16s2.53.85,3.67,1.19c.87.79.3.43.55-.07-.63-1-1.55-1.15-2.52-1.76.23-2.25,0-6.19-1.64-7.45-1.88-.44-5.67,2.89-6.49,3.75C49.7,15.76,52,15,49,15.89a2.82,2.82,0,0,0-2.32,3Z"/><path class="cls-1" d="M75.44,53.08c.52-.3-.45-.67.75-.34.25.87-.65,1.78-1.49,2.29a9.44,9.44,0,0,0-1.41.75c-.69.52-.25.42-1.21.63a7.76,7.76,0,0,0,1.06-3.58,2.61,2.61,0,0,1,1.15,1.37l-.2-.94c.92.31.18-.17.86.32l-.45-.52c0-.11-.09-.13-.13-.21l1.07.23Zm-2.72-1.49L71.4,50.21l1.27-.42c.83-.18,1-.3,1.79-.43,2.51-.62,4.74-1.53,6.92-2.07a11.68,11.68,0,0,1-1.61,2.16c-1.07,1-6,4.59-7,2.14ZM68,48.75c-.56.41.61-.44-.42.25-.16.1-.36.34-.39.29s-.15.1-.22.16c1.43,0,1.94-.7,3.07-.37,1.33.39.6.82.53,1.35.29,1,0,.22.51.9.33.44.16.33.63.67,1.55,1.11.31,3.74-.58,4.68-.69.73-2.72,2.42-4.27,2.15l-1.16-.47s-.16,0-.2-.06-.13,0-.2-.06c-1.25-.29-1.7-.62-1.79-1.87l-.19-.43c-1.07.64.13,2.16,2.5,2.88s3,.1,4.55-1c1.86-1.35,4.14-1.88,5.72-3.37a1.56,1.56,0,0,0,.43-2.18c3.28-1.49,5-4.45,5.51-4.93v-.49c-1.17-.13-4.93,1.57-6.69,1.9-7.62,1.41-2.31-.68-7.34,0Z"/><path class="cls-1" d="M64.35,53.44C63.24,54.57,64,55,62.18,55.3c-.61-.51-.5-.54-.86-1.19a6,6,0,0,1,3.75-2.75l1.15-.44c-.43.65-.5.65-.89,1.31A3.28,3.28,0,0,1,64.35,53.44ZM61,53.68c-1.53-1-2.71-.76-3.46-1.16,1-.34,6.57-3.52,9.26-2.07-4.64,1.76-1.74-.39-5.8,3.23ZM55.83,53c.27.66-.37.27.68.39a2.41,2.41,0,0,0,.82-.14c2.18-.37,3.29.46,4.19,2.21.55,1.75.07,2-.26,3.49l.14.4a2.33,2.33,0,0,1,.85-.46c-.15-.9.21-2,0-3.11,1.21-.14.59,0,1,.19l.19.43c.33-2.11,1.79-3.31,3.23-4.46.61-.49.81-.88,1.4-1.14.69-1.12-.36.49.16-.55L68,50.13c-2.82-.4-4.27-.72-7,.32a26.24,26.24,0,0,0-2.69,1.16A13,13,0,0,1,55.83,53Z"/><path class="cls-1" d="M19.1,45.53c-1,1,0,4.55.35,5.6l.45,1.08A35.6,35.6,0,0,0,25,51.13a.33.33,0,0,0-.14-.06L24.34,51l-1.15.12,1.12-1c-.38.07-.93.45-1.47.14C23.75,49.93,24,50,24.53,49a9.78,9.78,0,0,0-3.35,1.64c-.87.62,0,.19-.91.66a10.16,10.16,0,0,1,1.94-2c2.24-1.65.59-1.39,2-1.65l-.33-.2a.66.66,0,0,0-.15-.05c-.61-.07-1.75,1.27-2.38,1.78-.4.33-.63.56-1.05,1,1.08-3.12,2.64-3.07,3.39-5-1.71.46-2.95,3.45-4.09,4.64l1-3.15c-1.75,1-.82.57-1.07,2-.13.71-.1.46-.34.82,0-.87-.11-1.14-.15-2,0-.73.09-1.38,0-1.94Z"/><path class="cls-1" d="M46.67,18.92c.18.92.22.33,1.41.71a1.85,1.85,0,0,1,1.2.9,4.25,4.25,0,0,1,.26,3c.37.26.72-.28.17,1.09l-.78,1.11c.78-.08.62-.25.54.46.69-.29.12.05.72-.41s-.16,0,.7-.59l1,.07c-.63-.31-.75-.24-1.64-.17.64-1.48,1.94-2,1-4.5-.68-1.8-1.72-2-3.87-2.2l.22.33.3.61Z"/><path class="cls-1" d="M61.93,19c-.69,1.11-.16,0-3.44.45a7.3,7.3,0,0,0-3,1.07,5,5,0,0,0-2.15,1.92c-1.24,2,.12,2.58-.76,2.93l1,.95c.31-.17-.71-.45.8,0-1-1.6.66.09-.54-.62-.26-1.34.13-.17-.58-1.22a24.32,24.32,0,0,1,1-2.22c.43-.71,1.29-1.47,1.41.16l.28-.31c.61-.74.37-.69,1.2-1.14l1-.43c.68-.06-.09-.21.41.12a8.94,8.94,0,0,1,4.57-.09c-.12-1.05,0-1-.62-1.66-.25.5.32.86-.55.07Z"/><path class="cls-1" d="M43,26.75c-.88-.12-1.33-.17-1.58-1.2A1.78,1.78,0,0,1,43,26.75Zm-1.65-2.63a1.89,1.89,0,0,1,1.85,1.77c-.52-.26,0,0-.53-.36C41.39,24.62,41.44,25.27,41.38,24.12Zm.23-1.07c1.06,0-.07-.19,2,1.28-.38-1.45-.63-1-1.58-1.87l.5-.83c.75.22.45.07,1,.63,1.46,1.53.58.91,0,2.75l-.65-.55c-.18-.16-.31-.3-.5-.45-.85-.7-.64.07-.76-1Zm-.79,4.49c.34.58-.17.16.74.82.51-.4.17.15.4-.71l-.05-.75c.81.25.58,0,.8.76l-.73,0,0,.87c.12.48.45,0,.5,1.12,1.58.26.13.11.77-.29-.44-.21-.69.12-.21-1.61L44.72,23l-.45-1.19-.21.65c-.3-.41-.43-.48-.68-.81-.46-.59-.23.11-.3-.79l.87-.1c-.33-.31.64-.19-.54-.32-1,.39-.89.44-1.45,1.24-1.92,2.73-.82,4.25-.76,5,.14,1.57.3.53-.38.8Z"/><path class="cls-1" d="M41.87,18.18c.55.27.16.17.85.13.71-1.86,1-1.74,1-4.12-.23.64.73,2-.83,4.25-.41.59-1.87.7-2.21,4.06.42-.59.89-1.5,1.34-2.15.67-1,3.51-3.25,2.43-6.45-.35-1-.68-1-.85-1.17-.85,1.24.84-.66-2.37-.22.39.8-.11.08.44.49A5.44,5.44,0,0,1,43,14l-1.2-.68c.55.89,2.1.89,0,4.88Z"/><path class="cls-1" d="M23.24,67.55c-1.58-.26-.94-.49-1.35-1.54l1.17-.25A3,3,0,0,1,23.24,67.55Zm1.39,4.06.07-1a4.66,4.66,0,0,0-.31.51c-.39.55.11,0-.34.39l-.07.86c-1.15.59-2.43.5-2.52-.55-1-.75-.75-1-.77-2.23.09-.38-.05-.1.19-.37L21,69.1l.14-.12.16-.11c-.81-.52-.32.09-.45-.67,1.17-.27.44.19.49-.57,1.35.63.17.7,1.32.58a1.85,1.85,0,0,1,.79,0l.75.34.22.11-.75.59a1.82,1.82,0,0,1,1,.4l0-1.13c-.32-2-1.36-2.67-1.83-3.65-2.54.54-2.87,4.47-2.59,5.81.56,2.67,3.69,3.59,4.37,1Z"/><path class="cls-1" d="M34.23,27.27c0-.71-.38-.31.33-.81l.63-.25C35.51,27.11,35.36,27.15,34.23,27.27Zm-.31-1.15c.09-.52.09-.68.59-.86,1-.38,1,.06,1.14.2-.4.77-.81.47-1.73.66Zm-.11-5,.82.85-1.42.73ZM32,22.51l1.22.25.1.75A2.23,2.23,0,0,1,35,22.31l.51.93c-1,.25-1.66.63-2.25.75l.23.61c.68-.43,2-1.59,2.32-.06l-2,.6-.39,1L34,28.89l-1.18.6,1.89-.13.7-1s-.29-.22-.29-.22L34.28,28c1.36-1,.25.95,1.26-.54s.38-4.62.25-5.39l-.36-.24c-.88-.62-.53-.2-.8-.76l-.56-.5c-.36.63.71.39-.51.55l-.43-.67a2.85,2.85,0,0,1-.25,1.3c-.41.92.06.73-.89.78Z"/><path class="cls-1" d="M68.09,50.77A17.06,17.06,0,0,1,66.92,53a18.92,18.92,0,0,0-1.41,2.3c0-.05,1.66-2.08,1.93-2.37.77.15,1.11-.89,1.37-2,.11.14.18-.11.15.59l-.64,2.78c-.37,1.89-1.07,1.82-1.56,3l-.16-1.16c-.65.73-.82,1.49-1.35,2.05.07,0,.17,0,.2.06s.16.05.2.06l1.16.47c-.2-1.43,1.35-2.53,1.92-4.58l.35-1.1a1.74,1.74,0,0,1,.11-.18l.26-.37c0,1.6-.65,3.62-.39,4.12,1.12-2.13.76-4,1-6.27-1.16-.46,0,0-.58,0-.9,0,.43.43-.45-.12-.36-.22-.22-.92-1-.23l.23.09c-.52,1,.53-.57-.16.55Z"/><path class="cls-1" d="M34.63,21.05c.27.56-.08.14.8.76l.36.24c-.72-2.09-3.72-5.77-2.25-8.64.37-.72.09-.43,1.05-.89a6,6,0,0,0-.35,6.19c.6,1,.14.31.87.79-.75-3.24-2.23-3.08-.46-6.48.12.52-.23,1-.22,2,0-.05.08-.2.1-.17s.08-.12.1-.16l.72-.73,1.16-.85c-1.22-1.47-.63-1.08-1.33-1.53.47.69.17.16,0,.39-2.59.13-2.4,2.28-2.3,4.35C32.94,17.71,34.64,20.93,34.63,21.05Z"/><path class="cls-1" d="M42.24,52.21a3.63,3.63,0,0,1,.69,1.14c.19.35.42.88.51,1.08.89-.09,1.22-.3,2.11-.4l1.09-.11a1.84,1.84,0,0,0,.61-.18,1.76,1.76,0,0,0,.6-.39,5.72,5.72,0,0,0-2.61.15,20.09,20.09,0,0,1,4.65-1.91c-.4-.23-.84-.16-1.61.08a4.88,4.88,0,0,0-1.44.64c-2.86-.69,2-.8-.86-.45-1.41.7-1.66.52-2.77,1.51l1.24-1.57c.69-1.19,1.47-1.1,2.93-2.48a8,8,0,0,0-2.65,1.57l-1.28.55c-.48.08-.15-.07-.57.23-2,1.44.76-.06-.64.54Z"/><path class="cls-1" d="M40.47,51.4a2.41,2.41,0,0,1,1.37.3l.6-1.71c-.53,0-.06,0-.48-.64l-.3,1.22a17.07,17.07,0,0,0-.16-3.11c-.42-3-.24-1.69.3-2.56l.55,2.27c.51-.7-.15-2.11.19-2.68-.59-1.45-1.29-2.15-3.43-2a3.66,3.66,0,0,1,.27,1.65l.5,1.58c0-.85-.12-2.63.21-3,.54.79-.08-.52.17.51l.46,1.4a9.65,9.65,0,0,1,.19,5.24l-.29.49C40.32,51.06,40.34,50.21,40.47,51.4Z"/><path class="cls-1" d="M57.85,55.82a1.32,1.32,0,0,1-.08.82c.67-.5.73-.48.89-1.25.28.39.33-.3.24.89l.28.68c0-.09.06-.11.1-.17l-.43,2.68A11.71,11.71,0,0,0,60,55.26c-.3.11-.42-.06-.13.48s.23.34.82.66l-.2-1.6c-.2.41-.1-.22.1.52a9.85,9.85,0,0,1,.12,2.39,2,2,0,0,0,.28-.56,6.85,6.85,0,0,1,.56-1.72c-.9-1.75-2-2.58-4.19-2.21a2.41,2.41,0,0,1-.82.14c-1-.12-.41.27-.68-.39-.95.43-.34.07-.56.55,1.65.41,2.33-.39,3.5,1-.34.48-.56.42-.92,1.25Z"/><path class="cls-1" d="M19.46,30.66c-1.18-1.32-.61-3.57,1.16-2.91C21.62,28.13,22.21,31.14,19.46,30.66Zm.61-3.6c1.24-.66,2.11.71,2.26,1.65a2.21,2.21,0,0,1-1.85,2.81l.67-.59c1-.79,1.55-2.84-1.08-3.87Zm-.36-.54c-.61,1-1.53,1.39-1.45,2.83A3.09,3.09,0,0,0,20,31.93a2.6,2.6,0,0,0,2.65-3.78c-.24-.58-.14-.84-1-1.3-.56-.32-1-.31-1.24-.59l-.69.26Z"/><path class="cls-1" d="M3.29,51.06c-.27.22-.17.08-.42.39a1.47,1.47,0,0,0-.25.48,14.1,14.1,0,0,1,5.23.53c.94.21,1.82.33,2.77.54,1.11.25,1.4,0,2,.41l.78-.21c-.3-.6,0-.57-.61-1-.36,0-4.38-1.78-6-2a6.24,6.24,0,0,0,2,1.25,10.14,10.14,0,0,0,2.52,1c-3.81,0-3.24-1-7.07-1.28l-.55,0C3.09,51.1,3.93,51.55,3.29,51.06Z"/><path class="cls-1" d="M8.06,47.46a1.45,1.45,0,0,0,.19.12c.05,0,.15.18.19.13s.14.08.2.14l0-3.64,1.27,1.22c-.26-.58,0-.25-.47-.77,0,0-.34-.37-.36-.39-.64-.75-.29-1.38.23-2l1.34,2c-.84-2-1.65-1-1.3-3.77l.19-.37c.34-1.21.79-1.24,1.54-1.84a6.11,6.11,0,0,1,3.69,1.33L15,39.4s-.12-.18-.14-.13l-.41-.38c-1.82-1.59-4.25-1.9-5.37,1a24.13,24.13,0,0,0-1,7.6Z"/><path class="cls-1" d="M13.38,47.14c1.81-1,1.18-.63,3.12,0a3.69,3.69,0,0,0-1.07-2L15,44.37a2,2,0,0,0-.34-.45,1.86,1.86,0,0,0-.47-.4c.39,2.51-.09.88.81,2.89L14,44.3c-.29-.47-.13-.36-.54-.62-.61,1.5.47,0-.07,2a2,2,0,0,0-.62-1.37c-.36-.47-.61-.84-.86-1.12,1.15,2.06-1.15-.5.57,2.94A1.93,1.93,0,0,0,13.38,47.14Z"/><path class="cls-1" d="M50.37,26.52c1.89-1.4,3.77-.05,2.8,1.76C52.56,29.41,50,29.52,50.37,26.52Zm1.2,3a2.11,2.11,0,0,1-2.26-1.61,1.92,1.92,0,0,1,1.39-2.23S48.28,28.48,51.57,29.5Zm-2.1-3.35-.72,1c.18,4.07,5.78,3.6,5.08-.52l-.3-.3-1-.95-.64-.19-1-.07c-.86.56-.17.19-.7.59s0,.12-.72.41Z"/><path class="cls-1" d="M57.9,29.92c-2.29,0-2.74-2.26-.63-2.57A1.55,1.55,0,0,1,57.9,29.92Zm-.22.87c-2.42-.05-4-2.57-1.87-3.47-1,2.31.3,2.42,1.37,3.05.53.31.15.08.5.42Zm-2.57-3.54c-.52.14-.24-.22-.59.45-1,1.92,2,4.1,3.31,3.47.83-.43,2.28-3.87-.45-4.19-1-.23-.89-.3-1.89.1Z"/><path class="cls-1" d="M53.51,67.4c-.39-1.15-.58-.38-.75-1.39,1.17.26.36.32,1.7.17l-.57,1.28c-.78,1.53-1.13,0-1.39-.74l.66.47c.05,0,.15.16.18.11s.12.07.17.1Zm-.57-3.7a3.6,3.6,0,0,1-.65,1.21c-.15,1.69-.9,3.25,1.23,3.53,1.95-1.16,1.63-3.55.31-4.93Z"/><path class="cls-1" d="M26.72,61a5,5,0,0,0-1.09,2.49c.91-.49.54-.35,1.5-1.74l.58-.83c-1.09,2.4-.45,2.38-.64,3.53-1.27.85,1.07-.57-.42.18-.63.31,0,0-.49.53s.21.11-.63.46c.38.36-.28.12.65.43.6.21.21,0,.69,0l-.07.52,1,.07c-.73-.76-.25-.25-.47-.76-.58-.1-.25-.34-.18-1.05.18-1.84-.23-1.29.56-3,.42-.92.05-.54.82-1l-.18,1.37a.92.92,0,0,0,.17.52c.19-.29.18.06.35-.79.2-1,.07-.25,0-.56.23,1.67-.31,1.25.43,2l.4-1.66c-.47-.81-.28-.72-1.13-1.36a1.84,1.84,0,0,0,.1-.16l.11-.14a1.8,1.8,0,0,1,.2-.24c-1,0-.26.07-.47-.25a3.1,3.1,0,0,1-.8.92l-.81.41S26.77,60.91,26.72,61Z"/><path class="cls-1" d="M17.51,51.82c-1.22-.42-1.41,0-2.44.15l.65-1.3C17,50.51,17.23,50.79,17.51,51.82Zm-3.23.1,0,.1c.35.52.91.6,1.31,1.1.67.83.16.6,1.14,1.4h1.09a9.25,9.25,0,0,1-.34-2.69c.43-.22,0,.22.33-.36a.61.61,0,0,0,0-.19.73.73,0,0,0,0-.22l-.13-.24c-.7-.57-1.15-1-2.12-.53-.66.31-.4.13-.7.72C14.37,52.05,15.26,51.33,14.28,51.92Z"/><path class="cls-1" d="M20.69,69.59c0,1.2-.21,1.48.77,2.23-.6-.77-.16-.52.81-.61-.42.57-.39-.07-.25.57.25,1.21.37.5.69.64.65-1.44-1.35.24,0-1,.57-.53.32-.07,1.34.11.45-.38-.05.16.34-.39a5.85,5.85,0,0,1,.31-.51l-.07,1,.05-3.11,0,1.13a1.82,1.82,0,0,0-1-.4l0,.55a1.79,1.79,0,0,1-1,.34c-.17-.62.82-.52-.25-1.53-.45.59-.13-.36,0,1.09-.91-1-1.26-.43-1.78-.09Z"/><path class="cls-1" d="M20,52.05l.72.65a6.35,6.35,0,0,0,.8.85c2,.84,1.78.15,2,.07.86-.27.45-.11,1.17,0,1.27.1.9,0,1.13-.14-.56-.16-1.23-.28-1.82-.42l-1.47-.46c0-.08-.13-.06-.18-.1,2.7-.58,4.16-.05,6.71.06a1.49,1.49,0,0,0-.47-.25l-4-.57c-1.62,0-2.88.38-4.66.36Z"/><path class="cls-1" d="M74.46,49.36c-.78.13-1,.25-1.79.43l-1.27.42,1.32,1.38-.22.09c1.18.15,2.24.51,3.16-.19l-1.26-.17a1,1,0,0,1,.18-.09l.67-.43-2.11-.21c.89-.72,3.46-.13,4-1.45C76.93,49.21,74.23,50,74.46,49.36Z"/><path class="cls-1" d="M26.65,38.07c.85-1.19.84-1.13,2.58-1.4,1.26-.21,2.08,0,2.62.94-.41,1.06-1,1.28-2.3,1.47C27.72,39.34,27.48,39.24,26.65,38.07Zm.55,1.33c1.71.37,4.1.13,5-1.33,0-2.21-1.68-2-3.88-1.83C24.73,38,26.61,38.52,27.2,39.4Z"/><path class="cls-1" d="M45.58,37.61c1-2,4.67-1.08,4.76.25C50.45,39.38,46.4,39.62,45.58,37.61Zm5.25.33,0-.21c-.68-2.34-5.79-2.47-5.6.34a3.15,3.15,0,0,0,3,1.35C49.78,39.42,50.49,39.12,50.83,37.94Z"/><path class="cls-1" d="M43.4,54.65c.45.88.24,1.13.15,2.15l.32.06c-.13-.81-.32-.63.56-.55l1.89.23c-.28-.46-1.33-.67-1.8-.82L47,56c-.55-.7-.64-.63-2.17-1a4.78,4.78,0,0,0,2-.44A10.33,10.33,0,0,0,43.4,54.65Z"/><path class="cls-1" d="M14.26,55.49c.14-.17.5.34.16-.55s.06-.11-.49-.45c0,.35.16.07-.27.38-1.27.93-.87.17-1.79,1.57a8.92,8.92,0,0,1-2.06,1.91l1-.64L10.34,59c2.42-1.06,2.08-2.61,3.33-3.48s.4-.2.59,0Z"/><path class="cls-1" d="M50.8,37.73l0,.21c.35-.24,1.48-.74,1.61-1.11a3.15,3.15,0,0,0-.86,1.29,2.65,2.65,0,0,0,1.06-.48l1.2-.55s0,.1,0,.12l0,.21c.74-.6.24.24.71-.62.16-.25-.9-.32-1.19-.39s-1-.36-1.59-.53a6.13,6.13,0,0,1-.44.78c0,.11-.19.49-.2.5C51,37.61,51.12,37.39,50.8,37.73Z"/><path class="cls-1" d="M46.47,37.23l-.31.64c1.54-.49,1.69.21,2.27.74,1.06-.09,1-.09,1.64-.77-.76-1-.34-.83-1.74-.85l-1.86.24Z"/><path class="cls-1" d="M71.66,52c-.47-.34-.3-.23-.63-.67-.52-.68-.22.1-.51-.9-.1.2-.1.07-.14.49l-.31,4.75a9.15,9.15,0,0,0,.71-3.89,6.19,6.19,0,0,1,.27,1.65c0,.11-.07.69-.07.7.08.75,0,.39.39.84Z"/><path class="cls-1" d="M53.79,25.76c1.2.71-.5-1,.54.62-1.51-.47-.49-.19-.8,0l.3.3c.09,0-.22-.35.57-.11,1.52.48.29-.1.71.7l.38-.17c1-.4.88-.33,1.89-.1-.47-.52-.43-.34-1.36-.45.85-.43.49,0,1-1-1.34.22-1.06.2-1.93-.52.12.64.2.26,0,.55Z"/><path class="cls-1" d="M23.05,60.23c-.16.14-.34.32-.54.53a5.43,5.43,0,0,0,1.86.32c.77-.08.85-.48,1.85-.37a.18.18,0,0,0,.06-.08l0-.1.45-.77-.47.1a1.79,1.79,0,0,0-.62-1.19c-.1.93-.45-.06-.3,1.43l-1.69.4-.65-.27Z"/><path class="cls-1" d="M29.73,37.84s-.09,0-.1.1l-.27.5c2.25.58,2-.77,2.11-1.29a8.15,8.15,0,0,0-2.37-.36c.17,1.21-.54.54.63,1.05Z"/><path class="cls-1" d="M38.69,37c-1,.14,0,.24-1.21,0l-.29.93c.6.53-.21.32,1,.3l-.11.8c1-.44.32-.28,1.24-.08,0-.47-.29-.44.26-1l.38-.23c-.07,0-.17-.17-.2-.1s-.15-.07-.19-.06c-.53.09-.18-.07-.46.34C39.17,36.91,39.36,37.3,38.69,37Z"/><path class="cls-1" d="M45.24,34.93c-.67-.36-1.73-.16-2.7-.3a4.13,4.13,0,0,1-.57,1.1c-.57.77-.26-.08-.62,1.14,1.34-.32.65-.63,1.82-1.33-.28.84-.16.45-.61,1.1.92-.65.81-1.49,2.68-1.71Z"/><path class="cls-1" d="M34.16,37.42l.92.24c0,.87,0,.73-.64,1C33.63,38.32,33.61,38.08,34.16,37.42Zm-1,.95c.77.53.68.72,1.88.67.56-.73.53-.45.56-1.47C34.36,36.48,33.6,36.66,33.19,38.37Z"/><path class="cls-1" d="M43.44,38.63c-.86.14-.51.23-1.14-.13-.24-.77.18-.9,1-.91Zm-1.74-.79c.09,2.47,3.45,1.34,1.62-.87C42.19,37.07,42.25,37,41.7,37.84Z"/><path class="cls-1" d="M34.36,35.76c.5.23.43-.68.4.53.53-.56.72-.48,1.89-.56l-.14-.3c.59-.38.48-.34.73-1.08l-1.28,0s-.29.3-.4.39a1.83,1.83,0,0,1-.42.28C34.29,35.58,34.83,34.89,34.36,35.76Z"/><path class="cls-1" d="M37.48,36.92c1.17.27.21.17,1.21,0-.14-.68,0-.06.17-.34a2,2,0,0,0,.36.26l.62.05c.42-.74.37-.32,0-.92-1.12-.25.64.14-.92.18-.29-.55,0-.54-.56-1.26a13.2,13.2,0,0,0-.9,1.08c.06,0,.17,0,.21.09.19.58.26-.29.69.62-.66.2-.2.18-1.09-.1l.2.31Z"/><path class="cls-1" d="M53.66,39.52c-1.84.83-2.2-1.22-.08-.94Zm-2-.31c.59,1.38,1.93,1.23,2.58,0A1.71,1.71,0,0,0,53.35,38,2,2,0,0,0,51.65,39.21Z"/><path class="cls-1" d="M34.36,35.76c.47-.87-.07-.18.78-.7a1.83,1.83,0,0,0,.42-.28c.11-.09.39-.39.4-.39-.6,0-.9.13-1.37.19-.79.12-.5-.23-.94.2l.23.08c-.56.85-.9,1.38-.42,2.1.34-.79.31-.5.9-1.2Z"/><path class="cls-1" d="M64.35,53.44a3.28,3.28,0,0,0,1-1.21c.39-.66.46-.66.89-1.31l-1.15.44-1.26,1.48.42.47Z"/><path class="cls-1" d="M52.28,52.9c.72-.91.55-1,.37-2.06-1.08.31-1.3.15-1.77.74,1,0,.9-.25,1.7.24-.51.74-.8.6-1.77.81C51.79,53.6,51.49,52.83,52.28,52.9Z"/><path class="cls-1" d="M30,53.35l-.58.93c1,.07.74.67,2,.39A2.42,2.42,0,0,1,30,53.35a10,10,0,0,0,1.5.76c-.53-.79-.38-.6-1.18-.88l.21-.69c-.51.4-.31.05-.55.81Z"/><path class="cls-1" d="M44.79,59.41l.36-.49.2.87c.26-.74.37-.63.67-1.06s.21,0,.21-.95l-1.12-.4a2,2,0,0,1-.32,2Z"/><path class="cls-1" d="M21.21,38.81a2.77,2.77,0,0,1,.45-.76,5,5,0,0,1,.49-.63,10,10,0,0,0-1.75.65l.26.24Z"/><path class="cls-1" d="M22.65,65.77c.71-.19.82-.13.5-.88C22.27,65,22.25,65,22.65,65.77Z"/><path class="cls-1" d="M46.53,26.75a4.56,4.56,0,0,0-.34-.79c-.35-.57-.25-.31-.46-.49C45.44,26.25,45.87,26.44,46.53,26.75Z"/><path class="cls-1" d="M23.39,69.62c.69-.9.05-.57,0-.66C22.85,69.39,22.78,69.3,23.39,69.62Z"/><path class="cls-1" d="M23.15,67.68c0-.05.1-.18.1-.14s.24-.07-.1-.61c-.52.52-.38-.9-.24.29C23,67.8,22.76,67.34,23.15,67.68Z"/><path class="cls-1" d="M21.05,36.84l.13-.06.07-.49C20.77,36.49,20.24,36.41,21.05,36.84Z"/></g></g></g></svg>