<svg xmlns="http://www.w3.org/2000/svg" viewBox="0 0 82.79 54.54"><defs><style>.cls-1{fill-rule:evenodd;}</style></defs><g id="Слой_2" data-name="Слой 2"><g id="Слой_1-2" data-name="Слой 1"><g id="_2979609236288" data-name=" 2979609236288"><path class="cls-1" d="M22.06,46.48s.09,0,.11.06c.11.35.21-.14.42.4,0,0,.07.65.1.8-.86.43-2.07,1.52-2.92,1.51-.35-.46-.36-.64,0-1.16a1.31,1.31,0,0,0-.45.41l-.2.52a.42.42,0,0,1,0,.1l-.08.2c-.91-1.3,2.28-3,3.35-3.44,9-4,22.68-4.25,32.33-1.89,2.66.65,9.7,2.79,9.22,5.19-.6.24-.28-.74-.86.5,0-.88,1-1.72-2.43-3.13.55.23,1.71.91,1.72,1.58-1.09.38-3.12-.7-4.19-.89,1.47.72,4.72,1.75,4.73,3.5-.62,2.86-19.14,3.39-22,3.39-5.09,0-12.76-.5-17.47-1.65-3.34-.82-5.22-2-1.43-3.9A31.73,31.73,0,0,1,29,46c-.65.2-5.06,1.33-5.8,1.18.34-.87-.26-.64.92-1.22a11.8,11.8,0,0,1,1.54-.65,26.62,26.62,0,0,0-3.6,1.21Zm39.53-2.12c-.44-3.28,4.18-3.83,4.6-1C66.64,46.53,62,47.19,61.59,44.36ZM18.27,41.59c3.13-.8,4,3.9,1.27,4.57C16.45,46.91,15.42,42.32,18.27,41.59Zm38.62,2.18a6.11,6.11,0,0,1,3,1,6.4,6.4,0,0,1-2.46-.5C56.7,44,57.05,44,56.89,43.77Zm-33.95,1,.66-.4c.74-.27,1.88-.82,2.31-.59C25.61,44.42,23.77,44.86,22.94,44.81Zm24.32-3.45a6.77,6.77,0,0,1,2.51.55,14.23,14.23,0,0,1-4.93-.24C45,40.73,46.33,41.22,47.26,41.36Zm-14.2.43c.84-.18,1.75-.32,2.62-.45,1-.15,1.72-.59,2.15.31-.85.27-4.14.74-4.77.14Zm15-1.51c.9.11,1.28,0,1.6.68l-3.44-.43C46.48,39.94,47.24,40.18,48.06,40.28Zm-14.94.64c.31-.64.6-.54,1.52-.64s1.35-.33,1.77.25a12.27,12.27,0,0,1-3.29.39Zm35.39-1.81A5.32,5.32,0,0,0,70,38.36c-.73,1.4-.6.76-.67.76-.29,0-.54.3-1.14.44l.28-.38S68.48,39.14,68.51,39.11ZM14,39.88c-.33-.21-.07,0-.31-.24l-.85-1.23,1.46.75c.42.29.15,0,.34.41a5.2,5.2,0,0,1-1.16-.46Zm5.55,0c.4-1.13,3.75-2.34,4.78-2.39-.24.45,0,.25-.6.48l-1.79.77A20.69,20.69,0,0,1,19.53,39.9ZM63.26,40c-.72-.28-1.58-.84-2.45-1.22-.67-.3-2-.68-2.34-1.16a5.71,5.71,0,0,1,2.77.87c.72.36,1.81.67,2,1.51Zm9.26-2.75c-.15,0,0,0-.27,0l-.31-.1a1.5,1.5,0,0,1,.19-.92c.19.19.1,0,.28.31.29.41.16.59.16.59s0,.07,0,.1ZM10.08,37c.34-.43.22-.47.43-.83.6.68.53.86.05,1,.58.25.18,0,.34.4Zm55.45-.49a5,5,0,0,1,2.6-.31c0,.31-.24.3-.33.34.43.61,0,.81-.48,1.24a1.26,1.26,0,0,0,.25-1.14l-2-.13ZM15.45,37.8c-.44-.46-.74-.58-.45-1.42-.64.17-.28.18-.49,0,.08-.6,2.31-.08,2.76.06a9.35,9.35,0,0,0-2,.24C15.09,37.46,15.19,37.24,15.45,37.8ZM14.05,35a7.52,7.52,0,0,0,4.49.81c-.65.56-1.94.32-2.71.14a10.67,10.67,0,0,1-1.17-.38c-.6-.24-.51-.27-1.07-.09.11.9,1.4,2.8,1.23,3.6a14,14,0,0,0-1.64-3.63l.87-.45Zm30.52-.11a27.82,27.82,0,0,1,4.19.34c1.44.18,3.22.15,3.53,1L50.17,36l1.9.38c-.46.47-.87.41-1.44.7,2-.09,3.22-1.16,5.29-.58,2.31.65,1.29.91,3.42,2.82l-.6-1.06a19.46,19.46,0,0,1,3.62,1.59c.77.43.39.51.47.65,1.43,0,2.61.4,3,1.4a2.63,2.63,0,0,0-4.06.47,3,3,0,0,0-.32,2.39c.26.87.77,1.06,1.33,1.54-2-.46-1.84-2.53-2.14-3.13l-.1,1.11a4.79,4.79,0,0,1,0-2.2c-.46.76-.37,1.64-.48,1.33,0,0,0,.08-.06.14l-.85-.65c.53-.28.48-.16.56-.71-.5.68-.6.5-1.56.71l-1.72.38A4.59,4.59,0,0,1,53,43.1l-3.6-2.92c-.48-.62.15-1.1-.28-1.63L49,40l-2-.24a11.92,11.92,0,0,0,.36-2.14c-.16.22-.06,0-.16.36a6.28,6.28,0,0,1-.24,1.07,4.62,4.62,0,0,1-3.25,2.32L44.3,41c-2,.29-2.93.73-5.32.11-1.16-.3-.6-.29-1-.11a3.31,3.31,0,0,1-2.39-3.57,2.5,2.5,0,0,0,.16,2.33L33.91,40c-.24-.54-.07-.93-.42-1.43-.15,1.49.76.85-1.34,2.6a26.5,26.5,0,0,1-2.35,1.9,12.24,12.24,0,0,1-1.69.43c-.74.17-4.46-.63-5-1.17.2.82.15.25.83.71l-1.2.54A10.82,10.82,0,0,0,22.21,42l-.15,1c-.13,1.79-.58,3.38-2.43,3.43C22,46,22.23,42,19.52,41.29a2.9,2.9,0,0,0-2.47.56c.4-1,1.64-1.34,3-1.31,0-.09-.11-.14,0-.35a1.11,1.11,0,0,1,.44-.33,19.65,19.65,0,0,1,3.6-1.55l-.62,1.06a9.92,9.92,0,0,0,1.48-1.59c.85-1,.28-.75,1.89-1.24,1.87-.56,3.4.4,5.3.58l-1-.42c-.46-.27-.13,0-.34-.28l2.49-.51C32,35.8,31,36.4,30.51,36c.71-.71,6.15-1.22,7.51-1.12.06.37-.35-.08,0,.38a9.2,9.2,0,0,1,5.8-.21c1.18.25.52.16.75-.18Zm23.94,4.24L68.29,39c1.31-3.16.06-.71,1.81-3.69l-.31-.15c-.51-.21-.59-.12-1-.57.62.28.21.06.85,0a3.32,3.32,0,0,1,1,.15c-.11.5,0,.14-.38.61a2.11,2.11,0,0,0-.33.49L71,35.48c-.25,2.18-2.18,1.86-2.42,3.14a12.29,12.29,0,0,0,2.86-2.69c.6-.64.18-.15.38-.23.43-.17.35-.57,1-1-.38,1.4-1.94,2.74-3.09,3.55l-1.22.9Zm-54,0C12.89,38.39,10,36,9.72,34.05c.67,1.51,1.53,1.78,2.07,2.37a10.61,10.61,0,0,0,2.44,2.25c-.16-1.16-.49-.52-1.46-1.39a2.39,2.39,0,0,1-.92-1.78,3.69,3.69,0,0,1,.87.23c-.25-.58-.51-.58-.58-.93,1.67-.78,1,.66,2.32-.79a2.06,2.06,0,0,1-1.31,1.07l-.41.18s-.06,0-.09.05A9.22,9.22,0,0,1,14.5,39.1Zm1.61,3.38A1.88,1.88,0,0,1,15,39.53c1.64-2.67,6-4.66,9.13-5.61,10.25-3.16,24.35-3.31,34.61,0,3,1,7.49,2.89,9,5.7a1.85,1.85,0,0,1-1.11,2.82c1-1.58-2.8-3.71-4-4.35a32.13,32.13,0,0,0-6.25-2.26c-10.63-3-26.61-2.59-36.55,2.4-1.1.55-5,2.86-3.77,4.2Zm-5.64-9.11c.23-.14-.28-.34.4-.29s.36.21.38.23C10.81,33.58,11,33.54,10.47,33.37Zm.83,0,.56-.17a1.63,1.63,0,0,1,.63-.06c1.61,0,1.46-.29,2-1.81.64.54.44,1.61.19,2.39l.08-1.13c-.57,1-1.35,2.56-3.61,1.47a.69.69,0,0,0,.58,0c0-.05.08,0,.11,0-.51-.19-.44-.1-.53-.67Zm57.36,1.06c-1-.77-.91-1.94-.46-3.15l.06.11c.31.68.36,1.55,1.4,1.73l1.55.16c.77,0-.19,0,.66-.14.32-.06.12-.1.41,0-.31.53-.19.11-.58.35l-.54.46a3.31,3.31,0,0,1-1.51.28c-1.17-.14-1.2-1.22-1.72-1.92a2.87,2.87,0,0,0,.73,2.1Zm5.45-4.59A1.64,1.64,0,0,1,75,32.3l-.21-.62c-.26,1.15-.27.84-.58,1.26-.63.88.44.68-.72,1.09L73.69,33c-.62-.56-.1-.52-1-.94s-1,.11-1.24-.82l1-.17-.65,0a1.36,1.36,0,0,1,.87-1.1c-.12-.09-.49-.11-.08-.5s1.24,0,1.54.4Zm4.32.25a3.3,3.3,0,0,1-.14-1.17c.08-.66.37-.72.62-.82a5.35,5.35,0,0,1-1.74,4.5c.08-.83.24-1.91-.65-2.05.89-.06.78.69,1,1.31A2.43,2.43,0,0,0,78.15,30c-.48-.23-.51-.11-1-.2a1.68,1.68,0,0,1,1.25.27ZM20.54,28.22c-.2,0-.42,0-.6,0h-.1l-.26,0c1.16-.38,1.29.19,2,.16,1-.05,1-.08,1.67.59,1.27,1.34,1.12,2.12,1.88,3.05-.46.19.63,0-.19,0-.21,0,.07-.15-.23,0l0,1.3a4.77,4.77,0,0,1-.17-1.28c-.4.72-.18,1.43-1.32,1.32a4.24,4.24,0,0,1-.44-.88,2.93,2.93,0,0,1-1.06,1.79,4.19,4.19,0,0,0,.71-4.08,3.33,3.33,0,0,0-1-1.59,1.6,1.6,0,0,0-.9-.39ZM44,26.37c.73.11,1.15.93,1.57,1.41l3,2.76c.58.42,1.3.68,1.83,1.07a3.89,3.89,0,0,1-2-.88c-.57-.23-.22.15-1-.08-.36-.11-.5-.29-.88-.39l1.07,1c-1.22-.37-2.8-2.45-3.34-2.77.19.87,1.53,1.62,2,2.32a6.22,6.22,0,0,1-2-1.75c-.66.55-.53,1.71-1.33,2A11.66,11.66,0,0,0,44,28.12l.57.31c-.24-1.18.27-.71.08-1.23a2.86,2.86,0,0,0-.72-.83ZM57,26.08c1.23,1.49.15,3-.18,4.29.58-.29.37-.48,1.16-.56.44,2-3,4.49-2.08,1.66l-.43-.11a3.68,3.68,0,0,0,1.74-2.12A3.87,3.87,0,0,0,57,26.08ZM44,26.37l-.65-.12c0,2,.44.49.5,1.95A3.68,3.68,0,0,1,43.31,30c-.38-.15-.28.26-.38-.53-.61,1.4-.48,1.59-1.21,1.59.16-.34.42-.66.61-1a7.81,7.81,0,0,0,.79-4.17Zm-26,3.13-.29.41a3.19,3.19,0,0,0,1.59,2,5.34,5.34,0,0,1-.3-2.54c.14.46.11,1.13.26,1.66s.38.83.51,1.28a3.18,3.18,0,0,1-2.43-2.93,4.38,4.38,0,0,1,.77-3c.48-.6,1.35-1.31,2.25-.45-.09.86-.82.7-1.29,1.45,2.31-.9,1.87-.12,2.58-.28-.75,0-2.48-.59-3.22,1.64-.37,1.11.05.6-.21.52l-.22.23Zm14.43,2.09c1.7-1.12,1.89-.8,3.84-2.78l1.6-1.66c.86-.95.4-.52,1.87-1.32A7.82,7.82,0,0,0,41.06,31c-.74.1-.78-.57-1-1.19-.56-.23,0,.06-.54.1-1.29-2.45.08-1.79,0-3.63-1.07.22-1,.61-1.51,1.15.55.42.48.22.21,1.14l.09-.07.47-.35A14.87,14.87,0,0,0,39.82,31c-.5-.07,0,.24-.45-.31,0,0-.2-.38-.24-.47a5.67,5.67,0,0,1-.43-1.15c-.7.3-.38.23-.61.08.52-.25.4-.12.52-.69-.6.3-2.16,2.42-3.4,2.81a6.2,6.2,0,0,1,.93-.91,4.73,4.73,0,0,1-1,.35c-.79.08-.18-.31-.89.11A3.26,3.26,0,0,1,32.37,31.59Zm-6.51-1.33c-.21-.72-1.5-3.36.27-4.61a3.88,3.88,0,0,0,1.39,5.86c-.53.1-.2-.21-.54.09l0,1.06c-1.26.22-2.52-1.74-2.22-2.79C25.32,29.74,25.32,30,25.86,30.26Zm39.53-.41a2.75,2.75,0,0,1-2.31,2.43,4.53,4.53,0,0,0,.57-3.05c-.3-1.18-1.23-1.16-2.24-.63a3.53,3.53,0,0,0-1.23,2.75c-.12,1.91.37,1.88,1,3a1.68,1.68,0,0,1-.7-.75l-.48-1c-.42,1.57-1.43.7-1.48-.31-.41.44-.11.63-.29,1.11-.31-.43-.13-1-.11-1.64-.12.22-.34.5-.48.73-.47.73,0,.4-.68.6a5.1,5.1,0,0,1,1.29-1.73c.14-1,1.93-3.73,2.91-2.95,1.22-.31,2.17-.72,2.63.6a4.14,4.14,0,0,1-.26,2.88c1-.31,1.17-.92,1.62-2L65,29.73a.15.15,0,0,0-.08-.11l-.23-.85,0,0-.08.05c-.21.06.16.47-.23-.36-.67-1.46-1.58-1.33-2.74-1.55l1.86.19L63.36,27c-.84-.88-.79-.23-.9-1.07.27-.27.16-.21.66-.34.19-.35,0,.14,0-.13,0-.55-.25.4,0-.07,1.93.31,2.55,2.29,2.27,4.43Zm-35.9-5.78a3.24,3.24,0,0,1,1,2.44,3.18,3.18,0,0,1-.93,2.37l-.07-.16c0-.28,0,.12,0-.2,0-1.81.18-.95-.67-2.92.86.51.88,1.85,1,2.72C30.62,26.73,30.12,25.47,29.49,24.07Zm-6.34.7c-.86-.21-.89-1.76,0-2.13l.24.51C23.67,24.27,23.46,24.39,23.15,24.77Zm46.91,1.59-.89.56c.77-4.28,7.33-7.3,7.06-1.12a9.55,9.55,0,0,1-1.12,3.76c.86-2,1.66-5.45-1.65-5.33.61.38.92.1,1.3.74.5.92-.46,1.31-.93,1.68a5.19,5.19,0,0,1-.13,2.64c-.19-.48.66-2.19-.51-3.07s-2.18-.07-3.13.14Zm-42.38-2.7c.68.53,1.74.75,2.1,2.45-.62-.95-1-1.94-2.39-2.2a3,3,0,0,0-2.94,1.55C24.91,23.63,26.58,23.69,27.68,23.66ZM57,26.08c-.63-.51-1.54-1.66-2.81-.54-.87.78-1,1.93-.88,3.36-1.87-1.4-1-6.25,3-6.39,1.7-.07,1.77.56,2.6,1l-.54-.4c-.47.4-.07.27-.55.41l-1.92,0c-1.16.08-1.31.48-2.08.66-.48.11-.43-.18-.78.39a5.21,5.21,0,0,0-.19,3.66c.22-.23.14-.09.28-.47,0-.1.07-.35.1-.48a2.86,2.86,0,0,1,.21-.77C54.24,24.47,56.27,24.56,57,26.08Zm-27.53-2c-1,.24-.8-.35-1.81-.41l-.19-.09-.11,0-1.13-.1c-.52,0-.9.08-1.42.05-.41-.53.1-.13-.42-.49a4.5,4.5,0,0,1,3-.35A3.3,3.3,0,0,1,29.49,24.07Zm32.9-6.16a6.69,6.69,0,0,1,1-1c.51,1.53,0,5.9-1,7.88-.14.29-.38.71-.5.92-.49.82-.57.67-.92.8.2-.44.3-.67.46-1V24.19a1,1,0,0,0-.24.28l-.83,1.66A32.51,32.51,0,0,0,62.25,21l0-.6a4,4,0,0,1-.78,1.87c-.76,1-1.08.14-1.46-.48v1.05c.13.18,0-.13.15.25s.19,1.27-.14,1.53-.38.06-.64.18l-.15,1.65c.21-2.25-.06-2.9.77-5.09a9.78,9.78,0,0,1,2.42-3.46ZM41.73,20.14c.26-.34.3-.56,1-.4,0,.7-.48.91-1.27.91ZM77.2,28.56l-.09,0-.59.33.86-1.33.06-.08.13-.16c.09-.13.07-.12.16-.26.36-.56.3-.39.53-.53A38.27,38.27,0,0,0,82,19.37c-.8.24-.88.54-1.48.9.64,1.51-.27,2.9-1.07,3.9-.61.77-1.77,2.24-3.14,2.26.09-1.23-.22-2,.43-2.7,1.52-1.62,3.55-3.86,5.6-4.84a32.92,32.92,0,0,1-2.61,7c-.83,1.54-2.79,4.4-4.45,5A15.7,15.7,0,0,1,77.2,28.56ZM20,18.57l.16-.84a11.57,11.57,0,0,1,1.77,2,6.63,6.63,0,0,1,1.15,2.71l-.4-.65c-.65,3-2.61-1.58-2.5-2.83-.14.14-.29-.11-.09.95L21,22.42c.43,1.2.82,2.29,1.23,3.34A15.07,15.07,0,0,0,21.31,24c.19,1.7-.47,1.51.94,3a7.75,7.75,0,0,1-1.55-1.75C19.34,23,19.12,19.51,19.4,17c.36.1.27.25.55.48-.34.13.46,0-.17,0-.18,0,0-.07-.18,0,0,.26.09.6.15.85a1.85,1.85,0,0,0,.12.33C20.1,18.85,19.76,19.27,20,18.57ZM10.4,29.49l-.11.42c.39.31.14,0,.44.49a4.28,4.28,0,0,1,.32.73l-.69-.08c.65,0,.92,0,.94.58l-.5.15c-.49.09-.45-.05-1,.38s-.63.59-.56,1.48c0,.36,0,.2-.13.36-.23-.24-.17-.12-.31-.5-.54-1.41-.6-.5-.76-1.85-.32.74-.11.47-.4.38a1.94,1.94,0,0,1,1.24-2.38c.24-.4-.44-.31.23-.31-.16.09.33.44-.19,0-.32-.31-.19-.51-.15-.75l.19-1.9c-2.52-1.76.19-2.26.23-2.37s.07,0,.1-.05C7.89,24.19,7.2,24.7,7,26s.25,2.15.51,3.18c-.25-.75-.53-1.45-.8-2.35-.37-.13-.16.21-.3-.24a4.3,4.3,0,0,1-1.74-1A9.55,9.55,0,0,1,3.3,24.22c-.89-1.11-1.65-2.33-1.08-4a16.52,16.52,0,0,0-1.48-.9c.19,1.42,3.88,7.63,4.62,8.47-.48.24.59,0-.19,0-.21,0,0-.12-.19,0,.83,1.13,2.32,2.48,2.55,3-.83-.1-1-.67-1.53-.87-1,.6-.39,0-.54-.08L4.62,30c-.14.82.22,1.21.47,1.85a.79.79,0,0,0,.21-.32l.22-.63c.19-.31.24-.31.68-.33-.34.12-.22.08-.4.27H6c.67,0,.78-.09,1.36.29.14.86-.08,1,.53,1.47.79.63.38.64.84,1.28a3,3,0,0,1,1.5,2.71c-.5.3-.16,0-.48.14.41,1,1.16,1.15,2.39,1A11.81,11.81,0,0,0,13,39.17c.23.31,1,1.19,1.06,1.34.44,1-.08.74.81,1.6.5.49.61.83,1.43,1-.22,2.85,1.4,2.93,2.83,4.09-.09.85-.55.66-.66,1.49s.4.84.95,1.23c.2,1.92.75,2.2,3.59,3a40.81,40.81,0,0,0,5.75.95,107.26,107.26,0,0,0,25.07,0c2.33-.27,6.08-.74,8.17-1.77,1.11-.54,1.23-.7,1.33-2.15.54-.42.93-.1,1-1s-.44-1-.68-1.56c1.13-1.65,2.6-.26,2.89-4.25,1.77-.58,1.89-2,2.23-2.59.16-.32.77-1,1-1.37a15.35,15.35,0,0,1,1-1.42c1.55.16,1.19.2,2.25-.71-.17-.78.36.65-.22-.33-.22-.37-.28-.56,0-1.3.53-1.22.45-.69,1.09-1.31.46-.45.27-.88.89-1.38,1-.82.25-.8.77-1.66.65-.39,1.38-.28,1.54.48s-.36,1.33-.54,1.92a7.35,7.35,0,0,0,2.29-3.07c.45-1.15.22-1.25.14-2.33,0-.53.58-1.22.89-1.74a35.6,35.6,0,0,0,2.88-7.82,14.54,14.54,0,0,0-3.55,2.33,32.28,32.28,0,0,0-2.94,3L76,23.3a2.07,2.07,0,0,0-1.52-1.22,3.84,3.84,0,0,0-2.89.82,6.59,6.59,0,0,0-2.8,4.68c1-.45,1.58-1.39,3.15-1.42s1.84,1.53,1.37,2.9c-.49.24-.48-.09-.89.33-.22.22-.23.63-.44,1-.59,1-.85.29-.76,2.09-1.72.79-2.86.12-2.43-2a2.13,2.13,0,0,0-1.19,1.86c-.14,1.37.43,1.59.79,2.4-1.85,1.63-7.12.92-7.81-2.39-.76-3.63,3.31-5.4,2.83-1.88a9,9,0,0,1-.89,2.25c4.32-.66,4.53-7,.1-7.66a14,14,0,0,0,1.06-3.69,28,28,0,0,0,0-4.93c-.47.07-.41.15-.76.5s-.42.43-.69.73A11.94,11.94,0,0,0,59.83,21c-.29.66-.41,1.44-.68,2.1-.76-.24-2.48-1.7-4.91-.32-2.06,1.17-2,2.62-2.24,4.23.25.35.38,1.06.58,1.42.3.55.55.61.9,1.23.25-.07.18-.09.26-.14-.76-6.23,4.61-4.25,3.08-.32a3.84,3.84,0,0,1-3.22,2.42c-1.26.13-3.69-.41-4.33-1.19L49,30.12c-.38-.08,0,.11-.28-.09s-.13-.08-.22-.28a7.47,7.47,0,0,1-1.8-1.53,9.62,9.62,0,0,1-1.52-1.72,3.14,3.14,0,0,0,1.73-.56l0-.33a3.73,3.73,0,0,1-2.48.47c-1.06-.21-1.09-.76-1.78-1.09a7.78,7.78,0,0,1-1.21,5.85c-1.24-1-1.53-3.89-1.27-5.82-.72.48-1.08,1.08-2.27,1.11a3.25,3.25,0,0,1-2.43-.9c.2-.19-.26,0,.37-.22a5,5,0,0,0,2.26-1A8.87,8.87,0,0,0,39,23.1c.42-.46.46-.73.89-1l-.54,1c.47.33.74.14.74.14a8.92,8.92,0,0,1-1.43,1.35,9,9,0,0,1-2.07.79l1.76-.08c-.17.44-.07.37-.45.57a2.59,2.59,0,0,0,1.39-.48c.12-.39,0,.2,0-.2l0-.16a1.31,1.31,0,0,1,.9-1.09l.06.19c0,.18.11.11-.1.52,0,0-.26.05,0,0s.34.14.37.2l.28-.63c.54.3.19,0,.47.67l.09-1.75a66.6,66.6,0,0,1,.16,7.14l.89-2.19a11.24,11.24,0,0,0,.1-2.67c-.41.23-.14.5-.69.76a3.37,3.37,0,0,1,.11-1.83c.38.06-.09,0,.41.14.73.23.24-.39.94.17s.4,1.31,1,1.07c.3-.14-.27-.4.48-.25.31.07,1.2,1,2.2-.18A4.72,4.72,0,0,1,43.26,24c-.34-.34-.34-.54-.63-.85.18-.08-.34.12.18-.07a2.1,2.1,0,0,1,.44-.16l-.35-.72c.49.23.94,1.19,1.62,1.68a3.9,3.9,0,0,0,2.26,1.07l.49-.05-.41-.24c-1.72-.31-2-1.26-3-1.89.18-.68.48-.49.26-1.26s-.36-.42-.08-1.42h-.21c0,.13-.11.44-.14.54-.15.39,0,.15-.27.39a1.08,1.08,0,0,1,0-1.15,1.3,1.3,0,0,0-.66-.34c1-.07.29.1.83-.2-.25-.28.44-.4-.6-.23l-1,.06c.19.15-.22.18.6.24h-.88l.09.79c-.35.18-1,.51-1.36.7a8.53,8.53,0,0,1,2.08.13c.7.15,1.14.19,1.32.72-.37.21-1.61-.15-2.2-.16l-1.84.12c-.36-.06-.09.08-.3-.17l-.07.19c-.08.11.21,0-.21.16C39,21.65,39,22,39,21.31h0c-.65.5-.17.83,0,1.34-1.37,1.27-1.5,1.95-4.3,2,.48,1.11,1.38,1.67,3,1.79a4.74,4.74,0,0,1-.55.7l-.4.43c-.24.18,0,0-.23.12A9.34,9.34,0,0,1,32.35,31c-1,.8-4.18.92-4.88-.11-1.13-.36-2.19-2.35-1.67-4s2.57-2.2,3.13,0a5.8,5.8,0,0,1,.14,2.67c3.75-2,.71-10.08-5.38-6.54-.46-.66-.32-1.79-1.76-3.86-.53-.76-1.92-2.54-2.74-2.85a15.66,15.66,0,0,0,1,8.6c-.63.37-3.23.58-3.15,4a3.59,3.59,0,0,0,3.28,3.78c-.19-.7-2-3.64-.19-4.1,1.58-.4,2.36,2,2.16,3.56-.39,2.91-5.53,4.6-7.83,2.57a3.53,3.53,0,0,0,.83-2.28,2.11,2.11,0,0,0-1.21-1.94c.35,2.28-.64,2.62-2.44,2,0-1.89.11-.62-1-2.78l-.16-.23Z"/><path class="cls-1" d="M23.5,49.73c2.63.33,5.18.94,8.08,1.19a146.3,146.3,0,0,0,19.53,0c3-.25,5.45-.83,8.21-1.21a1.81,1.81,0,0,1-.8.39,49.58,49.58,0,0,1-7.18,1.13,113.57,113.57,0,0,1-19.69,0c-1.67-.15-7-.66-8.15-1.54Zm30.1-.35a66.26,66.26,0,0,1-12.32,1c-2.19,0-4.35-.07-6.53-.23l-5.62-.76c1.82,0,4.05.35,6,.42s4.18.15,6.28.14,4.19-.06,6.24-.18c1.89-.12,4.12-.39,5.94-.39ZM20.5,51.09c.39-.08,0-.09.25-.53.63,1.46,5.72,2,7.34,2.17l.12-.58c2.48-.7,8.19-.53,10,.89a3.53,3.53,0,0,1-1.79.3c1.69.52,6.71.25,8.76.15-1.26.06-6.92,0-7.2-1.47l13.34-.3a12.45,12.45,0,0,1,2.12.15c1.46.24,1,.57,1.14.86a27.14,27.14,0,0,0,4.2-.64,8.54,8.54,0,0,0,2.74-.93,4,4,0,0,0,.29-.28c.36-.33,0-.16.36-.25l-.12.48c2.55-1.33-7-4-8.29-4.37A51.15,51.15,0,0,0,24.14,48.2c-1.15.4-4.68,1.68-3.64,2.89Z"/><path class="cls-1" d="M42,16.84c1.19-3.11,6.74-3.64,8.15-.45-1-1.77-4.3-2.67-6.57-1A16,16,0,0,0,42,16.84Zm-2.44-3.36a11.2,11.2,0,0,1-.26-6.79A26.07,26.07,0,0,1,41.38.92a23.86,23.86,0,0,1,2.06,5.71,11.47,11.47,0,0,1-.2,6.82c1.71-.86,3.64-2.22,6.44,0,1.71,1.34,2.1,3.87.91,6.23-.39-.79-.54-3.35-3.37-3.77a3.9,3.9,0,0,0-2.93.73c-.81.59-.93,1.1-1.5,2-.17-.45.11-.26,0-.81-.21-1.07.24-1,.91-1.15,1-.18.85-1.19,3.53-1.13.27-.52,0,.53,0-.18,0-.41-.26.21,0-.18a3.29,3.29,0,0,1,2.34,1.18,4.17,4.17,0,0,1,1,2.4c.23-.19.08,0,.26-.28a1.86,1.86,0,0,0,0-1.91c-.33-.72-.68-1.21-.92-1.85l.11,0,.46-.06a4.13,4.13,0,0,0-2.77-2c.5.33.8.29.86,1-.91.37-2.22.11-3.31.38a9.08,9.08,0,0,0-2.54,1.15c.48-2.18,0,.58.06-1A13.14,13.14,0,0,0,43.5,9.4c-.37.66-.37,1.09-1.28,1.11-.6-1.11-.85-3.69,0-4.78.52,0,.51,0,.79.32a10,10,0,0,0-1.4-3.92c-.22,2.59.38,11.6-.19,13.13-.16-3-.11-6.83-.12-10,0-.57,0-1.13,0-1.7L41.11,2.1c-.93,2.17.12,1,0,5.42,0,1.12-.32,5-1.75,3.15a6.79,6.79,0,0,0,.34,2.13c.38.62,1.17-.12.92,1.71-.85,0-.47.18-.75-.35a.62.62,0,0,1,0,.1.38.38,0,0,1,0,.1l-.21.41c-.67-.24-1.11-.67-1.79-.93a5,5,0,0,0-1-.28c-.62-.12-.61,0-.91-.37.34-.6.79-.49,1.73-.45a3.89,3.89,0,0,0-2.43-.16.37.37,0,0,0,0,.09c-.35,1.55-.61,1-2.12,2.63A4.78,4.78,0,0,0,32.16,17c-.36,1-.43.92-.09,1.89.83-1.24.64-2.55,3.54-3.26V15.4c0-.12-.05-.28.31-.32.61-.06.35.16.77.46a.89.89,0,0,0,1,0c.91-.21,1.82.81,2.29,1.51s.22.78.08,1.59c-.26-.27-.42-.78-.68-1.13a4.47,4.47,0,0,0-.91-.93,3.74,3.74,0,0,0-5.11.58,5.72,5.72,0,0,0-1.09,2.3s0,.06,0,.09c-1.62-2.17-.49-4.92,1-6.22a4.79,4.79,0,0,1,3.26-1C38.19,12.35,38.46,13,39.57,13.48Zm-.64,7.82h0c.36-.08.71-.3,1.28-.44L39.17,21c0-1.21-.6-1.65,1-2a6.9,6.9,0,0,1,2.82.09c1-.17.35,0,.6.23.17.47.31,0,.23.76H44c.41-.6-.45-.95-.81-1.34,1-3.45,7-3.85,7,1.82.77-.25,1.48-1.8,1.58-3a5.19,5.19,0,0,0-1-3.58,5.39,5.39,0,0,0-2.79-1.9c-1.65-.46-2.59,0-4,.44a13.52,13.52,0,0,0-.31-6.92A23.53,23.53,0,0,0,41.42,0c-.73.7-2,4.74-2.25,5.56a13.8,13.8,0,0,0-.32,7A5.43,5.43,0,0,0,35,12c-4.57,1-4.89,7.09-2.39,8.56,0-2.28.76-3.79,2.66-4.3a3.63,3.63,0,0,1,4.31,2.42l-.51.38c-.78.63-.23.79-.18,2.21Z"/><path class="cls-1" d="M59.14,41.79l-.2.1-.1,0-.1,0a1.57,1.57,0,0,1-.54.08c.43-.09.29-.06.3-.28-.65-.55-.76-.66-1.86-.45s-1.34,0-1.38,1.28l2.7-.47c-2.08.23-2.58,1.11-4.63.11,0,0,.06,0,.07,0s.66.17.93-1A6.55,6.55,0,0,0,52.6,39.8l.31-.76a4.91,4.91,0,0,0-2.18-.39c-.31.7,0,.83.05,1.31-.38-.21-.4,0-.37-.65.08-1.44.67-1,3.32-1.8a3.46,3.46,0,0,1,1.72-.25c1,.14,1.09.19.77,1a1,1,0,0,1,.33-.51c.73.26,1.63,2,2.76,2.9Zm-6.37.44c1.76,1.24,2.58.84,4.94.27,1.49-.36,1.32-.13,1.43-.71l.15-.12c1-.9.35-1.14-.58-2.26-2.49-3-1.64-2.9-5.14-2-1.06.27-2.21.6-3.21.89C50,40,50.15,39.72,52,41.49A9.94,9.94,0,0,1,52.77,42.23Z"/><path class="cls-1" d="M6,30.82H5.8a2.53,2.53,0,0,0-.24,1.67,5.55,5.55,0,0,1-1.69-2.89c-.41-2,1-1.83.5.41a2,2,0,0,1,1.09-.14c.15.13-.48.68.54.08a11.84,11.84,0,0,0-1-1.1,14,14,0,0,1-2.44-3.79A32.15,32.15,0,0,1,.45,18.9a27.35,27.35,0,0,1,4.67,3.78c1.45,1.5,1.28,1.75,1.25,3.87.14.45-.07.11.3.24-.64-7.76,6-4.13,7,.13-.34-.13-3.32-2.21-4.44-.17-.35.63-.11.95-.32,1.56,0,0,0,.09,0,.12a.67.67,0,0,1-.06.12c0,.24-.17.44.15.75.52.48,0,.13.19,0-.67,0,0-.09-.23.31l-.11.28c.56.6,1.1-.35,1.65-.44-.26-.43-.27-.22-.87-.43-1-2.42.78-3.62,3.07-2.37.5.27.94.7,1.44.93A6.6,6.6,0,0,0,11.36,23,4,4,0,0,0,8.52,22c-1.16.15-1.57.86-1.95,1.77a12,12,0,0,1-1.44-1.57,18.86,18.86,0,0,0-1.56-1.42A13.55,13.55,0,0,0,0,18.42c.69,4.44,3.83,9.17,3.76,9.71a3,3,0,0,0,.14,2.15,7.13,7.13,0,0,0,2.32,3.15c-.37-1-.84-1.42-.27-2.61Z"/><path class="cls-1" d="M39.61,39.4A2.18,2.18,0,0,1,41.28,39,2.21,2.21,0,0,1,43,39.4C42.55,40.15,40,40.31,39.61,39.4ZM43,36c.4.39,1.1,1,.23,1.63a3.93,3.93,0,0,1-3.9-.06c-.8-.75.27-1.48.27-1.49s.06,0,.09-.07c-3.31.52-2.68,4.44,1.77,4.39S46,36.4,43,36Z"/><path class="cls-1" d="M40,35.54c5.68-1,7.88,4,2.64,5-2,.37-4.2-.1-5.28-1.33-1.62-1.84,1-3.35,2.64-3.64Zm.16-.43c-6.7,1.1-3.81,6.85,2.49,5.82,1.85-.3,4.45-1.69,3.27-3.93C45.18,35.54,42.49,34.74,40.19,35.11Z"/><path class="cls-1" d="M31.63,38.13c.8.43.59,0,.78,1.59l-.76.52c.3-.37.28-.16.45-.66.42-1.22-.53-1-.54-1a5.32,5.32,0,0,0-1.64.43c.12,1.2.58.54-.4,1.27a8.14,8.14,0,0,1-1.05.8,2.62,2.62,0,0,0,.47,1.24l1-.63c-1.65,2-3.8.53-6.26.26.18.26-.07,0,.23.22s4.14,1.27,5.44.52l2.71-2.4c.45-.41.6-.45.51-1.29l.52-.13a.11.11,0,0,0,.07,0L33,37.74l-1.69-.35c1,.59,1.19-.12,1.34,1.37l-.13-.21c-.32-.41-.26-.36-.9-.42Z"/><path class="cls-1" d="M48.42,33.2l-3.56.33,6.86.76-1.47-.56a7.25,7.25,0,0,1,2.37,0c.84,0,1.37-.29,2.46-.29a14.27,14.27,0,0,0-2.94-.66c-1.1-.17-2.16-.32-3.27-.44a57.65,57.65,0,0,0-7-.39c.93.64,5.87.06,6.51,1.23Z"/><path class="cls-1" d="M47.59,43.65c-1,.84-7.88.08-9.46.87,2.35,0,4.6-.07,7,.06s4.49.55,6.51.71a19.26,19.26,0,0,1-3.37-.93c1.18-1,5,.14,6.5.25a35.81,35.81,0,0,0-9.61-1.48,7.52,7.52,0,0,1,2.46.52Z"/><path class="cls-1" d="M20.08,44.44c.18,1.15-1.21,1.65-1.65,1.21C17.7,44.91,19.15,44.31,20.08,44.44Zm.44-.41c-.34.22-.26.19-.71.1l0-.48c.44-.19.6-.07.67.38Zm.11.95A2.06,2.06,0,0,0,18.1,42c2.15-.08.87,3.05-1.28,2A2,2,0,0,0,20.63,45Z"/><path class="cls-1" d="M62.73,45.07c-.37-1.18,1.59-.64,1.76,0C64.8,46.32,62.92,45.67,62.73,45.07Zm.18-1.49c.14.65-.15.67-.64.52C62.28,43.58,62.4,43.52,62.91,43.58Zm3,.32c-.82.6-1.39.51-2-.33s-.28-1.38.72-1.56c-1.85-.76-3.4,1.53-2.35,3.18A2,2,0,0,0,66,43.9Z"/><path class="cls-1" d="M61.44,37.16c1,.57,2.19,1.07,3.17,1.74A14,14,0,0,1,66.06,40c.8.73.22.74,1.65.91-.17-1.78-1.93-2.82-2.87-3.79a.37.37,0,0,0,0,.09.37.37,0,0,1,0,.09v.19c-.07.45.2.29-.28.49C63.72,38.32,62.29,37.32,61.44,37.16Z"/><path class="cls-1" d="M23.69,41.93c-.08-1.18-.62-.76.3-1.81.18-.2.21-.28.37-.48a8.85,8.85,0,0,1,2.3-2.22c1.58-.62,2.75.43,5,.71a20.52,20.52,0,0,0-2.7-.84c-1.41-.35-1.14-.67-2.66-.27-.63.16-.58.35-.91.79s-.59.72-.84,1c-1.58,1.76-1.9,2-1.11,2.86l.14.14s.06,0,.07.06Z"/><path class="cls-1" d="M7.19,24.86c.4-.18,0,0,.43-.24a1.68,1.68,0,0,1,1.19-.46,2.67,2.67,0,0,1,2.76,1.41,2,2,0,0,0,1.43.76A6,6,0,0,0,10.55,24c-1.48-.68-2.87-.53-3.36.82Z"/><path class="cls-1" d="M70.06,26.36l.07-.06.08-.06c.84-.5.5.06,1.06-.8.41-.64.42-.68,1-.93a3.05,3.05,0,0,1,2.47-.15c.5.27.14.17.73.39-.91-2.12-3.76-.65-4.69.24-.4.38-.65.93-1,1.3l.26.07Z"/><path class="cls-1" d="M16.7,39.31a2.13,2.13,0,0,1,1.08-1.8,5.08,5.08,0,0,0-2.69,3.39,3.78,3.78,0,0,0,2.42-1.65C17,39.38,17.16,39.45,16.7,39.31Z"/><path class="cls-1" d="M39.61,39.4c.43.91,2.94.75,3.42,0A2.21,2.21,0,0,0,41.28,39,2.18,2.18,0,0,0,39.61,39.4Z"/><path class="cls-1" d="M24.66,42l.34.09,2.52.43c-.21-1.25,0-1-1.33-1.23a1.77,1.77,0,0,0-2,.5Z"/><path class="cls-1" d="M23.07,34.9c1.06-.13,2.76-.82,3.73-.18-.34.66-.58.4-1.09.86l3.36-1c-.68-.1-2.55-.13-2.73-.73,0,0-.06,0-.09-.08l-2.89.89A1,1,0,0,0,23.07,34.9Z"/><path class="cls-1" d="M52.77,42.23c-1-.67-2.27-2.08-3.17-2.32.16.36,0,.21.56.68,2.2,1.71,2.55,2.65,4.92,2.83a.76.76,0,0,0-.3-.23C54.17,42.85,53.52,43.12,52.77,42.23Z"/><path class="cls-1" d="M27.36,43.5a9,9,0,0,0,1.88-.38,11.44,11.44,0,0,0,2.64-1.91c.73-.57,1-.62,1.29-1.29-1.14.27-3.05,2.62-4,2.95Z"/><path class="cls-1" d="M62.73,45.07c.19.6,2.07,1.25,1.76,0C64.32,44.43,62.36,43.89,62.73,45.07Z"/><path class="cls-1" d="M40.34,27.42a2.22,2.22,0,0,0,.12,1c.39.82.06-.14.57.61,0,.79-.33.59.26,1.29V26.43s0,.09-.05.12l-.12.38c0,.13,0,.35-.08.5-.08.36,0,.35-.32.58-.28-.26-.26-.19-.37-.59Z"/><path class="cls-1" d="M53.38,39.71c.91.54-.07,0,.33.44.22.23.55.51.72.73l2-.35C56,40.36,54,40.22,53.93,40c0,0-.07,0-.1-.06l1.49.14a3.31,3.31,0,0,0-1.94-.37Z"/><path class="cls-1" d="M55.08,42.52c.5-.9.27-1.13-.67-1.2A4.68,4.68,0,0,0,54,42.44c.19,0,1,.26,1,.12S55.05,42.53,55.08,42.52Z"/><path class="cls-1" d="M28.79,42.38a2,2,0,0,0-.56-1.09l-.64.18c-.21.53,0,.55.09,1.14l1.11-.23Z"/><path class="cls-1" d="M28.09,40.84c1.33-.81.94-.78,1-1l0-.16a1.56,1.56,0,0,0-1.19.34c.69-.05.62-.11,1,.09l-2.34.42Z"/><path class="cls-1" d="M46.78,24.91a.88.88,0,0,0,.31.15l.35.06a4.44,4.44,0,0,1-.55.49l0,.33a1.65,1.65,0,0,0,1.23-1.27l-.71,0-.52-.08.41.24-.49.05Z"/><path class="cls-1" d="M49.61,39c1-.45.33-.6.69-1.09.19-.25.89-.32,1.21-.55l-1.73.34L49.61,39Z"/><path class="cls-1" d="M73.28,31a12.22,12.22,0,0,1,.83,1.37c-.07-1-.46-.81,0-1.63l-.28-.14-.62-.23,0,.63Z"/><path class="cls-1" d="M8.87,30.6l-.24.13c.37.7.2.68,0,1.56a3.58,3.58,0,0,0,.71-1.23l.11-.6-.63.14Z"/><path class="cls-1" d="M41.68,21.26l.19.11c.35.11-.12,0,.25.06l1.17.14s-.07-.39-.74-.49a.91.91,0,0,0-.87.18Z"/><path class="cls-1" d="M72.43,31c.48-.14.47.1.53.16.46.05.08.06.24-.19l-.15-.29c0-.08.11-.34.16-.41-.69.08-.5.22-1,.55Z"/><path class="cls-1" d="M53.65,38.92l1.54-.19L55,37.94a2.36,2.36,0,0,1-1.38,1Z"/><path class="cls-1" d="M27.58,38.73l1,0-.17-.13c-.49-.35-.36-.18-.78-.83v1Z"/><path class="cls-1" d="M10.36,31.05c.16-.27-.32,0,.15-.25-.49.07,0-.29-.93-.54.23.45.11.15.17.49s-.11.1.07.35Z"/></g></g></g></svg>