<svg xmlns="http://www.w3.org/2000/svg" viewBox="0 0 77.51 44.99"><defs><style>.cls-1{fill:#010101;fill-rule:evenodd;}</style></defs><g id="Слой_2" data-name="Слой 2"><g id="Слой_1-2" data-name="Слой 1"><path class="cls-1" d="M54.35,35.38c2.43-1.18,1.47,4.2-.39,4.79C51.72,40.88,52.19,36.43,54.35,35.38ZM24.54,40.22c-3,.23-3.45-4.38-2.29-4.93C23.81,34.55,25.63,38,24.54,40.22Zm13.7-8.92c2.84-1.19,3.51,6.2,1.12,7.44C36.6,40.16,35.47,32.46,38.24,31.3Zm20.08-6.85c3.65-1.1,5,4.23,1.71,5.17C56.34,30.68,54.7,25.53,58.32,24.45Zm-40.95.11c3.35-1.42,5.47,3.73,2,5C16.14,30.76,13.57,26.17,17.37,24.56ZM37.11,15c4.86-2.38,8.11,5.16,3.15,7.09C35.73,23.84,32,17.47,37.11,15Zm-10-8.1c-1-.07-2-.09-2.56.61,1.44,1.75,3.68.61,3.4,4.82-.16,2.38-1.43,4.79-.76,7.12,1.06,3.72,6.22,5.32,8.52,7.52-2.65.95-1.55.86-2.84,2.61-1.08-.75-2-1.92-4.27-1.35a3.56,3.56,0,0,0-2.83,2.71l-2.06,0,.81-1c4.67-5.35-.2-9.38-1-11.4-.91-2.38.94-2.52,1.1-4-3.58.25-3.35,2.8-3.31,4.53-1.11-1.46-1.47-3.48-3.25-4.26-1-.46-2.11-.23-3.24-.35-1.67-.18-1.33-.65-2.49-1.28-.12,3.77-.9,2.66-2,5.17-1,2.2.29,4,.72,5.82-.95-.64-1.38-1.55-3-1.16a2.92,2.92,0,0,0-2.16,1.65c2.29.25,2.91-.3,3.71,1.82.48,1.26.62,2.83,1.29,4,1.17,2,4.39,3.39,7.57,3-1.87,2.31-1.41.3-3.52,1.21-1.13.48-1.75,1.49-1.84,3.2-1-.3-1.34-1-2.93-.55s-.79,1.24-2,1.59c-1.83-1.25.22-2.18-.29-4.74-.82-.59-2.18-.84-2.54-1.83-.6-1.69.37-2,1.49-2.43a1.69,1.69,0,0,0-2.67.2l-.56.68c-.74-1.43,0-1.26-1.77-2.11C.66,28.19.7,27.81,0,27c.19,1.9,1,2.47,1.87,3.88a27.59,27.59,0,0,1,2,3.86c1.3.1,2.6.27,2.29,1.79s-1.17.2.22,2.84c1,1.92,2,3.82,3,5.63,20.42-2.5,31.82-3.52,51.94-.89,1.91.25,5.1.83,6.93.84l3.69-7.14c-1.66-4.1.85-1.9,2-3.72a53.38,53.38,0,0,0,3.62-7c-.53.27-.69,1.08-1.94,1.74-1.81,1-1,1.07-1.85,2.09-.48-.89-1.44-2.22-3-1,.72.63,2.13,1.06,1.34,2.61a2.28,2.28,0,0,1-1.16,1c-3.41,1.69,0,2.74-1.12,5.35-1.63.39-.68-.58-2.22-1.33a2.84,2.84,0,0,0-2.93.36c-.15-.2-.1-.13-.27-.55-.32-.79-.47-2.06-1.91-2.62-2.08-.8-1,1.1-3.51-1.14,3,.15,6.24-.72,7.67-3.16.46-.78.51-1.95.92-2.53.42-3,1-3,4-3.17-.15-.86-1.26-1.57-2.38-1.73-1.53-.21-2,.81-2.8,1.36.39-1.82,1.8-3.65.79-5.85s-2-1.66-2.07-5.24c-1.4.31-.52,1.06-2.57,1.25-2.42.23-4.42-.69-6.41,5,0-1.38.26-2.61-.56-3.54a3.83,3.83,0,0,0-2.77-1.34c.64,1.87,2.18,2.07.78,4.65-1,1.81-4,4.5-2,8.84.79,1.7,1.74,1.9,2.66,3.14A2.83,2.83,0,0,0,51.9,31c-1-1.23-1.19-2.32-3.16-2.8-2.4-.58-3.05.83-4.31,1.41A3.3,3.3,0,0,0,41.74,27c.53-.69,3.9-2.74,4.87-3.43,6.22-4.35,3-6.6,2.81-11.54-.14-3.56,1.7-2.86,3.43-4.57a2.41,2.41,0,0,0-2.14-.64c-3.57.08-3.62,2.07-4.34,4.05l-.33-1a15.91,15.91,0,0,0-.34-3.2A6.51,6.51,0,0,0,44.26,3.6a8.93,8.93,0,0,0-2.82-1.75A6.9,6.9,0,0,1,39.13.31L38.68,0A9.15,9.15,0,0,1,35.8,2c-4.54,2.15-4,4.11-4.44,9.78-.81-2.84-1-4.4-4.21-4.86Z"/></g></g></svg>