<svg xmlns="http://www.w3.org/2000/svg" viewBox="0 0 40.81 20.15"><defs><style>.cls-1{fill:#050505;fill-rule:evenodd;}</style></defs><g id="Слой_2" data-name="Слой 2"><g id="Слой_1-2" data-name="Слой 1"><path class="cls-1" d="M20.44,4.78c1.89,1.06,5.67,9.91-.23,9.69C14.74,14.27,18.49,6.19,20.44,4.78ZM25,20.15a8.11,8.11,0,0,0,4-1.89,6.19,6.19,0,0,0,1.81-3.87c.79-4.11,2.69-4.82,5.94-2.82l-.83.5c-.94.47-1.43.51-1.42,2.22,0,4.86,7.46,3.74,6.09-2.61a5.8,5.8,0,0,0-2-2.89A7.45,7.45,0,0,0,31,7.86c-1.16.64-1.19,1.8-2.66,2.17a20.88,20.88,0,0,0-1.51-3.15c-.76-1.15-1.38-1.83-2-2.65a17.55,17.55,0,0,0-2.14-2.49C21.51.6,21.12-.23,20.08.06S16.1,4,15.51,4.72C13,7.81,13.19,8.87,12.23,10.47l-.6-.76A6.42,6.42,0,0,0,11.1,9C9.71,7.44,7.63,7,5.34,7.42c-7.51,1.25-6.38,11-1,9.79a2.83,2.83,0,0,0,2-2.92c0-1.91-.84-1.84-1.91-2.5-.05,0-.15,0-.18-.12s-.13-.09-.18-.14C8.72,9.05,9.42,11.35,10,15c.49,3.19,4.29,5.3,5.93,5,0-.47-1.59-3-.52-5.4,1,.37,1.22,2.69,4.8,2.74,3.86.05,3.42-1.39,5.12-2.48.1.13.41.1.51,1.36.18,2.19-.67,2.6-.78,3.91Z"/></g></g></svg>