<svg xmlns="http://www.w3.org/2000/svg" viewBox="0 0 58.96 17.57"><defs><style>.cls-1{fill:#050505;fill-rule:evenodd;}</style></defs><g id="Слой_2" data-name="Слой 2"><g id="Слой_1-2" data-name="Слой 1"><path class="cls-1" d="M11.4,13.41c-2.06-.05-3.8-1.76-4.77-2.93a7.76,7.76,0,0,1-.79-6.56C8.39,3.93,11.86,8.24,11.4,13.41Zm36.23,0a9.27,9.27,0,0,1,1.3-6.29C49.73,6,51.5,3.93,53.1,3.75,55.05,8.1,51.05,13.42,47.63,13.37ZM29.72,5.11a2.9,2.9,0,0,0-2.64,1.32c-.73.94-.49,1.9-.39,3.25C23.51,9.1,21.92,7.79,20,5.43a5.67,5.67,0,0,1-.74-1c-.34-.54-.17-.58-.72-1l-.25,1A7.36,7.36,0,0,1,18,7.55,4,4,0,0,1,16,10.38l0-4c-1.61-.19-2.82.28-4-.53A12.91,12.91,0,0,1,9.68,3.78C8.16,2.14,7.3-.13,4.35,0c-1.24,3.75-1.62,5.9-.09,9.65.9,2.2.88,1.45,1.23,2.23-1.07-.15-2.21-1.3-3.06-2.09A30.56,30.56,0,0,1,0,7.14,6.74,6.74,0,0,0,.78,10l.91,2.54c.3.92.82,1.61,1.11,2.44a16.43,16.43,0,0,0,.88,2.56,78.56,78.56,0,0,1,8.55-3c9.63-1.77,22-2.56,31.45-.44,1.07.24,2.32.26,3.46.52l5.62,1.85a9.81,9.81,0,0,0,2.53,1.1c.7-2,1.21-3.14,1.9-5.18C57.74,10.78,58.88,9,59,7.15c-.59.45-1.56,1.78-2.31,2.54a9.32,9.32,0,0,1-2.82,2.06c.22-1,3.5-6.51.75-11.66-2.67-.5-4,2.22-5.31,3.67-3.21,3.66-4,2.22-6.37,2.62-.24,2.49.05,2.49.44,4.4a4.34,4.34,0,0,1-2.26-2.87,13.43,13.43,0,0,1-.36-4.49c-.74.28-.6.29-1,1A11.79,11.79,0,0,1,37,7.55c-1.05.83-3.36,2.41-5.12,2.12,1.3-1.57,0-4.4-2.12-4.56Z"/></g></g></svg>