<svg xmlns="http://www.w3.org/2000/svg" viewBox="0 0 57.86 31.2"><defs><style>.cls-1{fill:#fff;}.cls-1,.cls-2,.cls-3{fill-rule:evenodd;}.cls-2{fill:#040404;}.cls-3{fill:#2b2a29;}</style></defs><g id="Слой_2" data-name="Слой 2"><g id="Слой_1-2" data-name="Слой 1"><g id="_3015324104544" data-name=" 3015324104544"><path class="cls-1" d="M7.91,23.08c5.47,0,9.48-2.71,13.39-5.75.63-.49,1.16-.95,1.76-1.45.3-.24.6-.5.86-.74s.62-.56.78-.74a1,1,0,0,0-.38-.21L24,14.08l-2.3-.72a38.63,38.63,0,0,0-10.36-1.63C5.69,11.72,0,13.82.9,19.16c.52,3.13,4,3.92,7,3.92Z"/><path class="cls-1" d="M32.41,16.66a51.48,51.48,0,0,0,6.22,2.64c4.26,1.49,10.29,3.49,14.43.86A8.7,8.7,0,0,0,55.35,18,9.3,9.3,0,0,0,57,15.14c.61-2.57-2.17-3.92-4.23-4.41a18.67,18.67,0,0,0-8.15.23A30.5,30.5,0,0,0,38,13.31a32.5,32.5,0,0,0-5.6,3.35Z"/><path class="cls-2" d="M19.22,28.83A33.81,33.81,0,0,1,22.52,26,5.18,5.18,0,0,1,23.3,27l-4.07,1.81ZM32.41,16.66A32.5,32.5,0,0,1,38,13.31,30.5,30.5,0,0,1,44.61,11a18.67,18.67,0,0,1,8.15-.23c2.06.49,4.84,1.84,4.23,4.41A9.3,9.3,0,0,1,55.35,18a8.7,8.7,0,0,1-2.29,2.14c-4.14,2.63-10.17.63-14.43-.86a51.48,51.48,0,0,1-6.22-2.64ZM7.91,23.08c-3,0-6.49-.79-7-3.92-.9-5.34,4.79-7.44,10.41-7.43a38.63,38.63,0,0,1,10.36,1.63l2.3.72.35.11a1,1,0,0,1,.38.21c-.16.18-.53.52-.78.74s-.56.5-.86.74c-.6.5-1.13,1-1.76,1.45-3.91,3-7.92,5.75-13.39,5.75ZM29.06,11.44a10.93,10.93,0,0,1,1-.85,38.81,38.81,0,0,1,5.29,0,5.92,5.92,0,0,1-1,.93c-.53.45-.89.27-1.72.2C31.47,11.63,30.2,11.58,29.06,11.44Zm2-1.61a11,11,0,0,1,1-.9c.43-.36,1-.25,1.7-.26,1.3,0,2.6-.06,3.9-.05-.13.22,0,0-.14.19a2.06,2.06,0,0,1-.16.15c-.89.74-.9.94-1.52,1L31,9.83ZM28.3,11.09c-.08-1-.1-2-.17-3.06-.05-.78,0-.7.42-1.08s.44-.57.88-.77c.06,1,.12,2.08.2,3.12.06.8.08.73-.44,1.12A4.72,4.72,0,0,1,28.3,11.09Zm5-3.1c.22-.25,2.22-2,2.73-2,1.31-.06,3.27.09,4.63.15L38.77,7.75C38.29,8.12,34,8,33.26,8ZM30.31,9.43c0-.58-.3-3.43-.23-3.78a10.29,10.29,0,0,1,2-2c0,1.24,0,2.51,0,3.75,0,.74-.27.83-.69,1.16a7.61,7.61,0,0,1-1.1.84Zm2.45-6.15c0-.55,1.46-1.69,1.86-2l.61,4.13c-.2.22-2.26,1.88-2.46,2V3.28Zm-4.53,8.77c1.69.1,3.42.24,5.12.38.58,0,.74.16,1.09-.14L39.53,8c.45-.4,1-.86,1.48-1.25a10.86,10.86,0,0,0,1.35-1.21L35.91,5.3,35.05,0a4,4,0,0,0-1,.88L29.34,5.3c-.74.65-1.27,1.26-1.9,1.75,0,1,.32,3.53.19,4.33-.08.52-1.77,2-2.19,2.34-.59-.1-1.66-.55-2.33-.76C17.57,11.28,10.34,9.9,4.9,12,2.18,13-.52,15.25.09,19.12c.52,3.37,3.71,4.75,7.45,4.75,4.89,0,7.17-1.24,10.59-3.3a51,51,0,0,0,5.76-4.33c.62-.55,1.14-1.07,1.74-1.55a31.16,31.16,0,0,1,5.05,2.16l-2.22,1.79c-1.25,1.07-5.35,4.87-6,6-.61-.26-.88-1.18-1.45-1.58-.41.39-5.43,7.75-5.58,8.17l8.91-3.89c-.27-.68-1.19-1.43-1.43-2.08a57.57,57.57,0,0,1,4.84-4.94l1.73-1.47c.46-.38.76-.61,1.21-1s.68-.75,1.28-.48c7.78,3.46,19.42,8.86,24.81,0a5.09,5.09,0,0,0,1.07-3.26c-.27-3.46-5.28-4.53-8.29-4.53A27.69,27.69,0,0,0,36.67,13.1a43.35,43.35,0,0,0-4.91,3c-.44.29-.78-.07-1.32-.31L26.33,14l1.9-2Z"/><path class="cls-1" d="M33.26,8c.73,0,5,.13,5.51-.24L40.62,6.1C39.26,6,37.3,5.89,36,6c-.51,0-2.51,1.79-2.73,2Z"/><path class="cls-1" d="M32.76,3.28V7.42c.2-.09,2.26-1.75,2.46-2l-.61-4.13c-.4.27-1.86,1.41-1.86,2Z"/><path class="cls-1" d="M30.31,9.43a7.61,7.61,0,0,0,1.1-.84c.42-.33.69-.42.69-1.16,0-1.24,0-2.51,0-3.75a10.29,10.29,0,0,0-2,2c-.07.35.18,3.2.23,3.78Z"/><path class="cls-1" d="M31,9.83l4.79.09c.62,0,.63-.22,1.52-1a2.06,2.06,0,0,0,.16-.15c.14-.15,0,0,.14-.19-1.3,0-2.6,0-3.9.05-.74,0-1.27-.1-1.7.26a11,11,0,0,0-1,.9Z"/><path class="cls-1" d="M29.06,11.44c1.14.14,2.41.19,3.55.27.83.07,1.19.25,1.72-.2a5.92,5.92,0,0,0,1-.93,38.81,38.81,0,0,0-5.29,0A10.93,10.93,0,0,0,29.06,11.44Z"/><path class="cls-1" d="M28.3,11.09a4.72,4.72,0,0,0,.89-.67c.52-.39.5-.32.44-1.12-.08-1-.14-2.1-.2-3.12-.44.2-.51.46-.88.77s-.47.3-.42,1.08C28.2,9.06,28.22,10.07,28.3,11.09Z"/><path class="cls-3" d="M23.3,27A5.18,5.18,0,0,0,22.52,26a33.81,33.81,0,0,0-3.3,2.87L23.3,27Z"/></g></g></g></svg>