<svg xmlns="http://www.w3.org/2000/svg" viewBox="0 0 41.17 26.41"><defs><style>.cls-1{fill:#2b2a29;fill-rule:evenodd;}</style></defs><g id="Слой_2" data-name="Слой 2"><g id="Слой_1-2" data-name="Слой 1"><path class="cls-1" d="M35,8.93a.91.91,0,0,1,.95-.86.91.91,0,0,1,.94.86V9h0V9h0V9h0v0h0v0h0v0h0v0h0v0h-.38a6.14,6.14,0,0,1,1.43.6h0a.91.91,0,0,1,1-.85.9.9,0,0,1,.94.85v0h0v0h0v0h0v0h0v0h0v0h0v0H39.6v0h0v0h-.81a3.78,3.78,0,0,1,.8,1.15h.65a.86.86,0,1,1,0,1.72h-.35a4.64,4.64,0,0,1-.13,1.2H40a.86.86,0,1,1,0,1.71h-.75c0,.06,0,.12-.08.17-.26.51-.5.94-.73,1.31h.62v0h0l0,0h0v0h0v0h0l0,0h0v0h.11v0h0v0h0v0h0v0h0v0h0v0h0v0h0v0a.91.91,0,0,1-1,.85h-.51l0,0h-.25v0h0v0c-1.44,1.76-2.31,1.69-3.28,7.53H6.91c-1-5.85-1.84-5.77-3.29-7.53h0v0H2.77a.9.9,0,0,1-.94-.85v0h0v0h0v0h0v0h0v0h0v0h0v0h0v0h.27l0,0h0l0,0h.54c-.22-.37-.46-.8-.72-1.31l-.09-.18H1.17a.86.86,0,1,1,0-1.71h.27a4.83,4.83,0,0,1-.13-1.22H.94a.86.86,0,1,1,0-1.72h.67A3.62,3.62,0,0,1,2.4,11H1.74v0h0v0H1.64v0h0v0h0v0h0v0h0v0h0v0h0v0h0v0h0v0h0v0h0v0h0v0h0v0h0v0h0v0h0v0h0v0h0v-.05a.91.91,0,0,1,1-.85.9.9,0,0,1,.94.85h0a6.71,6.71,0,0,1,1.44-.61h0l0,0H4.5v0h0v0h0v0H4.34v0h0v0h0v0h0V9h0v0a.91.91,0,0,1,1-.86.91.91,0,0,1,.94.86H6a10.46,10.46,0,0,1,2-.07H7.82a.91.91,0,0,1,.94-.86.91.91,0,0,1,1,.86V9h0V9h0v0H9.5v0H9.43a14.34,14.34,0,0,1,1.83.45l0,0H10.7v0h0v0h0v0h-.11v0h0v0h0v0h0v0h0v0h0v0h0v0a.91.91,0,0,1,1-.86.91.91,0,0,1,.94.86h0a7.53,7.53,0,0,1,.95-.45h-.38v0h0v0h0v0h0v0h0v0h0v0h0V8h0a.91.91,0,0,1,.95-.86.9.9,0,0,1,.94.86h-.13a8.94,8.94,0,0,1,1.4-.16h-.11A.91.91,0,0,1,16.71,7a.91.91,0,0,1,.95.86h-.17a14,14,0,0,1,1.82.37,2.27,2.27,0,0,1-.07-4.05l0-.34c0-.49.42-.7.44-1.1-.78,0-.78.38-1.86.39V1.06c1.08,0,1.28.46,1.75.5l.1-.07c-.06-.39-.53-.62-.54-1.49H22c0,.87-.48,1.1-.54,1.49l.1.07c.47,0,.67-.49,1.75-.5V3.62c-1.08,0-1.08-.36-1.85-.39,0,.4.42.61.43,1.1l0,.34a2.27,2.27,0,0,1-.07,4.05,13.86,13.86,0,0,1,1.81-.37h-.17a.95.95,0,0,1,1.89,0h-.11a8.82,8.82,0,0,1,1.39.16h-.13a.91.91,0,0,1,.95-.85.9.9,0,0,1,.94.85V8h0v0h0v0h0v0h0v0h0v0h0v0H27.9a5.78,5.78,0,0,1,.94.44h0a.9.9,0,0,1,.94-.86.91.91,0,0,1,.95.86v0h0v0h0v0h0v0h0v0h0v0h0v0h0v0h0v0h0v0h-.07l0,0v0h-.19l0,0H29.9l0,0a15.58,15.58,0,0,1,1.82-.45h-.28V9h0v0a.91.91,0,0,1,.95-.86.91.91,0,0,1,.94.86h-.13a10.49,10.49,0,0,1,2,.07h0v0h0v0H35V9h0ZM2.75,18.15a.34.34,0,1,1,0,.67.34.34,0,1,1,0-.67ZM1.16,15.3a.34.34,0,1,1,0,.67.34.34,0,1,1,0-.67ZM.94,12.48a.34.34,0,0,1,.36.33.35.35,0,0,1-.36.33.35.35,0,0,1-.37-.33A.34.34,0,0,1,.94,12.48ZM2.38,9.8a.34.34,0,1,1,0,.67.34.34,0,1,1,0-.67ZM5.23,8.58a.34.34,0,1,1-.37.34A.36.36,0,0,1,5.23,8.58Zm3.53,0a.34.34,0,1,1-.36.33A.35.35,0,0,1,8.76,8.56Zm2.63.2a.34.34,0,1,1-.37.33A.36.36,0,0,1,11.39,8.76Zm2.26-1.15a.34.34,0,1,1,0,.67.34.34,0,1,1,0-.67Zm3.07-.15a.35.35,0,0,1,.36.33.37.37,0,0,1-.73,0A.35.35,0,0,1,16.72,7.46ZM38.43,18.15a.34.34,0,1,0,0,.67.34.34,0,1,0,0-.67ZM40,15.3a.34.34,0,1,0,.37.34A.36.36,0,0,0,40,15.3Zm.22-2.82a.35.35,0,0,0-.37.33.37.37,0,0,0,.74,0A.35.35,0,0,0,40.25,12.48ZM38.8,9.8a.34.34,0,1,0,0,.67.34.34,0,1,0,0-.67ZM36,8.58a.34.34,0,1,0,0,.67.34.34,0,1,0,0-.67Zm-3.54,0a.34.34,0,1,0,.37.33A.36.36,0,0,0,32.42,8.56Zm-2.62.2a.34.34,0,1,0,.36.33A.35.35,0,0,0,29.8,8.76ZM27.54,7.61a.34.34,0,1,0,0,.67.34.34,0,1,0,0-.67Zm-3.07-.15a.36.36,0,0,0-.37.33.37.37,0,0,0,.74,0A.36.36,0,0,0,24.47,7.46ZM7.85,23.34a.74.74,0,1,1-.81.74A.77.77,0,0,1,7.85,23.34Zm3.18,0a.74.74,0,1,1,0,1.48.74.74,0,1,1,0-1.48Zm3.19,0a.74.74,0,1,1,0,1.48.74.74,0,1,1,0-1.48Zm3.18,0a.74.74,0,1,1,0,1.48.74.74,0,1,1,0-1.48Zm6.39,0a.74.74,0,1,1,0,1.48.74.74,0,1,1,0-1.48Zm3.21,0a.74.74,0,1,1,0,1.48.74.74,0,1,1,0-1.48Zm3.21,0a.74.74,0,1,1,0,1.48.74.74,0,1,1,0-1.48Zm-9.63,0a.74.74,0,1,1,0,1.48.74.74,0,1,1,0-1.48Zm12.84,0a.74.74,0,1,1,0,1.48.74.74,0,1,1,0-1.48ZM20.58,1.6a.85.85,0,0,1,.89.81.85.85,0,0,1-.89.8.84.84,0,0,1-.88-.8A.84.84,0,0,1,20.58,1.6Zm11.06,9.24a1,1,0,0,0-.73.3,6.48,6.48,0,0,0-.5-.67c2.31-.43,5.33-.45,6.6.93,2.53,2.75-1.43,8.8-3.94,9.55l-.14-1h0a.4.4,0,0,0,.41-.37.42.42,0,0,0-.06-.19.35.35,0,0,0,.11,0l.71.6.7-.47-.2-.81h-.86s0,0,0-.06l.56-.6-.52-.64-.92.19.06.81-.06,0h0l-.62-.53-.75.48.16.78,1,0h0a.4.4,0,0,0,.1.12.38.38,0,0,0-.24.34.33.33,0,0,0,.13.26C31.92,21,29.92,22,29.56,21.83a15.57,15.57,0,0,0,2.06-4.53,1,1,0,0,0,.67.25.86.86,0,1,0,0-1.71,1.07,1.07,0,0,0-.41.08,8.29,8.29,0,0,0,.06-1.1,1,1,0,0,0,.35.06.86.86,0,1,0,0-1.71,1.06,1.06,0,0,0-.5.13,5.89,5.89,0,0,0-.2-.75h.05a.86.86,0,1,0,0-1.71Zm0,.52a.36.36,0,0,0-.38.34.29.29,0,0,0,0,.09l0,.08a.36.36,0,0,0,.32.16.34.34,0,1,0,0-.67Zm.65,2.33a.34.34,0,1,0,0,.67.34.34,0,1,0,0-.67Zm0,2.67a.34.34,0,1,0,0,.67.34.34,0,1,0,0-.67ZM8.88,15.84a1,1,0,0,1,.43.09,8.63,8.63,0,0,1-.07-1.12.88.88,0,1,1-.37-1.64,1,1,0,0,1,.53.14,6.53,6.53,0,0,1,.2-.76H9.53a.86.86,0,1,1,0-1.71.94.94,0,0,1,.73.32,6.92,6.92,0,0,1,.52-.69C8.46,10,5.45,10,4.18,11.4,1.65,14.15,5.61,20.2,8.12,21l.14-1a.38.38,0,0,1-.38-.37.33.33,0,0,1,.06-.19.53.53,0,0,1-.12,0l-.7.6-.7-.47.2-.81h.85l0-.06-.56-.6.53-.65.91.2-.06.81.07,0h0L9,17.93l.75.48-.16.78-1,0h0a.43.43,0,0,1-.11.12.36.36,0,0,1,.24.34.35.35,0,0,1-.14.28C9.28,21,11.27,22,11.63,21.83a15.83,15.83,0,0,1-2.07-4.55,1,1,0,0,1-.68.27.86.86,0,1,1,0-1.71Zm0,.52a.34.34,0,1,1,0,.67.34.34,0,1,1,0-.67Zm0-2.67A.34.34,0,1,1,8.5,14,.35.35,0,0,1,8.87,13.69Zm.66-2.33a.34.34,0,1,1,0,.67.34.34,0,1,1,0-.67ZM8,18.67a.26.26,0,1,1,0,.52.26.26,0,1,1,0-.52Zm7.2-.71a.44.44,0,0,1,.29.41.43.43,0,0,1-.2.35.67.67,0,0,0,.11.14,5,5,0,0,0,3.07,1.61c-.62-3.91-.86-6.85.84-11C16.6,9.15,14,9.61,12.76,11c-2.58,3-1.35,8.87.72,9.81,0,0,1.37.5,1.54-2a.47.47,0,0,1-.48-.45.41.41,0,0,1,.07-.22l-.14,0-.85.73-.84-.57.23-1,1,0a.3.3,0,0,1,0-.08l-.68-.72.63-.78,1.11.23-.07,1,.08,0h0l.75-.64.91.58-.2.94-1.25,0h0a.57.57,0,0,1-.12.15Zm-.5-.75a.32.32,0,1,1-.35.32A.33.33,0,0,1,14.74,17.21Zm18.44,1.46a.26.26,0,1,0,0,.52.26.26,0,1,0,0-.52ZM25.94,18a.44.44,0,0,0-.29.41.42.42,0,0,0,.21.36l-.11.13a5,5,0,0,1-3.07,1.61c.62-3.91.86-6.85-.84-11,2.74-.33,5.36.13,6.58,1.56,2.59,3,1.36,8.87-.71,9.81,0,0-1.38.5-1.54-2a.46.46,0,0,0,.46-.44.35.35,0,0,0-.07-.23l.14,0,.86.73.84-.57-.24-1-1,0,0-.08.68-.72-.64-.78L26,15.94l.07,1L26,17h0l-.76-.64-.91.58.2.94,1.26,0h0a.93.93,0,0,0,.13.15Zm.5-.75a.32.32,0,1,0,.35.32A.34.34,0,0,0,26.44,17.21Z"/></g></g></svg>