<svg xmlns="http://www.w3.org/2000/svg" viewBox="0 0 46.54 37.91"><defs><style>.cls-1{fill:#0a0b0d;}.cls-1,.cls-2{fill-rule:evenodd;}.cls-2{fill:#fff;}</style></defs><g id="Слой_2" data-name="Слой 2"><g id="Слой_1-2" data-name="Слой 1"><g id="_3015346150288" data-name=" 3015346150288"><path class="cls-1" d="M8.91,31.15c.67-.06,1.92-.06,2.52-.18.91-.2,1.63-.26,2.58-.5a18.55,18.55,0,0,0,5.54-2.66c.41-.28.48-.31,1.27-.14a5.85,5.85,0,0,0,1.25.09,15,15,0,0,0,3.74.06c1.24-.12,2.67-.43,3.91-.63,0,.43-.7,1-1,1.32a20.15,20.15,0,0,1-4.22,3.75c-1.14.69-2.18,1.33-3.36,1.92a16.71,16.71,0,0,1-3.3,1.34,12.87,12.87,0,0,1-3.13.77,15.57,15.57,0,0,1-3,.08c-.48-.09-.89,0-1.36-.52C9.5,34.92,8.66,32,8.91,31.15ZM28,19.83a1.45,1.45,0,0,1,.57-1.11c.22.1,1,.29.63.67A1.2,1.2,0,0,1,28,19.83Zm-8.89,1.45.07-.75a4.92,4.92,0,0,1,.16-.8c.37-1.55,1.92-3.24,3-4.43.56-.6.82-1,1.6-1.06a11.21,11.21,0,0,1,4,.38c.34.09.52.11.64.54.45,1.58-1.36,5.4-3,5.85a13.1,13.1,0,0,1-4.17.65,12.36,12.36,0,0,1-2.38-.38Zm3.15-6.71a24.37,24.37,0,0,0-1.93,2.22c-.47.58-.55,1.3-2.13-.31-.89-.91-.39-1,1.37-1.45a11.67,11.67,0,0,1,2-.45c.52-.09.47-.16.7,0ZM19.37,27.19a17.78,17.78,0,0,1-3.71,2.07,16.25,16.25,0,0,1-7,1.32l-1-.09A8.66,8.66,0,0,1,5.35,30a3.1,3.1,0,0,1,0-1.71,16.48,16.48,0,0,1,2.37-4.82,24.14,24.14,0,0,1,6.32-5.93c.34.6-.4,4.18,4.32,8.6l.79.72C19.38,27.07,19.34,27,19.37,27.19ZM31.06,14c.3-1.44-4-4.92-4.32-5.47a12,12,0,0,1,3.82,3.72c.73,1.07,2.84,4,2.81,5a1,1,0,0,1-.95.27c-.22-.22-.49-.72-.75-1a5.44,5.44,0,0,0-2.53-2,4.27,4.27,0,0,0-.92-.28,8.26,8.26,0,0,0-2.85-.6l-2,0a18.12,18.12,0,0,0-6.21,1.58,26,26,0,0,0-8.23,6C7.33,23.07,5,26.67,4.74,28.41a3.43,3.43,0,0,0-.11.46,11.59,11.59,0,0,0,.44,3.45c.55,1.92,1.28,2.41,2.79,3.26a10.59,10.59,0,0,0,2.69,1.12,13.08,13.08,0,0,0,4.94-.07A25.79,25.79,0,0,0,24,33.22a25.29,25.29,0,0,0,6.27-5.84c.23-.36.33-.54.84-.51l-.05.29a1.13,1.13,0,0,1-.13.27,35.82,35.82,0,0,1-3.15,3.63,20.85,20.85,0,0,1-5.15,3.63A24.28,24.28,0,0,1,15,37.23l-3.6.21-2.28-.32a13.18,13.18,0,0,1-3.32-1.4,8.39,8.39,0,0,1-1.89-2.38c-1.46-2.19-3.45-6-3.27-8.72a5.94,5.94,0,0,1,.1-1.17A5.09,5.09,0,0,1,1.13,26a5.58,5.58,0,0,0,.79,2.58c.34.62,1.21,2.36,1.89,2.24s.52-1.67.55-2.32a7.13,7.13,0,0,1,.17-1.18,7.5,7.5,0,0,1,1.79-3.45,31.22,31.22,0,0,1,4-4.4,31.37,31.37,0,0,1,2.52-2.09,25.87,25.87,0,0,1,8.35-4.09,11.23,11.23,0,0,1,5-.37,12.25,12.25,0,0,1,4.19,1c.36.17.37.22.61.15ZM1.18,21.71c.12-.26.11-.54.22-.84a9.71,9.71,0,0,1,.68-1.64,15,15,0,0,1,2.6-3.82C6.81,12.86,12.16,9,15.5,8a15.5,15.5,0,0,1,5.29-.88,10.15,10.15,0,0,1,3.33.45,3.54,3.54,0,0,1,1.62.58c-.55.76.2.81-.12,1.57-.2.49-1.13.86-1.6,1a31.44,31.44,0,0,0-3.42,1C16.46,13.24,9.68,16.28,7,19.85a21.5,21.5,0,0,0-1.9,2.9c-.3.54-.44,1-.68,1.5-.56,1.15-.91,1.29-.91,1.29l-.11,0c-1.15-.74-1.18-3.45-1.63-4l-.54.09Zm13.43-4.44.51-.25c.25.41.54,1.57.79,2.13a5.42,5.42,0,0,0,1.55,1.74,3.76,3.76,0,0,0,1.8,1,5.83,5.83,0,0,0,1.94.32c2.07.13,6.28-1.15,8.42-2.12A28.17,28.17,0,0,0,39.9,12.62a16,16,0,0,0,1.15-1.81A15.41,15.41,0,0,0,42.24,8c.11-.3.34-.83-.17-.84-.1,0-.19.35-.24.54s-.19.46-.28.68c-.18.46-.37.85-.59,1.31a16.67,16.67,0,0,1-3.86,5,18.88,18.88,0,0,1-3.16,2.17,31.74,31.74,0,0,0-3.16-5.58c-.42-.55-1.1-1.22-1.43-1.72.77-.32,1.67-1.06,3.44-1.79a17.73,17.73,0,0,1,4.86-1.4,10.46,10.46,0,0,1,3.83.11,2.41,2.41,0,0,0,.78.16c1.06-1-.51-3.8-1.77-4.62C38.62.89,35.17.73,36.1,1.57c.2.18,1.37.37,1.87,1.45a5.64,5.64,0,0,1,.58,2.65c-.2.11-1.94.32-2.38.42A24.69,24.69,0,0,0,31.23,7.8c-3.3,1.74-2.1,1.35-3.78.43a21.64,21.64,0,0,0-3.69-1.31c-.13,0-.21-.07-.34-.11a14.36,14.36,0,0,1,1.49-1.1,23.18,23.18,0,0,1,9.54-3.88c.46-.07.91,0,1.2-.45-.24-.46-.58-.28-1.07-.23a24.59,24.59,0,0,0-6.3,2c-.89.43-1.76,1-2.65,1.31l.06-.1a3.69,3.69,0,0,1,1-.59A34.48,34.48,0,0,1,30,2.18,24.7,24.7,0,0,1,34.29.92,10.44,10.44,0,0,1,36.81.74a2.71,2.71,0,0,0,.49,0,4,4,0,0,0,.48,0l2.46.38C42.5,1.78,43.94,4,45,6a9.67,9.67,0,0,1,1,4.17A19.5,19.5,0,0,1,44.91,14c-1.57,4.3-6,7.92-10,10.31a20,20,0,0,1-4.44,2,28.72,28.72,0,0,1-4.73,1c-.15,0-.3,0-.49,0a12.51,12.51,0,0,1-4.94-.4,7.52,7.52,0,0,1-1.77-1.43c-2-2-4.08-5.29-4-8.22ZM7.09,12.36A24.5,24.5,0,0,0,4,15.41a21.94,21.94,0,0,0-2.12,3.21L.45,22.37a7.21,7.21,0,0,0-.39,2.11c0,.29,0,.57-.06.91,0,1.35,2,6.08,3,7.43.87,1.18,1.66,2.69,2.86,3.42a11.37,11.37,0,0,0,1.59.81,14.09,14.09,0,0,0,4.26.85,28.91,28.91,0,0,0,4.53-.42,25.1,25.1,0,0,0,9.73-4.21,27,27,0,0,0,4.65-4.59,14.53,14.53,0,0,0,1.17-1.57c.56-1,.43-.62,1.63-1.22A33.26,33.26,0,0,0,41,20.46,19.26,19.26,0,0,0,42.53,19a17.84,17.84,0,0,0,3-4.87l.55-1.66A7.53,7.53,0,0,0,46,7.15c-.88-2.46-2.59-5.34-5-6.41A7.9,7.9,0,0,0,37.59,0,16,16,0,0,0,34,.37,27.51,27.51,0,0,0,22.36,5.79c-1.45,1.2-.81.61-3.53.93a13.33,13.33,0,0,0-3.74.91,17.49,17.49,0,0,0-3.94,1.88,43.37,43.37,0,0,0-4.06,2.85Z"/><path class="cls-2" d="M22.83,25.43a17.09,17.09,0,0,0,3.42,0c.35,0,.76-.09,1.15-.14a18.1,18.1,0,0,0,2.35-.54,17.3,17.3,0,0,0,3.73-1.55c.5-.28.84-.55,1.31-.85a34.5,34.5,0,0,0,4.73-3.82c2.58-2.49,4.25-4.92,4.87-8.26a7.22,7.22,0,0,0-.31-3.43c-.14-.5-.36-.94-.27-1.14.3-.07.32.09.57.33a5.11,5.11,0,0,1,.52.52c.86,1,.78,3.59.49,4.93l-1.33,3.42a22.77,22.77,0,0,1-3.17,4.41,26.55,26.55,0,0,1-5,4,22.52,22.52,0,0,1-10.58,3.58,3.31,3.31,0,0,1-.63,0c-.27,0-.42.05-.64,0s-.35-.08-.61-.1-.35,0-.59,0-.38-.08-.61-.1a6,6,0,0,1-3.9-1.87c-.49-.49-1.76-1.81-1.65-2.41.28-.17.32-.08.53.16A8.36,8.36,0,0,0,20.62,25a12.16,12.16,0,0,0,2.21.4Zm-8.22-8.16c-.12,2.93,2,6.21,4,8.22a7.52,7.52,0,0,0,1.77,1.43,12.51,12.51,0,0,0,4.94.4c.19,0,.34,0,.49,0a28.72,28.72,0,0,0,4.73-1,20,20,0,0,0,4.44-2c4-2.39,8.4-6,10-10.31A19.5,19.5,0,0,0,46,10.19,9.67,9.67,0,0,0,45,6c-1-2-2.46-4.24-4.72-4.86L37.78.78a4,4,0,0,1-.48,0,2.71,2.71,0,0,1-.49,0,10.44,10.44,0,0,0-2.52.18A24.7,24.7,0,0,0,30,2.18a34.48,34.48,0,0,0-3.34,1.6,3.69,3.69,0,0,0-1,.59l-.06.1c.89-.36,1.76-.88,2.65-1.31a24.59,24.59,0,0,1,6.3-2c.49,0,.83-.23,1.07.23-.29.44-.74.38-1.2.45a23.18,23.18,0,0,0-9.54,3.88,14.36,14.36,0,0,0-1.49,1.1c.13,0,.21.08.34.11a21.64,21.64,0,0,1,3.69,1.31c1.68.92.48,1.31,3.78-.43a24.69,24.69,0,0,1,4.94-1.71c.44-.1,2.18-.31,2.38-.42A5.64,5.64,0,0,0,38,3c-.5-1.08-1.67-1.27-1.87-1.45-.93-.84,2.52-.68,4.39.53,1.26.82,2.83,3.58,1.77,4.62a2.41,2.41,0,0,1-.78-.16,10.46,10.46,0,0,0-3.83-.11,17.73,17.73,0,0,0-4.86,1.4c-1.77.73-2.67,1.47-3.44,1.79.33.5,1,1.17,1.43,1.72a31.74,31.74,0,0,1,3.16,5.58,18.88,18.88,0,0,0,3.16-2.17,16.67,16.67,0,0,0,3.86-5c.22-.46.41-.85.59-1.31.09-.22.22-.49.28-.68s.14-.5.24-.54c.51,0,.28.54.17.84a15.41,15.41,0,0,1-1.19,2.77,16,16,0,0,1-1.15,1.81A28.17,28.17,0,0,1,29.62,20.1c-2.14,1-6.35,2.25-8.42,2.12a5.83,5.83,0,0,1-1.94-.32,3.76,3.76,0,0,1-1.8-1,5.42,5.42,0,0,1-1.55-1.74c-.25-.56-.54-1.72-.79-2.13l-.51.25Z"/><path class="cls-2" d="M1.18,21.71l.54-.09c.45.51.48,3.22,1.63,4l.11,0s.35-.14.91-1.29c.24-.5.38-1,.68-1.5A21.5,21.5,0,0,1,7,19.85c2.73-3.57,9.51-6.61,13.65-8.14a31.44,31.44,0,0,1,3.42-1c.47-.11,1.4-.48,1.6-1,.32-.76-.43-.81.12-1.57a3.54,3.54,0,0,0-1.62-.58,10.15,10.15,0,0,0-3.33-.45A15.5,15.5,0,0,0,15.5,8c-3.34,1-8.69,4.83-10.82,7.38a15,15,0,0,0-2.6,3.82,9.71,9.71,0,0,0-.68,1.64C1.29,21.17,1.3,21.45,1.18,21.71Z"/><path class="cls-2" d="M8.91,31.15c-.25.8.59,3.77,1.42,4.7.47.52.88.43,1.36.52a15.57,15.57,0,0,0,3-.08,12.87,12.87,0,0,0,3.13-.77,16.71,16.71,0,0,0,3.3-1.34c1.18-.59,2.22-1.23,3.36-1.92a20.15,20.15,0,0,0,4.22-3.75c.28-.31,1-.89,1-1.32-1.24.2-2.67.51-3.91.63a15,15,0,0,1-3.74-.06,5.85,5.85,0,0,1-1.25-.09c-.79-.17-.86-.14-1.27.14A18.55,18.55,0,0,1,14,30.47c-.95.24-1.67.3-2.58.5C10.83,31.09,9.58,31.09,8.91,31.15Z"/><path class="cls-2" d="M19.37,27.19c0-.21,0-.12-.19-.31l-.79-.72c-4.72-4.42-4-8-4.32-8.6a24.14,24.14,0,0,0-6.32,5.93,16.48,16.48,0,0,0-2.37,4.82,3.1,3.1,0,0,0,0,1.71,8.66,8.66,0,0,0,2.32.47l1,.09a16.25,16.25,0,0,0,7-1.32A17.78,17.78,0,0,0,19.37,27.19Z"/><path class="cls-2" d="M31.06,14c-.24.07-.25,0-.61-.15a12.25,12.25,0,0,0-4.19-1,11.23,11.23,0,0,0-5,.37,25.87,25.87,0,0,0-8.35,4.09,31.37,31.37,0,0,0-2.52,2.09,31.22,31.22,0,0,0-4,4.4,7.5,7.5,0,0,0-1.79,3.45,7.13,7.13,0,0,0-.17,1.18c0,.65,0,2.22-.55,2.32s-1.55-1.62-1.89-2.24A5.58,5.58,0,0,1,1.13,26a5.09,5.09,0,0,0-.36-2.5,5.94,5.94,0,0,0-.1,1.17c-.18,2.77,1.81,6.53,3.27,8.72a8.39,8.39,0,0,0,1.89,2.38,13.18,13.18,0,0,0,3.32,1.4l2.28.32,3.6-.21a24.28,24.28,0,0,0,7.62-2.54,20.85,20.85,0,0,0,5.15-3.63A35.82,35.82,0,0,0,31,27.43a1.13,1.13,0,0,0,.13-.27l.05-.29c-.51,0-.61.15-.84.51A25.29,25.29,0,0,1,24,33.22a25.79,25.79,0,0,1-8.53,3.41,13.08,13.08,0,0,1-4.94.07,10.59,10.59,0,0,1-2.69-1.12c-1.51-.85-2.24-1.34-2.79-3.26a11.59,11.59,0,0,1-.44-3.45,3.43,3.43,0,0,1,.11-.46C5,26.67,7.33,23.07,9,21.26a26,26,0,0,1,8.23-6,18.12,18.12,0,0,1,6.21-1.58l2,0a8.26,8.26,0,0,1,2.85.6,4.27,4.27,0,0,1,.92.28,5.44,5.44,0,0,1,2.53,2c.26.3.53.8.75,1a1,1,0,0,0,.95-.27c0-1.08-2.08-4-2.81-5a12,12,0,0,0-3.82-3.72c.31.55,4.62,4,4.32,5.47Z"/><path class="cls-1" d="M43.81,5.67c-.09.2.13.64.27,1.14a7.22,7.22,0,0,1,.31,3.43c-.62,3.34-2.29,5.77-4.87,8.26a34.5,34.5,0,0,1-4.73,3.82c-.47.3-.81.57-1.31.85a17.3,17.3,0,0,1-3.73,1.55,18.1,18.1,0,0,1-2.35.54c-.39,0-.8.11-1.15.14a17.09,17.09,0,0,1-3.42,0,12.16,12.16,0,0,1-2.21-.4,8.36,8.36,0,0,1-3.46-2.43c-.21-.24-.25-.33-.53-.16-.11.6,1.16,1.92,1.65,2.41a6,6,0,0,0,3.9,1.87c.23,0,.4.1.61.1s.35,0,.59,0,.35.06.61.1.37,0,.64,0a3.31,3.31,0,0,0,.63,0,22.52,22.52,0,0,0,10.58-3.58,26.55,26.55,0,0,0,5-4,22.77,22.77,0,0,0,3.17-4.41l1.33-3.42c.29-1.34.37-3.9-.49-4.93A5.11,5.11,0,0,0,44.38,6c-.25-.24-.27-.4-.57-.33Z"/><path class="cls-2" d="M19.08,21.28a12.36,12.36,0,0,0,2.38.38A13.1,13.1,0,0,0,25.63,21c1.6-.45,3.41-4.27,3-5.85-.12-.43-.3-.45-.64-.54a11.21,11.21,0,0,0-4-.38c-.78,0-1,.46-1.6,1.06-1.11,1.19-2.66,2.88-3,4.43a4.92,4.92,0,0,0-.16.8l-.07.75Z"/><path class="cls-2" d="M22.23,14.57c-.23-.15-.18-.08-.7,0a11.67,11.67,0,0,0-2,.45c-1.76.5-2.26.54-1.37,1.45,1.58,1.61,1.66.89,2.13.31a24.37,24.37,0,0,1,1.93-2.22Z"/></g></g></g></svg>