<svg xmlns="http://www.w3.org/2000/svg" viewBox="0 0 20.7 29.43"><defs><style>.cls-1{fill:#050608;}.cls-1,.cls-2{fill-rule:evenodd;}.cls-2{fill:#101113;}</style></defs><g id="Слой_2" data-name="Слой 2"><g id="Слой_1-2" data-name="Слой 1"><g id="_3015348740640" data-name=" 3015348740640"><path class="cls-1" d="M20.13,13.79c-.14-.12-.18.11-.35-.51C20.19,13.53,20,13.3,20.13,13.79ZM12.24,5.31c-.41,0-.28,0-.55-.16C12.05,4.67,12.11,4.71,12.24,5.31Zm-.61-.49c-.66-.43-.41-.66-.41-.68l.55,0s.35.12.39.12c-.16.42-.17.5-.53.61Zm.15-2.61-.13.34-.21-.21c.08-.59,0-.56.26-.91C12.18,1.6,11.93,1.63,11.78,2.21Zm-.27,3.28c.35.13.09-.38.35.31-.7.48-.71.09-1.61.27-1.48.29-1.44.76-2,1a8.15,8.15,0,0,1-.82.25c-2.17.53-1.91.74-3.78,1.43-.91.34-.26.5-1.2.8-1.1.34-1.72.31-2.44.63.41.88,0-.44.43.49l.67-.17c-.26.54-.23.14-.31.73.4-.29.23-.36.8-.56.17.77-.38,0,0,.74a6.14,6.14,0,0,1,.85-.53,4.87,4.87,0,0,0,.51-.25c.39-.28.13,0,.33-.33l.08.07.75.44a2.19,2.19,0,0,1,1.55-.72l4.63-1.71a10.51,10.51,0,0,1,.27,2.38c.11.88.28.52,0,1.7-.88,3.37-1,1.7-1.36,5.75-.26,2.45-.94,3-1.39,5.07C7.38,25,6.68,27.34,6.9,29c2.66,1.21,2-.12,1.86-1.43a8.87,8.87,0,0,1,.13-1.82c.15-2.61,1.34-3.29,1.7-4.13l1.63-4.2A5.63,5.63,0,0,1,13,20.2a30,30,0,0,0,.5,3.06c.28,2.41.08,2.21,1.79,3.44.51.37.58.45,1.2.27l.09-1C15.14,25,14.93,24.82,15,22.81c0-3.28.55-3.63.33-6.68a6.57,6.57,0,0,1,.33-1.81A23.25,23.25,0,0,0,15.92,10c.73.27.53.44.88,1,.44.7.67.57,1.33,1.44.36.47.15.17.45.46s.11,0,.35.57a4.55,4.55,0,0,0,.2.53l.36.05c.28.13-.1.08.49.25.11-.23,0,0,.15-.43.33-.14.07.06.23-.18L20.09,13l.1,0,.1-.05.1-.05c.29-.16.1,0,.31-.22a1,1,0,0,1-1-.61l-1.32-1.88c-2.46-2.87-1.13-2.59-3.94-4.05.19-.38.35-.28.65-.88.52-1,0-.21.67-.87s.2-1.51.53-2c1.13.41.29,1.3.14,1.62s0,0-.1.28a1,1,0,0,1-.08.26,2.36,2.36,0,0,0,0,1.79l.49.54.36-.86c.08-.21,0-.1.16-.36s.14-.15.23-.21c0-.43-.14-.71.5-.47-.21-3.53-1-2.37-1.87-3.4C15.51.81,15.93.57,14.79.21A2.31,2.31,0,0,0,12,.78a7.25,7.25,0,0,0-.72.33c-.62.41-1.65,3-1.22,3.82s1.21.3,1.45.56Z"/><path class="cls-2" d="M11.51,5.49c-.78-.22-.14-.11-.4.18C11.87,5.86,11.4,5.9,11.51,5.49Z"/></g></g></g></svg>