<svg xmlns="http://www.w3.org/2000/svg" viewBox="0 0 38.56 32.23"><defs><style>.cls-1,.cls-2,.cls-3{fill-rule:evenodd;}.cls-2{fill:#878787;}.cls-3{fill:#fefefe;}</style></defs><g id="Слой_2" data-name="Слой 2"><g id="Слой_1-2" data-name="Слой 1"><g id="_3015348743040" data-name=" 3015348743040"><path class="cls-1" d="M7.78,23.9a6,6,0,0,0,1.09,2.39,14.15,14.15,0,0,0,3.32,3.22c1.1.58,1.52.15,2.54.37.83.18,1.24.86,1.91,1.21a22.42,22.42,0,0,0,4.85,1,7.26,7.26,0,0,0,2.75,0c1.1-.26,1.2-.83,1.49-1.45s1.08-.9,1.65-1.41a28.17,28.17,0,0,0,2-3.51c.4-.76.85-1.35.63-2,.69-.08.78-.32.65-.92a6.86,6.86,0,0,0-.56-1.47,4.48,4.48,0,0,0-1.69-1.95,7.58,7.58,0,0,1-1.82-1.84,4,4,0,0,0-1.76-1.84c-.93-.45-1.2,0-2.52-.81a4.72,4.72,0,0,0-2.41-.9c-2.64-.08-1.6-.32-2.7-.46-.63-.08-2.4.38-1.78,1.36-.19.13-.15,0-.31.26l-.22.36c-.33.81,1.26,2,1.16,2.56-.39.2-.69-.12-.82.64a9.47,9.47,0,0,1-.13,1.07c-.23.76-1,.79-1.07,1.41l0,.27a4.31,4.31,0,0,0-2.65-.2,28.86,28.86,0,0,0-3,.55c-.55.33-.65,1.26-.52,2Z"/><path class="cls-1" d="M24.87,3.79c-.38.26-.49.09-.54.59S22.8,6.9,22.94,8.28c.07.73,0,.36-.36.76a5.9,5.9,0,0,0-.49,1.58c0,.26.1,0-.07.35-.29.64,1.21,1.41,1.66,1.17a2.11,2.11,0,0,1,.74-.5c.91-.42.68-.64.81-1s.15.19.22-.83c0-.27.05-.19-.12-.35.35-.16.09,0,.26-.29.33-.51.06-.31.33-.91L26,8c0-.29.1-.3.41-.39a14.25,14.25,0,0,1,.43-2.29c.16-.51.28-.45.33-.66a2.25,2.25,0,0,0-.34-.25c.35-.22.22-.42.75-.88.14-.12.06,0,.16-.19a2.32,2.32,0,0,0,.51-2c-.54-1.54-2.31-1.44-3.09.07a2.56,2.56,0,0,0-.28,2.43Z"/><path class="cls-1" d="M32.46,10.71c-.15-.35-.08,0,.19-.32l.11.13c.08-.15.19-.24,0-.42.55-.15.14-.13.38-.56s.85-.67,1-.95,0-.16.15-.3a2,2,0,0,0,.79-1.51c0-1.25-1.07-1.85-2.44-.93a6.14,6.14,0,0,0-1.61,2.2c-.36.79-.3.64.36,1.21-.37,0-.8-.22-1.09.06l-1,2.13c-.16.28-.29.18-.34.41-.07.47.68,1,.89,1.16-.63,0-.9-.63-1.53-.59l.24.49a1.23,1.23,0,0,1-.41-.13c0,.1,0-.11,0,.06s0,0,0,.09c-.35-.11-.54.09-.75.26s-.51.22-.6.57c-.41,1.68,1.37,2.5,2.69,1.12a2.21,2.21,0,0,0,.29-.32,1.53,1.53,0,0,0,.07-.87l.27.11c0-.45.89-.5.77-1.25.41-.22.24,0,.54-.36A4.58,4.58,0,0,0,32.27,11C32.36,10.67,32.17,10.82,32.46,10.71Z"/><path class="cls-1" d="M36.32,17.27c.11-.13.23-.26.38-.41s.14-.23.38-.36a4.38,4.38,0,0,0,.92-.68c1.3-1.53.06-2.67-.91-2.27a7,7,0,0,0-1.13.56,2.49,2.49,0,0,0-1.05,1.8c-.19-.15-.32-.06-.26.2a1.67,1.67,0,0,0,.29.44c-.58-.18-.64-.87-1.35.11-.51.7-.35.32-1.17,1.06-1.28,1.17-1.68,1.2-.84,2.84,1.32.4,5.18-2.27,4.25-3.13.09-.08.05-.05.27,0-.09-.22-.11-.16-.08-.31l.3.15Z"/><path class="cls-1" d="M16.49,4.51c.15.19.15,0,.1.17L16,4.81a17.72,17.72,0,0,0-.35,3.78c0,.65,0,1.28,0,1.93,0,.81.15.48.36.92.12.26-.08.73-.07,1,1.29.05,1.71-.11,1.9-1,.49.08.67-.19.8-.55s-.15,0,.16-.28c-.17-.25,0,0-.25-.2.18-.25.25-.21.22-.64A7.55,7.55,0,0,1,18.82,9c0-.78-.74-.56-1.3-.76a5.51,5.51,0,0,0,.94-.2c.18-.11.09-.09.14-.31a5,5,0,0,0,0-2.56c-.1-.4-.16-.47-.53-.57S16.78,4.22,16.49,4.51Z"/><path class="cls-1" d="M5.53,17.31c-.17-.09-.2,0-.44-.1,0-.18,0-.08.08-.2s.07-.08.07-.21-.14-.35-.22-.55c-.29-.71-.11-1.48-.55-2.3a10.29,10.29,0,0,0-1.11-1c-.21-.21-.13-.16-.46-.24-.51-.12-2.59-1.05-2.88.27-.15.67.64,1.39,1,1.77,1.3,1.28.7,2,2.87,3A2.86,2.86,0,0,0,5,18c.4,0,.41-.2.44-.39l.14-.34Z"/><path class="cls-1" d="M18.71,4.4c.11-.46.3-.23-.09-.79.06-.24.2-.39.23-.61s0-.18,0-.32.09-.15.17-.27A2.36,2.36,0,0,0,18.91.89,1.36,1.36,0,0,0,16.44.7C16,1.42,15.39,3,16.25,4c.38.42,1.92.42,2.46.45Z"/><path class="cls-2" d="M32.46,10.71a.33.33,0,0,1,.14-.09l.16-.1-.11-.13C32.38,10.71,32.31,10.36,32.46,10.71Z"/><path class="cls-3" d="M21.87,21.78c-.29-2.7-2.64-3.51-4.22-2.36a2.77,2.77,0,0,0-1,1.42c-.44,1.29.33,3,.85,4l.45.86a5.8,5.8,0,0,1,.86,3,1.53,1.53,0,0,0,.41-.27,10.19,10.19,0,0,1,3.51-1.24,5.48,5.48,0,0,0,3.31-2C28,22.07,24.15,19.72,21.87,21.78Z"/></g></g></g></svg>