<svg xmlns="http://www.w3.org/2000/svg" viewBox="0 0 45.81 25.29"><defs><style>.cls-1{fill:#030303;fill-rule:evenodd;}</style></defs><g id="Слой_2" data-name="Слой 2"><g id="Слой_1-2" data-name="Слой 1"><g id="_3015348748512" data-name=" 3015348748512"><path class="cls-1" d="M10.56,15.52c1,0,3.06-.31,3.81.15s1.08,2-.08,2.46C12.08,19,9.14,18.11,10.56,15.52Zm-4-4.76c-1.8-1.55-2.36-1.4-4.91-1.45C1,8.61.82,8.65.64,7.63c2.85-.79,4,0,6,1.45,1.7,1.21,1.79,1.06,2,2.06.51,2.06,1,1,1.37,2.8C8.11,13.28,9,12.86,6.55,10.76Zm5.29,2.65c.34.1.25-.3.62,0-.64,1-1.38,1.15-2,0-1.17-2.27-1-1.05-1.09-2.28,1.67-1.05,5.27-2.31,6.88-.34-.76-2.22-3.06-1.45-5-1.59-2.59-3.45,2.45-6,5.3-.77.85,1.55,1.73,3.82-.3,4.65s-3.87-.68-5.12-1.19l.67,1.51ZM17.76,10c-1.1-1.93-.38-1.87-.3-4.18.93.21,2.3.74,3.05.84,1.07.14,2.18-.36,2.91,0,.24.2.09.53.37,1,1.77,3.06-1.43,2.43-3.6,2.56l1.24.44c3.2.84.66-.47,3.12-.18.51,2-.72,2.42-1.43,1.23-.23,1,.36.65-.91.88-4.28.79-5.62-2.89-1.79-4.75-1.34.43-1.8,1.27-2.66,2.13ZM16.5,5.15a1.45,1.45,0,0,0-.12.19,1.42,1.42,0,0,0-.11.18L16,6.28a4.55,4.55,0,0,0-5.81-.82l.58.22c-1.53,1.2-.47,2.85.08,4.15-.72-.36-.87-.74-1.11-1.54a4.75,4.75,0,0,0,.4,2l-1,.18c-.69-.13-2.6-4.07.44-6.56s5.26.4,6.92.61C12.61.33,6.9,2.48,7.67,9,5.87,8.25,2.5,4.94,0,7.73A2.26,2.26,0,0,0,.81,9.25c1.4,1.64-1.29,0,2.26,4.08,2.47,2.87,5.4,7.3,9,8.74a62.73,62.73,0,0,0,6.84,2c2.46.65,4.81,1.71,7.25.89,5.18-1.73,8.2-4.7,11.74-6,4.53-1.65,6.7,0,7.91-.62-3.56-.84-5.11-1.36-8.7.29-1.52.7-5.4,3.39-6.39,3.51-.71.83-2.77,1.58-3.79,2-2.3.88-2.52.9-4.88.19-3.08-.93-6-1.63-9-2.56-4.24-1.32-7-6.41-10.32-9.87C.33,9.45,3.48,9,6.63,11.6c1.63,1.33,1,2.1,3.65,3.12-.83,1.56-1.82,3.52,1.77,4.4,2.48.61,4.78.37,7.3.56.14.85,0,.83.46,1.51l.31-1.79,3.31-.7c.53,1,.87,1.85,1.56,2.2l-.84-2.23c3.14-.48,7,.41,7.89-.37a36.9,36.9,0,0,1-5-.29c-5.33-.17-4.77,1.28-13.57.75,1.61-.28,2.72-1.35,1.64-3-.84-1.26-2.6-.57-4.1-.67a22.54,22.54,0,0,1,4.46-1.43c2-.32,3.81.1,5.73-.2,1.69-.26,3.35-1.13,4.58-1.31.79-.12,1.35.32,2.39.32a17.34,17.34,0,0,0,2.52-.36l1.32-.37c3.51-.37,5.92-1.12,5.81-5.29,1.45-.55,3.5.19,4.66-.32a10.16,10.16,0,0,0-4.71-.51l-.65-2.58c-.47-.23-.7-.82-1.59-1.41A9.4,9.4,0,0,1,37.24,8l-.4-1.58c-.54,1.6.25,2.86-1.4,4-.8.53-3.39,1.42-4.1.61l-.54-.65c0-.08-.08-.1-.12-.14-.37.9.3.62-1.14.45a2.28,2.28,0,0,1,.63.82c-1.24.48-3.08.51-4-.38-1.37-1.32.53.07-.72-1.29-.73-.79-.6-.56-.89-1.87-.94-.38-.6-2.21-.16-3.14a3.61,3.61,0,0,1,2.09-2c-.07-1.14-.19-1.31.58-2l1.14-.2a2.52,2.52,0,0,1,.07.5c.11.43,0,.14.16.4A6.15,6.15,0,0,1,31.39.39c2-.19,2.42.84,3.16.3C32.77-.74,29.3.51,29,.45c-.71-.13-.48-.59-1.83-.19-1.94.57-.6,1.59-1.88,2.71s-1,1.35-1.77,2.79c-.57.53-4,.39-5.26-.07-1.13-.39-.25-.21-1.32-.86.07,1.08.28,2.2-.18,3a5.08,5.08,0,0,1-.25-2.65Z"/><path class="cls-1" d="M31.07,9.82l0-1.15-.56,1c-1.18,0-1.38-.46-1.9.53A4.66,4.66,0,0,0,31.07,9.82Z"/><path class="cls-1" d="M29.76,5.91a2.86,2.86,0,0,0,0,1.13c.29.94.06.23.47.56.45-.41.15.07.21-.78l-.16,0-.13-1.37-.42.43Z"/><path class="cls-1" d="M27.25,9.77c.66.58.28.44,1.07.78-.08-.85.29-.64-.39-1a.47.47,0,0,0-.68.18Z"/><path class="cls-1" d="M32,6c.54.42-.65.58.72.55C32.37,5.74,32.75,6.22,32,6Z"/><path class="cls-1" d="M32.76,10.87c.37-.68.25-.18,0-.67C32.55,10.38,32.32,10.4,32.76,10.87Z"/><path class="cls-1" d="M29.87,8.91c.4.58-.35.12.55.55C30.05,8.83,30.59,9.09,29.87,8.91Z"/></g></g></g></svg>