<svg xmlns="http://www.w3.org/2000/svg" viewBox="0 0 35.42 31.44"><defs><style>.cls-1{fill-rule:evenodd;}</style></defs><g id="Слой_2" data-name="Слой 2"><g id="Слой_1-2" data-name="Слой 1"><g id="_3015348781440" data-name=" 3015348781440"><path class="cls-1" d="M8.2,16.08C8,13.12,11,12.62,12,15c.86,2.19-.59,4.34-1.4,5.9a8.93,8.93,0,0,1-3.29-.75A4,4,0,0,1,5,18.43a1.94,1.94,0,0,1,.31-2.82C6.73,14.61,7.86,15.9,8.2,16.08ZM2.66,19.26a6.93,6.93,0,0,0,1,3A31.54,31.54,0,0,0,7.6,26.82c1.5,1.67,4.28,5.66,7.6,4.36a5.5,5.5,0,0,0,2.36-1.88c.82-1.52.1-2.17,0-3.45a12.27,12.27,0,0,1-1-1.71c-1.48-2.27-2.36-3-2-5.8a11.73,11.73,0,0,0,0-4.9c-.58-1.77-1.8-1.95-2.59-2.56a5.18,5.18,0,0,0-3.89.41A14.42,14.42,0,0,0,5.36,13a7.21,7.21,0,0,0-2.7,6.27Z"/><path class="cls-1" d="M27.33,10.63c.45-.22,1.45-1.41,2.83-.44,2.13,1.49-.3,5.29-5.23,5.34a29.06,29.06,0,0,1-1.24-2.63C21.94,7.64,27.5,6.39,27.33,10.63ZM22.11,6.08c-1.3.93-1.6,2.68-1.39,4.85.24,2.48.79,3.4-.43,5.48-1.1,1.87-4.29,5.38-1.82,7.87a8.17,8.17,0,0,1,.9.85,1,1,0,0,1,.55.21,3.3,3.3,0,0,0,1.63.43c.94,0,1.55-.46,2.21-.52a5.89,5.89,0,0,1,1.09-.86,9.47,9.47,0,0,0,1.06-.95,3.56,3.56,0,0,0,.51-.57c.2-.25.23-.38.49-.42a21.06,21.06,0,0,1,3-3.31c.09-.35.15-.27.46-.62s.32-.4.5-.64a7.59,7.59,0,0,0,2-4.44,7.26,7.26,0,0,0-3.48-6.67c-2.25-1.53-4.59-2.67-7.25-.69Z"/><path class="cls-1" d="M10.22,6.51l-.07.13c-.25,1-.53,1.72,0,2.63a2.16,2.16,0,0,0,2.22.93,2.48,2.48,0,0,0,1.34-1.13c1.13-2.14-1.16-4.55-3.12-2.9l-.2.17a1.28,1.28,0,0,1-.22.17Z"/><path class="cls-1" d="M23,4.51c1.94.32,2.81-.91,2.66-2.76C25.09.66,24.8-.1,23,0c-.56.37-.71.2-1.13.78a2.59,2.59,0,0,0-.46,1.47C21.45,3.65,22.16,4,23,4.51Z"/><path class="cls-1" d="M27,2c-.13.3-1.38,2.17.18,3.07s2.48-1.47,2.48-1.48c-.13-.85-.18-1.46-.79-1.82C28,1.23,27.48,1.88,27,2Z"/><path class="cls-1" d="M5.87,8.19l0,.12C5.64,11.21,8.55,11.57,9,9.7a2.12,2.12,0,0,0-.88-2.23c-1.21-.83-1.8.25-2.26.72Z"/><path class="cls-1" d="M32.55,6.16c-.06-1.47,0-1.87-1.68-1.9-.33.38-.71.54-.91,1.06a1.63,1.63,0,0,0,.17,1.48c1,1.33,2.42-.64,2.42-.64Z"/><path class="cls-1" d="M3,11.5c.59,2.43,3.5,1.25,2.48-.68A2.72,2.72,0,0,0,5,10.25c-.25-.22-.3-.15-.54-.39-.59.09-.88,0-1.22.44A1.4,1.4,0,0,0,3,11.5Z"/><path class="cls-1" d="M.76,13.48a3.1,3.1,0,0,0,.37,1.1c.19.25.56.34.68.52,3.48.42.79-4-.88-1.84l-.17.22Z"/><path class="cls-1" d="M34.49,8.88c.19-1.5.36-1.68-1.44-1.87-.23.23,0,0-.26.22l-.58.56a1.21,1.21,0,0,0,0,1.26C32.9,10,34,9.21,34.49,8.88Z"/><path class="cls-1" d="M1.89,17.81,2,17.73l.23-.27c.56-.73.24-1.82-1.36-1.68-.36.29-1.18.62-.64,1.57.36.64,1,.47,1.71.46Z"/><path class="cls-1" d="M34.84,12.15a2.8,2.8,0,0,1,.52-.42c.37-1.55-1.08-2.06-1.93-1.35s-.25,2,1.41,1.77Z"/></g></g></g></svg>