<svg xmlns="http://www.w3.org/2000/svg" viewBox="0 0 15.11 25.38"><defs><style>.cls-1,.cls-2{fill-rule:evenodd;}.cls-2{fill:#2b2b2b;}</style></defs><g id="Слой_2" data-name="Слой 2"><g id="Слой_1-2" data-name="Слой 1"><g id="_3015348781872" data-name=" 3015348781872"><path class="cls-1" d="M10.54,17.3c0,.16.31.53.46.54s.23-.06.18-.25l-.13-.19,0,0c.17.08.32.21.21.45s-.33.07-.51.16c-.34.19.2.58.66.21a.69.69,0,0,0,.09-1,.55.55,0,0,0-.94.07ZM9.72,4.48a6.05,6.05,0,0,1,1.74.5,5,5,0,0,1,1.31.91A5,5,0,0,1,13.9,9.24c0,3.15-2.63,4.07-2.39,6.56a7,7,0,0,0,1.36,3.11c1.22,2,.76,5.09-1.51,6.14a4.81,4.81,0,0,1-3.74-.11c-1.75-.8-3-3-4-5C2,16.51-.25,11.63,1.94,7.84a6.27,6.27,0,0,1,2.29-2.2A8.48,8.48,0,0,1,5.79,5a9.53,9.53,0,0,1,3.93-.47Z"/><path class="cls-1" d="M13.54.3A2.18,2.18,0,0,1,15.07,3a2.16,2.16,0,0,1-2.28,2,2.18,2.18,0,0,1-1.54-2.65A2.15,2.15,0,0,1,13.54.3Z"/><path class="cls-1" d="M9.36.05C11.3.58,10.76,4,8.91,3.54a1.88,1.88,0,0,1-1.22-2C7.75.7,8.4-.22,9.36.05Z"/><path class="cls-1" d="M6.11.9c1.75.39,1.53,3.57-.25,3.2A1.76,1.76,0,0,1,4.65,2.36C4.65,1.54,5.23.7,6.11.9Z"/><path class="cls-1" d="M3.32,2.5A1.71,1.71,0,0,1,4.47,4.13c.08,2-2.42,1.68-2.5-.32C2,3,2.48,2.23,3.32,2.5Z"/><path class="cls-1" d="M1.23,4.43c1.54.46,1.24,3-.19,2.64S-.26,4,1.23,4.43Z"/><path class="cls-2" d="M10.77,18.1c0,.26.77.17.75-.47,0-.44-.65-.74-.87-.28,0,.1.3.37.41.38,0-.25-.06,0-.21-.44.34,0,.59.07.52.46s-.4.25-.6.35Zm-.23-.8a.55.55,0,0,1,.94-.07.69.69,0,0,1-.09,1c-.46.37-1,0-.66-.21.18-.09.39.09.51-.16s0-.37-.21-.45l0,0,.13.19c.05.19,0,.26-.18.25s-.44-.38-.46-.54Z"/><path class="cls-1" d="M10.77,18.1c.2-.1.53.06.6-.35s-.18-.5-.52-.46c.15.45.26.19.21.44-.11,0-.37-.28-.41-.38.22-.46.86-.16.87.28,0,.64-.75.73-.75.47Z"/></g></g></g></svg>