<svg xmlns="http://www.w3.org/2000/svg" viewBox="0 0 15.11 25.38"><defs><style>.cls-1,.cls-2{fill-rule:evenodd;}.cls-2{fill:#2b2b2b;}</style></defs><g id="Слой_2" data-name="Слой 2"><g id="Слой_1-2" data-name="Слой 1"><g id="_3015348790272" data-name=" 3015348790272"><path class="cls-1" d="M4.57,17.3c0,.16-.31.53-.46.54s-.23-.06-.18-.25l.13-.19,0,0c-.18.08-.33.21-.22.45s.34.07.51.16c.35.19-.2.58-.66.21a.7.7,0,0,1-.09-1,.55.55,0,0,1,.94.07ZM5.39,4.48A6.15,6.15,0,0,0,3.65,5a5,5,0,0,0-1.31.91A4.91,4.91,0,0,0,1.22,9.24c-.06,3.15,2.62,4.07,2.38,6.56a7,7,0,0,1-1.36,3.11C1,20.9,1.49,24,3.75,25.05a4.81,4.81,0,0,0,3.74-.11c1.76-.8,3-3,4-5,1.64-3.46,3.91-8.34,1.72-12.13a6.27,6.27,0,0,0-2.29-2.2A8.48,8.48,0,0,0,9.32,5,9.51,9.51,0,0,0,5.39,4.48Z"/><path class="cls-1" d="M1.57.3A2.18,2.18,0,0,0,0,3a2.16,2.16,0,0,0,2.28,2A2.18,2.18,0,0,0,3.86,2.26,2.15,2.15,0,0,0,1.57.3Z"/><path class="cls-1" d="M5.76.05C3.81.58,4.35,4,6.2,3.54a1.88,1.88,0,0,0,1.22-2C7.36.7,6.71-.22,5.76.05Z"/><path class="cls-1" d="M9,.9c-1.75.39-1.53,3.57.25,3.2a1.75,1.75,0,0,0,1.21-1.74C10.46,1.54,9.88.7,9,.9Z"/><path class="cls-1" d="M11.79,2.5a1.71,1.71,0,0,0-1.15,1.63c-.07,2,2.42,1.68,2.5-.32C13.17,3,12.63,2.23,11.79,2.5Z"/><path class="cls-1" d="M13.88,4.43c-1.54.46-1.23,3,.2,2.64S15.38,4,13.88,4.43Z"/><path class="cls-2" d="M4.34,18.1c0,.26-.77.17-.75-.47,0-.44.66-.74.87-.28,0,.1-.3.37-.41.38,0-.25.06,0,.21-.44-.34,0-.59.07-.52.46S4.14,18,4.34,18.1Zm.23-.8a.55.55,0,0,0-.94-.07.7.7,0,0,0,.09,1c.46.37,1,0,.66-.21-.17-.09-.38.09-.51-.16s0-.37.22-.45l0,0-.13.19c-.05.19,0,.26.18.25s.44-.38.46-.54Z"/><path class="cls-1" d="M4.34,18.1c-.2-.1-.53.06-.6-.35s.18-.5.52-.46c-.15.45-.26.19-.21.44.11,0,.37-.28.41-.38-.21-.46-.86-.16-.87.28C3.57,18.27,4.34,18.36,4.34,18.1Z"/></g></g></g></svg>