<svg xmlns="http://www.w3.org/2000/svg" viewBox="0 0 57.51 22.42"><defs><style>.cls-1{fill:#2b2a29;}.cls-1,.cls-2{fill-rule:evenodd;}.cls-2{fill:#201b1f;}</style></defs><g id="Слой_2" data-name="Слой 2"><g id="Слой_1-2" data-name="Слой 1"><g id="_3015324111552" data-name=" 3015324111552"><path class="cls-1" d="M28.79,11.26c0-.49.22-.74.82-.89.15,0,.05,0,.19-.1l.18-.18L33.52,6.5a15.64,15.64,0,0,1,9-4.56C49.74,1,55.67,5.05,56.27,9.65,57,14.87,51.54,19,45,19.24a13.46,13.46,0,0,1-5-.86A21.41,21.41,0,0,1,35.47,16a36,36,0,0,1-3.57-2.94l-.61-.65c-.54-.58-1.8-.27-.77.73L32,14.56c.15.14.26.18.41.32a24.89,24.89,0,0,0,3.88,2.79l2,1a15.73,15.73,0,0,0,13.1-.06,9.18,9.18,0,0,0,1.92-1.1c3.17-2.11,4.91-5.54,3.9-9.08a9.61,9.61,0,0,0-3.67-4.83,13.27,13.27,0,0,0-1.82-1.09A16.71,16.71,0,0,0,34.6,4.24l-1.23,1c-.13.12-.21.16-.34.29L30.88,7.7c-.25.25-.42.45-.72.72l-2.79,2.86a2.83,2.83,0,0,1,0,1.27c-.49.11-.54.19-.71-.23l-.06-.14-.08-.13c-.3.42-2,2-2.53,2.63a15.66,15.66,0,0,1-11.72,4.54C5.89,18.9.68,14.88,1.22,9.79,1.59,6.38,4.75,3.43,9.07,2.3c5.21-1.35,9.32.29,13,2.73.3.2.41.37.73.56l4,3.65a.7.7,0,0,0,1,0c.51-.59-2.69-3-3.34-3.62A19,19,0,0,0,22.3,4.05a14.09,14.09,0,0,0-2.24-1.32C10.8-2-.5,3.42,0,11.13A7.62,7.62,0,0,0,1.5,15a11.11,11.11,0,0,0,2.9,2.73,14.35,14.35,0,0,0,4.14,1.82,17,17,0,0,0,10.79-.65,19.53,19.53,0,0,0,2-1l1.74-1.15a15.69,15.69,0,0,0,1.56-1.29c.47-.46.9-1,1.38-1.41l2.78-2.81Z"/><path class="cls-1" d="M26.88,11.63c.23.06.34-.07.32.46s0,.29-.33.42l-.09-.7-.29.24.08.13.06.14c.17.42.22.34.71.23a2.83,2.83,0,0,0,0-1.27.89.89,0,0,0-.18.13,1,1,0,0,0-.11.08l-.2.14Z"/><path class="cls-1" d="M26.78,11.81l.09.7c.36-.13.32,0,.33-.42s-.09-.4-.32-.46l-.1.18Z"/><path class="cls-1" d="M28.79,11.26c.16-.12.23-.21.44-.39a1,1,0,0,0,.38-.5c-.6.15-.79.4-.82.89Z"/><path class="cls-2" d="M8.53,17.75a1.7,1.7,0,0,0-3.31.69A3.64,3.64,0,0,0,6.7,20.53l.48.38a3.56,3.56,0,0,1,1.23,1.51.88.88,0,0,0,.18-.25,6.27,6.27,0,0,1,1.77-1.53,3.4,3.4,0,0,0,1.46-1.92c.42-2.25-2.45-2.68-3.29-1Z"/><path class="cls-2" d="M47.2,1.11A1.75,1.75,0,0,0,44.13.76a1.63,1.63,0,0,0-.25,1c.06.84.94,1.64,1.49,2.1l.47.38a3.56,3.56,0,0,1,1.24,1.5,1.5,1.5,0,0,0,.18-.24A6.47,6.47,0,0,1,49,4a3.35,3.35,0,0,0,1.46-1.91C50.9-.17,48-.59,47.2,1.11Z"/></g></g></g></svg>