<svg xmlns="http://www.w3.org/2000/svg" viewBox="0 0 32.38 24.31"><defs><style>.cls-1{fill-rule:evenodd;}</style></defs><g id="Слой_2" data-name="Слой 2"><g id="Слой_1-2" data-name="Слой 1"><path class="cls-1" d="M9.87,4.91c-1.7-1.28-2-3.45-4.49-3.83-5-.77-9.12,8.12.23,10.77l4,.59a19.27,19.27,0,0,1-1,7.15c-2.08-.15-1.4-.62-2.72.74.08.05.25,0,.28.08.12.37,1.12-.52,2.22,1.61-3,.46-2.57,0-3.52,1.49,6.41,1.92,7.72-4.33,8.64-10.85,3.88-.28,3.47,1.72,9,.38l.6,7.25-3.45,1.3,2.5.81c-4,2.84,1.75,1.79,5.4,1.4.12-3.68.54-2.8,1.28-5.65.69-2.65-.28-3.73.09-5.88.41-2.4,5.71-6.36,2.15-10.24a10.07,10.07,0,0,0-5-2C24.48-.11,10.63,4.79,9.87,4.91Z"/></g></g></svg>