<svg xmlns="http://www.w3.org/2000/svg" viewBox="0 0 30.49 40.05"><defs><style>.cls-1{fill-rule:evenodd;}</style></defs><g id="Слой_2" data-name="Слой 2"><g id="Слой_1-2" data-name="Слой 1"><path class="cls-1" d="M14.8,35.82c1,1.74.17,1.29-.09,1.62-.52-.91-.5.23-.35-.85s-.47-.12.44-.77ZM20,10.56c2.79.68,3.85-2.94,4.8-5.06,1.13-2.51.54-.32,1.43-2.31C24.57,2.09,20.92-.88,18,.25c-4.8,1.85-1.92,7.58-1.72,8.18A13.92,13.92,0,0,0,13.11,15c-1,4.43-.8,3.81-2.26,4.79C8.29,21.47,2.56,27.32,0,29.91.77,34,6.58,35.56,11.19,36.27c0,1.59-.74,2.38-.32,3.43.58.72,5.82.13,6.54,0,2.4-.44,4.92.87,5.49-1.89-1.34-.89-2.86-.06-4.59-1.61,2.61-.37,12.85-.82,12.15-6.63-1.5-.78-1.62-.46-3.25-1.45a16,16,0,0,1-2.94-1.75c-3.43-3.07-4.35-2.81-4.23-5,2.67-1.78,4-.17,4.23-2.43-.29-2-1.57-.74-3-1.49-.1-2.76.7-.21,2.46-3.16-2.12-2.1-1.53.58-3.74-3.71Z"/></g></g></svg>