<svg xmlns="http://www.w3.org/2000/svg" viewBox="0 0 36.43 29.61"><defs><style>.cls-1{fill:#010101;fill-rule:evenodd;}</style></defs><g id="Слой_2" data-name="Слой 2"><g id="Слой_1-2" data-name="Слой 1"><path class="cls-1" d="M15.92,9.6c.48.24,1.2-.9,1.1,1.47a1.94,1.94,0,0,1-.39,1c0,.68.28.22.43,1,.3,1.53.74.39-.39.88.83.41.9.13,1.9,0l-2.65,2.58V20c-5.6-.12-3.3-.74-7.75,1.69C7.66,22,5.4,23.33,5,23.48c-1.84.61-2.32-.08-4.43.59L0,26.12l4.32,1.37c1,0,6.54-3.29,7.73-3.69A18.93,18.93,0,0,0,15.52,26c-1.51,1.08-1.7,1.22-1.86,3.57,4-.44,2.06-.81,6.91-.14,3.24.45,4.52-.17,6.19-1.59.78-1.41-2.21-6.11,0-10.38,4.49,3.35,5.3,1.32,8.53,3l1.08-1.87c.28-1.19-.3-1.78-2.06-2.4-2.23-.78-.78,1.32-3.35.22-3.87-1.67-2.58-6.61-7.66-6.87.07-.13.18-.27.24-.36l1.05-2.55c1.1-9.1-6.79-7.22-7.71-4-.58,2-.53,4.48.93,5.77l-.29.18Z"/></g></g></svg>