<svg xmlns="http://www.w3.org/2000/svg" viewBox="0 0 18.45 37.73"><defs><style>.cls-1{fill-rule:evenodd;}</style></defs><g id="Слой_2" data-name="Слой 2"><g id="Слой_1-2" data-name="Слой 1"><path class="cls-1" d="M3,4.49A1.8,1.8,0,0,1,3.87,6.1c.07.27-.12.52-.33.92-.35.62-.41.54-1,.82a2.24,2.24,0,0,1-1.11.8l-.11.1c-.2.6-.57,2.54-.75,3.29l-.19.11L0,12.89c-.06,1,.08.53.15.83s.09,0,0,.33.15,0-.13.31L0,15.89l.11.63c.21.3,0-.33.26.49a5.87,5.87,0,0,1,.08.72c.15.64.25,1.23.94.92.49-.23.22-.5,1.16-1l.05-1.16-.79-.36c0-.6,0-1.74.48-2.11l.45-1.4a3.46,3.46,0,0,1,.93,2.11c-.1,3-.55,1.26-.48,2.8,0,.66.22.74,0,1.38s-.44.52-.35,1.51l.22.7.16.31c.67.49,0,3.34.13,3.84.17.94.17,0,.65,1l0,.11c.21.23.75,3.94.89,4.58a2.47,2.47,0,0,1,.46,1.37,3.61,3.61,0,0,1,.64,3.75l-.3.13c-.15.26-.91.91-.42,1.33,1.13.5,2.62-.13,3.69-.38,0-.43,0-1.11,0-1.51-.09-.93-.25-.45-.41-1.28a1,1,0,0,1-.62-.7L7,27.29c-.06-1-.28-2.12.51-2.53a8.39,8.39,0,0,1,.79,3.41c.26.15.11,0,.32.35a3.55,3.55,0,0,0,.3.54c.36.4.88.37,1.44.37l.6-.32a10.17,10.17,0,0,0,.87-1.75l.18-.89a26.62,26.62,0,0,0,.61-3.78,12.58,12.58,0,0,0-.19-2c-.1-2,.3-.51.78-1.6L13,18.53c-1.13-.69-.81-2.33-1-3.81l-.1-.29L11.61,14c-.83-1.23-1-1.31-.63-2.46a2.68,2.68,0,0,1,1.26,1c1.66.22.58,0,1.73,1l.25.57c.38.2.25.21.62.62s.34.31.47.83a2.51,2.51,0,0,1,1,1.9c.36.15,0,0,.29.19.53.41.15.43.8.39s0,.09.78-.38l.17-.08.09-.23v-.91a4.23,4.23,0,0,1-2-2.44c-.29.06-.08.08-.16-.29a2.82,2.82,0,0,1-.89-1.3l-.25-.38c-.55-.21-.36-.26-.74-.7-.14-.16-.21-.19-.33-.34-.24-.31-.13-.16-.22-.39a2.37,2.37,0,0,1-.7-.52l-.26-.25a1.43,1.43,0,0,1-.34-.42c-.39,0-.13.19-.47-.27a4.21,4.21,0,0,1-.23-.51l-.49-.88-.21-.06L9,7c-.49-.1-.59,0-.8-.42a1.2,1.2,0,0,1-1-.59c.35-.43.79-.5.91-1.23.08-.47,0-.29-.07-.8A2.75,2.75,0,0,1,8.2,3l.11-.49.11-.38C8.13,1.68,8.32,1.48,8,1A3.66,3.66,0,0,0,4.66.12c-.86.29-1,.79-1.22,1.79C3,4.09,2.54,2.44,3,4.49Z"/></g></g></svg>