<svg xmlns="http://www.w3.org/2000/svg" viewBox="0 0 20.65 27.68"><defs><style>.cls-1{fill-rule:evenodd;}</style></defs><g id="Слой_2" data-name="Слой 2"><g id="Слой_1-2" data-name="Слой 1"><path class="cls-1" d="M13.47,11.42a2.69,2.69,0,0,0-1.37-.74c.22,1.06,0,1.33.59,2.17l.39-.17c-.65-.33-.37-.06-.5-.37.61-.42.55-.15.89-.89ZM5.94,13c.41-2.34.33-3,1.91-3.72.39-.18,0,0,.35-.1-.45-.26-1.27-.3-1.85-.64C4.77,7.57,5.12,6.28,5.06,5c0-.84-.48-1.08-.35-2.07l-.53.16c.2-.47.16-.4.5-.65-.4-.23-.63-.26-.8-.76C5.11,2,5.26,1.37,6.07.87a5.41,5.41,0,0,1,5-.42c.69.38.55.55.84.67s-.36-.18.13,0-.15.27.68.33c-.9.47.21.31.52.86s0,0-.06.23c0,0-.08.09,0,.18l.55.24s.08.07.1,0,.07,0,.1,0l-.62.19A1.34,1.34,0,0,1,14,4.44s-.17-.09-.31,0c0,.64-.1.59.46.81l-.45.2,0,.75-.27-.31a4,4,0,0,1-.25.79c-.34.67-.21.24-.32.23s0-.11-.37.32-.28.12-1.59.7a2.46,2.46,0,0,0-.61.4l-.49.45c1.63-.07.81-.46,2.25.42a7.77,7.77,0,0,0,1.84,1c2.38.92,2.31,1.55,3.15,2.4-.24.22-.32.09-.49.14.17.62.78.82,1.11,1.68a3.25,3.25,0,0,1-1.17,3.85c-.77.56-1.35.38-2,.69.61.43,1.45.66,2,1.15a16.07,16.07,0,0,0,1.57,1.46c.48-.15.11-.4,1.15-.25a2.12,2.12,0,0,1,1.13.4,6.59,6.59,0,0,1-.17,3.58c-.41.86-1.66,1.78-2.71.82-.11-.79.4-1,.78-1.33A6.2,6.2,0,0,0,18,22.37c-.81-.51-2.26-1-3.2-1.52L12.5,19.61c-.47-.26-.19-.2-.57-.51-.19.29,0,.29-.33.63a2.13,2.13,0,0,1-1-.41c.16,1,.75,1.79.94,3.07.1.62.19,2.08.64,2.52s.23-.05.42.43c.52,1.23-.11,2.54-2.27,2.31-.77-.08-3.41-.53-3.2-1.63s2.31-.4,3.26-.71l.6-.42a.13.13,0,0,0,.08-.07s.05-.05.07-.07a36.23,36.23,0,0,0-2-4.56c-1-2.31.91-1.92-.08-3.46-.36-.55-.14-.58-.84-.72.09-.78.25-.35-.08-.91-.5-.87-.23-1.11-.93-2.83L6.5,14.11A8.39,8.39,0,0,1,3.42,14c-.47.76-.11.26-.88.66-.42.21-.38.44-.77.77-.09-.14-.12.12-.1-.39s.2-.4.38-.77C1.5,13.73,1,13.79.19,13.61.06,13.36,0,13.18,0,13l.18-.31a.11.11,0,0,0,0-.07.69.69,0,0,1,0-.08H1.41c-.39-.28-.52-.25-.65-.76a6,6,0,0,1,2.41,1.41A12.9,12.9,0,0,0,5.94,13Z"/></g></g></svg>