<svg xmlns="http://www.w3.org/2000/svg" viewBox="0 0 33.31 22.88"><defs><style>.cls-1{fill:#020202;fill-rule:evenodd;}</style></defs><g id="Слой_2" data-name="Слой 2"><g id="Слой_1-2" data-name="Слой 1"><path class="cls-1" d="M.94,15.37c2.37,1,8.85-2.7,11-3.52,3.48,2.21,1.9,4.35,1.62,8.66-2.2.33-2.55-.07-3.68,1.21,6.06,4.36,7.27-4.91,7.62-5.58l2.48.15a2.46,2.46,0,0,1,.16.51c2.05,7.65,1.35,4.61,12.37,3.92l.83-2.64c-1.93-2.29-1.58-.72-3-4.11-3.1-7.27-12.4-2.66-13.91-7.89,0-.14-1-9.21-7.22-4.94C4.45,4.39,6.48,6.83,9,10.22L0,14.5C.31,15.84-.23,14.86.94,15.37Z"/></g></g></svg>