<svg xmlns="http://www.w3.org/2000/svg" viewBox="0 0 23.22 21.18"><defs><style>.cls-1{fill-rule:evenodd;}</style></defs><g id="Слой_2" data-name="Слой 2"><g id="Слой_1-2" data-name="Слой 1"><path class="cls-1" d="M3.39,12.05a4.13,4.13,0,0,0,1.34,2.24,7.06,7.06,0,0,1-.63,2.63,6.19,6.19,0,0,1-1.47.94c-.57.4-.2-.06-.38.47.42.58.89.31,1.47.55-.16.48-.59.52-1.12.94-.3.26-.11,0-.37.37a1.18,1.18,0,0,0,.81,1,3.8,3.8,0,0,0,3.05-1.32c.8-1.31,2.08-2.45,2.59-4,.81.13,1.23.51,2.08.66,1.3.22.84.13,1.51,1s1.33,2.62,2.57,2.69a12.59,12.59,0,0,0,4.55-.71c.81-.32,1.08-.61,2-.12.65.36.93.75,1.85.35.14-1.08-.82-1.82-1.28-2.4-.77-1-.75-1.38-2.18-1.14l-.9-1.53c-.71-.06-1.22.35-2.28.32.88-6.32-3.38-4.23-4.84-4.65C5.49,8.58,8.31,6.82,8.82,5.09c1-3.39-1.07-5.58-4.61-5-1.7.28-4,1.71-3.66,4C.74,5.41.76,5,0,5.79c.05.74.16.15.18.87s0,.24.44,1.22l.26.39c.26.32.32.46.51.71l2-.06c.18.56-.56,1.54,0,3.13Z"/></g></g></svg>