<svg xmlns="http://www.w3.org/2000/svg" viewBox="0 0 31.82 33.69"><defs><style>.cls-1{fill:#2b2a29;fill-rule:evenodd;}</style></defs><g id="Слой_2" data-name="Слой 2"><g id="Слой_1-2" data-name="Слой 1"><path class="cls-1" d="M0,20.14A4.1,4.1,0,0,0,1.14,22.4l1,1.05c.82.81,2,1.87,1.61,3.77-.47,2.29-2.57,4,1.76,6.05l.46.21a2.39,2.39,0,0,1,.48.21A4.48,4.48,0,0,0,6,33.3c-.21-.14-.36-.26-.55-.41-1.21-1-2-2.12-1.51-3.88.46-1.6,1.39-2.84.73-4.57a4,4,0,0,0-1.28-1.62,6.72,6.72,0,0,1-1.28-1.59,2.29,2.29,0,0,1,0-2.86A8.6,8.6,0,0,1,3.15,17l1.63-1.71a4.46,4.46,0,0,0,.79-1.16c.86-2.07.5-4.46.79-6.85a6.91,6.91,0,0,1,.95-2.89,5.83,5.83,0,0,1,5-2.63,7.78,7.78,0,0,1,5,1.75,3.22,3.22,0,0,1,1.2,1.68,3.49,3.49,0,0,1,.07,1.29.48.48,0,0,1-.16.34,6.74,6.74,0,0,1-.28-.72c-.12-.28,0-.65-.11-.91a2,2,0,0,1-.58.72c-1.15.94-4.27,1.82-6.1,3a4.28,4.28,0,0,0-.38.26l-.69.6a2.56,2.56,0,0,0-.31.34,2.89,2.89,0,0,0-.63,2,5.52,5.52,0,0,0,1.15,2.73c.1.13.18.22.28.37a1.26,1.26,0,0,0,.32.37c0-.14-.25-.62-.32-.8a7.2,7.2,0,0,1-.26-.86,4.17,4.17,0,0,1-.06-2,3.82,3.82,0,0,1,2.08-2.39c1.21-.63,2-.85,3.12-1.36a7.46,7.46,0,0,0,1.46-.79,2.39,2.39,0,0,0,.93-1.29C18.32,7.62,18.14,7,18,8a1.46,1.46,0,0,1-.2.53,6.47,6.47,0,0,0-.6.87,3.27,3.27,0,0,0,0,2.44c.38,1-1.2.19-1,1,.05.19.23.37,0,.54s-.92,0-1.16-.14a1.32,1.32,0,0,0,.7.47c.07.67-.76.24-.87.26-.42.3,0,1-.16,1.31.31-.2,0-.79.41-1,.25,0,.45.31.78.11s.39-.34.31-.62a.48.48,0,0,0,.47-.38c0-.16-.28-.4-.17-.56s.8-.09,1-.24.26-.52.15-.92-.4-1.83,0-2.17a.36.36,0,0,0,0,.1c0,.08,0,0,0,.08a3.7,3.7,0,0,1,.29-.47c.07.16.19.72.32,1.07a10,10,0,0,0,.42.94c-.12.09-.62.15-.1,1a4.62,4.62,0,0,0,.73.86c-.11-.29-.32-.56-.43-.85-.3-.76.22-.56.52-.51A7.57,7.57,0,0,1,19,10.21c-.51-3,1.92-4.27,4.09-3.36a3.64,3.64,0,0,1,.95.57l.26.24a3.79,3.79,0,0,1,.88,1.66c0,.3-.45.44-.27,1.12-.53-.09-1,.06-1.12.46.42,0,.53-.34,1.16-.11.08,0,.17.08.24.05l.07-.06h0c.14.11.37.06.49.14-.08.28-.56.21-.51.65a.55.55,0,0,0,.25.35,3.17,3.17,0,0,0,.4.18,2,2,0,0,0-.27.38c-.11.26.07.28.23.36a2.09,2.09,0,0,1-.49.86c-.21.26-.63.41-.76.59a1.07,1.07,0,0,1-.92.42c-.29,0-.73-.86-2-.59-.46.1-1.29-.67-1.55-1.15a6.41,6.41,0,0,1-.4-1c-.05.06,0,0-.05.09s0,.08,0,.1a1.8,1.8,0,0,0,0,.22,1.82,1.82,0,0,0,.72,1.69,2.42,2.42,0,0,0,.69.29l-.09.1a2,2,0,0,0-.61.63,3,3,0,0,1,1.28-.51A1.86,1.86,0,0,1,23,15a2.93,2.93,0,0,1,.8,1,4.55,4.55,0,0,1,.44,1.38,1,1,0,0,0-.37.33,3,3,0,0,1,1,0,6.26,6.26,0,0,1,.9.26,8.49,8.49,0,0,0,1.77.54l-.05,0L26.7,18a1.51,1.51,0,0,0-.14-1.22c-.24-.45-.37-.45-.43-1.06-.3.6.35,1.3.35,2.12l-.91-.42a8.81,8.81,0,0,1,0-1.18c0-.39.16-.69.58-.63-.36-.23-.75-.19-.83.33a8.3,8.3,0,0,0,0,1.41,4.93,4.93,0,0,0-.58-.06A3.34,3.34,0,0,0,24,15.15a1.88,1.88,0,0,1-.18-.24c.81,0,.64-.33,1.1-.6a2,2,0,0,1,.37-.22.84.84,0,0,0,.58.91,5.26,5.26,0,0,0,3.26,0c.18-.06.37-.17.54-.21a1.47,1.47,0,0,1,.18.67c0,.18-.08.7-.07.76a3.37,3.37,0,0,0,.53-1.78,7.91,7.91,0,0,0,1.47-1.09c-.18.05-.59.31-.8.4a13.88,13.88,0,0,1-2.7.94,3.1,3.1,0,0,1-2.05-.17c-.79-.48.15-1.23.24-1.62-.24-.08-.46-.26-.24-.49a1.35,1.35,0,0,1,.62-.28,2.61,2.61,0,0,1-.84-.4c-.59-.48-.16-.46-.15-.8.36.07,1.07.12,1.06-.4a.69.69,0,0,1-.51.15,2.61,2.61,0,0,1-.57-.1c-.82-.23-.54-.46-.15-1.11L26,9c.56-.85.79-.83.28-1.82a1.14,1.14,0,0,1,0-1.09c.11-.33.26-.63.39-1a5,5,0,0,0,.37-1,6.78,6.78,0,0,0-.74,1C25.15,7,25.78,7,25.94,7.86c0,.25-.14.43-.24.64a6.73,6.73,0,0,1-.33.6,6.36,6.36,0,0,0-.57-2A3.54,3.54,0,0,0,20.37,5.5c-.16.06-.33.12-.47.19l-.43.22c0-.2.05-.4.05-.62a4.25,4.25,0,0,0-1.85-3.07A9.39,9.39,0,0,0,14,.28,7.52,7.52,0,0,0,5.87,2.86C3.48,6.24,5.78,11.25,3.35,14.4L1.91,16.11A8,8,0,0,0,.13,18.92c0,.16-.08.47-.13.58v.64Z"/></g></g></svg>