<svg xmlns="http://www.w3.org/2000/svg" viewBox="0 0 40.68 29.64"><defs><style>.cls-1{fill:#2b2a29;fill-rule:evenodd;}</style></defs><g id="Слой_2" data-name="Слой 2"><g id="Слой_1-2" data-name="Слой 1"><path class="cls-1" d="M20.43,16.57c.11.28.57,1.25.61,1.42a2.8,2.8,0,0,1-.32-.2,4.22,4.22,0,0,0-1.11-.41Zm-4.69-.7c-.17.07-.16.05-.27,0s-.13-.09-.22-.18c-1.37-1.41-.32-3.41-.42-5.55a8.13,8.13,0,0,1,1.24,1.1,4.08,4.08,0,0,0,2.15,1.29c.3.07.32,0,.4.16a17.72,17.72,0,0,1,.89,1.94l-3.77,1.29Zm24.94-4.45V10.21s-.06-.48-.07-.56a7.51,7.51,0,0,0-.39-1.5A5.44,5.44,0,0,0,39,6.21,5.44,5.44,0,0,0,36.2,4.57c-.64-.19-1.34-.35-1.94-.59-.31-.13-.57-.26-.85-.41a4.89,4.89,0,0,1-2.13-1.68A4.42,4.42,0,0,1,30.66,0l0,0A5.71,5.71,0,0,0,31,2.16a5,5,0,0,0,2.7,2.24c1.59.57,3.6,1.54,4.51,2.85a5.11,5.11,0,0,1,.61,4A19.33,19.33,0,0,1,37,16.9c-.4.83-.84,1.64-1.26,2.43-.14.26-.31.53-.45.78-.3.52-.64,1-.94,1.52a27.25,27.25,0,0,1-2,2.86L31.2,25.81c-.19.22-.44.39-.62.61a1.53,1.53,0,0,1-.69.52,2.38,2.38,0,0,1-1.95-.3,6,6,0,0,1-1.13-1.32,30.4,30.4,0,0,1-1.94-3c-1-1.81-2-3.75-3-5.58-.79-1.44-1.6-2.84-2.5-4.22-.08-.12-.13-.29-.29-.33A9.77,9.77,0,0,1,16.59,11a12.41,12.41,0,0,1-1.46-1c-.41-.33-1.16-.79-.84-1.42a6.32,6.32,0,0,0,.93.5c-.2-.4-1.08-.67-1.2-1.23a1,1,0,0,1,.14-.62,6.57,6.57,0,0,1,.65.39,3,3,0,0,0,.7.29c0-.23-.93-.91-1.2-1.17-.1-.1-.18-.15-.25-.23s0-.61,0-.81c.1.06.15.13.25.19a2.2,2.2,0,0,0,.28.18,6.32,6.32,0,0,0,1.88.79,6.6,6.6,0,0,0-.82-.58c-.43-.3-1.34-.79-1.42-1.35a.64.64,0,0,1,.13-.55c.17-.17.28-.12.5-.13a1.1,1.1,0,0,0-.54-.08.49.49,0,0,0-.37.26,1.47,1.47,0,0,0,0,1.11,1,1,0,0,0-.33.71c-.09.59.1.47.26.74-.18.51-.49.85.19,1.44,0,.12-.4.69.1,1.06a9.15,9.15,0,0,1-.55,1.87l0,0a2.93,2.93,0,0,0-1-1.65,6.39,6.39,0,0,0-1.85-.81c.06.11.21.19.32.28a4.39,4.39,0,0,1,1.63,2.25A3.82,3.82,0,0,1,11.88,14a7.76,7.76,0,0,0-.45.66l1.16-1.1c.18-.22.46-.62.6-.76,0,.18-.07.37-.1.55a3.89,3.89,0,0,0,0,.6,2.92,2.92,0,0,0,1.52,2.37c-.64.22-1.32.5-2,.76l-.95.39-.9.46,0-.06-.25-.59a17.92,17.92,0,0,0-.93-1.86,46.24,46.24,0,0,0-2.91-4.52L5.23,9.05,5,8.82a4.55,4.55,0,0,0,.35.65,70.57,70.57,0,0,1,4.44,8.7c.1.25.18.48.27.74a5.75,5.75,0,0,0,.23.76,1.71,1.71,0,0,1,.44-.45,19.55,19.55,0,0,1,2.84-1.55c1.4-.7,3.4-1.49,4.88-2.13.28-.11,1-.44,1.26-.49l.08.13a5.59,5.59,0,0,1,.39.93A13.84,13.84,0,0,0,19,17c-.71.53-1.64,1.22-2.35,1.7-1.39.95-4.73,3.37-6.27,3.78-.46.12-.61,0-1-.43s-.54-.48-.79-.73S7.39,20.1,7.11,19.75l-.48-.53a35.34,35.34,0,0,1-2.3-2.71,22.8,22.8,0,0,1-1.65-2.38,3.71,3.71,0,0,1,1.47-1.47,4.6,4.6,0,0,1,2.3-.6,6.53,6.53,0,0,0-1.28-.13,4.79,4.79,0,0,0-2.31.57,1.91,1.91,0,0,0-.71.7c-.11-.08-.17-.28-.25-.42A10.41,10.41,0,0,1,.71,9.3c-.17-1.21,0-3.43,1.21-4C.82,5.2.41,6.3.2,7.17c-.68,2.89.46,6.1,1.88,8.47.09.17.26.4.33.57A43.6,43.6,0,0,1,4.2,20.72c.32,1,.58,1.8.83,2.78a17.07,17.07,0,0,1,.47,3.1l0-.06,0-.12a1.67,1.67,0,0,0,0-.18A4.7,4.7,0,0,0,5.78,25v-.9c0-.27,0-.57,0-.84a17.3,17.3,0,0,0-.36-3.25L7,21.72c.55.54,1.12,1.08,1.71,1.58a2.69,2.69,0,0,0,1.52.69,2.82,2.82,0,0,0,1.66-.55c.68-.4,1.32-.88,1.95-1.34s1.29-.94,1.87-1.41a.61.61,0,0,1,.36.27c.27.42.35.3.24.81A21,21,0,0,0,16,24.51a9.59,9.59,0,0,0,.5,4.39,40,40,0,0,0,.64-4.59c0-.4.08-1.32.13-1.62a5,5,0,0,1,.49.67c.17.23.36.46.53.66a3,3,0,0,0,.63.55A3.55,3.55,0,0,0,22.5,24a1.45,1.45,0,0,0,.36-.78A2.32,2.32,0,0,1,21,24.33c-.5.08-1.5.17-1.89-.2a4.53,4.53,0,0,1-.34-.39c-.55-.74-1.86-3.11-2.14-3.43-.08-.09-.13-.1-.19-.19a.78.78,0,0,1,.21-.19c.48-.36.94-.78,1.4-1.16l1-.85c.22-.22.29-.43.66-.33a3.28,3.28,0,0,1,1,.41,2.78,2.78,0,0,1,.43.31,4,4,0,0,1,.23.5l1,2a3.76,3.76,0,0,1-.71-.46c-.34-.28-1.64-1.56-1.84-1.69a5.2,5.2,0,0,0,.36,1,2.27,2.27,0,0,0,2.42,1.62,3.21,3.21,0,0,1,.39.63,22.58,22.58,0,0,0,1.64,2.36c.15.18.31.35.45.53a11.81,11.81,0,0,0,1,1c.31.31.72.64,1.07.93s.46.69,1,1c1.47.74,2.61-.59,2.84-.7,0,.09-.08,1.08-.08,1.32s-.07,1.29-.06,1.33a12.12,12.12,0,0,0,.94-2.56c.06-.24.13-.47.19-.71.13-.44.07-.27.33-.54l.45-.42A32.13,32.13,0,0,0,38.5,18a20,20,0,0,0,1.13-2.38c.17-.43.32-.84.47-1.28a12.78,12.78,0,0,0,.49-2.12,7.56,7.56,0,0,1,.09-.79Z"/></g></g></svg>