<svg xmlns="http://www.w3.org/2000/svg" viewBox="0 0 92.65 31.28"><defs><style>.cls-1{fill:#050505;}.cls-1,.cls-2{fill-rule:evenodd;}.cls-2{fill:#fff;}</style></defs><g id="Слой_2" data-name="Слой 2"><g id="Слой_1-2" data-name="Слой 1"><g id="_3015442440256" data-name=" 3015442440256"><path class="cls-1" d="M45.06,13.09a9.08,9.08,0,0,1-1.24-.95l-1.3-1C36,6,29.78,1.41,21.13.55c-6-.6-10.54.39-14.8,3.06-9.07,5.67-8,19.55.82,23.69a25.19,25.19,0,0,0,15.42,1.8c6.05-1,10.88-3.85,15.21-7.39a56.15,56.15,0,0,0,4.86-4.45A23,23,0,0,1,45.06,15c2.88,1.28,9.52,7.12,12.36,9.49A16.27,16.27,0,0,1,59.19,26c-.25,1.42-.77,3.16.94,3.48,1.38.25,2.68-.95,3.41-1.51.5.83.67,3.08,4.35,1.55,1-.41,1.3.37,2.58-.6.7-.53,1.33-1.27,2-1.69-.12,1.09-.51,2.89.6,3.26s2.1-.48,2.82-1c1.38,1.1,1.66.34,2.86-.36.09.21.16,3.19,4,1.88a8.84,8.84,0,0,0,3.85-3c.53-.61,1-1,1.56-1.71a23.89,23.89,0,0,0,3.73-6.65A15.26,15.26,0,0,0,91,8C86-1,69.41-1.39,60.93,1.87c-8,3.07-15,10.81-15.87,11.22Z"/><path class="cls-2" d="M46.1,13.88c1.09,1,2.32,1.7,3.43,2.62,3.38,2.83,5.11,4.46,8.22,7.31.62.57.92,1.19,1.58,1.54.3-.41,2.3-6.11,4.38-6.33.62,2.49-1.39,5.63-2.89,6.94a2.56,2.56,0,0,0-.48,2.81c2.3.71,3.61-2.62,5.43-3.63a3.09,3.09,0,0,1,3.56.11c1.39,1.4-.21,2.71-.17,3.55.94.09,1.66-.72,2.19-1.21a3.91,3.91,0,0,0,1.56-2.2L74,25.27c0,1.67-.9,2.73-.47,4.46A1.16,1.16,0,0,0,75,29.59c.68-.56.54-.58.69-1.66a3.12,3.12,0,0,1,2.21-2.23c.17,2.08-1.63,2.55-1.55,3.61,2,1.25,3-3.3,6-3.44,1.74-.09,2.49,1.16,1.23,2.25-1,.9-2.35.89-3.46,1.37,0,2.35,3.1.88,4,.29a14.79,14.79,0,0,0,3-3.06,16.48,16.48,0,0,0,4-8.4c.75-4.84-.52-7.11-2.56-9.81A13.21,13.21,0,0,0,87,7.06a19,19,0,0,0-6-3.28c-12-4.2-24.23.27-33.5,8.46-.29.26-.48.45-.8.76s-.56.44-.68.88Z"/><path class="cls-2" d="M44,14.37c-1.16-1.24-9.38-6.27-10.73-7C27.05,4.07,24.53,3,17.71,3.06A25.09,25.09,0,0,0,8.32,5.6C2.17,8.8-1.41,14.23,2.66,21.16a11.56,11.56,0,0,0,7.09,5.13c9.79,2.85,19.83-.34,27.77-6.15,1.29-.94,5.79-4.58,6.44-5.77Z"/><path class="cls-2" d="M67.21,25.2c-2.43,1.06-3.13,5.24-.43,4.27,1.61-.58.8-1.47,1.51-2.59.27-.42.79-.72.39-1.4A1.13,1.13,0,0,0,67.21,25.2Z"/><path class="cls-2" d="M80.19,29c1.28-.12,3.69-1.49,2.74-2.49S80.39,27.91,80.19,29Z"/></g></g></g></svg>