<svg xmlns="http://www.w3.org/2000/svg" viewBox="0 0 18.59 42.5"><defs><style>.cls-1{fill:#020202;}.cls-1,.cls-2{fill-rule:evenodd;}</style></defs><g id="Слой_2" data-name="Слой 2"><g id="Слой_1-2" data-name="Слой 1"><path class="cls-1" d="M4.77,19.26c0,1.28.06.1-.28.62-.43-1.36-.13-1.17,0-1.38.13.19.29,0,.27.76ZM14.25,0h-.1l-.06,17.94c-.29,1.56-.68.25-.14,2,.37,1.13.18,1-.18,2.3-2.21-.38-1.63-1-4.42-1.08.14-2.5,1.43-1.26,1.23-4.25-2-.7-4.3-1.69-5.81.28C3,19.42,2.64,20.25,4.52,22a3.09,3.09,0,0,0,.66-1.48,3.37,3.37,0,0,1,1.17,1.2C5.83,23,5.11,22.74,4.4,24.22c-1.43,3-1.85,3-3.07,6L.16,32.48c-.33,1.61-.1.52.19.93l.41-.35.12-.15c1.26-1.4.48.14,1-.55s.09-1,.87-2a15,15,0,0,0,1.66-2.07c.53-.88.66-1.68,1.4-2.27,1,1.88.92,5.44,1,7.92,0,2-.23,1.8-1.11,3.3A6.31,6.31,0,0,0,4.5,40.8c.8.65.29.6,1.33.81,1-1.25.3-2.68,1.76-3.83C7.89,37.54,9,37,9.2,36.73c.8-.76.38-1.23.9-2.16l.33,7.49a4.78,4.78,0,0,0,2.9.38c-.59-1.16-1.11-.46-1.27-1.65l1.22-7.42c.49-4.87-.77-5.09-1-7.22-.15-1.3.07-1.15-.48-2.25,1.63.31,3.22,1,3.61-.91a7.69,7.69,0,0,0,0-1.59c.44-.27-.09,0,.34,0,1.05,0-.31.35.29,0-1.64-1.26.71-1.71-1.47-3.23l-.18-.11-.18-.12V0Z"/><path class="cls-2" d="M14,11.55h.11c1.95-.26-.65.14,1.05-.75s3.16-1.72,3.42-4.68c.68-7.8-9.21-8.11-8.86-.3a5.14,5.14,0,0,0,3.1,4.85c1.9,1-.46.64,1.18.88Z"/></g></g></svg>