<svg xmlns="http://www.w3.org/2000/svg" viewBox="0 0 53.39 40.27"><defs><style>.cls-1{fill:#2b2a29;fill-rule:evenodd;}</style></defs><g id="Слой_2" data-name="Слой 2"><g id="Слой_1-2" data-name="Слой 1"><g id="_3015313207680" data-name=" 3015313207680"><path class="cls-1" d="M20.74,14.78c2.49,1.68,5,3.33,7.54,5,.36.24,7.14,4.77,7.58,5-.1.27,0,.05-.17.3-.34.43-3,2.77-3.3,3.27a14.83,14.83,0,0,1-1.89-.61l-1.79-.61L26,26.15c-.22-.06-.33-.15-.65.15-.16.16-.07.06-.14.17l1.53,1.11c.56.38,1,.71,1.54,1.1.27.19.52.32.79.52l8.54,5.95.48-.46c-.21-.58-2.93-3.71-3.13-4.46.73-.34,3.27-2.66,4-3.13l6.78,5c.59.42,1.09.86,1.68,1.26s1.16.83,1.7,1.25,1.13.81,1.69,1.25l1.71,1.26c.3-.17.58-.41.83-.57L51,33.48c-.55-.73-3.76-4.74-4-5.31.32-.41,1.4-1.2.79-2a1.33,1.33,0,0,0-1.11-.48c-.48,0-.68.42-1,.63A11.52,11.52,0,0,1,44,23.59c-.18-.82.26-1.13.68-1.47.27-.23.36-.26.62-.47a19,19,0,0,0,2.9-2.59c.67-.92,1.09-2.28,0-3.11-1.77-1.41-5,1.65-5.8,2.3-3,2.49-1.67,2.76-3.85,2.09-.48-.15-1.27-.44-1.72-.52.17-.36.54-.57.4-1.16a1.19,1.19,0,0,0-2-.4,8.34,8.34,0,0,0-.82.73c-1-.25-5.67-2-7-2.51-1.15-.43-2.28-.89-3.45-1.35l-1.71-.69c-.38-.16-.84-.6-1.48.34Z"/><path class="cls-1" d="M23.74,9.22C24.53,8.19,25.2,6.9,26,6a15.33,15.33,0,0,1,2.76-2.59A12.15,12.15,0,0,1,37.43,1.7,10.32,10.32,0,0,1,44,5.93c1.75,2.34,2.3,4.72,2.51,8.27,1.39-.69.34-9.14-5.67-12.46a12.83,12.83,0,0,0-11.22-.4,12.27,12.27,0,0,0-3.3,2.2A8.4,8.4,0,0,0,25,5L23.74,6.44l-.2-.22c-.07-.09-.08-.13-.15-.23s-.19-.25-.29-.41A15.76,15.76,0,0,0,21,3.23,12.93,12.93,0,0,0,5.56,2a11.88,11.88,0,0,0-1.64,1.3A13.47,13.47,0,0,0,2.36,20.43c.4.58,1.44,2,1.89,2.53L6.4,25.23c.51.48,1,1,1.52,1.41a4.67,4.67,0,0,1,.4.38l9.31,7.57A52.28,52.28,0,0,1,23,39.51a8.78,8.78,0,0,0,.61.76c.41-.07.78-.65,1-1a22.78,22.78,0,0,1,2.84-3c.37-.32.63-.56,1-.94l1-.94c.52-.5,1.68-1.29,1.9-2a16.12,16.12,0,0,0-3.15,2.07,39.45,39.45,0,0,0-4.46,4c-.19-.17-.42-.46-.66-.72a38.32,38.32,0,0,0-3.55-3.42l-12-10.2C5.42,22,3,19.25,2,15.9.47,10.43,3.47,3.72,9.45,2a12,12,0,0,1,9.12,1.25A9.83,9.83,0,0,1,21.46,6l1.72,2.47a4.86,4.86,0,0,1,.27.41Z"/></g></g></g></svg>