<svg xmlns="http://www.w3.org/2000/svg" viewBox="0 0 34.84 33.57"><defs><style>.cls-1{fill:#e54e9a;}.cls-1,.cls-10,.cls-11,.cls-2,.cls-3,.cls-4,.cls-5,.cls-6,.cls-7,.cls-8,.cls-9{fill-rule:evenodd;}.cls-2{fill:#b22571;}.cls-3{fill:#f3a3c8;}.cls-4{fill:#ee89b6;}.cls-5{fill:#ed71ac;}.cls-6{fill:#f8f8f8;}.cls-7{fill:#cc338a;}.cls-8{fill:#f7b8c8;}.cls-9{fill:#fde4dc;}.cls-10{fill:#ead8e7;}.cls-11{fill:#d28db2;}</style></defs><g id="Слой_2" data-name="Слой 2"><g id="Слой_1-2" data-name="Слой 1"><g id="_3015313208064" data-name=" 3015313208064"><path class="cls-1" d="M21.79,19.22a14.28,14.28,0,0,1-2,1c-4,1.47-11.57,1.54-15.53-.17a15,15,0,0,1-1.88-1,7.77,7.77,0,0,1,.32,1.1.14.14,0,0,0,0,.06l.07.15a1.7,1.7,0,0,0,.2.33l0,0,.07.09c.42.62.24.69.59,1.17l.6.85a.14.14,0,0,1,0,.06l.76,1.23s0,0,0,.06c.13.28.27.31.47.52l.82,1,0,0,.09.06.17.13c.2.21.23.56.36.8.22.45.54.57.82.93l1,1.12a.27.27,0,0,1,.08.07l1.15,1.23c.16.22.33.28.47.45a4,4,0,0,0,.6.54l.6.32a2.36,2.36,0,0,0,1.21,0l.47-.3c.4-.21.21-.14.44-.46.11-.15,0,0,.17-.15l.82-.78,0-.05a9.27,9.27,0,0,0,.75-.78c.22-.33.4-.33.6-.62s.59-.56.85-.91l.13-.26,0,0c.2-.23.07,0,.24-.36a2.58,2.58,0,0,1,.36-.49l1.2-1.49c.21-.23.19-.08.31-.21s.09-.28.19-.43.07,0,.32-.19c.05-.45.17-.44.39-.79l.53-.77c.15-.19.11-.32.25-.58l.21-.4c.3-.83.43-.62.5-1.59l.14-.13c.09-.18,0-.24-.13-.37Z"/><path class="cls-2" d="M17,3.8a5.12,5.12,0,0,0,.15,2.06c-.05.81,1.42,3.17,1.41,3.39a7,7,0,0,0-3.79,1.27,8.8,8.8,0,0,0-1.86,1.9c-.85,1.12-.49.87-1.44-.27A7.06,7.06,0,0,0,8.33,9.73a6.18,6.18,0,0,0-5.82.53c-3.21,2.32-3.12,7-1,10.76.3-.05-.06,0,.21-.05s-.07-.11.2,0c-.16-.56-.22-.11.06-.55l-.12-.06,0,0c0-.89-.11-.61-.29-1.16a3.4,3.4,0,0,0-.25-.91c-.08-.17,0-.07-.08-.15l.09-.1,0-.3c-.22-1.6-.57-2.42.09-4a4.9,4.9,0,0,1,6.16-3,5,5,0,0,1,2.71,2s0,0,.05,0,0,0,0,.05l.62.84c.62.77,1.33,1.17,2.13.4l.53-.68.1-.14a.62.62,0,0,1,.14-.14A4.89,4.89,0,0,1,16.16,11a5,5,0,0,1,7,3.22c.21.71.1,1.42.23,1.91A8,8,0,0,1,23.31,18l-.27.58a4.41,4.41,0,0,1-.27.73A4.94,4.94,0,0,0,22.35,21c0,.24.08.18.08.37,0,.37-.29.18-.09.77.14-.24.3-.5.44-.77l.45-.81a.87.87,0,0,1,.1-.31.84.84,0,0,1,.23-.34,18,18,0,0,1,.58-1.77,7.58,7.58,0,0,0,.3-2.14,5.57,5.57,0,0,0-.11-1.91c0-.25-.19-.55-.28-.83s-.22-.34-.34-.65c-.2-1-2.35-2.6-3.12-2.79l-1.42-.5.91.08-.65-.94c-.15-.19-.11-.07-.26-.27s.25-.12-.05-.66L19,7.07a2.06,2.06,0,0,1-.74-.67c-.25-.08-.49-.53-.54-1a4.3,4.3,0,0,1,.34-2.74,3.44,3.44,0,0,1,1.61-1.52c2-.84,4.17.46,4.35,1.38.42.23.71,1.28,1.54,1.06s.81-1,1.28-1.42A3.25,3.25,0,0,1,28.75,1a3.33,3.33,0,0,1,4,2.1c.46,1.16.19,1.52.11,2.63-.12.62-.69.87-.84,1.15a1.69,1.69,0,0,1-.14.4.73.73,0,0,0-.07.5c.13.58.12-.1.13.87.59-.28,0-.11.47.06a8.55,8.55,0,0,0,1.35-3.9C34.08-.08,28.8-1.61,26,2a4.19,4.19,0,0,1-.6.74C24.9,2.49,23.86-.15,20.62,0A4,4,0,0,0,17,3.8Z"/><path class="cls-3" d="M1.26,15.64s0-.07.05-.06,0,0,0-.06,0-.06.06-.17l21.35,0h.06l.05,0c.23,0,0,0,.29.06-.16-2.94-3.39-5.32-7-3.89A5.67,5.67,0,0,0,14,13.19c-.19,0,0,0-.12-.1a.62.62,0,0,0-.14.14l-.1.14-.53.68c-.8.77-1.51.37-2.13-.4l-.62-.84s0,0,0-.05,0,0-.05,0c0,.32,0,.14-.08.27a5.21,5.21,0,0,0-2.26-1.64,4.83,4.83,0,0,0-6.68,4.29Z"/><path class="cls-4" d="M1.26,15.64c0,.37.12,2,.06,2.07l0,.3c.44.13.12.18.46.35l.21,0c.63-.17,15.47-.13,17.15-.13.71,0,1.59.1,2.68.08l.29,0,.61,0a1.1,1.1,0,0,0,.4-.74l0-.24s0-.25,0-.26a8.49,8.49,0,0,0,0-1.59c-.31-.1-.06-.1-.29-.06l-.05,0h-.06l-21.35,0c0,.11,0,0-.06.17s0,.07,0,.06,0,0-.05.06Z"/><path class="cls-4" d="M30.18,18.26,28.73,19c-.55.24-1.17.42-1.73.65s-3.6,1-3.61,1-.05-.05-.16-.16l-.45.81c-.14.27-.3.53-.44.77a9.6,9.6,0,0,1-1,1.59c-.19.27-.34.49-.55.76a4.83,4.83,0,0,0-.6.81A21.22,21.22,0,0,0,30.59,22a8.56,8.56,0,0,0,3.29-3.51,5.85,5.85,0,0,0,.51-2.82,9.1,9.1,0,0,0-.22-1.53,4.08,4.08,0,0,0-.2-.62,1.21,1.21,0,0,0-.42-.5,4.76,4.76,0,0,1-1,3.25,6,6,0,0,1-2.41,2Z"/><path class="cls-5" d="M1.81,18.36a1.67,1.67,0,0,0,.56.67,15,15,0,0,0,1.88,1c4,1.71,11.52,1.64,15.53.17a14.28,14.28,0,0,0,2-1,2.65,2.65,0,0,0,1-1l-.61,0-.29,0c-1.09,0-2-.09-2.68-.08-1.68,0-16.52,0-17.15.13l-.21,0Z"/><path class="cls-6" d="M24.44,16a7.58,7.58,0,0,1-.3,2.14,18,18,0,0,0-.58,1.77.65.65,0,0,1-.07.34,13.72,13.72,0,0,0,2.21-.48,17.46,17.46,0,0,0,5-2.21l.39-.31a4.56,4.56,0,0,0,1.4-6L32,10.33c-.19-.31-.09-.3-.45-.28-.29.34-.47.63-.74,1-.79,1-3.05,3.36-3.92,4.19-.4.38-1.13,1.38-1.62,1.6a3,3,0,0,0-.84-.83Z"/><path class="cls-7" d="M23.15,17.45a1.1,1.1,0,0,1-.4.74,2.65,2.65,0,0,1-1,1c.11.13.22.19.13.37l-.14.13c-.07,1-.2.76-.5,1.59l-.21.4c-.14.26-.1.39-.25.58l-.53.77c-.22.35-.34.34-.39.79-.25.15-.14,0-.32.19s-.09.31-.19.43-.1,0-.31.21l-1.2,1.49a2.58,2.58,0,0,0-.36.49c-.17.38,0,.13-.24.36l0,0-.13.26c-.26.35-.6.56-.85.91s-.38.29-.6.62a9.27,9.27,0,0,1-.75.78l0,.05-.82.78c-.18.13-.06,0-.17.15-.23.32,0,.25-.44.46l-.47.3a2.36,2.36,0,0,1-1.21,0l-.6-.32a4,4,0,0,1-.6-.54c-.14-.17-.31-.23-.47-.45L9,28.86a.27.27,0,0,0-.08-.07l-1-1.12c-.28-.36-.6-.48-.82-.93-.13-.24-.16-.59-.36-.8l-.17-.13-.09-.06,0,0-.82-1c-.2-.21-.34-.24-.47-.52,0,0,0,0,0-.06l-.76-1.23a.14.14,0,0,0,0-.06L3.67,22c-.35-.48-.17-.55-.59-1.17L3,20.71l0,0a1.7,1.7,0,0,1-.2-.33l-.07-.15a.14.14,0,0,1,0-.06A9.36,9.36,0,0,0,2.37,19a1.67,1.67,0,0,1-.56-.67c-.34-.17,0-.22-.47-.35l-.09.1c.05.08,0,0,.08.15a3.4,3.4,0,0,1,.25.91c.18.55.32.27.29,1.16l0,0,.12.06c-.28.44-.22,0-.06.55-.27-.1,0,0-.2,0s.09,0-.21.05a29.62,29.62,0,0,0,5,6.66c.5.46.9,1,1.41,1.51.68.65,4,4.19,4.33,4.38.42-.33,2.34-2.44,2.89-3l3.78-4a12.8,12.8,0,0,0,.88-1c.12-.22-.05,0,.19-.23a1.88,1.88,0,0,1,.15-.12,4.83,4.83,0,0,1,.6-.81c.21-.27.36-.49.55-.76a9.6,9.6,0,0,0,1-1.59c-.2-.59.1-.4.09-.77,0-.19-.08-.13-.08-.37a4.94,4.94,0,0,1,.42-1.71,4.41,4.41,0,0,0,.27-.73l.27-.58a8,8,0,0,0,.09-1.85l-.1.32c0,.11,0,.24-.05.34,0,.26-.08.43-.1.69Z"/><path class="cls-7" d="M31.09,7.34c-.08.39,0,.5-.14.74l-.31.45a2,2,0,0,0-.1.7c-.6.35-.08,0-.56.63-.3.42-.39.17-.43.8-.49.05-.41.15-.72.89s-.32.11-.65.74a1.42,1.42,0,0,1-1.57.46c-.32-.12-.07-.4-.07-.4-.93,0-.26-.35-.68-1.16a5.85,5.85,0,0,0-.37-.78l-.34-.35a5.29,5.29,0,0,0-.92-.92c-.5-.29,0,.13-.69-.46-.26-.22-.28-.17-.62-.18-.1-.23.13.17,0-.13s-.79-.16-1.26-.3a6.62,6.62,0,0,1-2.35-.91L19,7.07l.13.43c.3.54,0,.46.05.66s.11.08.26.27l.65.94-.91-.08,1.42.5c.12-.17-.1-.13.32-.09l.29.1a4.77,4.77,0,0,1,.51.25,5.58,5.58,0,0,1,2,1.84c.5.77,0,.68,0,.69.12.31.21.25.34.65s.22.58.28.83A5.57,5.57,0,0,1,24.44,16a3,3,0,0,1,.84.83c.49-.22,1.22-1.22,1.62-1.6C27.77,14.37,30,12,30.82,11c.27-.33.45-.62.74-1,.09-.26-.09-.34-.26-.63.28.11.1,0,.28.18s-.12,0,.19.15a6.94,6.94,0,0,0,.65-1.07c-.49-.17.12-.34-.47-.06,0-1,0-.29-.13-.87a.73.73,0,0,1,.07-.5,1.69,1.69,0,0,0,.14-.4l-.13,0c-.1.15,0,0-.13.14l-.68.37Z"/><path class="cls-4" d="M17.8,4.24a4.67,4.67,0,0,1-.09,1.17c.05.46.29.91.54,1A.77.77,0,0,1,19.1,6c-.61,0-.42,0-.58-.16.73,0,1.28-.1,1.95-.09A35,35,0,0,1,24.83,6a6,6,0,0,0,1.3.29c.05.14-.07.1-.07.15.88.06,2,.22,2.9.21l2.21.15c.43,0,.25-.15.73,0l.13,0c.15-.28.72-.53.84-1.15,0,0,0-1.5,0-1.74-1.09.21-6.15,0-7.78.07-.38,0-.49.07-.92.07A7.37,7.37,0,0,1,23.22,4c-.34,0-.5.07-.91.08s-.62,0-.93,0l-3.53.11s0,0-.05,0Z"/><path class="cls-3" d="M26.83,2.17c-.47.45-.59,1.24-1.28,1.42S24.43,2.76,24,2.53c0,.13.06.06-.07.08a3.62,3.62,0,0,0-3.75-1.24A3.18,3.18,0,0,0,17.8,4.24s0,0,.05,0l3.53-.11c.31,0,.62,0,.93,0s.57-.09.91-.08a7.37,7.37,0,0,0,.92.07c.43,0,.54-.06.92-.07,1.63,0,6.69.14,7.78-.07a3.33,3.33,0,0,0-2.41-2.61,3.67,3.67,0,0,0-2.89.49C26.8,2.31,26.94,2.41,26.83,2.17Z"/><path class="cls-1" d="M19.33,7.16a6.62,6.62,0,0,0,2.35.91c.47.14,1.18.06,1.26.3s-.12-.1,0,.13c.34,0,.36,0,.62.18.67.59.19.17.69.46a5.29,5.29,0,0,1,.92.92l.34.35a5.85,5.85,0,0,1,.37.78c.42.81-.25,1.12.68,1.16,0,0-.25.28.07.4a1.42,1.42,0,0,0,1.57-.46c.33-.63.38-.07.65-.74s.23-.84.72-.89c0-.63.13-.38.43-.8.48-.66,0-.28.56-.63a2,2,0,0,1,.1-.7L31,8.08c.13-.24.06-.35.14-.74a12.91,12.91,0,0,1-5.65,1,2.76,2.76,0,0,1-.93-.11c-.5-.19-.4-.4-.52-.56a2.81,2.81,0,0,1-1.19-.33l-.05,0-.44-.1c-1.07-.29-.78,0-1.77-.15-.83-.1-.82.14-1.21.1Z"/><path class="cls-4" d="M5,7.24a5.51,5.51,0,0,0,1.25-.35,35.64,35.64,0,0,1,4.28-.78,56.42,56.42,0,0,1,6.57-.25A5.12,5.12,0,0,1,17,3.8l0,.07c0,.38-.35.23-1.19.23l-3.9.21c-3.49.34-6.5,1.06-9.27,3.06C2,7.78.74,8.94.68,9.72A8.88,8.88,0,0,0,1.92,8.67l.65-.41A6,6,0,0,1,5,7.24Z"/><path class="cls-5" d="M18.25,6.4a2.06,2.06,0,0,0,.74.67l.34.09c.39,0,.38-.2,1.21-.1,1,.11.7-.14,1.77.15l.44.1.05,0A2.81,2.81,0,0,0,24,7.67c.12.16,0,.37.52.56a2.76,2.76,0,0,0,.93.11,12.91,12.91,0,0,0,5.65-1L31.77,7c.13-.11,0,0,.13-.14-.48-.18-.3-.06-.73,0L29,6.65c-.95,0-2-.15-2.9-.21,0-.05.12,0,.07-.15A6,6,0,0,1,24.83,6a35,35,0,0,0-4.36-.26c-.67,0-1.22.09-1.95.09.16.16,0,.14.58.16a.77.77,0,0,0-.85.41Z"/><path class="cls-8" d="M30.18,18.26a6,6,0,0,0,2.41-2,4.76,4.76,0,0,0,1-3.25,1.21,1.21,0,0,1,.42.5,4.08,4.08,0,0,1,.2.62,9.1,9.1,0,0,1,.22,1.53,5.85,5.85,0,0,1-.51,2.82A8.56,8.56,0,0,1,30.59,22a21.22,21.22,0,0,1-10.43,3.24,1.88,1.88,0,0,0-.15.12c-.24.23-.07,0-.19.23.52-.11,1.51-.11,2.18-.24s1.36-.26,2.1-.41,1.29-.35,2-.52a17.94,17.94,0,0,0,4.36-2A5.8,5.8,0,0,0,31.2,22a13.12,13.12,0,0,0,1.36-1.16,11.2,11.2,0,0,0,1.09-1.36c.14-.53.53-1,.73-1.75a6.86,6.86,0,0,0-.24-4.15c-.12-.32-.52-1.32-.92-1.35a13.86,13.86,0,0,1,.05,2.17,5.49,5.49,0,0,1-2.42,3.36l-.37.23-.26.26s0,0,0,.06Z"/><path class="cls-8" d="M5,7.24a6,6,0,0,0-2.43,1l-.65.41A8.88,8.88,0,0,1,.68,9.72C.74,8.94,2,7.78,2.55,7.37c2.77-2,5.78-2.72,9.27-3.06l3.9-.21c.84,0,1.17.15,1.19-.23a44,44,0,0,0-5.68.26c-.9.12-1.77.3-2.63.37l-2.29.68A12.78,12.78,0,0,0,4.18,6a6.17,6.17,0,0,0-1.39.83A13.13,13.13,0,0,0,.86,8.69a4.26,4.26,0,0,0-.77,1.44c-.06.25-.15.69.15.66s.24-.15.39-.34.3-.4.46-.61A6.14,6.14,0,0,1,2.86,8.4c1-.65,1.93-.91,2.14-1.16Z"/><path class="cls-9" d="M31.56,10.05c.36,0,.26,0,.45.28l.52.86a4.56,4.56,0,0,1-1.4,6l-.39.31a17.46,17.46,0,0,1-5,2.21,13.72,13.72,0,0,1-2.21.48.65.65,0,0,0,.07-.34.84.84,0,0,0-.23.34.87.87,0,0,0-.1.31c.11.11,0,.07.16.16s3-.76,3.61-1,1.18-.41,1.73-.65l1.45-.76s0-.07,0-.06l.26-.26.37-.23a5.49,5.49,0,0,0,2.42-3.36,13.86,13.86,0,0,0-.05-2.17c.4,0,.8,1,.92,1.35a6.86,6.86,0,0,1,.24,4.15c-.2.76-.59,1.22-.73,1.75.33-.12,0,.12.31-.24l.43-.85A5.92,5.92,0,0,0,34.75,17a6.92,6.92,0,0,0-1.48-5.34c-.54-.81-1.41-1.55-1.5-1.9-.31-.13,0,0-.19-.15s0-.07-.28-.18c.17.29.35.37.26.63Z"/><path class="cls-10" d="M1.32,17.71c.06-.11-.07-1.7-.06-2.07a4.83,4.83,0,0,1,6.68-4.29A5.21,5.21,0,0,1,10.2,13c.11-.13.08,0,.08-.27a5,5,0,0,0-2.71-2,4.91,4.91,0,0,0-6.16,3c-.66,1.61-.31,2.43-.09,4Z"/><path class="cls-10" d="M13.89,13.09c.08.14-.07.12.12.1a5.67,5.67,0,0,1,2.18-1.72c3.57-1.43,6.8.95,7,3.89a8.49,8.49,0,0,1,0,1.59s0,.25,0,.26l0,.24c0-.26.07-.43.1-.69,0-.1,0-.23.05-.34l.1-.32c-.13-.49,0-1.2-.23-1.91a5,5,0,0,0-7-3.22,4.89,4.89,0,0,0-2.27,2.12Z"/><path class="cls-10" d="M17.71,5.41a4.67,4.67,0,0,0,.09-1.17,3.18,3.18,0,0,1,2.39-2.87,3.62,3.62,0,0,1,3.75,1.24c.13,0,0,.05.07-.08-.18-.92-2.39-2.22-4.35-1.38a3.44,3.44,0,0,0-1.61,1.52,4.3,4.3,0,0,0-.34,2.74Z"/><path class="cls-10" d="M26.83,2.17c.11.24,0,.14.71-.33a3.67,3.67,0,0,1,2.89-.49A3.33,3.33,0,0,1,32.84,4c0,.24,0,1.72,0,1.74.08-1.11.35-1.47-.11-2.63a3.33,3.33,0,0,0-4-2.1A3.25,3.25,0,0,0,26.83,2.17Z"/><path class="cls-11" d="M23.71,12.58s.49.08,0-.69a5.58,5.58,0,0,0-2-1.84,4.77,4.77,0,0,0-.51-.25l-.29-.1c-.42,0-.2-.08-.32.09.77.19,2.92,1.81,3.12,2.79Z"/></g></g></g></svg>