<svg xmlns="http://www.w3.org/2000/svg" viewBox="0 0 67.62 58.48"><defs><style>.cls-1{fill:#070707;}.cls-1,.cls-2,.cls-3{fill-rule:evenodd;}.cls-2{fill:#fefefe;}.cls-3{fill:#535353;}</style></defs><g id="Слой_2" data-name="Слой 2"><g id="Слой_1-2" data-name="Слой 1"><g id="_3015313208160" data-name=" 3015313208160"><path class="cls-1" d="M38.84,52.91c.11.24.12.47-.14.38-.08,0-.12,0-.14-.15s.19-.21.28-.23Zm-1.53-.43c.46-.07.52.19.41.55C37.24,53.13,37.08,52.93,37.31,52.48Zm-.7-1.58c.38-.22.32-.24.7,0C37.39,51.81,36.5,51.8,36.61,50.9Zm-2.35,1.6a1.78,1.78,0,0,1-.37.85c-.28.31-.37.25-.78.42.39,1.28-.85.78,0,3.54-.91-1.06-1.23-3.35-.2-4.52s2.46-1.34,2.51-3.54c.58.51.27,3.9-1.12,3.25Zm3.12-2.59c-.89,0-.7-.89-.29-1S37.93,49.43,37.38,49.91Zm1.15-1.82c-.38.65-1.34.13-.94-.63S38.92,47.43,38.53,48.09Zm6.82-.91c.24,0,.23,0,.2.24,0,0-.06.15-.2,0S45.31,47.25,45.35,47.18Zm-18,4.43,0,.16a16.23,16.23,0,0,1-1.49-4.44,1.3,1.3,0,0,0,1.51-.23,6.91,6.91,0,0,0-.3,3.48,1.92,1.92,0,0,0,.33,1Zm18.49-4.75c-.2,0-.15.12-.26-.12s0-.19.08-.22c.26-.14.28.16.18.34Zm-7.36-.46a.64.64,0,1,1,1.27-.14A.64.64,0,1,1,38.46,46.4ZM32.1,46c.1.28.06.25-.25.26,0-.15-.09-.15,0-.27s.19,0,.2,0Zm13.9.19c-.32.06-.56-.15-.32-.4S46.07,45.9,46,46.19ZM45.82,45c.17.36.16.55-.32.53C45.36,45.29,45.34,45,45.82,45Zm-5,.3c-.43.89-1.75.19-1.27-.79C40,43.71,41.33,44.34,40.85,45.32Zm-9.5-.42.3-.06c.12.27.12.25,0,.48l-.29,0c-.12-.21-.15-.19,0-.4Zm-5.59,1.62c0-.83-.79-1.78.89-2.25C25.74,45.46,26.64,45.9,25.76,46.52Zm16.3-2.65a.82.82,0,1,1-1.48-.72A.82.82,0,0,1,42.06,43.87Zm-9.39,1.42a1.44,1.44,0,0,1,1.68-1.77c1.89.28,2.53,3.54.12,6.26a6.82,6.82,0,0,0-.88,1.11,4.61,4.61,0,0,0,1.55-1.48c.12,1.8-1.79,2.56-2.34,3.25a5.33,5.33,0,0,1,.46-1.38,3.78,3.78,0,0,0-.9,1.54,5.17,5.17,0,0,0-.26,2.1,4.76,4.76,0,0,0,.51,1.85,6.25,6.25,0,0,0,1,1.46c-1.58-.8-2.7-3.93-1.26-6.62a6.39,6.39,0,0,1,.62-.92A16.7,16.7,0,0,0,35,48c1-1.84.57-4-.76-4.22-1.05-.19-1.61.53-1.61,1.47Zm-1.35-1.58a.3.3,0,0,1,.59-.13A.3.3,0,1,1,31.32,43.71Zm11.3-.53c.24.1.26.25.67.39s1.77.19,1.87,1.63L45,45.09c-.23-.16-.32-.26-.59-.26a1.69,1.69,0,0,1,1,1.55,2.86,2.86,0,0,0-.71-.72c-1.09-.72-1.81-.23-2.1-2.48Zm-5-.13a3.22,3.22,0,0,0-.46,1.89,3.32,3.32,0,0,1,0,1.14.43.43,0,0,1-.76.17c-.39-.47,0-2.6,1.27-3.2Zm-15.53-.28a7.72,7.72,0,0,0,2.66.33,1.7,1.7,0,0,0-.46,1.5,10.39,10.39,0,0,1-2.2-1.83Zm5.13,1.33c-.45,0-.74,0-1.23,0s-.68-.14-1.07.06l-.05.56.53.15c-1.28.57-1.32-1.48.15-1.76.58-.12,1.26,0,2-.12s1.09-.4,1.53-.5a5.49,5.49,0,0,1-.73.91,4,4,0,0,1-1,.66ZM32,42.69c-.21-.27-.21-.22-.12-.63C32.65,41.73,32.82,42.84,32,42.69ZM19.22,46.22a.72.72,0,0,1-.42.26,1.73,1.73,0,0,1-1.45-.32c-1.71-1.4-1-3.79,1.44-4.3,2.62-.55,5.74,1,7.82.75a3.35,3.35,0,0,0,.9-.32c-.46.34-.4.49-1.56.58-1.92.16-4.27-.72-6.38-.56-4.14.32-3,4.64-.35,3.91Zm21-4.25a3.12,3.12,0,0,0-1.13,1.61c-1,2.7-2.37.91-.62-.63a3.7,3.7,0,0,1,1.75-1Zm-24.56-.26a3.18,3.18,0,0,0,1.67.4c-.92.72-1.09,1.06-1.1,2.47A17.76,17.76,0,0,1,15.65,41.71Zm17.24-.55c1-.28,1.09.91.08.79C32.71,41.54,32.7,41.58,32.89,41.16Zm2,2.27c-.07-1.36,1.61-.65,3.09-1.77a2.55,2.55,0,0,1,.42-.32A3.93,3.93,0,0,1,36,43.74a1.18,1.18,0,0,1-1.18-.31Zm4.85,9.48a1.72,1.72,0,0,1-2,.72c-2.7-.52-1.92-4-1.07-5.79,1.31-2.87,3.83-4.33,4.27-7,.13,2.28-2.52,4.65-3.6,6.82-.71,1.43-2,4.72.25,5.59a1.9,1.9,0,0,0,2.11-.34ZM34,41.36c-.14-1,.77-1,.94-.43a.49.49,0,0,1-.27.62c-.33.16-.47,0-.67-.19Zm2.3-.26c-.29.73-1.4.19-1-.54A.57.57,0,0,1,36.31,41.1Zm-9,10.51a19.06,19.06,0,0,1-.16-1.91,10.89,10.89,0,0,1,2.41-6.11c.17-.22.32-.37.48-.6l1.06-1.08c.13-.13.41-.35.59-.49A6,6,0,0,1,33,40.56l-.69.58a27.23,27.23,0,0,0-1.88,2,11.6,11.6,0,0,0-2.83,7.45c.05,1,.41,2.16,1.4,2.43a1.67,1.67,0,0,0,1.16-.16.68.68,0,0,1-.38.3A1.5,1.5,0,0,1,28.37,53c-.58-.36-.65-.69-.93-1.23l-.05-.1-.06-.1Zm9-11.27a.64.64,0,1,1,1.26-.22A.64.64,0,0,1,36.32,40.34ZM27.25,44.1c.86,0,1-.37,1.39-.83.21-.26.27-.38.47-.62s.33-.39.5-.61a1.61,1.61,0,0,1-1.11.41.63.63,0,0,1,.41-1.15c-.23.16-.31.23-.23.52,0,0,.05,0,.06,0s0,0,.06,0c.33,0,.65-.46.85-.72.71-.93.76-1.69,2.07-1.27a8,8,0,0,0,1.52.34c-.24.16-1,.4-1.36.62a11.82,11.82,0,0,0-3.1,3c-.84,1.12-1.44,3.39-2.61,3.43-.78,0-.86-.6-.63-1.16l.07.2s0,0,0,.06,0,.22.06.34c.71.14.69-.56.8-1.19s.14-1,.58-1.26l.19-.11Zm-5-3.13.24-.7c.17-.23,0-.09.22-.15a2.68,2.68,0,0,0,.53,1.22c.43.47.52.41,1.1.76-1.45.08-2-.75-3.39-.54.3-.61.82-.37,1.17-.6-2.3-.3-5.38,1.9-6.5.24-.62-.93-.11-2.11.77-1.84.39.12.69.73.1,1,0,0,0-.05,0,0l0-.37c-.28-.51-1,.32-.38.84s1.43-.09,2-.28a4.31,4.31,0,0,1,4.22.48Zm-.5-2.11c.54-.23.74,0,.6.58-.28.13-.29.12-.57,0Zm9.94-1.28c.38.27.13.9.24,1.44a.83.83,0,0,0,.37.55l.55.4c-1,0-2-.41-1.51-1.52a2,2,0,0,0,.15-.39s.07-.25.07-.25c.09-.23,0-.08.13-.23ZM20,39.45c-.21-.73.24-1.22.66-.74a.56.56,0,0,1,0,.66C20.48,39.65,20.23,39.53,20,39.45Zm4.69.46c-.09-.35,0-.29-.28-.34-.45.41.08,1,.59,1s.87-.49,1.42-.56,1,.17,1.73-.19a4.15,4.15,0,0,0,1.06-.87,4.74,4.74,0,0,1-1.31,1.61c-1.32,1.09-3.7,1.2-4.07-.29S25.4,39.18,24.69,39.91Zm-6.36-2.1a.61.61,0,0,1,.45,1.13.55.55,0,0,1-.73-.32C17.91,38.18,18.13,38,18.33,37.81Zm26,11.82c.71-.41.8-.24,1.32-.91,1.33-1.7.61-3.71-.58-5s-2.62-2.1-2.69-4.17a2.81,2.81,0,0,1,.5-1.85c-.24,1.25-.61,2.1.57,3.65s4,3,3.26,6a2.9,2.9,0,0,1-2.38,2.31Zm-12-11.7c-1.08-.37,1.15-1.75,1,.22-.05.61.07.89.49,1.12a1.8,1.8,0,0,0,1.38.14,1.6,1.6,0,0,1-2,.45c-.88-.62,0-1.48-.39-2.37-.71-.07-.32.27-.4.44Zm-15.84-.59a.74.74,0,0,1,.44-.83.66.66,0,0,1,.81.54c.15,1-1.1,1.2-1.25.29Zm26,5.59c-1.68-.89-1.24-5.35,0-5.63C41.83,37.78,41.3,41,42.5,42.93Zm-1-5.59.42-.18c-1.2,1.18-.37,3.92-2.13,4.69-.77.34-1.36-.23-.83-.81.13.17,0,.16.1.44,1.13.14.26-2.09,1.44-3.45a2.39,2.39,0,0,1,1-.69ZM23.4,37.27a1.36,1.36,0,0,1,2-.24c-.13.09-.39,0-.62.07,0,0,.05,0,.06,0l.4.16a.73.73,0,0,1,.32.37,1.44,1.44,0,0,1-.06,1.1l-.11-.25c0-.07,0-.13-.07-.23-.23-.57-1.51-1.12-2.55.34-.14.2,0,.09-.16.16-.12-1,0-1.55.73-1.92l0,.1v0c0,.24-.06.06,0,.26Zm11.77-.62a.61.61,0,1,1,1.2-.21A.61.61,0,1,1,35.17,36.65Zm-10,2.24c-.23-.26-.26-.48-.71-.54a.84.84,0,0,0-.85.35c-1,1.45,1.1,4,3.77,2.46,1.18-.69,1.87-1.92,2.82-2.85.55-.55,1.64-1.76,2.67-1.69a5.26,5.26,0,0,0-1.65,1L30,39.21a7.76,7.76,0,0,1-2.88,2.72,2.94,2.94,0,0,1-3.84-1.27c-1.07-2.37,1.65-3.36,1.94-1.77ZM38.42,35.6c.15.11,0,0,.15.14A2.86,2.86,0,0,0,41,37.16c-.67.49-.86.44-1.37,1.39a13.38,13.38,0,0,0-.57,2.24A27.67,27.67,0,0,1,38.42,35.6Zm3.35.82a.82.82,0,1,1,1.62-.3A.82.82,0,1,1,41.77,36.42ZM8.59,39.5a2.43,2.43,0,0,1,1.1-3.44,3.09,3.09,0,0,1,3.82.89c1.72,2,1.78,5.31,2.69,8.06-1-1.14-1.31-5.07-2.7-7.2-1.92-3-5.8-1.38-4.91,1.69Zm31.48-3.39a.75.75,0,1,1,1.46-.37A.75.75,0,0,1,40.07,36.11Zm-3.27-.42A2.35,2.35,0,0,1,37.38,37c.26,1.73-.77,3.32-2.77,3.06.42-.3.54-.29.81-.72-.59,0-.93.19-1.44-.17a1.42,1.42,0,0,1-.59-1.27,2,2,0,0,0,3.41-2.17Zm-21.28,0A.74.74,0,1,1,17,35.43.74.74,0,1,1,15.52,35.65Zm38-2.39c1.09.37.44,1.74,1,2.55s1.91-.22,2.3,1.31c-1.5-.64-2.2.08-3.12-.72s-.19-2-.17-3.14ZM21.21,35.65c-.23.56-1,.28-.78-.36S21.42,35.15,21.21,35.65Zm41.2-.8.29,0C63.09,35.84,61.66,35.44,62.41,34.85Zm-1.22-.18c.25.25.27.34.16.69l-.47.08c-.24-.37-.29-.74.31-.77ZM40.06,35a.69.69,0,1,1-1.26-.58C39.1,33.61,40.43,34.15,40.06,35Zm19.36-1c.87-.18.73.66.49.8C59.47,35.12,59,34.64,59.42,34.05Zm-37.13,4.4a3.85,3.85,0,0,1-3.07-1.06c-1.45-1.66-.16-4.06,1.55-3.55a1.74,1.74,0,0,1,1.08,1.07c.36,1.54-2,2.2-1.67.41a.11.11,0,0,1,0,.06l.06.27a.53.53,0,0,0,.15.32.53.53,0,0,0,.63.08c.8-.36.47-1.74-.7-1.75a1.17,1.17,0,0,0-1,.7c-1,1.81,1.38,3.35,3,3.45Zm12.53-3.3c.26-.65-.11-.52,0-.95s.64-.16,1-.51c0,1,0,1.46-1,1.46ZM17.13,33.89c-.45,1-2,.36-1.5-.8a.81.81,0,0,1,1.11-.44A1,1,0,0,1,17.13,33.89Zm40.76-.23a.5.5,0,1,1,1-.28A.5.5,0,1,1,57.89,33.66Zm-4.28-.57c2.85-.09,1.63,2,2.2,2.79.1.14,0,0,.18.24-1,.06-1.36-.19-1.46-1.18a2,2,0,0,0-.66-1.65l-.1-.07a.8.8,0,0,1-.16-.13Zm-14.23.18a.63.63,0,1,1-1.12-.56A.63.63,0,0,1,39.38,33.27Zm2.94-.69a.68.68,0,1,1,1.26-.51A.68.68,0,1,1,42.32,32.58Zm-7.76.74c1,.36.68-.48,1.74-1.6C36.78,33.35,34.91,34.42,34.56,33.32Zm23.19-.66a.58.58,0,1,1-1.07-.43C56.91,31.51,58,31.93,57.75,32.66ZM22.63,40a8.11,8.11,0,0,1-4.81-.5c-3.22-1.36-4.59-5.46-3.09-6.89a1.89,1.89,0,0,1,2.05-.51A2,2,0,0,1,18,33.67c-.2-.29-.36-1-1.25-1.31A1.73,1.73,0,0,0,15,33c-.87,1.11,0,2.95.55,3.86a7,7,0,0,0,4.71,3c.89.17,1.56.1,2.42.19ZM34,46.08a1,1,0,0,1-1.11.26,1.44,1.44,0,0,1-.82-.64,2.38,2.38,0,0,1,.13-2.38c1.15-1.73,2.3-1.07,4.22-1.76,3-1.07.88-4.87,1.25-8.44a11.69,11.69,0,0,1,.26-1.2,15.17,15.17,0,0,0,.39,5.22c1.24,6.52-3.49,4.42-5.36,5.94a2.26,2.26,0,0,0-.8,2.14,1.36,1.36,0,0,0,.6.85C33.25,46.38,33.58,46.21,34,46.08ZM4.17,30.67c.34.95.19,2.14,1.73,2.92,1.37.7,2.44.45,3.82.8-1.39.1-3.07.33-4.24-.31A3.15,3.15,0,0,1,4.17,30.67Zm7.88.9c.52.77.92,2.17,2.22,1.34a4.83,4.83,0,0,0,0,3.51A10.37,10.37,0,0,1,12.05,31.57Zm24.31,0a2.07,2.07,0,0,1,1,1.95c-.1.62-.32.55-.66.86-.52.49-.08.62.15.9-.95-.11-1.23-.63-.92-1.6s.88-.89.38-2.11Zm19,0a.64.64,0,1,1,1.25-.28A.64.64,0,0,1,55.38,31.58Zm-16.14-.3a.57.57,0,1,1-1-.57C38.57,30.05,39.61,30.59,39.24,31.28Zm-28.65-.62c.5-.25.63.54,0,.43C10.49,30.9,10.47,30.89,10.59,30.66Zm43.63-.3a.72.72,0,1,1,1.41-.22A.72.72,0,1,1,54.22,30.36Zm-.6.51s0,0,.05,0l.38.21a1.39,1.39,0,0,1,.41.27,1.29,1.29,0,0,1,.35,1,1.33,1.33,0,0,1-1.74.17c.16.84-.17,1.57-1,1.6.66-1.7-.85-2.83-1.57-3.54,1-.06,2,.09,2.88-.78.31-.31.22-.51.4-.81a1.15,1.15,0,0,1-.19,1.79ZM10.84,29.18c.19.81-.4,1-.64.57S10.33,29,10.84,29.18Zm31.93-.76c.86,1.62,1,.92,1.69,1.77a3.07,3.07,0,0,1,.26,2.75c-.13-1.41-.5-1.17-1.27-2a1.81,1.81,0,0,1-.63-1A6.63,6.63,0,0,1,42.77,28.42Zm-5.2,3.73-.33-.35c-.74-1.11.41-2,.82-2.61.13-.2.11-.28.24-.44C38.85,29.76,37.32,30.29,37.57,32.15Zm7.77-2.83a30.64,30.64,0,0,1,3.44,1.3,5.71,5.71,0,0,1,2.65,2.26,4.24,4.24,0,0,1,.1,3.95c-.61,1-2.55,1.53-3.27.28.54.27.8.61,1.7.38,2.09-.54,1.7-3.38.86-4.6s-2.55-2.08-4-2.81c-.23-.12-1.39-.74-1.45-.76ZM11.23,32.78l-.09-.11a.65.65,0,0,1-.1-.15c0-.09-.1-.22-.15-.31a2.25,2.25,0,0,0-1.54-1.08c.35.3.76.42,1.09.76a3.8,3.8,0,0,1,.78,1.17,4.93,4.93,0,0,0-1.29-1,7.35,7.35,0,0,1-1.6-.7c-1.78-1.37-.58-3.17,0-2.11-.31.19,0-.09-.29,0-.12,0-.19,0-.16.25.12,1,3,.4,3.39,3.22Zm27.31-4.14c.46-.33.43-.37.91,0C39.59,29.73,38.41,29.72,38.54,28.64ZM11.62,34.38c-1.17-1.63-2.26-1.12-4.19-1.86a2.78,2.78,0,0,1-1.67-1.4,2.14,2.14,0,0,1,.37-2.35c-.22.89-.51,1.33,0,2.24,1.13,1.83,4.45.67,5.44,3.37Zm36.15-5.53a1.86,1.86,0,0,0,2-1.48c.06,1,.57,1.59,1.62,1.33C50.89,29.83,48.59,29.59,47.77,28.85Zm-3-.77.37,0C45.68,28.94,44.29,28.88,44.77,28.08Zm9.52.32c.26-.59,2.18-1,3-.68S59,29.43,59.78,29c0-.29-.06-.31-.2-.45A.61.61,0,0,1,60,29.61c-.44.34-1.31,0-1.76-.11L59,30.61c.42.64.85-.08,1.3.38s.28.94.31,1.45a1.2,1.2,0,0,0,.4,1l.13.11.14.12c-1.28-.15-1.84-1.26-2.4-2.24-.74-1.28-2.6-3.43-4.6-3Zm-10.43-.52c.17.52.08.68-.45.57C43.25,28.05,43.32,27.71,43.86,27.88Zm-33.65.27c-.11-1.06.76-1,.94-.5a.57.57,0,0,1-.24.73C10.56,28.54,10.4,28.3,10.21,28.15Zm40.31-.4a.64.64,0,0,1,1.18-.5A.64.64,0,1,1,50.52,27.75Zm-10.9-1.1a.78.78,0,0,1-.06.72C38.5,27.62,38.68,26.18,39.62,26.65Zm5.72.46-.16.14c-.4,0-.58-.35-.36-.59S45.44,26.58,45.34,27.11Zm-3-1.49a2.66,2.66,0,0,1,.6,2.47A2.33,2.33,0,0,1,42.32,25.62ZM59,26.06a2.43,2.43,0,0,0,1,1.6c-.57-.06-1.68-.48-2.43-.61-1-.17-1.94-.1-2.8-.25A32.45,32.45,0,0,1,59,26.06Zm-7.32,2.12c-.27.63-1.22.41-1.5-.14a1.33,1.33,0,0,1,.37-1.67c1.27-.95,2.46.31,2.41,1.76-.1,2.74-4.94,2.68-5.7.38a3.07,3.07,0,0,0,2.52,1.26c3.76.2,2.95-3.87,1.19-3.14C49.72,27.13,50.46,29.05,51.64,28.18Zm-5.18-1.93a4.18,4.18,0,0,0,.5.43c.74.53,1.9.59,2.08.91.29.5-.49,1.62-1.52.46A5.36,5.36,0,0,1,46.46,26.25Zm-35.32-.82c.83-.45,1.27,1,.54,1.34S10.22,25.93,11.14,25.43ZM50.76,26a2.67,2.67,0,0,1,1.67-.47c.82.08.75.5,1,1.11,0,0,.15,0,.2-.33a.79.79,0,0,0-.06-.43c1.07.53.81,3.58-1.33,4.11a2.43,2.43,0,0,0,.89-2.73A1.78,1.78,0,0,0,50.76,26Zm-5-.34c1,.78,1.7,3.64.14,3.44C45.27,28.1,46.34,28.19,45.74,25.61ZM8.8,29.43a8.43,8.43,0,0,1-.71-2,5.58,5.58,0,0,1,.2-2.49c.46.48.41.58,1.37.51C8.6,27.21,8.69,27.23,8.8,29.43Zm30.65-4.7c.51.31.26.83-.13.75S38.81,24.82,39.45,24.73Zm5.89,1.45A2.09,2.09,0,0,1,43.27,25,2.1,2.1,0,0,1,45.34,26.18Zm-2.81-1.26A4.21,4.21,0,0,1,44,26a3.44,3.44,0,0,1,.71,1.91,3.41,3.41,0,0,1-2.14-3Zm2.87-.13c2.36,1.37,2.85.5,3.88.88a.61.61,0,0,1,.2,1c-.73.65-2.67-.47-3.39-1.08a5.13,5.13,0,0,1-.69-.85ZM7,25.47a.66.66,0,0,0,.29-.39,1.55,1.55,0,0,1,.08-.23c.1-.22,0-.08.13-.21.55,1.79-.19,2.09-.8,2.93a4,4,0,0,0-.44.94A2.71,2.71,0,0,1,6,25.84a4.64,4.64,0,0,0,1-2.55c.64.52.24,1.49.07,2.18Zm47.51,1.71c1.9-.8,5.27.8,8,1.06,1.39.12,3.12-.06,3.75-.91.76-1,.84-2.92-1.06-2.71.89-.78,2.66.74,1.56,2.68-1.43,2.54-5.78,1.34-8,.62a9.77,9.77,0,0,0-4.23-.74ZM9.29,23.74c.69-.41,1,.65.52.93a.55.55,0,0,1-.71-.19.61.61,0,0,1,0-.48C9.15,23.71,9.14,23.84,9.29,23.74Zm2.94-.44c1.14-.57,1.52,1.36.6,1.69A.9.9,0,0,1,12.23,23.3Zm-4.51.57c.44-.3.68.4.36.61S7.43,24.07,7.72,23.87Zm29.3.29c2,3.61-1,6.4-2.42,8.71-2.78,4.49,1,5.91,1.8,4.1.38-.92-.57-1.86-1.31-.79.26-1,1.66-.72,1.64.47,0,2.64-5.31,1.89-3.07-3.18C34.78,31,38.87,28,37,24.16Zm.32-.05a3.23,3.23,0,0,1,1,1.58A3.34,3.34,0,0,1,38.44,28a9,9,0,0,1-1.62,2.45,5,5,0,0,0-.42.95c0-1.25,1.16-2.27,1.61-3.37a4.58,4.58,0,0,0-.67-3.88Zm3.18-.3c.13.09,0,0,.18.16l.44.63A6,6,0,0,1,42,27.89c-.16-.31-.25-.55-.68-.61.19.35.46.54.67,1a2.09,2.09,0,0,1,.18,1.45c-.29-.29-.13-.43-.69-.5l.34.38a1.73,1.73,0,0,1,.25.44,1.59,1.59,0,0,1,0,1.28c-.11-.25-.09-.44-.4-.52a.73.73,0,0,0-.7.15,1.46,1.46,0,0,0-.11,1.47c0-.42,0-1.06.19-1.31s.82-.08.62.62a1.78,1.78,0,0,0-.17,1.23c.06.17.49.76.73,0v0a.52.52,0,0,1-.44.88c-.45-.06-.61-.5-.81-.89a4.46,4.46,0,0,1-.7-2.78c0-2.22.71-4,.18-6.24ZM55.61,25.4c1.35-.37,1.65-1.25,2.45-1.92,1.31-1.09,2.83-.51,2.39.55l-.44,0c.16-.18.25-.22.2-.51C58.74,23.31,58.77,26.47,55.61,25.4ZM7.43,23.61c-.11-.34-.1-.53.33-.55C8,23.39,7.92,23.73,7.43,23.61ZM9.19,24.8c-.87-.18-.63-2,.7-1.81,1,.12,1.12,1.4.81,2.33s-.81,1.54-1.13,2.41a2.15,2.15,0,0,0,.32,2.6c-1.72-.87-.58-3.25,0-4.44.29-.58.85-1.9.17-2.37C9.2,22.93,8.39,24.31,9.19,24.8ZM2,26.35c-2.15,0-.79-4.63,1.66-3.1,2.07,1.28,1.22,3.88.75,5.52A8.88,8.88,0,0,0,3.92,32,2.94,2.94,0,0,0,5.35,34.3c1.88,1,3.36-.43,6.42.94a7.5,7.5,0,0,0-3.12-.32,6.68,6.68,0,0,1-3.24-.07c-1.8-.76-2.34-2.77-1.8-5.11.42-1.8,1.61-4.16.28-5.73s-3,0-2.81,1.42c.1.64.43.74.91.92Zm37.63-3.46c.1.35.12.57-.32.56-.17-.14-.17-.09-.2-.39C39.23,22.85,39.35,22.82,39.62,22.89Zm-.5,1.22c-.71.3-1.12-.2-1.37-.65a1.77,1.77,0,0,1,0-1.81c.11.12.06,0,.14.23.44,1,.37.53.57,1s0,.91.66,1.2Zm-4.51,4c.16.91,2.06.63,1.77-1.75-.13-1.1-.62-1.91-.33-3a1.67,1.67,0,0,1,.14-.39l.3-.36a2.9,2.9,0,0,0,0,2.46,4.6,4.6,0,0,1,.21,2.63c-.21.65-.87,1.5-1.8,1.11-.68-.28-.87-1.7.17-1.62-.51.2-.7.52-.45.88ZM7.24,22.94c-.36,0-.52-.18-.32-.4S7.3,22.66,7.24,22.94Zm46.39,2.68a8.36,8.36,0,0,0,3.85-2.8c.13-.22.18-.4.29-.6a3.12,3.12,0,0,1-1.43,2.37,4.81,4.81,0,0,1-2.71,1Zm-51.48,1c-.75.06-1.09.06-1.48-.52a2.73,2.73,0,0,1,2-3.89,2.79,2.79,0,0,1,2.58,1.75c1.58,3.38-2.95,8.22,2.15,9.36a15.16,15.16,0,0,1,3.45.86,4.72,4.72,0,0,1,2.23,2C11.42,34,9.33,34.1,7.3,33.72c-2.63-.49-3.36-2.26-2.69-5.13a8.32,8.32,0,0,0,.47-3.54,2.75,2.75,0,0,0-1.81-2.34A2.13,2.13,0,0,0,.78,24.16C.29,25.3.83,27,2.15,26.45c.17.22.21-.3,0,.15Zm4.22-4.49c.27.21.21.24,0,.38C6.16,22.35,6.09,22.31,6.37,22.11Zm33.16.11c2,2.73-.16,7.19,1,10.39.76,2.14,2.65,2.3,3.37,1.08a1.69,1.69,0,0,0-.41-2.11c-.82-.58-1.62.23-1.34,1.21a1.06,1.06,0,0,1,1.23-1.57c1.66.53,1.46,3.55-.66,3.74a2.48,2.48,0,0,1-2.19-1.19c-2.07-3.11.67-8.05-1-11.55Zm20.41.46a7.24,7.24,0,0,0,1.32-.6,3.12,3.12,0,0,0,.89-1,5.1,5.1,0,0,1-1.31,2.95c0-.8-.25-1.19-.9-1.37ZM6.66,21A1.24,1.24,0,0,0,8,20.45l.26-.34a4.2,4.2,0,0,0,.47,1.61,2.61,2.61,0,0,0,1,1.11A3.55,3.55,0,0,1,8,22.09,5.28,5.28,0,0,1,6.66,21Zm7-.42c1.35.65.61,3.31,0,4.46-1.51,3.05-3.09,5.25-1,9.15.63,1.17,2.18,3.39,2.35,3.77a22.67,22.67,0,0,1-2.68-3.51c-3.59-6,2.29-9.22,1.86-12.84a2.06,2.06,0,0,0-.54-1ZM40,20.36l.93.87c.43.43,2.79,2.22,2,3.21s-1.7-2-2.28-3A8.31,8.31,0,0,1,40,20.36Zm21.23,0a.27.27,0,0,1-.24-.48c.34-.29.56.31.24.48ZM38.93,22.55c-.8.37-.91-.84-.92-1.33,0-1-.44-1.15-.77-1.52a1.46,1.46,0,0,1,1.52.91c.27.7-.14,1.09.05,1.65.13.37.18,0,.12.29Zm-1.37.89c-.69-.15-.86-.93-.81-1.76s.46-1.13,0-2c.44.15.54.21.73.58.78,1.45-.47,1.6,0,3.21Zm23.69-4.22c.39.08.34.39.11.48S61,19.5,61.25,19.22Zm-3.36,2.71c.17-.92.4-1.52,1.15-1.85,1.46-.64.72,0,1.92-1a1.44,1.44,0,0,1-1.06,1.32c.27.14.43,0,.69-.21C60.4,21.75,58.81,21.34,57.89,21.93Zm-18-.14c-.8-1.51-1.39-2.23-3-2.53.11-.17,1-.06,1.22,0a4.3,4.3,0,0,1,2.16,2.13c.83,1.53,1,2.49,2.17,3.49-1.2-.3-1.94-2-2.55-3.11Zm21.3-3.24c.43,0,.38.45-.07.33ZM48.66,25.11a9.49,9.49,0,0,1-3.75-.9A12.24,12.24,0,0,1,41.1,21a7.22,7.22,0,0,0-2.58-2,12.86,12.86,0,0,0-1.85-.45,4.84,4.84,0,0,1,3.55,1.06,25.38,25.38,0,0,1,2.34,2.25c4.68,4.45,10.45,2.81,9.65.13.65,1-.58,3.12-3.55,3.11Zm12.47-6.93c-.23,0-.11.08-.22-.11s.05-.1.19-.14c.1.16,0,.19,0,.19S61.13,18.16,61.13,18.18Zm-54,1.88c.7-.24.47-1.43,0-1.86C6,17.09,4.36,19.42,6,23.32c-1.21-.95-1.85-6.14.68-5.94a1.8,1.8,0,0,1,1.1,2.71c-.31.44-1,.76-1.41.14-.26-.38-.23-1.31.68-1.11l-.37.11c.53-.06.73.15.61.57l-.12.26ZM5.49,17.57A10.41,10.41,0,0,1,6,16.26a13.45,13.45,0,0,0,.37-1.55c.13.3.28,1,.4,1.42s.45,1.06.47,1.28C7,16.86,5.74,17.16,5.49,17.57Zm57.14-1.36c.1,1-.77.89-.94.43A.49.49,0,0,1,62,16C62.31,15.88,62.44,16.07,62.63,16.21Zm-8.53.24c.94-1.33,2.69-.57,3.48.77a5.2,5.2,0,0,1-.06,4.49c-1.39,2.91-4.29,3.87-7.41,3.72.43-.14,1.6-.22,2.23-.38a9.1,9.1,0,0,0,1.89-.71c3.82-2,4.35-6.91,1.77-8.15A1.73,1.73,0,0,0,54.1,16.45ZM62.55,15c.57-.38.91.48.48.73A.44.44,0,0,1,62.55,15Zm1.34-.84c.17.44,0,1-.49.64C63.07,14.56,63.19,14,63.89,14.14Zm-2.38,2a2.83,2.83,0,0,1-.42-2.39c.31.64.58.88,1.53.7a8.52,8.52,0,0,1-.65.76A3.67,3.67,0,0,0,61.51,16.11Zm4.05-1.8c0-.27.45-.44.47,0s0,.08-.08.18S65.57,14.58,65.56,14.31Zm-1.15-.47c.21-.22.76-.13.48.49C64.46,14.42,64.32,14.36,64.41,13.84Zm-6,8.58c1.59-.12,3-.57,3.34-2.36.51-2.57-2.12-4.66-1.35-6.95.68-2,3.38-.91,2.29.75-.46.69-1.53.56-1.23-.56l0,.27c0,.15,0,0,0,.2a.69.69,0,0,1,.23-.54c.56,0,.64.25.49.73-.27.11-.23.11-.58,0,0,0,.12.21.45.08a1,1,0,0,0,.44-1.32c-.31-.62-1.34-.41-1.66.17-.69,1.23.18,2.82.63,3.85,1.31,3,.65,5.79-3.12,5.65ZM9.69,22.23a2.11,2.11,0,0,1-.66-1,6.53,6.53,0,0,1-.37-1.16,11.43,11.43,0,0,1-.25-2.94,7,7,0,0,1,1.73-4.59A4.44,4.44,0,0,1,12,11.28a3.77,3.77,0,0,1,2.63.13,16.57,16.57,0,0,0,2.29.86c1.06.21,1.85-.12,2-1-.12.42-.09.71-.4,1a2,2,0,0,1-1.11.38A7,7,0,0,1,15,12c-2.07-.73-3.16-.37-4.39.86a4.86,4.86,0,0,0-1.18,1.81A10.74,10.74,0,0,0,8.92,20a6.57,6.57,0,0,0,.29,1.24,9.6,9.6,0,0,0,.48,1Zm48.88-10.1a1.37,1.37,0,0,1,.12-1.37.89.89,0,0,1,1,.9l.05-.05.1-.08A.76.76,0,0,1,61,11.47l-.26.21c-.8.52-.76,1.59-.77,2.46a2,2,0,0,1-.43-.52c-.8-.94-1.18-.87-2-.72,0-.57.44-.85,1-.77Zm.77,7.32a2.48,2.48,0,0,0,.75-3c-.78-2-3.26-2.83-4.17-3.82-1.09-1.17-1.13-1.44-.76-2.84,0,1.46-.12,1.65,1.28,2.71s2.53,1.35,3.5,2.71c1.22,1.69.73,3.78-.6,4.21ZM12.41,10.26c-.53-1.09,1.13-1,.59,0Zm-4.1,5.41a9.83,9.83,0,0,1,1.08-3.86c.15-.32.3-.57.46-.85a4.57,4.57,0,0,1,1.94-1.7c-.7,1,.43,1.44.65,1.57-2.62.55-3.35,2.93-4.13,4.84Zm54.58-3.24c-.44-.52-.22-.66-1-.94a2.17,2.17,0,0,1-1.27-.72,1.39,1.39,0,0,1,0-1.55c.21-.26,1.11-.61,1,.38l-.13-.16s0,0,0,0,0-.06-.12-.1-.25,0-.36.07c-.23,1,.52,1,1.16,1.44a1.79,1.79,0,0,1,.81,1.62Zm.19.52c0-1.54-.7-2.22-.8-3.41-.05-.65.2-1.26.76-1.36s1.22.65.59,1l0-.17a.63.63,0,0,0,0-.22c-1.4-.25-.38,1.27-.14,1.81A1.92,1.92,0,0,1,63.08,13ZM8,17.83a11.55,11.55,0,0,1,.17-4.75,9.45,9.45,0,0,1,.67-1.94C9.63,9.47,12,7.3,13.32,8.44a1.37,1.37,0,0,1,.23,1.85c-.35.49-1.45.63-1.41-.46l0,.12c.37,1,1.13.3,1.24,0,.54-1.68-1.95-1.85-3.61.63-1.36,2-1.68,4.53-1.77,7.29Zm20.74-7.22c.33-1.17.11-1.22-.05-2.25.14.11.24.16.45.33L30.5,9.83c.35.31,1.23,1.26,1.16,2.06a2.74,2.74,0,0,0-2.88-1.28ZM60.39,11c-1.6-.08-1.8-3-1-3.28a.5.5,0,0,1,.71.43c.17.88-1.05,1.71.26,2.85ZM8.77,8.7c0-.86,2.42-1.1,3-.66-.27.2-.76.38-1.11.61a7.51,7.51,0,0,0-2.93,5.82,28.9,28.9,0,0,0,.13,3.29c-.53-.9-1.51-3.75-1-5,.22.27.12.33.48.47,0-.73-.67-1.2.09-3,.27.33.13.52.63.63a2.41,2.41,0,0,1,.35-2.18c.3.11,0,0,.21.13s.28.1.76,0L8.77,8.7Zm-1.24.09a5.1,5.1,0,0,0-.92,3.55A13.39,13.39,0,0,1,5.2,7.5,2.33,2.33,0,0,0,7.53,8.79Zm4.19-1.07a2.64,2.64,0,0,1,1.06-.34C14.3,7.11,15.33,7.84,15,9a.69.69,0,0,1-.91.38c-.68-.34.45-1.58-2.37-1.63Zm14.88,3.5a3.34,3.34,0,0,0-.36-4.44,2.55,2.55,0,0,1,2.24,3.32c-.2-.24,0-.53-.34-.9C28.05,9.35,27.78,11.14,26.6,11.22Zm-14-4c.39-.33,3.75-2.34,3.51-.34-.25.19-.32.32-.7.34a7.59,7.59,0,0,1-.93-.11A8.24,8.24,0,0,0,12.61,7.23Zm4.09,4.63c-.33.08-.95-.36-1.11-.55-1-1.17-.43-2.77.6-3.76,2-2,5.81-2.3,8.47-1.32a4,4,0,0,1,2,1.58c1.24,2.4-.82,4.75-2.36,3.29,2.35,1,2.92-1.69,1.91-3.22a3.6,3.6,0,0,0-2-1.26,10.6,10.6,0,0,0-2.85-.35c-5,0-7,3.41-5.6,5a2.1,2.1,0,0,0,.44.4,3.09,3.09,0,0,0,.52.22Zm15.45,4.07h-.3c.36-.27.88-.31,1.11-1.27.56-2.34-1.93-4.62-3.33-6a12.51,12.51,0,0,0-4.32-2.56,8,8,0,0,1,3.43,1.3,14,14,0,0,1,3.17,2.89c.89,1.15,1.81,2.85,1.36,4.39A2.06,2.06,0,0,1,32.15,15.93Zm9.42-1.26c.12.13,0-.09.15.21.61,1.44-1.94,3.42-4.37,2-3.39-2-2.18-7,2.4-8.87.91-.38,2-.6,2.94-.9a7.38,7.38,0,0,0,2.54-1.27c-.13.3-.13.25-.47.5a6.28,6.28,0,0,1-1.72,1c-.82.34-1.74.6-2.61.92-4,1.48-6.21,5.91-3,8.16,1.6,1.12,4.62.55,4.12-1.72ZM36.68,8.4a5.07,5.07,0,0,1,1.25-1.52c1.69-1.3,3-.73,4.52-.84a11.32,11.32,0,0,0,2.2-.46,5.54,5.54,0,0,1-3.82,1.58c-1.32.09-2.14-.08-3.37.71Zm11.94,2.52c-2,.13-2.33-1.89-.79-3.73,2.2-2.63,6.94-2.93,8.89-.78A5,5,0,0,1,58,8.27,4.15,4.15,0,0,1,58.23,11a5.71,5.71,0,0,0-.39-2.41C56.14,4.77,51,4.66,48.18,7.45,46.72,8.88,47,10.54,48,10.79l.32.05.13,0s.06,0,.07,0,0,0,.06,0ZM15.45,5.64c.8-.44,4.26-.74,5-.23-.26.08-.92.12-1.26.17A8.82,8.82,0,0,0,18,5.85a3.37,3.37,0,0,0-1.71,1.09s0,0,0,0C16.29,5.75,15.75,5.87,15.45,5.64ZM11.29,7.47c.6-.5,1.13-.64,1.66-1.7.27-.54.75-2.1,1.66-1.31C15.75,5.44,12.47,7.43,11.29,7.47ZM5.45,5.1A3,3,0,0,1,6.4,5c-.27.13-.69,0-1.06.58-1.35,2,1.39,6.14.78,9.15-.33,1.66-1.27,3-1.54,4.68-.32,2.07.61,3.34,1.33,4.69a6.31,6.31,0,0,1-1.77-4.29c.05-1.64.91-3.16,1.34-4.65C6,13.23,5.49,11.67,5,10c-.38-1.41-.78-3.45.27-4.7l.14-.17Zm16.73-.46A1,1,0,0,0,22.8,5a3.89,3.89,0,0,0,2.31-.29c0,1.36-2.47,1.63-3.09.06C22.11,4.61,21.86,4.59,22.18,4.64ZM46.49,6.17a7.09,7.09,0,0,1,2.08-1.62,8,8,0,0,1,6.09-.07c.56.23,1.93.9,2.16,1.49-1.62-.75-2.69-1.41-5-1.14s-3.28,1.48-4.07,1.94l.33-.88a3.4,3.4,0,0,0-1.63.28Zm15.78,2.2A8.49,8.49,0,0,0,62,6.11a5,5,0,0,0-.89-1.54,3.75,3.75,0,0,1,1.13.91,4,4,0,0,1,1,2.39h-.16c-.23,0-.26,0-.48.07s-.24.22-.38.42ZM15.35,5.25c.4-.11.79-.41,1.37-.55,2-.48,3.09-.19,5.11-.15l-.4.18a13.82,13.82,0,0,1-3,.27,7.62,7.62,0,0,0-3.32.58l.25-.33Zm.49-.4A8.52,8.52,0,0,0,16.48,3a.12.12,0,0,1,0-.07,4.14,4.14,0,0,0,.55.88,3.28,3.28,0,0,0,.86.46,5,5,0,0,0-2.07.6Zm6.34-.21L22,4.41a2.67,2.67,0,0,1,3.9-.69,2.56,2.56,0,0,0-1.74.78C23.42,5,23,4.78,22.18,4.64ZM44.26,10.5c-.57-1.42.57-3.59,1.31-4.58a8.43,8.43,0,0,1,1.76-1.54A7.52,7.52,0,0,1,55.1,4a5.46,5.46,0,0,1,3,3.41c-1.35-3-5.24-4.38-8.39-3.49a8.14,8.14,0,0,0-4.6,3.31,4.79,4.79,0,0,0-.69,3.62l-.2-.31ZM48.06,2c.39-.22,1.43-1.11,1.92.17-.73-.19-.68-.09-1.28.16a1.87,1.87,0,0,1-1.1.17l-.1,0c1.31.3,1.39-.66,2.57-.23-.57,1-3.41,1.46-2.88-.42.16.23.07.18.16.52Zm1.92.9c.27-.5.5-.72.12-1.3a14.24,14.24,0,0,1,3.54,1A9.81,9.81,0,0,1,55.8,4c.29.23.39.23.56.57-.38-.18-.7-.41-1.12-.62s-.76-.36-1.17-.52A6.51,6.51,0,0,0,50,2.94ZM15.35,5.25c-.22.11-.31.18-.53.29a4,4,0,0,0,.3-1.43,5.62,5.62,0,0,1,.06-1.64C15.63.92,17.12,1.11,16.57,2c-.09-.2,0-.26-.22-.35-.73.39.12,1.85-.53,2.91a3.12,3.12,0,0,1-.25.35ZM45.07,3.3A.36.36,0,0,1,45,3.14,1.26,1.26,0,0,1,45.17,2C46,1,47.63.81,48.9.82,52.29.85,56,2.19,57.77,5a8,8,0,0,1,.9,5.33c-.13-2.12-.13-3.43-1.2-5a8.27,8.27,0,0,0-3.39-2.75c-2.16-1.07-9.43-2.54-9,.77ZM27.49,4.55c-.15-.87-1.84-1.46-3-1.59-3.58-.41-5.78,2.31-7.41.49-.69-.77-.42-2.75,1-2.77-.28.16-.48.1-.73.39-.47.56-.66,1.91.33,2.36s2.56-.4,3.51-.67a6.31,6.31,0,0,1,5.41.58c.61.42.61.52,1,1.22ZM19.05,1.18C18.81.4,17.74.34,16.86.7a6.31,6.31,0,0,0-3,3c-.4.64-.78,1.27-1.19,1.8C11.39,7,8.72,8.82,6.76,8.4A1.73,1.73,0,0,1,5.34,6.91c.45,1.86,2.83,1.18,4,.56,3.41-1.77,3.7-4.43,5.76-6.2a4.63,4.63,0,0,1,2-1,1.62,1.62,0,0,1,2,.91h-.07S19.07,1.19,19.05,1.18ZM5.45,5.1c-.48.12-.84.87-1,1.51-.57,2.05.31,4.5.42,6.63A13.5,13.5,0,0,1,4,17.42c-.55,1.8-.68,2.26-.05,4a2.86,2.86,0,0,0-2.25.43A3.39,3.39,0,0,0,.46,23.45c-1,2.45,1,3.92,1.69,3.15a.72.72,0,0,0,.55-.53c-1.33.31-1.39-.81-.82-1.51a1.09,1.09,0,0,1,1.93.21c.75,1.39-.4,3.54-.71,5C2.2,34,4.88,36.31,9,35.86l-.22.22c-1.31,1.28-1.14,3.25.16,3.76-1-1.91,1.26-2.81,2.92-2,3.48,1.71,2.08,5.62,4.55,7.88,1.77,1.62,3.67.9,3.65-.65-.34.29-.55.76-1.19.79a1,1,0,0,1-1.1-.91c-.29-2.13,2.6-2.86,4.93-1.22,3.07,2.17,2.94,5.1,4.12,7.85s4.07,2.36,4.22.23a1.56,1.56,0,0,1-2.39.25c-1.08-1.12.06-4.32.79-5.44a8.23,8.23,0,0,1,1.61-1.88,1.85,1.85,0,0,0,1.24,1.91,1.79,1.79,0,0,0,2.07-.82c-1.39.53-1.88-.73-1.13-1.18s1.59.42,1.79,1.12c.53,1.92-1.16,2.77-2.15,4a6.47,6.47,0,0,0-1.4,5c.18,1.59,1.11,3.8,2.6,3.79-.38-.53-.63-.48-.86-1.39a4.65,4.65,0,0,1,0-1.93,3.08,3.08,0,0,1,.68-1.55,2.8,2.8,0,0,1,1.22-.93c.47-.13.52.06.73.29,1.55,1.69,4.64,1.21,4.3-1.16A.83.83,0,0,0,40,52a.67.67,0,0,0-.06.12,1.24,1.24,0,0,1-1.77.59,2.05,2.05,0,0,1-.38-2.28A11.36,11.36,0,0,1,40.31,47c.37-.39,1.11-1.32,1.67-1.36,1.42-.08,3.61,1,3.28,2.7-.2,1-.9,1-1.52,1.47,3.37,0,3.85-3.86,2.4-6.21a8.2,8.2,0,0,0-1.53-1.74c1.32.12,2.93-.81,2.31-2.07-.18.53,0,1.19-1,1.68-1.4.66-3.78-.59-2.46-4.37.7-2,2-3.93,1.85-6.16a1.87,1.87,0,0,0-1-1.67c1.29.4,1.44,2.16,1.15,3.66-.45,2.29-2.84,5.79-1.64,7.56a1.62,1.62,0,0,0,3-.38,1.06,1.06,0,0,0-.14.15l-.34.36c-.65.44-1.39-.17-1.67-.73a5.15,5.15,0,0,1,.08-3.08c.56-2.44,1.25-3.12,1-6,4.66.06,6.5,4.07,4.75,6a1.6,1.6,0,0,1-1.51.49c-.59-.12-.77-.48-1.17-.82.22,2.51,3.49,1.66,4.53.21-.12,2,1.48,1.6,3.7,1.46a3.51,3.51,0,0,1,2.27.34,1.44,1.44,0,0,1,.59,1.7c.6-.35.13-1.43-.44-1.79-1.56-1-3.11-.13-4.59-.7-.45-.17-1.25-.85-.9-1.51.27.84.23,1.11,1.28,1.28,1.46.23,3.14-.43,4.39.68.65.58.69.81.53,1.83.54-.42.06-1.47-.24-1.82-.71-.82-2.14-1.36-2.73-2.33a1.52,1.52,0,0,1,.2-1.79c.82-.69,3,1.69,5.47,1.7a2.73,2.73,0,0,0,1.79-.66l-.06,0-.05,0-.34-.42c-.76.57-2.41-.15-3-.5a11.39,11.39,0,0,1-2.77-3L56.65,30c-1.32-1.26-.86-.78-2.3-1.43,3.26-.11,4.23,4.78,7.47,5.63A2.38,2.38,0,0,0,64.7,33a2.47,2.47,0,0,1-1.11,1.42.46.46,0,0,1,.17.14l.19.24c.11-.31.4-.61.59-1.05a4.88,4.88,0,0,0,.38-1.21A3,3,0,0,1,63.09,34c-2.25.44-2.89-2.18-2.08-3.68s3.29-1,4.71-1.67c1.87-.88,2.06-3.26.91-4a1.22,1.22,0,0,0-1.95.5c.33-.55,2.12-.58,1.69,1.17-.25,1-.93,1.41-2.05,1.55a8.43,8.43,0,0,1-3.25-.19c-.84-.23-2-.74-1.88-1.72a12.42,12.42,0,0,0,2.1-.66A3.47,3.47,0,0,0,62.69,24c1-1.81-.18-8.27,2.26-8.57,1.41-.17,1.72,1.45,1.46,2.47-.1.37-.36.55-.51.86,1.74-.64.9-4.63-1.42-3.49a3.12,3.12,0,0,0-1.32,2.21c-.64,3.06.54,6.13-2.77,7.83a13.75,13.75,0,0,1-6,1.06c.63-.19,3.95-.35,5.84-1.5,3.23-2,1.46-5.27,2.66-8.32.91-2.35,3.4-2.55,4-.44a2.4,2.4,0,0,1-.69,2.61c1.28-.58,1.24-2.6.46-3.84a3,3,0,0,0-1.49-1.19,2.92,2.92,0,0,0-2.22.1c.2-.42.44-.74.65-1.27A6.59,6.59,0,0,0,64,11a7,7,0,0,0-.26-3.34c-.5-1.38-2.06-3.48-3.45-4l.17.38.36.48c.11.2.2.35.3.55a7.36,7.36,0,0,1,.66,4.28l-.74-1.59a12.55,12.55,0,0,0-.86-1.41,3.92,3.92,0,0,1,.43,1.45c0,.46-.12,1.14-.49,1.29a1.58,1.58,0,0,0-.43-1.9c-.56-.5-1.32-.42-1-1.48.66-.21.88.06,1.26.31a11,11,0,0,0-3.14-3.08C54.23,1.3,50,.19,46.89.86c-.91.19-1.71.42-2,1a1.25,1.25,0,0,0,0,1.23.7.7,0,0,0,.15.19l.51.45c-.46-.58-.27-1.61.7-1.47a1,1,0,0,1,.76,1.63c-1.51,2.6-5.87.27-8.7,2.43A7.58,7.58,0,0,0,35.9,9.43a2.83,2.83,0,0,1,2.34-1.32c-.27.25-.64.41-1,.66a4,4,0,0,0-.77.76,6.5,6.5,0,0,0-1.12,2,5,5,0,0,0,.7,4.87,4.87,4.87,0,0,0,4.7,1A1.86,1.86,0,0,0,41,13.81c.28.89.32,1.88-.38,2.28a2.75,2.75,0,0,1-3.68-3.76,8,8,0,0,1,1.23-1.69,7.46,7.46,0,0,1,1.61-1.31A9,9,0,0,1,44.21,8a3.13,3.13,0,0,0-.27,2.1,1.7,1.7,0,0,0,1.16,1.24c-1.31-2.22.68-4.71,2.37-4.89l0,0-.31.26a3,3,0,0,0-.7,3.09c.41,1.15,1.94,1.85,2.83.78-2.53-.16-1.42-2.12-.55-3.07a6,6,0,0,1,4-1.6c5.87-.15,5.52,5.16,5.14,5.57s-2.57.44-2.43-2.21c-.22.13,0,0-.21.17L55,9.71a2,2,0,0,0-.36,1.22,2.76,2.76,0,0,0,.65,1.48l3.26,3.2c.18.23.29.31.48.59,1,1.51.5,2.64-.55,3.62.7-4.78-4.56-5.71-4.84-2.58.24-.32.23-.58.43-.79.19.13,0,.11.34,0,1.76-.71,3.63,1.73,2.34,4.57-.65,1.44-2.7,3.52-5,3.38.27-.27.31-.16.54-.52A1.62,1.62,0,0,0,52,21.57a1.87,1.87,0,0,1-1.61,2.48,8.43,8.43,0,0,1-6.51-1.53,9.41,9.41,0,0,1-1.07-1c-.33-.36-.64-.74-1-1.11a5.72,5.72,0,0,0-6-2,5.87,5.87,0,0,0-2.42,1.81c-1.68,1.84,0,2.51-1.62,2.37l.51.35c-.57.9-1.4,1-1.43,1.38s.27.29.38.59-.15.37-.22.61,0,.09-.06.68c0,.33.12.27.28.58s-1.14,1.12.33,1.64c1,.34,1.2.24,1.58,1.18a6.75,6.75,0,0,1,.46,2.32,1.61,1.61,0,0,1-.22,1.19l-3,3.76c-.57.7-1.67,1.61-2.06,2.09-.1.14-.2.23-.32.38a1.1,1.1,0,0,1-.27.32,15.37,15.37,0,0,0-1-4.83c-.73-2-1.67-3.31-1.88-3.95-.51-1.59.6-2.43,1-3.09.24-.34.25-.72.72-.68.66.07,1.85.82,2.06-.15.05-.23,0-.48.06-.7.13-.54.23,0,.46-.7,0,0,0,0,0-.06.31-.88.07-.12.15-.81l.86,0c.1-.75-.66-2.18-.16-2.77s.18-1.71.08-2.85a1.72,1.72,0,0,1,.26.79l0-.78a3.92,3.92,0,0,1,.18,1.31l.15-.37c.28-1.57-.81-3.09-2-4a5.44,5.44,0,0,0-5-1.23,4.59,4.59,0,0,0-3.05,3.47c-.54,1.84.16,5-.16,5.93l.19-.15-.05.7,0,0h0l.18.1c-.21,2-3.58,4.17-4.2,7-1.36-.22-2.11-.17-3,.78-.05,0-.14.14-.16.16a1.54,1.54,0,0,1-.13.12,11.38,11.38,0,0,1-.87-1.43c-.74-1.73.37-3.5,1.13-5a7.49,7.49,0,0,0,1.14-3.31c.12-1.47-.26-2.72-1.63-2.85.34.4.77.58.58,1.43-.3,1.4-2.27,2.22-3.46.33s-.88-7.51,1.32-9.39c.94-.81,1.77-.74,3-.32a5.76,5.76,0,0,0,3.23.58,1.59,1.59,0,0,0,1.11-2.41,2.69,2.69,0,0,1-.59,1.08c-.83.78-2.76,0-2.45-1.84.55-3.28,7.34-3.32,9.27-1.54,1.77,1.63.8,2.85-.18,2.84a1.54,1.54,0,0,1-1.09-.57c.38,1.45,1.4,1.49,2.77,1s2.18-.81,3.53-.22a3.71,3.71,0,0,1,2.2,2.17,2.09,2.09,0,0,1-.11,1.82c-.35.57-.63.52-1.31.82a2,2,0,0,0,1.21-.13c1.43-.29,1.86-2.16,1.3-3.75a7.37,7.37,0,0,0-1-1.77,16.25,16.25,0,0,0-2.57-2.88l-.77-.62A15.24,15.24,0,0,0,24.8,4.43,1.38,1.38,0,0,1,26.25,4c.82.12.9.47,1.24.59a5.61,5.61,0,0,1,.32.66C28,4,26.66,3,25.76,2.59,22,1,19.05,3.38,17.9,3.16c-.7-.13-.69-1.06-.36-1.63A1.11,1.11,0,0,1,18.16,1a.63.63,0,0,1,.52,0l.37.18.34.69C19.5-.23,17-.46,15,.68,12.82,2,11.92,4.75,10.19,6.16c-3.66,3-5.6.67-4.48-.64A1.67,1.67,0,0,1,6.81,5c-.41-.11-1-.24-1.36.12Z"/><path class="cls-1" d="M41,11.67c-.17.26-.26.54-.67.47a.54.54,0,0,1-.36-.71c.12-.61.88-.69,1.51-.85.86-.22,1-.33,1.37-1,.19-.4.61-1.13.94-1.26-1.72-.14-5.47,1.89-6.47,4.33a2.81,2.81,0,0,0,0,2.29,2.27,2.27,0,0,0,1.54,1.16,1.58,1.58,0,0,0,1.28-2.82c.2.94-.35,1.07-.94.86-.78-.27-.77-.58-1.35.11-.65-1.18,1-3,1.56-3.28-.29.66-.27,1.48.46,1.73s1.67-.46,1.13-1Z"/><path class="cls-2" d="M40.52,23.81c.52,2.21-.17,4-.18,6.24a4.46,4.46,0,0,0,.7,2.78c.2.39.36.83.81.89a.52.52,0,0,0,.44-.88v0c-.24.8-.67.21-.73,0a1.78,1.78,0,0,1,.17-1.23c.2-.7-.25-1-.62-.62s-.2.89-.19,1.31A1.46,1.46,0,0,1,41,30.92a.73.73,0,0,1,.7-.15c.31.08.29.27.4.52a1.59,1.59,0,0,0,0-1.28,1.73,1.73,0,0,0-.25-.44l-.34-.38c.56.07.4.21.69.5A2.09,2.09,0,0,0,42,28.24c-.21-.42-.48-.61-.67-1,.43.06.52.3.68.61a6,6,0,0,0-.89-3.29L40.7,24c-.14-.14-.05-.07-.18-.16Z"/><path class="cls-2" d="M8.77,8.7l.54.15c-.49.07-.46.14-.76,0s.09,0-.21-.13A2.41,2.41,0,0,0,8,10.87c-.5-.11-.36-.3-.63-.63-.76,1.84-.1,2.31-.09,3-.36-.14-.26-.2-.48-.47-.49,1.2.49,4,1,5a28.9,28.9,0,0,1-.13-3.29,7.51,7.51,0,0,1,2.93-5.82c.35-.23.84-.41,1.11-.61-.53-.44-3-.2-3,.66Z"/><path class="cls-2" d="M27.25,44.1l-.19.11c-.44.25-.47.58-.58,1.26s-.09,1.33-.8,1.19c0-.12,0-.23-.06-.34s0,0,0-.06l-.07-.2c-.23.56-.15,1.18.63,1.16,1.17,0,1.77-2.31,2.61-3.43a11.82,11.82,0,0,1,3.1-3c.37-.22,1.12-.46,1.36-.62a8,8,0,0,1-1.52-.34c-1.31-.42-1.36.34-2.07,1.27-.2.25-.52.71-.85.72,0,0-.05,0-.06,0s0,0-.06,0c-.08-.29,0-.36.23-.52a.63.63,0,0,0-.41,1.15A1.61,1.61,0,0,0,29.61,42c-.17.22-.3.36-.5.61s-.26.36-.47.62c-.36.46-.53.88-1.39.83Z"/><path class="cls-2" d="M2.15,26.6c.21-.45.17.07,0-.15C.83,27,.29,25.3.78,24.16a2.13,2.13,0,0,1,2.49-1.45,2.75,2.75,0,0,1,1.81,2.34,8.32,8.32,0,0,1-.47,3.54c-.67,2.87.06,4.64,2.69,5.13,2,.38,4.12.25,5.79,2.44a4.72,4.72,0,0,0-2.23-2,15.16,15.16,0,0,0-3.45-.86c-5.1-1.14-.57-6-2.15-9.36a2.79,2.79,0,0,0-2.58-1.75,2.73,2.73,0,0,0-2,3.89c.39.58.73.58,1.48.52Z"/><path class="cls-2" d="M54.29,28.4c2-.41,3.86,1.74,4.6,3,.56,1,1.12,2.09,2.4,2.24l-.14-.12L61,33.43a1.2,1.2,0,0,1-.4-1c0-.51,0-1.12-.31-1.45s-.88.26-1.3-.38l-.73-1.11c.45.14,1.32.45,1.76.11a.61.61,0,0,0-.46-1.09c.14.14.21.16.2.45-.76.46-1.73-.95-2.5-1.25s-2.73.09-3,.68Z"/><path class="cls-2" d="M32.67,45.29c0-.94.56-1.66,1.61-1.47C35.61,44.06,36,46.2,35,48a16.7,16.7,0,0,1-2,2.65,6.39,6.39,0,0,0-.62.92c-1.44,2.69-.32,5.82,1.26,6.62a6.25,6.25,0,0,1-1-1.46,4.76,4.76,0,0,1-.51-1.85,5.17,5.17,0,0,1,.26-2.1,3.78,3.78,0,0,1,.9-1.54,5.33,5.33,0,0,0-.46,1.38c.55-.69,2.46-1.45,2.34-3.26a4.54,4.54,0,0,1-1.55,1.49,6.82,6.82,0,0,1,.88-1.11c2.41-2.72,1.77-6-.12-6.26a1.44,1.44,0,0,0-1.68,1.77Z"/><path class="cls-2" d="M2,26.35c-.48-.18-.81-.28-.91-.92C.88,24,2.54,22.4,3.89,24s.14,3.93-.28,5.73c-.54,2.34,0,4.35,1.8,5.11a6.68,6.68,0,0,0,3.24.07,7.5,7.5,0,0,1,3.12.32c-3.06-1.37-4.54.08-6.42-.94A2.94,2.94,0,0,1,3.92,32a8.88,8.88,0,0,1,.48-3.19c.47-1.64,1.32-4.24-.75-5.52C1.2,21.72-.16,26.4,2,26.35Z"/><path class="cls-2" d="M41.57,14.67c.5,2.27-2.52,2.84-4.12,1.72-3.23-2.25-1-6.68,3-8.16.87-.32,1.79-.58,2.61-.92a6.28,6.28,0,0,0,1.72-1c.34-.25.34-.2.47-.5a7.38,7.38,0,0,1-2.54,1.27c-1,.3-2,.52-2.94.9-4.58,1.9-5.79,6.88-2.4,8.87,2.43,1.42,5-.56,4.37-2-.13-.3,0-.08-.15-.21Z"/><path class="cls-2" d="M22.26,41A4.31,4.31,0,0,0,18,40.49c-.55.19-1.46.73-2,.28s.1-1.35.38-.84l0,.37s0,0,0,0c.59-.25.29-.86-.1-1-.88-.27-1.39.91-.77,1.84,1.12,1.66,4.2-.54,6.5-.24-.35.23-.87,0-1.17.6,1.42-.21,1.94.62,3.39.54-.58-.35-.67-.29-1.1-.76a2.68,2.68,0,0,1-.53-1.22c-.21.06,0-.08-.22.15l-.24.7Z"/><path class="cls-2" d="M46.49,6.17a3.4,3.4,0,0,1,1.63-.28l-.33.88c.79-.46,1.66-1.66,4.07-1.94s3.34.39,5,1.14c-.23-.59-1.6-1.26-2.16-1.49a8,8,0,0,0-6.09.07,7.09,7.09,0,0,0-2.08,1.62Z"/><path class="cls-2" d="M53.62,30.87a1.15,1.15,0,0,0,.19-1.79c-.18.3-.09.5-.4.81-.87.87-1.9.72-2.88.78.72.71,2.23,1.84,1.57,3.54.8,0,1.13-.76,1-1.6a1.33,1.33,0,0,0,1.74-.17,1.29,1.29,0,0,0-.35-1,1.39,1.39,0,0,0-.41-.27l-.38-.21s0,0-.05,0Z"/><path class="cls-2" d="M16.7,11.86a3.09,3.09,0,0,1-.52-.22,2.1,2.1,0,0,1-.44-.4c-1.42-1.56.62-5,5.6-5a10.6,10.6,0,0,1,2.85.35,3.6,3.6,0,0,1,2,1.26c1,1.53.44,4.21-1.91,3.22,1.54,1.46,3.6-.89,2.36-3.29a4,4,0,0,0-2-1.58c-2.66-1-6.45-.64-8.47,1.32-1,1-1.64,2.59-.6,3.76.16.19.78.63,1.11.55Z"/><path class="cls-1" d="M13.19,29.53A3.93,3.93,0,0,1,13.65,28c.74-1.46,1.23-.35,2-2,.18-.37.4-.84.71-.58s.13.36.19.24,0,0,.05.05c-.07-1.25-1.87-1.27-3.27,1.8-.89,1.95-1.06,3.19-.12,5.08a.43.43,0,0,1,0,0l0-.17s0-.14,0-.19a2,2,0,0,1,0-.49,1.63,1.63,0,0,1,.29-.77c.57-.8.58-.18.58-1.78,0-.52.17-.9.75-.74.25.33.11.43,0,.73.95-.32.35-1.35-.48-1.08-.65.22-.92,1.17-1.15,1.49Z"/><path class="cls-2" d="M45.07,3.3c-.42-3.31,6.85-1.84,9-.77a8.27,8.27,0,0,1,3.39,2.75c1.07,1.6,1.07,2.91,1.2,5A8,8,0,0,0,57.77,5C56,2.19,52.29.85,48.9.82,47.63.81,46,1,45.17,2A1.26,1.26,0,0,0,45,3.14a.36.36,0,0,0,.11.16Z"/><path class="cls-2" d="M39.53,22.22c1.63,3.5-1.11,8.44,1,11.55A2.48,2.48,0,0,0,42.68,35c2.12-.19,2.32-3.21.66-3.74a1.06,1.06,0,0,0-1.23,1.57c-.28-1,.52-1.79,1.34-1.21a1.69,1.69,0,0,1,.41,2.11c-.72,1.22-2.61,1.06-3.37-1.08-1.12-3.2,1.06-7.66-1-10.39Z"/><path class="cls-2" d="M44.46,10.81a4.79,4.79,0,0,1,.69-3.62,8.14,8.14,0,0,1,4.6-3.31c3.15-.89,7,.5,8.39,3.48a5.47,5.47,0,0,0-3-3.4,7.52,7.52,0,0,0-7.77.42,8.43,8.43,0,0,0-1.76,1.54c-.74,1-1.88,3.16-1.31,4.58l.2.31Z"/><path class="cls-2" d="M5.45,5.1l-.14.17C4.26,6.52,4.66,8.56,5,10c.45,1.7,1,3.26.44,5.14-.43,1.49-1.29,3-1.34,4.65a6.31,6.31,0,0,0,1.77,4.29c-.72-1.35-1.65-2.62-1.33-4.69.27-1.7,1.21-3,1.54-4.68.61-3-2.13-7.17-.78-9.15C5.71,5,6.13,5.08,6.4,5a3,3,0,0,0-1,.15Z"/><path class="cls-2" d="M9.69,22.23a9.6,9.6,0,0,1-.48-1A6.57,6.57,0,0,1,8.92,20a10.74,10.74,0,0,1,.49-5.31,4.86,4.86,0,0,1,1.18-1.81c1.23-1.23,2.32-1.59,4.39-.86a7,7,0,0,0,2.45.59,2,2,0,0,0,1.11-.38c.31-.28.28-.57.4-1-.16.93-1,1.26-2,1a16.57,16.57,0,0,1-2.29-.86A3.77,3.77,0,0,0,12,11.28a4.44,4.44,0,0,0-1.87,1.28,7,7,0,0,0-1.73,4.59,11.43,11.43,0,0,0,.25,2.94A6.53,6.53,0,0,0,9,21.25a2.11,2.11,0,0,0,.66,1Z"/><path class="cls-2" d="M48.66,25.11c3,0,4.2-2.08,3.55-3.11.8,2.68-5,4.32-9.65-.13a25.38,25.38,0,0,0-2.34-2.25,4.84,4.84,0,0,0-3.55-1.06,12.86,12.86,0,0,1,1.85.45,7.22,7.22,0,0,1,2.58,2,12.24,12.24,0,0,0,3.81,3.17,9.49,9.49,0,0,0,3.75.9Z"/><path class="cls-2" d="M48.62,10.92s0,0-.06,0-.05,0-.07,0l-.13,0L48,10.79c-1-.25-1.32-1.91.14-3.34,2.84-2.79,8-2.68,9.66,1.15A5.71,5.71,0,0,1,58.23,11,4.09,4.09,0,0,0,58,8.27a4.89,4.89,0,0,0-1.28-1.86c-1.95-2.15-6.69-1.85-8.89.78-1.54,1.84-1.19,3.86.79,3.73Z"/><path class="cls-2" d="M34,46.08c-.45.13-.78.3-1.24,0a1.36,1.36,0,0,1-.6-.85,2.26,2.26,0,0,1,.8-2.14c1.87-1.52,6.6.58,5.36-5.94A15.17,15.17,0,0,1,38,31.92a11.69,11.69,0,0,0-.26,1.2c-.37,3.57,1.73,7.37-1.25,8.44-1.92.69-3.07,0-4.22,1.76a2.38,2.38,0,0,0-.13,2.38,1.44,1.44,0,0,0,.82.64A1,1,0,0,0,34,46.08Z"/><path class="cls-2" d="M37,24.16C38.87,28,34.78,31,33.66,33.47c-2.24,5.07,3,5.82,3.07,3.18,0-1.19-1.38-1.47-1.64-.47.74-1.07,1.69-.13,1.31.79-.76,1.81-4.58.39-1.8-4.1C36,30.56,39,27.77,37,24.16Z"/><path class="cls-2" d="M13.63,20.53a2.06,2.06,0,0,1,.54,1c.43,3.62-5.45,6.86-1.86,12.84A22.67,22.67,0,0,0,15,37.91c-.17-.38-1.72-2.6-2.35-3.77-2.06-3.9-.48-6.1,1-9.15.57-1.15,1.31-3.81,0-4.46Z"/><path class="cls-1" d="M18.83,9.35c.78-.18.81-1,2-2C16.31,7.13,15.37,11,17,11.56a1.26,1.26,0,0,0,1.67-1.31c-.2.33-.31.55-.66.69a.78.78,0,0,1-1-.21c-.28-.43,0-1.66.82-1.29a.61.61,0,0,1-.11.49,1.07,1.07,0,0,0,1-.89l.09-.38a.11.11,0,0,0,0-.05s0,0,0-.06a1.43,1.43,0,0,1,0,.8Z"/><path class="cls-2" d="M19.05,1.18s0,0,0,0h.07a1.62,1.62,0,0,0-2-.91,4.63,4.63,0,0,0-2,1C13.06,3,12.77,5.7,9.36,7.47c-1.19.62-3.57,1.3-4-.56A1.73,1.73,0,0,0,6.76,8.4c2,.42,4.63-1.37,5.87-2.95.41-.53.79-1.16,1.19-1.8a6.31,6.31,0,0,1,3-2.95C17.74.34,18.81.4,19.05,1.18Z"/><path class="cls-1" d="M50.52,8.37c.17,0,.61-.06.82.36.52,1.06-1.51,1.79-2.12.81-.79-1.26,1.39-2.3,2.35-2.54a5,5,0,0,1,4.23.64C57.25,8.73,57.25,10,57.61,11c0-3.7-3.26-5.72-7-4.24-2.33.92-2.44,2.84-1.32,3.44a1.76,1.76,0,0,0,2.17-.52c.5-.84-.07-1.67-1.15-1.36l.18,0Z"/><path class="cls-2" d="M62.54,28.24c-2.73-.26-6.1-1.86-8-1.06a9.77,9.77,0,0,1,4.23.74c2.24.72,6.59,1.92,8-.62,1.1-1.94-.67-3.46-1.56-2.68,1.9-.21,1.82,1.69,1.06,2.71-.63.85-2.36,1-3.75.91Z"/><path class="cls-2" d="M22.63,40c-.86-.09-1.53,0-2.42-.19a7,7,0,0,1-4.71-3c-.58-.91-1.42-2.75-.55-3.86a1.73,1.73,0,0,1,1.84-.59c.89.3,1.05,1,1.25,1.31a2,2,0,0,0-1.26-1.6,1.89,1.89,0,0,0-2.05.51c-1.5,1.43-.13,5.53,3.09,6.89a8.11,8.11,0,0,0,4.81.5Z"/><path class="cls-2" d="M54.1,16.45a1.73,1.73,0,0,1,1.9-.26c2.58,1.24,2,6.17-1.77,8.15a9.1,9.1,0,0,1-1.89.71c-.64.16-1.8.24-2.23.38,3.12.15,6-.81,7.41-3.72a5.2,5.2,0,0,0,.06-4.49C56.79,15.88,55,15.12,54.1,16.45Z"/><path class="cls-2" d="M19.22,46.22c-2.65.73-3.79-3.59.35-3.91,2.11-.16,4.46.72,6.38.56,1.16-.09,1.1-.24,1.56-.58a3.07,3.07,0,0,1-.9.31c-2.08.24-5.2-1.29-7.82-.74-2.45.51-3.15,2.9-1.44,4.3a1.73,1.73,0,0,0,1.45.32.72.72,0,0,0,.42-.26Z"/><path class="cls-1" d="M58.88,18.85a3.13,3.13,0,0,0-.24-2.15c-1.16-2.65-3.57-2.19-5.2-2.4a1.61,1.61,0,0,1-1.51-1c-.7-1.77,1.16-3,2-1.67.4.66-.07,1.6-.92,1.15.44.62,1.47.05,1.25-1-.33-1.55-2.65-1.56-2.88.57a2.35,2.35,0,0,0,.73,2c1.2.88,3.16.19,4.74.94a3.76,3.76,0,0,1,2.06,3.56Z"/><path class="cls-2" d="M27.33,51.61l.06.1.05.1c.28.54.35.87.93,1.23a1.5,1.5,0,0,0,1.45.15.68.68,0,0,0,.38-.3,1.67,1.67,0,0,1-1.16.16c-1-.27-1.35-1.43-1.4-2.43a11.6,11.6,0,0,1,2.83-7.45,27.23,27.23,0,0,1,1.88-2l.69-.58a6,6,0,0,0-1.33.86c-.18.14-.46.36-.59.49L30.06,43c-.16.23-.31.38-.48.6a10.89,10.89,0,0,0-2.41,6.11,19.06,19.06,0,0,0,.16,1.91Z"/><path class="cls-2" d="M39.7,52.91a1.9,1.9,0,0,1-2.11.34c-2.27-.87-1-4.16-.25-5.59,1.08-2.17,3.73-4.54,3.6-6.82-.44,2.67-3,4.13-4.27,7-.85,1.84-1.63,5.27,1.07,5.79a1.72,1.72,0,0,0,2-.72Z"/><path class="cls-2" d="M36.68,8.4l.78-.53c1.23-.79,2-.62,3.37-.71a5.54,5.54,0,0,0,3.82-1.58,11.32,11.32,0,0,1-2.2.46c-1.56.11-2.83-.46-4.52.84A5.07,5.07,0,0,0,36.68,8.4Z"/><path class="cls-2" d="M8.59,39.5c-.89-3.07,3-4.65,4.91-1.69,1.39,2.13,1.72,6.06,2.7,7.2-.91-2.75-1-6-2.69-8.06a3.09,3.09,0,0,0-3.82-.89,2.43,2.43,0,0,0-1.1,3.44Z"/><path class="cls-2" d="M25.18,38.89c-.29-1.59-3-.6-1.94,1.77a2.94,2.94,0,0,0,3.84,1.27A7.76,7.76,0,0,0,30,39.21l1.27-1.57a5.26,5.26,0,0,1,1.65-1c-1-.07-2.12,1.14-2.67,1.69-.95.93-1.64,2.16-2.82,2.85-2.67,1.56-4.79-1-3.77-2.46a.84.84,0,0,1,.85-.35c.45.06.48.28.71.54Z"/><path class="cls-2" d="M34.26,52.5c1.39.65,1.7-2.74,1.12-3.25-.05,2.2-1.55,2.47-2.51,3.54s-.71,3.46.2,4.52c-.81-2.76.43-2.26,0-3.54.41-.17.5-.11.78-.42a1.74,1.74,0,0,0,.37-.85Z"/><path class="cls-1" d="M13.05,17.31c.45-.94-.24-1.26-.55-1.91a3.51,3.51,0,0,1-.15-2.24,4.42,4.42,0,0,0-.78,3.4,7.22,7.22,0,0,1,0,2,2,2,0,0,1-.25.82c-.12.18-.11.14-.28.26s-.13,0-.23.2c.95.16,1.24-.43,1.26-1.32a.44.44,0,0,0,.73-.28c.1-.39-.13-.67-.2-.92l.44,0Z"/><path class="cls-2" d="M8,17.83c.09-2.76.41-5.27,1.77-7.29,1.66-2.48,4.15-2.31,3.61-.63-.11.34-.87,1-1.24,0l0-.12c0,1.09,1.06.95,1.41.46a1.37,1.37,0,0,0-.23-1.85c-1.36-1.14-3.69,1-4.44,2.7a9.45,9.45,0,0,0-.67,1.94A11.55,11.55,0,0,0,8,17.83Z"/><path class="cls-1" d="M19.4,45.16c-1.59.27-1.09-2.39,1.49-1.46,3.73,1.35,4.11,8,6.21,9-.17-.28-.37-.41-.6-.79A14.92,14.92,0,0,1,25.33,49c-2.26-6.95-6.25-6.48-6.91-5.07-.41.86.44,1.76,1,1.22Z"/><path class="cls-1" d="M10.35,17.77A8.48,8.48,0,0,1,11.06,14a9.78,9.78,0,0,1,.59-.86c-1.78,1.19-2.27,5.84-1.3,8.3.71,1.78,2.65,1.7,2.84.14.1-.78-.28-1.6-1-1.62a.82.82,0,0,0-.54,1.44c-.63-.84.55-1.69,1-.84,1,1.69-2.35,3.82-2.34-2.81Z"/><path class="cls-2" d="M27.49,4.55h.12c-.37-.7-.37-.8-1-1.22a6.31,6.31,0,0,0-5.41-.58c-.95.27-2.49,1.13-3.51.67s-.8-1.8-.33-2.36c.25-.29.45-.23.73-.39-1.46,0-1.73,2-1,2.77,1.63,1.82,3.83-.9,7.41-.49,1.17.13,2.86.72,3,1.59Z"/><path class="cls-2" d="M58.44,22.42c3.77.14,4.43-2.64,3.12-5.65-.45-1-1.32-2.62-.63-3.85.32-.58,1.35-.79,1.66-.17a1,1,0,0,1-.44,1.32c-.33.13-.45-.08-.45-.08.35.08.31.08.58,0,.15-.48.07-.74-.49-.73a.69.69,0,0,0-.23.54c-.07-.17,0,0,0-.2l0-.27c-.3,1.12.77,1.25,1.23.56,1.09-1.66-1.61-2.75-2.29-.75-.77,2.29,1.86,4.38,1.35,7-.35,1.79-1.75,2.24-3.34,2.36Z"/><path class="cls-1" d="M2.45,25.73c-.35-.79,1.14-1.06.76.62-.27,1.2-1.75,2.36-1.3,4.24a6.26,6.26,0,0,0,.9,1.89,8.38,8.38,0,0,1,.68-5.08c.26-.74.51-1.85,0-2.42-.79-.83-1.95.41-1,.75Z"/><path class="cls-2" d="M45.34,29.32c.06,0,1.22.64,1.45.76,1.48.73,3.16,1.54,4,2.81S52.05,37,50,37.49c-.9.23-1.16-.11-1.7-.38.72,1.25,2.66.68,3.27-.28a4.24,4.24,0,0,0-.1-3.95,5.71,5.71,0,0,0-2.65-2.26,30.64,30.64,0,0,0-3.44-1.3Z"/><path class="cls-2" d="M44.29,49.63a2.9,2.9,0,0,0,2.38-2.31c.73-3-2-4.29-3.26-6s-.81-2.4-.57-3.65a2.81,2.81,0,0,0-.5,1.85c.07,2.06,1.6,3,2.69,4.17s1.91,3.28.58,5c-.52.67-.61.5-1.32.91Z"/><path class="cls-2" d="M32.15,15.93a2.06,2.06,0,0,0,1.12-1.28c.45-1.54-.47-3.24-1.36-4.39a14,14,0,0,0-3.17-2.89,8,8,0,0,0-3.43-1.3,12.51,12.51,0,0,1,4.32,2.56c1.4,1.41,3.89,3.69,3.33,6-.23,1-.75,1-1.11,1.27Z"/><path class="cls-1" d="M3.12,13.76c-.09.31-.08.58-.36.71-.78.37-1.49-.92-.65-1.65,1-.91,2,.41,1.94,1.64a20.14,20.14,0,0,1-1,3.09c-.22.81-.39,2.77.48,3.39-1.41-3.52,1.79-5.07.93-7.58-.62-1.79-2.32-1.48-2.8-.59-1,1.81,1.62,2.86,1.51,1Z"/><path class="cls-2" d="M36.8,35.69a2,2,0,0,1-3.41,2.17A1.42,1.42,0,0,0,34,39.13c.51.36.85.21,1.44.17-.27.43-.39.42-.81.72,2,.26,3-1.33,2.77-3.06a2.35,2.35,0,0,0-.58-1.27Z"/><path class="cls-1" d="M49.17,39.82a2.48,2.48,0,0,0,2.74-2.28l-.26.26a1.93,1.93,0,0,1-.75.55,3.52,3.52,0,0,1-1.47.2c-1.62-.09-1.45-1.19-1.69-1.7-.26.1-.32.17-.43.45a1,1,0,0,0,.54,1.39l.26.1a3.33,3.33,0,0,1-.8.45s0,0-.06,0a2.58,2.58,0,0,0,2.57-.18c-.15.5-.27.33-.65.72Z"/><path class="cls-2" d="M7.16,20.06c-.31.41-1,0-.64-.7l0,.48c.35.27.2.21.61.22Zm0,0,.12-.26c.12-.42-.08-.63-.61-.57L7,19.12c-.91-.2-1,.73-.68,1.11.44.62,1.1.3,1.41-.14a1.8,1.8,0,0,0-1.1-2.71c-2.53-.2-1.89,5-.68,5.94-1.63-3.9,0-6.23,1.18-5.12.46.43.69,1.62,0,1.86Z"/><path class="cls-1" d="M10.74,40.18c-.15.26-.46.21-.71.11a.92.92,0,0,1-.47-.46c-.51-1,.8-1.81,1.86-1.24,1.67.91,2,4.43,3.2,5.54l.13.12c.16.12-.11,0,.18.1-1-1.57-.86-1.9-1.47-3.58-1.93-5.31-5.57-2.11-4.1-.51.42.45,1.29.64,1.65.12s-.14-1.6-.78-1.12c.67-.1.81.33.72.67s0,.2-.21.25Z"/><path class="cls-2" d="M8.31,15.67c.78-1.91,1.51-4.29,4.13-4.84-.22-.13-1.35-.56-.65-1.57A4.57,4.57,0,0,0,9.85,11c-.16.28-.31.53-.46.85a9.83,9.83,0,0,0-1.08,3.86Z"/><path class="cls-2" d="M51.64,28.18c-1.18.87-1.92-1.05-.71-1.55,1.76-.73,2.57,3.34-1.19,3.14a3.07,3.07,0,0,1-2.52-1.26c.76,2.3,5.6,2.36,5.7-.38,0-1.45-1.14-2.71-2.41-1.76A1.33,1.33,0,0,0,50.14,28C50.42,28.59,51.37,28.81,51.64,28.18Z"/><path class="cls-1" d="M46.9,41.25c1.38-.18,2.05.59,2.82,1.18s2.37,1.19,2.78,0c-1.14.61-2,.09-1.85-.63a2.77,2.77,0,0,1,.26-.1l.21-.11a2.11,2.11,0,0,0-.79-.75A3.18,3.18,0,0,0,46.9,41.25Z"/><path class="cls-2" d="M7,25.47c.17-.69.57-1.66-.07-2.18a4.64,4.64,0,0,1-1,2.55,2.71,2.71,0,0,0,.29,2.67,4,4,0,0,1,.44-.94c.61-.84,1.35-1.14.8-2.93-.12.13,0,0-.13.21a1.55,1.55,0,0,0-.08.23.66.66,0,0,1-.29.39Z"/><path class="cls-1" d="M58.57,36.16c-.22-.24-.16-.46-.58-.53s-.62,0-.94-.15c-.6-.33-.29-1.41.44-.65.11-1.09-1.25-.71-1.19.29,0,.68.75,1.1,1.32,1.33,1.78.69,2.18.93,2,3.14a2.63,2.63,0,0,0,.71-1.07c.33-1-.13-1.09-.38-1.26.09-.95-.42-1.21-1.33-1.1Z"/><path class="cls-1" d="M21.37,7.36a5.56,5.56,0,0,1,1.16.77c.33.32.49.87,1,1a1.82,1.82,0,0,1-.09-.65l.07.1c.22.38.27.88,1,.9-.17-.2-.15-.16-.08-.45.37-.1.52,0,.68.28.37.77-.14,1.27-.83,1a.92.92,0,0,1-.48-.45,1,1,0,0,0,1.6.84,1.43,1.43,0,0,0,0-2,6.71,6.71,0,0,0-4.05-1.34Z"/><path class="cls-2" d="M24.69,39.91c.71-.73-1.27-1.3-.86.32s2.75,1.38,4.07.29a4.74,4.74,0,0,0,1.31-1.61,4.15,4.15,0,0,1-1.06.87c-.68.36-1,.09-1.73.19s-1,.53-1.42.56-1-.55-.59-1C24.71,39.62,24.6,39.56,24.69,39.91Z"/><path class="cls-1" d="M29.94,50.24a.06.06,0,0,0,0,0c0-.25-.12-1,.56-1.07s.85.42.71,1c-.45,1.88-4,2.31-1.12-3.42l.67-1.13A7.29,7.29,0,0,0,29,48.34c-1.82,4.52,2.42,4.35,2.68,1.74.18-1.83-2.28-1.58-1.7.16Z"/><path class="cls-2" d="M59.34,19.45c1.33-.43,1.82-2.52.6-4.21-1-1.36-2.23-1.76-3.5-2.71s-1.27-1.25-1.28-2.71c-.37,1.4-.33,1.67.76,2.84.91,1,3.39,1.84,4.17,3.82a2.48,2.48,0,0,1-.75,3Z"/><path class="cls-2" d="M58.57,12.13c-.6-.08-1,.2-1,.77.78-.15,1.16-.22,2,.72a2,2,0,0,0,.43.52c0-.87,0-1.94.77-2.46l.26-.21a.76.76,0,0,0-1.11.06l-.1.08-.05.05a.89.89,0,0,0-1-.9,1.37,1.37,0,0,0-.12,1.37Z"/><path class="cls-2" d="M11.23,32.78C10.8,30,8,30.58,7.84,29.56c0-.27,0-.21.16-.25.31-.12,0,.16.28,0-.53-1.06-1.73.74.05,2.11a7.35,7.35,0,0,0,1.6.7,4.93,4.93,0,0,1,1.29,1,3.8,3.8,0,0,0-.78-1.17c-.33-.34-.74-.46-1.09-.76a2.25,2.25,0,0,1,1.54,1.08c0,.09.1.22.15.31a.65.65,0,0,0,.1.15l.09.11Z"/><path class="cls-1" d="M51.66,42l.23-.05c-1.17-.48.46-2.08,1.17-.74A1.55,1.55,0,0,1,52,43.5a2.72,2.72,0,0,1-2.71-.86,4.39,4.39,0,0,0-1-.86,1.93,1.93,0,0,0-1.3-.41,2.16,2.16,0,0,1,1.35.82c1.12,1.2,2.26,2.57,4.26,1.62a1.84,1.84,0,0,0,1-1.21,2,2,0,0,0-.32-1.76,1.17,1.17,0,0,0-1.56-.27.83.83,0,0,0-.4.69.93.93,0,0,0,.32.77Z"/><path class="cls-2" d="M41.45,37.34c.17,0,0,0,.14.06a4,4,0,0,0-1.19,2.22A2.45,2.45,0,0,1,41,37.76l.39-.37a.11.11,0,0,1,0,0Zm0,0a2.39,2.39,0,0,0-1,.69c-1.18,1.36-.31,3.59-1.44,3.45-.11-.28,0-.27-.1-.44-.53.58.06,1.15.83.81,1.76-.77.93-3.51,2.13-4.69l-.42.18Z"/><path class="cls-2" d="M55.94,25.45c.53-.29.79-.06,1.7-.7.23-.16.22-.24.46-.39a2.16,2.16,0,0,1-2.16,1.09Zm-.33-.05c3.16,1.07,3.13-2.09,4.6-1.83,0,.29,0,.33-.2.51l.44,0c.44-1.06-1.08-1.64-2.39-.55C57.26,24.15,57,25,55.61,25.4Z"/><path class="cls-2" d="M22.29,38.45c-1.61-.1-4-1.64-3-3.45a1.17,1.17,0,0,1,1-.7c1.17,0,1.5,1.39.7,1.75a.53.53,0,0,1-.63-.08.53.53,0,0,1-.15-.32l-.06-.27a.11.11,0,0,0,0-.06c-.29,1.79,2,1.13,1.67-.41a1.74,1.74,0,0,0-1.08-1.07c-1.71-.51-3,1.89-1.55,3.55a3.85,3.85,0,0,0,3.07,1.06Z"/><path class="cls-2" d="M39.09,40.79a13.38,13.38,0,0,1,.57-2.24c.51-.95.7-.9,1.37-1.39a2.86,2.86,0,0,1-2.46-1.42c-.12-.14,0,0-.15-.14A27.67,27.67,0,0,0,39.09,40.79Z"/><path class="cls-1" d="M63.12,23.79a4.47,4.47,0,0,0,.38-.48,2.75,2.75,0,0,0,.25-.59A6.21,6.21,0,0,0,64,21.29c.08-1.06,0-2.13.2-3.18.51-3,2.22-1.43,1.71-.29-.28.64-.7.45-1.06.14.23.9,1.48.5,1.47-.73,0-.89-.9-1.8-1.68-1.15-1.25,1-1,3.38-1,5.22a4.46,4.46,0,0,1-.52,2.49Z"/><path class="cls-2" d="M53.5,33.26c0,1.15-.73,2.35.17,3.14s1.62.08,3.12.72c-.39-1.53-1.66-.35-2.3-1.31s.1-2.18-1-2.55Z"/><path class="cls-1" d="M54.56,9.36c-.79.14-.64-.8-.13-1A.9.9,0,0,1,55.67,9c.18.58,0,1.28.27,1.8s.61.63,1.4.57c-.09-.21-.17-.16-.34-.33a2.35,2.35,0,0,1-.46-1.53c-.3-2.25-2.53-2.2-2.89-1.11s.52,1.61.91,1Z"/><path class="cls-2" d="M6.61,12.34a5.1,5.1,0,0,1,.92-3.55A2.33,2.33,0,0,1,5.2,7.5a13.39,13.39,0,0,0,1.41,4.84Z"/><path class="cls-1" d="M64.58,32.5c-.25.13-.21.16-.45.35-2.41,1.93-3.65-1.4-1.82-2.2,1.19-.52,1.57.86.81,1.19-.58.26-.73-.16-.73-.64-.71,1.36,2,1.21,1.41-.47a1.14,1.14,0,0,0-1.38-.67,2.19,2.19,0,0,0-1.15.85,2,2,0,0,0,.65,2.77,2.27,2.27,0,0,0,2.66-1.18Z"/><path class="cls-2" d="M50.76,26a1.78,1.78,0,0,1,2.36,1.26,2.43,2.43,0,0,1-.89,2.73c2.14-.53,2.4-3.58,1.33-4.11a.9.9,0,0,1,.06.43c0,.3-.2.33-.2.33-.24-.61-.17-1-1-1.11a2.67,2.67,0,0,0-1.67.47Z"/><path class="cls-2" d="M27.25,44.1l.05,0a4,4,0,0,0,1-.66,5.49,5.49,0,0,0,.73-.91c-.44.1-.87.38-1.53.5s-1.37,0-2,.12c-1.47.28-1.43,2.33-.15,1.76l-.53-.15.05-.56c.39-.2.56-.11,1.07-.06S26.8,44.1,27.25,44.1Z"/><path class="cls-2" d="M26.6,11.22c1.18-.08,1.45-1.87,1.54-2,.32.37.14.66.34.9a2.55,2.55,0,0,0-2.24-3.32A3.34,3.34,0,0,1,26.6,11.22Z"/><path class="cls-1" d="M48.31,42.65a7.61,7.61,0,0,0,1,2.37c1.27,2.07,3.46,0,2.06-.45A12.43,12.43,0,0,1,50,44.26c-1.06-.46-1.15-1.06-1.65-1.61Z"/><path class="cls-2" d="M50,2.94a6.51,6.51,0,0,1,4.09.44c.41.16.78.33,1.17.52s.74.44,1.12.62c-.17-.34-.27-.34-.56-.57a9.81,9.81,0,0,0-2.16-1.29,14.24,14.24,0,0,0-3.54-1C50.48,2.22,50.25,2.44,50,2.94Z"/><path class="cls-1" d="M11.32,16.23a6.55,6.55,0,0,1,.73-3.06,4.25,4.25,0,0,0-1.37,2.62,17.21,17.21,0,0,0,0,3.59.57.57,0,0,0,.07.17c1-.23.58-2.21.58-3.32Z"/><path class="cls-2" d="M9.19,24.8c-.8-.49,0-1.87.87-1.28.68.47.12,1.79-.17,2.37-.58,1.19-1.72,3.57,0,4.44a2.15,2.15,0,0,1-.32-2.6c.32-.87.82-1.54,1.13-2.41s.19-2.21-.81-2.33C8.56,22.82,8.32,24.62,9.19,24.8Z"/><path class="cls-1" d="M18.37,2.54c-.32-.55,0-.57.41-.65h0c-.72-1.17-2.22,2.23,1,.57a5.24,5.24,0,0,1,3.93-.53c-3-2.61-3.9.89-5.4.62Z"/><path class="cls-1" d="M46.39,11.78c.61-.86.12-1.14-.27-1.9a3.31,3.31,0,0,1,0-2.38c-1.32,1.07-1.51,4.43.32,4.28Z"/><path class="cls-2" d="M11.29,7.47c1.18,0,4.46-2,3.32-3-.91-.79-1.39.77-1.66,1.31C12.42,6.83,11.89,7,11.29,7.47Z"/><path class="cls-1" d="M46.45,31.42a3.84,3.84,0,0,1,.1,2.66,4.17,4.17,0,0,0-.33,1.27c0,1.23,1.87,1,1.28-1.83A3.73,3.73,0,0,0,46.45,31.42Z"/><path class="cls-2" d="M22.18,4.64c.77.14,1.24.39,2-.14a2.56,2.56,0,0,1,1.74-.78,2.67,2.67,0,0,0-3.9.69Z"/><path class="cls-2" d="M45.4,24.79a5.13,5.13,0,0,0,.69.85c.72.61,2.66,1.73,3.39,1.08a.61.61,0,0,0-.2-1c-1-.38-1.52.49-3.88-.88Z"/><path class="cls-2" d="M63.08,13a1.92,1.92,0,0,0,.37-2.37c-.24-.54-1.26-2.06.14-1.81a.63.63,0,0,1,0,.22l0,.17c.63-.33,0-1.09-.59-1s-.81.71-.76,1.36C62.38,10.73,63.05,11.41,63.08,13Z"/><path class="cls-1" d="M55.38,18.72c-.19,1.68-1.93.23-1-1a.91.91,0,0,1,1.36-.1C57,18.74,56,22.42,53,23.81c1.08-.07,2.21-1.3,2.65-1.91,1.24-1.66,1.48-4.3-.09-4.8s-2.13,1.66-1.29,2.36C54.77,19.88,55.49,19.56,55.38,18.72Z"/><path class="cls-2" d="M40,20.36a8.31,8.31,0,0,0,.65,1.08c.58,1,1.48,4,2.28,3s-1.57-2.78-2-3.21L40,20.36Z"/><path class="cls-1" d="M24,47.41c-.18-1.25-2.19-2.87-3.12-2-.17.15-.69,1.25,1,1.35,1.23.06,1.37.11,2.08.7Z"/><path class="cls-1" d="M64.73,26.39c-.15-.1-.07.12-.21-.23-.28-.71,1.16-1.11,1.21-.18.12,1.93-5.55,1.52-6.29.27.59,1.19,3.82,1.88,5.48,1.18,1.4-.59,1.36-1.79.72-2.15-1.16-.65-1.87,1.15-.7,1.29.15-.26,0,.22,0-.05s-.08.1,0-.07a.61.61,0,0,0,.41-.13c.24-1.13-1.06-1-.62.07Z"/><path class="cls-2" d="M42.77,28.42a6.63,6.63,0,0,0,0,1.55,1.81,1.81,0,0,0,.63,1c.77.8,1.14.56,1.27,2a3.07,3.07,0,0,0-.26-2.75c-.7-.85-.83-.15-1.69-1.77Z"/><path class="cls-1" d="M25.71,51.49a4,4,0,0,0-.38-.56c-.81-1.27-1-4.39-2.17-3.33-1,.89,2.11,3.6,2.55,3.89Z"/><path class="cls-2" d="M11.62,34.38c-1-2.7-4.31-1.54-5.44-3.37-.56-.91-.27-1.35,0-2.24a2.14,2.14,0,0,0-.37,2.35,2.78,2.78,0,0,0,1.67,1.4C9.36,33.26,10.45,32.75,11.62,34.38Z"/><path class="cls-2" d="M57.89,21.93c.92-.59,2.51-.18,2.7-1.78-.26.17-.42.35-.69.21A1.44,1.44,0,0,0,61,19c-1.2,1.06-.46.4-1.92,1C58.29,20.41,58.06,21,57.89,21.93Z"/><path class="cls-2" d="M42.62,43.18c.29,2.25,1,1.76,2.1,2.48a2.86,2.86,0,0,1,.71.72,1.69,1.69,0,0,0-1-1.55c.27,0,.36.1.59.26l.16.11c-.1-1.44-1.43-1.47-1.87-1.63s-.43-.29-.67-.39Z"/><path class="cls-1" d="M13.77.84,13.41.68a1.93,1.93,0,0,0-.48,0c-1.71.25-2,2.91-2.87,2-.34-.35,0-.52,0-.61s.16.07,0-.09c-.46-.51-1.19,1.18.11,1.46C11.75,3.8,11.8,1.28,13.77.84Z"/><path class="cls-1" d="M58,39c-1.27-1.39-3.49.25-5.05-.33-.65-.24-.64-.44-.83-1.06a1.1,1.1,0,0,0,.58,1.16c1.47.87,3.27-.37,4.63.21a1.19,1.19,0,0,1,0,2.18c-1.07.48-1.63-.28-1.31-.92.13-.25.21-.22.5-.29-1.13-.06-1,2.12.83,1.54A1.53,1.53,0,0,0,58,39Z"/><path class="cls-2" d="M34.85,43.43a1.18,1.18,0,0,0,1.18.31,3.93,3.93,0,0,0,2.33-2.4,2.55,2.55,0,0,0-.42.32c-1.48,1.12-3.16.41-3.09,1.77Z"/><path class="cls-2" d="M14.27,32.91c-1.3.83-1.7-.57-2.22-1.34a10.37,10.37,0,0,0,2.2,4.85A4.83,4.83,0,0,1,14.27,32.91Z"/><path class="cls-2" d="M15.34,5.25l.23-.32c.06-.09.19-.24.25-.35.65-1.06-.2-2.52.53-2.91.24.09.13.15.22.35.55-.91-.94-1.1-1.39.45a5.62,5.62,0,0,0-.06,1.64,4,4,0,0,1-.3,1.43C15,5.43,15.13,5.36,15.34,5.25Z"/><path class="cls-1" d="M46.5,31.05a11.77,11.77,0,0,1,2.35,1.26,4.18,4.18,0,0,1,1.54,2c.65,2.26-2.18,2.79-2.19,1.26a.51.51,0,0,1,.9-.39c-.58-1.21-1.91.86-.4,1.52,1.13.49,2.11-.71,2.15-1.74C50.91,33,48.4,31.22,46.5,31.05Z"/><path class="cls-1" d="M65.41,12.55a5.25,5.25,0,0,1,.81-.31c-1.09-1.05-2.61.58-2.9,1.23a2.63,2.63,0,0,1,2.1-.1,2.34,2.34,0,0,1,.79.44,4.42,4.42,0,0,1,.56.67c.13-1.63-.85-1.71-1.26-1.87Z"/><path class="cls-1" d="M8.42,36.17a6.11,6.11,0,0,1-3-.44c.11.88.66,1.21,1.57,1.18a1.68,1.68,0,0,0,.81,2c-.11-1.62-.38-1.31.6-2.77Z"/><path class="cls-1" d="M53.34,18.14a2.43,2.43,0,0,1,.36-1.94c.44-.63.7-.65,1.48-.95-1-.35-3-.42-3.23,1.14a1,1,0,0,1,.78-.34,1.94,1.94,0,0,0,.61,2.09Z"/><path class="cls-1" d="M46.17,31.31c.91,2-2.12,6.24-1.2,8.27.56,1.23,2.21.45,1.9-.83-.12-.52-.82-.85-1.06-.17,1.15-1,1.16,1.62-.1,1.25-.85-.24-.49-2.11-.3-2.83.46-1.69,1.57-3.9.76-5.69Z"/><path class="cls-2" d="M28.78,10.61a2.74,2.74,0,0,1,2.88,1.28c.07-.8-.81-1.75-1.16-2.06L29.18,8.69c-.21-.17-.31-.22-.45-.33.16,1,.38,1.08.05,2.25Z"/><path class="cls-2" d="M53.61,33.09a.8.8,0,0,0,.16.13l.1.07a2,2,0,0,1,.66,1.65c.1,1,.42,1.24,1.46,1.18-.14-.25-.08-.1-.18-.24-.57-.75.65-2.88-2.2-2.79Z"/><path class="cls-1" d="M12.87,12.88c.76.71.67,1.26,1.27,1.42a1.29,1.29,0,0,1-.08-.31l0-.26a.11.11,0,0,1,0-.06c.14.57.52,1.31,1.26,1.08A1,1,0,0,1,15,13.67a1,1,0,0,1,1-.23c-.31-.67-1-.64-1.64-.29.13-.32.17-.23.48-.42-.3-.21-1.51,0-2.16-.13l.25.28Z"/><path class="cls-1" d="M62.19,26.19A.9.9,0,0,0,61,26a2.12,2.12,0,0,1-1.32.22,5.38,5.38,0,0,0,1.36.65c3.53,1,3.72-1.9,2.12-1.4a.45.45,0,0,0,0,.46c.12-.23-.08-.12.23-.29.88.26-.09,1.45-1.21.53Z"/><path class="cls-2" d="M59,26.06a32.45,32.45,0,0,0-4.19.74c.86.15,1.85.08,2.8.25.75.13,1.86.55,2.43.61a2.43,2.43,0,0,1-1-1.6Z"/><path class="cls-2" d="M15.45,5.64c.3.23.84.11.81,1.35,0,0,0-.06,0,0A3.37,3.37,0,0,1,18,5.85a8.82,8.82,0,0,1,1.18-.27c.34,0,1-.09,1.26-.17C19.71,4.9,16.25,5.2,15.45,5.64Z"/><path class="cls-1" d="M4.26,12.35A2,2,0,0,0,4,10.13c-.76-.78-1.68.37-1.44-1.08-.52.58-.81,1.15.17,1.89C3.51,11.5,4,11.12,4.26,12.35Z"/><path class="cls-1" d="M6.48,7.17c4.11.43,5.49-4.45,7-5.77a7.83,7.83,0,0,1,1.1-.74c-2,.21-3.37,3.71-4.41,4.65a2.41,2.41,0,0,0-.24.21,1.73,1.73,0,0,1-.24.23c-.15.12-.36.28-.52.39A8.41,8.41,0,0,1,8,6.81,3.49,3.49,0,0,1,7.31,7l-.76.12-.07,0Z"/><path class="cls-2" d="M36.88,19.26c1.61.3,2.2,1,3,2.53.61,1.14,1.35,2.81,2.55,3.11-1.18-1-1.34-2-2.17-3.49a4.3,4.3,0,0,0-2.16-2.13c-.24-.08-1.11-.19-1.22,0Z"/><path class="cls-1" d="M39.61,50.86c.75,1.57-2.71,2.09-.76-1.08l2.41-3.48c-.27.12-.14,0-.34.26-1,1.16-2.39,2.6-2.9,4s.51,2.51,1.45,1.68c1.21-1.06-.19-2.61-.63-1.38.22-.2.51-.47.77,0Z"/><path class="cls-2" d="M25.31,38.28c0,.1,0,.16.07.23l.11.25a1.44,1.44,0,0,0,.06-1.1.73.73,0,0,0-.32-.37l-.4-.16s0,0-.06,0c.23-.05.49,0,.62-.07a1.36,1.36,0,0,0-2,.24c-.1-.2,0,0,0-.26v0l0-.1c-.76.37-.85.94-.73,1.92.19-.07,0,0,.16-.16,1-1.46,2.32-.91,2.55-.34Z"/><path class="cls-1" d="M53,23.61c1.12-.39,3.15-2.65,2.4-3.46a.6.6,0,0,0-1,.22,5.64,5.64,0,0,0-.28,1.26,4.08,4.08,0,0,1-1.11,2Z"/><path class="cls-2" d="M4.17,30.67a3.15,3.15,0,0,0,1.31,3.41c1.17.64,2.85.41,4.24.31-1.38-.35-2.45-.1-3.82-.8C4.36,32.81,4.51,31.62,4.17,30.67Z"/><path class="cls-2" d="M11.72,7.72c2.82,0,1.69,1.29,2.37,1.63A.69.69,0,0,0,15,9c.33-1.13-.7-1.86-2.22-1.59a2.64,2.64,0,0,0-1.06.34Z"/><path class="cls-2" d="M36.36,31.6c.5,1.22-.1,1.21-.38,2.11s0,1.49.92,1.6c-.23-.28-.67-.41-.15-.9.34-.31.56-.24.66-.86a2.07,2.07,0,0,0-1-1.95Z"/><path class="cls-2" d="M8.8,29.43c-.11-2.2-.2-2.22.86-4-1,.07-.91,0-1.37-.51a5.58,5.58,0,0,0-.2,2.49A8.43,8.43,0,0,0,8.8,29.43Z"/><path class="cls-1" d="M46.8,31.43c.17.26.49.47.74.82.67,1,1.09,3.06,2,2.07S47.59,31.7,46.8,31.43Z"/><path class="cls-2" d="M47.35,2.44c-.09-.34,0-.29-.16-.52-.53,1.88,2.31,1.44,2.88.42-1.18-.43-1.26.53-2.57.23l.1,0a1.87,1.87,0,0,0,1.1-.17c.6-.25.55-.35,1.28-.16C49.49.93,48.45,1.82,48.06,2Z"/><path class="cls-1" d="M42.72,4.72c.86.45,1.32-.23,1.4-1,.12-1.27-.39-1.11.52-2A1.87,1.87,0,0,0,43,2.77c-.18.55,0,.7.16,1.13C43.43,4.67,43.07,4.49,42.72,4.72Z"/><path class="cls-1" d="M66,23.29c-.79.26-1.51.28-1.53,1.37.47-.35.7-.92,1.74-.65.71.19.9.7,1.22,1.2.19-2.48-1.78-3-2.65-2.33.58,0,1,.07,1.22.41Z"/><path class="cls-1" d="M31.14,45.89a1.79,1.79,0,0,0,.14,1.54c.27.31.39.13.75.15s.08,0,.31.18c.93.77,2.16-.5,2.16-1.65C34.18,46.93,32.42,48,31.14,45.89Z"/><path class="cls-1" d="M14.26,30.8a2.11,2.11,0,0,0-.85,1.75l.27-.34c1-1.3,3.21-.2,3.05-2-.05-.61-.92-.87-.89-.18.12-.33.6-.19.52.44-.7.49-1.34-.19-2.1.33Z"/><path class="cls-1" d="M3,20.69c-1.24-1.48-.16-2.7-.35-3.53a.61.61,0,0,0-.85-.39C1.07,17.17,1.78,20.26,3,20.69Z"/><path class="cls-1" d="M11.94,41.33c-.78-.43-.08-1,.26-.54s-.06,1.74,1,2.69a2.93,2.93,0,0,0,1.14.59c-1.64-1.47-1.1-1.82-1.47-3.16-.15-.53-.68-1.23-1.32-.77S11.28,41.82,11.94,41.33Z"/><path class="cls-1" d="M34.41,56c-.47-1,1.28-1.43,1.11.06-.09.76-1,1.77-1.56,1a2.43,2.43,0,0,1-.13-2.37A3.87,3.87,0,0,1,35.18,53c-.68.11-1.53,1.18-1.79,2-.34,1,0,2.43.79,2.67,1,.28,1.86-1.07,1.58-2.12A.77.77,0,0,0,34.67,55c-.42.22-.53.82-.26,1Z"/><path class="cls-2" d="M34.61,28.12c-.25-.36-.06-.67.45-.88-1-.08-.85,1.34-.17,1.62.93.39,1.59-.46,1.8-1.11a4.6,4.6,0,0,0-.21-2.63,2.9,2.9,0,0,1,0-2.46l-.3.36a1.67,1.67,0,0,0-.14.39c-.29,1.05.2,1.86.33,3,.29,2.38-1.61,2.66-1.77,1.75Z"/><path class="cls-1" d="M22.6,45.22c-.2-.17-.36-.41-.66-.65C21.19,44,19.65,43.32,19,44a.48.48,0,0,0,.26.86c.69.16,1.22-.37,2.43,0,.27.08.68.31.89.34Z"/><path class="cls-2" d="M62.89,12.43a1.78,1.78,0,0,0-.82-1.62c-.63-.42-1.38-.47-1.15-1.44.11,0,.21-.12.36-.07s.08,0,.12.1,0,0,0,0l.12.16c.08-1-.82-.64-1-.38a1.39,1.39,0,0,0,0,1.55,2.17,2.17,0,0,0,1.27.72c.83.28.61.42,1,.94Z"/><path class="cls-2" d="M47.77,28.85c.82.74,3.12,1,3.64-.15-1,.26-1.56-.36-1.62-1.33A1.86,1.86,0,0,1,47.77,28.85Z"/><path class="cls-2" d="M32.31,37.93c.08-.17-.31-.51.4-.44.36.89-.49,1.75.39,2.37a1.6,1.6,0,0,0,2-.45,1.8,1.8,0,0,1-1.38-.14c-.42-.23-.54-.51-.49-1.12.18-2-2.05-.59-1-.22Z"/><path class="cls-2" d="M15.34,5.25l-.24.33A7.62,7.62,0,0,1,18.42,5a13.82,13.82,0,0,0,3-.27l.39-.18c-2,0-3.11-.33-5.11.15-.57.14-1,.44-1.37.55Z"/><path class="cls-2" d="M44,26a4.21,4.21,0,0,0-1.43-1.09,3.41,3.41,0,0,0,2.14,3A3.44,3.44,0,0,0,44,26Z"/><path class="cls-2" d="M27.33,51.61a1.92,1.92,0,0,1-.33-1,6.91,6.91,0,0,1,.3-3.48,1.3,1.3,0,0,1-1.51.23,16.23,16.23,0,0,0,1.49,4.44l0-.16Z"/><path class="cls-2" d="M60.39,11c-1.31-1.14-.09-2-.26-2.85a.5.5,0,0,0-.71-.43c-.83.33-.63,3.2,1,3.28Z"/><path class="cls-2" d="M40.21,42a3.7,3.7,0,0,0-1.75,1c-1.75,1.54-.39,3.33.62.63A3.12,3.12,0,0,1,40.21,42Z"/><path class="cls-1" d="M53,23.29c.84-.75.92-3.44-.3-3.35-.87.06-.55,1.12-.14,1.48C53.3,22.12,53.07,22.13,53,23.29Z"/><path class="cls-1" d="M41.52,46.46a3.36,3.36,0,0,1-.46.93c-.51.6-1.91,1.84-1.31,2.4.31.3.7,0,.89-.2a5.7,5.7,0,0,0,.88-3.13Z"/><path class="cls-2" d="M12.6,7.23a8.36,8.36,0,0,1,1.89-.11,7.59,7.59,0,0,0,.93.11c.38,0,.45-.15.7-.34C16.36,4.89,13,6.9,12.6,7.23Z"/><path class="cls-2" d="M37.56,23.44c-.5-1.61.75-1.76,0-3.21-.19-.37-.29-.43-.73-.58.41.9,0,1.07,0,2s.12,1.61.81,1.76Z"/><path class="cls-1" d="M50.06,22.68c.25,1.12,1.86.76,1.59-.52S49.77,21.36,50.06,22.68Z"/><path class="cls-1" d="M3.22,21.09a2.93,2.93,0,0,0-1.76-.56c-.75-.06-1.5,0-1.46.76s1,.43,1.42.2a3.2,3.2,0,0,1,1.8-.4Z"/><path class="cls-1" d="M64.07,8a4.38,4.38,0,0,1,.39,2.25,11.75,11.75,0,0,1-.51,2.1A2.38,2.38,0,0,0,65.45,10c-.25.12-.11.34-.46.48-.09-1.08-.08-2.13-.92-2.51Z"/><path class="cls-2" d="M46.46,26.25a5.36,5.36,0,0,0,1.06,1.8c1,1.16,1.81,0,1.52-.46-.18-.32-1.34-.38-2.08-.91A4.18,4.18,0,0,1,46.46,26.25Z"/><path class="cls-1" d="M42.14,45.8c.71.32,1.19.32,1.73.87.32.33,1,1,.66,1.74-.2.46-1.2,1.09-1.66.48s.21-1.53.86-.8c-.39-1-1.71-.08-1.13.92s1.63.44,2.09-.14a1.8,1.8,0,0,0-.34-2.22,3.4,3.4,0,0,0-2.21-.85Z"/><path class="cls-1" d="M32,15.16c.43-1.14-1.19-1.73-1.57-.72A.86.86,0,1,0,32,15.16Z"/><path class="cls-2" d="M6.66,21A5.28,5.28,0,0,0,8,22.09a3.55,3.55,0,0,0,1.73.74,2.61,2.61,0,0,1-1-1.11,4.2,4.2,0,0,1-.47-1.61L8,20.45A1.24,1.24,0,0,1,6.66,21Z"/><path class="cls-2" d="M17.13,33.89a1,1,0,0,0-.39-1.24.81.81,0,0,0-1.11.44C15.15,34.25,16.68,34.93,17.13,33.89Z"/><path class="cls-2" d="M12.23,23.3a.9.9,0,0,0,.6,1.69C13.75,24.66,13.37,22.73,12.23,23.3Z"/><path class="cls-2" d="M62.27,8.37c.14-.2.17-.31.38-.42s.25-.06.48-.07h.06l.1,0a4,4,0,0,0-1-2.38,3.75,3.75,0,0,0-1.13-.91A5,5,0,0,1,62,6.11a8.49,8.49,0,0,1,.26,2.26Z"/><path class="cls-2" d="M45.88,29.05c1.56.2.89-2.66-.14-3.44C46.34,28.19,45.27,28.1,45.88,29.05Z"/><path class="cls-2" d="M37.65,43.05c-1.31.6-1.66,2.73-1.27,3.2a.43.43,0,0,0,.76-.17,3.32,3.32,0,0,0,0-1.14,3.22,3.22,0,0,1,.46-1.89Z"/><path class="cls-1" d="M49.09,47.06c.8-.64-.4-2.86-.8-3.35a6.46,6.46,0,0,1,.08,2.16,2.08,2.08,0,0,0,0,1,.45.45,0,0,0,.74.2Z"/><path class="cls-2" d="M37.34,24.11A4.58,4.58,0,0,1,38,28c-.45,1.1-1.61,2.12-1.61,3.37a5,5,0,0,1,.42-.95A9,9,0,0,0,38.44,28a3.4,3.4,0,0,0-.08-2.27,3.23,3.23,0,0,0-1-1.58Z"/><path class="cls-1" d="M53.11,13.3c.7.83,2.34,1.08,3.72,1.11L56.09,14a2.85,2.85,0,0,1-1.53-1.56C54.24,13.13,54.08,13.48,53.11,13.3Z"/><path class="cls-2" d="M42.06,43.87a.82.82,0,0,0-1.48-.72A.82.82,0,1,0,42.06,43.87Z"/><path class="cls-2" d="M41.77,36.42a.82.82,0,1,0,1.62-.3A.82.82,0,1,0,41.77,36.42Z"/><path class="cls-1" d="M63.94,23.06c1-.42,1.77-2.58,1.26-3.18-.26-.31-.58-.05-.68.31-.23.88.21.81-.58,2.87Z"/><path class="cls-2" d="M38.93,22.55c.06-.24,0,.08-.12-.29-.19-.56.22-1-.05-1.65a1.46,1.46,0,0,0-1.52-.91c.33.37.77.5.77,1.52,0,.49.12,1.7.92,1.33Z"/><path class="cls-1" d="M48.37,23.29c.19,1.05,1.67.75,1.44-.44C49.6,21.84,48.16,22.17,48.37,23.29Z"/><path class="cls-2" d="M22.18,4.64c-.32,0-.07,0-.16.08.62,1.57,3.1,1.3,3.09-.06A3.89,3.89,0,0,1,22.8,5,1,1,0,0,1,22.18,4.64Z"/><path class="cls-2" d="M59.94,22.68c.65.18.92.57.9,1.37a5.1,5.1,0,0,0,1.31-2.95,3.12,3.12,0,0,1-.89,1,7.24,7.24,0,0,1-1.32.6Z"/><path class="cls-1" d="M45.94,42.64a.76.76,0,1,0,1.48-.36A.76.76,0,1,0,45.94,42.64Z"/><path class="cls-1" d="M51.84,19.12c.85.35,1.43-.26,1-1.12s-.53-.69-.33-1.81A1,1,0,0,0,52,17.65c.13.31.3.47.23.85S51.91,18.93,51.84,19.12Z"/><path class="cls-2" d="M15.52,35.65A.74.74,0,1,0,17,35.43.74.74,0,1,0,15.52,35.65Z"/><path class="cls-2" d="M40.07,36.11a.75.75,0,0,0,1.46-.37A.75.75,0,1,0,40.07,36.11Z"/><path class="cls-1" d="M2.51,20.58A3.2,3.2,0,0,1,1.4,19.36C1.2,19,.69,18,.2,18.51c-.82.89,1.63,2,2.31,2.07Z"/><path class="cls-2" d="M22.12,42.77a10.39,10.39,0,0,0,2.2,1.83,1.7,1.7,0,0,1,.46-1.5,7.72,7.72,0,0,1-2.66-.33Z"/><path class="cls-1" d="M29.89,13.08a.76.76,0,1,0,1.42-.52A.76.76,0,1,0,29.89,13.08Z"/><path class="cls-1" d="M20,10.22c.16-.2.14-.36.37-.6s.31-.14.51-.49a2,2,0,0,0,.05-1.62C20.48,7.94,19.21,9.17,20,10.22Z"/><path class="cls-1" d="M41.71,46.26c.35,1.57-.73,2.19-.29,3.3.88,0,.88-.73.82-1.55a3.13,3.13,0,0,0-.53-1.75Z"/><path class="cls-1" d="M5.93,5.66c-.4.76.49,1.42,1.32,1.24a3.39,3.39,0,0,0,1.32-.74c.37-.26.28-.22.34-.37-.62-.35-1.21.2-1.67.41-1,.46-1.16-.06-1.31-.54Z"/><path class="cls-2" d="M40.85,45.32c.48-1-.86-1.61-1.27-.79C39.1,45.51,40.42,46.21,40.85,45.32Z"/><path class="cls-1" d="M63.71,29.28c.92.73,2.71.65,2.89-.26s-.95-.21-1.22-.06A3.36,3.36,0,0,1,63.71,29.28Z"/><path class="cls-2" d="M42.5,42.93c-1.2-2-.67-5.15,0-5.63C41.26,37.58,40.82,42,42.5,42.93Z"/><path class="cls-2" d="M5.49,17.57c.25-.41,1.47-.71,1.76-.16,0-.22-.37-.95-.47-1.28s-.27-1.12-.4-1.42A13.45,13.45,0,0,1,6,16.26,10.41,10.41,0,0,0,5.49,17.57Z"/><path class="cls-1" d="M21.23,7.52c-.29,2.39.55,1.45.95,2.73a1.4,1.4,0,0,0,0-1.62l-.95-1.11Z"/><path class="cls-2" d="M39.12,24.11c-.64-.29-.39-.56-.66-1.2s-.13,0-.57-1c-.08-.19,0-.11-.14-.23a1.77,1.77,0,0,0,0,1.81c.25.45.66.95,1.37.65Z"/><path class="cls-2" d="M37.57,32.15c-.25-1.86,1.28-2.39.73-3.4-.13.16-.11.24-.24.44-.41.63-1.56,1.5-.82,2.61l.33.35Z"/><path class="cls-2" d="M54.22,30.36a.71.71,0,1,0,1.41-.22A.71.71,0,1,0,54.22,30.36Z"/><path class="cls-1" d="M64.88,31.22c.44-.67,0-2-2.18-1.54.59.25,1.1.12,1.38.69.16.33,0,.68.14.93a.43.43,0,0,0,.66-.08Z"/><path class="cls-2" d="M53.63,25.62a4.81,4.81,0,0,0,2.71-1,3.12,3.12,0,0,0,1.43-2.37c-.11.2-.16.38-.29.6a8.36,8.36,0,0,1-3.85,2.8Z"/><path class="cls-1" d="M47.82,23.37c.38-.91-.79-1.57-1.18-.71S47.43,24.27,47.82,23.37Z"/><path class="cls-1" d="M21,11.43c.08-.78.6-.59.7-1.06s-.39-.82-.58-1.09c-.63.51-.92.85-.51,1.62l.39.53Z"/><path class="cls-1" d="M65,22.38c.73-.21.87-.32,1.61,0,.51.26,1.33.31.93-.46S65.58,21.52,65,22.38Z"/><path class="cls-2" d="M61.51,16.11a3.67,3.67,0,0,1,.46-.93,8.52,8.52,0,0,0,.65-.76c-.95.18-1.22-.06-1.53-.7A2.83,2.83,0,0,0,61.51,16.11Z"/><path class="cls-2" d="M17.32,42.11a3.18,3.18,0,0,1-1.67-.4,17.76,17.76,0,0,0,.57,2.87C16.23,43.17,16.4,42.83,17.32,42.11Z"/><path class="cls-2" d="M11.14,25.43c-.92.5-.22,1.72.54,1.34S12,25,11.14,25.43Z"/><path class="cls-2" d="M40.06,35c.37-.89-1-1.43-1.26-.58A.69.69,0,1,0,40.06,35Z"/><path class="cls-2" d="M42.32,32.58a.68.68,0,1,0,1.26-.51A.68.68,0,1,0,42.32,32.58Z"/><path class="cls-1" d="M41.83,46a4.28,4.28,0,0,1,.73,1.05c.13.23.69.79,1.12.41.76-.68-1.34-1.41-1.85-1.46Z"/><path class="cls-2" d="M16.47,37.34c.15.91,1.4.66,1.25-.29a.66.66,0,0,0-.81-.54.74.74,0,0,0-.44.83Z"/><path class="cls-1" d="M1.64,12.37A1.88,1.88,0,0,1,3,11.9a1.68,1.68,0,0,1,1.13.55C4.18,11.2,1.85,10.53,1.64,12.37Z"/><path class="cls-2" d="M38.46,46.4a.64.64,0,1,0,1.27-.14A.64.64,0,1,0,38.46,46.4Z"/><path class="cls-2" d="M31.7,37.58c-.16.15,0,0-.13.23,0,0-.06.23-.07.25a2,2,0,0,1-.15.39c-.46,1.11.51,1.5,1.51,1.52l-.55-.4a.83.83,0,0,1-.37-.55c-.11-.54.14-1.17-.24-1.44Z"/><path class="cls-1" d="M46.78,44.33A.64.64,0,1,0,48,43.88.64.64,0,1,0,46.78,44.33Z"/><path class="cls-1" d="M6.15,6c.71.78,1.62-.73,2.66-.42a.9.9,0,0,0-1.36-.42c-.31.16-.34.29-.6.48-.1.06-.22.14-.34.2-.6.28.22-.25-.36.16Z"/><path class="cls-2" d="M55.38,31.58a.64.64,0,0,0,1.25-.28A.64.64,0,1,0,55.38,31.58Z"/><path class="cls-1" d="M28.24,12.16c.2.78,1.45.49,1.22-.43A.65.65,0,1,0,28.24,12.16Z"/><path class="cls-2" d="M50.52,27.75a.64.64,0,1,0,1.18-.5A.64.64,0,0,0,50.52,27.75Z"/><path class="cls-1" d="M65.19,21.91a3.77,3.77,0,0,1,1.13-.76c.38-.14,1.17-.41.7-.94C66.38,19.5,65.35,21.41,65.19,21.91Z"/><path class="cls-2" d="M36.32,40.34a.64.64,0,0,0,1.26-.22A.64.64,0,1,0,36.32,40.34Z"/><path class="cls-2" d="M34.56,33.32c.35,1.1,2.22,0,1.74-1.6C35.24,32.84,35.52,33.68,34.56,33.32Z"/><path class="cls-2" d="M39.38,33.27a.63.63,0,0,0-1.12-.56A.63.63,0,1,0,39.38,33.27Z"/><path class="cls-2" d="M15.84,4.85a5,5,0,0,1,2.07-.6,3.28,3.28,0,0,1-.86-.46,4.14,4.14,0,0,1-.55-.88.12.12,0,0,0,0,.07,8.52,8.52,0,0,1-.64,1.87Z"/><path class="cls-2" d="M45.34,26.18A2.1,2.1,0,0,0,43.27,25,2.09,2.09,0,0,0,45.34,26.18Z"/><path class="cls-2" d="M42.32,25.62a2.33,2.33,0,0,0,.6,2.47A2.66,2.66,0,0,0,42.32,25.62Z"/><path class="cls-1" d="M64.17,24.92a.62.62,0,0,0,.07-.18,1.62,1.62,0,0,1,0-.19.75.75,0,0,1,.08-.3c.27-.68,1-.92,1.36-1.1a1.94,1.94,0,0,0-2.33,1.17c.26-.14.3-.33.68-.41a1,1,0,0,0,.1,1Z"/><path class="cls-2" d="M35.17,36.65a.61.61,0,1,0,1.2-.21A.61.61,0,1,0,35.17,36.65Z"/><path class="cls-1" d="M44.9,22.6c.2.8,1.34.47,1.09-.45C45.78,21.39,44.68,21.73,44.9,22.6Z"/><path class="cls-1" d="M58.42,2.86a.6.6,0,0,0-.28.82A.56.56,0,0,0,59,4c.58-.33.25-1.48-.53-1.09Z"/><path class="cls-2" d="M57.75,32.66c.27-.73-.84-1.15-1.07-.43A.58.58,0,1,0,57.75,32.66Z"/><path class="cls-1" d="M46.24,3.72c.16-.22.39-.42.25-.81a.56.56,0,0,0-.68-.36C45.24,2.73,45.15,3.87,46.24,3.72Z"/><path class="cls-2" d="M25.76,46.52c.88-.62,0-1.06.89-2.25C25,44.74,25.79,45.69,25.76,46.52Z"/><path class="cls-2" d="M36.31,41.1a.57.57,0,0,0-1-.54C34.91,41.29,36,41.83,36.31,41.1Z"/><path class="cls-2" d="M38.53,48.09c.39-.66-.6-1.28-.94-.63S38.15,48.74,38.53,48.09Z"/><path class="cls-2" d="M39.24,31.28c.37-.69-.67-1.23-1-.57A.57.57,0,1,0,39.24,31.28Z"/><path class="cls-2" d="M34.82,35.15c1,0,1-.51,1-1.46-.36.35-.75.12-1,.51s.25.3,0,.95Z"/><path class="cls-2" d="M18.33,37.81c-.2.23-.42.37-.28.81a.55.55,0,0,0,.73.32A.61.61,0,0,0,18.33,37.81Z"/><path class="cls-1" d="M26.45,11.67c-.27,1,.52,1.22.86.78S27.29,11.28,26.45,11.67Z"/><path class="cls-1" d="M50.22,9.25c.16.67,1.2.39,1-.37C51,8.28,50,8.39,50.22,9.25Z"/><path class="cls-1" d="M45.61,4.17c-.13-.14-.34-.17-.52-.33a1.9,1.9,0,0,1-.44-2C44,2.31,44,4.5,45.61,4.17Z"/><path class="cls-2" d="M10.21,28.15c.19.15.35.39.7.23a.57.57,0,0,0,.24-.73C11,27.14,10.1,27.09,10.21,28.15Z"/><path class="cls-1" d="M43.38,21.53c.17.61,1.09.42.93-.38S43.15,20.75,43.38,21.53Z"/><path class="cls-2" d="M9.29,23.74c-.15.1-.14,0-.23.26a.61.61,0,0,0,0,.48.55.55,0,0,0,.71.19C10.33,24.39,10,23.33,9.29,23.74Z"/><path class="cls-1" d="M47.85,45.33c-1-.11-.84.92-.38,1A.48.48,0,0,0,48.1,46C48.17,45.62,48,45.54,47.85,45.33Z"/><path class="cls-1" d="M11.63,21a.5.5,0,0,0,1-.15A.5.5,0,1,0,11.63,21Z"/><path class="cls-2" d="M57.89,33.66a.5.5,0,1,0,1-.28A.5.5,0,1,0,57.89,33.66Z"/><path class="cls-1" d="M57.21,2c-.68.29-.23,1.27.38,1S57.82,1.77,57.21,2Z"/><path class="cls-2" d="M34,41.36c.2.16.34.35.67.19a.49.49,0,0,0,.27-.62c-.17-.56-1.08-.53-.94.43Z"/><path class="cls-1" d="M60.38,6.29c.67.34,1,0,.82-.76C60.58,5.15,60.14,5.48,60.38,6.29Z"/><path class="cls-1" d="M15.15,14.16a.53.53,0,0,0,.58.41.46.46,0,0,0,.38-.62C16,13.4,15,13.44,15.15,14.16Z"/><path class="cls-1" d="M2.86,13.51c-.66-.43-1.15.17-.82.67S3.07,14.48,2.86,13.51Z"/><path class="cls-2" d="M62.63,16.21c-.19-.14-.32-.33-.63-.23a.49.49,0,0,0-.31.66C61.86,17.1,62.73,17.18,62.63,16.21Z"/><path class="cls-2" d="M38.54,28.64c-.13,1.08,1.05,1.09.91,0C39,28.27,39,28.31,38.54,28.64Z"/><path class="cls-2" d="M37.38,49.91c.55-.48.27-1.11-.29-1S36.49,49.92,37.38,49.91Z"/><path class="cls-1" d="M30.81,49.32c-1-.12-.77.76-.46.9C30.93,50.48,31.19,49.89,30.81,49.32Z"/><path class="cls-2" d="M20,39.45c.23.08.48.2.68-.08a.56.56,0,0,0,0-.66C20.24,38.23,19.79,38.72,20,39.45Z"/><path class="cls-2" d="M62.55,15a.44.44,0,0,0,.48.73C63.46,15.46,63.12,14.6,62.55,15Z"/><path class="cls-2" d="M59.42,34.05c-.44.59,0,1.07.49.8C60.15,34.71,60.29,33.87,59.42,34.05Z"/><path class="cls-2" d="M21.21,35.65c.21-.5-.6-.89-.78-.36S21,36.21,21.21,35.65Z"/><path class="cls-1" d="M51.7,41.49a.42.42,0,1,0,.82-.15A.42.42,0,1,0,51.7,41.49Z"/><path class="cls-1" d="M24.86,12.77c.79.16.82-.61.5-.8S24.48,12.19,24.86,12.77Z"/><path class="cls-2" d="M32.89,41.16c-.19.42-.18.38.08.79C34,42.07,33.84,40.88,32.89,41.16Z"/><path class="cls-1" d="M56.26,40.19c-.32.47-.07,1,.44.82C57,40.89,57.17,40,56.26,40.19Z"/><path class="cls-2" d="M39.62,26.65c-.94-.47-1.12,1-.06.72A.78.78,0,0,0,39.62,26.65Z"/><path class="cls-1" d="M10.74,40.18c.31-.63,0-1-.64-.73-.1.44-.1.41.11.75l.53,0Z"/><path class="cls-1" d="M42.6,19.62c-.69-.13-.68.44-.49.85C42.86,20.61,42.94,20.1,42.6,19.62Z"/><path class="cls-1" d="M17.5,9.73a.55.55,0,0,0-.15,1,.85.85,0,0,0,1.06-.5.87.87,0,0,1-.94,0Z"/><path class="cls-1" d="M51.66,42c-.31-.08-.3-.18-.66-.11l0,.41a1.08,1.08,0,0,0,1.5-.2.71.71,0,0,1-.81-.1Z"/><path class="cls-2" d="M12.41,10.26l.59,0C13.54,9.21,11.88,9.17,12.41,10.26Z"/><path class="cls-1" d="M53.16,11.85c-.28.47-.28.92.4.83a.53.53,0,0,0,0-.84Z"/><path class="cls-1" d="M63.2,31.69c.26-1.07-.94-1.06-.66,0C62.88,31.83,62.86,31.83,63.2,31.69Z"/><path class="cls-1" d="M54.58,19.29c.84.16.72-.64.41-.79C54.48,18.27,54.26,18.83,54.58,19.29Z"/><path class="cls-1" d="M65.24,17.17c-.52.42-.2,1,.2.87S66,17.16,65.24,17.17Z"/><path class="cls-1" d="M56.28,2.14a.68.68,0,0,0-.08-.72l-.48,0C55.37,2,55.65,2.43,56.28,2.14Z"/><path class="cls-2" d="M10.84,29.18c-.51-.21-.93.1-.64.57S11,30,10.84,29.18Z"/><path class="cls-1" d="M65.29,30.46c.4.73,1.58-.47-.39-.58Z"/><path class="cls-1" d="M34.6,56c.6.28.88-.22.64-.57S34.43,55.26,34.6,56Z"/><path class="cls-1" d="M48.31,35.58c.09.5.86.39.74-.22A.39.39,0,1,0,48.31,35.58Z"/><path class="cls-1" d="M43.12,48.77c.72,0,.6-.67.28-.8S42.69,48.28,43.12,48.77Z"/><path class="cls-2" d="M36.61,50.9c-.11.9.78.91.7,0C36.93,50.66,37,50.68,36.61,50.9Z"/><path class="cls-1" d="M47.61,47.29c-1-.47-.84,1.27.07.5Z"/><path class="cls-2" d="M63.89,14.14c-.7-.15-.82.42-.49.64C63.9,15.11,64.06,14.58,63.89,14.14Z"/><path class="cls-2" d="M32,42.69c.87.15.7-1-.12-.63C31.74,42.47,31.74,42.42,32,42.69Z"/><path class="cls-2" d="M61.19,34.67c-.6,0-.55.4-.31.77l.47-.08c.11-.35.09-.44-.16-.69Z"/><path class="cls-2" d="M21.79,39.44c.28.12.29.13.57,0,.14-.58-.06-.81-.6-.58Z"/><path class="cls-2" d="M39.45,24.73c-.64.09-.46.69-.13.75S40,25,39.45,24.73Z"/><path class="cls-1" d="M23.62,11.93a.34.34,0,1,0,.65-.22A.34.34,0,1,0,23.62,11.93Z"/><path class="cls-1" d="M17.07,13.83c-.65-.19-.78.3-.48.55S17.26,14.39,17.07,13.83Z"/><path class="cls-1" d="M24.71,9.26c.07.19.15.38-.08.51s-.26-.08-.56.2C25.42,10.42,25.27,9.43,24.71,9.26Z"/><path class="cls-1" d="M41.45,37.34a.11.11,0,0,0,0,0l-.39.37a2.45,2.45,0,0,0-.63,1.86,4,4,0,0,1,1.19-2.22c-.09-.1,0,0-.14-.06Z"/><path class="cls-2" d="M7.72,23.87c-.29.2,0,.87.36.61S8.16,23.57,7.72,23.87Z"/><path class="cls-1" d="M55.94,25.45a2.16,2.16,0,0,0,2.16-1.09c-.24.15-.23.23-.46.39-.91.64-1.17.41-1.7.7Z"/><path class="cls-2" d="M44.82,26.66c-.22.24,0,.59.36.59l.16-.14C45.44,26.58,45,26.41,44.82,26.66Z"/><path class="cls-2" d="M43.86,27.88c-.54-.17-.61.17-.45.57C43.94,28.56,44,28.4,43.86,27.88Z"/><path class="cls-1" d="M46.29,39.16a.44.44,0,0,0,.06-.67l-.41,0C45.81,39,45.82,39.14,46.29,39.16Z"/><path class="cls-1" d="M54.24,1.6l.4,0C55.18.88,53.94.62,54.24,1.6Z"/><path class="cls-2" d="M44.77,28.08c-.48.8.91.86.37,0Z"/><path class="cls-1" d="M61.18,6.7c-.28.22-.25.32-.1.63.52,0,.61-.22.39-.61Z"/><path class="cls-2" d="M64.41,13.84c-.09.52,0,.58.48.49C65.17,13.71,64.62,13.62,64.41,13.84Z"/><path class="cls-2" d="M31.32,43.71a.3.3,0,1,0,.59-.13A.3.3,0,0,0,31.32,43.71Z"/><path class="cls-2" d="M37.31,52.48c-.23.45-.07.65.41.55C37.83,52.67,37.77,52.41,37.31,52.48Z"/><path class="cls-2" d="M62.41,34.85c-.75.59.68,1,.29,0Z"/><path class="cls-2" d="M39.1,23.06c0,.3,0,.25.2.39.44,0,.42-.21.32-.56C39.35,22.82,39.23,22.85,39.1,23.06Z"/><path class="cls-1" d="M40.68,19.15c.67.09.63-.71,0-.57A.71.71,0,0,0,40.68,19.15Z"/><path class="cls-2" d="M7.43,23.61c.49.12.56-.22.33-.55C7.33,23.08,7.32,23.27,7.43,23.61Z"/><path class="cls-2" d="M61,19.92a.27.27,0,0,0,.24.48c.32-.17.1-.77-.24-.48Z"/><path class="cls-2" d="M45.82,45c-.48-.06-.46.27-.32.53C46,45.57,46,45.38,45.82,45Z"/><path class="cls-2" d="M10.59,30.66c-.12.23-.1.24,0,.43C11.22,31.2,11.09,30.41,10.59,30.66Z"/><path class="cls-2" d="M66,14.49c.06-.1.09.14.08-.18s-.48-.27-.47,0S65.79,14.56,66,14.49Z"/><path class="cls-2" d="M31.64,45.32c.13-.23.13-.21,0-.48l-.3.06c-.15.21-.12.19,0,.4l.29,0Z"/><path class="cls-2" d="M46,46.19c.07-.29,0-.69-.32-.4S45.68,46.25,46,46.19Z"/><path class="cls-2" d="M7.24,22.94c.06-.28,0-.68-.32-.4S6.88,23,7.24,22.94Z"/><path class="cls-1" d="M23.53,11c.18-.1.24-.5-.24-.41C23.08,10.88,23.31,11.11,23.53,11Z"/><path class="cls-2" d="M61.25,19.22c-.28.28-.17.6.11.48S61.64,19.3,61.25,19.22Z"/><path class="cls-3" d="M7.16,20.06c-.41,0-.26.05-.61-.22l0-.48c-.39.67.33,1.11.64.7Z"/><path class="cls-1" d="M52.85.69s-.19-.06,0,.38l.27.05c.15-.34.11-.55-.27-.43Z"/><path class="cls-1" d="M61.41,8.26c.23.06.58,0,.34-.35S61.35,7.8,61.41,8.26Z"/><path class="cls-1" d="M17.77,14s.36-.41-.25-.34c-.07.25,0,.29,0,.28l0,.05s.19.08.22,0Z"/><path class="cls-2" d="M38.56,53.14c0,.12.06.13.14.15.26.09.25-.14.14-.38-.09,0-.32,0-.28.23Z"/><path class="cls-2" d="M45.56,46.74c.11.24.06.11.26.12.1-.18.08-.48-.18-.34,0,0-.12.13-.08.22Z"/><path class="cls-2" d="M61.11,18.88c.45.12.5-.29.07-.33Z"/><path class="cls-2" d="M6.37,22.49c.21-.14.27-.17,0-.38C6.09,22.31,6.16,22.35,6.37,22.49Z"/><path class="cls-2" d="M31.85,46.26c.31,0,.35,0,.25-.26,0,0-.05-.14-.2,0s0,.12,0,.27Z"/><path class="cls-2" d="M45.55,47.42c0-.25,0-.19-.2-.24,0,.07-.09.15,0,.24S45.53,47.43,45.55,47.42Z"/><path class="cls-2" d="M60.91,18.07c.11.19,0,.15.22.11,0,0,0-.07,0-.06s.05,0,0-.19C61,18,60.94,17.91,60.91,18.07Z"/></g></g></g></svg>