<svg xmlns="http://www.w3.org/2000/svg" viewBox="0 0 52.27 42"><defs><style>.cls-1{fill:#e31e24;}.cls-1,.cls-2{fill-rule:evenodd;}.cls-2{fill:#231e1e;}</style></defs><g id="Слой_2" data-name="Слой 2"><g id="Слой_1-2" data-name="Слой 1"><g id="_3015490069296" data-name=" 3015490069296"><path class="cls-1" d="M40.69,25.15c0-7-5.78-9.68-10.11-7.18a7.13,7.13,0,0,0-2.94,3.34c-1.46,3.18,0,7.78,1.06,10.51.32.83.6,1.55.91,2.31.84,2.06,2,5.75,1.36,7.87a4.23,4.23,0,0,0,1.12-.57c3.25-1.73,6-1.65,9.29-2.2s6.9-1.58,9-4.18c6-7.45-3.32-14.51-9.67-9.9Z"/><path class="cls-1" d="M11.55,8.09A8.31,8.31,0,0,0,8.2,6.69C4.39,6.06,0,8.89,0,12.82a7.34,7.34,0,0,0,1.66,4.87c2.76,3.2,5.66,3.9,9.89,4.57,3,.48,5.23.38,8.29,2a10.42,10.42,0,0,0,1.39.68c-.48-3.37.77-6.28,1.78-8.77,2-4.84,4.27-12.21-1.6-15.4A6.61,6.61,0,0,0,13.3,2.43a8.89,8.89,0,0,0-1.75,5.66Z"/><path class="cls-2" d="M23.46,39.89c-.11-1.44,1-3.73,1.41-4.91,3.14-8.43-6.36-9.27-6.35-3a4.34,4.34,0,0,0-2.24-.71,3.75,3.75,0,0,0-3.56,2.49,3.91,3.91,0,0,0,1.69,4.12c2.19,1.63,4.74,1.29,7,1.93a14.67,14.67,0,0,1,2.06.87Z"/><path class="cls-2" d="M29.24,13.94c3.65-1.66,5.21-.63,7.52-2.32,2.62-1.93,1.44-5.44-1.67-5.44a3.75,3.75,0,0,0-1.77.58c-.15-4.1-4.41-4.25-5.55-1.5-.86,2.06.64,4.56,1.18,6.28a9,9,0,0,1,.29,2.4Z"/></g></g></g></svg>