<svg xmlns="http://www.w3.org/2000/svg" viewBox="0 0 74.34 43.25"><defs><style>.cls-1{fill:#fff;}.cls-1,.cls-2{fill-rule:evenodd;}.cls-2{fill:#010101;}</style></defs><g id="Слой_2" data-name="Слой 2"><g id="Слой_1-2" data-name="Слой 1"><g id="_3015490071552" data-name=" 3015490071552"><path class="cls-1" d="M45.23,41.12c1.36-.09,6.07-1.89,7.56-2.47a52,52,0,0,0,10.14-5.3c1.13-.73,2.06-1.54,3-2.25a21.19,21.19,0,0,0,4.78-5.65,11.78,11.78,0,0,0-2.51-14.88c-1.67-1.32-5-2.81-7.94-2.28-4.26.76-5.35,3.89-6.63,3.78-.85-.08-.89-.74-1.06-1.53a12.86,12.86,0,0,0-.61-1.94,9.49,9.49,0,0,0-2-3.17,10.67,10.67,0,0,0-7.67-2.62,11.32,11.32,0,0,0-7,3.33,11.35,11.35,0,0,0-3.42,7c-1,7.6,4.42,16.77,8.62,22.35a60.78,60.78,0,0,0,4.77,5.64Z"/><path class="cls-1" d="M13.25,6.86c-6.52,0-10.78,4.54-11.19,11-.34,5.33,4.26,10.32,8,13.18a54.24,54.24,0,0,0,13.8,7.39c1.34.51,2.58.89,4,1.34s1,.72,3.06-1.65c.63-.73,4.69-5.43,4.69-6l-2.09-3.76c-2.12-4.41-3.85-8.35-3.81-13.62a14.27,14.27,0,0,1,3.67-9.57,10.75,10.75,0,0,1,2.43-2.08l-.69-.43a8.4,8.4,0,0,0-3.75-.58,11,11,0,0,0-5.85,1.83,8.68,8.68,0,0,0-3.16,4.6c-.46,1.35-.64,3.77-2.67,1.69C18,8.53,15.79,6.86,13.25,6.86Z"/><path class="cls-2" d="M45.23,41.12a60.78,60.78,0,0,1-4.77-5.64c-4.2-5.58-9.65-14.75-8.62-22.35a11.35,11.35,0,0,1,3.42-7,11.37,11.37,0,0,1,7-3.33,10.67,10.67,0,0,1,7.67,2.62,9.49,9.49,0,0,1,2,3.17,12.86,12.86,0,0,1,.61,1.94c.17.79.21,1.45,1.06,1.53,1.28.11,2.37-3,6.63-3.78,3-.53,6.27,1,7.94,2.28a11.78,11.78,0,0,1,2.51,14.88,21.19,21.19,0,0,1-4.78,5.65c-.9.71-1.83,1.52-3,2.25a52,52,0,0,1-10.14,5.3c-1.49.58-6.2,2.38-7.56,2.47Zm-32-34.26c2.54,0,4.78,1.67,6.39,3.32,2,2.08,2.21-.34,2.67-1.69a8.68,8.68,0,0,1,3.16-4.6,11,11,0,0,1,5.85-1.83,8.4,8.4,0,0,1,3.75.58l.69.43a10.75,10.75,0,0,0-2.43,2.08,14.27,14.27,0,0,0-3.67,9.57c0,5.27,1.69,9.21,3.81,13.62l2.09,3.76c0,.6-4.06,5.3-4.69,6-2.06,2.37-1.78,2-3.06,1.65s-2.65-.83-4-1.34A54.24,54.24,0,0,1,10,31.05c-3.7-2.86-8.3-7.85-8-13.18C2.47,11.4,6.73,6.86,13.25,6.86Zm7.09,1.07c-.28-.17,0,0-.31-.22L18.37,6.47C13.16,3,5.72,5.28,2.44,10.29c-4.62,7-2.07,14.05,2.57,19C9,33.65,14.86,37,21.19,39.58c1.73.72,3.1,1.15,4.82,1.78,3,1.09,3.52,1.23,4.79-.17a76,76,0,0,0,5.33-6.26c.31-.43.34-.59.76-.87,1,1.13,1.78,2.57,2.87,3.86s2,2.45,3.09,3.63c1.74,1.92,1.38,2,4.33,1.2,1.67-.48,3.33-1.08,5-1.66,8-2.79,19.58-9.18,21.82-18.37A13.85,13.85,0,0,0,72.2,12.08a12,12,0,0,0-7.82-5.53,10.07,10.07,0,0,0-5.83,0,9.22,9.22,0,0,0-2.31,1.07l-2,1.3c-.37-.62-.59-1.56-1-2.37C51.18,2.72,47.1.69,42.56.76c-3.91.06-3.62,1.48-5.3.61C32.58-1,26.13-.24,22.68,3.65A11.87,11.87,0,0,0,20.34,7.93Z"/></g></g></g></svg>