<svg xmlns="http://www.w3.org/2000/svg" viewBox="0 0 59.47 44.78"><defs><style>.cls-1{fill:#0a0a0c;stroke:#000;stroke-miterlimit:10;stroke-width:0.22px;fill-rule:evenodd;}</style></defs><g id="Слой_2" data-name="Слой 2"><g id="Слой_1-2" data-name="Слой 1"><g id="_3015490071600" data-name=" 3015490071600"><path class="cls-1" d="M21.43,14.64a.61.61,0,0,0,.33.63A6.91,6.91,0,0,1,24,14.14a12.7,12.7,0,0,1,3-.46c3-.13,6.15,1.24,6,4.28-.1,2.53-1.84,5.28-3.17,7.13-4.22,5.84-4.85,5.32-8.21,12.32-.34.7-2,4.26-2.12,4.73a22.41,22.41,0,0,1-2.67-2.61L12,34.86c-.38-.33-.72-.69-1.11-1a27.17,27.17,0,0,1-7.39-9.52c-.87-1.91-1.53-4.77-.69-7,1.31-3.42,6-2.92,9-1.35a8.88,8.88,0,0,1,3.82,4.63c.61,1.6.58,3.06.82,3.43.81.11.73-.39,1.07-1.47.21-.67.4-1.31.61-1.92s.46-1.2.69-1.82c.35-.94.31-.48.49-.81a.52.52,0,0,0-.45-.71c-.3.07-1.05,2.17-1.14,2.55l-.52,2.19c0,.2-.06.65-.21.73a14.86,14.86,0,0,0-1-3.28,12.77,12.77,0,0,0-1.64-2.62,8.24,8.24,0,0,0-1.07-1.06A10.68,10.68,0,0,0,12,14.94a9.8,9.8,0,0,0-3.19-1.12c-5.35-.93-10.14,2.38-8.3,7.9a25.14,25.14,0,0,0,4.85,8C8.21,33,8.73,33.16,12,36l1.68,1.49c1.31,1.12,5.09,4.86,5.5,6.33a2.16,2.16,0,0,0,.27.75.48.48,0,0,0,.71-.1,7.9,7.9,0,0,0,.39-1.73,30.32,30.32,0,0,1,4.81-10.25c1.66-2.18,4-4.55,5.79-7.06.6-.84,1.19-1.65,1.75-2.57a6.36,6.36,0,0,0,.46-6.67c-2.27-3.89-8.12-4.26-11.3-2a7.27,7.27,0,0,1-.63.44Z"/><path class="cls-1" d="M36.82,11.63c.51-.55.28-3.1,4.39-5.92a14.51,14.51,0,0,1,7.53-2.82c3.27-.26,6.19.83,7.6,2.64,1.67,2.15,1.19,5.53-.63,7.72-2.75,3.32-5,4.94-8,7.52L45,23.18c-2.62,2.25-4.9,6.2-6.2,9.29-.69,1.64-.79,2-1.33,3.5l-.13.26L36.1,33.45a24.67,24.67,0,0,0-2.21-3.79A8.9,8.9,0,0,0,32,27.59c-.2-.14-.39-.35-.72-.22a.75.75,0,0,0-.48.54c.12.14.39.24.58.44.42.43.87,1.2,1.44,1.78a20.61,20.61,0,0,1,4.38,7.37c.18.64-.15,1.28.81,1,.12-.26.45-1.76.58-2.2.23-.74.46-1.47.72-2.12a33.65,33.65,0,0,1,4.49-8.29L48,21.61c.22-.2.53-.45.77-.65l3.08-2.61c.69-.58,2.5-2.06,3-2.64a33.52,33.52,0,0,0,2.74-3C59,11,60,8.78,58.93,6.42a4.51,4.51,0,0,0-.51-.9l-.32-.4c-.13-.15-.22-.22-.35-.36C56,2.82,52.51,2,49,2.17A14.91,14.91,0,0,0,37.73,7.92C37.49,8.24,35.31,11.56,36.82,11.63Z"/><path class="cls-1" d="M24.42.2A8.21,8.21,0,0,0,19,2.76a8.92,8.92,0,0,0-2.27,5.76c-.28,3.14,1.61,6.34,3.29,8.64a23.08,23.08,0,0,0,1.79,2.22l5.45,5.46c.16.16.3.42.6.4a1.46,1.46,0,0,0,.67-.3c.32-.31,0-.38-.26-.53s-3.7-3.51-4.06-3.95-.59-.66-.92-1.08a28.82,28.82,0,0,1-3.2-4.8c-1.95-3.84-3.66-8.76-.19-11.82A8.37,8.37,0,0,1,26.15,1c2.42.13,4.66.53,6.2,1.79a9.47,9.47,0,0,1,3.19,4.75c.12.43.1,1.48.58,1.35s.55-1,.64-1.36a4.19,4.19,0,0,0-.68-3.11,9,9,0,0,0-4.67-3.35,17.51,17.51,0,0,0-7-.87Z"/></g></g></g></svg>