<svg xmlns="http://www.w3.org/2000/svg" viewBox="0 0 57.03 41.06"><defs><style>.cls-1{fill:#040404;}.cls-1,.cls-2,.cls-3,.cls-4,.cls-5,.cls-6,.cls-7,.cls-8{fill-rule:evenodd;}.cls-2{fill:#0d0d0d;}.cls-3{fill:#101010;}.cls-4{fill:#3d3d3d;}.cls-5{fill:#575757;}.cls-6{fill:#9e9e9e;}.cls-7{fill:#c5c5c5;}.cls-8{fill:#1f1f1f;}</style></defs><g id="Слой_2" data-name="Слой 2"><g id="Слой_1-2" data-name="Слой 1"><g id="_3015490072656" data-name=" 3015490072656"><path class="cls-1" d="M36.46,4.87l-1,.1c.55,1.14.2.46,1,1.32a10.75,10.75,0,0,0,.92,1c1.43-.48,6.33-6.49,11.82-3.5a7.48,7.48,0,0,1,2.68,11c-2.29,3.48-5.37,5.94-7.8,9.21-3.12,4.19-4.38,6-4.22,12.74A21.11,21.11,0,0,1,37,34.51a107.27,107.27,0,0,1-8.41-7.81c-.47.92-1,1.33-1.48,2.18,3.54,3.41,7.85,6.72,12.7,8.19.8.35,0-1,.86-2-.08-8,13.94-14.29,16.08-22.31C58.81,5,49.15-5.06,39.15,2.93c-1,.84-1.4,2.06-2.69,1.94Z"/><path class="cls-1" d="M22.67,40l.32.12c-.67-6.53,2.9-10.19,5.86-14.39C31.64,21.76,36,16.51,33,11c-1.28-2.34-4.75-5.69-8.82-5.15a5,5,0,0,0-1.65,2.57,7.87,7.87,0,0,1,8.2,4.24c3.69,7.12-11.5,16.28-8.06,27.33Z"/><path class="cls-2" d="M17,38.36l-1-.82c-.42-.25-.75-.39-1.21-.66-5-3-10.49-7.33-12.66-13.29-2.94-8.1,4.06-13.28,8.38-12.1,2.52.7,3,2.46,4.66,3,1.51-.49,1.72-1.95,3-3.12C20,9.6,19.11,9,20.43,7.25a4.54,4.54,0,0,0,.15-.43s0-.07,0-.14,0-.07-.06-.1c-1.9.78-4.57,3.26-5.18,5-2.47-1-5.5-4.53-11.55-.08-5,3.68-4.86,10.76-.6,16.64,3.07,4.24,10.51,10,13.82,10.23Z"/><path class="cls-1" d="M19.83,9.92c-2,3.31.42,10,2.63,13.46l1.84,2.5.3.31c.38.34.15.18.5.39l1.43-2.13c-1.28-3.42-5.63-7-5-14.64l-.22-.38L21.12,9l-.45-.72a14.23,14.23,0,0,1-.39,2.19c0-.93.16-.28-.45-.54Z"/><path class="cls-3" d="M21.42,6.3l-.57,1-1,2.64c.61.26.46-.39.45.54a14.23,14.23,0,0,0,.39-2.19l.45.72.23.44.22.38c1-2.55.68-2.58,2.47-4.36,3.7-3.67,8.67-3.75,11.63.69a7.54,7.54,0,0,0,.75,1.17c1,.86.92,0,1,0a10.75,10.75,0,0,1-.92-1c-.77-.86-.42-.18-1-1.32l1-.1c-1.56-2.7-5.3-3.61-8.22-3a11.39,11.39,0,0,0-3.81,1.76,17.09,17.09,0,0,0-3,2.63Z"/><path class="cls-4" d="M21.94,40.48l-4.05-2-.24.53a16.3,16.3,0,0,0,4.29,1.44Z"/><path class="cls-5" d="M21.94,40.48c.58.6-1.09.22,1,.58.26-.42.4.21,0-1L22.67,40c-.29.65.63.39-.73.5Z"/><path class="cls-6" d="M39.81,37.07c.16.25-.77.52.61.23l.25-2.23c-.86,1-.06,2.35-.86,2Z"/><path class="cls-7" d="M20.43,7.25l.42,0,.57-1c-1.38-.31-.7.09-.91.28,0,0,.06,0,.06.1s0,.12,0,.14a4.54,4.54,0,0,1-.15.43Z"/><path class="cls-8" d="M17.65,39l.24-.53L17,38.36C17.22,38.83,17,38.74,17.65,39Z"/></g></g></g></svg>