<svg xmlns="http://www.w3.org/2000/svg" viewBox="0 0 96.93 38.94"><defs><style>.cls-1{fill-rule:evenodd;}</style></defs><g id="Слой_2" data-name="Слой 2"><g id="Слой_1-2" data-name="Слой 1"><g id="_3015490073952" data-name=" 3015490073952"><path class="cls-1" d="M71.94,5.73l-.25,1.55a60.7,60.7,0,0,1-.52,9,15.68,15.68,0,0,1-1.12,3.82c-.42,1-1.72,2.6-1.77,3l.58.09c1.81.05,3.54-4.91,3.8-6.67.3-2-.06-8,.68-9.23.86,1.36.82,21.06.92,24.58.68.81.2,2.79,1.28,4.11a6.81,6.81,0,0,0,1.8-.13A30.89,30.89,0,0,0,79,25.54c0-1.71.42-9.29,1.22-10.26,1,.33,1.53,3.51,1.73,4.48s.61,4.23,2.18,4.44c.89-.11,1.33-.28,1.61-1,.42-1,.56-4.24,1.74-5.47,2,0,.89.95,2.75.72l2.86.08c-.14,0-.88-.05-1-.07-1.51-.3-.75-.2-1-.53-1.21-.6-3.38-1.86-5-.33-1.22,1.19-.64,3.34-1.66,4.59-1.2-1.19-.89-4.95-2.31-7-.7-1-1-1.05-2.68-.85a3.69,3.69,0,0,0-.64,1,4.84,4.84,0,0,1-.29.6c-.37.54.08.08-.33.29.21,1-.51,7.33-.56,9.45,0,1.87-.31,7.45-1,8.66-1.92-2.19-.63-19.57-1.34-24.51C75,8.07,75,4.81,73.49,4.71s-.81.43-1.55,1Z"/><path class="cls-1" d="M12.82,19.21c-.05-2.44.16-5.13.18-7.57L13.22,6c.08-.77,0-1,.8-1.08.72,2.14.42,10.61.44,13.34l.23,13.77c-.32,1.56.56,3.78.49,5.37l.91,1.51c1.72.11,1.62-.46,1.88-.91l.65-.69c-.18-.93.38-3,.52-4.2l.37-13.92c0-.49-.1-.53.37-1,1.09.3.79.3.85,1.29-.08,1.61,1.22,3.12.74,4.76.88.48.39.37.83,1.15,1.27,0,1,.1,1.8-.35-.34-.52-2.28-1-1.56-3.38a11.18,11.18,0,0,0-.66-3.43l-.71-.5c-.36-.28-.63-.56-1.78-.27l-.9.4A15.19,15.19,0,0,0,18,19.94c-.07.9-.23,1.72-.28,2.5-.18,2.92.48,13.51-.87,14.85a5.6,5.6,0,0,1-.21-3.81c-.69-.75-.28-2.36-.54-3.66C15,24.58,17,6.93,14.58,3.71l-1.68.16c-2.82,3.39.44,12.05-2.33,17.67-2.3.05-3.3-2.08-5.28-2.38-2.2-.32-5,1.12-5.29,2.49,3.26,0,1.87-3.79,7.09-.3,2.69,1.8,6,.81,5.73-2.14Z"/><path class="cls-1" d="M29.43,1.39c.75.07.29.2.51-.12a11.76,11.76,0,0,0-1.76,1.18c-.91.66-1.14.64-1.14,1.78l.85-.76C32.48-1.69,41,1.32,41.49,4.67c1,.7.26,1.43.73,2.38h1.11c1.25-1.64.53-2.7,3-4.36C53.08-1.73,60.05,2,59.9,8.74c-.1,4.15-2.77,6.58-5.76,8.85-1.46,1.11-3,2-4.49,3.3a28.58,28.58,0,0,1-4.25,3.23c-.13,1.09.31.63,1.12.26,1-.24,6.33-4.91,7.64-5.59a9.68,9.68,0,0,1,3.31-2.63c.45-.65,1.55-1.35,2.12-2.18C64.38,7,60-1.72,49.39.43L47.45.8c-.17.45-.13.39-1,.88-2.28,1.22-2.27,2-3.07,2.41-.93-.33-1-2.35-5.44-3.77a13.59,13.59,0,0,0-6.9.3l-1.57.77Z"/><path class="cls-1" d="M35.47,21.47c1.74.48,3.19,2.27,5.22,2.88a2.37,2.37,0,0,1,.85.19c.09,0,.6.23.72.29.77.37.74.41,1,1,.16,0,1.15-.12,1.16-.12.94-.22.51,0,.92-.57-.08,0-.22-.11-.28-.05l-1.46-.45a18.4,18.4,0,0,1-3.36-1.73c-1.11-.74-2.28-1.61-3.08-2.09a3.56,3.56,0,0,1-1.75-1.13c-1.22-1.25-5.31-3.86-6-5.44l-.65-.44a11.18,11.18,0,0,1-2.39-4C25.32,7,27,4.86,27,4.23c0-1.14.23-1.12,1.14-1.78a11.76,11.76,0,0,1,1.76-1.18c-.22.32.24.19-.51.12-3.53.43-6.78,7.36-3.55,11.4a21.69,21.69,0,0,0,2.05,2.43l7.12,5.7c.33.3.35.27.42.55Z"/><path class="cls-1" d="M22.54,21.66c-.72,2.41,1.22,2.86,1.56,3.38.77-1,0-.48.89-.67-.24-1.15.62-3.27,1.31-4.18,2.22-.06,7.36,3.54,9.36,4.86,1.79,1.18,2.48,1.17,3.11,1.67l2.45,0c.68-.55-.83-.2.86-.49-1,.11-1.47.25-2.16-.31-1.05-.22-7.82-4.14-8.41-5-1.61-.1-2.86-2.31-5.54-1.41-2.26.75-1.6,3.1-2.74,4-.18-.42-.28-1.48-.69-1.83Z"/><path class="cls-1" d="M59.11,21.77c-.67,3.42,2.58,4.11,3.32,1.79.29-.9.39-2.17,1-2.9,1.79.54,1.4,3.89,4.28,3.18,1.37-.34.43.15,1.13-.57l-.58-.09-1.2,0c-1.07-1.12-1.47-3-2.52-3.79-3.41-.28-2.66,2.56-3.63,3.88a4.77,4.77,0,0,1-.77-2.68c-.11-.89-.55-2.24-.52-2.81L59,17.45l-1.09-.11A4.82,4.82,0,0,1,59.11,21.77Z"/><path class="cls-1" d="M54.66,18.94a34.93,34.93,0,0,1-2.52,3.2,9.42,9.42,0,0,1-3.28,2.65l-.34.59.93-.15.33.21c0-.05.11-.17.14-.13a22.2,22.2,0,0,0,4-3.51c.9-1.06,2.61-3.54,3.64-4.09a4.51,4.51,0,0,1,1,4.06h.5a4.82,4.82,0,0,0-1.25-4.43l1.09.11c-.3-.31-.33-.6-1.27-.48a4.49,4.49,0,0,0-2.5,1.61,2.32,2.32,0,0,1-.52.36Z"/><path class="cls-1" d="M43.55,24.63l1.46.45c.06-.06.2,0,.28.05-.41.56,0,.35-.92.57,0,0-1,.09-1.16.12-.21-.58-.18-.62-1-1-.12-.06-.63-.26-.72-.29a2.37,2.37,0,0,0-.85-.19c.79.78,1.26.61,1.64,1.2-.88.47-.92.44-2.41.33.69.56,1.15.42,2.16.31-1.69.29-.18-.06-.86.49,2.06-.16,1.74-.75,4.06-.65,1.67.07,3.29.14,4.17-.8l-.93.15.34-.59c-.89.34-1.88.89-3.09.34.43-.71.39,0,.56-.58,0-.1.13-.11.19-.17-.81.37-1.25.83-1.12-.26A2.83,2.83,0,0,1,43.55,24.63Z"/><path class="cls-1" d="M91,18c.28.33-.48.23,1,.53.15,0,.89.05,1,.07l-2.86-.08c.44.58.22.43,1.42.48.58,0,1.55,0,2.14-.09a8.26,8.26,0,0,1,2.69-.69c.48-.62.13-.08.47-.93C94.05,17.54,94.6,18.45,91,18Z"/><path class="cls-1" d="M18.49,17.86l.9-.4c1.15-.29,1.42,0,1.78.27l.71.5c-.28-1.21-1.1-1.39-2.73-1.11A3.3,3.3,0,0,0,18.49,17.86Z"/><path class="cls-1" d="M37.11,20.81a2.87,2.87,0,0,0-1.75-1.13A3.56,3.56,0,0,0,37.11,20.81Z"/></g></g></g></svg>