<svg xmlns="http://www.w3.org/2000/svg" viewBox="0 0 76.63 53.86"><defs><style>.cls-1{fill:#2b2a29;fill-rule:evenodd;}</style></defs><g id="Слой_2" data-name="Слой 2"><g id="Слой_1-2" data-name="Слой 1"><g id="_3015490083888" data-name=" 3015490083888"><path class="cls-1" d="M53.47,35.52c-.33-.25-.73-.44-1.07-.66a90.33,90.33,0,0,1-8.55-6.46A29.76,29.76,0,0,1,41.23,26c-.49-.54-.5-.54,0-1,4.21-4.2,12.22-10.49,19.9-10.19A13.43,13.43,0,0,1,70.38,19l.73.94a9.73,9.73,0,0,1,.66,1,10,10,0,0,1,.87,8.18,11.39,11.39,0,0,1-6.29,7.12c-4.15,1.91-5.88,1.31-6.83,1.52a8.31,8.31,0,0,0-1.25,1.22c-.15.16-.29.26-.43.41a12,12,0,0,0-.79.91A19.23,19.23,0,0,0,67.59,39a14.16,14.16,0,0,0,6.59-5.55,13.65,13.65,0,0,0,.45-14.27c-2.13-3.92-6.78-6.65-11-7.19a22.51,22.51,0,0,0-10.54,1.31,35.52,35.52,0,0,0-8,4.22,47.37,47.37,0,0,0-5,4.13,14.61,14.61,0,0,1-1.56,1.46A10.54,10.54,0,0,1,37.3,21.9a36.2,36.2,0,0,0-3.09-2.68,33.82,33.82,0,0,0-3.33-2.35,37.32,37.32,0,0,0-5.94-3.14,26.65,26.65,0,0,0-11.33-2.24,8.85,8.85,0,0,0-1.15,3.8,29,29,0,0,1,4.19-.1c5.94.55,10.27,2.74,14.86,6.31.62.48,4.17,3.54,4.39,4.09a60.54,60.54,0,0,1-4.67,4.3l-5,3.88c-3.52,2.46-7.65,4.9-13.49,3.69A14.69,14.69,0,0,1,9.36,36.3,9.85,9.85,0,0,1,5,32c-2-3.53-1.48-7.18.23-10.54l1.28-2.05c.09-.12.44-.53.49-.62s0-3.84,0-4.36a7.83,7.83,0,0,0-1.67,1.11,14.49,14.49,0,0,0-3.51,4.4,11.64,11.64,0,0,0-1.37,3.9C-.8,31.46,2.79,37.82,10,40.17c6,1.95,12.44.13,16.8-2.72a91.57,91.57,0,0,0,7.44-5.75L38.46,28a10.6,10.6,0,0,1,1.47,1.38c.79.85,3.63,3.19,4.54,3.93a62.82,62.82,0,0,0,6.77,4.56A20.5,20.5,0,0,0,53,36.14a2.28,2.28,0,0,0,.5-.62Z"/><path class="cls-1" d="M38.09,12.72c.23.15.16.12.26.36.15-.1.11,0,.21-.17s0-.43.31-.58l.93-1.85A13.85,13.85,0,0,1,53,3.31,13.67,13.67,0,0,1,63.89,9.76c.44.68.42.54,1.93,1L68,11.5a15.77,15.77,0,0,0-2-3.94c-2.56-3.84-6.06-6-10.91-7a15.8,15.8,0,0,0-15.2,5c-2.12,2.44-.75,1.88-4-1C30.39-.36,23.21-1.07,16.46,2.34c-7.93,4-10.09,13-7,21.25A31,31,0,0,0,13,30.35a36,36,0,0,0,2.22,2.92A31.75,31.75,0,0,0,17.71,36a6.56,6.56,0,0,0,3-.89,11.63,11.63,0,0,0-1.13-1.3c-.39-.43-.72-.85-1.12-1.32a56.31,56.31,0,0,1-4.15-5.57,18.52,18.52,0,0,1-1.62-3.31c-3.22-7.94-1-15.92,6.93-19.45a12.54,12.54,0,0,1,11.72.66,16.33,16.33,0,0,1,5.93,6.3c.33.55.55,1.11.84,1.6Z"/><path class="cls-1" d="M25.69,39.76c-.22.08-.9.54-1.23.71a13.29,13.29,0,0,0-1.36.67c.4,1,9.28,8.07,11.22,9.56.23.17,3.82,2.91,4,2.93.36-.09,4.05-2.9,4.65-3.39,2.1-1.7,4.81-3.71,6.73-5.43.73-.65,1.39-1.13,2.17-1.84,1.39-1.25,2.83-2.4,4.31-3.82a55.38,55.38,0,0,0,7.49-8.68,42.42,42.42,0,0,0,2.94-5.11c.52-1.06,2-4.79,2-6.08a25,25,0,0,0-2.91-1.82c-.2.6-.5,2.67-1,4.14a29.72,29.72,0,0,1-1.47,3.75A28.51,28.51,0,0,1,58,33a53.86,53.86,0,0,1-3.83,3.94c-3,2.78-7.9,7-11.19,9.51-1.26,1-3,2.46-4.32,3.39-.49.34-1.11-.2-1.7-.62-1.44-1-3-2.26-4.3-3.41-.48-.4-1-.8-1.44-1.2C30,43.48,28.18,42,27.1,41c-.3-.29-.44-.38-.7-.62a6.12,6.12,0,0,0-.71-.61Z"/><path class="cls-1" d="M53.47,35.52a2.28,2.28,0,0,1-.5.62,20.5,20.5,0,0,1-1.73,1.75,62.82,62.82,0,0,1-6.77-4.56c-.91-.74-3.75-3.08-4.54-3.93A10.6,10.6,0,0,0,38.46,28L34.23,31.7a91.57,91.57,0,0,1-7.44,5.75C22.43,40.3,16,42.12,10,40.17,2.79,37.82-.8,31.46.43,23.79a11.64,11.64,0,0,1,1.37-3.9,14.49,14.49,0,0,1,3.51-4.4A7.83,7.83,0,0,1,7,14.38c0,.52,0,4.28,0,4.36s-.4.5-.49.62L5.19,21.41C3.48,24.77,3,28.42,5,32a9.85,9.85,0,0,0,4.4,4.35,14.69,14.69,0,0,0,3.37,1.16c5.84,1.21,10-1.23,13.49-3.69l5-3.88a60.54,60.54,0,0,0,4.67-4.3C35.68,25,32.13,22,31.51,21.5c-4.59-3.57-8.92-5.76-14.86-6.31a29,29,0,0,0-4.19.1,8.85,8.85,0,0,1,1.15-3.8,26.65,26.65,0,0,1,11.33,2.24,37.32,37.32,0,0,1,5.94,3.14,33.82,33.82,0,0,1,3.33,2.35A36.2,36.2,0,0,1,37.3,21.9a10.54,10.54,0,0,0,1.16,1.16A14.61,14.61,0,0,0,40,21.6a47.37,47.37,0,0,1,5-4.13,35.52,35.52,0,0,1,8-4.22,22.51,22.51,0,0,1,10.54-1.31c4.26.54,8.91,3.27,11,7.19a14.13,14.13,0,0,1-7,19.82,19.23,19.23,0,0,1-10.54,1.31,12,12,0,0,1,.79-.91c.14-.15.28-.25.43-.41a8.31,8.31,0,0,1,1.25-1.22c.95-.21,2.68.39,6.83-1.52a11.39,11.39,0,0,0,6.29-7.12,10,10,0,0,0-.87-8.18,9.73,9.73,0,0,0-.66-1L70.38,19a13.43,13.43,0,0,0-9.28-4.14c-7.68-.3-15.69,6-19.9,10.19-.47.48-.46.48,0,1a29.76,29.76,0,0,0,2.62,2.38,90.33,90.33,0,0,0,8.55,6.46C52.74,35.08,53.14,35.27,53.47,35.52Zm-41.21-20c.6,0,1.35-.11,2-.13s1.38,0,2.08,0a24.23,24.23,0,0,1,9.82,2.84,36.35,36.35,0,0,1,5.08,3.32,37.48,37.48,0,0,1,4.42,4.07,75.73,75.73,0,0,1-5.8,5.19c-.44.37-.83.66-1.24,1-.76.59-1.66,1.25-2.56,1.88-3.64,2.56-7.74,4.81-13.31,3.61a10.8,10.8,0,0,1-5.82-3c-4.21-4.51-3.71-9.6-.55-14.37.14-.22.29-.43.46-.65s.38-.34.38-.77c0-.72-.07-1.49-.07-2.23s.11-1.55.06-2.12c-.69,0-2.78,1.93-3.06,2.22A14.48,14.48,0,0,0,.06,28.16a13.71,13.71,0,0,0,9.37,12c6.06,2.14,12.58.49,17.12-2.35a59.7,59.7,0,0,0,6.11-4.59l5.8-5L41.38,31c.45.44,1,.84,1.49,1.29s1.07.86,1.58,1.26,6.28,4.59,6.79,4.55a16.14,16.14,0,0,0,2.5-2.59l-3.35-2.28c-1-.72-9-6.69-9.31-7.79.59-.93,4.63-4.18,5.56-4.87a35,35,0,0,1,6.61-3.88c5.87-2.57,11.81-2.24,16.1,1.54a11,11,0,0,1,2.33,2.88C74,25.07,72.93,29.75,70.34,33a13.88,13.88,0,0,1-6.5,4,13.7,13.7,0,0,1-2.12.44,16.57,16.57,0,0,0-2.44.21L58,38.93c-.22.25-.4.45-.64.69s-.53.43-.55.76c.93.49,4.46.3,5.62.18,4.71-.5,9.38-3.09,11.75-6.76A13.92,13.92,0,0,0,75,19.45a13.33,13.33,0,0,0-6.27-6,14,14,0,0,0-4.58-1.59c-6.9-1.2-13.6,1.7-19,5.33C44,18,42.67,19,41.67,19.84l-3.21,3c-.39-.33-1.63-1.71-2.65-2.55S34,18.79,32.88,18a35.63,35.63,0,0,0-14.56-6.4c-.69-.11-4.41-.54-4.86-.23s-1.25,3-1.2,4.14Z"/><path class="cls-1" d="M38.87,12.33c-.09.3-.41,1-.42,1.15l-.36-.76c-.29-.49-.51-1.05-.84-1.6a16.33,16.33,0,0,0-5.93-6.3A12.54,12.54,0,0,0,19.6,4.16C11.7,7.69,9.45,15.67,12.67,23.61a18.52,18.52,0,0,0,1.62,3.31,56.31,56.31,0,0,0,4.15,5.57c.4.47.73.89,1.12,1.32a11.63,11.63,0,0,1,1.13,1.3,6.56,6.56,0,0,1-3,.89,31.75,31.75,0,0,1-2.47-2.73A36,36,0,0,1,13,30.35a31,31,0,0,1-3.58-6.76c-3.07-8.3-.91-17.23,7-21.25C23.21-1.08,30.39-.36,35.9,4.55c3.25,2.9,1.88,3.46,4,1a15.8,15.8,0,0,1,15.2-5c4.85,1,8.35,3.17,10.91,7a15.77,15.77,0,0,1,2,3.94l-2.15-.76c-1.51-.44-1.49-.3-1.93-1A13.67,13.67,0,0,0,53,3.31,13.85,13.85,0,0,0,39.8,10.48l-.93,1.85ZM17.59,36.25c.82,0,3.11-.59,3.39-1.14L18.7,32.45a52.75,52.75,0,0,1-4.22-5.64,17.48,17.48,0,0,1-1.63-3.3,17.16,17.16,0,0,1-1.32-8.38,12.81,12.81,0,0,1,3-7,16,16,0,0,1,5.79-4.08c4.15-1.6,8-.89,11.71,1.4a18.41,18.41,0,0,1,5.61,6.73c.15.29.29.59.41.83l.28.64c.06.11,0,0,.05.09a.69.69,0,0,0,.11.12,21.36,21.36,0,0,0,.9-2.12A14.77,14.77,0,0,1,43.29,6.6a13.89,13.89,0,0,1,20.57,3.52c.27.45.51.4,1,.54l2.3.76a8.94,8.94,0,0,0,1.13.46c0-.88-1.42-3.4-1.93-4.18A18.49,18.49,0,0,0,63.6,4.42a17.2,17.2,0,0,0-8.14-4,15.89,15.89,0,0,0-14,3.37,33.6,33.6,0,0,0-3,3.12L37.25,5.56C33.76,2.12,30-.13,24.51,0s-11,2.86-13.87,7.07C7.37,11.9,7.06,17.75,9.26,23.7A33.4,33.4,0,0,0,14,32c.77,1,2.21,2.75,3,3.57a3.73,3.73,0,0,1,.62.69Z"/><path class="cls-1" d="M25.69,39.76a6.12,6.12,0,0,1,.71.61c.26.24.4.33.7.62,1.08,1,2.87,2.49,4.11,3.59.45.4,1,.8,1.44,1.2,1.34,1.15,2.86,2.36,4.3,3.41.59.42,1.21,1,1.7.62,1.29-.93,3.06-2.42,4.32-3.39,3.29-2.54,8.19-6.73,11.19-9.51A53.86,53.86,0,0,0,58,33a28.51,28.51,0,0,0,5.3-7.62,29.72,29.72,0,0,0,1.47-3.75c.48-1.47.78-3.54,1-4.14a25,25,0,0,1,2.91,1.82c0,1.29-1.51,5-2,6.08a42.42,42.42,0,0,1-2.94,5.11,55.38,55.38,0,0,1-7.49,8.68c-1.48,1.42-2.92,2.57-4.31,3.82-.78.71-1.44,1.19-2.17,1.84-1.92,1.72-4.63,3.73-6.73,5.43-.6.49-4.29,3.3-4.65,3.39-.19,0-3.78-2.76-4-2.93-1.94-1.49-10.82-8.54-11.22-9.56a13.29,13.29,0,0,1,1.36-.67c.33-.17,1-.63,1.23-.71ZM22.78,41c0,.42,1.19,1.37,1.48,1.63,1.84,1.68,2.94,2.66,5,4.31.57.46,1.11.92,1.73,1.41,2.5,2,4.47,3.45,7,5.34.46.34.59.07,1-.22l4.42-3.3c3.91-3.07,8.25-6.6,11.82-9.84a59.32,59.32,0,0,0,7.39-8,38.29,38.29,0,0,0,4.59-7.77,26.22,26.22,0,0,0,1.56-4.63c.19-.8.33-.66-1.25-1.65l-.94-.59c-.29-.18-.69-.55-1-.48-.17.57-.26,1.57-.41,2.23a27.77,27.77,0,0,1-3.85,9.06,27,27,0,0,1-3.44,4.32A72.93,72.93,0,0,1,50,40.36L45.74,43.9c-1.23,1-6.06,5-7.2,5.72-.4.26-1.06-.31-1.6-.7-1.77-1.26-6.83-5.49-8.47-7l-1.36-1.2c-.25-.21-.45-.41-.7-.62-1-.81-.48-.71-1.43-.13a6.49,6.49,0,0,1-.72.39c-.44.22-1.1.44-1.48.67Z"/><path class="cls-1" d="M38.09,12.72l.36.76c0-.12.33-.85.42-1.15-.32.15-.12.34-.31.58s-.06.07-.21.17C38.25,12.84,38.32,12.87,38.09,12.72Z"/></g></g></g></svg>