<svg xmlns="http://www.w3.org/2000/svg" viewBox="0 0 56.92 19.72"><defs><style>.cls-1{fill:#2b2a29;fill-rule:evenodd;}</style></defs><g id="Слой_2" data-name="Слой 2"><g id="Слой_1-2" data-name="Слой 1"><g id="_3015324113472" data-name=" 3015324113472"><path class="cls-1" d="M28.49,10.62c0-.5.23-.76.82-.92.15,0,.05,0,.19-.1l.17-.18,3.51-3.69a15.23,15.23,0,0,1,8.93-4.68c7.13-1,13,3.19,13.59,7.91.67,5.36-4.68,9.61-11.21,9.85a13.09,13.09,0,0,1-5-.88,21.65,21.65,0,0,1-4.4-2.43,36.38,36.38,0,0,1-3.53-3L31,11.81c-.53-.6-1.77-.28-.76.74L31.68,14c.15.13.26.18.41.33a25.5,25.5,0,0,0,3.85,2.86l2,1.06a15,15,0,0,0,13-.06,9.72,9.72,0,0,0,1.9-1.12c3.13-2.17,4.86-5.7,3.86-9.33a9.87,9.87,0,0,0-3.63-5A11.79,11.79,0,0,0,51.2,1.68a16,16,0,0,0-17,1.72L33,4.41c-.13.13-.2.17-.34.3L30.56,7c-.24.26-.41.46-.7.74l-2.77,2.94a3,3,0,0,1,0,1.3c-.5.12-.54.19-.71-.23l-.06-.15-.08-.14c-.29.44-1.95,2.11-2.5,2.71a15.27,15.27,0,0,1-11.61,4.66C5.83,18.46.67,14.33,1.21,9.11,1.57,5.6,4.7,2.57,9,1.42c5.16-1.4,9.22.29,12.85,2.79.3.21.4.38.72.58L26.5,8.54a.67.67,0,0,0,.95,0c.5-.61-2.66-3.14-3.31-3.71a17.66,17.66,0,0,0-2.06-1.57,12.68,12.68,0,0,0-2.23-1.36C10.69-3-.49,2.57,0,10.48a8.14,8.14,0,0,0,1.46,4,11.37,11.37,0,0,0,2.88,2.8A14,14,0,0,0,8.45,19.1a16.14,16.14,0,0,0,10.68-.66,17.41,17.41,0,0,0,2-1l1.73-1.17A17.46,17.46,0,0,0,24.38,15c.47-.48.89-1,1.37-1.45l2.74-2.88Z"/><path class="cls-1" d="M26.6,11c.24.07.34-.07.33.48s0,.29-.33.43l-.09-.72-.29.24.08.14.06.15c.17.42.21.35.71.23a3,3,0,0,0,0-1.3l-.18.13-.11.08A1.05,1.05,0,0,1,26.6,11Z"/><path class="cls-1" d="M26.51,11.18l.09.72c.35-.14.32,0,.33-.43s-.09-.41-.33-.48Z"/><path class="cls-1" d="M28.49,10.62a5.12,5.12,0,0,0,.44-.41,1,1,0,0,0,.38-.51C28.72,9.86,28.53,10.12,28.49,10.62Z"/></g></g></g></svg>