<svg xmlns="http://www.w3.org/2000/svg" viewBox="0 0 80.26 26.24"><defs><style>.cls-1{fill:#2b2a29;fill-rule:evenodd;}</style></defs><g id="Слой_2" data-name="Слой 2"><g id="Слой_1-2" data-name="Слой 1"><path class="cls-1" d="M0,17.17v.74L9.87,18c.37,1.15.47,4.75.93,5.48.44,0,.55,0,.62-.4,0-.27.06-.66.09-.94l.56-5.38.18,1.05c.25.48,2.68.23,3.56.22a16,16,0,0,0,3.4-.14c.3-.42.54-5.92.62-7,.31.71,1.35,14.32,1.67,15.3l.6,0c.25-.76.65-6.79.88-8.3,3.37-.12,7.88,0,11.45,0h3.38c1.09-.17-.2-1.14-.66-1.52a37.12,37.12,0,0,1-4.77-5.27c-1-1.53-2.14-3.43-2.06-5.5a4.86,4.86,0,0,1,7.2-4.29A4.87,4.87,0,0,1,40.14,5c.06.38.07.89.6.66s.11-1.81,1.69-3.32C45.26-.39,50.49.76,51,6c.25,2.88-1.23,5-3.06,7A58.49,58.49,0,0,1,43.11,17c-.31.23-.52.3-.33.79,1,.37,13-.12,14.64.12l.76,7.67c0,.5.09.68.63.61.35-.51.82-6.61.93-7.74l.81-7.77c.11,1,.36,6.69.6,7.11s6.79.22,6.9.14c.24-.39.2-1.07.4-1.52L69,23.22c.06.15.63.77.81-.51l.63-4.43c.09-.41,0-.19.18-.32l9.63,0v-.77c-2.19,0-4.39,0-6.58,0-1.09,0-2.22,0-3.3,0s-.49.77-.91,2.29c-.21-2-.3-4-.49-6.08-.06-.68-.59-.74-.77-.26l-.73,4.09-5.63,0c-.15-.37-.72-9.13-.82-10.74-.06-1-.71-.82-.81-.26S60.1,7.43,60.05,8c-.45,4.65-.95,9.27-1.43,13.93-.14-.79-.26-4.26-.64-4.67-.69-.26-11.85,0-13.73-.08l3.3-2.82c.2-.22.4-.36.62-.58,2.13-2.1,4.13-4.81,3.44-8.53-1.26-6.75-9.36-6.19-11-1.57l-1-1.55C36.54-1.56,30.25-.32,29.6,5c-.35,2.89,1.34,5.47,2.54,7.12.54.74,1.17,1.41,1.66,2L35.61,16c.23.22.4.36.63.57a7.38,7.38,0,0,0,.56.56c-1.83.22-13.94-.24-14.39.14s-.3,3.78-.65,4.52L20.27,7.17c-.08-.73.05-1.57-.77-1.31a55,55,0,0,0-.5,5.7l-.35,5c0,.26,0,.56-.15.64a54.91,54.91,0,0,1-5.59,0c-.1-1-.25-2-.38-3-.06-.41,0-1.2-.37-1.33-.56-.22-.56.53-.59.94-.18,1.91-.33,4.11-.62,6a12.83,12.83,0,0,0-.44-2.46C10,17,6.17,17.19,5.3,17.18c-1.63,0-3.73-.14-5.3,0Z"/></g></g></svg>