<svg xmlns="http://www.w3.org/2000/svg" viewBox="0 0 60.07 45.33"><defs><style>.cls-1{fill:#2b2a29;fill-rule:evenodd;}</style></defs><g id="Слой_2" data-name="Слой 2"><g id="Слой_1-2" data-name="Слой 1"><path class="cls-1" d="M15.12,27.76c-1.39-1.06-1.56-8.84-3.64-10.54a2,2,0,0,0-1.33-.32H6.75c-2.17,0-4.59.09-6.74,0v1.29H10.56c1.71,1.58,1.74,9.84,4.06,10.87,1,.46,1.58-.24,1.87-.93,1.05-2.44,1.79-12.87,2-15.71.18-2.38.49-5.59.87-8,.06-.4.13-.84.21-1.25l.21-.91a1,1,0,0,1,0-.13l.1-.17a76.83,76.83,0,0,1,1,9c.62,9.26,1,18.89,1.75,28,.1,1.18.42,5.3,1.35,6.14.7.63,1.43,0,1.73-.49.84-1.47,1.36-6.43,1.52-8.5.11-1.47.26-3,.41-4.5s.24-3.07.4-4.59.3-3,.5-4.51a30.92,30.92,0,0,1,.56-3.17c.09-.31.26-.72.31-1,.19.09,0,0,.17.12a.6.6,0,0,1,.09.13l.43,1c.48,1.45.8,3.14,1.13,4.64.37,1.67.94,5,2.82,5,1.68,0,2.07-2,2.38-3.37a25.49,25.49,0,0,1,.8-3.45c.15-.38.29-.75.76-.75,1.24,0,4-.05,5,0a11.19,11.19,0,0,0,2.64,3.42,24.59,24.59,0,0,0,3.56,2.65,19.55,19.55,0,0,0,2,1.1c.25.06.82-.32,1-.44a31.53,31.53,0,0,0,2.86-1.83c.32-.23.56-.41.85-.66l.85-.74a12.66,12.66,0,0,0,1.49-1.52c3.91-4.72.58-8.92-3.47-8.32a4.73,4.73,0,0,0-3,1.67,2.84,2.84,0,0,0-.48.85l-.1.15c-.42-1.64-2.71-3-5.06-2.66a4.41,4.41,0,0,0-2.57,1.36,4,4,0,0,0-1.07,2.79l.06.9c-1.38,0-2.82,0-4.2,0S36.55,20.5,36,21.9c-.7,1.72-.88,5.72-1.88,6-1.14-.76-1.87-6.78-2.7-9a3.56,3.56,0,0,0-1.17-1.77,1.28,1.28,0,0,0-2,.55c-1.18,2.25-1.88,12.61-2.1,15.35-.17,2.12-.73,8.58-1.39,10.27l-.05-.07a5.1,5.1,0,0,1-.21-.94c-.45-2.72-.55-5.25-.81-8-.15-1.56-.18-3.14-.3-4.71s-.19-3.18-.27-4.75c-.2-4.17-.9-19.59-1.86-23.21-.18-.68-.4-1.42-1-1.6-.9-.26-1.34.52-1.55,1.06-.87,2.2-1.12,6.17-1.38,8.7-.29,2.78-1.18,16.77-2.21,18Z"/></g></g></svg>