<svg xmlns="http://www.w3.org/2000/svg" viewBox="0 0 31.32 17.29"><defs><style>.cls-1{fill:#030303;fill-rule:evenodd;}</style></defs><g id="Слой_2" data-name="Слой 2"><g id="Слой_1-2" data-name="Слой 1"><g id="_2979789397648" data-name=" 2979789397648"><path class="cls-1" d="M7.22,10.61a6.65,6.65,0,0,1,2.61.1c.49.3.73,1.38-.06,1.69-1.51.58-3.52,0-2.55-1.79ZM4.48,7.35c-1.24-1.06-1.61-.95-3.36-1C.69,5.89.56,5.91.44,5.22c2-.55,2.73,0,4.11,1,1.16.83,1.22.72,1.39,1.4.35,1.41.66.67.94,1.92C5.55,9.08,6.14,8.79,4.48,7.35ZM8.09,9.17c.23.07.17-.21.43,0-.44.68-.95.78-1.35,0-.8-1.55-.7-.72-.75-1.56C7.57,6.9,10,6,11.13,7.38c-.52-1.51-2.1-1-3.41-1.08-1.78-2.37,1.67-4.12,3.62-.53.58,1.06,1.18,2.61-.2,3.18s-2.65-.47-3.5-.82l.45,1Zm4.05-2.36c-.75-1.32-.26-1.28-.21-2.86.64.15,1.58.51,2.09.58.73.09,1.49-.25,2,0,.17.14.06.36.25.7,1.21,2.09-1,1.66-2.46,1.75l.85.3c2.19.57.45-.32,2.13-.12.35,1.38-.49,1.65-1,.84-.15.69.25.44-.61.6-2.93.54-3.85-2-1.23-3.24-.92.29-1.23.86-1.82,1.45Zm-.86-3.29-.08.13-.08.12-.22.52a3.12,3.12,0,0,0-4-.56l.4.15c-1,.83-.32,2,0,2.84-.49-.24-.59-.51-.75-1A3.19,3.19,0,0,0,6.9,7l-.66.12c-.47-.08-1.78-2.78.3-4.48s3.6.27,4.73.42C8.62.23,4.72,1.7,5.24,6.13,4,5.64,1.71,3.38,0,5.28a1.56,1.56,0,0,0,.55,1c1,1.12-.88,0,1.55,2.79,1.69,2,3.69,5,6.15,6a41.13,41.13,0,0,0,4.68,1.38c1.68.45,3.29,1.17,4.95.62,3.54-1.19,5.61-3.22,8-4.1,3.1-1.13,4.58,0,5.41-.43-2.43-.57-3.5-.92-5.95.2-1,.48-3.69,2.32-4.37,2.4a7.9,7.9,0,0,1-2.59,1.35,3.62,3.62,0,0,1-3.34.13C13,16,11,15.53,8.89,14.89c-2.9-.9-4.78-4.38-7-6.75-1.61-1.68.54-2,2.69-.21,1.12.91.69,1.43,2.5,2.13-.57,1.07-1.25,2.41,1.21,3a28.77,28.77,0,0,0,5,.38c.09.59,0,.57.31,1l.21-1.23L16,12.79c.37.66.6,1.26,1.08,1.5l-.58-1.53c2.14-.32,4.8.28,5.39-.25a26.52,26.52,0,0,1-3.39-.2c-3.64-.11-3.26.88-9.28.51,1.1-.18,1.87-.92,1.13-2-.58-.87-1.78-.4-2.81-.46a15.43,15.43,0,0,1,3.05-1c1.41-.22,2.61.07,3.92-.14s2.29-.77,3.13-.89c.54-.09.92.22,1.64.22A11.48,11.48,0,0,0,21,8.3l.91-.25c2.4-.26,4.05-.77,4-3.62,1-.37,2.39.13,3.19-.22a7,7,0,0,0-3.22-.35L25.4,2.1c-.32-.16-.47-.56-1.09-1A6.41,6.41,0,0,1,25.46,5.5l-.27-1.08c-.38,1.09.16,2-1,2.69-.55.37-2.32,1-2.8.43l-.37-.45C21,7,21,7,21,7c-.25.62.21.43-.77.31a1.57,1.57,0,0,1,.43.56,2.82,2.82,0,0,1-2.74-.26c-.94-.9.36.05-.49-.88-.5-.54-.41-.38-.61-1.28-.64-.26-.41-1.51-.11-2.14a2.5,2.5,0,0,1,1.43-1.36c-.05-.78-.13-.9.4-1.34l.78-.14c.06.23,0,.26.05.35.07.29,0,.09.1.27a4.31,4.31,0,0,1,2-.82c1.36-.12,1.65.58,2.16.21C22.4-.51,20,.35,19.81.31c-.48-.09-.32-.4-1.24-.13C17.24.57,18.15,1.26,17.28,2s-.67.92-1.21,1.91c-.39.36-2.71.26-3.59,0s-.18-.14-.91-.59a3.75,3.75,0,0,1-.12,2,3.51,3.51,0,0,1-.17-1.81Z"/><path class="cls-1" d="M21.24,6.71l0-.78-.38.7c-.81,0-.94-.31-1.3.36A3.15,3.15,0,0,0,21.24,6.71Z"/><path class="cls-1" d="M20.35,4a1.81,1.81,0,0,0,0,.77c.19.65,0,.16.31.39.32-.29.11,0,.15-.54l-.11,0-.09-.94-.28.3Z"/><path class="cls-1" d="M18.63,6.68c.45.4.19.3.73.53-.06-.58.2-.43-.26-.66a.32.32,0,0,0-.47.13Z"/><path class="cls-1" d="M21.84,4.08c.38.29-.44.4.5.37C22.13,3.93,22.39,4.25,21.84,4.08Z"/><path class="cls-1" d="M22.39,7.43c.25-.46.18-.12,0-.46C22.25,7.1,22.09,7.11,22.39,7.43Z"/><path class="cls-1" d="M20.42,6.09c.27.4-.24.08.37.38C20.54,6,20.91,6.22,20.42,6.09Z"/></g></g></g></svg>