<svg xmlns="http://www.w3.org/2000/svg" viewBox="0 0 125.92 80.46"><defs><style>.cls-1{fill:#080808;}.cls-1,.cls-2,.cls-3,.cls-4{fill-rule:evenodd;}.cls-2{fill:#fefefe;}.cls-3{fill:#cecece;}.cls-4{fill:#aeaeae;}</style></defs><g id="Слой_2" data-name="Слой 2"><g id="Слой_1-2" data-name="Слой 1"><g id="_3015110882208" data-name=" 3015110882208"><path class="cls-1" d="M62,77.73c1.57-1.59,3.62.35,2,1.72-.73-.09-.64-.07-1.17-.55C62,78.21,62.38,78.48,62,77.73Zm20.52-6.46a3.79,3.79,0,0,1,.89,2.09A1.28,1.28,0,0,1,82.25,72C82.21,71.12,82.36,71.43,82.49,71.27Zm-7.72-3.62a2.51,2.51,0,0,1,1.32,2.74C73.72,71.51,72.42,69.46,74.77,67.65ZM58.62,64.74a2.88,2.88,0,0,0,2,.66,1.36,1.36,0,0,0,.89-.55l.46-.84s.05-.11.08-.16c.37,4.85-3.79,4.51-3.4.89Zm11.69-2.08c1.47-.15,2.24,1.21,1.84,2.61-.64.34-2.33.75-2.6,0A2.71,2.71,0,0,1,70.31,62.66Zm14.63,1.6a1.54,1.54,0,0,1,1.09.43c.53.44.5.57.38,1.31-1-.21-2-.66-1.47-1.74Zm-26.07-.11c-.16-2,2.11-3.78,2.56-1.77C61.94,64.69,60.63,65.82,58.87,64.15Zm-3.37-1a4.32,4.32,0,0,1,1.73,2.52A9.36,9.36,0,0,1,55.5,63.18Zm16.2-.77c2,.26,2.59,5.11-.55,6.21-1.55.55-1.46-.33-1.58-2.53,3.53.16,4.09-1.18,2.13-3.68Zm-5.52-2.3c2.59-.52,2,2.08,1.09,2.64C64.93,64.17,65.6,61,66.18,60.11Zm2.15,2.36c-.08,1.18-.3,6-1.11,6.56-1.2.89-2.92-1.54-4.16-1.83.64-2.37.89-5.21,2.24-6.51,0,.25-1,3.62,1.74,2.64l.76-.45.12-.1C68.38,62.43,67.82,62.78,68.33,62.47Zm-9.09-.81c.15-.26.18-.43.44-.62.8-.59.79.05.81.06Zm19.11-2.61c.94.4.94.5,1.44,1.43A4,4,0,0,1,78.35,59.05Zm-9-.77c1.38-.25,3.46,1.83,4.32,2C72.3,60.14,69.87,59.22,69.34,58.28ZM82.55,56c-.75.14-2.28-.62-1.53-1.32C81.53,54.2,82.66,54.83,82.55,56ZM71,54.46a7.48,7.48,0,0,1,3.87,2.09l.22.19a1.44,1.44,0,0,1,.3.36l-3.56-1.63c-.65-.47-.57-.72-.83-1Zm-9-4.62c.72.66,1.61,4.31-.33,3.81C60.39,53.33,60.5,50.22,62,49.84Zm7.81.63a5,5,0,0,1,2.31,1.34A4.11,4.11,0,0,1,69.79,50.47ZM45.47,43.1c1.11.33,3.36,1.61,6,2.41a20.23,20.23,0,0,0,7.74.68c-.15,1.54-.28,2.22-3,2.36a8.24,8.24,0,0,1-4.34-1.09,39.74,39.74,0,0,1-6.44-4.36Zm43.69-.82c.74.59,2.32,1.89,1.63,3.46C90.23,45.51,89.36,42.94,89.16,42.28ZM77.38,47.05c1.22.79,4.73-2,5.48.73a11,11,0,0,1-.07,3.29,35.29,35.29,0,0,0,0,3.57,78.56,78.56,0,0,0-9.18-6.85c-1.24-.62-2.63-1-3.74-1.74.3-.72.77-.83.36-1.64-2,.11-.18,1.25-1.88,2.1-1.1.55-2.27.79-2.62,1.94s.1,2.37-.65,3.86A2.85,2.85,0,0,1,62.45,54c1.6-.83.65-4.15-.47-4.67-1.09.26-1.22,1.09-1.71,2a10.73,10.73,0,0,1-.9-3.17c2.06-.6,5.6-3.32,7.11-4.48C67.57,42.83,68.8,42,70,41.24A29.71,29.71,0,0,1,73.62,39c1.27-.61,8.25-2,8.74,1.4A7.17,7.17,0,0,1,81,44.83c-1.22,1.7-1.48,1.19-2.79,1.55-.82.23-.65.14-.86.67Zm-17.93.57.3-1.45A12.1,12.1,0,0,0,63.26,45c1.68-1,2.91-3.33,5.29-4.54a14.92,14.92,0,0,1,3.65-1.22c-3.76,2.17-9.92,7.45-12.75,8.41Zm22.72-8.84a18.26,18.26,0,0,1,5.64,2.49c1.38,1.06,1.44,3.93,3,5.17a21.85,21.85,0,0,1-2.74,5.83c-.6,1-2.65,4.59-3.61,4.9-1.37-1.12-1.41-4.26-1.19-6.36.32-3.1.56-4.2-2.55-4.74.82-1.34,3.4-4.76,1.45-7.29ZM59.75,45.63a5.68,5.68,0,0,1,2.57-1.79c3.75-1.82,4.4-4.51,8.49-4.78C65.61,39.9,65.22,45.06,59.75,45.63ZM81.2,35.43c.59.54.24.71,1.35,1.46,1.68,1.14,4,1.78,4.79,3.47-4.4-1.77-4.9-2.82-10.92-2.52a8.51,8.51,0,0,1,2.49-1.23,9.16,9.16,0,0,0,2.29-1.18Zm-49.7-1c-.82-.58-.77-.36-1.32-1.09A16.11,16.11,0,0,1,33.1,35a12.42,12.42,0,0,1,2.59,1.9Zm51.07-.7c.4-1,4.7-6.41,5.69-7.64.61-.77,5.13-6.57,6-7.21a19.94,19.94,0,0,1-1.41,2L84.21,32.07c-.81.89-.7,1.23-1.64,1.66Zm-63.37-7c-2.31-.67-10.79-5-11.53-8.83C8.8,18.31,17.28,25.6,19.2,26.71Zm82.45-16.38a17.59,17.59,0,0,1,2.16-2.93c1.6-2,5.37-6.73,7.34-7,0,1.51-3,4.29-4.22,5.36ZM0,36.8v.46c7,1.62,13.15,4.56,19,7.51s11.86,6,17.57,9.19c7.87,4.35,8.09,8.46,13.21,13.55,2.14,2.12,3.1,1.65,7.2,6.18,1.12,1.24,1.9,2.45,3,3.65s1,.14,2,1.36L63.25,80l.09.1c1.17,1.32,5.27-.67,1.07-6.35-1.72-2.31-4.18-3.57-5.53-6a6,6,0,0,0,3.69,0,4.63,4.63,0,0,0,2.29,1.64,7.27,7.27,0,0,0,3.6.3c6.32-.83,3.35-1.41,5.65-2.12-1.27,1.55-1.72,3.32.46,3.59,3,.38,2.06-2.06,1.19-3.36,1.14.7,2.73,3.13,3.83,4.36,1.58,1.76,2.07,2.93,5.25,1.9.83-2,0-2.16-.56-4a32.74,32.74,0,0,1-.93-4.12,2.28,2.28,0,0,0,3.32.94c1.63-1.15-1-3.51-2.88-6a17.21,17.21,0,0,0-2.37-2.91l.47-.21c.86-.32.91,0,1.32-1.43.45.59.42.89.93,1.36,1.9-.1,4.17-4.89,5-6.28A23.82,23.82,0,0,0,91,47.5c.8-2.32-.13-1.09,1.7-4,2-3.11,5.59-6,8.11-8.8.51-.56.76-.91,1.32-1.44s.8-1,1.39-1.56c2-2.06,5.18-6.25,7.87-9,.94-1,1.69-2.08,2.7-3L125.92,8.87V8.3L120,13.37a9.86,9.86,0,0,1-1.09,1.07L99.7,35.17a85.57,85.57,0,0,0-6.43,6.76c-.55.72-1.27,2-1.84,2.66-1-2.52-1.89-2.12-3.13-3.81a9.82,9.82,0,0,0-3.79-3.31c-4.5-2.31-2.19-2.29,1.11-6.35,3.69-4.54,7-9.15,10.56-13.83a53,53,0,0,1,5.72-6.48L106.18,7c.77-.61,1.45-1.32,2.18-1.95a17.59,17.59,0,0,0,2-2.12,4.4,4.4,0,0,0,1.19-1.81l-.15-1c-1.92-1.61-11.86,12-12.09,12.25-1.48,1.88-2.88,3-4.3,4.74l-1.46,1.69c-1.84,2.29-3.71,4.45-5.54,6.85-2.32,3-4.55,5.42-6.39,8.77-.37.68-1.1.9-1.86,1.28-5.51,2.69-4.69,2-9.49,2.91-4.27.83-4.38,2.85-7.61,4.58-.71.38-1.49.7-2.11,1-1.24.68-.78.73-1.54,1.49-6.68.55-10.87-1.91-15.65-4.31-1.85-.93-9-6.17-12.05-8S24.75,30,21.82,28a129,129,0,0,1-11.39-8.68c-4.29-3.7-3.69-.58-1.58,1.59,3.44,3.55,8.57,5.49,13,7.83a33.39,33.39,0,0,1,3.25,2.06L38,38.9A57,57,0,0,1,44.4,43a61.11,61.11,0,0,0,6.13,4.29c2.95,1.73,4.54,2.12,8.3,1.23,1.08,2.16,1.66,8.5,5.59,5.31,1.46-1.18,1.49-2.22,1.66-4.41.14-1.88,1.89-2.18,3.38-3a35.88,35.88,0,0,1,9.12,5.5c.91.71,2,1.34,2.79,2.13-.87.34-1.36.66-.74,1.7.41.68,1.32.66,2,1-.36.75-.92.64-1.76.23s-.76-.76-1.47-1.29a26.38,26.38,0,0,0-3.53-2c-1.14-.63-2.18-1.52-3.29-2.2a12.91,12.91,0,0,0-2.68-1.48c-1-.31-.73,0-.75,0l-.29.11c-.26,1.48,5.46,3.17,6.8,4l4.6,3.06c1.61,1.25,3.56,4.88,5.13,6.46-2,1.18-.84,2,.63,2.94-1.54.9-3-1.8-3.66-2.83-3.87-6.36-2.29-3.34-6.88-7.29-.86-.73-3.06-2.69-4.78-2.24-.48,2.54,4.78,2.52,7.52,5.4,2.34,2.46,4.14,4.09,5,8a14.7,14.7,0,0,1,.68,3.44c-.13,1.85,1.65,2.32.12,2.81L80.6,65.6c-1.71-2.77-9.49-8.15-11.62-7.82-.22,1.09.3,1.33,1.16,1.76,4.37,2.17,6.55,1.56,10,6.48,1,1.48,1.35,2.9,2.17,4.5-.25.51-.86.66-.45,2a2.39,2.39,0,0,0,1.24,1.35c-1.65.48-3.79-2.79-4.63-3.85a27,27,0,0,0-2-2.36,2.79,2.79,0,0,0-3.13-.44c.53-2.4.48-6.17-2.79-5.29-1.28.35-1.78,1.22-1.7,2.76a26.27,26.27,0,0,0,.56,4.15,3,3,0,0,1-1.56.35,28,28,0,0,0,.78-5.63c.21-2.12.61-4.12-2-4.11-2.77,0-3.18,4-3.68,6.13-.27,1.18-.34,1.7-1.48,1.94.66-1.22,1.13-1.53,1-3.55-.37-4.06-4.26-6.27-4.41,2l-.39-.5c-.36-.59-1.7-3.73-2.61-2.7-.47,1.05,2.17,3.7,2.67,4.19s.9,1.48,1.46,2.09L61.06,71c.66.65,1.14,1.08,1.79,1.75,1.31,1.35,4.87,6,1.88,7.13a2,2,0,0,0-2.3-3.25c-1,.31-.79.62-1.44.94-.7-.41-4.59-5.17-6-6.61-2.1-2.17-4.31-2.73-6.88-5.92l-4.05-5.39a26.62,26.62,0,0,0-8.95-7C26.15,48.08,9.65,38.28,0,36.8Z"/><path class="cls-2" d="M68.33,62.47c-.51.31,0,0-.41.31l-.12.1-.76.45c-2.69,1-1.76-2.39-1.74-2.64C64,62,63.7,64.83,63.06,67.2c1.24.29,3,2.72,4.16,1.83C68,68.44,68.25,63.65,68.33,62.47Z"/><path class="cls-2" d="M45.47,43.1a39.74,39.74,0,0,0,6.44,4.36,8.24,8.24,0,0,0,4.34,1.09c2.71-.14,2.84-.82,3-2.36a20.23,20.23,0,0,1-7.74-.68c-2.67-.8-4.92-2.08-6-2.41Z"/><path class="cls-2" d="M101.65,10.33l5.28-4.53c1.23-1.07,4.23-3.85,4.22-5.36-2,.23-5.74,5-7.34,7A17.59,17.59,0,0,0,101.65,10.33Z"/><path class="cls-2" d="M19.2,26.71c-1.92-1.11-10.4-8.4-11.53-8.83C8.41,21.71,16.89,26,19.2,26.71Z"/><path class="cls-2" d="M81.2,35.43a9.16,9.16,0,0,1-2.29,1.18,8.51,8.51,0,0,0-2.49,1.23c6-.3,6.52.75,10.92,2.52-.8-1.69-3.11-2.33-4.79-3.47-1.11-.75-.76-.92-1.35-1.46Z"/><path class="cls-2" d="M59.45,47.62c2.83-1,9-6.24,12.75-8.41a14.92,14.92,0,0,0-3.65,1.22C66.17,41.64,64.94,44,63.26,45a12.1,12.1,0,0,1-3.51,1.2l-.3,1.45Z"/><path class="cls-2" d="M71.7,62.41c2,2.5,1.4,3.84-2.13,3.68.12,2.2,0,3.08,1.58,2.53,3.14-1.1,2.58-6,.55-6.21Z"/><path class="cls-2" d="M82.57,33.73c.94-.43.83-.77,1.64-1.66l8.66-11.21a19.94,19.94,0,0,0,1.41-2c-.89.64-5.41,6.44-6,7.21-1,1.23-5.29,6.6-5.69,7.64Z"/><path class="cls-2" d="M58.87,64.15c1.76,1.67,3.07.54,2.56-1.77C61,60.37,58.71,62.18,58.87,64.15Z"/><path class="cls-2" d="M70.31,62.66a2.71,2.71,0,0,0-.76,2.61c.27.75,2,.34,2.6,0C72.55,63.87,71.78,62.51,70.31,62.66Z"/><path class="cls-2" d="M59.75,45.63c5.47-.57,5.86-5.73,11.06-6.57-4.09.27-4.74,3-8.49,4.78A5.68,5.68,0,0,0,59.75,45.63Z"/><path class="cls-2" d="M58.62,64.74c-.39,3.62,3.77,4,3.4-.89,0,0-.06.12-.08.16l-.46.84a1.36,1.36,0,0,1-.89.55,2.88,2.88,0,0,1-2-.66Z"/><path class="cls-2" d="M62,49.84c-1.48.38-1.59,3.49-.33,3.81C63.59,54.15,62.7,50.51,62,49.84Z"/><path class="cls-2" d="M66.18,60.11c-.58.93-1.25,4.06,1.09,2.64C68.2,62.19,68.77,59.59,66.18,60.11Z"/><path class="cls-2" d="M74.77,67.65c-2.35,1.81-1,3.86,1.32,2.74A2.51,2.51,0,0,0,74.77,67.65Z"/><path class="cls-2" d="M62.78,78.9c.53.48.44.46,1.17.55,1.64-1.37-.41-3.31-2-1.72C62.38,78.48,62,78.21,62.78,78.9Z"/><path class="cls-2" d="M71,54.46c.26.29.18.54.83,1L75.4,57.1a1.44,1.44,0,0,0-.3-.36l-.22-.19A7.48,7.48,0,0,0,71,54.46Z"/><path class="cls-2" d="M89.16,42.28c.2.66,1.07,3.23,1.63,3.46C91.48,44.17,89.9,42.87,89.16,42.28Z"/><path class="cls-2" d="M69.34,58.28c.53.94,3,1.86,4.32,2C72.8,60.11,70.72,58,69.34,58.28Z"/><path class="cls-2" d="M86.41,66c.12-.74.15-.87-.38-1.31a1.54,1.54,0,0,0-1.09-.43c-.48,1.08.42,1.53,1.47,1.74Z"/><path class="cls-3" d="M35.69,36.88A12.42,12.42,0,0,0,33.1,35a16.11,16.11,0,0,0-2.92-1.64c.55.73.5.51,1.32,1.09Z"/><path class="cls-2" d="M81,54.68c-.75.69.78,1.45,1.53,1.31C82.66,54.83,81.53,54.2,81,54.68Z"/><path class="cls-2" d="M82.25,72a1.28,1.28,0,0,0,1.13,1.36,3.79,3.79,0,0,0-.89-2.09C82.36,71.43,82.21,71.12,82.25,72Z"/><path class="cls-2" d="M55.5,63.18a9.36,9.36,0,0,0,1.73,2.52A4.32,4.32,0,0,0,55.5,63.18Z"/><path class="cls-3" d="M69.79,50.47a4.11,4.11,0,0,0,2.31,1.34A5,5,0,0,0,69.79,50.47Z"/><path class="cls-4" d="M78.35,59.05a4,4,0,0,0,1.44,1.43C79.29,59.55,79.29,59.45,78.35,59.05Z"/><path class="cls-3" d="M60.49,61.1s0-.65-.81-.06c-.26.19-.29.36-.44.62Z"/></g></g></g></svg>