<svg xmlns="http://www.w3.org/2000/svg" viewBox="0 0 86.88 47.88"><defs><style>.cls-1{fill:#0c0a02;}.cls-1,.cls-2{fill-rule:evenodd;}.cls-2{fill:#645d52;}</style></defs><g id="Слой_2" data-name="Слой 2"><g id="Слой_1-2" data-name="Слой 1"><g id="_3015110880960" data-name=" 3015110880960"><path class="cls-1" d="M54.54,15.39a4.79,4.79,0,0,1,.6-2.77C55.52,11.86,56,11.1,57,11a13.22,13.22,0,0,1,5.66,1.41c.66.35,1,1.36,1.27,2.14.95,2.29,3.84,8.25,3.55,10.4-.08.6-.32.82-1,.85-1.54.07-1.64-2.18-3.5-5.21-.6-1-2.12-3.39-3-3.8S54.67,15.8,54.54,15.39Zm-15-4.25c1.28-.14,1.82-.06,2.5.72a14.36,14.36,0,0,1,1.3,1.92,6.8,6.8,0,0,1-.46,2.57c-.41,1.65-.43,1.14-1.3,2.11-.4.44-1.09,1.76-1.72.92-.13-.16-1.22-5.38-.88-6.26a8,8,0,0,0,.56-2Zm19.13-.53c-1-.14-1.06-.38-1.18-1.45-.68-6.27,5.72-4.07,9.14-.31,1.53,1.67,2.05,4.66,2.77,7,.32,1,1.27,3.14.34,3.76-1.44,1-2.08-.93-2.41-1.79-.7.27-.13.25-.55.89-1-2.65-.94-1.09-1.68-2.81-1.87-4.31-1-3.47-3.95-4.58a7.08,7.08,0,0,1-1.61-.62c-.66-.52-.25-.78-1.11-.92-.15.45,0,.39.24.86ZM18.53,8.77A2,2,0,0,1,19,7.09a31.45,31.45,0,0,1,4.35-2.71c-.35.84-1.12,1.25-2.3,2.37ZM3.36,25.15c0-2.47,0-1.83.92-3.78A27.29,27.29,0,0,0,6.79,14.3c.61-3.22.31-2,2.39-4.61a27.72,27.72,0,0,0,4-7.82c.6-1.56,1.31-1.91,2.46-.52,0,.88-.56,2.58-.5,2.91.94-.32.59-1.13,1.07-1.93.94,4.61-1.37,5.56-2.29,9.19-.23.91.11.55-.53,1-1.37,1-5.11,3.15-4.83,5.09.72-.26.67-1.11,1.93-2.36a19.94,19.94,0,0,1,5-3.33c1.46-.71,4.46-3.44,5.75-4.67a13.84,13.84,0,0,1,1.06-1c1.19-1,1.94-2.17,3.22-2.93,1-.57.12-.64.61-1.08.71-.39,1.63.06,2.31.49a7.48,7.48,0,0,1,1.64,1.68,13.24,13.24,0,0,1-2.39,4.86c-.52.77-1.81,4.38-1.43,5.41.66-.22.58-1.19.74-2a11.18,11.18,0,0,1,2.66-5.47c2.63.76,2,3.22,1.39,5.78-.3,1.35-1.44,6.47-.37,7.26.46-.6.06-2.64.11-3.53a30,30,0,0,1,.6-3.09c2.3,1.62,1.86,3,1.49,6.17-.13,1.11-.74,6.9-.33,7.49.42-.28.26,0,.34-.79l.19-2.91c5.28.24,6.09-1.52,8.46-4.33a9.71,9.71,0,0,0,1.52-1.88c.74-1.9.79-6.16,3.38-6.24a9.15,9.15,0,0,0-.54,1.05,2.63,2.63,0,0,0-.15.77c0,.51,0,.21.1.47,0,0,.06.17.07.15s0,.1.07.14c.42-.41.21-.94.49-1.65A5.78,5.78,0,0,1,47.2,11c1.9.12,1.09,1.27.67,2.72-1.23,4.2-.3,7.29-3,9.78a36.8,36.8,0,0,1-4.92,3.77,69.56,69.56,0,0,0-6.39,4.36l-9.23,8A75,75,0,0,0,18,46.12c-.44.53-.68.61-.79,1.35.71-.19.56-.23.91-.72l2.11-2.5A161.88,161.88,0,0,1,36.44,30.09c2.45-1.6,4.85-3.15,7.14-4.91,1.25.43,4.85,4.65,5.88,5.72a19.84,19.84,0,0,1,1.45,1.45l2.64,3.16c.47.59.81,1.07,1.26,1.64.85,1.06,1.6,2.37,2.44,3.36,1.28,1.52,8.84,6.9,10.22,7.16-.18-.67-.16-.54-.76-.92l-2.57-1.69c-1.21-.81-2.32-1.61-3.43-2.37-4.29-2.95-4.81-5.49-8.11-9.13l-8.42-8.75c.64-.95,1.94-1.61,2.56-2.68l.43-1.28c1.06.59,5.79,4.59,6.28,4.48l-.15-.5c-.24-.26-.22-.17-.49-.38a9.5,9.5,0,0,0-1-.72l.65-.46c-1.12-4.46-3.54-9.56,6.93-6.14,2.24.73,6.69,9.58,6.5,10.94a2.41,2.41,0,0,1-1.6.35,3.87,3.87,0,0,0-1.46-1.54l-.17.67c-2-.84-3.9-4.09-5.06-6.14-3.17.68-3.35-1.08-4.38-.37A6,6,0,0,0,55.1,22a3.26,3.26,0,0,0,2.2,0c-.19,1-3.08,1-3.62,1.47.85.76,3.21-.62,4.09-.85a26,26,0,0,0,2.09,3.24A5,5,0,0,1,58,28.17a8.84,8.84,0,0,1-1.31.74c-.82.37-.94.2-1.15.89,2.37,0,4.26-2.95,4.73-3.42A6.16,6.16,0,0,0,63,28.21c1,.41,1.65,1.05,2.7.53s.76-1.51.4-2.37c3.86-.34,1-4.62.48-7,1.25,1.34,1.82,1.34,3.74.46.33.79.5,1,1.43,1,0,1.44,0,4,1.1,4.49.28-.42-.26-1.11-.42-1.88-.51-2.54,0-5.25.12-7.81s-.18-2.64-.78-4.73c-.68-2.38-1-6.9,1.66-8.22,1.79-.89,2.29,1,2.46,2.37.61,4.82,0,4.09,2,8.58.71,1.55.72,5.29,2,8.8,1,2.72,2.64,4.64,3.33,7.43,1.17,4.66,1.06,11.68,1.83,14.26.22.75,1,3.33,1.82,3.26.09-.48-1.17-2.64-1.44-3.66-.72-2.74-.46-9-1.66-13.72-.72-2.85-2.11-4.55-3.16-7.1-1.67-4.06-1.06-5.82-1.84-8.41-.43-1.44-1.17-2.2-1.62-3.69-.63-2.09-.28-7.24-1.83-8.44-1.28-1-2.73.2-3.3,1-1.65,2.17-1.37,5.66-.51,8.37a8.22,8.22,0,0,1,.53,4.3c-.06,1.05.09,3.86-.71,4.38-.85-.55-.65-1.86-1.13-3.41-.36-1.16-.69-2.3-1-3.41-1.08-3.42-.9-4-3.18-5.88-4.47-3.64-10.19-5-8.72,3-1,0-1-.1-1.58.55A6.62,6.62,0,0,0,54,15.51a2.71,2.71,0,0,0-3.12,2.78,20.52,20.52,0,0,0,1,4.83c-.86.13-.81.05-1.41-.42a23.67,23.67,0,0,0-3.3-2.43c.15-1.41.45-2.94.68-4.38.33-2.07,2.86-6.74-1.91-5.17-1.49.49-1.56,1.32-2.33,2.43-.85-.73-.93-2-2.46-2.46s-3,.23-3,1.61a43.91,43.91,0,0,0,.62,4.36c.23,1.52.17,2.77,1.27,3.52A6.36,6.36,0,0,1,33.12,23c.12-3.33,1.52-7.17-.65-9.12-.71-.64-1-.45-.79-1.59.7-3.23,1-3.77-1.8-5.66.14-.59.87-1.91.66-2.46a8.71,8.71,0,0,0-1.67-1.72c-1.93-1.35-2.55-1.06-4.37.37-4.3,3.37-7.17,3.33-6.25,6.4-1.32.82-2,2.09-4,2.69.65-3.28,4.11-6.34,2.05-10.38-1-1.95-2.7-2.23-3.61.06A41.14,41.14,0,0,1,10.8,6.35a26.07,26.07,0,0,1-2.81,4,4.7,4.7,0,0,1-.81.9c-1,1-.53,3.77-2.9,8.89-1.16,2.52-1.42,2.21-1.42,5.16A82.22,82.22,0,0,1,1,42.91c-.19.9-1.24,4.46-1,5,.58-.21.69-1.65.86-2.34A84.59,84.59,0,0,0,3.36,25.15Z"/><path class="cls-1" d="M67,31.78c-1.2-.78-2.66-2.18-3.5-2.37.13.7,2.43,2.27,3.12,2.74,2.12,1.45,5,1.37,7.22,4.39,1.56,2.14.81,3.52,1.62,4,.17-.31.25-.17,0-1.26-1.09-5.73-6.1-6-8.5-7.54Z"/><path class="cls-2" d="M33.48,25.32a.44.44,0,0,0,.25.49c.28-.53.2-.57.12-1.13C33.45,25.1,33.59,24.17,33.48,25.32Z"/></g></g></g></svg>