<svg xmlns="http://www.w3.org/2000/svg" viewBox="0 0 80.67 39.47"><defs><style>.cls-1{fill:#2b2a29;fill-rule:evenodd;}</style></defs><g id="Слой_2" data-name="Слой 2"><g id="Слой_1-2" data-name="Слой 1"><g id="_3015203853376" data-name=" 3015203853376"><path class="cls-1" d="M46.13,9.47A2.39,2.39,0,0,0,48.5,9.2a3.75,3.75,0,0,1-3.12,3C45.74,11.21,46.19,10.81,46.13,9.47Zm2.57.47c.34-1.76.56-1.71,1.76-1l.36.21.32.22c-.36.58-1.62.58-2.44.6Zm32,19.48v-.21l-2.41-2.83C76.55,24.12,74.67,22,73,19.71a88.15,88.15,0,0,1-5.78-8.86C66.6,9.71,66,8.57,65.33,7.47c-.34-.58-.66-1.07-1-1.67-.74-1.37-.86-2.34-2.53-2.8-.7-.19-1.44-.32-2.15-.51-1.38-.36-2.74-.77-4.13-1.18s-2.82-.7-4.25-1C48.13-.52,48,.52,45.43,2.5l-3,3a9.42,9.42,0,0,0-.59.78A12.75,12.75,0,0,0,40.25,10c-.28.85-1.63,3.1-.85,4,.27-.1.1,0,.32-.23a2.66,2.66,0,0,0,1.85.42c.67.78,2.27.3,2.71-.33a5.82,5.82,0,0,1,.8-1c.48-.44,1.34-.23,2.42-1.29,1.29-1.27,1-1,2.38-1.31a7.62,7.62,0,0,0,1.35-.58c.59,1,2.71,1.21,3.16,2.13,1.23,2.45,1.4,3-.14,5.07l-1,1c-3.06,2.42-5.18,2.35-8.8,3.18a8.67,8.67,0,0,0-1.92.73,4.81,4.81,0,0,0-.81.48l-.76.61c-.67.6-2,1.94-1.77,3.62.12.93.29,1.46,1.35,1.4,1.94-.1,2.18-.9,4.58-.83,2.87.08,4.56-.84,7-.93,3-.12,3.8.72,5.94,2a13.61,13.61,0,0,0,3.84,1.48c.83.19,1.55.18,2.32.33a4,4,0,0,1,2.19,1.73c.13.15.17.23.29.37l.33.39c.79.92,4.29,5.68,4.74,6a14.28,14.28,0,0,0-1.82-2.8c-.64-.85-1.25-1.77-2-2.6l-1-1.24a2.52,2.52,0,0,0-.27-.3l-.52-.6a2.56,2.56,0,0,1-.31-.34c-1-1.28-1.49-.87-3.35-1.24A18.53,18.53,0,0,1,59,28.11c-2.7-1.12-2.36-2.45-6.73-2.44-2.19,0-2.34.49-3.88.69a2.86,2.86,0,0,0-.94-2.46c.17.55,1.51,2.78,0,2.62a9.17,9.17,0,0,1-.63-2c0,.67.4,1.64,0,2.16a2.65,2.65,0,0,1-1-2.32c-.54.6,0,1.88.39,2.36-1,.27-3.45-.3-4.87-.06a2.31,2.31,0,0,0-1.3.52,10.9,10.9,0,0,1,3.46-.5c-.27.72-3.09.89-3.61.86,0-.11,0,0,0-.13s-.55-.17-.44-1.46A3.3,3.3,0,0,1,40.31,24a8.13,8.13,0,0,1,2.14-1.79c3.66-2.19,7.1-.73,11.45-4.4,1.41-1.2,2.51-4.09,3.29-5.73.22-.47.66-1.13.79-1.51a1.42,1.42,0,0,0-.49.46,2.42,2.42,0,0,1-.39.53c-.43-.91,0-2.13-.12-3.13,0,0,0,0,0,.06a2.91,2.91,0,0,0-.22,1.41c0,1.65.38,1.82-.25,2.83-.22.34-.43.64-.61,1-1.09-1.13-1.45-3.34-1.76-5.2-1.34-.09-1.86.62-3.24-.32A6.51,6.51,0,0,1,49,6.37s0,0,0,0l-.15-.15c.12.38.28.4.35.84-.11.66-2.23,1.73-3.29,1.76-.61,0-.94-.3-1.41-.4.4.61.69.44,1.26.73-.52,2-2.54,4.44-4.52,4.59-1.64.13-1.23-.78-1.07-1.59.4-2,.72-4,1.94-5.59l.71-.82C43.57,5,46,2.24,46.63,2c.39-.13,6.34.42,7,.52a48.16,48.16,0,0,1,7.44,1.64,2.67,2.67,0,0,1,1,.54l.63.81c-.12-.51-.43-1.25-.93-1.41l-1.84-.56c-3.42-1-9.44-2.15-12.77-1.93a4.82,4.82,0,0,1,.93-1A1.7,1.7,0,0,1,49.66.46c1.12.25,2.27.36,3.42.61a63.65,63.65,0,0,1,6.21,1.75c.8.25,2.52.44,3.05.88s4.81,8.46,6,10.05c.58.82,1,1.64,1.61,2.41l9.49,12.56c.2.24.76.85,1.28.7Z"/><path class="cls-1" d="M20,11.61c.51-.09,1-.65,1.24-.86,1.2-1,1.17-1.32,1.92-1.24a9.19,9.19,0,0,1-.69,3A6.14,6.14,0,0,1,21,14.67L20.2,13.2c-.72-1.29-.31-1.25-.2-1.59Zm0,0c-.2-.14.06-.73-.23-1.2-.43,2.92,1.11,5.19,2.67,7.38A9,9,0,0,0,24.68,20c3.33,2.32,5.83,1.47,6.6,2.32.12-.17.06-.21.07-.23a8.86,8.86,0,0,1,5.41,2.15l.44.44a1.56,1.56,0,0,1,.39.42,4.52,4.52,0,0,1,.94,3.22,4.81,4.81,0,0,0-1.35-1.53,2.36,2.36,0,0,0-2.36-.5c.37.3.49-.2,1.34.16a4.86,4.86,0,0,1,1,.73c.25.19,1.47,1.41,1.24,2.06-.21.28-.86-.17-1.07-.3-.37-.23-.66-.43-1-.67-.86-.57-1.83-1-1.58-1.73-.65.38-.22.51-1.28.33-.58-.1-1.16-.06-1.68-.15.06-.43.24-1.19-.13-1.52-.35.81.44,1.36-.65,1.52.15-.61.4-1.46,0-2-.08,1,.13,1.08-.22,2a7.31,7.31,0,0,1-1.75-.07,2.81,2.81,0,0,1,.76-1.88,2.67,2.67,0,0,0,.24-.32,1.5,1.5,0,0,0,.41-.71,2.42,2.42,0,0,0-1.24,1.33c-.38.83.08,1.48-1,1.63-1.52.2-3.38-.52-4.82-.07a16,16,0,0,0-3.52,1.72c-.29.17-.53.28-.83.45s-.52.31-.82.47c-4,2.07-4,.36-6.29,1.59l-1.14.79a4.5,4.5,0,0,0-.37.28,2,2,0,0,1-.33.32A19,19,0,0,0,7.84,34.6c-.2.26-.39.45-.58.71-.77,1-2.26,2.75-2.47,4.16C5,39.34,7,36.29,7.64,35.6l2-2.08c.2-.19.22-.26.41-.46a3.16,3.16,0,0,1,.45-.37,6.27,6.27,0,0,1,2.6-1.57c1-.24,2-.15,2.94-.43,3.85-1.15,5.79-4,9.5-3.9,1.05,0,2.08,0,3.14.08s2.19.18,3.25.18a8.38,8.38,0,0,1,2.82.46c1.59.8,3.62,3.21,3.95,1.28a4.89,4.89,0,0,0-2.27-5.14l-.52-.36c-3.17-2.17-8.79-1.22-11.78-4.08-.16-.15-.24-.31-.41-.47a8.51,8.51,0,0,1-1.53-1.84c-1.13-1.63-1.45-1.62,0-3a4.54,4.54,0,0,0,1.09-2.31c.25-1.27-.52-1.83.87-2.4a5.79,5.79,0,0,0,1.15-.54L26.76,7.6c.61-.48,1.13,0,1.73.29,2,1,1.7.35,2.74.65.52.16.72,1.7,1.09,2.26l1.06,1.44c.17.21.26.39.53.49l-.3-.52a3.53,3.53,0,0,0,.66.52,4,4,0,0,0,3.12.24c-.2.56-.72.75-1.44.71a3.48,3.48,0,0,1-1.69-.6,1.7,1.7,0,0,0,.85.73,1.85,1.85,0,0,0,1.31.25c1.17-.24.87-1.09,1.6-1.45,0-1.49-1-1.94-1.4-3.26s-.33-2.62-1.16-3.6a9.24,9.24,0,0,0-2.71-2c-1-.57-2.21-1.07-3.05-1.7S28,.37,26.61.36c-2.84,0-8.06,2.42-10.94,3.3-1.19.36-2.73.57-3.25,1.5S10,10.73,9.51,11.74a47.86,47.86,0,0,1-3.54,6c-.62,1-1.19,2-1.83,2.92a16.19,16.19,0,0,1-2,2.73C1.73,23.66,0,25.32,0,26c.32-.14.11-.07.37-.29a2.29,2.29,0,0,0,.36-.29c.38-.41,1-.94,1.26-1.3L3.7,21.93a58.78,58.78,0,0,0,6.93-11.25,30.12,30.12,0,0,1,2-4.55,1.33,1.33,0,0,1,.27-.38l.33-.31c1-.92,4.59-1.63,6-1.9,2.18-.41,6.86-1.71,8.65-1.68,1.23,0,2.56,1,3.6,1.58a25.63,25.63,0,0,1,3.19,2c2.15,1.61,1.1,3.22,2.27,5.44.2.4,1,1.34.54,1.68-1.1.84-3,0-3.77-.85a11.33,11.33,0,0,1-1.09-1.48,18.51,18.51,0,0,1-.91-1.71c.23-.19.45-.18.72-.45-1.16,0-1.19.4-2.79-.1-.82-.26-1.55-.64-2.31-.88a4.85,4.85,0,0,0,.88-1.91L27.62,6a6.72,6.72,0,0,1-1.93,2c-1.7,1.13-2,.92-4.3.95a1.24,1.24,0,0,0,.64.28,8.16,8.16,0,0,1-1.75,2l-.28.29Z"/></g></g></g></svg>