<svg xmlns="http://www.w3.org/2000/svg" viewBox="0 0 123.33 39.11"><defs><style>.cls-1{fill:#2b2a29;}.cls-1,.cls-2,.cls-3{fill-rule:evenodd;}.cls-2{fill:#fff;}.cls-3{fill:#4c4a4b;}</style></defs><g id="Слой_2" data-name="Слой 2"><g id="Слой_1-2" data-name="Слой 1"><g id="_3015254940576" data-name=" 3015254940576"><path class="cls-1" d="M88.82,30.18c.58.49,1.22.8,1.43,1.79a2.19,2.19,0,0,0-1.31.18,2.17,2.17,0,0,1,1.3,3.93c-1.18,1-1.58-.07-2-.89-.69-1.23-.37-1.71-.62-3.11-.38-2.06-.31-1.14.2-3,.26-.94.31-2.23,1.5-2.14,1.58.12,2.31,2.65,1.08,3.11C90,30.21,89.34,30,88.82,30.18Zm-8.14.6a1.24,1.24,0,0,0-.61-.44c.35,1.46.09,1.43-.43,2.51a6.7,6.7,0,0,1,1,4.09c-.15,2-2,2.11-2.34.52-.15-.69-.18-1.4-.36-2.09s-.46-1.24-.63-1.94c-.37-1.66.15-3,.15-4.75a8.08,8.08,0,0,0,3.06-.43,6.56,6.56,0,0,0,.21,2.53Zm2.57-1.53a1.53,1.53,0,0,0,1.32.12,8.35,8.35,0,0,1-.27,2.57,3.27,3.27,0,0,1-1,1.61l0,.05a6,6,0,0,1,.47,2.77c-.11.91-.53,1.8-1.58,1.62s-.67-1.21-.7-2.34a25.91,25.91,0,0,1-.24-3.09c.58-2.62.14-1.28.34-3a4,4,0,0,1,1-2.32A13.89,13.89,0,0,1,85.88,24c.37.54.52.91,0,1.48-.7.75.85,3-2.63,3.73Zm2.84-5.32a6,6,0,0,1,4.38-1.54,1.29,1.29,0,0,0,.39.75l.6.42s.05.05.07.07a3.9,3.9,0,0,1-1.62-.4c.31.72,1,.86,1.86.9.2,1.8.88,2.07,2.14,2.5a2.2,2.2,0,0,1-1.33.79c-1.69.36-1.7-2.09-4.94,0,.14-1.64-.43-3-1.55-3.46ZM96.36,26a2.9,2.9,0,0,1-3-.8,6.91,6.91,0,0,1-1.66-2.58c2,1,2.25,1.42,5.07,1.36l.11.13,0,.06.4.46c.21.18.47.31.65.47A2,2,0,0,1,95.52,25c.23.83.45.56.84,1ZM77.7,14c.65-.62.8-1.12,1.7-1.49,2.09-.85,1.5.31,6.72-2.59,3.56-2,3.09-.95,4.47-1.7s1.72-1.93,4.09-2,3.08.9,5-.51c1.66-1.2,1.17-2,3.8-2.38,5.4-.87,3-.38,7-2.35.65-.31,1.51-.62,2.09-.94A10.21,10.21,0,0,0,110,.65c-.83.31-1.35.73-2.09,1-2.06.9-3.2.63-5.2,1.17a7.43,7.43,0,0,0-2.25,1,9.56,9.56,0,0,1-1.86,1.29c-2.79,1.17-4.39-.51-7.34,2.16-.79.72-1.22.58-2.38.76-2.49.37-4.93,3-9,3.68a18.23,18.23,0,0,0-2.34.79c-2.27.52-4.93,0-7.56.64-1.5.38-1.92,1.19-3.28,1.75-.73.3-1.42.27-2.1.5-.46.15-1.06.64-1.61.91-1,.47-2.89,1-2.48,2.4.33,1.13,1.82,1.81,3.32,1.84,1.91,0,2.53-.7,4-1a19.72,19.72,0,0,0,4.13-1c.63-.26,1.26.07,2,.19a30.32,30.32,0,0,0,3.54.15c.47,0,.49.2.75.44a8.7,8.7,0,0,0,1.29.81l.11.09a5.86,5.86,0,0,1-1.84,2.26,14.4,14.4,0,0,1-2.31,1.7c-2.34,1.46-.57,3.69,1.32,4.6.06,1.31-.37,2.47-.27,3.73a16.79,16.79,0,0,0,.84,3.22c.29,1.24.14,2.44,1,3a1.88,1.88,0,0,0,2.67-.58c1.11.45,1.6.65,2.56-.23,1.58-1.44.85-2.59,1-3.94a6.76,6.76,0,0,1,.53-1.16,8.25,8.25,0,0,0,.49-2.94A12.88,12.88,0,0,0,87.4,28a7,7,0,0,1-.56,2,4.55,4.55,0,0,0,.2,2.22,18.36,18.36,0,0,0,.3,2.39,11.53,11.53,0,0,0,.92,1.73c1.1,1.41,2.54.21,3.07-.92.64-1.36.28-3.18.13-4.69a3.38,3.38,0,0,0,1.13-2.5c.56-.05.91-.22,1.38-.27,2.37-.29,1.7-.75,3.33-1.5,1.46-.68,3.06-1.25,3.89-2.52.94-1.44,2.47-2.24,3.3-3.25a3.62,3.62,0,0,1,1.77-1.5c2.24-.94,4.93-.18,7.2.16a31.69,31.69,0,0,0,4.59.37,25.52,25.52,0,0,0,5.28-.5c-2.22-.26-4.52-.33-6.72-.78l-1-.22-.51-.12-.48-.19c1.61,0,4.77.09,5.86-.87a24.14,24.14,0,0,1-7.53-.36,15.45,15.45,0,0,1-3.74-1.53c-.49.3-.87.67-1.48,1a9.64,9.64,0,0,1-6.09,1,19.2,19.2,0,0,1-2.13,2.91A6.56,6.56,0,0,1,96,21.74a22.41,22.41,0,0,0,2.62-1.61c3-2.59,2.56-7.25.22-8.79.54,1.13,1.17,2,.68,3.7-.64,2.19-2.86,3.65-4.9,4.15-1.62.4-2.07-.21-3-1.3-.36,2.52-.86,1.74-2.82,2.47a11.2,11.2,0,0,0-4.41,3.39,21.91,21.91,0,0,1-3.81,4,4.25,4.25,0,0,1-4.09.24c-.76-.42-2.34-2.14-1-3.09A17.91,17.91,0,0,0,77,23.78c1.55-1.36,2.25-1.24,2.86-1.76s1.58-.77,2.1.06c-.06-.54-.37-.63-.63-1,3.54-1.15,3.53-3.9,4.48-4.84a4.9,4.9,0,0,0,1.3-1.7,4.79,4.79,0,0,1-1.35,1c-.91.42-1.09.2-2,.16a3.36,3.36,0,0,0,1,1.83,1.57,1.57,0,0,1-2.31,1A3.24,3.24,0,0,1,81,17.27a2.79,2.79,0,0,1-.17-.25l-.09-.14a.14.14,0,0,1,0-.07.13.13,0,0,0,0-.07,3.08,3.08,0,0,0,.49,1.37c.34.54.53.43.94.84a2.89,2.89,0,0,1-3-.49c-.81-.62-1.09-1.62-1.74-2.35a2.31,2.31,0,0,0,.27,1.54c-1.71,1-4.6-.62-5.72-1.09-.39.21-.57.59-1.12.9a8.64,8.64,0,0,1-3.12.74c-1,.15-2,1.68-4.35,1.43-.84-.09-2.67-.58-2.12-1.58L64.83,16c.47-.14,1.06-.17,1.56-.32,2.4-.7,2.28-2,5.45-2.17l.1.75c.31-.34.39-.61.9-.8.74-.28,3.37,0,4.67-.27l.19.84Z"/><path class="cls-1" d="M39.59,26.61c.26.26,2.64,3,1.4,3.53s-2.07-1.16-1.65-3C39.46,26.6,39.53,26.68,39.59,26.61Zm1.38-9a2.21,2.21,0,0,1,1.3.46c.52.34.68.35.78,1.14.18,1.36.72,1.22.66,3.18A14.71,14.71,0,0,0,42,21.05c-.54-.31-1.86-.68-2.14-.9-.3-.55-.09-.9-.44-1.37a2.47,2.47,0,0,1-.64-1.21,5.84,5.84,0,0,0,1,1c.91.62.68,0,1.23.87.65,1,1.39,1.14,2.32,1.93-.22-1.19-1-3.44-2.37-3.8ZM41.45,16c1.37.59,4.63,1.33,5.17,2.51s-.29.15,1.24,2.69c1,1.69.82,1.08,2,2a6.76,6.76,0,0,0,.32,1.61c.21.59.54.87.68,1.25s.21,1,.39,1.52.67,1.15,0,1.37c-1,.31-1.78-1.12-1.93-1.8-.37-1.75.78-1.29-.71-2.82a2.89,2.89,0,0,1-.79-1.12c-.19-.43-.36-.93-.58-1.33-.54-1-1.4-1-2.13-1.77-.28-.32-.53-.81-.82-1.09A12.68,12.68,0,0,1,41.45,16Zm.89-.84c1.89.06,3.15,1.09,5,1.08.62,0,.81-.16,1.32.18,1.94,1.29,1.2,3.65,2.77,5.08.75.69,1.28.28,1.66,1.51a3.58,3.58,0,0,1,0,1.35,6,6,0,0,0,.21,1.37c.41,1.46,1.28.22,1,2h.65c0,1.91-2.49.33-3-.76a4.16,4.16,0,0,0-.46-.92,4.17,4.17,0,0,1-1.23-3.13,3.82,3.82,0,0,1-2-1.83c-.46-.89-.56-2.44-.94-3-.67-1-2.51-1.37-3.79-2-1-.5-.89-.77-1.09-.95ZM31.56,6c1.06,0,2.17,0,3.24,0,2,0,6.06-1.34,7.27,1.73-.88-.12-1.78-.34-2.7-.47s-1.88-.13-2.8-.22c-1.2-.1-4.2-.49-5-1.06ZM0,12.87A17.48,17.48,0,0,0,2.56,12c3.24-1.31,3.79.39,7.91-3,.69-.56,1.18-1.32,1.8-1.79s1.66-.9,2.32-1.35a6.67,6.67,0,0,1,2.3-1.37c1.71-.43,1.76.09,3,.47a12.14,12.14,0,0,0,3.23-.08,24.91,24.91,0,0,1,3.35.21,29.25,29.25,0,0,1,5.71,1.5c3.07.87,6.35.69,9.43,1.38,1.09.24,1.87.49,2,1.56a4,4,0,0,0-1.27-.82c.43.47.63,1,1,1.45a7.53,7.53,0,0,1,5.25,1.05,1.88,1.88,0,0,0,1.83.36,23.19,23.19,0,0,1-2.63-1c-.44-.19-.87-.36-1.34-.53A6.34,6.34,0,0,1,45,9.44a12.55,12.55,0,0,1,4.44,1.28c.93.42,2.86.11,2.67,3,1.27-.86.89.1,1.74.65,2.53,1.63,2.38,2.26,3.89,4.88.39.66,1.64,1.76,1.68,1.94.34,1.59-3.75,1-4.31-.81-.34-1.07-.57-1.69-1.35-2.15a6.67,6.67,0,0,1-1.84-1.67c.5,1.71,2.46,1.89,2.89,3.66-.48-.38-.64-.88-1.26-1.34a26.5,26.5,0,0,1-2.89-2.16l-1.06-1.46c-.59-.27-2.62.61-5.79-1-1.74.88-2.3.36-5,.4a4,4,0,0,0,1-1.34c-.28.18-.59.47-.88.68a7.11,7.11,0,0,1-3.39,1.53c-.82.09-1.34-.71-2-1.16a6.89,6.89,0,0,0-2.27-1.06,20.22,20.22,0,0,1,2.48,2.57,11,11,0,0,0,2.45,2.72c3.8,2.85,3.33,1.66,5,2.66a2.62,2.62,0,0,1,1.21,1.44c1.25,0,1.63.18,2.31,1.34a7.61,7.61,0,0,1,1,2.84,1.87,1.87,0,0,1-2.21,1.65A4.28,4.28,0,0,1,41.23,27c-1-1.06-1.56-.52-3.36-2.21-2.18-2-4.41-2.06-5.36-4.11-1.44.14-2.16.48-3.29-.56s-.95-1.62-1.65-2.7a7.08,7.08,0,0,0,.87,3.1,5.35,5.35,0,0,1-2.9-2.74,4.57,4.57,0,0,0,1.55,3c-2.87,0-4.09-1.91-5.15-3.78a9.64,9.64,0,0,0-3.2-3.67c-.43-.28-1.15-.54-1.51-.78,2.15-.17,3,1.52,4,2.06C20,11.49,14.62,11.8,12,11a1.87,1.87,0,0,1-.69,1.86,9.77,9.77,0,0,1-1.65,1.08c1,.07,2.68-1.59,4.63-1.34a34,34,0,0,0-3.32,1.63A23.7,23.7,0,0,1,7.84,16c1.7,0,6.68-3.82,7.74-1.57l-1.09.92a3,3,0,0,0-.92,1.15c.82-.36,1.91-1.38,2.93-1.4a1.42,1.42,0,0,1-.24.83c.63-.26,1.47-1,2.29-.42-.36.26-1,.35-1.47.6a6.06,6.06,0,0,0-1.22.88,5.6,5.6,0,0,0-1.72,2.59,9.83,9.83,0,0,1,1.64-1.7c-1.37,2.65-1.7,5-4.56,5.14-.57,1.88-3.24,4.36-4.64,5.75l-.8.72c.94-.19,4.61-2.52,5-3.25-.14,1.57-2.91,5-3.94,6.06a22.13,22.13,0,0,0,5.46-5.46c2.5-3.57,4.78-7.43,9.09-9.35a12.15,12.15,0,0,1,1.37,2c2.45,3.46,5.33,2.41,7.21,2.6a13.41,13.41,0,0,1,7.2,2.85c.35.29.55.56.87.83s.66.46,1,.75c-.23,1.5-.34,2.85.64,3.66,1.37,1.12,2.19,0,2.48-1.44,1.1.28,1.69.87,3,.1a2.37,2.37,0,0,0,1.08-2.64c-.37-1.41-1.82-3-1.89-3.88-.06-.69-.06-1.13-.16-1.8,1,1.05,1.67.65,2.34,2.14a8.57,8.57,0,0,0,.76,1.58c.28.36,1,.93,1.06,1.26.41,1.2,0,2.67,1.09,3.61a2.08,2.08,0,0,0,1.7.47c1.05-.15.83-.53,1.1-1.19.58.35,2.12,1.34,2.91.52s-.5-2.32-.74-3.15c-.4-1.42,0-2-.67-3.51A10.54,10.54,0,0,1,52.58,19c1.31.51,1.89,2.32,3.21,3.09,1.14.68,4.57,1,4-1.06,0-.19-1-1.48-1.27-1.83-1.81-2.76-.42-1.63-3.32-4.62-.28-.3-.49-.51-.78-.8S53.29,12.64,53,12.2c-1.12-1.55-1.2-1.38-2.9-1.84A10.38,10.38,0,0,1,49,9.89c-2.21-.92-3-.75-4.85-1.3-.5-.14-1.3-1.07-1.67-1.49a4.83,4.83,0,0,0-1.62-1.55c-2.17-1-6,0-8.51-.11-4.18-.09-5.17-1.93-10.55-1.51s-3-1.51-9.78,2.24A32.32,32.32,0,0,0,8.46,9c-1.28.94-2.81,1.21-4.38,1.78A15.54,15.54,0,0,0,.85,12.23c-.3.21-.6.49-.85.64Z"/><path class="cls-2" d="M42.34,15.14c.2.18,0,.45,1.09.95,1.28.62,3.12,1,3.79,2,.38.57.48,2.12.94,3a3.82,3.82,0,0,0,2,1.83,4.17,4.17,0,0,0,1.23,3.13,4.16,4.16,0,0,1,.46.92c.54,1.09,3,2.67,3,.76H54.2c.31-1.8-.56-.56-1-2A6,6,0,0,1,53,24.34a3.58,3.58,0,0,0,0-1.35c-.38-1.23-.91-.82-1.66-1.51-1.57-1.43-.83-3.79-2.77-5.08-.51-.34-.7-.19-1.32-.18-1.82,0-3.08-1-5-1.08Z"/><path class="cls-2" d="M83.25,29.25c3.48-.75,1.93-3,2.63-3.73.52-.57.37-.94,0-1.48a13.89,13.89,0,0,0-3.43,3.18,4,4,0,0,0-1,2.32c-.2,1.74.24.4-.34,3a25.91,25.91,0,0,0,.24,3.09c0,1.13-.48,2.15.7,2.34s1.47-.71,1.58-1.62a6,6,0,0,0-.47-2.77l0-.05a3.27,3.27,0,0,0,1-1.61,8.35,8.35,0,0,0,.27-2.57,1.53,1.53,0,0,1-1.32-.12Z"/><path class="cls-2" d="M80.68,30.78a6.56,6.56,0,0,1-.21-2.53,8.08,8.08,0,0,1-3.06.43c0,1.72-.52,3.09-.15,4.75.17.7.46,1.28.63,1.94s.21,1.4.36,2.09c.36,1.59,2.19,1.46,2.34-.52a6.7,6.7,0,0,0-1-4.09c.52-1.08.78-1.05.43-2.51a1.24,1.24,0,0,1,.61.44Z"/><path class="cls-2" d="M88.82,30.18c.52-.19,1.16,0,1.54-.11,1.23-.46.5-3-1.08-3.11-1.19-.09-1.24,1.2-1.5,2.14-.51,1.84-.58.92-.2,3,.25,1.4-.07,1.88.62,3.11.46.82.86,1.91,2,.89a2.17,2.17,0,0,0-1.3-3.93A2.19,2.19,0,0,1,90.25,32C90,31,89.4,30.67,88.82,30.18Z"/><path class="cls-2" d="M41.45,16a12.68,12.68,0,0,0,2.8,3c.29.28.54.77.82,1.09.73.8,1.59.75,2.13,1.77.22.4.39.9.58,1.33a2.89,2.89,0,0,0,.79,1.12c1.49,1.53.34,1.07.71,2.82.15.68,1,2.11,1.93,1.8.7-.22.21-.9,0-1.37s-.23-1.12-.39-1.52-.47-.66-.68-1.25a6.76,6.76,0,0,1-.32-1.61c-1.17-.93-1-.32-2-2-1.53-2.54-.68-1.48-1.24-2.69S42.82,16.57,41.45,16Z"/><path class="cls-2" d="M86.09,23.93c1.12.46,1.69,1.82,1.55,3.46,3.24-2.06,3.25.39,4.94,0a2.2,2.2,0,0,0,1.33-.79c-1.26-.43-1.94-.7-2.14-2.5-.89,0-1.55-.18-1.86-.9a3.9,3.9,0,0,0,1.62.4s-.06-.09-.07-.07l-.6-.42a1.29,1.29,0,0,1-.39-.75,6,6,0,0,0-4.38,1.54Z"/><path class="cls-3" d="M100.7,11.21c.66,1.36,1.15,1.49,1.26,3.94.2-.05,1.78-1.11,2.24-1.37a27.89,27.89,0,0,1,8.36-2.87c-3.48-.16-9.68,2.65-10.41,1.56-.23-1.08,1-2,1.43-2.46a8.52,8.52,0,0,1,2.33-1.6,1.56,1.56,0,0,0-.89,0,5.48,5.48,0,0,1-1-.12,4.47,4.47,0,0,1-1.23,1.89,5,5,0,0,1-2.07,1.07Z"/><path class="cls-2" d="M31.56,6c.81.57,3.81,1,5,1.06.92.09,1.88.1,2.8.22s1.82.35,2.7.47C40.86,4.69,36.76,6,34.8,6c-1.07,0-2.18,0-3.24,0Z"/><path class="cls-2" d="M96.36,26c-.39-.47-.61-.2-.84-1a2,2,0,0,0,2.44.13c-.18-.16-.44-.29-.65-.47l-.4-.46,0-.06L96.75,24c-2.82.06-3.1-.35-5.07-1.36a6.91,6.91,0,0,0,1.66,2.58,2.9,2.9,0,0,0,3,.8Z"/><path class="cls-2" d="M79.09,25.74a1,1,0,0,0-.28-1.25.86.86,0,0,0-1.12-.3,6.34,6.34,0,0,0-1.92,1.37c-.41,1.23,2.15,2.91,3.32.18Z"/><path class="cls-2" d="M41.54,26.27c0,.07,1.52,1.47,1.56,1.49.65.36,1.52-.51,1.45-1.27,0-.59-1-1.33-1.55-1.54a1.14,1.14,0,0,0-1.46,1.32Z"/><path class="cls-2" d="M41,17.6c1.33.36,2.15,2.61,2.37,3.8-.93-.79-1.67-.89-2.32-1.93-.55-.87-.32-.25-1.23-.87a5.84,5.84,0,0,1-1-1,2.47,2.47,0,0,0,.64,1.21c.35.47.14.82.44,1.37.28.22,1.6.59,2.14.9a14.71,14.71,0,0,1,1.72,1.33c.06-2-.48-1.82-.66-3.18-.1-.79-.26-.8-.78-1.14A2.21,2.21,0,0,0,41,17.6Z"/><path class="cls-2" d="M39.59,26.61c-.06.07-.13,0-.25.52-.42,1.85.55,3.49,1.65,3S39.85,26.87,39.59,26.61Z"/><path class="cls-3" d="M79.09,25.74c-1.17,2.73-3.73,1.05-3.32-.18a6.34,6.34,0,0,1,1.92-1.37.86.86,0,0,1,1.12.3,1,1,0,0,1,.28,1.25ZM77.72,24c-4.66,2.17-1.1,3.66-.41,3.62a2.57,2.57,0,0,0,2.12-1.81,1,1,0,0,0-.32-1.39c-.37-.41-.64-.77-1.39-.42Z"/><path class="cls-3" d="M41.54,26.27A1.14,1.14,0,0,1,43,25c.53.21,1.5.95,1.55,1.54.07.76-.8,1.63-1.45,1.27,0,0-1.54-1.42-1.56-1.49Zm.58-1.65c-.58.29-1.48,1.37-.4,2.21a6,6,0,0,1,.94.85c1.2,1.43,3-.72,1.91-2-.32-.38-1.6-1.51-2.45-1.07Z"/></g></g></g></svg>