<svg xmlns="http://www.w3.org/2000/svg" viewBox="0 0 85.76 25.81"><defs><style>.cls-1{fill:#040404;}.cls-1,.cls-2{fill-rule:evenodd;}.cls-2{fill:#050505;}</style></defs><g id="Слой_2" data-name="Слой 2"><g id="Слой_1-2" data-name="Слой 1"><g id="_3015442439104" data-name=" 3015442439104"><path class="cls-1" d="M41.1,10.59a8.51,8.51,0,0,1,2.3-1.65c.56.24.54.32,1.14.6,2.75-1.84,1-2.22,3.78-3.56,6-2.85,11.07-4.74,18.25-4.24C84.94,3,85.67,21.65,73.38,23.05c-7.81.89-16.36-3.61-22.81-6.95L42.3,11.46a13.11,13.11,0,0,1-1.2-.87Zm-1.8,0c-.53,1-6.72,4.36-8.09,5.07A53.69,53.69,0,0,1,22,19.59c-7.65,2.23-16.72,1.31-18-6.1C2.59,5.6,13,2.74,19.9,3.5c7.6.82,13.35,3.92,19.4,7.09ZM6.79,22.74a16,16,0,0,1,2.87.46,15.85,15.85,0,0,0,3.51,0c1.52-.15,5.2-1.16,6.06-1,0,0,.12-.16.15-.12l1.17-.53a65.23,65.23,0,0,0,9.69-4.39c1.64-.9,3.47-2,5-2.93,6.32-3.87,3.5-4.12,9.92-.43,1.6.93,3.08,1.77,4.9,2.81,1.58.92,3.24,1.87,4.91,2.77.9.48,1.69.88,2.57,1.34.38.19.76.39,1.2.59.14.06.52.23.63.3l.7.59c1.54-.15,7.42,4.16,14.86,3.53,1.6-.13,4.32-1.26,4.92-1.24.87-1.33,3.42-1.7,5.16-6.31,1.54-4.07.25-6.73-.66-9.7-.14-.08,0,.07-.28-.27,0-.05-.32-.44-.36-.5C78-.88,65-1.29,56,1.65a38.79,38.79,0,0,0-4.6,1.77C50.23,4,48.09,5.26,47,5.61,45.64,4.42,46,4.53,44.54,5.48c-.69-.29-1.62-1.26-2.27-.13s.29,2.08.53,3.09c-3.69,2.44-1.49,2.19-9-1.46C26.89,3.6,18.76.75,10.71,1.66,5.07,2.3,1.55,5.45.29,10.33a10.92,10.92,0,0,0,1.19,7.88,9.39,9.39,0,0,0,4.44,4,1.9,1.9,0,0,1,.47.25c.38.24.14,0,.4.32Z"/><path class="cls-2" d="M55.56,10.45c-.8-.41-.83-1.33-2-.49-1.21,1.77.83,4,2,4.41,2.15-1.18,3.1-4,1.65-4.64-1-.42-1.07.32-1.65.72Z"/></g></g></g></svg>