<svg xmlns="http://www.w3.org/2000/svg" viewBox="0 0 26.01 22.33"><defs><style>.cls-1,.cls-2{fill-rule:evenodd;}.cls-2{fill:#878787;}</style></defs><g id="Слой_2" data-name="Слой 2"><g id="Слой_1-2" data-name="Слой 1"><g id="_3015254946864" data-name=" 3015254946864"><path class="cls-1" d="M6.9,18.84A4,4,0,0,0,8,20.26a9.62,9.62,0,0,0,2.73,1.64c.82.21,1-.14,1.75-.15s1,.38,1.46.51a15.09,15.09,0,0,0,3.39-.09,4.92,4.92,0,0,0,1.85-.42c.69-.35.67-.75.76-1.2s.59-.77.89-1.21a17.66,17.66,0,0,0,.79-2.65c.15-.57.36-1,.12-1.41.44-.17.47-.34.28-.72a4.15,4.15,0,0,0-.6-.9,3,3,0,0,0-1.43-1,5.34,5.34,0,0,1-1.5-1,2.85,2.85,0,0,0-1.46-1c-.7-.15-.8.23-1.82-.14a3.12,3.12,0,0,0-1.74-.22c-1.78.35-1.13,0-1.88.11-.43,0-1.54.63-1,1.19-.1.11-.1,0-.16.22l-.1.27c-.09.6,1.16,1.12,1.18,1.53-.23.19-.48,0-.45.55a4.78,4.78,0,0,1,.08.74c0,.54-.54.68-.49,1.11v.18a3,3,0,0,0-1.8.28,21.24,21.24,0,0,0-1.95.85C6.6,17.69,6.68,18.33,6.9,18.84Z"/><path class="cls-1" d="M15.17,2.74c-.21.23-.31.14-.27.48S14.27,5.14,14.58,6c.17.48.05.24-.12.57a4.12,4.12,0,0,0-.08,1.13c0,.17.06,0,0,.24-.1.47,1,.76,1.29.52a1.43,1.43,0,0,1,.41-.45c.55-.42.36-.53.39-.78s.13.11,0-.59c0-.18,0-.13-.13-.21.2-.16.05,0,.12-.23.14-.4,0-.22.08-.67V5.36c0-.19,0-.21.21-.32a9.56,9.56,0,0,1-.06-1.6c0-.36.11-.34.11-.49a1.53,1.53,0,0,0-.27-.11c.21-.2.09-.32.37-.7C17,2,17,2.1,17,2A1.56,1.56,0,0,0,17,.54C16.43-.4,15.26,0,15,1.07a1.78,1.78,0,0,0,.19,1.67Z"/><path class="cls-1" d="M21.32,6.18c-.15-.21-.05,0,.07-.24l.1.06c0-.1.09-.19,0-.28.34-.18.07-.11.16-.43s.47-.58.55-.8,0-.12.06-.22a1.38,1.38,0,0,0,.28-1.14c-.21-.83-1-1.06-1.77-.24A4.25,4.25,0,0,0,20,4.62c-.12.58-.1.47.42.75-.24,0-.56,0-.71.21l-.32,1.57c-.06.21-.16.17-.16.33,0,.32.61.54.78.63-.43.09-.7-.27-1.11-.15l.23.29a.93.93,0,0,1-.29,0c0,.06,0-.08,0,0a.2.2,0,0,1,0,.07c-.26,0-.35.14-.46.29s-.31.23-.32.48c0,1.18,1.31,1.45,2,.32a2,2,0,0,0,.14-.25,1.1,1.1,0,0,0-.09-.6l.2,0c-.09-.3.51-.47.31-.95.25-.21.17-.05.31-.33a3.23,3.23,0,0,0,.32-1c0-.2-.09-.07.09-.19Z"/><path class="cls-1" d="M24.92,10a2.3,2.3,0,0,1,.19-.33c.09-.15.06-.18.19-.31a2.19,2.19,0,0,0,.51-.59c.63-1.23-.37-1.8-.95-1.38a5.6,5.6,0,0,0-.68.55,1.74,1.74,0,0,0-.41,1.37c-.16-.07-.23,0-.15.17a1.54,1.54,0,0,0,.26.25c-.41,0-.55-.48-.88.28-.23.55-.18.27-.61.9-.68,1-.94,1.06-.12,2,.94,0,3.1-2.33,2.35-2.76.05-.06,0,0,.18,0-.1-.13-.1-.09-.1-.2Z"/><path class="cls-1" d="M9.69,4.53c.12.1.09,0,.09.1l-.35.17a11.83,11.83,0,0,0,.35,2.58c.09.44.18.86.28,1.3s.17.3.38.56.06.49.11.67c.87-.16,1.12-.34,1.11-1,.33,0,.42-.24.45-.5s-.11,0,.05-.21c-.15-.14,0,0-.19-.1.08-.19.13-.18,0-.46a3.11,3.11,0,0,1-.08-.53c-.13-.52-.59-.26-1-.31a3,3,0,0,0,.6-.28c.09-.1,0-.07,0-.22a3.53,3.53,0,0,0-.36-1.72c-.14-.25-.19-.29-.45-.3s-.94,0-1.09.23Z"/><path class="cls-1" d="M4.36,14.79c-.12,0-.13,0-.31,0,0-.13,0-.06,0-.15s0-.06,0-.15-.15-.21-.24-.33c-.3-.43-.3-1-.72-1.45a5.72,5.72,0,0,0-.9-.52c-.18-.11-.12-.09-.35-.09S0,11.8,0,12.73c0,.47.64.83,1,1C2,14.4,1.74,15,3.34,15.29a1.91,1.91,0,0,0,.75.08c.26-.09.24-.2.23-.34Z"/><path class="cls-1" d="M11.16,4.11c0-.33.15-.2-.19-.51,0-.17.07-.3.06-.45S11,3,11,2.94s0-.11.07-.2a1.58,1.58,0,0,0-.28-1A.93.93,0,0,0,9.06,2c-.16.54-.34,1.71.38,2.19C9.76,4.41,10.79,4.17,11.16,4.11Z"/><path class="cls-2" d="M21.32,6.18c0-.07,0,0,.07-.09a.45.45,0,0,0,.1-.09l-.1-.06C21.27,6.19,21.17,6,21.32,6.18Z"/></g></g></g></svg>