<svg xmlns="http://www.w3.org/2000/svg" viewBox="0 0 57.37 47.09"><defs><style>.cls-1{fill:#2d2c2c;}.cls-1,.cls-2,.cls-3{stroke:#000;stroke-miterlimit:10;stroke-width:0.22px;fill-rule:evenodd;}.cls-2{fill:#f7f5ec;}.cls-3{fill:#848383;}</style></defs><g id="Слой_2" data-name="Слой 2"><g id="Слой_1-2" data-name="Слой 1"><g id="_3015261566848" data-name=" 3015261566848"><path class="cls-1" d="M36.89,23.21c.67.06.35-.05.4.25.63.26.39.1.73.65.54-.59.42-.16.63-1.92a11.64,11.64,0,0,0-.1-2.5c-.61.69-.5.2-.46,1.36a3,3,0,0,1,0,1.21c.13.79.11.39-.14.48.25.78-.34.09-.43,0-.4.12-.39.26-.28-.12-.37.11-.25.13-.14-.26-.34-.11-.28-.89,0-1.13l.31-1.46c0-.36-.11-.32.21-.25.2-.47-.35-.11.15-.37v.38c.4,0,.2.26.2.6,1.14-.93-.22-1.37,0-2.86.83-.3,1.11-.63,1.64,1.91.21,1.81,4.43,10.24,5.31,11.41a8.57,8.57,0,0,0,4.88,3.57c1.41.46,5.76,1.09,7.41.41-.33-.86-.59-.49-2.69-.48-5.87,0-8.12-1.76-10.6-6.59a34.56,34.56,0,0,1-2.12-4.79c.58-1.18,3.34-4.45,3-6.12-.53-2.37-1-1.11.18-3.32,1.59-2.92-1.2-3.34-4.84-8.31-1-1.37-2.91-4.43-4.62-4.76-2-.38-3.34,1.77-6.13,3.16S29.17.91,22.75,5c-2.69,1.73-4,2.07-5,4.35l-1.57,4.12A12.89,12.89,0,0,0,15.86,17c-1.63-.35-1.95-.73-2.79.7-.68,1.14.7,1.9.88,2.78a11.28,11.28,0,0,1-.71,3.3c-.18.57-.36,1-.51,1.54L12.12,27C11.46,28.5,8,31.26,7,31.5a10.56,10.56,0,0,1-3.12-.1c-.63-.08-1.24-.17-1.77-.29-.75-.17-1.31-.45-1.91,0l.23.21A11.19,11.19,0,0,0,3.29,32c3.3.51,3.32-.58,3.53,1.45a5.67,5.67,0,0,0,1,3.15c.31-.64-.41-2.16-.49-3.16-.2-2.7,5-3.23,5.62-6.78.23-.81.44-1.26.7-2.23a16.49,16.49,0,0,1,.64-2.14A13.1,13.1,0,0,0,16,24c.85.57.66.23,1.11-.19-.45-.13-.31,0-.79-.49A2.51,2.51,0,0,1,15,21.72c.73.25.26.32,1.11.3a11.4,11.4,0,0,1,1.19-2c1.69-2.26.63-1.17,1-1.86,2.74.56,6.87,4.35,7,4.81l-.2-.29a11.3,11.3,0,0,1,1.3.47c1.35.67.91.41,1.19.91-.39.5.19.16-1.28.81.26.21.29.81,1.23.05a9,9,0,0,1,.8-.71,8.29,8.29,0,0,1,2.32-1.08,10.74,10.74,0,0,1,4.4-.61c-.27.91-1.05.62-1.25,1.17,0,.8.4,1.09.7,1.94a20.42,20.42,0,0,1,.58,2.24c.91.53-.66,0,.38.18l1.43.15L36.1,29c-.33.23-.57.29-1,.56-1.36.87-3.08,1.25-3.79,1.81l-.5.46a7.5,7.5,0,0,1-.93.61l-.84.89c.06,0,.15-.06.18,0l.47-.1c1.27-.5,1.15-1.42,4-2.31,1.57-.51,3.8-2.17,4.21-3.45.47-1.59,1.41-1.36.76-3.76-.64.8-.13.76-.42,1.49-.14,1.41-1,2-2.47,2.23-.31-1.44-.92-2.51-1.16-3.58a4.22,4.22,0,0,1,2.28-.66ZM26.42,35.84c-2.22,2.83-3.06,2.42-4,3s-.31-.13-.62.79a6.53,6.53,0,0,0,3.8-1.82c.59-.59.32-.6,1.09-1-.25,2.64-3.38,5.16-5.58,6.2-1.87.89-2.9.6-4.89,1L12,45.5c1,.14,3.65-.77,5.12-.91,9.41-.85,9.9-7.37,10.86-8.74.79.36,1.34,1.35,2,2.06,3.59,3.9,6.29,4.11,10.47,5.84,1.08.44,1.79,1,2.81,1.38a41.26,41.26,0,0,0,6.86,1.31c.66,0,.33.05.89.17,1.45.32.61,0,.91-.23-.17-.06-.41-.08-.57-.13-.59-.21-.32-.11-.59-.31-10-1.78-4.92-.93-12.43-3.7-5.44-2-6.26-3.05-9.52-6.71l-.83-.8c.24-.37.21-.29.54-.56,1-.82.47-.07.54-.81a1.08,1.08,0,0,0-.47.1c-.92.35-1.09.67-1.58,1.49l-.59.89Zm-6.66-10.7a11.57,11.57,0,0,0-1.86-.94l-.66,0-.32,0,2.53,1.48c1.24.75,2.06.84,2.51,1.63-.52.58-.45.29-1.06.58.19.13-.14.29.68.16l3.88-1.76c1.77-1,.93-.28,1.07-1-1.16,0,.06,0-1.69.8a3.92,3.92,0,0,0-.88.49c-1,.67-1.22.51-2.51-.27-1-.61-.87-.31-1.57-.95l-.12-.12ZM42,21l-.1.28-.36.55a1,1,0,0,1-.48-1.33c-.13-.89,0-.32.15-.45.08-.79.12-.32.3-.43-.12-.39-.25-.37.12-.26-.14-.39-.22-.33.18-.21.3-.23-.57-.24.42-.2l.63.59c0,1,.06.21-.22.55l0,0L42,21ZM43.8,15.8a2.62,2.62,0,0,1-.61,3.14l-.71-.53Zm-11.87.92c.22,3.05.2,2.51,1.24,4.94l-3.42,1.08c0-.76,0-3.37-.09-3.81-.31-1.07-1.05-1.76-1.13-2.93l2.23-.37a2.63,2.63,0,0,0,1.17,1.09Zm9.72,1.35c-1.49-1.05.26-3.15.91-3.22,1.07-.11.42,1.06.15,1.62A3.65,3.65,0,0,1,41.65,18.07Zm-3.79-1.49a2.2,2.2,0,0,1,.58-2.1,2,2,0,0,1,1.89-1c-.2,1.27-1.28,3.06-2.47,3.11Zm3.11,2c-.73.37-1.49-.9-1.45-1.76a9.8,9.8,0,0,1,1.28-2.32l2.58-4.8c2.18,2.09,1.43,2.27.2,4.63-1.71-.15-1.93-.06-2.72,1.16C39.93,16.9,40.42,17.35,41,18.56ZM16.48,17.11a6.46,6.46,0,0,1,2-4.18,10.8,10.8,0,0,1,2-1.06c4.27-2.17,3.14-3.22,10-5.16,2.24-.63,3.42-.85,4.2,1.09l2.61,9.9c.12,1-1.19,2.27-1.07,4.66-.95-.25-.3-.19-1-.48-.43-.17-.7-.12-1.05-.29a2.86,2.86,0,0,1-1-1.47,6.81,6.81,0,0,1-.53-2c-.07-1.27.32-1,.69-1.74-.13-.08-2.24-.15-2.46-2.06a9,9,0,0,1,.52-2.79l-.13-.87c-.47.34-.38.23-.61.95l-.43,2.19a5.51,5.51,0,0,1-.06.71c-.36,1.86-4.56-.12-5.26-.31.22.95-.06.34.43.82a5,5,0,0,0,.63.34c2.4,1,1.16,0,2.49,2.63.79,1.58.45,1.14.54,2.92.07,1.55,0,1.58-.82,2.44-1.82-.36-4.34-2.66-5.44-3.63a10.81,10.81,0,0,0-6.29-2.62Zm1.16-4.38c-.21-4.1,2.9-5.45,4.92-6.74.72-.46,3-2,3.82-2.18,1.39-.23,2.81,2.18,2.95,2.55A38.28,38.28,0,0,0,25.24,8a32.6,32.6,0,0,1-3.52,2.29c-.95-.65-.36-.91-1.19-1.36-.49.81.21,1.12.45,2a14.85,14.85,0,0,1-1.78.87,8.78,8.78,0,0,0-1.56,1Zm12-8.82a37.45,37.45,0,0,0,4-2.67c2.21-1.4,3.59,1.06,4.58,2.3,5.86,7.3,4.39,6,2.66,9.38-2.51-.1-2.15.44-3.4,1.64a5.21,5.21,0,0,1-.63-1.72c-.71-2.55.38-2.56,1.69-3.24.68-.35.24.19.52-.45-1.11-.67-2,.63-2.85,1.12a16.8,16.8,0,0,1-.88-2.7c-.53-1.35-.69-1.08-.62-2.89L34.42,5c-.49.48-.29.5-.58.79-1.76-.39-2,.15-3.72.25a7.22,7.22,0,0,1-1.2-1.55Z"/><path class="cls-2" d="M28.53,16c.08,1.17.82,1.86,1.13,2.93.13.44.07,3.05.09,3.81l3.42-1.08c-1-2.43-1-1.89-1.24-4.94a2.63,2.63,0,0,1-1.17-1.09L28.53,16Z"/><path class="cls-2" d="M38.24,25.22c-.08-.55,0-.81-.37-1.2-.07-.07-.3-.24-.31-.25a.94.94,0,0,1-.27-.31c-.68,0-.2,0-.4-.25a4.22,4.22,0,0,0-2.28.66c.24,1.07.85,2.14,1.16,3.58,1.47-.19,2.33-.82,2.47-2.23Z"/><path class="cls-2" d="M37.86,16.58c1.19,0,2.27-1.84,2.47-3.11a2,2,0,0,0-1.89,1,2.2,2.2,0,0,0-.58,2.1Z"/><path class="cls-2" d="M41.65,18.07a3.65,3.65,0,0,0,1.06-1.6c.27-.56.92-1.73-.15-1.62C41.91,14.92,40.16,17,41.65,18.07Z"/><path class="cls-2" d="M42.48,18.41l.71.53a2.62,2.62,0,0,0,.61-3.14Z"/><path class="cls-2" d="M37.4,19.72l-.31,1.46,0,1.13c.34-.09.22-.11.14.26.35-.09.31-.19.28.12l.43,0,.14-.48L38,20.08l-.2-.6h-.14c.09.34.15.24-.21.25Z"/><path class="cls-2" d="M41.66,19.39c.14.36.24.32-.12.26-.17.81-.08.32-.3.43.1.7.12.35-.15.45l.24.83c.22.1,0,.07.33.06a1.71,1.71,0,0,0,.27-.11C41.81,21,41.7,21,42,21c.17-.46,0-.18.24-.51.42-.62.08-.13.43-.42l0,0c-.12-.89,0-.74-.83-.94.1.36.18.31-.18.21Z"/><path class="cls-3" d="M50.12,46.44a2.24,2.24,0,0,0,2.06.43c-.08-.85-.48-.8-1.42-.93.27.2,0,.1.59.31.16,0,.4.07.57.13-.3.28.54.55-.91.23-.56-.12-.23-.14-.89-.17Z"/></g></g></g></svg>