<svg xmlns="http://www.w3.org/2000/svg" viewBox="0 0 36.42 40.71"><defs><style>.cls-1{fill:#2b2a29;fill-rule:evenodd;}</style></defs><g id="Слой_2" data-name="Слой 2"><g id="Слой_1-2" data-name="Слой 1"><g id="_3015261567280" data-name=" 3015261567280"><path class="cls-1" d="M5,19.18v.07a21.12,21.12,0,0,0,.08,2.51c.09.69.31,1.41.45,2a19.19,19.19,0,0,0,2.56,2.53c.35.36.21.34.42.87l.82,1.75c.39.73.31.37.5.72a2.23,2.23,0,0,1,.69.53h.1l-.07-.2c.76-.12.09.06.81-.23a1.51,1.51,0,0,1,.35-.08,5.16,5.16,0,0,1,1.41-.2c.5-.27,1.88.09,2.39-.1A16.12,16.12,0,0,0,15,27.75c0-.18-.08-.32-.11-.46s0-.05,0-.15v0c-.34-1,0-.72-.26-.83a1.61,1.61,0,0,0-.85-.11c-.57,0-.19-.14-.6-.07-.24.11-.47,0-.81,0-.15,0,0,0-.1,0l-1.55,0a1.53,1.53,0,0,1-.06-.4l-.06-.41a1.3,1.3,0,0,1,.1-.79l0-.14a2.11,2.11,0,0,1,0-.68c0-.34,0-.13-.06-.34a.35.35,0,0,1,0-.29c-.59,0-.58-.07-.87-.38-1.36-1.5-1.26-1.74-3.17-3a12.66,12.66,0,0,1-1.34-1.05c-.18.08-.07,0-.13.16a1,1,0,0,0,0,.3Z"/><path class="cls-1" d="M11.18,31.93c.06.31,0,.12.1.21.26.38.07.22.3.59s.3.51.45.79L13,35.05c1.13,1.94,1.9,3.42,3.76,4.76a3.15,3.15,0,0,0,3.23.74c.13,0,.23-.08.45-.13a2.28,2.28,0,0,0,.4-.16l.4-.07s0,0,.06,0,.05,0,.07,0c-.47,0-.39-.13-.52-.49a5.67,5.67,0,0,1-.23-.62,7.08,7.08,0,0,1-.22-1.57,6.08,6.08,0,0,1,.48-2.24,3.36,3.36,0,0,0,.26-.54l0,0-.15,0,0-.23-.09.16a14.67,14.67,0,0,0-.79,2.62c-.3,1.28-.73,1.94-1.83,1.4-.23-.1-.12,0-.3-.16-.53-.52-.11-1.84.08-2.53l.51-1.28c.08-.29.16-.46.22-.7s0-.57.05-.57a1,1,0,0,0-.24-.26l-.21-.18c-.2-.15-.33-.19-.35-.45-.42.41-.84,2.43-1.44,3.22a1,1,0,0,1-1.79-.26A2.79,2.79,0,0,1,15,34.11l.38-1.19c.24-.76.1-.69.42-1.14a9,9,0,0,1-2.69-.46v.82a9.93,9.93,0,0,1-1.9,0Z"/><path class="cls-1" d="M20.46,13.55A1,1,0,0,1,20,14c-.65.34-.1.24-.53.3l0,.22c0,.29.15.56.15,1s0,.83-.24,1c-.53.29-1.14-.75-1.27-1-.29.1-.56.48-.79.71l-1.75,2.54v0a13.51,13.51,0,0,1,0,1.42,10.4,10.4,0,0,1,0,1.49A8.78,8.78,0,0,0,17.39,20c.75-.88.93-1.23,1.92-1.58.5-.18,1-1,1.9-1.59a5,5,0,0,1,1.16-.57,1.79,1.79,0,0,0,1-.7l0-.24-.24-.12a1.5,1.5,0,0,0,.1-.83l0-.26a1.76,1.76,0,0,1-.15-.62H23c.12.07.09,0,.1.17,0,.33,0,.11-.06.19-.37-.26.21-.19-.53-.4.07.25.11.16.34.27-1.52-.1-.35-.24-2.12-.25l-.29.05Z"/><path class="cls-1" d="M15.51,24.55c.13.06,0-.07.07.19l0,4.78c.07-.21,0,0,.2-.13a.6.6,0,0,0,.05.31,1.27,1.27,0,0,0,.42.67l.13-.07c.12-.16.32-.71.43-.92.26-.48,1.33-2.53,1.5-2.71a5.29,5.29,0,0,0,1.44.78,3.84,3.84,0,0,0,1,.08,3.94,3.94,0,0,1,.84.18c.52.08,1.3-.07,2,0a5.57,5.57,0,0,1,1.6.51c.27-.06.22-.1.39-.28s.21-.16.22-.4c-.79-1.12-1.55-.79-3.05-.84a7,7,0,0,0-1.88,0,3.17,3.17,0,0,1-1.72.06c-.06-.54.37-.31.87-.45a3.3,3.3,0,0,1,1.08-.28c-.05-.56-.24-.28-1.42-.44a3.81,3.81,0,0,1-1.43-.34l.06-.34c.35-.11,2.25.22,2.47.06-.34-.37-2.48-.38-2.9-.78l.1-.37a1.84,1.84,0,0,1,.75,0l-.11-.24c0-.11.2-.1,0-.06-.08-.16,0,0-.08-.24v-.21h-.33s-.15.15.06,0,0-.09,0-.11c0-.37.25.14,0-.1a2.89,2.89,0,0,0-.62.48l-1.37.83a2.14,2.14,0,0,0-.78.37Z"/><path class="cls-1" d="M18.09,1.27A6.61,6.61,0,0,0,17,3.06c-.05.32-.12.28-.16.58a16,16,0,0,0,.74,2.29,10.68,10.68,0,0,1,.62,2.49c.48,0,1.07.25,1.42.21.22-.43.07-.41.45-.76a1.2,1.2,0,0,1,.92-.34h.28l-.4-.06c.31-.11.3-.36.47-.65a1.06,1.06,0,0,0,.16-.94,18.48,18.48,0,0,0-1-2.73,1.39,1.39,0,0,1-.34-.5c-.2-.37-.19-.21-.31-.39l-.08-.21a.81.81,0,0,0-.19-.18c-.17-.15-.18-.31-.44-.15,0-.4,0-.15-.11-.27l-.77-.31-.1.13Z"/><path class="cls-1" d="M9,11.25H9c-.07.11,0,0-.12.15l-.1.09-.2.2-.8.87c-.3.35-.36.36-.42.62l2,4.38L11,17.25a4.27,4.27,0,0,0,1.36-.58l.44-.29,0,0,.33-.13a15.11,15.11,0,0,0-1.52-2.67c-.63-1-.85-1.15-1.3-1.8a5.93,5.93,0,0,1-.36-.65c-.11.07-.05,0-.22.08s-.12,0-.22,0a1.57,1.57,0,0,0-.29.13L9,11.25Z"/><path class="cls-1" d="M9.33,17.57l.08.16a2.34,2.34,0,0,1,1.06-.21c.13.22,0,.28.33.4a.64.64,0,0,0-.22.24.57.57,0,0,0,.32.15c-.35.06-.2.12-.2.12v.06l0,.13c-.16.5-.06.4,0,.48s.39.15.54.27.06,0,.17.19a3.74,3.74,0,0,1-.6-.21,1.82,1.82,0,0,1-.28-.11c-.16-.08,0,0-.1-.07.05.21,0,.06.12.24l.39.64c.59,1.19.53,2.52-.39,3.07a.35.35,0,0,0,0,.29c.08.21.09,0,.06.33a2.16,2.16,0,0,0,0,.69l0,.14a1.3,1.3,0,0,0-.1.79l.06.41a1.53,1.53,0,0,0,.06.4l1.55,0c.11,0,0,0,.1,0,.34-.05.57.07.81,0a5.88,5.88,0,0,0,0-.73c0-.09,0-.21,0-.29,0-.25-.09-.13,0-.34-.48-.15-1.09-.41-1-1s.66-.68,1-.93l0-.37v-.14c-.06-.63-.6-.35-1.07-.49.13-.12.18-.13.38-.1,1,.16.74.23.69-.61,0-.21.06-.21,0-.31l0-.12c-.15-.48-.05-.33-.31-.34.31-.27.2.08.25-.19-.41-.14-.34-.07-.51-.26.39,0,.3.14.59.13a.8.8,0,0,0-.32-.16l.05,0,.19,0,0-.56v0c.08-.4.09-.44-.31-.59l-.33-.11c.2-.1.22,0,.44.08a1.36,1.36,0,0,0,.58,0c-.11-.16-.06-.17-.07-.42-.11-.05-.19,0-.25-.15s-.1.12,0-.1.05,0,.12-.13.16-.14,0-.12c-.05-.19.17.1-.14,0L13,17.52s0,0,0,0,.42,0,.49,0l.28.05a3.11,3.11,0,0,0-.58-1.28l-.33.13,0,0-.44.29a4.27,4.27,0,0,1-1.36.58l-1.65.32Z"/><path class="cls-1" d="M21.32,40.15l1.21-.51c1.45-.85.28-.4,2.08-.52l2.06-.48a5.17,5.17,0,0,0-.26-.69c-.07-.23-.11-.47-.16-.69A4.28,4.28,0,0,1,26,35.78H26l-1.89-.19.08-.39a10.91,10.91,0,0,0-.54,1.53c-.25.87-.29,1.12-.94,1.12s-1-.41-.89-1.13c.09-.46.26-1.26.38-1.65a8.21,8.21,0,0,1-1.08-.38,3.36,3.36,0,0,1-.26.54,6.08,6.08,0,0,0-.48,2.24A7.08,7.08,0,0,0,20.57,39a5.67,5.67,0,0,0,.23.62c.13.36.05.45.52.49Z"/><path class="cls-1" d="M21.09,20.77c.23.38-.34-.17.27.25l.32.19c.5.4,0,0,.21.37l.16,0,.18.08.06,0A2.81,2.81,0,0,0,23.22,23,7.67,7.67,0,0,1,24.37,24c.57.63.17.85,1.39.52a3.91,3.91,0,0,0,1.54-.68l0-1.12c-.48.18-1,.25-1.47.41s-.89.51-1.34.38c0-.47,1-.66,1.41-.83a8.6,8.6,0,0,0,1.46-.86c-.11-.1,0,0,0-.19a3.31,3.31,0,0,0,0-.33,1.88,1.88,0,0,0-.06-.59c-.58.23-1.2.52-1.74.8s-1.36.91-1.75.63c.06-.25.16-.2.43-.33a10,10,0,0,0,1.31-1c.42-.36,1.67-.8,1.82-1.3a.6.6,0,0,0-.41-.47,13.32,13.32,0,0,0-2.4,1.23,5.28,5.28,0,0,0-1.09.72c-.33.33-.73.59-1.2.24,0-.31.38-.55.54-.76a8.48,8.48,0,0,1,1.11-1.55c.2-.19.54-.39.42-.77-.54-.93-2.8,2.2-3.23,2.62Z"/><path class="cls-1" d="M29.44,24.93c1.26-.13.63.18,1.42,0a3.08,3.08,0,0,1,.74,0c.31,0,.34-.09.7,0l-.06.19-.05.25c0,.3.14,0,.12.46-.25.22-.3.13-.52.25.68,0,.27.09.54.62.18,0,.63,0,.49-.3l0,.46c.07-.14,0,0,.06-.25l0-1.81,0,0a.6.6,0,0,1-.55.07.49.49,0,0,1-.14-.06.13.13,0,0,1,0-.06l0-.41c-.26,0-.06,0-.06,0s.07,0,0-.4v-.09l0-.23c0-.12.17-.2-.08-.57.25-.19.13,0,.21-.19a.54.54,0,0,1-.11-.22v-.08c0-.12.07,0,0-.28-.21-1,.13-.64,0-1l.11,0c.13-.06,0,0,.13-.09l-.28-.44,0,.45c-.41-.07-.46-.37-.55-.75l.38.15c0-.23,0-.13-.09-.25s0,.08-.1-.18l.67.3a3.57,3.57,0,0,0,.93.73l0-.31c-.18-.12-.26-.22-.36-.29l-.08-.05a1.9,1.9,0,0,1-.64-.55c-.14-.17-.08-.18-.16-.41l-.09-.76a.08.08,0,0,1,0,0c.08-.34-.08-.25,0-.72a1.28,1.28,0,0,1-.21-.16L32,18c-.26,0-.62.06-.76,0s-.08-.12-.34-.13-.19.2-.27.07,0,0-.05,0l-.3-.3A36.18,36.18,0,0,0,30,21.46c-.1,1.1-.43,2.4-.57,3.47Z"/><path class="cls-1" d="M10.79,5.88a13.43,13.43,0,0,0,.62,1.76v-.2c-.05-.25-.09-.16-.05-.39.63,0,1.4,0,2,0,.11,1,0,.71,0,1a.7.7,0,0,1,0,.21c0,.38-.09.34.17.38a12.69,12.69,0,0,1,2.19-.32c-.29-.66-.77-1.55-1-2.3-.16-.46-.3-.79-.44-1.24L14,3.94s0-.13,0-.14,0-.1-.11-.17l0,.13-2.49,0,0-.68-.49,0a5.08,5.08,0,0,0-.22,1.46,6.61,6.61,0,0,0,0,.78c0,.22.13.39.17.65Z"/><path class="cls-1" d="M33,17.56c-.49-.1-.6-.35-.82-.53s-.13,0-.19-.23c.7.13.77.43,1.21.58l-.2.18Zm-2.22-1.15.6.6c.14.08-.05,0,.12,0a2,2,0,0,1,1,.66c-.12.11-.07.18-.34,0l-.71-.54c-.25-.21-.35-.39-.54-.48s-.09.07-.15-.12a.57.57,0,0,0-.19.29l-.1.28c-.06.18-.13.37-.21.58l.3.3s0,0,.05,0,0-.09.27-.07.15.09.34.13.5-.05.76,0l.07-.13a1.28,1.28,0,0,0,.21.16c-.12.47,0,.38,0,.72a.08.08,0,0,0,0,0l.09.76c.08.23,0,.24.16.41a1.9,1.9,0,0,0,.64.55l.08.05c.1.07.18.17.36.29l.54-1.56-1-1.12C33,18,33,18.12,33,18a1.78,1.78,0,0,0,.3.17l.29.23c.46.39.34.41.7.37l.14-.27L34,18c-.13-.29,0-.14,0-.18s-.13-.08.06,0,.29.1.42.34l.41-.71a3.47,3.47,0,0,0,.37-.71l.06-.24L35,16.31l-.19.19-.9-.21c-.16-.06.07,0-.14-.06a.86.86,0,0,0-.17,0,4,4,0,0,1-.62-.15c-.5-.14-.38-.2-.41-.28l.5.08a.28.28,0,0,1,.21.1l0,0,.09.11c.05-.06.11.13.07-.18.2.19.16.13.41.16.5.06.6.22,1.08.25L34.69,16a10.67,10.67,0,0,0-1.89-1.67c-.21-.17.13-.17-.24-.11a6.49,6.49,0,0,0-1,1,4.75,4.75,0,0,0-.76,1.21Z"/><path class="cls-1" d="M14.27,15.21c.17.78.63,1.18.55,2.23,0,.37-.18.83-.53.81s-.35-.49-.56-.74l-.28-.05c-.07,0-.4,0-.49,0s0,0,0,0l.18.12c.31.13.09-.16.14,0,.12,0,.05-.05,0,.12s0-.09-.12.13-.09,0,0,.1.14.1.25.15c0,.25,0,.26.07.42a1.36,1.36,0,0,1-.58,0c-.22-.08-.24-.18-.44-.08l.33.11c.4.15.39.19.31.59v0l0,.56-.19,0-.05,0a.8.8,0,0,1,.32.16c-.29,0-.2-.1-.59-.13.17.19.1.12.51.26-.05.27.06-.08-.25.19.26,0,.16-.14.31.34l0,.12c0,.1-.06.1,0,.31,0,.84.29.77-.69.61-.2,0-.25,0-.38.1.47.14,1-.14,1.07.49v.14l0,.37a3.94,3.94,0,0,0,.82-.27l.36-.15.3-.18h-.13c0-.22,0-.11,0-.2v-.1c0-.26.15-.11.18-.54,0-.26-.05,0,.07-.29s.11-.39.2-.66c0,0,0-.09.05-.13l.15-.37c.18.05.22.09.38.13l-.4-.29.18-.32c.28-.41,0-.43.3-.68v0l0-5.09,0,.1a6.23,6.23,0,0,1-1.23,1.51Z"/><path class="cls-1" d="M13.6,8.71,12.82,9,12,9.31l.07.35a10.55,10.55,0,0,0,.48,1.6c.17-.11.11-.06.59,0,.67,0,1.56-.06,2.4,0l0,.81c.25.08,0,0,.1.06l.16.08a1.07,1.07,0,0,0,.4.1,4.2,4.2,0,0,0,.54-2,13.6,13.6,0,0,0-1-1.89,12.69,12.69,0,0,0-2.19.32Z"/><path class="cls-1" d="M16.22,12.26a2.9,2.9,0,0,1-.28.72,1.51,1.51,0,0,1-.4.62l0,5.09,1.75-2.54c.23-.23.5-.61.79-.71-.26-.8-.48-1.85-.64-2.61-.1-.49-.16-.88-.28-1.33l-.4-1.18,0,0A4.2,4.2,0,0,1,16.22,12.26Z"/><path class="cls-1" d="M4.91,7.25a12.8,12.8,0,0,0,.83,2c.12.4.21.69.35,1.06s.21.85.43,1l0-.19c.21.11,0,.06.19.09.4.05.18,0,.24-.08l-.23,0,1.6-2.5c.06-.1.06-.14.11-.21.15-.26.2,0,.2-.43a3.2,3.2,0,0,0-.49-.94c-.47.06-.87,0-1.3,0l-.16,0a.55.55,0,0,0-.31,0,1.17,1.17,0,0,0-.18.46c0-.29.07-.26,0-.51H4.91v.21Z"/><path class="cls-1" d="M21.08,10.44c-.15.16-.06-.06-.34.21l-.58.42c-.11.09,0,.18-.4.31s-.05,0-.55.35l-.55.23.27,1c0,.09,0,.11.06.21a1.17,1.17,0,0,0,.15.41l0-.17a2.61,2.61,0,0,1,1.29.13l.29-.05s0-.05.05,0l.2-.11c.65-.3,0,.09.65-.31l1-.29,0-.09c.08-.11.06,0-.06-.19a1.3,1.3,0,0,1-.17-1c-.23-.38.27.32-.11-.11l0,0,0,0c-.18-.27,0-.56-.14-1.09L22,10.15c-.39.08-.29.33-.87.29Z"/><path class="cls-1" d="M29.47,28.12c0,.76-.08,1,0,1.66a4.92,4.92,0,0,0,.08,1c.3-.15-.32.17.18-.15h1.5a.54.54,0,0,0,.42-.29c.05.45,0,.1.12.23a8.48,8.48,0,0,1,.19-1.39,4.39,4.39,0,0,1,.44-.73c.1-.2.07-.11.09-.28s0,0-.17,0c0-.22,0-.22,0-.46s.09-.24-.15-.37c.44-.36.23-.71-.72-.21l-.22.11c-.74.38-.35,0-.76.34l-.94.54Z"/><path class="cls-1" d="M12.54,11.26c.28.57.54,1.4.81,2a17.88,17.88,0,0,0,.92,1.94A6.23,6.23,0,0,0,15.5,13.7l0-.1,0-1.58,0-.81c-.84-.06-1.73,0-2.4,0C12.65,11.2,12.71,11.15,12.54,11.26Z"/><path class="cls-1" d="M1.34,19c-.25-.36.14-.18,0-1.18a7.47,7.47,0,0,1,0-1.33c.23.14.57.58.32.59.32.09.08,0,.23.15a4.24,4.24,0,0,0,.56.4,1.67,1.67,0,0,0,1.73.24,14.77,14.77,0,0,0-1.4-1.73c-.41-.43-1-1.33-1.94-1.07-1.6.44-.68,3,.48,3.93Z"/><path class="cls-1" d="M29.44,24.93l-.07.67c.16.24.09.1.08.49a4.61,4.61,0,0,0,0,.65c0,.41-.06,1,0,1.38l1-.54c.41-.35,0,0,.76-.34l.22-.11c1-.5,1.16-.15.72.21.24.13.14,0,.15.37s0,.24,0,.46c.12,0,.13-.1.17,0,.21-.17.21-.33.29-.62a1.83,1.83,0,0,0,.11-.73l0-.46c.14.26-.31.31-.49.3-.27-.53.14-.59-.54-.62.22-.12.27,0,.52-.25,0-.47-.08-.16-.12-.46l.05-.25.06-.19c-.36-.07-.39,0-.7,0a3.08,3.08,0,0,0-.74,0c-.79.14-.16-.17-1.42,0Z"/><path class="cls-1" d="M1.34,19v0l.14.17H4a9,9,0,0,1,.2,1.63,14,14,0,0,0,.18,1.68c0,.25.5.47.52.7.07-.22-.11-.65-.16-1-.11-.69-.53-2.68-.51-3.09.28.06.31.4.4,1,.06.38.16.78.24,1.12S5,22,5.1,22.37a5.24,5.24,0,0,1,.23,1.18l.24.23c-.14-.61-.36-1.33-.45-2A21.12,21.12,0,0,1,5,19.25c-.19.3-.11.45-.13.82a2.48,2.48,0,0,1-.31-.94l.43.05a1,1,0,0,1,0-.3c.06-.18,0-.08.13-.16a6,6,0,0,0-1-.86,1.67,1.67,0,0,1-1.73-.24,4.24,4.24,0,0,1-.56-.4c-.15-.14.09-.06-.23-.15.25,0-.09-.45-.32-.59a7.47,7.47,0,0,0,0,1.33c.15,1-.24.82,0,1.18Z"/><path class="cls-1" d="M26,35.78a4.28,4.28,0,0,0,.22,1.48c.05.22.09.46.16.69a5.17,5.17,0,0,1,.26.69,4.54,4.54,0,0,0,1.73-.94,14.06,14.06,0,0,0,1.15-1.52,3.48,3.48,0,0,1-.12-.89,12.57,12.57,0,0,1-3.4.49Z"/><path class="cls-1" d="M26.49,32c-.07.44-.08,0-.26.8a8.41,8.41,0,0,0-.26,3H26a12.57,12.57,0,0,0,3.4-.49l0-2.21v-.2l-.35,0A4.54,4.54,0,0,1,29,34.78c-.2.47-.68.91-1.19.57s-.26-2.59-.53-3.44l-.12.1c-.14-.17,0-.09-.28-.1a.55.55,0,0,0-.35.06Z"/><path class="cls-1" d="M29,28.78a16.07,16.07,0,0,0,.09,1.78,15.45,15.45,0,0,1,0,1.79c0-.28,0-.1.08-.18s.14-.05.31-.05v.76a8.15,8.15,0,0,0,1.86,0,10.92,10.92,0,0,0,.42-2.22c-.15-.13-.07.22-.12-.23a.54.54,0,0,1-.42.29h-1.5c-.5.32.12,0-.18.15a4.92,4.92,0,0,1-.08-1c-.06-.64,0-.9,0-1.66-.11,0,0,0-.2.11l-.14.18A2.59,2.59,0,0,0,29,28.78Z"/><path class="cls-1" d="M25,32l-.81,3.17-.08.39,1.89.19a8.41,8.41,0,0,1,.26-3c.18-.79.19-.36.26-.8.22,0,0,0,.1-.12A3.41,3.41,0,0,0,25,32Z"/><path class="cls-1" d="M18.28,22.87c.29.24,0-.27,0,.1,0,0,.1,0,0,.11s-.05,0-.06,0h.33c.28-.23.46-.22.9-.12.28.07.61.12.89.2a5.83,5.83,0,0,0,1.76.5L22,23.47c.3,0,.22,0,.15-.3.06.13,0,0,.17.06-.18-.44-.7-.91-.33-1.52h.32l-.06,0-.18-.08-.16,0c-.21-.39.29,0-.21-.37L21.36,21c-.61-.42,0,.13-.27-.25a5.35,5.35,0,0,0-1.5,1l-.67.55a4.34,4.34,0,0,0-.64.54Z"/><path class="cls-1" d="M32.88,14l-.32.2c.37-.06,0-.06.24.11A10.67,10.67,0,0,1,34.69,16l.26.36.08,0c.37,0,.3-.18.57-.1V16a.71.71,0,0,1,.18-.07,3.88,3.88,0,0,0,.61-1.3c-.06,0-.49-.35-.25-.46l-.32,0s.06.09.06,0-.07,0-.16-.24a19.12,19.12,0,0,0-2.84.1Z"/><path class="cls-1" d="M11.39,1.58a.21.21,0,0,0,0,.06l-.1.23a.7.7,0,0,1-.11.29,2,2,0,0,0-.12.25,5.92,5.92,0,0,0-.21.58l.49,0,0,.68,2.5,0,0-.13a4.14,4.14,0,0,0-.42-1.12c-.13-.26-.33-.83-.59-1-.13.24-.31.17-.64.17s-.51,0-.79,0l0-.13Z"/><path class="cls-1" d="M10.63,5.5c0-.35-.08-.51-.07-.92a5,5,0,0,1,.06-.88,14.26,14.26,0,0,0,.06-2l-.39-.05A4.31,4.31,0,0,1,10.34.53c-.34,0-.53-.11-.77.06C8.9,1,9.21,2.34,9.4,2.89a18.56,18.56,0,0,0,1.08,2.44l.15.17Z"/><path class="cls-1" d="M4.39,22.49a14,14,0,0,1-.18-1.68A9,9,0,0,0,4,19.18H1.49L1.35,19a20.53,20.53,0,0,0,1.51,1.77c.37.41,1.31,1.56,1.53,1.71Z"/><path class="cls-1" d="M15.55,29.52l0,.13,0,.63H13.2a5.69,5.69,0,0,0,0,.91c-.11.14.17.16-.18.1l.09,0a9,9,0,0,0,2.69.46l.51-1.48-.13.07a1.27,1.27,0,0,1-.42-.67.6.6,0,0,1-.05-.31c-.23.14-.13-.08-.2.13Z"/><path class="cls-1" d="M6.91,11.17l2,.09H9l.77-.58c-.16-.35-.25-.69-.41-1.05a7.62,7.62,0,0,0-.46-.95c-.07-.11-.07-.08-.12-.13l-.18.21L8.5,8.9l-1.37,2c-.09.12-.15.19-.22.3Z"/><path class="cls-1" d="M32.09,20.53a.58.58,0,0,0,.13.15l.28.44c-.1.09,0,0-.13.09l-.11,0c.16.4-.18,0,0,1,.05.24,0,.16,0,.28v.08a.54.54,0,0,0,.11.22c-.08.16,0,0-.21.19.25.37.12.45.08.57l0,.23V24c.06.43,0,.25,0,.4s-.2,0,.06,0l0,.41a.13.13,0,0,0,0,.06.49.49,0,0,0,.14.06.6.6,0,0,0,.55-.07l0,0a19.54,19.54,0,0,1,.52-3.68,3.57,3.57,0,0,1-.93-.73l-.67-.3c.08.26,0,0,.1.18s0,0,.09.25Z"/><path class="cls-1" d="M4.91,7.25V7H6.19c0,.25,0,.22,0,.51a1.17,1.17,0,0,1,.18-.46.55.55,0,0,1,.31,0l.16,0c.43-.08.83,0,1.3,0a2.8,2.8,0,0,0-.59-1.15c-.9-1.18-2.44.12-2.63.58l0,.75Z"/><path class="cls-1" d="M18.29,9.44,18.66,12l.55-.23c.5-.3.26-.26.55-.35s.29-.22.4-.31l.58-.42c.28-.27.19,0,.34-.21a1.43,1.43,0,0,1-1.52-1.51s-.09.1-.13.16l-.1.09c-.3.26-.17-.07-.34.33-.24-.15-.2,0-.35,0-.4.07-.15.1-.35-.07Z"/><path class="cls-1" d="M14.47,24.74l-.15.17c.07.09.15,1,.23,1.36.27.11-.08-.13.26.83v0c0,.1,0,0,0,.15s.07.28.11.46a16.12,16.12,0,0,1,.58,1.62v.28h0l0-.13,0-4.78c0-.26.06-.13-.07-.19a2.52,2.52,0,0,0-1,.19Z"/><path class="cls-1" d="M11.18,31.93l.07.17a9.93,9.93,0,0,0,1.9,0v-.82l-.09,0a13.9,13.9,0,0,1-2.4-1.12h-.1l-.3,0a4.38,4.38,0,0,0,.45.89c.12.25.32.59.47.84Z"/><path class="cls-1" d="M22.32,30.32c-.17.12-.06,0-.1.23l-.41,1.59c-.17.62-.42,1.17-.62,1.75.11,0,.13,0,.08-.06.05.26.08.21.18.29l.7-.76a1.26,1.26,0,0,0,.36-.27v.76l.11-.25c0-.26,0-.52,0-.78a24.9,24.9,0,0,1,.45-2.7c-.26.11-.47.26-.75.39Z"/><path class="cls-1" d="M11.4,7.44c.3.15,0,0,.21.2l.36.48.07.06.12.06c.15.08,0-.08.08.13s.52.38.58.59l.78-.25c-.26,0-.13,0-.17-.38a.7.7,0,0,0,0-.21c-.07-.31.09,0,0-1-.62,0-1.39,0-2,0C11.31,7.28,11.35,7.19,11.4,7.44Z"/><path class="cls-1" d="M18.5,31.66c.1.19.75,0,.9-.08.14-.23.22-.49.37-.77.43-.79,1.1-1.82.71-2.44-.66,0-.83,1-1.08,1.57S18.59,31.41,18.5,31.66Z"/><path class="cls-1" d="M25.35,30v.56a6.06,6.06,0,0,1,.74,0c.37,0,.52.09.7-.15,0-.33,0-.71,0-1.06s.05-.55-.22-.86c-.64-.07-1.3.8-1.23,1.5Z"/><path class="cls-1" d="M20,8.79a5.53,5.53,0,0,1,1.69.65h.08l.1-.64,0,0,0,0,.16-.13a1.09,1.09,0,0,0,.15-.39L22.2,8c-.39-.15-.35-.38-1-.47h-.28c-.31.52-1,1-.91,1.26Z"/><path class="cls-1" d="M16.65,1c.25-.1.15.21.15,1,0,.41,0,.83,0,1.24l.11-.14,0,0a6.61,6.61,0,0,1,1.14-1.79c.16-.17.46-.62.75-.61A1.56,1.56,0,0,0,17.63.4a1.46,1.46,0,0,0-1,.61Z"/><path class="cls-1" d="M22,10.15l.18.07c.1.53,0,.82.14,1.09l0,0,0,0c.38.43-.13-.27.11.11a1.3,1.3,0,0,0,.17,1c.12.23.14.08.06.19a1.45,1.45,0,0,1,.83-.11,12.15,12.15,0,0,1-.28-1.34c-.1-.44-.22-.87-.33-1.26a1.64,1.64,0,0,1-.58-.27h0c0,.29,0,.11-.13.3l-.18.16Z"/><path class="cls-1" d="M6.52,11.35l.79,1.84c.06-.26.12-.27.42-.62l.8-.87.2-.2.1-.09c.11-.11.05,0,.12-.15l-2-.09c-.06.08.16.13-.24.08-.18,0,0,0-.19-.09l0,.19Z"/><path class="cls-1" d="M19.56,8.93a1.43,1.43,0,0,0,1.52,1.51c.06-.06.06-.25.06-.43l.3-.16,0,0,0,0c.06-.09,0-.07.08-.16l.14-.17A5.53,5.53,0,0,0,20,8.79l-.46-.09v.23Z"/><path class="cls-1" d="M25,32a3.41,3.41,0,0,1,1.62-.18,2.63,2.63,0,0,1,.16-.38c.09-.25.06-.28.22-.45l-.17-.57c-.18.24-.33.16-.7.15a4.56,4.56,0,0,0-.74,0V30a.79.79,0,0,0-.09.52A3.09,3.09,0,0,1,25,32Z"/><path class="cls-1" d="M14.59,22.19c.19,0,.06,0,.27-.1S15,22,15.1,22a1.46,1.46,0,0,0,.44-.31,10.4,10.4,0,0,0,0-1.49,13.51,13.51,0,0,0,0-1.42c-.33.25,0,.27-.3.68l-.18.32.4.29c-.16,0-.2-.08-.38-.13l-.15.37s0,.09-.05.14c-.09.26-.11.43-.2.65s-.05,0-.07.29c0,.43-.16.28-.18.54V22c0,.09,0,0,0,.2Z"/><path class="cls-1" d="M13.16,29.47a2.46,2.46,0,0,1-.05.74c.8,0,1.6,0,2.42,0l0-.52v-.28c-.51.19-1.89-.17-2.39.1Z"/><path class="cls-1" d="M13.11,30.21l-2.45,0a14.69,14.69,0,0,0,2.4,1.12c.35.06.07,0,.18-.1a5.69,5.69,0,0,1,0-.91h2.42l0-.63h0l0,.52c-.82,0-1.62,0-2.42,0Z"/><path class="cls-1" d="M13.1,26.09c.41-.07,0,.08.6.07a1.61,1.61,0,0,1,.85.11c-.08-.34-.16-1.27-.23-1.36l.15-.17a4.91,4.91,0,0,1-1.38,0c-.05.21,0,.09,0,.34,0,.08,0,.2,0,.29a5.88,5.88,0,0,1,0,.73Z"/><path class="cls-1" d="M29.43,35.29a3.32,3.32,0,0,0,.49-.14,3.89,3.89,0,0,0,.49-.2.62.62,0,0,0,.23-.42c0-.3-.35-.73-.58-.9s-.17-.24-.39-.44,0-.06-.2-.11Z"/><path class="cls-1" d="M29.47,33.08c.19.05.07,0,.2.11s0,.17.39.44.61.6.58.9a4.3,4.3,0,0,0,.69-1.69,8.15,8.15,0,0,1-1.86,0v.2Z"/><path class="cls-1" d="M9.41,17.73a3.31,3.31,0,0,0,1,1.44c.08,0-.06,0,.1.07a1.82,1.82,0,0,0,.28.11,3.74,3.74,0,0,0,.6.21c-.11-.18,0-.08-.17-.19s-.38-.13-.54-.27-.2,0,0-.48l0-.13v-.06s-.15-.06.2-.12a.57.57,0,0,1-.32-.15.64.64,0,0,1,.22-.24c-.31-.12-.2-.18-.33-.4a2.34,2.34,0,0,0-1.06.21Z"/><path class="cls-1" d="M27.28,20.73a1.88,1.88,0,0,1,.06.59,3.31,3.31,0,0,1,0,.33c0,.23-.08.09,0,.19.26-.06,1.11-.45,1.16-.66l.06-1.1a2.14,2.14,0,0,0-.69.29A4.74,4.74,0,0,0,27.28,20.73Z"/><path class="cls-1" d="M32.88,14a19.12,19.12,0,0,1,2.84-.1c-.24-.27-.13-.17-.22-.35s-.14-.14-.22-.39a3,3,0,0,0-2.13.62l-.11.08-.12.1,0,0Z"/><path class="cls-1" d="M22.15,33.36l-.58.75c-.47.35-.08.09-.37.47,0,0,0,.05,0,0s0,0,0,0l0,0a8.21,8.21,0,0,0,1.08.38,8.4,8.4,0,0,0,.34-1.22v-.76a1.26,1.26,0,0,1-.36.27Z"/><path class="cls-1" d="M18.5,31.66a4.54,4.54,0,0,0-.45.78c0,.26.15.3.35.45l.21.18a1,1,0,0,1,.24.26H19a7.31,7.31,0,0,1,.41-1.76c-.15.05-.8.27-.9.08Z"/><path class="cls-1" d="M10.66,30.18l2.45,0a2.46,2.46,0,0,0,.05-.74,5.16,5.16,0,0,0-1.41.2,1.51,1.51,0,0,0-.35.08c-.72.29-.05.11-.81.23Z"/><path class="cls-1" d="M4.91,23.19l.42.36a5.24,5.24,0,0,0-.23-1.18C5,22,5,21.62,4.88,21.24s-.18-.74-.24-1.12c-.09-.57-.12-.91-.4-1,0,.41.4,2.4.51,3.09,0,.3.23.73.16,1Z"/><path class="cls-1" d="M18.09,1.27l.1-.13.77.31c.15.12.11-.13.11.27.26-.16.27,0,.44.15a.81.81,0,0,1,.19.18l.08.21c.12.18.11,0,.31.39a1.39,1.39,0,0,0,.34.5A4.24,4.24,0,0,0,18.84.66C18.55.65,18.25,1.1,18.09,1.27Z"/><path class="cls-1" d="M22.67,12.67l0,.09c.06.26-.06.13.18.29-.07.12-.11.13,0,.3a.44.44,0,0,0,.22.17h.14a1.76,1.76,0,0,0,.15.62c.19.11.05.08.33.08a1.07,1.07,0,0,0,.08.41l.07,0a15,15,0,0,0-.29-2.12A1.45,1.45,0,0,0,22.67,12.67Z"/><path class="cls-1" d="M29,28.78a2.59,2.59,0,0,1,.15-.37l.14-.18c.16-.15.09-.07.2-.11-.06-.42,0-1,0-1.38a4.61,4.61,0,0,1,0-.65c0-.39.08-.25-.08-.49a.69.69,0,0,0-.13.43c-.1.83-.44,1.65-.42,1.94a2,2,0,0,0,.16.81Z"/><path class="cls-1" d="M18.29,9.44c.2.17-.05.14.35.07.15,0,.11-.15.35,0,.17-.4,0-.07.34-.33l.1-.09c0-.06.1-.12.13-.16v-.3c-.35,0-.94-.21-1.42-.21l.14,1Z"/><path class="cls-1" d="M20.75,13.5c1.77,0,.6.15,2.12.25-.23-.11-.27,0-.34-.27.74.21.16.14.53.4.06-.08.08.14.06-.19,0-.17,0-.1-.1-.17a.44.44,0,0,1-.22-.17c-.08-.17,0-.18,0-.3-.24-.16-.12,0-.18-.29l-1,.29c-.62.4,0,0-.65.31l-.2.11s0,0-.05,0Z"/><path class="cls-1" d="M11.41,7.64a3.81,3.81,0,0,0,.28,1,3.79,3.79,0,0,0,.37,1L12,9.31,12.82,9c-.06-.21-.47-.41-.58-.59s.07,0-.08-.13L12,8.18,12,8.12l-.36-.48c-.18-.22.09,0-.21-.2Z"/><path class="cls-1" d="M27.27,22.74l0,1.12a1.87,1.87,0,0,0,.73-.32l.28-1.12c-.07-.08.16-.07-.16-.07l-.88.39Z"/><path class="cls-1" d="M6.91,11.17c.07-.11.13-.18.22-.3l1.37-2,.11-.15.18-.21c.05.05.05,0,.12.13L8.59,8c0,.39-.05.17-.2.43a1.9,1.9,0,0,0-.11.21l-1.6,2.5.23,0Z"/><path class="cls-1" d="M21.22,7.53c.62.09.58.32,1,.47a13,13,0,0,0-.53-1.56c-.12-.43,0-.38-.22-.56a1.06,1.06,0,0,1-.16.94c-.17.29-.16.54-.47.65l.4.06Z"/><path class="cls-1" d="M28.15,22.35c.32,0,.09,0,.16.07L28,23.54c.57-.32,1.3-.45,1-1.24a1.11,1.11,0,0,0-.91.05Z"/><path class="cls-1" d="M10.68,1.72c.1,0,.21,0,.31,0,.41.05.21-.07.26.16l.1-.23a.21.21,0,0,1,0-.06A5,5,0,0,0,11.72,1c-.22-.14-.11-.09-.34-.14s-.06,0-.16,0-.05,0-.13-.09L10.67.64V1.72Z"/><path class="cls-1" d="M19.14,13.59l.24.76c.1.18,0,0,.09.13l0-.22c.43-.06-.12,0,.53-.3a1,1,0,0,0,.49-.41,2.61,2.61,0,0,0-1.29-.13l0,.17Z"/><path class="cls-1" d="M18.72,23.81l1.19.23c.33.06.75.35,1,.18-.14-.23-.26-.16-.59-.28s-.39-.17-.58-.25a8.19,8.19,0,0,1-1.24-.42c.07.26,0,.08.08.24.19,0,0-.05,0,.06l.11.24Z"/><path class="cls-1" d="M16.65,1a2.58,2.58,0,0,0-.16,1.37,3.48,3.48,0,0,0,.3,1.26c0-.3.11-.26.16-.58l0,0-.11.14c0-.41,0-.83,0-1.24,0-.78.1-1.09-.15-1Z"/><path class="cls-1" d="M19.57,8.63V8.7l.46.09c-.12-.31.6-.74.91-1.26a1.2,1.2,0,0,0-.92.34c-.38.35-.23.33-.45.76Z"/><path class="cls-1" d="M21.8,9.44l.46.25h0c.1-.24.14-.16.17-.47a2.72,2.72,0,0,0,0-.7c-.05-.19,0-.17-.18-.29a1.09,1.09,0,0,1-.15.39L22,8.75l0,0,0,0-.1.64Z"/><path class="cls-1" d="M21.08,10.44c.58,0,.48-.21.87-.29l.18-.16c.18-.19.11,0,.13-.3l-.46-.25h-.08l-.14.17c-.06.09,0,.07-.08.16l0,0,0,0-.3.16c0,.18,0,.37-.06.43Z"/><path class="cls-1" d="M22.32,30.32v.19c.28-.13.49-.28.75-.39.05-.19.21-.41.2-.6s0-.08-.08-.18c-.38-.19-.82.61-.86,1Z"/><path class="cls-1" d="M11.09.76c.08.1,0,0,.13.09s0,0,.16,0,.12,0,.34.14l.1,0A.67.67,0,0,1,12,.81L12.1.73c.1-.06,0,0,.17,0-.08-.17,0,0-.12-.17A1.3,1.3,0,0,0,12,.36,1.29,1.29,0,0,0,11.6.14L11.29.08V.71c-.06,0,0,.06-.21.05Z"/><path class="cls-1" d="M15.54,13.6a1.51,1.51,0,0,0,.4-.62,2.9,2.9,0,0,0,.28-.72,1.07,1.07,0,0,1-.4-.1l-.16-.08c-.11-.06.15,0-.1-.06l0,1.58Z"/><path class="cls-1" d="M10.63,5.5l.16.38c0-.26-.14-.43-.17-.65a6.61,6.61,0,0,1,0-.78A5.08,5.08,0,0,1,10.81,3,5.92,5.92,0,0,1,11,2.41a2,2,0,0,1,.12-.25.7.7,0,0,0,.11-.29c-.05-.23.15-.11-.26-.16-.1,0-.21,0-.31,0a14.26,14.26,0,0,1-.06,2,5,5,0,0,0-.06.88c0,.41.07.57.07.92Z"/><path class="cls-1" d="M11.39,1.58l0,.13c.28,0,.52,0,.79,0s.51.07.64-.17c-.21,0-.31-.13-.53-.23L12,1.2c-.29-.13-.12,0-.22-.15l-.1,0A5,5,0,0,1,11.39,1.58Z"/><path class="cls-1" d="M29.43,35.29a3.48,3.48,0,0,0,.12.89A6,6,0,0,0,30.41,35a3.89,3.89,0,0,1-.49.2,3.32,3.32,0,0,1-.49.14Z"/><path class="cls-1" d="M35,16.31l0,0-.08,0c-.47,0-.57-.19-1.07-.25-.25,0-.21,0-.41-.16,0,.31,0,.12-.07.18L33.31,16l0,0a.28.28,0,0,0-.21-.1l-.5-.08c0,.08-.09.14.41.28a4,4,0,0,0,.62.15.86.86,0,0,1,.17,0c.21.06,0,0,.14.06l.9.21.19-.19Z"/><path class="cls-1" d="M35.72,13.88a.91.91,0,0,0,.63,0c-.17-.46-.49-.64-1.07-.71.08.25.13.2.22.39s0,.08.22.35Z"/><path class="cls-1" d="M11.82,1.05c.1.18-.07,0,.22.15l.28.11c.22.1.32.22.53.23,0-.24-.09-.26-.23-.46L12.46.84a.64.64,0,0,0-.19-.16c-.15,0-.07,0-.17,0L12,.81a.67.67,0,0,0-.17.24Z"/><path class="cls-1" d="M10.68,1.72V.64L10.52.59l-.19,0h0a4.31,4.31,0,0,0-.05,1.14Z"/><path class="cls-1" d="M28.49,21.18c.65-.26.79-.95.06-1.1Z"/><path class="cls-1" d="M10.52.59l.15.05.42.12c.26,0,.15,0,.21-.05V.08a1,1,0,0,0-.55.07c-.15.1-.1.19-.1.42Z"/><path class="cls-1" d="M23.39,15.6s0,0,0,0a1.52,1.52,0,0,0,.36-.88l-.07,0-.16-.08-.09,0c-.16-.09,0,0-.18-.11a1.5,1.5,0,0,1-.1.83l.24.12,0,.24Z"/><path class="cls-1" d="M26.59,31.85c-.06.16.12.08-.1.12a.55.55,0,0,1,.35-.06c.25,0,.14-.07.28.1l.12-.1L27,31c-.16.17-.13.2-.22.45a2.63,2.63,0,0,0-.16.38Z"/><path class="cls-1" d="M34.07,19.26l.19-.5c-.36,0-.24,0-.7-.37l-.29-.23A1.78,1.78,0,0,1,33,18c.07.13,0,0,.12.15l1,1.12Z"/><path class="cls-1" d="M33,17.56l.2-.18c-.44-.15-.51-.45-1.21-.58.06.21,0,.11.19.23s.33.43.82.53Z"/><path class="cls-1" d="M30.76,16.52c.06.19,0,0,.15.12s.29.27.54.48l.71.54c.27.22.22.15.34,0a2,2,0,0,0-1-.66c-.17,0,0,.05-.12,0l-.6-.6Z"/><path class="cls-1" d="M22.31,9.69a1.64,1.64,0,0,0,.58.27l-.42-1.39,0-.05a2.72,2.72,0,0,1,0,.7c0,.31-.07.23-.17.47Z"/><path class="cls-1" d="M29.09,32.35l0,.57.35,0v-.76c-.17,0-.18,0-.31.05S29.05,32.07,29.09,32.35Z"/><path class="cls-1" d="M9,11.25l.23.1a1.57,1.57,0,0,1,.29-.13c.1,0,.17,0,.22,0s.11,0,.22-.08l-.19-.44L9,11.25Z"/><path class="cls-1" d="M36.39,14.65a1.54,1.54,0,0,0,0-.8.91.91,0,0,1-.63,0c.09.21.17.14.16.24s-.05,0-.06,0l.32,0c-.24.11.19.42.25.46Z"/><path class="cls-1" d="M21.19,33.89c-.07.15-.13.33-.19.5l0,.23.15,0s0,0,0,0,0,0,0,0c.29-.38-.1-.12.37-.47l.58-.75-.7.76c-.1-.08-.13,0-.18-.29.05.09,0,0-.08.06Z"/><path class="cls-1" d="M32.22,20.68a.58.58,0,0,1-.13-.15l-.38-.15c.09.38.14.68.55.75Z"/><path class="cls-1" d="M25.18,28.23a.86.86,0,0,0,.63,0,.69.69,0,0,0,.09-.36,1.62,1.62,0,0,0,0-.2c-.06-.23,0-.09-.08-.16,0,.24-.11.26-.22.4S25.45,28.17,25.18,28.23Z"/><path class="cls-1" d="M5,19.25v-.07l-.43-.05a2.48,2.48,0,0,0,.31.94c0-.37-.06-.52.13-.82Z"/><path class="cls-1" d="M35,16.29l0,0,.32.25-.06.24.1-.11.18-.28a1.66,1.66,0,0,0,.24-.46.71.71,0,0,0-.18.07v.17c-.27-.08-.2.1-.57.1Z"/><path class="cls-1" d="M10.33.54l.19,0,.12,0c0-.23-.05-.32.1-.42a1,1,0,0,1,.55-.07l.31.06L11.31,0l-.4,0a2.26,2.26,0,0,0-.55.22l0,.29Z"/><path class="cls-1" d="M22.09,23.64h.53a.52.52,0,0,0-.32-.41c-.17-.06-.11.07-.17-.06.07.29.15.26-.15.3Z"/><path class="cls-1" d="M34.4,18.49l.08-.27c-.13-.24-.2-.21-.42-.34s0-.05-.06,0-.16-.11,0,.18Z"/><path class="cls-1" d="M10.26,30.2l.3,0a2.23,2.23,0,0,0-.69-.53c.12.25.16.43.39.55Z"/><path class="cls-1" d="M23.29,14.41c.13.1,0,0,.18.11l.09,0,.16.08a1.07,1.07,0,0,1-.08-.41c-.28,0-.14,0-.33-.08Z"/></g></g></g></svg>