<svg xmlns="http://www.w3.org/2000/svg" viewBox="0 0 90.09 55.15"><defs><style>.cls-1{fill:#2b2a29;fill-rule:evenodd;}</style></defs><g id="Слой_2" data-name="Слой 2"><g id="Слой_1-2" data-name="Слой 1"><g id="_3015320379968" data-name=" 3015320379968"><path class="cls-1" d="M13.82,48.69a2.83,2.83,0,0,0,.94,1,.82.82,0,0,1-.51.53c-.63,1.28-3.34,3.51-4.6,4.39-.22-.3-2.11-5.9-2.39-6.73A51.83,51.83,0,0,0,2.9,38.49c-.59-1-1-2-1.61-3C1,35,.78,34.48.56,34c-.33-.8.09-1.21.47-1.62s.64-.71,1.05-1.2.81-.85.89-1.45c.42.33.12.31.57,1.37a13.37,13.37,0,0,0,.59,1.27C5.34,34.53,5.62,35.2,7,37.4l.15.24c.16.26.22.36.37.63,0,.1.09.16.15.26C9,40.82,11.85,45,12.51,46.28l.61,1.24C13.63,48.46,13.76,48.3,13.82,48.69Zm58.64-16.4a2.24,2.24,0,0,1,.08,1.49c-.11.33-.59.63-1,.82l-1.07.59c0-2.42-.17-1.59-.76-2.48a1.89,1.89,0,0,1,1.14-.55c.36,0,1.41-.14,1.58.13Zm-1.13-4.14a4.24,4.24,0,0,1,2.6-.69c.77,0,1.35,0,1.69,1.5.29,1.29-.41,1.34-1.4,1.69a8.82,8.82,0,0,1-3.14.21l0-.59a3.2,3.2,0,0,0-.57-1.79l.35-.23a1,1,0,0,1,.49-.1ZM53.56,25.69a20.13,20.13,0,0,0,1.94.57,5.27,5.27,0,0,1-.38,1,2.72,2.72,0,0,1-.27.4l-.43.38a3.19,3.19,0,0,0-.29-1.29L53.72,26c-.12-.21,0,0-.16-.3ZM42.7,12.41c-.39.3-1,.67-1.46,1s-1,.65-1.52.94l-1.6.87c-.48.25-1.2.54-1.77.77-2,.82-6.05,2-8.21.74a4.6,4.6,0,0,1-2.62-3,5.41,5.41,0,0,1-.18-2.44,3.34,3.34,0,0,1,.88-2,3.6,3.6,0,0,1,1.09-1.43c1.22-1,2.54.24,4.31-.8,1.14-.67.91-1.19,1.52-.83A25.75,25.75,0,0,1,38.37,8.9c1.23.74,4.06,2,5,3-.09.13,0,0-.14.17l-.17.13c-.13.1-.2.13-.36.24Zm18.41-8.3s0,0,.06.06a2.6,2.6,0,0,0,.9,1.13L61.53,4c.83-.57,1.65-1.73,3.2-1.41.54,1.28-.81,2.53-1.77,2.69l-.68.17,1,.12-.4.32c-1.67,1.21-3.69,1.66-6.5,3.82-.26.2-.51.34-.79.58L50.22,14.7c-2,1.61-4.37,2.92-6.55,4.56-1.26.95-4.87,4.23-5.39,5.66.73.09.63-.61,1.53-1.48A21.25,21.25,0,0,1,43.31,20a5.11,5.11,0,0,1,1.38-1c.16-.35.19-.22.51-.49s.73-.55,1.11-.72a1.71,1.71,0,0,1,.56,1.33c.54.94-.78,3-1.18,3.62-.49.81-1.4,1.85-2.06,3a30.48,30.48,0,0,0-1.48,3.52c-1.34,3.15-2.22,1.87-2.78,2.34.15.39.66.27,1,.24-.08,2,1.12,3.4-.53,4.88-1,.85-4.08,1-4.05,2.07.45.09.29.09.61-.19a3,3,0,0,1,.58-.41,4.24,4.24,0,0,1,1.39-.43c.48,2.44,1.39,4.55-3.11,5.06A96.61,96.61,0,0,0,20.16,46a16,16,0,0,0-4.46,2.32c-.81.62-.83.57-.9,1.05l0,.2A9.73,9.73,0,0,1,13.07,47c-.51-1-1.08-1.79-1.65-2.67S8.51,39.85,8.17,39a20.71,20.71,0,0,1-1.35-2.24,16,16,0,0,1-1.27-2.43l-.31-.4A4.83,4.83,0,0,1,5,33.44a11.49,11.49,0,0,1-1.32-3,1.56,1.56,0,0,1-.14-.78c.4.3.65-.27,1.38-1a5,5,0,0,0,.4-.49c.53-.66,1-1.2,1.61-1.93a102.71,102.71,0,0,0,8.23-12.9c1.15-2.13,3.92-6.86,5.24-8.81.93-1.36,1.94-3,3.41-3.67,1.65-.71,4,.76,5.67,1,.28,1,.54,1.49,1.81,1.36A5.05,5.05,0,0,0,32.57,3c.43-.18.6-.41.93-.57.36,1.28-.86,3.37-1.42,3.81-1.54,1.2-2.25.75-4.34.77a12.37,12.37,0,0,0-2,2.06,5.56,5.56,0,0,0-.06,6.17,5.38,5.38,0,0,0,.95,1c.3.28,1.05.61,1.24.84.49,0,1.35.32,2,.37a11.3,11.3,0,0,0,2.4-.09,23.08,23.08,0,0,0,9.1-3.66,10.43,10.43,0,0,1,1.55-1s0-.07.06-.06l1.14-.84A12.29,12.29,0,0,1,45.4,11c2-1.48,6.77-4,9.16-5.38,1.28-.74,8.86-5.49,10.11-3.13A3.24,3.24,0,0,0,61.3,3.67c-.22.22-.2.14-.19.44ZM29.76,2a20.19,20.19,0,0,1,3.6,0C33.15,3,30.13,3.8,29.76,2Zm15.67,8.48a9.18,9.18,0,0,1-1.58,1.15,42.66,42.66,0,0,0-5.08-3c-.92-.49-1.67-1-2.55-1.48l-2.7-1.37c-1.11,0,.61-.61.53-3.41,1-.78,2.7-.29,3.88.22,2.85,1.23,2.24,1.81,2.68,2.2.19-.07.07,0,.22-.14l0,0L41,4.44s0,0,0-.06c3.2.22,6.41,4.1,8.22,3.79-.17-.28-.67-.4-1-.56-1.95-1-5.21-3.9-7.31-3.4-1.25-1.9-5-3.35-7-2.26l-.18-.13,0,0c-.76-.52-1.82-.19-3-.19-3.75,0-6.13-3.6-9.62,1.16-.17.23-.24.38-.39.58C19.37,5.1,17.1,9,16,10.85c-2.58,4.4-6.92,12.42-10.4,16.24l-1.75,2c-.37-.13-.65-.27-1,.11-.44.57,0,.52-.85.64,0,.85.15.45-.39,1.08-.38.46-.19.59-.92.47C.47,31.88.19,32.47,0,33c0,1,2,4.44,2.58,5.44a57.57,57.57,0,0,1,4.9,11c.27.76,1.71,5.57,2.26,5.72a23.6,23.6,0,0,0,3.52-2.81,13.65,13.65,0,0,1,1.05-1.21c.19-.53.73-.86,1.09-1.28-.13-.33-.13-.05-.17-.56.4-.23.81-.64,1.29-1a15.87,15.87,0,0,1,4.6-2.18,62.85,62.85,0,0,1,7.3-1.75c2.79-.57,5.26-.8,7.76-1.26C40.71,42.3,39,39,38.91,37.62l.21-.11.21-.09c1.73-.72,2.24-2.07,1.8-3.93-.13-.56-.13-1.43-.29-1.9.27-.21.54-.51.78-.68.15-.41.51-.82.76-1.34a28.68,28.68,0,0,1,1.91-4.29C45.07,24,46,23,46.77,21.58c.25-.46.39-1.06.62-1.49a5.75,5.75,0,0,0-.08-1.55,7,7,0,0,0-.53-1.06,25.64,25.64,0,0,1,2.68-1.76,10.51,10.51,0,0,1,3.27,2.74c-1.08.46-2,2.89-1.73,4.55.48,2.51,3,1.67,3.1,4.88,0,.85-.16.58-.5,1.1a3.08,3.08,0,0,0-.35,2.49c.49,1.78,1.88,1.55.71,4.75-.83,2.3-.55,3.31,1.09,4.36.8.52,1.7.44,2.36.78,2.52,1.31,3.08.61,5.39,1,1,.16,7.6,1.54,7.7,1.82.22.62.11,1.51,1.24,2-.22-.35,0,0-.17-.22a2,2,0,0,1-.5-1.62c.92.11,1.06.79,2.52.76l-2.35-1.2c-1.82-.7-8.21-1.75-8.64-2,.5-.07,1-.1,1.19-.49-.31-.17-3.61.81-5.21,0l-.07,0-.08-.05-.07-.06-.07-.07-.07-.07c2.74-.06,10.57-2.85,13.06-5,1.18-1,2.06-1.87,1.53-4.13,2.15-.17,3.91-1.27,2.92-3.68A3.44,3.44,0,0,0,74,26.69c-.7-.33-2.31-.7-2.92-.15.22.68,2.19-.23,3.24.69A6,6,0,0,0,71,28a1.29,1.29,0,0,0-.66.33c0,.62.49.49.45,1.4.21.34.05.9.18,1.4a18.37,18.37,0,0,0,2.57,0,7.08,7.08,0,0,0,2-.64c-.44,1.07-2.59,1.27-3.64,1.28-7.52.05-6.91,1.51-12.48,2.3v.38A26.48,26.48,0,0,1,62.11,34c2.26-.44,5.56-1.93,7.84-1.8-1,.41-.11.87.09,1.19a3.84,3.84,0,0,1,0,2l0,.27a9,9,0,0,0,2.16-1.13C72,35.64,69,37.24,67.88,37.77a38,38,0,0,1-5.65,2.1c-1.94.59-4.35,1.49-6.52.73a2.28,2.28,0,0,1-1.82-2.1,13,13,0,0,1,.83-3,4.15,4.15,0,0,0,.05-1.57,12.58,12.58,0,0,0-.49-1.17,1.32,1.32,0,0,1-.28-.34L53.56,31c-.24-2.23,3.29-3.66,2-4.73a24.49,24.49,0,0,0,3.66.21c.7,0,3.35-.16,3.77.15.75-.08,1.29.23,2,.14l-1.14-.29a33.6,33.6,0,0,0-5.35-.23c-4,0-8.82-1.29-6.58-6.15a2.49,2.49,0,0,1,1.29-1.49,6.48,6.48,0,0,0-2.47-2.46,6.83,6.83,0,0,1-1-.68l1.31-1a6.87,6.87,0,0,1,.82-.71l5.73-4.6c2.36-1.64,5.74-2.8,7.24-4.61.08-.16.47-.91.55-1-.16-.7.08-.91-.43-1.47a2.05,2.05,0,0,0-1.16-.6C64.37.9,64.5.32,65.87.28a25.53,25.53,0,0,1,2.78.43c1.13.1,2-.16,2.93.44s2,3,2.45,4.14c1.21,2.89,1.47,2.81,3.24,5,2.64,3.28,2.65,6.69,4.14,10.59,1.29,3.36,4.61,6.52,2.43,8.56l-.38.43a2.41,2.41,0,0,0,1.47-2,5,5,0,0,0-.7-2.64,45.71,45.71,0,0,1-2.34-4.44c-1.59-4.16-1-5.87-3.59-10l-1.53-1.9c-2.31-2.77-2.09-4-3.58-6.55S71.3.92,68.45.35a6.76,6.76,0,0,0-3-.26C64.22.4,64.07,1,63.55,1.5c-2.75-.05-7.47,2.91-9.52,4l-8.35,4.82c-.21.11,0,.06-.25.1Z"/><path class="cls-1" d="M79.68,49.19a7.34,7.34,0,0,0,4.44-3.44A49.9,49.9,0,0,0,89.19,35.1c.3-1,1.45-5.94.59-6.68.28,1-.75,5.49-1,6.61a24.36,24.36,0,0,1-7.06,12.3l-2,1.86Z"/><path class="cls-1" d="M70.48,7l.1-.13a4.51,4.51,0,0,0,.87-1.07c-.83.07-.89,1.4-2.53,1.77-.26-.19-.3-.39-.67-.64-1.07-.74-2.21-.71-2.67-1.2-.5,0-.76-.51-1.14-.25a25.45,25.45,0,0,0,3,1.35c1.72.91,2.69,4.3,2,6.14a6,6,0,0,1-2,2.38c-1.86,1.05-7.8-1.38-10-2.28-.69-.28-2.52-1.3-3.12-1.21a30,30,0,0,0,5.06,2.23c2.25.77,6.68,2.59,8.68,1.2a7.94,7.94,0,0,0,1.67-2,5.71,5.71,0,0,0-.18-4.49C69.28,8,69.16,8.2,69,7.59A8.91,8.91,0,0,0,70.48,7Z"/><path class="cls-1" d="M81.29,38.66a11.57,11.57,0,0,1-1.48,1.9c-.09.09-.22.15-.3.31-.19.37.09.63.41.3.08-.08.19-.3.27-.4l.67-.83a17.68,17.68,0,0,1,1.36-1.5c.07-.24,1.3-1.84,1.67-2.45a19.43,19.43,0,0,0,1.43-2.7,13.69,13.69,0,0,0,.82-7.06c.38.05,1.3.54,1.75.68a12.31,12.31,0,0,0-1.31-.66c-.62-.27-.33-.05-.68-.6-.23-.36-.38-.42-.9-.4l-.37.48c.41.4.23,0,.77.22l.28.13a13.41,13.41,0,0,1-1,7.39c-.4.92-2.82,4.87-3.42,5.19Z"/><path class="cls-1" d="M56.9,19.09a22.5,22.5,0,0,1,3.36.95,31.69,31.69,0,0,0,3.49.75c2.16.36,5.43.42,6.69,1.76A10.11,10.11,0,0,0,67,22.16,6,6,0,0,0,67,24,12.58,12.58,0,0,1,66.54,26a10.06,10.06,0,0,0,2.77.59c1.16.14.88,0,1-.1-.2-.13-2.41-.37-3.43-.62A4.6,4.6,0,0,0,67.23,24V22.4a8.78,8.78,0,0,1,2.46.2c.84.24,1.31.35,1.42,1.22.65.42-.56,2.57-.66,3l.12,0a3,3,0,0,0,1.09-2.74A3.43,3.43,0,0,0,69,21.5a24.57,24.57,0,0,0-4.43-.79,38,38,0,0,1-4.35-.85c-1.31-.34-2.58-.89-3.87-1.19a7.76,7.76,0,0,0-2.2-.16l-.6.14c.7.45,2.52-.18,3.33.44Z"/><path class="cls-1" d="M74.52,44.55c.29,0,.21.06.46-.09.82-.49.21,0,.8-.36.17-.12.23-.18.39-.31a10.08,10.08,0,0,1,1.55-1.3l-.25.48c.42-.16.19.14.34-.26a2.87,2.87,0,0,1,.45-.75c.15-.23.34-.5.46-.72.27-.46.74-1.16.93-1.58-.15-.32,0-.33,0-.55s0-.41,0-.76a7.48,7.48,0,0,1-1,1.88,6.43,6.43,0,0,1-1.29,1.46l-1.37,1.47C75.25,44,74.75,44.16,74.52,44.55Z"/><path class="cls-1" d="M77.81,42.71c-.15.4.08.1-.34.26,0,.25-.71,1-.92,1.21l-2.41,2.1c-.68.53-1.16.31-1.56.38l-.12.05a2.12,2.12,0,0,1,.84.18c.3.14.13.19.62.34a10,10,0,0,1,3,1.5A12.89,12.89,0,0,0,73.46,47a1,1,0,0,1,.25-.14l.31-.09a3.21,3.21,0,0,0,1.31-.82L78.2,43c.48-.61.42-.32.87-.89,0,0,.78-.78.16-.71-.22,0-.08,0-.23.12s-.08.14-.16.25l-.14.16,0,.05a5,5,0,0,1-.85.75Z"/><path class="cls-1" d="M79.46,37.55a8.3,8.3,0,0,1-2.2,4L74.2,44.67c.29-.26.09-.1.32-.12.23-.39.73-.59,1.42-1.39l1.37-1.47a6.43,6.43,0,0,0,1.29-1.46,7.48,7.48,0,0,0,1-1.88c.54-2.49.66-2.3,1.38-2.62l.47-.32s0,0,0,0a2.64,2.64,0,0,1-.78.3c-1.3.24-.61.09-1,1.1-.1.27-.2.49-.29.79Z"/><path class="cls-1" d="M86.58,26.25a12.31,12.31,0,0,1,1.31.66l1.23.59C88.77,25.92,88,26.17,86.58,26.25Z"/><path class="cls-1" d="M81.5,35.36a4,4,0,0,0,1.41-1.43,5.39,5.39,0,0,0,.93-1.78c-.63.15-.62,1.1-1.68,2.5a4.48,4.48,0,0,1-.66.71Z"/><path class="cls-1" d="M14.25,50.22a.82.82,0,0,0,.51-.53,2.83,2.83,0,0,1-.94-1l.43,1.53Z"/></g></g></g></svg>