<svg xmlns="http://www.w3.org/2000/svg" viewBox="0 0 87.41 72.13"><defs><style>.cls-1{fill:#fff;}.cls-1,.cls-2,.cls-3{fill-rule:evenodd;}.cls-2{fill:#060606;}.cls-3{fill:#363636;}</style></defs><g id="Слой_2" data-name="Слой 2"><g id="Слой_1-2" data-name="Слой 1"><g id="_3015320398640" data-name=" 3015320398640"><path class="cls-1" d="M25,49.36c.16,1.37.33,1.6,1.66,1.85a12.87,12.87,0,0,1,2.91.6c-1.08,0-3.94.12-4.52-1A1.77,1.77,0,0,1,25,49.36Zm-5.7-7.7c.16.63.1.88.47,1.36,1,1.23,2.87,1.36,4.38,1.44-1.17.8-5.54,0-4.85-2.8Zm0-8.42a5.26,5.26,0,0,0,1,.95c.43.27,1,.32,1.39.6a1.82,1.82,0,0,1-2.42-1.55Zm5.59,14.81c.74-.8,1.56-1.55,2.35-2.34l2.33-2.35a3.45,3.45,0,0,1-.51-.42c-.21-.25-.16-.37-.31-.59a6.59,6.59,0,0,1-1.33.82c.11,2.25-.95,1.77-.56,2.75-1.1-.45.37-1.64.35-2.52,0-.21-.15.1,0-.15l2.15-1.52a65.2,65.2,0,0,0,6.21-5.09c1.91-1.8,4.15-4.35,5.94-6.23l1.31-1.5.32.21a31.12,31.12,0,0,1-2.9,4.05,47.5,47.5,0,0,1-3.3,3.64l-1.2,1.11c-.21.2-.44.34-.66.54l-1.78,1.73c-.33.36-.84.77-1.21,1.11l-7.19,6.75Zm-8-22.53c-.15-.36-.41-.54-.59-.91.55.24,1.1.47,1,1.21a1.37,1.37,0,0,1-1.13.05,1.46,1.46,0,0,1-.79-.51l1.48.16Zm2.43,12.92c-1.4-1.17-.47-3.15-.54-4.26l-.13-1.88-4.59-2.89A7.84,7.84,0,0,1,15,32.12a6.09,6.09,0,0,0,1.41,2.28,17.71,17.71,0,0,1,2.43,5l-2.34-4C14.94,33,15,34.09,14.46,31a7.91,7.91,0,0,0-.36-1.17c-.23-.61-.23-.58-.76-.87-1.74-1-3-1.19-4.33-2.09a5.64,5.64,0,0,1-1.69-1.59A14.87,14.87,0,0,0,10.09,27c3.89,1.68,2.76.86,5.85,3.23.47.37.88.61,1.36.95s.92.65,1.4.93l.41-.63c.62-.88,1-.55,2.36-1.93.19-.2.36-.32.58-.53.39-.38.56-.68,1-1.12l2.53-2.79a4.15,4.15,0,0,1,.51-.6,5.91,5.91,0,0,0,1-1.19c-.45.2-.93.58-1.44.85s-1,.5-1.55.76a26.78,26.78,0,0,0-3,1.6,10.78,10.78,0,0,0,.3,2.75,6.91,6.91,0,0,1-.65-2.58l-.78.41-.24-.3a23.69,23.69,0,0,1,3.13-1.75,41.81,41.81,0,0,0,4.89-2.4l3.17-3.51a1,1,0,0,1,.15-.2c.19-.17,0-.05.24-.16-.33.64-2.14,2.69-2.71,3.43-.82,1.06-2.68,3-3.34,3.87L22.9,28.79c-.3.34-.71.7-1,1-1.46,1.47-1.48.94-2.32,1.8s-.3,2-.53,3.41a9.19,9.19,0,0,0-.27,1.82c0,.8.36,1,.59,1.6ZM47.48,26.08a4,4,0,0,1,2.45-2.82,13.14,13.14,0,0,0,3.3-2.52l1.08-.9a24.81,24.81,0,0,1,4.78-3l-.42.34a42.55,42.55,0,0,0-5.48,4.19c-.24.24-.49.39-.73.64-1.82,1.78-2.63,1.33-3.91,2.51a3.7,3.7,0,0,0-.84,1.13l-.23.42ZM33.7,15.92a26.25,26.25,0,0,1,5.65-1.33A14,14,0,0,1,33.7,15.92Zm6.39,4.57c.21-.36.43-.56.64-.94s.32-.68.49-1a2.38,2.38,0,0,1,1.83-1.07,9.08,9.08,0,0,0,1.4-.16c1.63-.45,6.27-2.12,7.6-2.68S55.34,13,56,12.75L54.16,14a40.32,40.32,0,0,1-8.39,3.44,7.43,7.43,0,0,1-2.47.46C40.88,18,41.34,19.9,40.09,20.49ZM18.81,31a14.44,14.44,0,0,0-1.72-.84c-1.26-.56-1.13-1.76-1.59-3.29-.19-.64-.45-1.16-.61-1.79-.33-1.27-.46-3.11,1.17-3.46,2.05-.44,1.84-.76,3.07-1.73a7.57,7.57,0,0,1,1.46-1c.5-.25,1.15-.48,1.69-.71,1.59-.7,4.95-2.5,6-3.65a4.06,4.06,0,0,1,3.11-1.73l-.48.17-.46.13c-1.69.62-1.71,1.89-4.72,3.68-1,.56-2,1.18-3.1,1.69a11.43,11.43,0,0,0-3.08,1.64L18.3,21.19c-1.78,1.32-2.77.37-3.11,1.68s.29,2.75.63,3.92c.19.65.26,1.3.42,2,.35,1.61,1.9,1.22,2.57,2.21ZM16.13,45.05c2.09-1,3.36,1.11,3.64,2.84l-1.39.37a1.64,1.64,0,0,0,2.16-1.14c-.09-.32-.72-1.3-.95-1.74-2.65-5-1.18-5,1.08-6.83.24-.19.55-.47.73-.64A25,25,0,0,1,25.24,35a75.91,75.91,0,0,0,7.52-7.21L36,24.24l-5.52,6.42a4.94,4.94,0,0,1-.72.73l-2.27,2.27c-.14.11-.26.19-.39.31C25,35.85,24.25,36,22,37.87c-.7.59-1.27,1.13-2.06,1.7-.95.67-1.89,1.18-1.34,3a23,23,0,0,0,1.79,4.2c.27.45.14,0,.6.86.73,1.4,1,1.41,3.18.82,0,.64,0,1.29,0,1.94,0,1,0,1,.5,1.58,1.83,1.89,2.81,2.48,5.78,2.25a21.22,21.22,0,0,0,3.68-.41,8.45,8.45,0,0,0,0-4,29.14,29.14,0,0,1-2.77,2.46c.12-.21,0,0,.13-.19.33-.38,1.83-1.65,2.4-2.4a16.89,16.89,0,0,1,2.56-2.58c1-.82,3.19-1.9,4.67-3a10.43,10.43,0,0,1,1.51-1,1,1,0,0,1,.34-.37l.36-.33a16.09,16.09,0,0,1,2.48-2.15,24.62,24.62,0,0,1,2.77-1.68l1.14-.47,5.93-3.08c1.38-.71,4.91-2.51,6.47-2.66a45.84,45.84,0,0,0-5,2.18c-.85.49-4,2.32-4.69,2.59a30,30,0,0,1-.75,6.95c-.16.64-.47,1.54-.54,2.12l5.94-1.77c.27-.13.52-.61.68-.85.43-.63.87-1.28,1.31-1.87.63-.84,3.45-4.44,4.17-5.08l1.59-1.58c1.69-1.35,1.64-1.35,3.51-2.66,3.88-2.72,2.5-8.48,3.68-11.91a10.26,10.26,0,0,1,1-2.1,2,2,0,0,1,.48-.87l.32-.6.33-.55.31-.49c.14-.43.93-1.67,1.21-2.19a51.12,51.12,0,0,1,2.57-4.46l3.87-4.78A30.87,30.87,0,0,1,85.79,1l.92-.86c-2.43-.14-8.46,0-11.29,0H61.2c-1.52,0-1.38-.18-2.36.5A100.45,100.45,0,0,1,44.76,9.27c-.63.3-1.32.55-2,.86C39.33,11.79,37,13.3,33,13c-.88-.07-.75,0-1-.4-.41-.55-.85-1-1.28-1.55s-.85-1-1.29-1.54L21.53.18.47.15c.88,4.47,1.79,8.58,1.7,13.39a60.86,60.86,0,0,0,.24,7.28c.14,1.42.5,5.63,1.13,6.51,1,1.44,2,3,3,4.55C8.05,34.21,9.15,37,11,38.78c.62.6,1.41,1.17,2,1.77a14.83,14.83,0,0,1,1.65,2.12c.26.39.48.73.73,1.16a6.57,6.57,0,0,0,.73,1.22Z"/><path class="cls-1" d="M37.63,62.45a3.57,3.57,0,0,1,1.51-1A1.29,1.29,0,0,1,37.63,62.45Zm9.83-5A2.49,2.49,0,0,1,44,58a1.63,1.63,0,0,1-.63-.92,2.7,2.7,0,0,0,1.85.92A3.94,3.94,0,0,0,47.46,57.44ZM41.62,45.08c.19,1.24,1.26,3.94,1.44,5.61.21,2-1.12,6.48-2.2,8.31s-.46,1.17-.79,2.8-.33,3.64-2.6,3.54l-.82-.14c1.29,0,2.26-.06,2.63-1.19a18.58,18.58,0,0,0,.44-3.43A6.47,6.47,0,0,0,37,62.25a3,3,0,0,0-.28.4,1.17,1.17,0,0,0-.11.23l0,.06,0,.06c-.12.22,0,.09-.12.2a3.1,3.1,0,0,1,1.29-2,3.57,3.57,0,0,1,2.14-1.11,10.4,10.4,0,0,1,.94-1.89,27.39,27.39,0,0,0,1.89-6.6c-.52.83-.53,1.12-1.43,1.58a2.46,2.46,0,0,1-2.33,0,3.81,3.81,0,0,0,3.42-1.49,1.28,1.28,0,0,0,.33-1.26C42.55,49.41,41.52,45.67,41.62,45.08Zm8.3-6.58c-.5.35-1.48.72-2,1A23.72,23.72,0,0,0,45.2,41.4a2.34,2.34,0,0,0-.4.37l-1.22,1.11c-.18.16-.16.23-.37.39a2,2,0,0,1-.48.25,26.05,26.05,0,0,1-4.37,2.87c-2.77,1.47-3.14,2.56-4,3.19.16.94,1,1.78.18,4a19.25,19.25,0,0,0-.5,4.2c-.07,3.22.2,5.21,2,7.46a5.09,5.09,0,0,0-.7,3.19c.52,3.4,3.3,3.9,4.22,2.71a20.45,20.45,0,0,0,1.29-2.66c-3,.24-2.43-.92-3.42.54.15-.81.59-1,1.44-.85a7.93,7.93,0,0,0,2.23,0A70.74,70.74,0,0,1,45.47,61c.31-.47.62-.87.92-1.32a11.23,11.23,0,0,0,1.73-2.81,18.35,18.35,0,0,0,0-2.12,4.64,4.64,0,0,0,0-2c-.41-4.37,0-8.09-1-12.44.76,2.63,1.13,3.14,1.21,6.32.06,2.47,0,5,.08,7.44.56-.69,1.68-4.61,2-5.88.09-.36.17-.67.24-1a3,3,0,0,1,.14-.55c.19-.37.09,0,.3-.32.06-.09,1.29-8.07,1.43-9L49.92,38.5Z"/><path class="cls-1" d="M58.94,0H22L32.12,12.11c.2.27.23.35.63.41a11.63,11.63,0,0,0,6.47-1.18c.88-.41,1.75-.8,2.6-1.24,1.44-.76,3.4-1.45,5.26-2.46.87-.48,1.66-1,2.5-1.44s1.58-1,2.37-1.48l7-4.72Z"/><path class="cls-2" d="M16.13,45.05c1.95-.26,2.75.8,3.08,2.51-1.36.23-1.15.87-2.11-.29a7.52,7.52,0,0,1-1-2.22ZM73.56,18.44c-.32-.05-.19-.07-.44,0a10.26,10.26,0,0,0-1,2.1c-1.18,3.43.2,9.2-3.68,11.91-1.87,1.32-1.82,1.31-3.51,2.66l-1.59,1.58c-.72.64-3.54,4.24-4.17,5.08-.44.59-.88,1.24-1.31,1.87-.16.24-.41.72-.68.85l-5.94,1.77c.07-.58.38-1.48.54-2.12a30,30,0,0,0,.75-6.95c.67-.27,3.84-2.1,4.69-2.59a45.84,45.84,0,0,1,5-2.18c-1.56.15-5.09,2-6.47,2.66L49.8,38.14c0,.22,0,.12.12.36l2.57-1.27c-.14.92-1.37,8.9-1.43,9-.21.31-.11,0-.3.32a3,3,0,0,0-.14.55c-.07.36-.15.67-.24,1-.33,1.27-1.45,5.19-2,5.88-.07-2.48,0-5-.08-7.44-.08-3.18-.45-3.69-1.21-6.33,1,4.36.61,8.08,1,12.45a4.64,4.64,0,0,1,0,2,18.35,18.35,0,0,1,0,2.12,11.23,11.23,0,0,1-1.73,2.81c-.3.45-.61.85-.92,1.32a70.74,70.74,0,0,0-4.34,7.12,7.93,7.93,0,0,1-2.23,0c-.85-.13-1.29,0-1.44.85,1-1.46.45-.3,3.42-.54a20.45,20.45,0,0,1-1.29,2.66c-.92,1.19-3.7.69-4.22-2.71a5.09,5.09,0,0,1,.7-3.19C34.24,63,34,61,34,57.74a19.25,19.25,0,0,1,.5-4.2c.84-2.18,0-3-.18-4,.86-.63,1.23-1.72,4-3.19a26.05,26.05,0,0,0,4.37-2.87l0-.38a10.43,10.43,0,0,0-1.51,1c-1.48,1.06-3.63,2.14-4.67,3A16.89,16.89,0,0,0,34,49.71c-.57.75-2.07,2-2.4,2.4-.12.15,0,0-.13.19a29.14,29.14,0,0,0,2.77-2.46,8.45,8.45,0,0,1,0,4,21.22,21.22,0,0,1-3.68.41c-3,.24-3.95-.36-5.78-2.25-.54-.55-.48-.58-.5-1.58,0-.65,0-1.3,0-1.94C22,49,21.76,49,21,47.62c-.46-.89-.33-.41-.6-.86a23,23,0,0,1-1.79-4.2c-.55-1.81.39-2.32,1.34-3,.79-.57,1.36-1.11,2.06-1.7,2.21-1.85,3-2,5.09-3.9.13-.12.25-.2.39-.31l2.27-2.27a4.94,4.94,0,0,0,.72-.73L36,24.24l-3.27,3.53A75.91,75.91,0,0,1,25.24,35a25,25,0,0,0-3.84,2.93c-.18.17-.49.45-.73.64-2.26,1.85-3.73,1.85-1.08,6.83.23.44.86,1.42.95,1.74a1.64,1.64,0,0,1-2.16,1.14l1.39-.37c-.28-1.73-1.55-3.86-3.64-2.84a6.57,6.57,0,0,1-.73-1.22c-.25-.43-.47-.77-.73-1.16A14.83,14.83,0,0,0,13,40.55c-.59-.6-1.38-1.17-2-1.77-1.87-1.81-3-4.57-4.49-6.9-1-1.54-2-3.11-3-4.55-.63-.88-1-5.09-1.13-6.51a60.86,60.86,0,0,1-.24-7.28C2.26,8.73,1.35,4.62.47.15l21.06,0,7.82,9.3c.44.54.88,1,1.29,1.54s.87,1,1.28,1.55c.28.36.15.33,1,.4,4,.33,6.38-1.18,9.85-2.84.64-.31,1.33-.56,2-.86A100.45,100.45,0,0,0,58.84.65c1-.68.84-.5,2.36-.5H75.42c2.83,0,8.86-.12,11.29,0L85.79,1a30.87,30.87,0,0,0-3.58,3.45L78.34,9.26a51.12,51.12,0,0,0-2.57,4.46c-.28.52-1.07,1.76-1.21,2.19l.21.2c-.26.4-.11,0-.29.37l.25-.12c.25-.16,2.26-3.92,2.58-4.53a39.81,39.81,0,0,1,6.25-8.15c.62-.65,1.17-1.08,1.83-1.76a5.71,5.71,0,0,1,.47-.39A15.07,15.07,0,0,1,87.41.25V0H58.94L52,4.72c-.79.51-1.57,1-2.37,1.48s-1.63,1-2.5,1.44c-1.86,1-3.82,1.7-5.26,2.46-.85.44-1.72.83-2.6,1.24a11.63,11.63,0,0,1-6.47,1.18c-.4-.06-.43-.14-.63-.41L22,0H0C.35,2.49,1,5,1.35,7.41a51.56,51.56,0,0,1,.36,8.44,57,57,0,0,0,.65,8.2C3,28.28,2.75,26.72,5,30.26,6.1,32,7.19,33.77,8.28,35.7a12.25,12.25,0,0,0,2.83,3.76,13.91,13.91,0,0,1,3.18,3.42,18.39,18.39,0,0,1,1.6,2.85c.51,1.16,1.12,3.49,3.44,3.05.78-.16.89-.54,1.34-.87.55.81.2.9,1,1.16a9,9,0,0,0,2.07.07c-.08,2.12-.1,2.27.73,3.22,2.69,3.08,5.41,2.37,9.38,2-.28,2.88-.75,7.31.94,10a6.26,6.26,0,0,1,.67,1,5.06,5.06,0,0,0,0,4.89c.86,1.71,2.58,2.39,3.93,1.69.77-.4.78-1,1.25-1.83.18-.32.44-.59.62-.93s.11-.63.4-1.13c.39-.67.72-1.33,1.09-2s.8-1.3,1.17-1.91l3.75-5.51a4,4,0,0,0,.93-2.17c.15-1.69-.54-.39.34-2.55.32-.78.57-1.48.84-2.25.18-.51,1.36-4.73,1.39-4.76s0,0,.21-.14l.92-.29L53.58,46l3.63-1.08c.55-.16.53-.35.83-.8.46-.68.85-1.24,1.3-1.86a48.45,48.45,0,0,1,5.87-6.81L66.94,34c2.08-1.57,3.36-1.76,4.36-5.16A22.84,22.84,0,0,0,72,23.27a10.92,10.92,0,0,1,1.52-4.83Z"/><path class="cls-2" d="M19.34,38.44c-.23-.58-.55-.8-.59-1.6A9.19,9.19,0,0,1,19,35c.23-1.38-.32-2.54.53-3.41s.86-.33,2.32-1.8c.32-.32.73-.68,1-1l2.38-2.67c.66-.86,2.52-2.81,3.34-3.87.57-.74,2.38-2.79,2.71-3.43-.23.11,0,0-.24.16a1,1,0,0,0-.15.2l-3.17,3.51a41.81,41.81,0,0,1-4.89,2.4,23.69,23.69,0,0,0-3.13,1.75l.24.3.78-.41a6.91,6.91,0,0,0,.65,2.58,10.78,10.78,0,0,1-.3-2.75,26.78,26.78,0,0,1,3-1.6c.53-.26,1-.48,1.55-.76s1-.65,1.44-.85a5.91,5.91,0,0,1-1,1.19,3.75,3.75,0,0,0-.51.61l-2.53,2.78c-.46.44-.63.74-1,1.12-.22.21-.39.33-.58.53-1.32,1.38-1.74,1.05-2.36,1.93l-.41.63c-.48-.28-.94-.6-1.4-.93s-.89-.58-1.36-.95c-3.09-2.37-2-1.55-5.85-3.23a14.87,14.87,0,0,1-2.77-1.79A5.64,5.64,0,0,0,9,26.83c1.37.9,2.59,1.12,4.33,2.09.53.29.53.26.76.87A7.91,7.91,0,0,1,14.46,31c.58,3.13.48,2,2.06,4.38l2.34,4a17.71,17.71,0,0,0-2.43-5A6.09,6.09,0,0,1,15,32.12a7.84,7.84,0,0,0-.94-2.71l4.59,2.89.13,1.88c.07,1.11-.86,3.09.54,4.26Z"/><path class="cls-2" d="M29.75,43.1c-.35-.42-.3-.56-.89-.75.1-.12,4-2.92,5-3.75l.69-.59a59.65,59.65,0,0,0,4.42-4.23l.46-.49c.24-.2,0,0,.24-.16a3.71,3.71,0,0,1-.55.71c-.23.25-.33.43-.55.65a6.49,6.49,0,0,0-.57.63c-.6.71-2.68,2.56-3.16,3.09-.77.86-1.77,1.51-2.52,2.45a25.78,25.78,0,0,1-2.54,2.44Zm2.32-1.8c.37-.34.88-.75,1.21-1.11l1.78-1.73c.22-.2.45-.34.66-.54l1.2-1.11a47.5,47.5,0,0,0,3.3-3.64,31.12,31.12,0,0,0,2.9-4.05l-.32-.21-1.31,1.5c-1.79,1.88-4,4.43-5.94,6.23a65.2,65.2,0,0,1-6.21,5.09l-2.15,1.52c-.14.25,0-.06,0,.15,0,.88-1.45,2.07-.35,2.52-.39-1,.67-.5.56-2.75a6.59,6.59,0,0,0,1.33-.82c.15.22.1.34.31.59a3.45,3.45,0,0,0,.51.42l-2.33,2.35c-.79.79-1.61,1.54-2.35,2.34l7.19-6.75Z"/><path class="cls-2" d="M43.06,50.69c-.18-1.67-1.25-4.37-1.44-5.61-.1.59.93,4.33,1.05,5.4a1.28,1.28,0,0,1-.33,1.26,3.81,3.81,0,0,1-3.42,1.49,2.46,2.46,0,0,0,2.33,0c.9-.46.91-.75,1.43-1.58a27.39,27.39,0,0,1-1.89,6.6,10.4,10.4,0,0,0-.94,1.89,3.57,3.57,0,0,0-2.14,1.11,3.1,3.1,0,0,0-1.29,2c.08-.11,0,0,.12-.2l0-.06,0-.06a1.17,1.17,0,0,1,.11-.23,3,3,0,0,1,.28-.4,6.47,6.47,0,0,1,2.72-1.67A18.58,18.58,0,0,1,39.28,64c-.37,1.13-1.34,1.19-2.63,1.19l.82.14c2.27.1,2.3-2,2.6-3.54s-.27-1,.79-2.8S43.27,52.67,43.06,50.69Z"/><path class="cls-2" d="M18.81,31c-.67-1-2.22-.6-2.57-2.21-.16-.68-.23-1.33-.42-2-.34-1.17-1-2.55-.63-3.92s1.33-.36,3.11-1.68l1.28-1.12a11.43,11.43,0,0,1,3.08-1.64c1.08-.51,2.15-1.13,3.1-1.69,3-1.79,3-3.06,4.72-3.68l.46-.13.48-.17a4.06,4.06,0,0,0-3.11,1.73c-1.08,1.15-4.44,3-6,3.65-.54.23-1.19.46-1.69.71a7.57,7.57,0,0,0-1.46,1c-1.23,1-1,1.29-3.07,1.73-1.63.35-1.5,2.19-1.17,3.46.16.63.42,1.15.61,1.79.46,1.53.33,2.73,1.59,3.29a14.44,14.44,0,0,1,1.72.84Z"/><path class="cls-1" d="M29.75,43.1a25.78,25.78,0,0,0,2.54-2.44c.75-.94,1.75-1.59,2.52-2.45.48-.53,2.56-2.38,3.16-3.09a6.49,6.49,0,0,1,.57-.63c.22-.22.32-.4.55-.65a3.71,3.71,0,0,0,.55-.71c-.23.12,0,0-.24.16l-.46.49A59.65,59.65,0,0,1,34.52,38l-.69.59c-1,.83-4.87,3.63-5,3.75.59.19.54.33.89.75Z"/><path class="cls-2" d="M40.09,20.49c1.25-.59.79-2.52,3.21-2.64a7.43,7.43,0,0,0,2.47-.46A40.32,40.32,0,0,0,54.16,14L56,12.75c-.65.25-2.58,1.34-3.94,1.92s-6,2.23-7.6,2.68a9.08,9.08,0,0,1-1.4.16,2.38,2.38,0,0,0-1.83,1.07c-.17.29-.29.62-.49,1S40.3,20.13,40.09,20.49Z"/><path class="cls-1" d="M16.13,45.05a7.52,7.52,0,0,0,1,2.22c1,1.16.75.52,2.11.29-.33-1.71-1.13-2.77-3.08-2.51Z"/><path class="cls-2" d="M47.48,26.08l.23-.42a3.7,3.7,0,0,1,.84-1.13c1.28-1.18,2.09-.73,3.91-2.51.24-.25.49-.4.73-.64a42.55,42.55,0,0,1,5.48-4.19l.42-.34a24.81,24.81,0,0,0-4.78,3l-1.08.9a13.14,13.14,0,0,1-3.3,2.52,4,4,0,0,0-2.45,2.82Z"/><path class="cls-3" d="M42.71,43.14l0,.38a2,2,0,0,0,.48-.25c.21-.16.19-.23.37-.39l1.22-1.11a2.34,2.34,0,0,1,.4-.37,23.72,23.72,0,0,1,2.68-1.85c.56-.33,1.54-.7,2-1-.1-.24-.1-.15-.12-.36l-1.14.47a24.62,24.62,0,0,0-2.77,1.68,16.09,16.09,0,0,0-2.48,2.15l-.36.33a1,1,0,0,0-.34.37Z"/><path class="cls-2" d="M19.25,41.66c-.69,2.8,3.68,3.6,4.85,2.8-1.51-.08-3.41-.21-4.38-1.44-.37-.48-.31-.73-.47-1.36Z"/><path class="cls-2" d="M25,49.36A1.77,1.77,0,0,0,25,50.85c.58,1.08,3.44,1,4.52,1a12.87,12.87,0,0,0-2.91-.6c-1.33-.25-1.5-.48-1.66-1.85Z"/><path class="cls-2" d="M33.7,15.92a14,14,0,0,0,5.65-1.33A26.25,26.25,0,0,0,33.7,15.92Z"/><path class="cls-2" d="M47.46,57.44a3.94,3.94,0,0,1-2.2.58,2.7,2.7,0,0,1-1.85-.92A1.63,1.63,0,0,0,44,58,2.49,2.49,0,0,0,47.46,57.44Z"/><path class="cls-2" d="M16.91,25.52l-1.48-.16a1.46,1.46,0,0,0,.79.51,1.37,1.37,0,0,0,1.13-.05c.07-.74-.48-1-1-1.21.18.37.44.55.59.91Z"/><path class="cls-2" d="M20.32,34.19a5.26,5.26,0,0,1-1-.95,1.82,1.82,0,0,0,2.42,1.55c-.38-.28-1-.33-1.39-.6Z"/><path class="cls-2" d="M37.63,62.45a1.29,1.29,0,0,0,1.51-1A3.57,3.57,0,0,0,37.63,62.45Z"/><path class="cls-3" d="M73.92,17c.31.06.22,0,.28.29a.61.61,0,0,0,.14-.14l.15-.21a2.48,2.48,0,0,0,.24-.53l-.25.12c.18-.41,0,0,.29-.37l-.21-.2-.31.49Z"/><path class="cls-3" d="M73.12,18.42c.25-.05.12,0,.44,0l.43-.78-.39-.11A2,2,0,0,0,73.12,18.42Z"/><path class="cls-2" d="M73.6,17.55l.39.11.21-.42c-.06-.25,0-.23-.28-.29l-.32.6Z"/></g></g></g></svg>