<svg xmlns="http://www.w3.org/2000/svg" viewBox="0 0 37.97 49.68"><defs><style>.cls-1{fill:#2b2a29;fill-rule:evenodd;}</style></defs><g id="Слой_2" data-name="Слой 2"><g id="Слой_1-2" data-name="Слой 1"><g id="_3015320399360" data-name=" 3015320399360"><path class="cls-1" d="M9.82,14.6c-.08-.91-.66-1.6-.11-3.26.91,0,0,.54,1.17.48,0,.44-.12.5.18.64l-.32.19c-.25.16,0-.17-.22.19s-.08.48-.06.77c0,.71,0,.87-.64,1Zm1.91-1.4a2.28,2.28,0,0,0-.58-.83c-.42-.64,1-2.06,1.67,0a32.81,32.81,0,0,1,.47,3.66c.07.44,0,.9.09,1.33.08.65.49,1.7.16,2.36-.84-1.16-.75-4-1.81-6.54Zm5.39-6.4C16.85,5,16.7,5.53,15.69,5.25c0-.91,1.17-1.68,1.86-1,.53.54.45,2,.45,2.94-.62-.11-.09,0-.46-.22-.17-.11.11,0-.19-.11s.1,0-.23-.07Zm-.39,2.48c-.56.11-.13.15-.77.25-.33.06-.74.11-1.07.15l.27-4.24,1.49.17c.11.77,0,1.3.47,1.19,0,.22,0,.09.09.21l.2.15c-.27.2-.43.07-.54.5a2.53,2.53,0,0,0,.05.95c.41-.09.16-.54.32-.95.17.08.22-.17.38.85a18,18,0,0,1-.15,3.61,35.34,35.34,0,0,0-.14,3.7L16.72,19c-.35,1.46-.13,3.11-1.55,4.81-.16.19-.35.29-.38.52s-.17.46.42.22c.35-.14.36-.25.51-.47l.47-.53,0-.06a11.06,11.06,0,0,0,.65-2.13c.09-.38.15-.75.22-1.09a14.26,14.26,0,0,1,.31-1.66,6.12,6.12,0,0,0,.1-.64l.74-3.37c.11-.4.19-.59.32-.95l.84-3.3c.09-.72.07-2,.2-2.52-.2,0-.19,0-.33.06a10.45,10.45,0,0,1-.36,3.61,2.32,2.32,0,0,0-.08.22l-1.31,4.77c.06-.79,0-1.57,0-2.36l.35-4.24a6.34,6.34,0,0,0-.16-2.14l.22.48c.06.07-.05.22.26.12s.27-.39.29-.62a.46.46,0,0,1,0-.09,14.16,14.16,0,0,1,0,2.06,6.52,6.52,0,0,1-.09.92c-.11.75.08.65.23.69.24-.15.17-.4.37-1.25a11.37,11.37,0,0,0-.25-4.21,1.78,1.78,0,0,0-.33-.06c-.85-.25.48.38-.27-.12,0-.45,0-.5.16-.8.46-.73.22-.38.33-1.32.08-.77.1-.48.29-.49,0,0-.4-.17.1,0l.12.06c.46.18-.06.08.45.15-.3-.6-.4-.08-.48-.72-.27-2.1,2.58-3.17,3.06.53l1.3,7.18a2,2,0,0,0,0-.87c.1.6.12.79.65.92l.35-2c-.5.27-.3.9-.5,1.35-.42-.34-.33-.82-.53-1.84a20.59,20.59,0,0,1-.27-2.18c0-.57-.14-.57-.19-1a21.14,21.14,0,0,0-.58-3.16c-.49-1-1.75-2-3-1.11-1,.76-.92,2.36-1.06,3.89-.51-.36-.49-.8-1.52-.82-1.47,0-1.79,1.43-2,2.65-.1.7,0,1.64-.06,2.39s-.2,1.16-.2,2.11a14.22,14.22,0,0,1-.31,4.33c-.14,1,.17,1.33-.37,2,0-.39-.06-.69-.1-1.11l-.44-3.34c-.39-1.92-1.75-2.06-2.48-1.38-.28.25-.07.18-.42.33l-.11-.11c-.52-.47-.54-.37-1,0a7.28,7.28,0,0,0,.11,2.65c.06.28.11,3.58.39,5.24A17.08,17.08,0,0,1,10,22c0,1.68.67,3.33.71,5A43.35,43.35,0,0,1,9.28,37C8.72,39,7.72,38.66,6,39.4c-1.53.66-1.77,2.28-3.53,3.62A19.2,19.2,0,0,1,.34,44.4C0,44.63.05,44.59,0,45c1.06-.07,2.71-1.4,3.36-2l1.25-1.38c.09-.14.14-.2.25-.36s.17-.27.29-.42a2.35,2.35,0,0,1,.67-.7c1.68-1,2.66-.52,3.48-1.79a12.68,12.68,0,0,0,1.22-4.11c.13-1.51.66-3,.71-4.53a18.51,18.51,0,0,0,0-3.72l-.58-3.46a18.33,18.33,0,0,1-.07-2.69c0-.88-.23-1.38-.25-2.31s-.13-1.83-.15-2.67c.78-.43.53-.81.57-1.85.7.06,1.14,2.48,1.21,3a31.85,31.85,0,0,0,.77,3.47l.39,1.14a1,1,0,0,0,.1.21c.06.13.06.1.09.17.32.8-.2,2.68-.53,3.46s-.63.74-.67,1.49c.5,0,.5-.12.72-.44a6,6,0,0,0,.46-.75,5.45,5.45,0,0,0,.33-.88,5.71,5.71,0,0,0,.32-2.08,7.15,7.15,0,0,0,.19-1,38.59,38.59,0,0,1,.69-4.13c.18-2.58.47-2.33.51-4.33,0-.82-.05-1.6,0-2.44.65,0,1.22,0,1.41-.58Z"/><path class="cls-1" d="M25.3,5.65c.26-.28.22.39.22-.4-.14,0-.06.06,0,0l.1-.11L25.76,5c0,.52,0,.7.5.87-.1-.31-.09-.15-.16-.26-.28-.47-.11-.86.39-1.38s1.25-.65,1.66-.09c.72,1,.53,2.6.57,4.05,0,.8.16,1.31.2,2.11s.23,1.08.24,2c0,1.56,0,3.07,0,4.63a22.93,22.93,0,0,1-.47,3c-.22,1.33.24,3.84-.23,4.43a21.58,21.58,0,0,0-2.54,3.18l-1.51,2.64c-.14.21,0,.08-.2.27,0-.93.2-2.2.23-3.21s-.05-2.45.07-3.38,1.28-4.32,1.55-5.23c.58-2,.45-3.16,1.07-5.75a7.76,7.76,0,0,0-.24-4.53,1.46,1.46,0,0,0-.78-1l.21.43L26,8.13a3.49,3.49,0,0,0-.49,1.67c.47-.46.34-.82.6-1.28.19.08.35,0,.47.67.06.36.14.62.18.89.23,1.83-.5,3.51-.72,5.63a21,21,0,0,1-.74,3.48c-.18.66-.3,1-.47,1.67s-.36,1.07-.55,1.65c-.35,1.08-.25,5.77-.68,7.78-.29,1.38-3.24,4.54-2.57,5.76.55,0,.35-.15.82-1.4.81-2.11,1.87-1.91,3-3.87l1.63-2.91a11.26,11.26,0,0,1,2-2.49c0,.77-.31.68-.15,1.62.39.27.54.55,1,.56l0-.07c-1.16-1.47-.76-.22-.36-2.71-.23-.07,0,0-.18,0-.68-.16.48.42-.23-.09.16-.27.13-.15.28-.39.36-.58,0-.3.56-.55.29-.12.25.21.3-.25-.36.08-.14,0-.29.1a11.89,11.89,0,0,1-.1-3.24c.05-1,.41-1.94.45-2.91a40.82,40.82,0,0,0-.13-6.74l-.26-3.13c0-1.49.07-5.2-2.59-4.18a2.28,2.28,0,0,0-1.4,2.26Z"/><path class="cls-1" d="M29.68,23.29c.39-.17.19-.11.47-.4.74.19.49-.05,1.09-.34.38-.19.64.05,1,.07a.69.69,0,0,0-.81-.39c-.42.05-.36.22-.81.35A3.75,3.75,0,0,1,33,20c1.69-.28.69,2.74.54,3.57-.33,1.83.32,2.85.39,4.35.09,2.18-.48,2.18-.49,4.54a8.79,8.79,0,0,1-.66,4.24c-.84,1.6-1.91,2.61-2.8,4.66-1.71,3.93-3.41,2.16-4.62,2.88v.36a5.32,5.32,0,0,0,3.18-.35c1-.56,1.1-1.32,1.72-1.93.33.13,4.13,3.81,4.68,4.28L36.59,48c.45.42.68,1,1.37.95.06-.53-.37-.82-.65-1.07s-.64-.57-1-.85c-.66-.57-1.22-1.12-1.93-1.69C34,44.93,30.79,42,30.65,41.7c-.06-1.13,2.68-4.2,3.08-5.78.54-2.11,0-2.8.47-5.1.07-.37,0-.74.08-1.07s.17-.3.22-.83c.17-2.06-.64-3-.38-5.11.12-1,.75-3,.2-3.89s-2.23-.49-3.06.43a6.79,6.79,0,0,0-1.58,2.94Z"/><path class="cls-1" d="M29.29,27.56s-.1.19.56.43a1.44,1.44,0,0,0,.95.06,3.47,3.47,0,0,1-.73,1.69,14,14,0,0,1-1,1.46,11.92,11.92,0,0,0-2,2.86c-.25.57-.33,1.23-.54,1.8A11.82,11.82,0,0,1,24,40.46c-1.21,1.21-2.17,2.79-3.92,3.16a7.3,7.3,0,0,0-1.92.55c-1.42.71-2.95,2-4.3,2.86-.62.41-1.16.67-1.14,1.16.77.12,1.59-.75,2.18-1.13L17,45.62a4.8,4.8,0,0,1,1.75.56c.54.3,2.64,3,3.12,3.34s-.11.12.5.16c0-.52-.08-.53-.34-.82-.69-.78-2.44-3.07-3.28-3.37l-.37-.13c-.43-.24-.16,0-.32-.34.29-.42.08-.16,1-.55.57-.23,1.45-.36,2.11-.61a6.48,6.48,0,0,0,2.29-2c.17-.21.32-.35.48-.52a11.2,11.2,0,0,0,3-4.49,24.31,24.31,0,0,1,1.48-3.76c1.11-1.78,3.44-3.5,4-7.83-.45.35-.36.89-.58,1.88l-.2,0h-.09c-.31,0-.22-.07-.42.07s-.28.32-.51.5c-.41.33-.73-.23-1.25-.23Z"/><path class="cls-1" d="M19.61,7.81c.47-.08.57-.36.8-.83s.14-.82.14-1.47c.78.08,1.14,1.2,1.21,1.67A15.79,15.79,0,0,1,22,9.88c0,.91-.17,1.63-.23,2.62a10.08,10.08,0,0,1-.21,1.13c-.14.95.11,3.19-.28,4.08a17.53,17.53,0,0,0-.7,2.25,24,24,0,0,1-1,3.17,1.94,1.94,0,0,0-.34,1.13c.65,0,.84-.69,1-1.24.11-.35.25-.65.31-.89s.14-.74.23-1l1.87-5.27c.23-.56.49-1.1.71-1.7a17.73,17.73,0,0,0,1.1-3.85c-.48.35-.26.56-.48,1.18-.21-.23-.06,0-.2-.37a1.38,1.38,0,0,1-.05-.25c-.06-.29,0-.27-.27-.47,0,.53.29.83.14,1.33s-.27.74-.39,1.2-.28.79-.42,1.19c-.32.85-.23.9-.68.95l.24-3.12c.36-2.44.64-6.65-2.24-7.45l.12.54c0,1.38.31,1.42-.42,2.48a1.46,1.46,0,0,0-.11.18s0,.09,0,.07,0,0,0,.07Z"/><path class="cls-1" d="M29.68,23.29l-.06.2c-.05.46,0,.13-.3.25-.6.25-.2,0-.56.55a4.39,4.39,0,0,0-.27.39c.7.51-.46-.07.22.09.18.05-.05-.06.18,0-.4,2.49-.8,1.24.36,2.71l0,.07c.52,0,.84.56,1.25.23.23-.18.3-.36.51-.5s.11-.05.42-.07h.09l.2,0c.22-1,.13-1.53.58-1.88a3.74,3.74,0,0,0,.6-2.24l-.62-.42,0,0c-.39,0-.65-.26-1-.07-.6.29-.35.53-1.09.34-.28.29-.08.23-.47.4Z"/><path class="cls-1" d="M19.61,7.81s0-.08,0-.07,0,0,0-.07a1.46,1.46,0,0,1,.11-.18c.73-1.06.44-1.1.42-2.48l-.12-.54a1.91,1.91,0,0,0-.45-1.21c-.51-.07,0,0-.45-.15l-.12-.06c-.5-.18-.1,0-.1,0-.19,0-.21-.28-.29.49-.11.94.13.59-.33,1.32-.19.3-.16.35-.16.8.75.5-.58-.13.27.12a1.78,1.78,0,0,1,.33.06A11.37,11.37,0,0,1,19,10c-.2.85-.13,1.1-.37,1.25-.15,0-.34.06-.23-.69a6.52,6.52,0,0,0,.09-.92,14.16,14.16,0,0,0,0-2.06.46.46,0,0,0,0,.09c0,.23-.09.54-.29.62S18,8.28,18,8.21l-.22-.48a6.34,6.34,0,0,1,.16,2.14l-.35,4.24c0,.79,0,1.57,0,2.36l1.31-4.77a2.32,2.32,0,0,1,.08-.22,10.45,10.45,0,0,0,.36-3.61c.14-.07.13,0,.33-.06Z"/><path class="cls-1" d="M16.73,9.28c.15-.34.21-.35.19-.67a2.53,2.53,0,0,1-.05-.95c.11-.43.27-.3.54-.5L17.21,7c-.09-.12-.05,0-.09-.21-.43.11-.36-.42-.47-1.19l-1.49-.17-.27,4.24c.33,0,.74-.09,1.07-.15.64-.1.21-.14.77-.25Z"/><path class="cls-1" d="M25.3,5.65c-.06.62-1,2.2-.79,2.67l-.35,2c-.53-.13-.55-.32-.65-.92a2,2,0,0,1,0,.87l-.08.12c.25.2.21.18.27.47a1.38,1.38,0,0,0,.05.25c.14.4,0,.14.2.37.22-.62,0-.83.48-1.18.21-.2.13-.11.47-.17s.16,0,.36-.07c.46-.23.12,0,.2-.24A3.49,3.49,0,0,1,26,8.13l.37-.36-.21-.43a8.35,8.35,0,0,0,.14-1.49c-.47-.17-.53-.35-.5-.87l-.13.14-.1.11c-.07.08-.15,0,0,0,0,.79,0,.12-.22.4Z"/><path class="cls-1" d="M9.82,14.6c.69-.12.66-.28.64-1,0-.29-.1-.5.06-.77s0,0,.22-.19l.32-.19c-.3-.14-.18-.2-.18-.64-1.16.06-.26-.52-1.17-.48-.55,1.66,0,2.35.11,3.26Z"/></g></g></g></svg>