<svg xmlns="http://www.w3.org/2000/svg" viewBox="0 0 26.36 22.03"><defs><style>.cls-1,.cls-2,.cls-3{fill-rule:evenodd;}.cls-2{fill:#878787;}.cls-3{fill:#fefefe;}</style></defs><g id="Слой_2" data-name="Слой 2"><g id="Слой_1-2" data-name="Слой 1"><g id="_3015363937952" data-name=" 3015363937952"><path class="cls-1" d="M5.32,16.34A4.11,4.11,0,0,0,6.06,18a9.61,9.61,0,0,0,2.28,2.2c.74.4,1,.1,1.73.26s.85.59,1.31.82a14.54,14.54,0,0,0,3.31.68,4.94,4.94,0,0,0,1.88,0c.75-.19.82-.58,1-1s.74-.61,1.13-1a19.94,19.94,0,0,0,1.37-2.4c.27-.52.58-.92.43-1.34.47-.07.53-.23.44-.64a4,4,0,0,0-.38-1,3,3,0,0,0-1.15-1.33A5.54,5.54,0,0,1,18.18,12,2.7,2.7,0,0,0,17,10.76c-.64-.31-.82,0-1.72-.55a3.19,3.19,0,0,0-1.65-.62c-1.81-.05-1.1-.22-1.85-.31-.42-.06-1.64.25-1.21.93-.13.09-.11,0-.21.18l-.16.24c-.22.56.87,1.34.8,1.75-.27.13-.48-.09-.56.44a5.82,5.82,0,0,1-.09.73c-.15.52-.69.54-.73,1l0,.19a2.93,2.93,0,0,0-1.81-.14,19.94,19.94,0,0,0-2.09.38c-.37.22-.44.86-.35,1.4Z"/><path class="cls-1" d="M17,2.59c-.26.18-.34.06-.37.4s-1,1.73-.95,2.67c.05.5,0,.25-.24.52a4,4,0,0,0-.34,1.08c0,.18.07,0,0,.24-.2.44.83,1,1.14.8a1.27,1.27,0,0,1,.5-.34c.63-.29.47-.44.56-.67s.1.13.15-.57c0-.19,0-.13-.08-.24.24-.11.06,0,.17-.2.23-.35,0-.21.23-.62l.05-.21c0-.19.06-.2.28-.26a9.06,9.06,0,0,1,.29-1.57c.11-.35.19-.3.23-.45A1.77,1.77,0,0,0,18.33,3c.24-.15.16-.28.52-.6.09-.08,0,0,.1-.13A1.55,1.55,0,0,0,19.3.88c-.36-1-1.58-1-2.11.05A1.76,1.76,0,0,0,17,2.59Z"/><path class="cls-1" d="M22.19,7.32c-.1-.24-.05,0,.13-.21l.07.08c.06-.1.14-.16,0-.29.37-.1.09-.08.26-.38s.58-.46.71-.64,0-.12.1-.21a1.36,1.36,0,0,0,.54-1c0-.85-.73-1.26-1.66-.63a4.17,4.17,0,0,0-1.11,1.51c-.24.53-.2.43.25.82-.25,0-.54-.15-.74,0l-.67,1.46c-.11.19-.19.12-.23.28-.05.32.47.66.61.79-.44,0-.62-.43-1-.41l.17.34a.66.66,0,0,1-.28-.09c0,.07,0-.07,0,0s0,0,0,.07c-.24-.08-.37.06-.51.17s-.35.15-.41.39c-.28,1.15.94,1.71,1.84.77,0,0,.16-.16.2-.22a1,1,0,0,0,0-.59l.19.07c0-.31.6-.34.52-.85.29-.16.17,0,.38-.25a3.53,3.53,0,0,0,.52-.85c.06-.19-.07-.09.13-.17Z"/><path class="cls-1" d="M24.83,11.81a2.16,2.16,0,0,1,.26-.28c.12-.12.09-.16.25-.25a2.71,2.71,0,0,0,.64-.47c.88-1,0-1.82-.62-1.55a5.14,5.14,0,0,0-.78.38,1.69,1.69,0,0,0-.71,1.24c-.14-.11-.23,0-.19.13a1.21,1.21,0,0,0,.2.3c-.39-.12-.43-.59-.92.08-.34.48-.24.22-.8.73-.87.79-1.15.81-.57,1.94.9.26,3.54-1.56,2.91-2.15.05-.05,0,0,.18,0-.06-.14-.08-.1-.06-.21l.21.11Z"/><path class="cls-1" d="M11.28,3.08c.09.13.09,0,.06.12L11,3.29a12,12,0,0,0-.24,2.58c0,.44,0,.87,0,1.32s.1.33.25.63,0,.5,0,.69c.88,0,1.17-.08,1.3-.71.33,0,.46-.14.55-.38s-.11,0,.1-.2c-.11-.17,0,0-.17-.13.13-.17.18-.15.16-.44a3.71,3.71,0,0,1,0-.53c0-.53-.51-.39-.89-.52a3.58,3.58,0,0,0,.64-.14c.12-.08.06-.06.1-.21a3.56,3.56,0,0,0,0-1.75c-.07-.27-.11-.32-.36-.39s-.92-.22-1.11,0Z"/><path class="cls-1" d="M3.78,11.83c-.11-.06-.14,0-.3-.07,0-.12,0,0,.06-.13a.24.24,0,0,0,0-.15.91.91,0,0,0-.15-.37c-.2-.49-.08-1-.37-1.57a6.33,6.33,0,0,0-.76-.71c-.15-.15-.09-.12-.32-.17S.21,7.94,0,8.85c-.1.45.44.94.71,1.21.89.87.48,1.35,2,2a2.17,2.17,0,0,0,.7.25c.28,0,.29-.15.3-.28l.1-.23Z"/><path class="cls-1" d="M12.79,3c.07-.32.2-.16-.06-.54,0-.16.13-.27.16-.42s0-.12,0-.22.06-.1.11-.19a1.54,1.54,0,0,0,0-1A.93.93,0,0,0,11.24.48C11,1,10.52,2.07,11.11,2.7,11.37,3,12.42,3,12.79,3Z"/><path class="cls-2" d="M22.19,7.32c.06-.06,0,0,.09-.06s.07,0,.11-.07l-.07-.08C22.14,7.32,22.09,7.08,22.19,7.32Z"/><path class="cls-3" d="M15,14.89c-.2-1.85-1.81-2.4-2.89-1.62a2,2,0,0,0-.68,1A4,4,0,0,0,12,17l.31.59a4,4,0,0,1,.59,2.05,1.21,1.21,0,0,0,.28-.18,6.85,6.85,0,0,1,2.4-.85,3.78,3.78,0,0,0,2.26-1.37A1.85,1.85,0,0,0,15,14.89Z"/></g></g></g></svg>