<svg xmlns="http://www.w3.org/2000/svg" viewBox="0 0 113.19 35.02"><defs><style>.cls-1{fill:#fefefe;}.cls-1,.cls-2{stroke:#000;stroke-miterlimit:10;stroke-width:0.22px;fill-rule:evenodd;}.cls-2{fill:#2b2a29;}</style></defs><g id="Слой_2" data-name="Слой 2"><g id="Слой_1-2" data-name="Слой 1"><g id="_3015363938432" data-name=" 3015363938432"><path class="cls-1" d="M83.05,9.7l-.81.12c.32.16,4.07,0,5,.07,1.35.07,3.92-.41,4.12,1.12.45.31.51.14.76.27-.29,1-.36-.1-.35.88l.1.71a16.64,16.64,0,0,1,2.22-.16,7,7,0,0,1,2.13.48l.57,0c1.74-.08,3.48.19,5.07-.62l-.37-.3c.63-.62.39-.5,1-.59-.51-.36-.09-.13-.69-.19-.26,0-.19.05-.5-.06-.48-.16-.15.11-.42-.34a11.45,11.45,0,0,1-2-.63c-.76-.21-1.58-.32-2.24-.45a33.08,33.08,0,0,1-4.35-1C89.5,7.89,90.79,8.61,88,8.82a20,20,0,0,0-5,.88Z"/><path class="cls-2" d="M31.6,2.47,32,2.23l-.28-.14c-1.24-.38-3-.18-4.67-.5S23.59,1.16,22,1C14.35.07,7.72-.5.12,1.35l0,.35a68,68,0,0,1,11-1.2,72.89,72.89,0,0,1,10.29.84C24.52,1.68,28.58,2.42,31.6,2.47Z"/><path class="cls-2" d="M82.88,32.62c.5.17,6.08.09,8.79.55A145.71,145.71,0,0,0,113,34.92c-.06-.14-.12-.28-.18-.45a84.73,84.73,0,0,1-12.94-.68c-2.66-.41-5.58-.58-8.42-1a47.19,47.19,0,0,0-8.86-.58l1,.27Z"/><path class="cls-2" d="M82.7,9.54l.35.16a20,20,0,0,1,5-.88c2.79-.21,1.5-.93,4.23.15a33.08,33.08,0,0,0,4.35,1c.66.13,1.48.24,2.24.45a11.45,11.45,0,0,0,2,.63c.49-.1.48-.36,1.2-.27s.32,0,.54.24c.49.68-.12.6-.13.62-.12.38,0,.14-.21.48-.87,1.26-4.12,1-5.5,1l.28.28-.71.3a31.17,31.17,0,0,1,3.16-.2,11.25,11.25,0,0,0,2.58-.6c.58-1,.43-.69,1.63-1.19a16.43,16.43,0,0,1,2.3-.68,23.85,23.85,0,0,0,3.1-.51l0-.36-.42.06c-2.93.43-3.72,1.17-5.86,1.63.25-.82.26-.34.49-.93a43.91,43.91,0,0,1-5.08-1.1,23.41,23.41,0,0,0-2.61-.37c-.78-.14-1.69-.36-2.47-.57A20.13,20.13,0,0,0,90.9,8l-5.72.77a7.53,7.53,0,0,0-2.48.75Z"/><path class="cls-2" d="M16.48,22.62l.59.77c.32.15.35.19.61.32,1.07.52,1.24.26,1.76,1.12a4.83,4.83,0,0,0,1.3,1.48l.27.22c.27.19,0,.06.29.16l.06-.15a12.33,12.33,0,0,1-1.75-2.14,16.39,16.39,0,0,1,7,2.37c1.27.8,2.4-.34,4.31-.83,1.11-.29,2.16-.4,3.29-.75s1.68-.89,3.14-.72c1.31.15,2.33-.21,3.57,0a28.39,28.39,0,0,1,2.78.8c.22-.12.31.08.07-.23a14.16,14.16,0,0,0-7.46-1.08c-1.12.12-2.31.92-3.38,1.2-1.34.36-2.23.57-3.5,1-1.78.55-1.48,1.1-3.25.06a35.24,35.24,0,0,0-6.4-2.23,5.84,5.84,0,0,1-2.8-1.45l-.28-.39c-1.25.06-.34-.09-.67.48.44.17.1.16.49,0Z"/><path class="cls-2" d="M92.06,13.24a10.18,10.18,0,0,1,3.5.06c-.17.14.06,0-.38.25a9.14,9.14,0,0,1-3,.71l-.15-1ZM79.43,10.35c1,.34,2.67-.08,3.81-.19a14,14,0,0,1,3.78.2l1.68,0c1.39.07,1.7.06,2.46.83,0,2.1.58,2.91.91,4.79s.66,2.59.84,3.45,0,.59.39,1c-.09-1.93-1-3.67-.94-5.67a14.38,14.38,0,0,0,3.31-.91c.11-.38-.47,0,.51-.62a7,7,0,0,0-2.13-.48,16.64,16.64,0,0,0-2.22.16l-.1-.71L91.32,11c-.2-1.53-2.77-1-4.12-1.12-.89,0-4.64.09-5-.07-.69.13-.67.28-1.23.4s-1.11.09-1.58.13Z"/><path class="cls-2" d="M46.78,1.06c.15.19.3.37.43.51L53.64,1c5.12,0,7.4,2.53,12.5,4.8a10.18,10.18,0,0,0,2.59,1.11l.18-.08c-.46-.51-.19-.24-1.15-.64L64.1,4.36c-.84-.47-1.48-.74-2.33-1.23L59.48,1.82c-5.93-2.88-9.79-.33-12.7-.76Z"/><path class="cls-2" d="M2.13,27c3.35-.43,6.36-1,7.47-1.57-.67.13-.86.41-.9-.25a44.89,44.89,0,0,1-6.6,1.37Z"/><path class="cls-2" d="M82.88,32.62l.79-.14-1-.27-2.15.17c-7.77,0-3.45.64-6.45.81a16.41,16.41,0,0,1,.06-1.64l.1-.19c0-.53.12-.41-.41-.38l-.31,1.41c-1.22,0-6-.19-6.8.28.64.44,2.68.19,3.44.2,1,0,2.37-.11,3.51,0,.09,1.48,0,.48.39.85,2.69-1.59,5.75-.62,8.88-1.07Z"/><path class="cls-2" d="M68,18.86l.73.05a2.41,2.41,0,0,1,0,.71c-.09.7,0,.07-.16.38.87,3.85-.19,3.84-1,6.68l.22-.1a10.8,10.8,0,0,0,1.47-3.2,13.64,13.64,0,0,0-.19-2.21A11.89,11.89,0,0,1,69.19,19l.07-.58c-.33-.32.44-.44-.53-.2,0,.39.14.21-.13.34L68,18.12A8.5,8.5,0,0,1,66,17.68c-.73-.17-1.31-.27-1.7-.93-.66-.56-.6-1.33-1.17-1.79l-.17.15a6.25,6.25,0,0,0,1.66,2.81,12.37,12.37,0,0,0,3.41.94Z"/><path class="cls-2" d="M41.78,14.25A5.86,5.86,0,0,1,39,15.74a10.53,10.53,0,0,0-3.32,1.37,8,8,0,0,1-3.12,1.58l.56.16c1.13,0,1.59-.79,2.34-1.29,2.31-1.53,3.82-1.44,5.1-2.1.59-.31,1.72-.89,2.31-1.12.15-.15,0,0,.3-.29s-.13.08.21-.15a2.48,2.48,0,0,1,.44-.24,2.52,2.52,0,0,1,1.48-1.05,1.74,1.74,0,0,1-.55,1.77c-.23.14-.16.08-.3.29l.05,0a3.27,3.27,0,0,0,1.4-2.33l-.12-2a5.07,5.07,0,0,0-1.42-2.45L44.18,8c.43,1,2.26,2.47.82,3.91l-1.5,1.27a3.89,3.89,0,0,1-1.72,1Z"/><path class="cls-2" d="M83.33,15.66c-.31.42.5.31-.68.59-.67.16-.45-.11-.53-.2l1.21-.39Zm-2,1.59.26-.3a9.86,9.86,0,0,1,.77,2c0,.38.36,2.38.48,2.86.37,1.48.87,1,.4,2.8l.14,0c.27-.24.1.24.35-.43.32-.84-.5-1.77-.75-3.64a28.44,28.44,0,0,0-1.06-3.79c2.43-.7,1.88-.81,4.73-.92l.71,1.69c.38,0,.25.06.26-.38L87,15.36l-.35,0a4.14,4.14,0,0,1-2.6.36c-1.89-.38-1-.15-2.51.43a7.56,7.56,0,0,1-.19-1c-.13-.85-.1-.65-.41-.94l.41,3.12Z"/><path class="cls-2" d="M12.71,21c.71-.41.58.22.63.27.49.61,2,.85,2.65,1.36.33-.58-.58-.42.67-.48l.28.39-.17-1.1-.31.59c-.68.19-2.29-.56-3-.75a2.49,2.49,0,0,1,.88-1.09c.15-.09,1.13-.44,1.23-.47,1.92-.55,3.84.81,6.18.68a4.27,4.27,0,0,1,2.88.58c.2-.26-.29-.25.33-.17-.51-.62-2.33-.72-3.23-.77-2.88-.17-3.28-1.44-6.83-.47a10.65,10.65,0,0,0-1.6.51c-.88.4.16-.13-.83.73l.23.19Z"/><path class="cls-2" d="M21.3,26.69l.19.21.1.1c3.39,2.85,4.77,6.6,7.23,5.5,1.44-.64,4.36-2,5.33-3.15L34,29.16c-1.19.35-1.92,1.44-3.24,1.91-1.93.69-2.35,1.63-3.41,1.28L25,30.11a17,17,0,0,0-3.67-3.57l-.06.15Z"/><path class="cls-2" d="M69.42,30l-.41.33-.72-.47c-.34-.28,0-.22-.48-.23l0,.14.58.41a5.3,5.3,0,0,1-1.21,1.2c-.69.57-.67.86-1.39,1.16l.06-.81-.11,0-.46.41-.25-1.38s-.25.07-.16.85a4.92,4.92,0,0,0,.22.76,38.71,38.71,0,0,1-5-.83c-.58.11-.21,0-.29.24a33.85,33.85,0,0,0,4.52,1c1.07.12.85.21,1,.36l.33.23c.55-.61.12-.09.63-.42s.26-.22.58-.63c.63-.81,3.26-2.05,3.67-2.42a1.08,1.08,0,0,0,.35-.43l-.15-.14c-.64.22-.66.45-1.35.74Z"/><path class="cls-2" d="M32,2.23l-.41.24,7.26.13a4.83,4.83,0,0,0,2.61,2.74c2.29,1,1.45,1.9,2.71,2.7l.14-.15a14.48,14.48,0,0,0-1-1.55c-.86-1.5-2-1.13-3-2.13a4.66,4.66,0,0,1-1.08-1.53l-.59-.44a.68.68,0,0,1,0-.13l.1-.55L38.7,1.5c-.24.32-.08.08-.23.4L32,2.23Z"/><path class="cls-2" d="M40.05,27.51c2.83-.17,5.56.8,8.24,1.35,1.23.25,2.65.51,3.82.83a32.92,32.92,0,0,0,3.93.89l.46-.09a1.92,1.92,0,0,0-.54-.13c-.38-.15-.23-.13-.42-.28-2.21-.56-4.66-1.16-7-1.56-1.19-.2-2.45-.42-3.61-.71A19.72,19.72,0,0,0,41.5,27a.89.89,0,0,1-.43.2l-.35.06-.67.21Z"/><path class="cls-2" d="M74.17,22.25s.07.54.07.55c.13.4,0,.12.19.35a8.09,8.09,0,0,1,0-2.86c.19-1,.53-1.69,1.75-1.51a37.37,37.37,0,0,1,1.11,3.7,10.74,10.74,0,0,1,.45,1.7,16,16,0,0,0-.14,2.11c0,.05,0,.29,0,.32.11.33,0,.13.15.31,0-.9.26-1.76.32-2.63.06-.69-.47-1.38-.68-2.22-.39-1.51-.48-3.47-1.38-4.65-.27.33,0,.23-.24.95l-.76,0-.21.14c-.12-.53,0-.06.13-.27l.09-.66c0-.77.07-.22-.28-.41-.14,1.57-.93,3.2-.66,5.06Z"/><path class="cls-2" d="M71.94,8.34A7.39,7.39,0,0,1,74.6,9.4c1.42,0,3,.94,4.83.95.47,0,1.14,0,1.58-.13s.54-.27,1.23-.4l.81-.12-.35-.16c-3.38,0-.07,1.2-7.47-.4A20.33,20.33,0,0,1,72,8a12.58,12.58,0,0,0-3.08-1.24l-.18.08A23.24,23.24,0,0,0,71.94,8.34Z"/><path class="cls-2" d="M90.4,26.52c-.58-.22-.26.08,0-.6.14-.33.12-.38.28-.73-.69.34-.5,1-1.34,1.27-.6-.75.47-2.67,1.24-3.26l.44.28.06-.52-.19-.19c-1.08.25-1,.41-1.33,1.37-.25.69-.43,1.46-.78,1.62-.68-.66-.24-2.05-.09-3l0-.24c-.42,0-.27.1-.33-.4l-.33,2.45c-.08.89,0,.49.16,1.26s.2.35,0,.91c1,.38,1.63.59,2.18-.25Z"/><path class="cls-2" d="M82.28,25c.3.52-.41.31.31.49l-.15,0a29.07,29.07,0,0,1-1.61,3.85c-.84,1.79-1.44,1.54-3.49,2a1.65,1.65,0,0,0-.7-.4,3.89,3.89,0,0,0-1.56,1.08L74.93,32c.63-.2,1.22-.66,1.55-.62.94.47.06.46,1,.45a3.8,3.8,0,0,0,3.75-2.56c.62-1.34,1.34-2.67,2-4-.52-.12-.65.46-.29-.42l-.67.23Z"/><path class="cls-2" d="M8.7,25.16c0,.66.23.38.9.25,1.72-.24,6.66-2.18,7.47-2l-.59-.77c-.23.53.13.17-.37.47C15.89,23.22,9.45,25.12,8.7,25.16Z"/><path class="cls-2" d="M49.25,4.46c.38.48-.24,0,.39.43l1.52.68A10.49,10.49,0,0,1,53,6.63c.51.44,2.1,2.58,2.93,2.79l.37,0c-.49-.52-1-.6-1.51-1.3a12.26,12.26,0,0,0-1.43-1.7,18.39,18.39,0,0,0-4-2.11l-.15.17Z"/><path class="cls-2" d="M80.47,32.38a26,26,0,0,0-3.84-.09l.87-.49c-1,0-.08,0-1-.45-.33,0-.92.42-1.55.62l.15.13-1,.5V31.55A16.41,16.41,0,0,0,74,33.19c3-.17-1.32-.85,6.45-.81Z"/><path class="cls-2" d="M61.11,13.26c0-.4-.14-.34.17-.36l.29.18a4,4,0,0,0-1.07-1.14,6.82,6.82,0,0,0-1.38-.83C58,10.52,57.3,9.87,56.29,9.4l-.37,0a2.91,2.91,0,0,0,1.21,1,11.5,11.5,0,0,1,3.17,2.31Z"/><path class="cls-2" d="M38,22.81c.24.17,0,.13.47.25.75.2,1.65-.31,3.05.22.57.22.93.3,1.52.48.17,0,.7.24.77.25,1,.17.45,0,.65-.15-2.71-.62-2.27-1.57-4.62-1.39-.92.07-1-.1-1.84.34Z"/><path class="cls-2" d="M90.71,25.19l.34-1.71-.44-.28c-.77.59-1.84,2.51-1.24,3.26.84-.29.65-.93,1.34-1.27Z"/><path class="cls-2" d="M25,20.76c-.62-.08-.13-.09-.33.17l2.12.46c.46-1.08,3.66-1.76,4.63-2,.36-.1.52-.11.86-.19l.83-.31-.56-.16a23.3,23.3,0,0,0-4,1.22c-.66.24-1.13.45-1.75.71s-1.12.08-1.85.14Z"/><path class="cls-2" d="M74.61,12.32l.1-.13-.41-.38-.1-.09-.1-.1.83,0c-1-.37-6.31-3.33-6.89-3.33l6.57,4Z"/><path class="cls-2" d="M34,29.16l.19.19a25.41,25.41,0,0,1,2.3-1.44,14.88,14.88,0,0,1,3.6-.4l.67-.21.35-.06a.89.89,0,0,0,.43-.2,30,30,0,0,0-4.7.35c-1.13.3-2.1,1.34-2.84,1.77Z"/><path class="cls-2" d="M92.21,14.26a9.14,9.14,0,0,0,3-.71c.44-.22.21-.11.38-.25a10.18,10.18,0,0,0-3.5-.06l.15,1Z"/><path class="cls-2" d="M41.39,1l.72.22-.2.69c.38-.11.1-.06.29,0l.46.18A2.08,2.08,0,0,1,44.87.69c.15.47,0,.24.15.52l1.5.14C46.2.67,46.18.8,45.43.44a4.44,4.44,0,0,0-3.1.77L42.22,1l-.83,0Z"/><path class="cls-2" d="M102.06,12.92l4.8-1.55c-1.45.07-.47.08-.87-.32a16.43,16.43,0,0,0-2.3.68c-1.2.5-1,.22-1.63,1.19Z"/><path class="cls-2" d="M65.89,31.68l-.06.81c.72-.3.7-.59,1.39-1.16a5.3,5.3,0,0,0,1.21-1.2l-.58-.41-1.46,1.5a1.56,1.56,0,0,1-.5.46Z"/><path class="cls-2" d="M91.11,23l-.06.52-.34,1.71c-.16.35-.14.4-.28.73-.29.68-.61.38,0,.6l.19-.06.3-.91c.26-.66.39-1.42.63-2,.37-.84.73-.85,1-1.9-1,.58-.55.76-1.36,1.28Z"/><path class="cls-2" d="M70.77,29.21l.15.14a21.53,21.53,0,0,0,2.16-3.41c.39-.63.55-.47.88-1.12l-.36-.07a3,3,0,0,0-.81.94l-2,3.52Z"/><path class="cls-2" d="M73.77,31c.53,0,.39-.15.41.38,2-2.37,1.47-1.47,2.33-2.09.3-.22.14-.14.31-.36-.44,0-.34.14-.36-.27a13.82,13.82,0,0,0-1.52,1A5.25,5.25,0,0,0,73.77,31Z"/><path class="cls-2" d="M56,30.58a13.42,13.42,0,0,0,3.75,1.11c.08-.27-.29-.13.29-.24-.56-.46-.31-.21-1.2-.36-1.67-.28-1.56-.94-3.34-1,.19.15,0,.13.42.28a1.92,1.92,0,0,1,.54.13l-.46.09Z"/><path class="cls-2" d="M68,18.12l.49,0a.55.55,0,0,0-.1-.11l-.3-.28a3.57,3.57,0,0,1-.3-.21,2.49,2.49,0,0,1-.61-.6c-.68.83-1.44.12-2.83-.21.39.66,1,.76,1.7.93a8.5,8.5,0,0,0,1.95.44Z"/><path class="cls-2" d="M41.39,1l.83,0,.11.2a4.44,4.44,0,0,1,3.1-.77l.25,0c-.07-.88-3.12.38-3.6.39-1.19,0-3.41-.82-3.34.57C39.47.57,40.37,1.06,41.39,1Z"/><path class="cls-2" d="M39,15.74a5.86,5.86,0,0,0,2.82-1.49l-.71-.08c-.23,0-.26.06-.28.06l-.11.06c-1,.36.14-.21-1.25.7a.88.88,0,0,0-.47.75Z"/><path class="cls-2" d="M78.75,11.39h.58l.72.63.13.1,0-.42-.62-.44a3.68,3.68,0,0,0-.64-.18L75,9.91C75.64,10.56,77.54,11.06,78.75,11.39Z"/><path class="cls-2" d="M61.15,18.27c.32.57,0,.37.62.8.36.27.4.34.77.62a3.27,3.27,0,0,0,2.33.59c-.56-.59-.27-.32-1.08-.58a11.61,11.61,0,0,1-2.64-1.43Z"/><path class="cls-2" d="M46.52,1.35a10.37,10.37,0,0,0,2.73,3.11l.15-.17c-.69-.79-1.76-1.48-2.19-2.72-.13-.14-.28-.32-.43-.51L45.68.42l-.25,0C46.18.8,46.2.67,46.52,1.35Z"/><path class="cls-2" d="M65.07,30.67a6.23,6.23,0,0,1,1.09-1.62,5.31,5.31,0,0,1,1.39-1.17c-.14-1.1,0-.43.11-.72s0-.06.17-.58l-.22.1c-.7,1.42-2.41,2.18-2.54,4Z"/><path class="cls-2" d="M87.33,17.57l1.47,2.89.21-.14.17-.11.19-.12a2.67,2.67,0,0,1-1-1.28c-.17-.34-.21-.55-.35-.88l-.36-.61c0-.09-.08-.09-.12-.13,0,.44.12.36-.26.38Z"/><path class="cls-2" d="M42.83,14.34c.22.07.46.11.66.19.41.16.2.06.46.3l.46-.16c.14-.21.07-.15.3-.29-.16-.68,0-.31-.22-.84l-.71.12a2.48,2.48,0,0,0-.44.24c-.34.23,0,0-.21.15s-.15.14-.3.29Z"/><path class="cls-2" d="M71.75,12.93l.3.32.1.08.55.45c.14.1.07,0,.26.13l0,1c1.13-.62-.21-2.08-.26-2.24l-.56.12-.21.05s-.08.08-.1,0-.07,0-.1.06Z"/><path class="cls-2" d="M43.78,13.66l.71-.12c.26.53.06.16.22.84a1.74,1.74,0,0,0,.55-1.77A2.52,2.52,0,0,0,43.78,13.66Z"/><path class="cls-2" d="M75,9.91c-.37-.55.34,0-.31-.46l-.09,0a7.39,7.39,0,0,0-2.66-1.06A8.55,8.55,0,0,0,75,9.91Z"/><path class="cls-2" d="M73.6,24.75l.36.07c.4-.21.18.43.43-.7a2.41,2.41,0,0,0,0-1c-.22-.23-.06.05-.19-.35,0,0-.06-.51-.07-.55a4,4,0,0,0-.24,1.22c-.1.38-.17.35-.48.6l.5.15c-.57.49-.14.09-.35.53Z"/><path class="cls-2" d="M81.3,17.25a12,12,0,0,0,.74,2.4c0-.06.07-.31.08-.32.14-.36,0-.09.21-.35a9.86,9.86,0,0,0-.77-2l-.26.3Z"/><path class="cls-2" d="M100.85,11c.27.45-.06.18.42.34.31.11.24,0,.5.06.6.06.18-.17.69.19,0,0,.62.06.13-.62-.22-.29.3-.13-.54-.24s-.71.17-1.2.27Z"/><path class="cls-2" d="M74.71,12.19l-.1.13a22.33,22.33,0,0,1,.61,2.5C75.65,14,75.58,12.59,74.71,12.19Z"/><path class="cls-2" d="M88.8,20.46l-.38,1.69c.06.5-.09.42.33.4a3.23,3.23,0,0,1,.59-1.82l0-.64-.19.12-.17.11-.21.14Z"/><path class="cls-2" d="M65.78,31.64l.11,0a1.56,1.56,0,0,0,.5-.46l1.46-1.5,0-.14c-.53.09-.06-.23-.69.33a5,5,0,0,0-1.34,1.73Z"/><path class="cls-2" d="M45.86,12.31l.11,0,.38-.14c.07.83.15.59-.17,1.24.59-.28.56-.71.55-1.41-.68-.2-.3,0-.69-.31l0-1c-.13-.36-.07-.18-.26-.37l.12,2Z"/><path class="cls-2" d="M61.6,13.77c.77.26.47,0,.73.63l.64.71.17-.15c-.42-.84-1-1.14-1.57-1.88l-.29-.18c-.31,0-.19,0-.17.36Z"/><path class="cls-2" d="M77.2,27.69c.53.36.21-.17.39.51s.08.11,0,.49l.5-.2c-.36-.86-.23.08-.28-.66,0,0,.06-.77.06-.91s0,0-.15-.31c0,0,0-.27,0-.32-.31.47-.27,1-.45,1.4Z"/><path class="cls-2" d="M43.66,25.25c.25.29-.13.08.44.4a3.19,3.19,0,0,0,.37.13,3.73,3.73,0,0,0,1,.2c-.21-.41-.14-.42-.7-.69a2.69,2.69,0,0,0-1-.27C44,25.33,43.88,25.13,43.66,25.25Z"/><path class="cls-2" d="M68.73,18.2c1-.24.2-.12.53.2l-.07.58a13,13,0,0,1,.86-2.16c-.66.41-.5.57-.87,1.1l-.48-1.07,0,1.35Z"/><path class="cls-2" d="M88.7,10.32l-1.68,0a.64.64,0,0,1-.14.32l.49.18s.09,0,.21,0l.26.67c.16-.92,0-.71.56-1.05.26-.16.15-.06.3-.19Z"/><path class="cls-2" d="M80.18,12.11c.5.92.31,1.17.89,1.87-.06-1.16-.19-1.79-.87-2.29l0,.42Z"/><path class="cls-2" d="M39.27,2.68c.21-.47.18-.39,1.1.33a5,5,0,0,0-1.55-1.45l-.1.55a.68.68,0,0,0,0,.13Z"/><path class="cls-2" d="M76.46,28.64c0,.41-.08.29.36.27l.74-.22c.11-.38.2.11,0-.49s.14-.15-.39-.51v.41c-.37.53-.27.39-.73.54Z"/><path class="cls-2" d="M69.42,30c-1-.16,0-.14-.76-.52-.37-.21-.68-.22-.85.15.52,0,.14,0,.48.23l.72.47Z"/><path class="cls-2" d="M46,12.35,45.86,14l.32-.54c.32-.65.24-.41.17-1.24Z"/><path class="cls-2" d="M95.67,13.81l.65-.09.71-.3-.28-.28-.57,0c-1,.58-.4.24-.51.62Z"/><path class="cls-2" d="M77.61,11.78c.53.55.63.31,1,.69s.29.6.43.81c.06-.11.4.32.07-.59a.85.85,0,0,0-.41-.49,3.24,3.24,0,0,0-1.13-.42Z"/><path class="cls-2" d="M75.1,18.39l.76,0c.19-.72,0-.62.24-.95-.33-.2.38-.44-.39-.13a1.66,1.66,0,0,1-.61,1.1Z"/><path class="cls-2" d="M82.44,25.54l.15,0c-.72-.18,0,0-.31-.49a2.42,2.42,0,0,0-1,.74l1.11-.05.1-.18Z"/><path class="cls-2" d="M101.82,12.52c.28-.2.24-.14.43-.41s.09-.1.21-.48c-.62.09-.38,0-1,.59Z"/><path class="cls-2" d="M74.83,17.19c.35.19.25-.36.28.41.43-.55.3-.45.28-1.22-.53.38-.42,0-.56.81Z"/><path class="cls-2" d="M16.46,22l.31-.59c-.2-.4-.3-.65-1.33-.73l1.1.75-.08.57Z"/><path class="cls-2" d="M82.12,16.05c.08.09-.14.36.53.2,1.18-.28.37-.17.68-.59l-1.21.39Z"/><polygon class="cls-2" points="80.05 12.01 79.33 11.38 78.75 11.39 79.36 11.97 80.05 12.01"/><path class="cls-2" d="M44,14.83l-.68.43c0,.26-.06.19.23.2s.82-.4.88-.68c0-.08,0-.09.08-.14l-.05,0-.46.16Z"/><path class="cls-2" d="M91.73,12.16c0-1,.06.13.35-.88-.25-.13-.31,0-.76-.27l.41,1.15Z"/><path class="cls-2" d="M62.33,14.4c-.26-.6,0-.37-.73-.63C61.56,14.28,61.7,14.36,62.33,14.4Z"/><path class="cls-2" d="M68.64,20c.17-.31.07.32.16-.38a2.41,2.41,0,0,0,0-.71L68,18.86c.33.39-.15-.07.27.24l.33.19V20Z"/><path class="cls-2" d="M13.34,21.22c-.05,0,.08-.68-.63-.27l.13.58C13.13,21.12,12.87,21.49,13.34,21.22Z"/><path class="cls-2" d="M43.5,15.46c-.29,0-.22.06-.23-.2l-.79.61a.82.82,0,0,0,.91-.3C43.41,15.5,43.46,15.49,43.5,15.46Z"/><path class="cls-2" d="M83,24.8c-.36.88-.23.3.29.42l.11-.56-.14,0c-.25,0-.11-.09-.26.16Z"/><path class="cls-2" d="M68,18.12l.64.42c.27-.13.08.05.13-.34l-.28,0-.49,0Z"/><path class="cls-2" d="M67.55,27.88l.32-.27-.21-.45C67.5,27.45,67.41,26.78,67.55,27.88Z"/><path class="cls-2" d="M89.34,20.73c.43-.2.21-.06.41-.38l-.38-.26,0,.64Z"/><polygon class="cls-2" points="90.59 26.46 91.04 25.99 90.89 25.55 90.59 26.46"/><path class="cls-2" d="M86.6,15.31l.35,0-.18-.54a1.28,1.28,0,0,0-.17.49Z"/><path class="cls-2" d="M75.1,18.39,75,18.26c-.18.21-.25-.26-.13.27l.21-.14Z"/></g></g></g></svg>