<svg xmlns="http://www.w3.org/2000/svg" viewBox="0 0 68.63 54.83"><defs><style>.cls-1{fill:#030303;}.cls-1,.cls-2,.cls-3,.cls-4,.cls-5,.cls-6,.cls-7{fill-rule:evenodd;}.cls-2{fill:#282827;}.cls-3{fill:#f4faf3;}.cls-4{fill:#595a59;}.cls-5{fill:#878986;}.cls-6{fill:#cfcfcf;}.cls-7{fill:#020202;}</style></defs><g id="Слой_2" data-name="Слой 2"><g id="Слой_1-2" data-name="Слой 1"><g id="_3015422829696" data-name=" 3015422829696"><path class="cls-1" d="M0,51.38H14.75A3.21,3.21,0,0,0,14,49.49c-.16-.12-.05-.06-.14-.18l0-.06c-.4-.54-.21.17-.31-.49-.06-.5-1.94-2.59-2.35-3.1-.86-1-1.55-2-2.31-3.1-.43-.6-.86-1-1.23-1.47-1-1.14-3-3.43-4.33-3.73a1.66,1.66,0,0,0-.75-.24C2.09,37.1.7,38.27,0,38.52V51.38Z"/><path class="cls-2" d="M52.87,20.5A1.48,1.48,0,0,1,53,19.44a2.91,2.91,0,0,1,.5,1.07ZM38.72,15.35c-.18.35-.22.33-.58.6a11.53,11.53,0,0,0-1.65,1.43c-.43.5-.24.39-1,1.18a4.79,4.79,0,0,0-.83,1.2l0-.3c0-.24.8-1.63.82-2a10.69,10.69,0,0,0-1.42,3c-.41,1.55-.46,2.08-1.64,2.94a13.14,13.14,0,0,0-2.34,2.23c-.45.79-1.89,2.12-2,2.46l-.08.17,0,.08a.28.28,0,0,0,0,.09l-.19.41a3.89,3.89,0,0,0-.77.87L23.15,34c-.45.45-1,1.53-1.44,1.78a10,10,0,0,1,.48-1.25c-.48.3-1.53,3.27-1.65,3.9a9.83,9.83,0,0,1-.6,2,7,7,0,0,1-1.35,1.42,12.33,12.33,0,0,1-1.34,1.6c-.39.51-.79,1.18-1.19,1.79s-.72,1.2-1.12,1.86-.7,1.11-1.13,1.76l-.33-.11c.1.66-.09,0,.31.49l0,.06c.09.12,0,.06.14.18V49.1c.52-.49,2.09-3.47,2.67-4.31,1.59-2.31,2.31-2.47,3.19-3.79,1.2-1.8,1-4.22,3.62-6.83A71.12,71.12,0,0,0,29,27.49c.24-.31.48-.69.76-1a23.09,23.09,0,0,1,2.58-2.64c2.17-1.84.88-.74,2.11-3.11a11.36,11.36,0,0,1,1.37-2.09c.37-.43,1.2-1.57,1.68-1.75a19.68,19.68,0,0,1,1.64,4.63,6.7,6.7,0,0,0,1,2.1l1.68,4.48c1,2.77,1.82,3.46,3.31,5.92a12.55,12.55,0,0,1,1.11,2.06c.31.81.31,1.69.6,2.46.2.54,1.79,2.69,2.41,3.75l2.27,3.89a9.61,9.61,0,0,1-.39,2.48,24.06,24.06,0,0,0-.37,2.72h.24a29.73,29.73,0,0,1,.59-3.85c.36.13.25.09.49.42a1.18,1.18,0,0,1,.33.57c.18.14,0-.06.23.27a10.4,10.4,0,0,1,1,2.59H54L52.21,47c-.64-1.34-1.48-2.8-2.19-4-1.12-1.8-1.43-2.13-2.49-3.67-.88-1.3-.8-3.16-1.64-4.52A53.59,53.59,0,0,1,42.49,29c-.33-.7-.58-1.46-.88-2.19s-.53-1.44-.83-2.26a22,22,0,0,0-1-2.06,13.35,13.35,0,0,1-.63-2.41c-.15-.52-.8-2-.8-2.22a1.69,1.69,0,0,1-.38-1,14.18,14.18,0,0,0,1.17-1.43c.35-.43.56-1.08.89-1.57l.47,1a28.39,28.39,0,0,0,1.93,3c.37,0,.07.13.3-.08l-.14-.23c-.24-.25.18-.09.5-.44s1.74-3.11,2.28-3.51a2,2,0,0,1,1.84-.09c.5.24,1.41,2.3,1.72,2.92a10.28,10.28,0,0,1,.61,4c.18.23.13.17.05.43l-.06.2c.09.53.26.91.33,1.56s.34.81-.16,1.38c-1.05,0-1.06-.43-1.19-1.34-.28-1.9.13-1.44.28-2.06-1,.25-.49,1.75-.46,2.62-.82-.62-1.36-3-1.68-4.2a11.69,11.69,0,0,0-.85-2.05c-.39-.86-.54-1.91-.83-2-.09.3.69,2.47.73,3.12-.61.49-1.21.44-1.64.73,1.57.11,1.78-.79,2-.08-.37.31-1.58.38-2.09.6a1.33,1.33,0,0,0,1.2,0A1.93,1.93,0,0,1,46.31,19a8,8,0,0,1,.43,1.68c.15.63.31,1.16.42,1.73a6.34,6.34,0,0,0-.9.57c-.51.4-2.52,1.26-2.89,1.58.15.09-.06.11.29,0l.75-.37a14,14,0,0,0,2-1.09,2.64,2.64,0,0,1,1.07-.42c1.39,1.49,1.3,1.49,2.47,1.44.63,0,.25,0,.39.14a4.21,4.21,0,0,0,1,1.39c.8.6,1.17.11,1.76.1a3.35,3.35,0,0,0,0-1.4c.08-1.19,2-.1,3-.56-.43-.25-2.61,0-3.08-.12a20.65,20.65,0,0,1-.25-2.77c.87-.54,1.11.15,1.46.7.94,1.49,2.58,1.45,2.33-.19a.93.93,0,0,0,0-.21c-.16-.66-.35-1.35-.53-2-.16-.25-.13-.18-.07-.53a1.36,1.36,0,0,0,.12.12c.24.11.18,0,.36-.06a2.73,2.73,0,0,1,.77,1.76c.22-.15,0-1.11,0-1.34a10.31,10.31,0,0,1,1.58.84,1.3,1.3,0,0,0,.25.1c.32,0,.09.06.27-.06-.39-.49-1.29-.47-1.54-1.15.9,0,.21.42,1.42.3.47,0,1,0,1.31-.36l-1.76.07c-.22-.25-.21-.18-.47-.24a5,5,0,0,1-.68-.18c-2.27-.77-2-2.44-2.63-2.68l.16.66a8.59,8.59,0,0,1,.42,1.27c.12.54.08,1.09.17,1.53A16,16,0,0,1,56.35,22c-.24.23-.5.46-.9.32-.59-.29-.65-2.44-.71-2.94-.08.12-.13.1-.17.48a2.62,2.62,0,0,1,0,.62l0,.07.28,1.16c0,.16,0,0,0,.16a.2.2,0,0,1,0,.05s0,0,0,0a8.53,8.53,0,0,1-1.64-3.19,17.63,17.63,0,0,0-.77-2.84,1.93,1.93,0,0,1-.32-.82c-.19-.12-.07-.06-.25-.24s-.18,0-.1-.14c-.48,0-.18-.06-.3.22,1,2.65,1.73,1.64,1.15,5s.93,4.58.08,5.71l-1,0A2.86,2.86,0,0,1,51.35,24c0-1.48.28-1,.44-1.45-1,0-.59,1.88-.61,2.58a2,2,0,0,1-.6-1.24A9.26,9.26,0,0,1,50,20.61a15.89,15.89,0,0,1-.41-2.4c-.06-.45-.07-.83-.15-1.24s-.31-.59-.34-1.08c-.2-.11,0,.22-.23-.22-.08-.14-.06-.18-.13-.32a2,2,0,0,1-.32-.69,2.36,2.36,0,0,1-.54-1c.39-.22.85-.65,1.35-.66a1.69,1.69,0,0,1,1.38.54l.06,0,.27-.24.23-.37c0-.08.09-.16.15-.24a.9.9,0,0,1,.14-.17c.22-.87,2.06-.91,2.61-.22a5,5,0,0,1,.66,3l.28.06.11-.6a.07.07,0,0,1,0-.06,1.15,1.15,0,0,1,.52-1c.67.13.47.33.88.54.31,0,.53.19.8.46a5,5,0,0,1,.49.74l.54.21s.06,0,.08,0l2.19.18c-.15-.16,0,0-.19-.14l-.7-.16c-2-.24-1.17,0-2.22-1.05-1.69-1.75-1.79-1.1-2.53-.51-.35-.63-.1-2.08-1.71-2.41s-2,.62-2.57,1.49c-.58-.06-1-.74-2.72.11-.84.42-.47,0-1.22-.15-1.57-.24-2.1.87-2.92,2.19-.2.33-.48.7-.7,1.07-.89,1.53-.92.79-1.67-.39-1.5-2.32-1.55-2.12-.44-4.16.7-1.28.88-1.56.37-3a4.41,4.41,0,0,1-.3-1.75A2.61,2.61,0,0,0,41,6c-.24-.6-.35-.51-.56-.57.14.43.41.7.38,1.22-.4-.17,0-.24-.51-.22.13.34.16.2.34.49s.1.28.2.65c.49,1.77,1.07,2.08.2,3.7-.2.39-1.93,3.9-2.31,4.06Z"/><path class="cls-2" d="M2.51,37.12a1.66,1.66,0,0,1,.75.24c0-.63,1.48-2.42,1.81-3l1.65-3v1.1c.65-.67.47-4,.16-4.93a37.48,37.48,0,0,1-1-4.38c-1-5.19,1.09-6.53,1.39-9A37.92,37.92,0,0,1,8.09,9.5c.51-2,.56-2.38,2.63-2.8,4.35-.88,3.52-2.13,6-4.89,2-.08-.1,2.59-.81,3.91a12.59,12.59,0,0,1-2.14,3,2.32,2.32,0,0,1-.58.66c-.21.21-.28.4-.69.39l-.27-.55,0,0-.48-.59A1.45,1.45,0,0,0,11,8c.11.5,1,.79,1.18,1.79s-.7,1.45-.71,2.2a28.75,28.75,0,0,0,2.4-2.89c.42-.53.84-1,1.22-1.49a13.91,13.91,0,0,0,1-1.64l2.3-4.32a2.18,2.18,0,0,0,.24-.42C19.33-.46,19.91.64,20.7.1A2.45,2.45,0,0,0,19.51,0c-.54,0-.56,0-.82.38a9,9,0,0,0-1,1.46c-1.58-.54-1.13-1.16-3.29,2.59-1,1.73-3.24,1.76-4.63,2.18A2,2,0,0,0,8.11,8.4c-.21.93-.44,1.81-.61,2.76A19.67,19.67,0,0,1,7,14c-.45,1.23-.31,1.35-.77,2.59-1.3,3.54-.84,5.15-.19,8.73.41,2.28,1.47,3.3.44,5.6a17.87,17.87,0,0,1-1.65,3.38c-.19.32-.42.67-.67,1s-.41.65-.65,1c-.06.1-.29.46-.33.5-.33.3.07,0-.47.23l-.15.1Z"/><path class="cls-2" d="M60.94,16.12c1.22.72-.17,4,.58,7.23.1.45.3.55.19,1.16l-1.09,2.92A21.72,21.72,0,0,1,60,29.52c-.19.46-.3.44-.56.84l-1.39,2.19c0,.23,0,.06,0,.15a1.36,1.36,0,0,1,.59-.64c0,2.16.78,2.76,1.37,4.47.06.1.34.74.43.9.4.76,1,2.12,1.35,2.66,1.2,1.85,1,1.77.39,4.12-1,4.29-3.27,6.38-3.54,7.17H59c.28-.63,1.56-.88,2.73-4.58a23,23,0,0,0,1.14-5.21c0-.69-.12-.24-.27-.77.79.35,2.3,3.73,2.72,4.71A33.19,33.19,0,0,1,67,51.38h.21l-.65-3.28c.36.14.16,0,.56.68a22.26,22.26,0,0,0,1.51,2.34v-.49a32.3,32.3,0,0,1-2.29-3.77c-.77-1.32-1.36-2.7-2-4-1.55-3-1.45-1.83-2-2.52l-1.53-2.94c-.37-.75-.56-1.44-.9-2.08-.84-1.55-1.44-2.84-.31-4.58,1.74-2.7.84-1.74,1.8-4.27,1.1-2.87.3-2.49.19-5.08,0-1.07.14-1.87.14-2.89,0-2.55-.2-1.5-.43-2.54-.3.06-.16-.09-.28.19Z"/><path class="cls-2" d="M21.3,10.74l-.19-.33c-.36-1.15.53-2.37,1.2-3.68l.3-.63L23,5.6A1.6,1.6,0,0,1,23.32,5a2.88,2.88,0,0,1,.41-.55l-.05-.2c-.53.27-1.11,1.56-1.5,2.13l-.4.55c-.16.17,0,0-.19.16a5,5,0,0,1,2.19-3.22c.62-.53,2.52.16,3,.6.8.68.45,2.07.14,3.05a18.56,18.56,0,0,0-1,6c0,.32.14.56.16.85.3-.12.22,0,.19-.86l.23-2.57A8.53,8.53,0,0,1,27,9.43a2.71,2.71,0,0,1,.25-.69l.27-.48c.12-.13,0,0,.18-.15l0-.12c-.05-.3.07-.12-.1-.26a5.08,5.08,0,0,0-.64,1c0-.1-.09.11-.05-.26L27,8.25c.27-.8.13-1,.91-1.19A2.4,2.4,0,0,1,30,7.4l.22,0a2.82,2.82,0,0,0-1.07-.62c-.64-.21-1.07,0-1.67.08,0-.75.61-2.63-1.64-3.19-3-.74-2.71.71-3.6,1.17.15-1,.86-2.2.49-3.18-.19-.51,0-.2-.27-.35A5.66,5.66,0,0,1,22.18,4c-.48,1.75-2.36,5.44-1,7.19.11-.14,0,.05.1-.19,0,0,0-.22,0-.26Z"/><path class="cls-2" d="M30.83,14.54l.08.11c.08.2,0-.05.08.21a2.86,2.86,0,0,0,.46,1.26c.2.38.58,1,.95,1.09a4.15,4.15,0,0,1-.81-1.29,8.84,8.84,0,0,0,1.23.12l-.88-.37.54-.44a4.65,4.65,0,0,1,.78-.48c.1-.18.12-.17.34-.35l1.3-1.13a9.46,9.46,0,0,0,3-3.49,3.75,3.75,0,0,0,.55-1c.2-.6.45-.91.3-1.18-.35.44-1.39,3.18-2.15,3.55,0-.85.3-1.78.29-2.72s-.19-2.05.45-2.6c.92-.41,1.41,1.15,1.5,1.34l.1-.24c0-.3-.11-.62-.08-1.09.34-.19,1-.26,1.21-.49-.49-.3-1.47.42-1.6.48-1.82-.77-1.83.48-1.8,2l-.4,3.87a23.76,23.76,0,0,1-4.8,3.75A17.25,17.25,0,0,1,31,11.85a21,21,0,0,0-.13-3.7c-.1-.18,0-.07-.14-.18l0,.13s0,.05,0,.07a6.58,6.58,0,0,1,.09,1.25l.1,5.12Z"/><path class="cls-3" d="M50.93,51.38h1.75a16.74,16.74,0,0,0-.34-2.86A1.18,1.18,0,0,0,52,48c-.24-.33-.13-.29-.49-.42a29.73,29.73,0,0,0-.59,3.85Z"/><path class="cls-4" d="M17.06,15.57a17.64,17.64,0,0,0,1-2.31l1-1.56c.23-.43.07-.32.17-.67s.28-.08.52-1.16c.17-.78-.3-1,.12-3l.26-1c0-.52,0-.22-.11-.34a11.27,11.27,0,0,0-.61,2.63,9.19,9.19,0,0,0-.07,1.66c0,1-.13.5-.42,1.22s-.69,1.49-1,2.22c-.19.42-.36.76-.52,1.15l-.38.86c-.12.62-.05.18.06.32Z"/><path class="cls-3" d="M67.21,51.38h1.42v-.26a22.26,22.26,0,0,1-1.51-2.34c-.4-.64-.2-.54-.56-.68Z"/><path class="cls-2" d="M22.38,17.63a20.39,20.39,0,0,0,2.35-3.43c.56-1.16-.48-1.34.51-4.62.12-.41.14-.31,0-.51-.73,1-.76,4.19-.9,4.78a1.88,1.88,0,0,1-.4,1c-.2.3-.32.64-.51,1A10,10,0,0,0,22.38,17.63Z"/><path class="cls-2" d="M6.89,18.49a6,6,0,0,0,1.2-1.44c.7-1.05,3.07-3.8,3.19-4.64-.38.14-.71.69-1.11.93s-1.07.38-1.2.86l1.11-.48a7.48,7.48,0,0,1-.84,1.22L6.89,18.49Z"/><path class="cls-2" d="M29.56,16.09c.05,1.14.12.73-.34,1.58a5,5,0,0,1-.81,1c-.31.34-.42.49-.75.87-.15.17-.28.31-.38.45-.22.32-.07.21-.42.42,0,.35-1.93,2.88-2.05,3.45A14.3,14.3,0,0,0,26.15,22c.16-.29.11-.17.28-.28l1.31-1.84a2.73,2.73,0,0,1,1-1.09c.06-.18,0-.13.26-.36.7-.56.36-.63.7-.89A3.62,3.62,0,0,0,29.77,16l-.07-.42c-.22.17,0,0-.14.25v.22Z"/><path class="cls-2" d="M57.13,32.26l.2-.14L57.25,32c-2.83,1.19-3.89,3-5.39,3.43a4,4,0,0,0-1.88,1A5,5,0,0,0,51,36a10.65,10.65,0,0,0,2.88-1.32C55.17,33.77,54.63,33.5,57.13,32.26Z"/><path class="cls-4" d="M18,27c.36-.07.42-.52.6-.86s.33-.65.49-1l.9-2.08a6.7,6.7,0,0,1,.52-1l.92-2.05c.12-.27.45-.75.28-1a20,20,0,0,0-1,1.95Z"/><path class="cls-4" d="M51.28,27.56c-.26-.1-.32-.06-.49-.31a1.83,1.83,0,0,1-.6-.27l-.56-.05c-.08-.05-.07-.13-.13-.2-.59,0-2.11-1.36-2.91-1.39.19.33.34.31.67.51a5.69,5.69,0,0,0,.72.4c.5.22,1,.51,1.45.78a16.09,16.09,0,0,0,3.17,1.42C52.36,27.91,51.61,27.93,51.28,27.56Z"/><path class="cls-4" d="M15.48,10.81l1.77-3.26a3.89,3.89,0,0,0,.61-1.26c-.47.23-.32.38-.77,1a6.4,6.4,0,0,0-.7,1.07l-.8,1.81c-.37.83-.16.55-.11.62Z"/><path class="cls-4" d="M56.6,39.13c.08-.12.1,0,.06-.31A20.5,20.5,0,0,1,56,36.37c-.18-2.06-.34-1.62.21-3.1-.35.16-.27.2-.41.56l-.12.31a7.9,7.9,0,0,0,.05,2.28,15.62,15.62,0,0,0,.83,2.71Z"/><path class="cls-4" d="M23.23,26.48l.1-.49c-.31.12-.34.22-.51.47s-.23.4-.35.58a19.81,19.81,0,0,0-2,3.36c.28-.1.25-.15.41-.43l1.61-2.59a4.59,4.59,0,0,1,.7-.9Z"/><path class="cls-3" d="M26.43,21.71c0,.23-.07.11.14.22.33-.22,0,0,.16-.21l0-.07.08-.13a.15.15,0,0,1,.05-.06c.08.23.1.5.24.61.08-.08.11.09,0-.28L27,21.26c.25-.2.06.06.17-.28l.41.11c0-.24,0-.05-.1-.35l0-.07-.07-.18c.72,0,0-.1.53.26l.36-.35c.23,0,.05,0,.3-.06l-.18-.11-.06,0-.11-.08c-.16-.11,0,0-.15-.11s0-.06-.29-.13l-1.32,1.84Z"/><path class="cls-4" d="M50.61,13.5A6.3,6.3,0,0,0,51.45,15c.12-.28-.18-.22.3-.22-.08.13-.07,0,.1.14s.06.12.25.24a2.73,2.73,0,0,1-.33-.84c-.25-.87-.07-.7-.39-.92-.19.39,0,.4.09,1a1.81,1.81,0,0,1-.53-1.17l-.27.24-.06,0Z"/><path class="cls-4" d="M56.55,14.17l1.37,1.76c.23.24.25.39.55.49a1.14,1.14,0,0,0-.29-.66c.13-.24-.08,0,.28-.14,0,0-.06-.06-.08,0l-.54-.21a5,5,0,0,0-.49-.74C57.08,14.36,56.86,14.15,56.55,14.17Z"/><path class="cls-4" d="M59.67,25.44a1.6,1.6,0,0,0-.33-.75l-1-1.79c-.26-.47.07-.16-.43-.33l.8,1.62A2.92,2.92,0,0,0,59.67,25.44Z"/><path class="cls-4" d="M42.63,19.3a.63.63,0,0,0-.07.21s0,0,0,0,0,0,0,.05v.09a5.05,5.05,0,0,0-1.2,1.53c.33,0,.83-.8,1.53-1.47.3-.29.4-.25.53-.67l-.77.21Z"/><path class="cls-4" d="M59.72,23.81c-.36-.74-1-.95-1.24-1.26-.41-.6.12-.11-.77-1.1-.17-.19-.15-.19-.35-.28l.9,1.5a3.76,3.76,0,0,0,1.46,1.14Z"/><path class="cls-5" d="M29.56,16.09v-.22c.1-.27-.08-.08.14-.25a7.76,7.76,0,0,1-.25-1.53c0-.37.17-1.3-.17-1.46a9.08,9.08,0,0,0-.06,1.83l.3,1.56s0,.05,0,.07Z"/><path class="cls-3" d="M28.69,18.78c-.05.38,0,.06.07.2.15-.31,0-.23.43-.14-.13-.13-.17-.09-.1-.28h.45c0,.45-.43.44.06.52a.86.86,0,0,0,0-.72l.23-.2c.07-.14,0-.18,0-.45,0,0,.09,0,.12,0l.23.07.1.05.09,0,.08,0c-.26-.27,0-.1-.38-.27l-.43-.17c-.34.26,0,.33-.7.89-.29.23-.2.18-.26.36Z"/><path class="cls-6" d="M12.2,9.18l.27.55c.41,0,.48-.18.69-.39a2.32,2.32,0,0,0,.58-.66c-.71,0-.18-.09-.73.23a.84.84,0,0,1-.45.12c-.39.07-.09-.16-.36.15Z"/><path class="cls-4" d="M27.73,28.89l.19-.41a.19.19,0,0,1,0-.08l0-.09.08-.17a8.4,8.4,0,0,0-2.28,2.16,9.58,9.58,0,0,0,1.86-1.66c.2.12,0-.05.11.25Z"/><path class="cls-4" d="M42.4,17.8a1.77,1.77,0,0,0,1.46,1.06c-.11-.32.08-.1-.22-.31a2.33,2.33,0,0,1-.83-.65c.36.05.28.16.53,0-.19-.26-.45-.26-.78-.42l.14.23c-.23.21.07.09-.3.08Z"/><path class="cls-2" d="M21.8,14.18v.3l.22-.14c-.14-.68.31-1.77,0-2.42-.08.07-.15,0-.19.39s.05,1.34,0,1.87Z"/><path class="cls-2" d="M30.21,21.36l.73-2c.11-.56,0-.26-.08-.33C30.64,19.4,29.9,21,30.21,21.36Z"/><path class="cls-4" d="M40.27,21.12a4.65,4.65,0,0,0,1.93-1.6A7.12,7.12,0,0,0,40.27,21.12Z"/><path class="cls-2" d="M27.12,17.17c.29-.18.14.07.24-.4.07-.3.45-1.11.15-1.68-.06.07-.11-.07-.2.49Z"/><path class="cls-4" d="M5.3,34.51A2.87,2.87,0,0,0,6.65,32.8,6.15,6.15,0,0,0,5.3,34.51Z"/><path class="cls-4" d="M43.87,8c.41,0,.52-.7.57-1.08.1-.74-.07-.52-.15-.6-.2.36-.07.49-.17.89S43.88,7.66,43.87,8Z"/><path class="cls-6" d="M52.87,20.5h.59a2.91,2.91,0,0,0-.5-1.07,1.48,1.48,0,0,0-.09,1.06Z"/><path class="cls-4" d="M54,29.83c.51.09.19.1.27-.17-.46-.14-.68-.77-1.37-.88.14.47-.15.06.6.61A3.2,3.2,0,0,1,54,29.83Z"/><path class="cls-3" d="M26.06,24.31c-.33-.13-.08,0-.23-.17s.05-.09-.19-.2l-.05.29v.05c0,.16,0-.05,0,.19L26,24.3s0,0,0,.08c.05.26.24.28.26.28l0-.62c0-.14,0-.08.12-.22a.94.94,0,0,0-.39-.15c.05.49.13.23,0,.64Z"/><path class="cls-4" d="M21.11.19a2.52,2.52,0,0,0,1.1.57,1.06,1.06,0,0,0-.87-.64C20.89.14,21.34.09,21.11.19Z"/><path class="cls-2" d="M43.24,7.68c.08-.07.23,0,.28-.5a1.26,1.26,0,0,0-.07-.76l-.21,1.26Z"/><path class="cls-4" d="M42.2,19.42c.35-.1.38-.12.51-.51-.39,0-.12-.11-.35.14a.85.85,0,0,0-.16.37Z"/><path class="cls-2" d="M40,6.45c-.1-.23,0-.14-.21-.3a.81.81,0,0,0-.38-.1C39.56,6.39,39.61,6.41,40,6.45Z"/><path class="cls-6" d="M22,14.34l-.22.14v-.3c-.21.34-.25.39.11.51l.12-.35Z"/><path class="cls-7" d="M24.42,49.46c-.07-.22-.23-3.51-.29-3.67a.33.33,0,0,0-.53,0c-.11.16-.2.32-.3.48-.41.67-.3.56-.75.2-.77-.6-.56-.77-1.36-.3a1.4,1.4,0,0,1-1.13.28H16.62c-.24,0-.4,0-.41.25s.3.32.86.31h3.35c.62,0,.66-.14,1.13-.39.27-.15.46.12.65.29l.54.47a.32.32,0,0,0,.39.09c.15,0,.17-.15.25-.26s.12-.24.2-.25.09,0,.09.13c0,.81.14,1.6.17,2.43s.14,1.74.18,2.61c0,.12,0,.2,0,.29.05.55,0,1.1.1,1.66,0,.16,0,.55,0,.64s.38.19.51.11.06-.46.06-.64c0-.89.13-1.71.16-2.6,0-.44.05-.89.08-1.31s0-.9.07-1.34,0-.87.09-1.3.05-.88.07-1.32.07-.86.09-1.3c0-.66.08-1.32.12-2,0-.11,0-.2,0-.31a.91.91,0,0,1,0-.17v-.08l0-.07a1.57,1.57,0,0,1,.08.49c0,.14.06.32.08.46a9.52,9.52,0,0,0,.11,1.06c.13.63.15,1.42.26,2a12.19,12.19,0,0,0,.22,1.48.41.41,0,0,0,.47,0c.16-.18.73-1.39.84-1.44s.15.07.21.15c.2.31.22.48.67.48h4.84c.49,0,.69-.53.91-.48s.24.3.31.4c.18.27.36.6.53.86a.34.34,0,0,0,.5.07,2.4,2.4,0,0,0,.25-.45c.09-.16.16-.4.29-.4s.12,1.5.18,1.85l.15,1.92c0,.43.07.88.1,1.29s.17,2.45.22,2.55a.38.38,0,0,0,.5,0,19.35,19.35,0,0,0,.15-1.94c0-.85.1-1.73.15-2.59l.21-3.93c0-.23,0-.45,0-.67.06-.46.09-1.46.11-2l.06-1c0-.12,0-.24.09-.23.09.67.15,1.32.25,2,.15,1,.24,2,.38,3a1.3,1.3,0,0,0,.1.47.44.44,0,0,0,.43,0c.18-.15.64-1.42.81-1.44s.41.45.5.55.16.06.29.06c.47,0,.95,0,1.42,0H45l6,0c.24,0,.34,0,.34-.27s-.08-.29-.34-.29l-10,0c-.26,0-.31-.07-.55-.41-.06-.08-.34-.46-.45-.48-.31-.06-.4.19-.51.41l-.23.46c0,.09,0,.11-.13.13a1.23,1.23,0,0,1-.11-.55c0-.17-.07-.39-.09-.56-.05-.39-.08-.79-.15-1.17s-.06-.85-.14-1.16c0-.14-.05-.43-.08-.59l-.22-1.75c0-.18-.06-.39-.08-.58s-.06-.4-.08-.59a5.58,5.58,0,0,0-.08-.57c-.05-.23-.41-.19-.48-.12a4.76,4.76,0,0,0-.14,1.2c0,.39,0,.86-.06,1.24s-.06.84-.08,1.24c-.06.81-.12,1.7-.14,2.49,0,.43-.06.82-.07,1.24s-.1,2.12-.14,2.52C37,48.92,37,50,36.94,50s0,0,0,0a7.26,7.26,0,0,1-.08-.84c0-.28,0-.58-.06-.85s-.07-.57-.08-.85,0-.59-.06-.87c0-.58.06-1-.42-1-.16,0-.18.13-.24.24l-.47.9c-.25.55-.3.23-.63-.29a5.71,5.71,0,0,0-.41-.6.39.39,0,0,0-.39,0,3.11,3.11,0,0,0-.28.23c-.1.09-.2.15-.29.23a.42.42,0,0,1-.39.14h-4.5c-.31,0-.3-.13-.45-.33s-.31-.62-.53-.6-.42.32-.57.61l-.28.49c-.18.22-.19-.38-.2-.5-.07-.92-.29-1.84-.34-2.76,0-.25-.08-.44-.09-.68,0-.57-.2-1.46-.26-2.06l-.17-1.4c0-.25,0-.47-.28-.48s-.32.15-.34.45l-.34,5.45c0,.13,0,.27,0,.4l-.1,1.46c-.06.86-.12,1.71-.14,2.57l0,.29c0,.05,0,0,0,.05Z"/><path class="cls-1" d="M0,51.38H14.75A3.21,3.21,0,0,0,14,49.49c-.16-.12-.05-.06-.14-.18l0-.06c-.4-.54-.21.17-.31-.49-.06-.5-1.94-2.59-2.35-3.1-.86-1-1.55-2-2.31-3.1-.43-.6-.86-1-1.23-1.47-1-1.14-3-3.43-4.33-3.73a1.66,1.66,0,0,0-.75-.24C2.09,37.1.7,38.27,0,38.52V51.38Z"/><path class="cls-2" d="M52.87,20.5A1.48,1.48,0,0,1,53,19.44a2.91,2.91,0,0,1,.5,1.07ZM38.72,15.35c-.18.35-.22.33-.58.6a11.53,11.53,0,0,0-1.65,1.43c-.43.5-.24.39-1,1.18a4.79,4.79,0,0,0-.83,1.2l0-.3c0-.24.8-1.63.82-2a10.69,10.69,0,0,0-1.42,3c-.41,1.55-.46,2.08-1.64,2.94a13.14,13.14,0,0,0-2.34,2.23c-.45.79-1.89,2.12-2,2.46l-.08.17,0,.08a.28.28,0,0,0,0,.09l-.19.41a3.89,3.89,0,0,0-.77.87L23.15,34c-.45.45-1,1.53-1.44,1.78a10,10,0,0,1,.48-1.25c-.48.3-1.53,3.27-1.65,3.9a9.83,9.83,0,0,1-.6,2,7,7,0,0,1-1.35,1.42,12.33,12.33,0,0,1-1.34,1.6c-.39.51-.79,1.18-1.19,1.79s-.72,1.2-1.12,1.86-.7,1.11-1.13,1.76l-.33-.11c.1.66-.09,0,.31.49l0,.06c.09.12,0,.06.14.18V49.1c.52-.49,2.09-3.47,2.67-4.31,1.59-2.31,2.31-2.47,3.19-3.79,1.2-1.8,1-4.22,3.62-6.83A71.12,71.12,0,0,0,29,27.49c.24-.31.48-.69.76-1a23.09,23.09,0,0,1,2.58-2.64c2.17-1.84.88-.74,2.11-3.11a11.36,11.36,0,0,1,1.37-2.09c.37-.43,1.2-1.57,1.68-1.75a19.68,19.68,0,0,1,1.64,4.63,6.7,6.7,0,0,0,1,2.1l1.68,4.48c1,2.77,1.82,3.46,3.31,5.92a12.55,12.55,0,0,1,1.11,2.06c.31.81.31,1.69.6,2.46.2.54,1.79,2.69,2.41,3.75l2.27,3.89a9.61,9.61,0,0,1-.39,2.48,24.06,24.06,0,0,0-.37,2.72h.24a29.73,29.73,0,0,1,.59-3.85c.36.13.25.09.49.42a1.18,1.18,0,0,1,.33.57c.18.14,0-.06.23.27a10.4,10.4,0,0,1,1,2.59H54L52.21,47c-.64-1.34-1.48-2.8-2.19-4-1.12-1.8-1.43-2.13-2.49-3.67-.88-1.3-.8-3.16-1.64-4.52A53.59,53.59,0,0,1,42.49,29c-.33-.7-.58-1.46-.88-2.19s-.53-1.44-.83-2.26a22,22,0,0,0-1-2.06,13.35,13.35,0,0,1-.63-2.41c-.15-.52-.8-2-.8-2.22a1.69,1.69,0,0,1-.38-1,14.18,14.18,0,0,0,1.17-1.43c.35-.43.56-1.08.89-1.57l.47,1a28.39,28.39,0,0,0,1.93,3c.37,0,.07.13.3-.08l-.14-.23c-.24-.25.18-.09.5-.44s1.74-3.11,2.28-3.51a2,2,0,0,1,1.84-.09c.5.24,1.41,2.3,1.72,2.92a10.28,10.28,0,0,1,.61,4c.18.23.13.17.05.43l-.06.2c.09.53.26.91.33,1.56s.34.81-.16,1.38c-1.05,0-1.06-.43-1.19-1.34-.28-1.9.13-1.44.28-2.06-1,.25-.49,1.75-.46,2.62-.82-.62-1.36-3-1.68-4.2a11.69,11.69,0,0,0-.85-2.05c-.39-.86-.54-1.91-.83-2-.09.3.69,2.47.73,3.12-.61.49-1.21.44-1.64.73,1.57.11,1.78-.79,2-.08-.37.31-1.58.38-2.09.6a1.33,1.33,0,0,0,1.2,0A1.93,1.93,0,0,1,46.31,19a8,8,0,0,1,.43,1.68c.15.63.31,1.16.42,1.73a6.34,6.34,0,0,0-.9.57c-.51.4-2.52,1.26-2.89,1.58.15.09-.06.11.29,0l.75-.37a14,14,0,0,0,2-1.09,2.64,2.64,0,0,1,1.07-.42c1.39,1.49,1.3,1.49,2.47,1.44.63,0,.25,0,.39.14a4.21,4.21,0,0,0,1,1.39c.8.6,1.17.11,1.76.1a3.35,3.35,0,0,0,0-1.4c.08-1.19,2-.1,3-.56-.43-.25-2.61,0-3.08-.12a20.65,20.65,0,0,1-.25-2.77c.87-.54,1.11.15,1.46.7.94,1.49,2.58,1.45,2.33-.19a.93.93,0,0,0,0-.21c-.16-.66-.35-1.35-.53-2-.16-.25-.13-.18-.07-.53a1.36,1.36,0,0,0,.12.12c.24.11.18,0,.36-.06a2.73,2.73,0,0,1,.77,1.76c.22-.15,0-1.11,0-1.34a10.31,10.31,0,0,1,1.58.84,1.3,1.3,0,0,0,.25.1c.32,0,.09.06.27-.06-.39-.49-1.29-.47-1.54-1.15.9,0,.21.42,1.42.3.47,0,1,0,1.31-.36l-1.76.07c-.22-.25-.21-.18-.47-.24a5,5,0,0,1-.68-.18c-2.27-.77-2-2.44-2.63-2.68l.16.66a8.59,8.59,0,0,1,.42,1.27c.12.54.08,1.09.17,1.53A16,16,0,0,1,56.35,22c-.24.23-.5.46-.9.32-.59-.29-.65-2.44-.71-2.94-.08.12-.13.1-.17.48a2.62,2.62,0,0,1,0,.62l0,.07.28,1.16c0,.16,0,0,0,.16a.2.2,0,0,1,0,.05s0,0,0,0a8.53,8.53,0,0,1-1.64-3.19,17.63,17.63,0,0,0-.77-2.84,1.93,1.93,0,0,1-.32-.82c-.19-.12-.07-.06-.25-.24s-.18,0-.1-.14c-.48,0-.18-.06-.3.22,1,2.65,1.73,1.64,1.15,5s.93,4.58.08,5.71l-1,0A2.86,2.86,0,0,1,51.35,24c0-1.48.28-1,.44-1.45-1,0-.59,1.88-.61,2.58a2,2,0,0,1-.6-1.24A9.26,9.26,0,0,1,50,20.61a15.89,15.89,0,0,1-.41-2.4c-.06-.45-.07-.83-.15-1.24s-.31-.59-.34-1.08c-.2-.11,0,.22-.23-.22-.08-.14-.06-.18-.13-.32a2,2,0,0,1-.32-.69,2.36,2.36,0,0,1-.54-1c.39-.22.85-.65,1.35-.66a1.69,1.69,0,0,1,1.38.54l.06,0,.27-.24.23-.37c0-.08.09-.16.15-.24a.9.9,0,0,1,.14-.17c.22-.87,2.06-.91,2.61-.22a5,5,0,0,1,.66,3l.28.06.11-.6a.07.07,0,0,1,0-.06,1.15,1.15,0,0,1,.52-1c.67.13.47.33.88.54.31,0,.53.19.8.46a5,5,0,0,1,.49.74l.54.21s.06,0,.08,0l2.19.18c-.15-.16,0,0-.19-.14l-.7-.16c-2-.24-1.17,0-2.22-1.05-1.69-1.75-1.79-1.1-2.53-.51-.35-.63-.1-2.08-1.71-2.41s-2,.62-2.57,1.49c-.58-.06-1-.74-2.72.11-.84.42-.47,0-1.22-.15-1.57-.24-2.1.87-2.92,2.19-.2.33-.48.7-.7,1.07-.89,1.53-.92.79-1.67-.39-1.5-2.32-1.55-2.12-.44-4.16.7-1.28.88-1.56.37-3a4.41,4.41,0,0,1-.3-1.75A2.61,2.61,0,0,0,41,6c-.24-.6-.35-.51-.56-.57.14.43.41.7.38,1.22-.4-.17,0-.24-.51-.22.13.34.16.2.34.49s.1.28.2.65c.49,1.77,1.07,2.08.2,3.7-.2.39-1.93,3.9-2.31,4.06Z"/><path class="cls-2" d="M2.51,37.12a1.66,1.66,0,0,1,.75.24c0-.63,1.48-2.42,1.81-3l1.65-3v1.1c.65-.67.47-4,.16-4.93a37.48,37.48,0,0,1-1-4.38c-1-5.19,1.09-6.53,1.39-9A37.92,37.92,0,0,1,8.09,9.5c.51-2,.56-2.38,2.63-2.8,4.35-.88,3.52-2.13,6-4.89,2-.08-.1,2.59-.81,3.91a12.59,12.59,0,0,1-2.14,3,2.32,2.32,0,0,1-.58.66c-.21.21-.28.4-.69.39l-.27-.55,0,0-.48-.59A1.45,1.45,0,0,0,11,8c.11.5,1,.79,1.18,1.79s-.7,1.45-.71,2.2a28.75,28.75,0,0,0,2.4-2.89c.42-.53.84-1,1.22-1.49a13.91,13.91,0,0,0,1-1.64l2.3-4.32a2.18,2.18,0,0,0,.24-.42C19.33-.46,19.91.64,20.7.1A2.45,2.45,0,0,0,19.51,0c-.54,0-.56,0-.82.38a9,9,0,0,0-1,1.46c-1.58-.54-1.13-1.16-3.29,2.59-1,1.73-3.24,1.76-4.63,2.18A2,2,0,0,0,8.11,8.4c-.21.93-.44,1.81-.61,2.76A19.67,19.67,0,0,1,7,14c-.45,1.23-.31,1.35-.77,2.59-1.3,3.54-.84,5.15-.19,8.73.41,2.28,1.47,3.3.44,5.6a17.87,17.87,0,0,1-1.65,3.38c-.19.32-.42.67-.67,1s-.41.65-.65,1c-.06.1-.29.46-.33.5-.33.3.07,0-.47.23l-.15.1Z"/><path class="cls-2" d="M60.94,16.12c1.22.72-.17,4,.58,7.23.1.45.3.55.19,1.16l-1.09,2.92A21.72,21.72,0,0,1,60,29.52c-.19.46-.3.44-.56.84l-1.39,2.19c0,.23,0,.06,0,.15a1.36,1.36,0,0,1,.59-.64c0,2.16.78,2.76,1.37,4.47.06.1.34.74.43.9.4.76,1,2.12,1.35,2.66,1.2,1.85,1,1.77.39,4.12-1,4.29-3.27,6.38-3.54,7.17H59c.28-.63,1.56-.88,2.73-4.58a23,23,0,0,0,1.14-5.21c0-.69-.12-.24-.27-.77.79.35,2.3,3.73,2.72,4.71A33.19,33.19,0,0,1,67,51.38h.21l-.65-3.28c.36.14.16,0,.56.68a22.26,22.26,0,0,0,1.51,2.34v-.49a32.3,32.3,0,0,1-2.29-3.77c-.77-1.32-1.36-2.7-2-4-1.55-3-1.45-1.83-2-2.52l-1.53-2.94c-.37-.75-.56-1.44-.9-2.08-.84-1.55-1.44-2.84-.31-4.58,1.74-2.7.84-1.74,1.8-4.27,1.1-2.87.3-2.49.19-5.08,0-1.07.14-1.87.14-2.89,0-2.55-.2-1.5-.43-2.54-.3.06-.16-.09-.28.19Z"/><path class="cls-2" d="M21.3,10.74l-.19-.33c-.36-1.15.53-2.37,1.2-3.68l.3-.63L23,5.6A1.6,1.6,0,0,1,23.32,5a2.88,2.88,0,0,1,.41-.55l-.05-.2c-.53.27-1.11,1.56-1.5,2.13l-.4.55c-.16.17,0,0-.19.16a5,5,0,0,1,2.19-3.22c.62-.53,2.52.16,3,.6.8.68.45,2.07.14,3.05a18.56,18.56,0,0,0-1,6c0,.32.14.56.16.85.3-.12.22,0,.19-.86l.23-2.57A8.53,8.53,0,0,1,27,9.43a2.71,2.71,0,0,1,.25-.69l.27-.48c.12-.13,0,0,.18-.15l0-.12c-.05-.3.07-.12-.1-.26a5.08,5.08,0,0,0-.64,1c0-.1-.09.11-.05-.26L27,8.25c.27-.8.13-1,.91-1.19A2.4,2.4,0,0,1,30,7.4l.22,0a2.82,2.82,0,0,0-1.07-.62c-.64-.21-1.07,0-1.67.08,0-.75.61-2.63-1.64-3.19-3-.74-2.71.71-3.6,1.17.15-1,.86-2.2.49-3.18-.19-.51,0-.2-.27-.35A5.66,5.66,0,0,1,22.18,4c-.48,1.75-2.36,5.44-1,7.19.11-.14,0,.05.1-.19,0,0,0-.22,0-.26Z"/><path class="cls-2" d="M30.83,14.54l.08.11c.08.2,0-.05.08.21a2.86,2.86,0,0,0,.46,1.26c.2.38.58,1,.95,1.09a4.15,4.15,0,0,1-.81-1.29,8.84,8.84,0,0,0,1.23.12l-.88-.37.54-.44a4.65,4.65,0,0,1,.78-.48c.1-.18.12-.17.34-.35l1.3-1.13a9.46,9.46,0,0,0,3-3.49,3.75,3.75,0,0,0,.55-1c.2-.6.45-.91.3-1.18-.35.44-1.39,3.18-2.15,3.55,0-.85.3-1.78.29-2.72s-.19-2.05.45-2.6c.92-.41,1.41,1.15,1.5,1.34l.1-.24c0-.3-.11-.62-.08-1.09.34-.19,1-.26,1.21-.49-.49-.3-1.47.42-1.6.48-1.82-.77-1.83.48-1.8,2l-.4,3.87a23.76,23.76,0,0,1-4.8,3.75A17.25,17.25,0,0,1,31,11.85a21,21,0,0,0-.13-3.7c-.1-.18,0-.07-.14-.18l0,.13s0,.05,0,.07a6.58,6.58,0,0,1,.09,1.25l.1,5.12Z"/><path class="cls-3" d="M50.93,51.38h1.75a16.74,16.74,0,0,0-.34-2.86A1.18,1.18,0,0,0,52,48c-.24-.33-.13-.29-.49-.42a29.73,29.73,0,0,0-.59,3.85Z"/><path class="cls-4" d="M17.06,15.57a17.64,17.64,0,0,0,1-2.31l1-1.56c.23-.43.07-.32.17-.67s.28-.08.52-1.16c.17-.78-.3-1,.12-3l.26-1c0-.52,0-.22-.11-.34a11.27,11.27,0,0,0-.61,2.63,9.19,9.19,0,0,0-.07,1.66c0,1-.13.5-.42,1.22s-.69,1.49-1,2.22c-.19.42-.36.76-.52,1.15l-.38.86c-.12.62-.05.18.06.32Z"/><path class="cls-3" d="M67.21,51.38h1.42v-.26a22.26,22.26,0,0,1-1.51-2.34c-.4-.64-.2-.54-.56-.68Z"/><path class="cls-2" d="M22.38,17.63a20.39,20.39,0,0,0,2.35-3.43c.56-1.16-.48-1.34.51-4.62.12-.41.14-.31,0-.51-.73,1-.76,4.19-.9,4.78a1.88,1.88,0,0,1-.4,1c-.2.3-.32.64-.51,1A10,10,0,0,0,22.38,17.63Z"/><path class="cls-2" d="M6.89,18.49a6,6,0,0,0,1.2-1.44c.7-1.05,3.07-3.8,3.19-4.64-.38.14-.71.69-1.11.93s-1.07.38-1.2.86l1.11-.48a7.48,7.48,0,0,1-.84,1.22L6.89,18.49Z"/><path class="cls-2" d="M29.56,16.09c.05,1.14.12.73-.34,1.58a5,5,0,0,1-.81,1c-.31.34-.42.49-.75.87-.15.17-.28.31-.38.45-.22.32-.07.21-.42.42,0,.35-1.93,2.88-2.05,3.45A14.3,14.3,0,0,0,26.15,22c.16-.29.11-.17.28-.28l1.31-1.84a2.73,2.73,0,0,1,1-1.09c.06-.18,0-.13.26-.36.7-.56.36-.63.7-.89A3.62,3.62,0,0,0,29.77,16l-.07-.42c-.22.17,0,0-.14.25v.22Z"/><path class="cls-2" d="M57.13,32.26l.2-.14L57.25,32c-2.83,1.19-3.89,3-5.39,3.43a4,4,0,0,0-1.88,1A5,5,0,0,0,51,36a10.65,10.65,0,0,0,2.88-1.32C55.17,33.77,54.63,33.5,57.13,32.26Z"/><path class="cls-4" d="M18,27c.36-.07.42-.52.6-.86s.33-.65.49-1l.9-2.08a6.7,6.7,0,0,1,.52-1l.92-2.05c.12-.27.45-.75.28-1a20,20,0,0,0-1,1.95Z"/><path class="cls-4" d="M51.28,27.56c-.26-.1-.32-.06-.49-.31a1.83,1.83,0,0,1-.6-.27l-.56-.05c-.08-.05-.07-.13-.13-.2-.59,0-2.11-1.36-2.91-1.39.19.33.34.31.67.51a5.69,5.69,0,0,0,.72.4c.5.22,1,.51,1.45.78a16.09,16.09,0,0,0,3.17,1.42C52.36,27.91,51.61,27.93,51.28,27.56Z"/><path class="cls-4" d="M15.48,10.81l1.77-3.26a3.89,3.89,0,0,0,.61-1.26c-.47.23-.32.38-.77,1a6.4,6.4,0,0,0-.7,1.07l-.8,1.81c-.37.83-.16.55-.11.62Z"/><path class="cls-4" d="M56.6,39.13c.08-.12.1,0,.06-.31A20.5,20.5,0,0,1,56,36.37c-.18-2.06-.34-1.62.21-3.1-.35.16-.27.2-.41.56l-.12.31a7.9,7.9,0,0,0,.05,2.28,15.62,15.62,0,0,0,.83,2.71Z"/><path class="cls-4" d="M23.23,26.48l.1-.49c-.31.12-.34.22-.51.47s-.23.4-.35.58a19.81,19.81,0,0,0-2,3.36c.28-.1.25-.15.41-.43l1.61-2.59a4.59,4.59,0,0,1,.7-.9Z"/><path class="cls-3" d="M26.43,21.71c0,.23-.07.11.14.22.33-.22,0,0,.16-.21l0-.07.08-.13a.15.15,0,0,1,.05-.06c.08.23.1.5.24.61.08-.08.11.09,0-.28L27,21.26c.25-.2.06.06.17-.28l.41.11c0-.24,0-.05-.1-.35l0-.07-.07-.18c.72,0,0-.1.53.26l.36-.35c.23,0,.05,0,.3-.06l-.18-.11-.06,0-.11-.08c-.16-.11,0,0-.15-.11s0-.06-.29-.13l-1.32,1.84Z"/><path class="cls-4" d="M50.61,13.5A6.3,6.3,0,0,0,51.45,15c.12-.28-.18-.22.3-.22-.08.13-.07,0,.1.14s.06.12.25.24a2.73,2.73,0,0,1-.33-.84c-.25-.87-.07-.7-.39-.92-.19.39,0,.4.09,1a1.81,1.81,0,0,1-.53-1.17l-.27.24-.06,0Z"/><path class="cls-4" d="M56.55,14.17l1.37,1.76c.23.24.25.39.55.49a1.14,1.14,0,0,0-.29-.66c.13-.24-.08,0,.28-.14,0,0-.06-.06-.08,0l-.54-.21a5,5,0,0,0-.49-.74C57.08,14.36,56.86,14.15,56.55,14.17Z"/><path class="cls-4" d="M59.67,25.44a1.6,1.6,0,0,0-.33-.75l-1-1.79c-.26-.47.07-.16-.43-.33l.8,1.62A2.92,2.92,0,0,0,59.67,25.44Z"/><path class="cls-4" d="M42.63,19.3a.63.63,0,0,0-.07.21s0,0,0,0,0,0,0,.05v.09a5.05,5.05,0,0,0-1.2,1.53c.33,0,.83-.8,1.53-1.47.3-.29.4-.25.53-.67l-.77.21Z"/><path class="cls-4" d="M59.72,23.81c-.36-.74-1-.95-1.24-1.26-.41-.6.12-.11-.77-1.1-.17-.19-.15-.19-.35-.28l.9,1.5a3.76,3.76,0,0,0,1.46,1.14Z"/><path class="cls-5" d="M29.56,16.09v-.22c.1-.27-.08-.08.14-.25a7.76,7.76,0,0,1-.25-1.53c0-.37.17-1.3-.17-1.46a9.08,9.08,0,0,0-.06,1.83l.3,1.56s0,.05,0,.07Z"/><path class="cls-3" d="M28.69,18.78c-.05.38,0,.06.07.2.15-.31,0-.23.43-.14-.13-.13-.17-.09-.1-.28h.45c0,.45-.43.44.06.52a.86.86,0,0,0,0-.72l.23-.2c.07-.14,0-.18,0-.45,0,0,.09,0,.12,0l.23.07.1.05.09,0,.08,0c-.26-.27,0-.1-.38-.27l-.43-.17c-.34.26,0,.33-.7.89-.29.23-.2.18-.26.36Z"/><path class="cls-6" d="M12.2,9.18l.27.55c.41,0,.48-.18.69-.39a2.32,2.32,0,0,0,.58-.66c-.71,0-.18-.09-.73.23a.84.84,0,0,1-.45.12c-.39.07-.09-.16-.36.15Z"/><path class="cls-4" d="M27.73,28.89l.19-.41a.19.19,0,0,1,0-.08l0-.09.08-.17a8.4,8.4,0,0,0-2.28,2.16,9.58,9.58,0,0,0,1.86-1.66c.2.12,0-.05.11.25Z"/><path class="cls-4" d="M42.4,17.8a1.77,1.77,0,0,0,1.46,1.06c-.11-.32.08-.1-.22-.31a2.33,2.33,0,0,1-.83-.65c.36.05.28.16.53,0-.19-.26-.45-.26-.78-.42l.14.23c-.23.21.07.09-.3.08Z"/><path class="cls-2" d="M21.8,14.18v.3l.22-.14c-.14-.68.31-1.77,0-2.42-.08.07-.15,0-.19.39s.05,1.34,0,1.87Z"/><path class="cls-2" d="M30.21,21.36l.73-2c.11-.56,0-.26-.08-.33C30.64,19.4,29.9,21,30.21,21.36Z"/><path class="cls-4" d="M40.27,21.12a4.65,4.65,0,0,0,1.93-1.6A7.12,7.12,0,0,0,40.27,21.12Z"/><path class="cls-2" d="M27.12,17.17c.29-.18.14.07.24-.4.07-.3.45-1.11.15-1.68-.06.07-.11-.07-.2.49Z"/><path class="cls-4" d="M5.3,34.51A2.87,2.87,0,0,0,6.65,32.8,6.15,6.15,0,0,0,5.3,34.51Z"/><path class="cls-6" d="M52.87,20.5h.59a2.91,2.91,0,0,0-.5-1.07,1.48,1.48,0,0,0-.09,1.06Z"/><path class="cls-4" d="M54,29.83c.51.09.19.1.27-.17-.46-.14-.68-.77-1.37-.88.14.47-.15.06.6.61A3.2,3.2,0,0,1,54,29.83Z"/><path class="cls-3" d="M26.06,24.31c-.33-.13-.08,0-.23-.17s.05-.09-.19-.2l-.05.29v.05c0,.16,0-.05,0,.19L26,24.3s0,0,0,.08c.05.26.24.28.26.28l0-.62c0-.14,0-.08.12-.22a.94.94,0,0,0-.39-.15c.05.49.13.23,0,.64Z"/><path class="cls-4" d="M21.11.19a2.52,2.52,0,0,0,1.1.57,1.06,1.06,0,0,0-.87-.64C20.89.14,21.34.09,21.11.19Z"/><path class="cls-2" d="M43.24,7.68c.08-.07.23,0,.28-.5a1.26,1.26,0,0,0-.07-.76l-.21,1.26Z"/><path class="cls-4" d="M42.2,19.42c.35-.1.38-.12.51-.51-.39,0-.12-.11-.35.14a.85.85,0,0,0-.16.37Z"/><path class="cls-2" d="M40,6.45c-.1-.23,0-.14-.21-.3a.81.81,0,0,0-.38-.1C39.56,6.39,39.61,6.41,40,6.45Z"/><path class="cls-6" d="M22,14.34l-.22.14v-.3c-.21.34-.25.39.11.51l.12-.35Z"/><path class="cls-7" d="M24.42,49.46c-.07-.22-.23-3.51-.29-3.67a.33.33,0,0,0-.53,0c-.11.16-.2.32-.3.48-.41.67-.3.56-.75.2-.77-.6-.56-.77-1.36-.3a1.4,1.4,0,0,1-1.13.28H16.62c-.24,0-.4,0-.41.25s.3.32.86.31h3.35c.62,0,.66-.14,1.13-.39.27-.15.46.12.65.29l.54.47a.32.32,0,0,0,.39.09c.15,0,.17-.15.25-.26s.12-.24.2-.25.09,0,.09.13c0,.81.14,1.6.17,2.43s.14,1.74.18,2.61c0,.12,0,.2,0,.29.05.55,0,1.1.1,1.66,0,.16,0,.55,0,.64s.38.19.51.11.06-.46.06-.64c0-.89.13-1.71.16-2.6,0-.44.05-.89.08-1.31s0-.9.07-1.34,0-.87.09-1.3.05-.88.07-1.32.07-.86.09-1.3c0-.66.08-1.32.12-2,0-.11,0-.2,0-.31a.91.91,0,0,1,0-.17v-.08l0-.07a1.57,1.57,0,0,1,.08.49c0,.14.06.32.08.46a9.52,9.52,0,0,0,.11,1.06c.13.63.15,1.42.26,2a12.19,12.19,0,0,0,.22,1.48.41.41,0,0,0,.47,0c.16-.18.73-1.39.84-1.44s.15.07.21.15c.2.31.22.48.67.48h4.84c.49,0,.69-.53.91-.48s.24.3.31.4c.18.27.36.6.53.86a.34.34,0,0,0,.5.07,2.4,2.4,0,0,0,.25-.45c.09-.16.16-.4.29-.4s.12,1.5.18,1.85l.15,1.92c0,.43.07.88.1,1.29s.17,2.45.22,2.55a.38.38,0,0,0,.5,0,19.35,19.35,0,0,0,.15-1.94c0-.85.1-1.73.15-2.59l.21-3.93c0-.23,0-.45,0-.67.06-.46.09-1.46.11-2l.06-1c0-.12,0-.24.09-.23.09.67.15,1.32.25,2,.15,1,.24,2,.38,3a1.3,1.3,0,0,0,.1.47.44.44,0,0,0,.43,0c.18-.15.64-1.42.81-1.44s.41.45.5.55.16.06.29.06c.47,0,.95,0,1.42,0H45l6,0c.24,0,.34,0,.34-.27s-.08-.29-.34-.29l-10,0c-.26,0-.31-.07-.55-.41-.06-.08-.34-.46-.45-.48-.31-.06-.4.19-.51.41l-.23.46c0,.09,0,.11-.13.13a1.23,1.23,0,0,1-.11-.55c0-.17-.07-.39-.09-.56-.05-.39-.08-.79-.15-1.17s-.06-.85-.14-1.16c0-.14-.05-.43-.08-.59l-.22-1.75c0-.18-.06-.39-.08-.58s-.06-.4-.08-.59a5.58,5.58,0,0,0-.08-.57c-.05-.23-.41-.19-.48-.12a4.76,4.76,0,0,0-.14,1.2c0,.39,0,.86-.06,1.24s-.06.84-.08,1.24c-.06.81-.12,1.7-.14,2.49,0,.43-.06.82-.07,1.24s-.1,2.12-.14,2.52C37,48.92,37,50,36.94,50s0,0,0,0a7.26,7.26,0,0,1-.08-.84c0-.28,0-.58-.06-.85s-.07-.57-.08-.85,0-.59-.06-.87c0-.58.06-1-.42-1-.16,0-.18.13-.24.24l-.47.9c-.25.55-.3.23-.63-.29a5.71,5.71,0,0,0-.41-.6.39.39,0,0,0-.39,0,3.11,3.11,0,0,0-.28.23c-.1.09-.2.15-.29.23a.42.42,0,0,1-.39.14h-4.5c-.31,0-.3-.13-.45-.33s-.31-.62-.53-.6-.42.32-.57.61l-.28.49c-.18.22-.19-.38-.2-.5-.07-.92-.29-1.84-.34-2.76,0-.25-.08-.44-.09-.68,0-.57-.2-1.46-.26-2.06l-.17-1.4c0-.25,0-.47-.28-.48s-.32.15-.34.45l-.34,5.45c0,.13,0,.27,0,.4l-.1,1.46c-.06.86-.12,1.71-.14,2.57l0,.29c0,.05,0,0,0,.05Z"/><path class="cls-1" d="M0,51.38H14.75A3.21,3.21,0,0,0,14,49.49c-.16-.12-.05-.06-.14-.18l0-.06c-.4-.54-.21.17-.31-.49-.06-.5-1.94-2.59-2.35-3.1-.86-1-1.55-2-2.31-3.1-.43-.6-.86-1-1.23-1.47-1-1.14-3-3.43-4.33-3.73a1.66,1.66,0,0,0-.75-.24C2.09,37.1.7,38.27,0,38.52V51.38Z"/><path class="cls-2" d="M52.87,20.5A1.48,1.48,0,0,1,53,19.44a2.91,2.91,0,0,1,.5,1.07ZM38.72,15.35c-.18.35-.22.33-.58.6a11.53,11.53,0,0,0-1.65,1.43c-.43.5-.24.39-1,1.18a4.79,4.79,0,0,0-.83,1.2l0-.3c0-.24.8-1.63.82-2a10.69,10.69,0,0,0-1.42,3c-.41,1.55-.46,2.08-1.64,2.94a13.14,13.14,0,0,0-2.34,2.23c-.45.79-1.89,2.12-2,2.46l-.08.17,0,.08a.28.28,0,0,0,0,.09l-.19.41a3.89,3.89,0,0,0-.77.87L23.15,34c-.45.45-1,1.53-1.44,1.78a10,10,0,0,1,.48-1.25c-.48.3-1.53,3.27-1.65,3.9a9.83,9.83,0,0,1-.6,2,7,7,0,0,1-1.35,1.42,12.33,12.33,0,0,1-1.34,1.6c-.39.51-.79,1.18-1.19,1.79s-.72,1.2-1.12,1.86-.7,1.11-1.13,1.76l-.33-.11c.1.66-.09,0,.31.49l0,.06c.09.12,0,.06.14.18V49.1c.52-.49,2.09-3.47,2.67-4.31,1.59-2.31,2.31-2.47,3.19-3.79,1.2-1.8,1-4.22,3.62-6.83A71.12,71.12,0,0,0,29,27.49c.24-.31.48-.69.76-1a23.09,23.09,0,0,1,2.58-2.64c2.17-1.84.88-.74,2.11-3.11a11.36,11.36,0,0,1,1.37-2.09c.37-.43,1.2-1.57,1.68-1.75a19.68,19.68,0,0,1,1.64,4.63,6.7,6.7,0,0,0,1,2.1l1.68,4.48c1,2.77,1.82,3.46,3.31,5.92a12.55,12.55,0,0,1,1.11,2.06c.31.81.31,1.69.6,2.46.2.54,1.79,2.69,2.41,3.75l2.27,3.89a9.61,9.61,0,0,1-.39,2.48,24.06,24.06,0,0,0-.37,2.72h.24a29.73,29.73,0,0,1,.59-3.85c.36.13.25.09.49.42a1.18,1.18,0,0,1,.33.57c.18.14,0-.06.23.27a10.4,10.4,0,0,1,1,2.59H54L52.21,47c-.64-1.34-1.48-2.8-2.19-4-1.12-1.8-1.43-2.13-2.49-3.67-.88-1.3-.8-3.16-1.64-4.52A53.59,53.59,0,0,1,42.49,29c-.33-.7-.58-1.46-.88-2.19s-.53-1.44-.83-2.26a22,22,0,0,0-1-2.06,13.35,13.35,0,0,1-.63-2.41c-.15-.52-.8-2-.8-2.22a1.69,1.69,0,0,1-.38-1,14.18,14.18,0,0,0,1.17-1.43c.35-.43.56-1.08.89-1.57l.47,1a28.39,28.39,0,0,0,1.93,3c.37,0,.07.13.3-.08l-.14-.23c-.24-.25.18-.09.5-.44s1.74-3.11,2.28-3.51a2,2,0,0,1,1.84-.09c.5.24,1.41,2.3,1.72,2.92a10.28,10.28,0,0,1,.61,4c.18.23.13.17.05.43l-.06.2c.09.53.26.91.33,1.56s.34.81-.16,1.38c-1.05,0-1.06-.43-1.19-1.34-.28-1.9.13-1.44.28-2.06-1,.25-.49,1.75-.46,2.62-.82-.62-1.36-3-1.68-4.2a11.69,11.69,0,0,0-.85-2.05c-.39-.86-.54-1.91-.83-2-.09.3.69,2.47.73,3.12-.61.49-1.21.44-1.64.73,1.57.11,1.78-.79,2-.08-.37.31-1.58.38-2.09.6a1.33,1.33,0,0,0,1.2,0A1.93,1.93,0,0,1,46.31,19a8,8,0,0,1,.43,1.68c.15.63.31,1.16.42,1.73a6.34,6.34,0,0,0-.9.57c-.51.4-2.52,1.26-2.89,1.58.15.09-.06.11.29,0l.75-.37a14,14,0,0,0,2-1.09,2.64,2.64,0,0,1,1.07-.42c1.39,1.49,1.3,1.49,2.47,1.44.63,0,.25,0,.39.14a4.21,4.21,0,0,0,1,1.39c.8.6,1.17.11,1.76.1a3.35,3.35,0,0,0,0-1.4c.08-1.19,2-.1,3-.56-.43-.25-2.61,0-3.08-.12a20.65,20.65,0,0,1-.25-2.77c.87-.54,1.11.15,1.46.7.94,1.49,2.58,1.45,2.33-.19a.93.93,0,0,0,0-.21c-.16-.66-.35-1.35-.53-2-.16-.25-.13-.18-.07-.53a1.36,1.36,0,0,0,.12.12c.24.11.18,0,.36-.06a2.73,2.73,0,0,1,.77,1.76c.22-.15,0-1.11,0-1.34a10.31,10.31,0,0,1,1.58.84,1.3,1.3,0,0,0,.25.1c.32,0,.09.06.27-.06-.39-.49-1.29-.47-1.54-1.15.9,0,.21.42,1.42.3.47,0,1,0,1.31-.36l-1.76.07c-.22-.25-.21-.18-.47-.24a5,5,0,0,1-.68-.18c-2.27-.77-2-2.44-2.63-2.68l.16.66a8.59,8.59,0,0,1,.42,1.27c.12.54.08,1.09.17,1.53A16,16,0,0,1,56.35,22c-.24.23-.5.46-.9.32-.59-.29-.65-2.44-.71-2.94-.08.12-.13.1-.17.48a2.62,2.62,0,0,1,0,.62l0,.07.28,1.16c0,.16,0,0,0,.16a.2.2,0,0,1,0,.05s0,0,0,0a8.53,8.53,0,0,1-1.64-3.19,17.63,17.63,0,0,0-.77-2.84,1.93,1.93,0,0,1-.32-.82c-.19-.12-.07-.06-.25-.24s-.18,0-.1-.14c-.48,0-.18-.06-.3.22,1,2.65,1.73,1.64,1.15,5s.93,4.58.08,5.71l-1,0A2.86,2.86,0,0,1,51.35,24c0-1.48.28-1,.44-1.45-1,0-.59,1.88-.61,2.58a2,2,0,0,1-.6-1.24A9.26,9.26,0,0,1,50,20.61a15.89,15.89,0,0,1-.41-2.4c-.06-.45-.07-.83-.15-1.24s-.31-.59-.34-1.08c-.2-.11,0,.22-.23-.22-.08-.14-.06-.18-.13-.32a2,2,0,0,1-.32-.69,2.36,2.36,0,0,1-.54-1c.39-.22.85-.65,1.35-.66a1.69,1.69,0,0,1,1.38.54l.06,0,.27-.24.23-.37c0-.08.09-.16.15-.24a.9.9,0,0,1,.14-.17c.22-.87,2.06-.91,2.61-.22a5,5,0,0,1,.66,3l.28.06.11-.6a.07.07,0,0,1,0-.06,1.15,1.15,0,0,1,.52-1c.67.13.47.33.88.54.31,0,.53.19.8.46a5,5,0,0,1,.49.74l.54.21s.06,0,.08,0l2.19.18c-.15-.16,0,0-.19-.14l-.7-.16c-2-.24-1.17,0-2.22-1.05-1.69-1.75-1.79-1.1-2.53-.51-.35-.63-.1-2.08-1.71-2.41s-2,.62-2.57,1.49c-.58-.06-1-.74-2.72.11-.84.42-.47,0-1.22-.15-1.57-.24-2.1.87-2.92,2.19-.2.33-.48.7-.7,1.07-.89,1.53-.92.79-1.67-.39-1.5-2.32-1.55-2.12-.44-4.16.7-1.28.88-1.56.37-3a4.41,4.41,0,0,1-.3-1.75A2.61,2.61,0,0,0,41,6c-.24-.6-.35-.51-.56-.57.14.43.41.7.38,1.22-.4-.17,0-.24-.51-.22.13.34.16.2.34.49s.1.28.2.65c.49,1.77,1.07,2.08.2,3.7-.2.39-1.93,3.9-2.31,4.06Z"/><path class="cls-2" d="M2.51,37.12a1.66,1.66,0,0,1,.75.24c0-.63,1.48-2.42,1.81-3l1.65-3v1.1c.65-.67.47-4,.16-4.93a37.48,37.48,0,0,1-1-4.38c-1-5.19,1.09-6.53,1.39-9A37.92,37.92,0,0,1,8.09,9.5c.51-2,.56-2.38,2.63-2.8,4.35-.88,3.52-2.13,6-4.89,2-.08-.1,2.59-.81,3.91a12.59,12.59,0,0,1-2.14,3,2.32,2.32,0,0,1-.58.66c-.21.21-.28.4-.69.39l-.27-.55,0,0-.48-.59A1.45,1.45,0,0,0,11,8c.11.5,1,.79,1.18,1.79s-.7,1.45-.71,2.2a28.75,28.75,0,0,0,2.4-2.89c.42-.53.84-1,1.22-1.49a13.91,13.91,0,0,0,1-1.64l2.3-4.32a2.18,2.18,0,0,0,.24-.42C19.33-.46,19.91.64,20.7.1A2.45,2.45,0,0,0,19.51,0c-.54,0-.56,0-.82.38a9,9,0,0,0-1,1.46c-1.58-.54-1.13-1.16-3.29,2.59-1,1.73-3.24,1.76-4.63,2.18A2,2,0,0,0,8.11,8.4c-.21.93-.44,1.81-.61,2.76A19.67,19.67,0,0,1,7,14c-.45,1.23-.31,1.35-.77,2.59-1.3,3.54-.84,5.15-.19,8.73.41,2.28,1.47,3.3.44,5.6a17.87,17.87,0,0,1-1.65,3.38c-.19.32-.42.67-.67,1s-.41.65-.65,1c-.06.1-.29.46-.33.5-.33.3.07,0-.47.23l-.15.1Z"/><path class="cls-2" d="M60.94,16.12c1.22.72-.17,4,.58,7.23.1.45.3.55.19,1.16l-1.09,2.92A21.72,21.72,0,0,1,60,29.52c-.19.46-.3.44-.56.84l-1.39,2.19c0,.23,0,.06,0,.15a1.36,1.36,0,0,1,.59-.64c0,2.16.78,2.76,1.37,4.47.06.1.34.74.43.9.4.76,1,2.12,1.35,2.66,1.2,1.85,1,1.77.39,4.12-1,4.29-3.27,6.38-3.54,7.17H59c.28-.63,1.56-.88,2.73-4.58a23,23,0,0,0,1.14-5.21c0-.69-.12-.24-.27-.77.79.35,2.3,3.73,2.72,4.71A33.19,33.19,0,0,1,67,51.38h.21l-.65-3.28c.36.14.16,0,.56.68a22.26,22.26,0,0,0,1.51,2.34v-.49a32.3,32.3,0,0,1-2.29-3.77c-.77-1.32-1.36-2.7-2-4-1.55-3-1.45-1.83-2-2.52l-1.53-2.94c-.37-.75-.56-1.44-.9-2.08-.84-1.55-1.44-2.84-.31-4.58,1.74-2.7.84-1.74,1.8-4.27,1.1-2.87.3-2.49.19-5.08,0-1.07.14-1.87.14-2.89,0-2.55-.2-1.5-.43-2.54-.3.06-.16-.09-.28.19Z"/><path class="cls-2" d="M21.3,10.74l-.19-.33c-.36-1.15.53-2.37,1.2-3.68l.3-.63L23,5.6A1.6,1.6,0,0,1,23.32,5a2.88,2.88,0,0,1,.41-.55l-.05-.2c-.53.27-1.11,1.56-1.5,2.13l-.4.55c-.16.17,0,0-.19.16a5,5,0,0,1,2.19-3.22c.62-.53,2.52.16,3,.6.8.68.45,2.07.14,3.05a18.56,18.56,0,0,0-1,6c0,.32.14.56.16.85.3-.12.22,0,.19-.86l.23-2.57A8.53,8.53,0,0,1,27,9.43a2.71,2.71,0,0,1,.25-.69l.27-.48c.12-.13,0,0,.18-.15l0-.12c-.05-.3.07-.12-.1-.26a5.08,5.08,0,0,0-.64,1c0-.1-.09.11-.05-.26L27,8.25c.27-.8.13-1,.91-1.19A2.4,2.4,0,0,1,30,7.4l.22,0a2.82,2.82,0,0,0-1.07-.62c-.64-.21-1.07,0-1.67.08,0-.75.61-2.63-1.64-3.19-3-.74-2.71.71-3.6,1.17.15-1,.86-2.2.49-3.18-.19-.51,0-.2-.27-.35A5.66,5.66,0,0,1,22.18,4c-.48,1.75-2.36,5.44-1,7.19.11-.14,0,.05.1-.19,0,0,0-.22,0-.26Z"/><path class="cls-2" d="M30.83,14.54l.08.11c.08.2,0-.05.08.21a2.86,2.86,0,0,0,.46,1.26c.2.38.58,1,.95,1.09a4.15,4.15,0,0,1-.81-1.29,8.84,8.84,0,0,0,1.23.12l-.88-.37.54-.44a4.65,4.65,0,0,1,.78-.48c.1-.18.12-.17.34-.35l1.3-1.13a9.46,9.46,0,0,0,3-3.49,3.75,3.75,0,0,0,.55-1c.2-.6.45-.91.3-1.18-.35.44-1.39,3.18-2.15,3.55,0-.85.3-1.78.29-2.72s-.19-2.05.45-2.6c.92-.41,1.41,1.15,1.5,1.34l.1-.24c0-.3-.11-.62-.08-1.09.34-.19,1-.26,1.21-.49-.49-.3-1.47.42-1.6.48-1.82-.77-1.83.48-1.8,2l-.4,3.87a23.76,23.76,0,0,1-4.8,3.75A17.25,17.25,0,0,1,31,11.85a21,21,0,0,0-.13-3.7c-.1-.18,0-.07-.14-.18l0,.13s0,.05,0,.07a6.58,6.58,0,0,1,.09,1.25l.1,5.12Z"/><path class="cls-3" d="M50.93,51.38h1.75a16.74,16.74,0,0,0-.34-2.86A1.18,1.18,0,0,0,52,48c-.24-.33-.13-.29-.49-.42a29.73,29.73,0,0,0-.59,3.85Z"/><path class="cls-4" d="M17.06,15.57a17.64,17.64,0,0,0,1-2.31l1-1.56c.23-.43.07-.32.17-.67s.28-.08.52-1.16c.17-.78-.3-1,.12-3l.26-1c0-.52,0-.22-.11-.34a11.27,11.27,0,0,0-.61,2.63,9.19,9.19,0,0,0-.07,1.66c0,1-.13.5-.42,1.22s-.69,1.49-1,2.22c-.19.42-.36.76-.52,1.15l-.38.86c-.12.62-.05.18.06.32Z"/><path class="cls-3" d="M67.21,51.38h1.42v-.26a22.26,22.26,0,0,1-1.51-2.34c-.4-.64-.2-.54-.56-.68Z"/><path class="cls-2" d="M22.38,17.63a20.39,20.39,0,0,0,2.35-3.43c.56-1.16-.48-1.34.51-4.62.12-.41.14-.31,0-.51-.73,1-.76,4.19-.9,4.78a1.88,1.88,0,0,1-.4,1c-.2.3-.32.64-.51,1A10,10,0,0,0,22.38,17.63Z"/><path class="cls-2" d="M6.89,18.49a6,6,0,0,0,1.2-1.44c.7-1.05,3.07-3.8,3.19-4.64-.38.14-.71.69-1.11.93s-1.07.38-1.2.86l1.11-.48a7.48,7.48,0,0,1-.84,1.22L6.89,18.49Z"/><path class="cls-2" d="M29.56,16.09c.05,1.14.12.73-.34,1.58a5,5,0,0,1-.81,1c-.31.34-.42.49-.75.87-.15.17-.28.31-.38.45-.22.32-.07.21-.42.42,0,.35-1.93,2.88-2.05,3.45A14.3,14.3,0,0,0,26.15,22c.16-.29.11-.17.28-.28l1.31-1.84a2.73,2.73,0,0,1,1-1.09c.06-.18,0-.13.26-.36.7-.56.36-.63.7-.89A3.62,3.62,0,0,0,29.77,16l-.07-.42c-.22.17,0,0-.14.25v.22Z"/><path class="cls-2" d="M57.13,32.26l.2-.14L57.25,32c-2.83,1.19-3.89,3-5.39,3.43a4,4,0,0,0-1.88,1A5,5,0,0,0,51,36a10.65,10.65,0,0,0,2.88-1.32C55.17,33.77,54.63,33.5,57.13,32.26Z"/><path class="cls-4" d="M18,27c.36-.07.42-.52.6-.86s.33-.65.49-1l.9-2.08a6.7,6.7,0,0,1,.52-1l.92-2.05c.12-.27.45-.75.28-1a20,20,0,0,0-1,1.95Z"/><path class="cls-4" d="M51.28,27.56c-.26-.1-.32-.06-.49-.31a1.83,1.83,0,0,1-.6-.27l-.56-.05c-.08-.05-.07-.13-.13-.2-.59,0-2.11-1.36-2.91-1.39.19.33.34.31.67.51a5.69,5.69,0,0,0,.72.4c.5.22,1,.51,1.45.78a16.09,16.09,0,0,0,3.17,1.42C52.36,27.91,51.61,27.93,51.28,27.56Z"/><path class="cls-4" d="M15.48,10.81l1.77-3.26a3.89,3.89,0,0,0,.61-1.26c-.47.23-.32.38-.77,1a6.4,6.4,0,0,0-.7,1.07l-.8,1.81c-.37.83-.16.55-.11.62Z"/><path class="cls-4" d="M56.6,39.13c.08-.12.1,0,.06-.31A20.5,20.5,0,0,1,56,36.37c-.18-2.06-.34-1.62.21-3.1-.35.16-.27.2-.41.56l-.12.31a7.9,7.9,0,0,0,.05,2.28,15.62,15.62,0,0,0,.83,2.71Z"/><path class="cls-4" d="M23.23,26.48l.1-.49c-.31.12-.34.22-.51.47s-.23.4-.35.58a19.81,19.81,0,0,0-2,3.36c.28-.1.25-.15.41-.43l1.61-2.59a4.59,4.59,0,0,1,.7-.9Z"/><path class="cls-3" d="M26.43,21.71c0,.23-.07.11.14.22.33-.22,0,0,.16-.21l0-.07.08-.13a.15.15,0,0,1,.05-.06c.08.23.1.5.24.61.08-.08.11.09,0-.28L27,21.26c.25-.2.06.06.17-.28l.41.11c0-.24,0-.05-.1-.35l0-.07-.07-.18c.72,0,0-.1.53.26l.36-.35c.23,0,.05,0,.3-.06l-.18-.11-.06,0-.11-.08c-.16-.11,0,0-.15-.11s0-.06-.29-.13l-1.32,1.84Z"/><path class="cls-4" d="M50.61,13.5A6.3,6.3,0,0,0,51.45,15c.12-.28-.18-.22.3-.22-.08.13-.07,0,.1.14s.06.12.25.24a2.73,2.73,0,0,1-.33-.84c-.25-.87-.07-.7-.39-.92-.19.39,0,.4.09,1a1.81,1.81,0,0,1-.53-1.17l-.27.24-.06,0Z"/><path class="cls-4" d="M56.55,14.17l1.37,1.76c.23.24.25.39.55.49a1.14,1.14,0,0,0-.29-.66c.13-.24-.08,0,.28-.14,0,0-.06-.06-.08,0l-.54-.21a5,5,0,0,0-.49-.74C57.08,14.36,56.86,14.15,56.55,14.17Z"/><path class="cls-4" d="M59.67,25.44a1.6,1.6,0,0,0-.33-.75l-1-1.79c-.26-.47.07-.16-.43-.33l.8,1.62A2.92,2.92,0,0,0,59.67,25.44Z"/><path class="cls-4" d="M42.63,19.3a.63.63,0,0,0-.07.21s0,0,0,0,0,0,0,.05v.09a5.05,5.05,0,0,0-1.2,1.53c.33,0,.83-.8,1.53-1.47.3-.29.4-.25.53-.67l-.77.21Z"/><path class="cls-4" d="M59.72,23.81c-.36-.74-1-.95-1.24-1.26-.41-.6.12-.11-.77-1.1-.17-.19-.15-.19-.35-.28l.9,1.5a3.76,3.76,0,0,0,1.46,1.14Z"/><path class="cls-5" d="M29.56,16.09v-.22c.1-.27-.08-.08.14-.25a7.76,7.76,0,0,1-.25-1.53c0-.37.17-1.3-.17-1.46a9.08,9.08,0,0,0-.06,1.83l.3,1.56s0,.05,0,.07Z"/><path class="cls-3" d="M28.69,18.78c-.05.38,0,.06.07.2.15-.31,0-.23.43-.14-.13-.13-.17-.09-.1-.28h.45c0,.45-.43.44.06.52a.86.86,0,0,0,0-.72l.23-.2c.07-.14,0-.18,0-.45,0,0,.09,0,.12,0l.23.07.1.05.09,0,.08,0c-.26-.27,0-.1-.38-.27l-.43-.17c-.34.26,0,.33-.7.89-.29.23-.2.18-.26.36Z"/><path class="cls-6" d="M12.2,9.18l.27.55c.41,0,.48-.18.69-.39a2.32,2.32,0,0,0,.58-.66c-.71,0-.18-.09-.73.23a.84.84,0,0,1-.45.12c-.39.07-.09-.16-.36.15Z"/><path class="cls-4" d="M27.73,28.89l.19-.41a.19.19,0,0,1,0-.08l0-.09.08-.17a8.4,8.4,0,0,0-2.28,2.16,9.58,9.58,0,0,0,1.86-1.66c.2.12,0-.05.11.25Z"/><path class="cls-4" d="M42.4,17.8a1.77,1.77,0,0,0,1.46,1.06c-.11-.32.08-.1-.22-.31a2.33,2.33,0,0,1-.83-.65c.36.05.28.16.53,0-.19-.26-.45-.26-.78-.42l.14.23c-.23.21.07.09-.3.08Z"/><path class="cls-2" d="M21.8,14.18v.3l.22-.14c-.14-.68.31-1.77,0-2.42-.08.07-.15,0-.19.39s.05,1.34,0,1.87Z"/><path class="cls-2" d="M30.21,21.36l.73-2c.11-.56,0-.26-.08-.33C30.64,19.4,29.9,21,30.21,21.36Z"/><path class="cls-4" d="M40.27,21.12a4.65,4.65,0,0,0,1.93-1.6A7.12,7.12,0,0,0,40.27,21.12Z"/><path class="cls-2" d="M27.12,17.17c.29-.18.14.07.24-.4.07-.3.45-1.11.15-1.68-.06.07-.11-.07-.2.49Z"/><path class="cls-4" d="M5.3,34.51A2.87,2.87,0,0,0,6.65,32.8,6.15,6.15,0,0,0,5.3,34.51Z"/><path class="cls-6" d="M52.87,20.5h.59a2.91,2.91,0,0,0-.5-1.07,1.48,1.48,0,0,0-.09,1.06Z"/><path class="cls-4" d="M54,29.83c.51.09.19.1.27-.17-.46-.14-.68-.77-1.37-.88.14.47-.15.06.6.61A3.2,3.2,0,0,1,54,29.83Z"/><path class="cls-3" d="M26.06,24.31c-.33-.13-.08,0-.23-.17s.05-.09-.19-.2l-.05.29v.05c0,.16,0-.05,0,.19L26,24.3s0,0,0,.08c.05.26.24.28.26.28l0-.62c0-.14,0-.08.12-.22a.94.94,0,0,0-.39-.15c.05.49.13.23,0,.64Z"/><path class="cls-4" d="M21.11.19a2.52,2.52,0,0,0,1.1.57,1.06,1.06,0,0,0-.87-.64C20.89.14,21.34.09,21.11.19Z"/><path class="cls-4" d="M42.2,19.42c.35-.1.38-.12.51-.51-.39,0-.12-.11-.35.14a.85.85,0,0,0-.16.37Z"/><path class="cls-2" d="M40,6.45c-.1-.23,0-.14-.21-.3a.81.81,0,0,0-.38-.1C39.56,6.39,39.61,6.41,40,6.45Z"/><path class="cls-6" d="M22,14.34l-.22.14v-.3c-.21.34-.25.39.11.51l.12-.35Z"/><path class="cls-7" d="M24.42,49.46c-.07-.22-.23-3.51-.29-3.67a.33.33,0,0,0-.53,0c-.11.16-.2.32-.3.48-.41.67-.3.56-.75.2-.77-.6-.56-.77-1.36-.3a1.4,1.4,0,0,1-1.13.28H16.62c-.24,0-.4,0-.41.25s.3.32.86.31h3.35c.62,0,.66-.14,1.13-.39.27-.15.46.12.65.29l.54.47a.32.32,0,0,0,.39.09c.15,0,.17-.15.25-.26s.12-.24.2-.25.09,0,.09.13c0,.81.14,1.6.17,2.43s.14,1.74.18,2.61c0,.12,0,.2,0,.29.05.55,0,1.1.1,1.66,0,.16,0,.55,0,.64s.38.19.51.11.06-.46.06-.64c0-.89.13-1.71.16-2.6,0-.44.05-.89.08-1.31s0-.9.07-1.34,0-.87.09-1.3.05-.88.07-1.32.07-.86.09-1.3c0-.66.08-1.32.12-2,0-.11,0-.2,0-.31a.91.91,0,0,1,0-.17v-.08l0-.07a1.57,1.57,0,0,1,.08.49c0,.14.06.32.08.46a9.52,9.52,0,0,0,.11,1.06c.13.63.15,1.42.26,2a12.19,12.19,0,0,0,.22,1.48.41.41,0,0,0,.47,0c.16-.18.73-1.39.84-1.44s.15.07.21.15c.2.31.22.48.67.48h4.84c.49,0,.69-.53.91-.48s.24.3.31.4c.18.27.36.6.53.86a.34.34,0,0,0,.5.07,2.4,2.4,0,0,0,.25-.45c.09-.16.16-.4.29-.4s.12,1.5.18,1.85l.15,1.92c0,.43.07.88.1,1.29s.17,2.45.22,2.55a.38.38,0,0,0,.5,0,19.35,19.35,0,0,0,.15-1.94c0-.85.1-1.73.15-2.59l.21-3.93c0-.23,0-.45,0-.67.06-.46.09-1.46.11-2l.06-1c0-.12,0-.24.09-.23.09.67.15,1.32.25,2,.15,1,.24,2,.38,3a1.3,1.3,0,0,0,.1.47.44.44,0,0,0,.43,0c.18-.15.64-1.42.81-1.44s.41.45.5.55.16.06.29.06c.47,0,.95,0,1.42,0H45l6,0c.24,0,.34,0,.34-.27s-.08-.29-.34-.29l-10,0c-.26,0-.31-.07-.55-.41-.06-.08-.34-.46-.45-.48-.31-.06-.4.19-.51.41l-.23.46c0,.09,0,.11-.13.13a1.23,1.23,0,0,1-.11-.55c0-.17-.07-.39-.09-.56-.05-.39-.08-.79-.15-1.17s-.06-.85-.14-1.16c0-.14-.05-.43-.08-.59l-.22-1.75c0-.18-.06-.39-.08-.58s-.06-.4-.08-.59a5.58,5.58,0,0,0-.08-.57c-.05-.23-.41-.19-.48-.12a4.76,4.76,0,0,0-.14,1.2c0,.39,0,.86-.06,1.24s-.06.84-.08,1.24c-.06.81-.12,1.7-.14,2.49,0,.43-.06.82-.07,1.24s-.1,2.12-.14,2.52C37,48.92,37,50,36.94,50s0,0,0,0a7.26,7.26,0,0,1-.08-.84c0-.28,0-.58-.06-.85s-.07-.57-.08-.85,0-.59-.06-.87c0-.58.06-1-.42-1-.16,0-.18.13-.24.24l-.47.9c-.25.55-.3.23-.63-.29a5.71,5.71,0,0,0-.41-.6.39.39,0,0,0-.39,0,3.11,3.11,0,0,0-.28.23c-.1.09-.2.15-.29.23a.42.42,0,0,1-.39.14h-4.5c-.31,0-.3-.13-.45-.33s-.31-.62-.53-.6-.42.32-.57.61l-.28.49c-.18.22-.19-.38-.2-.5-.07-.92-.29-1.84-.34-2.76,0-.25-.08-.44-.09-.68,0-.57-.2-1.46-.26-2.06l-.17-1.4c0-.25,0-.47-.28-.48s-.32.15-.34.45l-.34,5.45c0,.13,0,.27,0,.4l-.1,1.46c-.06.86-.12,1.71-.14,2.57l0,.29c0,.05,0,0,0,.05Z"/></g></g></g></svg>