<svg xmlns="http://www.w3.org/2000/svg" viewBox="0 0 40.32 33.3"><defs><style>.cls-1{fill:#fff;}.cls-1,.cls-2,.cls-3{stroke:#000;stroke-miterlimit:10;stroke-width:0.22px;fill-rule:evenodd;}.cls-2{fill:#060606;}.cls-3{fill:#363636;}</style></defs><g id="Слой_2" data-name="Слой 2"><g id="Слой_1-2" data-name="Слой 1"><g id="_2979789397216" data-name=" 2979789397216"><path class="cls-1" d="M27.16.11H10.21l4.65,5.55c.09.12.1.16.29.19a5.36,5.36,0,0,0,3-.54c.41-.19.8-.37,1.19-.57.67-.35,1.56-.66,2.42-1.13.4-.22.76-.44,1.14-.66s.73-.44,1.09-.68L27.16.11Z"/><path class="cls-2" d="M7.52,20.77c.9-.12,1.26.37,1.42,1.15-.63.11-.53.4-1-.13a3.6,3.6,0,0,1-.45-1ZM33.86,8.56c-.14,0-.09,0-.2,0a4.52,4.52,0,0,0-.46,1c-.54,1.57.09,4.22-1.69,5.46-.86.6-.83.6-1.61,1.22l-.73.73c-.33.29-1.62,1.94-1.91,2.33s-.4.57-.6.85a1.1,1.1,0,0,1-.31.39l-2.72.82c0-.27.17-.68.24-1a13.6,13.6,0,0,0,.35-3.18c.3-.13,1.76-1,2.15-1.19a19.47,19.47,0,0,1,2.28-1,12.92,12.92,0,0,0-3,1.22L23,17.6c0,.1,0,.06.05.16l1.18-.58c-.07.43-.63,4.09-.66,4.13s-.05,0-.14.14a1.83,1.83,0,0,0-.06.25c0,.17-.07.31-.11.48a14.06,14.06,0,0,1-.92,2.69c0-1.13,0-2.27,0-3.41a8.32,8.32,0,0,0-.55-2.9,39.13,39.13,0,0,1,.46,5.71,2.25,2.25,0,0,1,0,.93c-.06.19.08.59,0,1a5,5,0,0,1-.79,1.29c-.14.21-.28.39-.42.6a33,33,0,0,0-2,3.27,3.49,3.49,0,0,1-1,0c-.4-.06-.6,0-.66.39.45-.66.2-.13,1.56-.24a8.58,8.58,0,0,1-.59,1.22c-.42.54-1.69.32-1.93-1.24A2.32,2.32,0,0,1,16.67,30a4.5,4.5,0,0,1-.93-3.42A8.44,8.44,0,0,1,16,24.66a2.23,2.23,0,0,0-.09-1.81,7.14,7.14,0,0,1,1.84-1.47,12.16,12.16,0,0,0,2-1.31V19.9a4.46,4.46,0,0,0-.69.47c-.68.48-1.66,1-2.14,1.35a8.3,8.3,0,0,0-1.18,1.19c-.26.34-.95.92-1.1,1.1s0,0,0,.08A13.1,13.1,0,0,0,15.81,23a3.78,3.78,0,0,1,0,1.81,9.48,9.48,0,0,1-1.69.19,2.65,2.65,0,0,1-2.65-1c-.25-.25-.22-.27-.23-.73,0-.29,0-.59,0-.89-1,.28-1.13.27-1.46-.37-.21-.41-.15-.19-.28-.4a11.43,11.43,0,0,1-.82-1.92c-.25-.83.18-1.06.62-1.37s.62-.51.94-.78c1-.85,1.38-.93,2.34-1.79a1.24,1.24,0,0,1,.18-.14l1-1.05a2.57,2.57,0,0,0,.33-.33l2.53-2.95-1.5,1.62a34.55,34.55,0,0,1-3.45,3.31,11.9,11.9,0,0,0-1.76,1.34l-.34.3c-1,.85-1.71.85-.49,3.13.11.2.39.65.44.8a.76.76,0,0,1-1,.52l.64-.17c-.13-.79-.71-1.77-1.67-1.3a2.76,2.76,0,0,1-.33-.56c-.12-.2-.22-.35-.34-.53a6.51,6.51,0,0,0-.75-1c-.28-.28-.64-.54-.92-.82a17.93,17.93,0,0,1-2.06-3.16c-.46-.71-.9-1.43-1.37-2.09a11.76,11.76,0,0,1-.52-3,28.6,28.6,0,0,1-.11-3.34A28,28,0,0,0,.34.18H10l3.59,4.27c.2.25.4.46.59.7s.4.46.59.71.07.15.46.19c1.85.15,2.93-.55,4.52-1.31.3-.14.61-.25.9-.39A46.1,46.1,0,0,0,27.11.41c.45-.32.39-.23,1.08-.23h6.52c1.3,0,4.07-.06,5.18,0l-.42.39a14.48,14.48,0,0,0-1.64,1.58l-1.78,2.2a23.2,23.2,0,0,0-1.17,2c-.13.24-.49.81-.56,1l.1.09c-.12.18-.06,0-.14.17l.12-.06c.11-.07,1-1.79,1.18-2.08A18.15,18.15,0,0,1,38.45,1.8c.28-.3.54-.5.84-.81.08-.08.13-.11.21-.18a7.08,7.08,0,0,1,.72-.59V.11H27.16L24,2.27c-.36.24-.72.47-1.09.68s-.74.44-1.14.66c-.86.47-1.75.78-2.42,1.13-.39.2-.78.38-1.19.57a5.36,5.36,0,0,1-3,.54c-.19,0-.2-.07-.29-.19L10.21.11H.12c.17,1.14.45,2.27.63,3.4A24.91,24.91,0,0,1,.91,7.38a24.76,24.76,0,0,0,.3,3.76c.29,1.94.18,1.22,1.2,2.85.51.81,1,1.6,1.51,2.49a5.71,5.71,0,0,0,1.3,1.73,6.49,6.49,0,0,1,1.46,1.56,8.58,8.58,0,0,1,.73,1.31c.23.53.51,1.6,1.58,1.4.36-.07.41-.25.62-.4.25.37.08.42.48.53a4.13,4.13,0,0,0,.95,0c0,1,0,1,.33,1.47,1.23,1.41,2.48,1.09,4.3.91-.13,1.32-.34,3.35.43,4.57a2.42,2.42,0,0,1,.31.45,2.32,2.32,0,0,0,0,2.24,1.36,1.36,0,0,0,1.8.78c.36-.19.36-.47.58-.84.08-.15.2-.27.28-.43s.05-.29.18-.52.33-.61.5-.91.37-.6.54-.88L22,27a1.89,1.89,0,0,0,.43-1c.07-.78-.25-.18.15-1.17.15-.36.27-.68.39-1s.62-2.18.64-2.19,0,0,.09-.06l.42-.13.58-.18,1.66-.49c.26-.08.25-.17.38-.37s.39-.57.6-.86A22.88,22.88,0,0,1,30,16.37l.79-.66c1-.72,1.54-.81,2-2.36a10.4,10.4,0,0,0,.33-2.57,5.14,5.14,0,0,1,.7-2.22Z"/><path class="cls-2" d="M9,17.74c-.1-.27-.25-.37-.27-.73a4.6,4.6,0,0,1,.13-.84c.1-.64-.15-1.16.24-1.57s.39-.15,1.06-.82c.15-.15.34-.31.48-.47l1.09-1.22c.3-.4,1.15-1.29,1.53-1.78C13.51,10,14.34,9,14.49,8.74c-.1,0,0,0-.11.07l-.07.09-1.45,1.62a22.14,22.14,0,0,1-2.24,1.1,10.36,10.36,0,0,0-1.44.8l.11.13.36-.18a3,3,0,0,0,.3,1.18,4.55,4.55,0,0,1-.14-1.26,12.49,12.49,0,0,1,1.38-.73c.24-.12.47-.22.71-.35s.46-.3.66-.39a2.59,2.59,0,0,1-.46.54,3.22,3.22,0,0,0-.24.28L10.7,12.92c-.21.2-.29.34-.46.51s-.18.15-.27.24c-.61.64-.8.49-1.08.89l-.19.29c-.22-.13-.43-.28-.64-.43s-.41-.26-.63-.43a6.88,6.88,0,0,0-2.68-1.48,6.76,6.76,0,0,1-1.27-.83,2.5,2.5,0,0,0,.78.73c.62.41,1.19.51,2,1,.24.14.24.12.35.4a2.57,2.57,0,0,1,.16.54c.27,1.43.23.92,1,2l1.07,1.85a7.62,7.62,0,0,0-1.11-2.27A2.76,2.76,0,0,1,7,14.84a3.84,3.84,0,0,0-.44-1.25l2.11,1.33.06.87C8.78,16.29,8.35,17.2,9,17.74Z"/><path class="cls-2" d="M13.77,19.88c-.16-.2-.14-.26-.41-.35.05-.05,1.84-1.34,2.28-1.72l.32-.27a26,26,0,0,0,2-1.94l.22-.22c.11-.1,0,0,.1-.08a1.43,1.43,0,0,1-.25.33c-.1.11-.15.19-.25.29l-.26.3c-.28.32-1.23,1.17-1.45,1.41-.36.4-.81.7-1.16,1.12A11.34,11.34,0,0,1,13.77,19.88Zm1.06-.83c.17-.16.4-.34.56-.51l.81-.79.31-.25.55-.51a20,20,0,0,0,1.51-1.67,14.57,14.57,0,0,0,1.33-1.86l-.15-.09-.6.69c-.82.86-1.84,2-2.72,2.85a29.46,29.46,0,0,1-2.85,2.34l-1,.7c-.07.11,0,0,0,.06,0,.41-.66.95-.16,1.16-.18-.45.31-.23.26-1.26a3,3,0,0,0,.61-.38c.06.1,0,.16.14.27a1.06,1.06,0,0,0,.23.19l-1.07,1.08c-.36.36-.74.71-1.07,1.08l3.29-3.1Z"/><path class="cls-2" d="M19.87,23.36c-.08-.77-.57-2-.66-2.58,0,.27.43,2,.49,2.48a.61.61,0,0,1-.16.58,1.74,1.74,0,0,1-1.57.68,1.13,1.13,0,0,0,1.07,0c.42-.21.42-.34.66-.72a12.47,12.47,0,0,1-.87,3,4.69,4.69,0,0,0-.43.87,1.66,1.66,0,0,0-1,.51,1.4,1.4,0,0,0-.59.89c0-.05,0,0,.05-.09l0,0v0a1.17,1.17,0,0,0,.05-.11l.14-.18a3,3,0,0,1,1.24-.77,8.75,8.75,0,0,1-.2,1.58c-.17.51-.62.54-1.21.54l.38.07c1,0,1.05-.94,1.19-1.63s-.12-.45.37-1.28a8.93,8.93,0,0,0,1-3.81Z"/><path class="cls-2" d="M8.75,14.32c-.3-.46-1-.28-1.18-1-.07-.31-.11-.61-.19-.9a3.42,3.42,0,0,1-.29-1.8c.16-.6.61-.17,1.43-.78l.58-.51a5.47,5.47,0,0,1,1.42-.75c.49-.23,1-.52,1.42-.78C13.32,7,13.33,6.38,14.1,6.1L14.32,6,14.53,6a1.88,1.88,0,0,0-1.42.79,11.56,11.56,0,0,1-2.77,1.68c-.24.1-.54.21-.77.32a3.79,3.79,0,0,0-.67.47c-.57.45-.47.59-1.41.8-.75.16-.69,1-.54,1.58.08.29.2.53.28.82.21.7.15,1.26.73,1.51a5.81,5.81,0,0,1,.79.39Z"/><path class="cls-2" d="M18.51,9.51c.57-.27.37-1.16,1.47-1.21a3.45,3.45,0,0,0,1.14-.22A18.44,18.44,0,0,0,25,6.51L25.8,6c-.29.11-1.18.61-1.8.88s-2.74,1-3.49,1.23a4.32,4.32,0,0,1-.64.07,1.07,1.07,0,0,0-.84.49c-.08.13-.13.29-.22.44s-.2.27-.3.44Z"/><path class="cls-2" d="M21.9,12.07l.11-.19a1.62,1.62,0,0,1,.38-.52c.59-.54,1-.33,1.79-1.15.12-.12.23-.19.34-.3A20.5,20.5,0,0,1,27,8l.19-.15A11.13,11.13,0,0,0,25,9.21l-.49.41A6.19,6.19,0,0,1,23,10.78,1.81,1.81,0,0,0,21.9,12.07Z"/><path class="cls-3" d="M19.71,19.9v.17a.78.78,0,0,0,.22-.12c.1-.07.09-.1.17-.17l.56-.51a1,1,0,0,1,.18-.17,9.83,9.83,0,0,1,1.23-.85c.26-.16.71-.33.94-.49-.05-.1-.05-.06-.05-.16l-.53.21a11.09,11.09,0,0,0-1.27.78,7.18,7.18,0,0,0-1.14,1l-.16.15a.55.55,0,0,0-.16.18Z"/><path class="cls-2" d="M9,19.22c-.31,1.28,1.69,1.64,2.23,1.28a2.7,2.7,0,0,1-2-.66C9,19.62,9,19.5,9,19.22Z"/><path class="cls-2" d="M11.57,22.75a.77.77,0,0,0,0,.68c.27.49,1.58.46,2.07.44a6.6,6.6,0,0,0-1.33-.28c-.61-.11-.69-.21-.76-.84Z"/><path class="cls-2" d="M15.58,7.41a6.37,6.37,0,0,0,2.59-.61A12,12,0,0,0,15.58,7.41Z"/><path class="cls-2" d="M21.89,26.45a1.79,1.79,0,0,1-1,.27A1.26,1.26,0,0,1,20,26.3a.82.82,0,0,0,.29.42A1.15,1.15,0,0,0,21.89,26.45Z"/><path class="cls-2" d="M7.88,11.81l-.68-.07a.65.65,0,0,0,.36.23.62.62,0,0,0,.52,0c0-.34-.22-.45-.47-.56C7.69,11.56,7.81,11.65,7.88,11.81Z"/><path class="cls-2" d="M9.45,15.79A2.56,2.56,0,0,1,9,15.35a.83.83,0,0,0,1.11.71C9.91,15.94,9.64,15.91,9.45,15.79Z"/><path class="cls-2" d="M17.39,28.75a.58.58,0,0,0,.68-.44A1.64,1.64,0,0,0,17.39,28.75Z"/><path class="cls-3" d="M34,7.88c.14,0,.1,0,.12.14L34.22,8l.07-.1a1.28,1.28,0,0,0,.11-.24l-.12.06c.08-.19,0,0,.14-.17l-.1-.09-.14.22a2.75,2.75,0,0,0-.15.25Z"/><path class="cls-3" d="M33.66,8.56c.11,0,.06,0,.2,0l.2-.35-.18-.05A.92.92,0,0,0,33.66,8.56Z"/><path class="cls-2" d="M33.88,8.16l.18.05L34.15,8c0-.12,0-.11-.12-.14Z"/></g></g></g></svg>