<svg xmlns="http://www.w3.org/2000/svg" viewBox="0 0 59.4 18.67"><defs><style>.cls-1{fill:#2f2f2f;fill-rule:evenodd;}</style></defs><g id="Слой_2" data-name="Слой 2"><g id="Слой_1-2" data-name="Слой 1"><path class="cls-1" d="M26.45,10.82a2,2,0,0,1-1-2.85C26.52,8.4,26.47,9.38,26.45,10.82ZM20.86,9.64c-.28-1.26-.92-4-.14-5C21.68,5.46,21.12,8.3,20.86,9.64Zm14-5.24c-.23-1.28-.06-2.46,1-2.59C36.22,3.26,35.4,3.64,34.83,4.4Zm.59,1.94c-1.37-2.51,1.83-2,.81-4.89-1.51-.2-1.78.53-1.91,2s.23,2.24-.9,2.94c-1.21-.83-.38-1.63-1-2.61-.82,1.61,0,4.64-1.56,5.78-1.18-1.22,0-3.13-1.55-4.11-1.5.94-.57,3.47-2.07,5.24l-.34-1a6.09,6.09,0,0,0-.2-1.05C26,6.82,24,7.53,25.05,10c.47,1.09.64.78,1.25,1.49-.36,1.07-.15,1-.94,1.46-2.08-.54-1.16-3.17-1.16-3.9s.15-.22-.18-.66c-.71,2-.15,4.82-1.49,6.22-3.09-1.52.54-8.44-1.55-10.45-1.79.37-.95,3.56-.53,5.78.46,2.51-.07,3.9-.38,6.29-5.55,1.22-8,2.45-13.21-.73a19.44,19.44,0,0,1-4.24-3.8c-1.91-2.5-2-2.43.07-5C8-.06,15.2-.69,22.54,3.73c.84.5,1.7,1.17,2.57,1.58-2.47-2.56-8.42-5.65-13.72-5S2.57,4.84.4,8.05c-1.33,2,1,4.27,2.3,5.66,3.59,3.75,7.8,5.94,13.61,4.53,5.5-1.34,3.92-2.46,4.71-4.91.59,1.06.4,1.63,1.79,1.75.73-.68.74-1.27,1-2.54,1.5,1.7,2.11.67,2.76-.59.58-1.11-.12-.16.86-.94,1.58-1.26.69-3.39,1.8-5,1,1.34.05,2.62,1.3,4,1.51-.25,1.6-2,1.89-3.63,1,.94,1.41.55,2-.55,1,.81,1.5,1.84,2.69.11,1-1.41.27-2.49,1.69-3.23a14.08,14.08,0,0,1,15,1.36c1.24.93,4,3.73,4.5,5.38,0,.49-7.4,14.51-22.48,4.83-1-.67-1.9-1.42-2.93-2,2.58,3.09,9.18,6.51,14.25,6.15s10-4.32,12.13-8.26c1.19-2.24-7.3-13.86-18.56-9-1.09.47-2.74,1-3.11,2.06-.62,1.75-.19,3-2.2,3.08Z"/></g></g></svg>