<svg xmlns="http://www.w3.org/2000/svg" viewBox="0 0 92.31 47.55"><defs><style>.cls-1{fill:#392925;fill-rule:evenodd;}</style></defs><g id="Слой_2" data-name="Слой 2"><g id="Слой_1-2" data-name="Слой 1"><path class="cls-1" d="M49.36,47.13l.72-.09c.11-.66-.29-2.9-1.29-2.5l0,.09a.56.56,0,0,1,0,.1c0,.38,0,0,0,.33a6,6,0,0,0,.61,2.07Zm4.45-.52.76-.1c.12-.44,0-2.63-1.13-2.6a4.67,4.67,0,0,0,.37,2.7ZM55,45.74c1.05-.93.63-3.07.12-4.37s-1.06-2.54-1.6-4c-.24.37-.28.48-.57.87-.48.65,0,1.85-1.78,1.35.74,1.1,1.38,1.49,1.89,3.14.28.93.28.62.48.72.85.44.84,0,1.46,2.31Zm-3.52-6.48c1.15.16.91-.47.63-1.37-.23-.73-.44-1.29-1.19-1.24A5.82,5.82,0,0,0,51.46,39.26Zm-.44.12a9.48,9.48,0,0,0-1-3.32A4.16,4.16,0,0,0,51,39.38ZM35.69,29c-1.46-.41-.13.68-2-1.95-.07,1.95.2,1.9,1.52,2.72,1.67,1,2.81,1.86,4.38.25,1.26-1.29-.77-4.41-1.08-4.73-1,1-3.52,2.55-4.65.9a6.27,6.27,0,0,0,1.25,2.2l.62.61Zm13.1-3.69c-3.4,4.23-2.82,4.4-2.38,8.67.22,2.14-.06,3.44.59,5.49.48,1.51,1,3.07,1.44,4.56.62.27.19-.09.9.17.36.12.37.2.54.5a5.94,5.94,0,0,1,.56,1.49c1.63-1.34.43-5.85-.31-7.5-.48-1.08-.22-1.8-.39-2.88-.13-.81-.73-1.36-.89-2.31C48.39,30.71,47.61,27.4,48.79,25.29Zm-7.22-1.05c-.82-1-2.26-2.1-2.89-3.3a6.87,6.87,0,0,0-2.42,1.94c-1,.94-1.83,1.38-1.76,2.36.1,1.32,1.68,1.16,2.69.63s1.3-1.2,2-2.07l-.28.87A4.75,4.75,0,0,0,41.57,24.24Zm9.68-3a17.94,17.94,0,0,1-4.81-.14c.85,1.62,2.19,1.35,2.1,3.81A24.24,24.24,0,0,0,51.25,21.24Zm-12.94-.57c-.24-.48-.17-.3-.58-.71s-.17-.39-.79-.62l.55,1.78.82-.45ZM52.48,30.2l-.09.66.6-.15c1.63-.12,2.18-1.57,4.56-.92,1.16.32,3.33,1.43,4.54,1,.66-.5.63-3.81,2.37-4.9-.29.42-.36.35-.41.84l-.51.76c-.1.26-.22.57-.31.86-1.13,3.45.76,1-2.39,5a11.08,11.08,0,0,0-1.9,3c-.48,1.2-.54,3.17.49,3.69,1.5-.65,1.89-4.36,5.68-6.22,1.35-.67,2.69-1.21,4.07-1.83a4,4,0,0,0,2.74-3.41c.74-1.93.76-2.67,2.1-4,2.42-2.38.8.06,2.64-3.55.87-1.71,1.49-2,3.44-2.76a27.94,27.94,0,0,1,4.45-1.75l-.66-.92c-.21-.29-.39-.58-.58-.9A12.18,12.18,0,0,1,81.44,7.2c-.92.31-3.74,2-5.33,2.73C73.66,11,72.42,11,71,12.82c-1.65,2.11-2.08,1.94-5.32,2.63-3.47.74-5.81,1.2-8.91,3-.93.55-1.55,1-2.52,1.47-3.05,1.5-2.78,1.45-4.14,3.82-1.16,2-2,3.2-1.44,6.16.22,1.16.37,2.17.56,3.41a19,19,0,0,0,1.24,2.92c1.3.15,1.14-.31,2,1.77,1.23-1.21.56-3.51-.09-4.91-1.27-2.68,0-.5-.36-5.21a6.34,6.34,0,0,0,2.53-2.64c.37-.54.44-.37,1-.77s1.25-1.24,2.33-1,1.2.73,2.68.85c1.13.1,2.27,0,3.4.05a19,19,0,0,0,3.2.22c1.34-.14,1.44-.69,2.09-1.29s1.58-.59,2.64-.88c-.73.75-1.24.32-2,.88-.56.4-.83,1.06-1.53,1.43-1.36.72-3.76.12-5.39.12-4.72,0-3.14-.41-5.15-1-.83-.23-1.38.35-2,.73-1.33.89-.64.28-1.42,1.6A3.91,3.91,0,0,0,56.79,26c-1.08,1.57-1.67-.43-3.4,1.31-1.23,1.23-1,.19-.91,2.88ZM89,16.35a4.15,4.15,0,0,0,.58-1L87.92,16c.3.37.51.4,1.1.39ZM46.11,12.66c-.41-.9-2.58-.94-3.83-.95C42.85,12.58,44.77,12.71,46.11,12.66ZM88,16.55a7.64,7.64,0,0,1-2.11-2.14,12,12,0,0,1-2.18-9.93C82.08,5.05,81.93,6,81.91,8a10.69,10.69,0,0,0,.89,4.49C83.61,14.34,85.51,18.5,88,16.55ZM84.53,4.07c-.37.34-.39.38-.51,1a2.47,2.47,0,0,0,1.21-.65c-.09-.12,0-.31-.7-.39ZM92.31.62A18.23,18.23,0,0,0,90.18,2l-2,1.36a25,25,0,0,1-4.27,2.47,11.92,11.92,0,0,0,.95,5.65,9.91,9.91,0,0,0,2.62,3.92,19.74,19.74,0,0,1,4.87-.95v.36l-2.45.43c-.52,1.23-.4,1.38-1.77,1.78-1.71.49-1.21.63-2.73,0-.69-.3-4.1,1.39-5,1.73-4.63,1.68-3,3.56-5.25,5.37A5.89,5.89,0,0,0,73.4,26c-.8,1.44-1.16,4.12-2,5.08C69.75,32.93,65,33,62.58,36.37c-.52.74-.85,1.3-1.37,2.16a12.28,12.28,0,0,0-.7,1.07c-.32.63-.21.87-.74,1.19C57.55,41.64,58,37,58.72,35.6c1-2.1,2.77-3.52,3.31-4.44-3.76.21-4.21-2-7.34-.62a9.53,9.53,0,0,1-2.37.54c-.38,1.53.64,1.31,1.17,4.09.43,2.24-.3,1.22,1.19,4.41.91,1.93,2.19,4.36.71,6.41-.44.6-.56,1.21-1.79.87-1.17-1.65,0-4.15-2.69-6.87a25.65,25.65,0,0,1,.71,4.72c-.09,1.11-.47,1.14-.89,1.78s0,.51-.51.82c-1.53,1-1.67-1.69-1.86-2.44-.47-1.86-2.1-4.88-2.23-7.52s-.9-7.14,0-8.83c.44-.77,1-1.45,1.29-2.11a6,6,0,0,0-2.12,1c-.8.69-1.47,2.18-4.13.42a7,7,0,0,1-1.61-1.45c.61,2.22,1.78,3.22-.7,4.61-1.82,1-3.71-1-5-1.63.33,2.08,1.13,3.31-1.18,4.12-2.16.76-2.8-1-3.63-1.87-1.26,4.27-6.17.22-6.92-1.21-1-2,.1-3.44-1.73-4.16a23.71,23.71,0,0,1-4.25-1.8c-1.25-.74-2.73-1.26-3.83-2.07a12.83,12.83,0,0,1-2.85-3.2c-.82-1.41-1.09-1-4.35-1.69a44.29,44.29,0,0,0-5.13-1v-.43a47.43,47.43,0,0,1,7.32,1.27c2.24.48,4.68,1.19,5.3,3a6.17,6.17,0,0,0-3-1.82,10.85,10.85,0,0,0,2.53,3c.91.85,2.35,1.25,3.54,1.91a17.31,17.31,0,0,0,3.79,1.82,6.94,6.94,0,0,1,3.42,2l.29-.52c.44,2.74,2.12,3.37,1.86,5.06A14.42,14.42,0,0,0,21.68,27c.42,2.82.68,4.18,4.05,5.86a1.93,1.93,0,0,0,2.89-1.54c.05-1.32-.44-.82-.15-4.72l.36-1.17,0,.87c.11,3.11.77,3.45,1.2,5.35-1.27-1.14-.82-1.79-1.33-2.57a5,5,0,0,0,1.55,3.5c1.17,1.17,2.5.6,3.46-.22C34,31,33.42,30,33.3,28.64c-.08-.83,0-3.43-.33-3.9l0-1.26.1-.85c.22.62.23,1.88.44,2.87a10.21,10.21,0,0,1,3.06-3.6c.86-.76.3-1,.06-2.35a5.45,5.45,0,0,1,0-3L36.92,19l.79.33c.18.45.9,1,1.31,1.42s.92,1.09,1.26,1.54a11.46,11.46,0,0,0,2.88,2.48c-1.37,0-.72-.69-1.86,0a5,5,0,0,1-2.24.24,6.18,6.18,0,0,0,3.61,3.1c1.23.31,1.76-.45,2.31-1,.85-.8,4-1.27,3-3.46a37.51,37.51,0,0,0-4.81-5,7.39,7.39,0,0,0-1.33-1.53c-.53-.58-.73-.92-1.29-1.5a11.54,11.54,0,0,0-3.18-2.52L37.26,13a14,14,0,0,0-2.59-1.65c-1.06-.54-1.85-1-2.89-1.53a32.44,32.44,0,0,0-3.25-1.32c-.9-.31-2.7-.59-3.29-1.11a17.61,17.61,0,0,1,3.32.53l-1.2-.47-.1,0L27,7.24a5.75,5.75,0,0,1,2.79.94,101.1,101.1,0,0,1,9.16,5.44c3.68,2.72,6.83,1,7.3-.62-4.8,0-4-1.4-5.5-2.51C39.64,9.71,35,8.84,32,7.28a4.52,4.52,0,0,0-3.23-.75c-1.16,0-7.49-.2-7.74-.13-.16-.08.15,0-.38-.12A12.32,12.32,0,0,0,18,6.39c-3.38.36-4.71-.18-8.13-1.17A97.38,97.38,0,0,1,0,2.18V1.83A43.51,43.51,0,0,0,5,3.42c1.78.42,3.44.85,5.18,1.32,8.33,2.3,6.3.54,11.37,1A51.54,51.54,0,0,0,28,6c4.36-.16,4,1.31,9.9,3.05a12.78,12.78,0,0,1,2.45.79A6.55,6.55,0,0,1,42,11.36c1.7,0,5.84.3,4.18,2.44C45,15.34,43,15.64,40.79,15.21L45,19.64c1,1,1,1.17,2.94,1.34A16.33,16.33,0,0,0,52,20.77c1.39-.36,4.14-2.38,5.44-3.11,3.79-2.17,5.93-2.17,9.68-3.15C69,14,69,14.46,70,13.1c1.81-2.4,2.76-2.5,5.12-3.43,2.1-.83,3.76-1.94,5.67-2.88,1-.47.67-.15,1-1.19.29-.89,2.08-2.52,3.73-1.33C87,3.68,90.55,1,92.31,0V.62Z"/></g></g></svg>