<svg xmlns="http://www.w3.org/2000/svg" viewBox="0 0 126.4 50.78"><defs><style>.cls-1{fill-rule:evenodd;}</style></defs><g id="Слой_2" data-name="Слой 2"><g id="Слой_1-2" data-name="Слой 1"><g id="_3015509817952" data-name=" 3015509817952"><path class="cls-1" d="M93.81,7.48l-.33,2c-.11,3.84,0,8.2-.67,11.78a20,20,0,0,1-1.47,5c-.55,1.29-2.23,3.39-2.31,4l.76.11c2.36.07,4.62-6.4,5-8.7.39-2.6-.09-10.46.88-12,1.13,1.77,1.07,27.46,1.21,32.05.88,1.06.25,3.65,1.66,5.36a8.46,8.46,0,0,0,2.35-.17A40.35,40.35,0,0,0,103,33.31c.05-2.23.55-12.13,1.59-13.39,1.29.44,2,4.59,2.25,5.84s.8,5.52,2.85,5.8c1.16-.15,1.73-.37,2.1-1.26.55-1.32.72-5.53,2.27-7.13,2.6,0,1.16,1.24,3.59.94l3.72.1c-.18,0-1.15-.06-1.34-.09-2-.39-1-.25-1.35-.69-1.57-.78-4.4-2.42-6.46-.43-1.6,1.55-.84,4.36-2.17,6-1.56-1.55-1.16-6.45-3-9.12-.91-1.3-1.37-1.37-3.5-1.11a5.53,5.53,0,0,0-.83,1.34,5.88,5.88,0,0,1-.38.79c-.48.7.1.1-.43.38.27,1.32-.66,9.56-.72,12.32,0,2.44-.42,9.71-1.32,11.29C97.34,42,99,19.36,98.1,12.92c-.34-2.4-.34-6.65-2.26-6.78-1.76-.12-1.07.56-2,1.34Z"/><path class="cls-1" d="M16.71,25.05c-.05-3.18.22-6.68.25-9.87l.27-7.33c.12-1,0-1.27,1.05-1.41.95,2.79.55,13.84.58,17.4l.29,18c-.41,2,.74,4.92.64,7l1.19,2c2.25.15,2.11-.6,2.46-1.18l.83-.9c-.23-1.21.5-4,.69-5.48l.48-18.15c0-.64-.13-.69.48-1.33,1.43.39,1,.4,1.11,1.69-.11,2.09,1.6,4.06,1,6.2,1.15.62.52.49,1.09,1.5,1.66,0,1.24.13,2.35-.46-.45-.68-3-1.26-2-4.41a14.38,14.38,0,0,0-.86-4.47l-.92-.65c-.48-.37-.83-.73-2.33-.35l-1.18.53c-.09.87-.57,1.25-.68,2.7-.09,1.17-.29,2.24-.36,3.27-.24,3.8.62,17.61-1.14,19.36a7.38,7.38,0,0,1-.28-5c-.89-1-.36-3.08-.7-4.77C19.55,32.05,22.14,9,19,4.84l-2.19.21c-3.68,4.41.58,15.71-3,23-3,.06-4.31-2.72-6.9-3.1C4,24.56.42,26.45,0,28.23c4.25,0,2.43-4.94,9.24-.39,3.51,2.35,7.87,1.05,7.47-2.79Z"/><path class="cls-1" d="M38.37,1.81c1,.09.38.26.67-.16A14.87,14.87,0,0,0,36.75,3.2c-1.19.85-1.49.83-1.49,2.32l1.11-1c6-6.74,17-2.81,17.73,1.56,1.28.91.34,1.86.95,3.1H56.5c1.63-2.15.69-3.53,4-5.69,8.75-5.77,17.85-.85,17.65,7.88C78,16.81,74.5,20,70.59,22.94c-1.9,1.44-3.87,2.59-5.84,4.3a38.51,38.51,0,0,1-5.55,4.21c-.17,1.42.4.82,1.47.35,1.36-.33,8.25-6.42,10-7.3a13,13,0,0,1,4.32-3.43c.59-.84,2-1.75,2.76-2.84C84,9.09,78.2-2.24,64.41.56L61.87,1c-.22.59-.17.51-1.36,1.15-3,1.59-2.95,2.63-4,3.14C55.3,4.91,55.27,2.27,49.42.42,47.12-.31,43,0,40.42.81Z"/><path class="cls-1" d="M46.25,28c2.27.63,4.17,2.95,6.81,3.76a2.87,2.87,0,0,1,1.11.24c.12,0,.78.3.93.37,1,.49,1,.54,1.24,1.3.21,0,1.51-.15,1.51-.15,1.23-.29.67,0,1.21-.75-.11,0-.29-.14-.37-.07l-1.9-.59a23.79,23.79,0,0,1-4.38-2.24c-1.46-1-3-2.11-4-2.73a4.52,4.52,0,0,1-2.29-1.48c-1.6-1.63-6.92-5-7.84-7.09L37.42,18a14.44,14.44,0,0,1-3.11-5.24c-1.29-3.62.94-6.43.95-7.24,0-1.49.3-1.47,1.49-2.32A14.87,14.87,0,0,1,39,1.65c-.29.42.31.25-.67.16-4.6.56-8.84,9.6-4.62,14.87a28.24,28.24,0,0,0,2.67,3.17l9.28,7.43c.44.4.46.35.55.72Z"/><path class="cls-1" d="M29.39,28.24c-.94,3.15,1.59,3.73,2,4.41,1-1.3,0-.62,1.15-.88-.31-1.49.82-4.26,1.72-5.44,2.89-.08,9.6,4.61,12.2,6.33,2.34,1.55,3.24,1.52,4,2.18l3.2-.05c.89-.72-1.09-.25,1.13-.64-1.33.14-1.93.33-2.83-.4-1.36-.29-10.19-5.41-11-6.48-2.1-.12-3.74-3-7.23-1.83-2.94,1-2.08,4-3.57,5.19C30.05,30.08,29.92,28.69,29.39,28.24Z"/><path class="cls-1" d="M77.07,28.39c-.86,4.46,3.37,5.35,4.34,2.33.37-1.17.51-2.83,1.32-3.77,2.34.7,1.83,5.06,5.59,4.13,1.78-.44.56.2,1.47-.74L89,30.23l-1.57,0c-1.38-1.47-1.9-3.95-3.27-4.94-4.45-.36-3.47,3.33-4.74,5.06-.81-.87-.88-2.37-1-3.5s-.71-2.92-.68-3.66l-.89-.4-1.42-.14a6.22,6.22,0,0,1,1.62,5.77Z"/><path class="cls-1" d="M71.28,24.69A42.31,42.31,0,0,1,68,28.87a12.28,12.28,0,0,1-4.28,3.45l-.44.77,1.21-.19.43.27c.06-.06.15-.22.18-.17.14.2,3.88-3,5.25-4.58,1.17-1.37,3.39-4.61,4.74-5.33a5.9,5.9,0,0,1,1.35,5.3h.64a6.22,6.22,0,0,0-1.62-5.77l1.42.14c-.39-.41-.43-.79-1.65-.63-1.75.21-2.87,1.77-3.26,2.1a3.26,3.26,0,0,1-.68.46Z"/><path class="cls-1" d="M56.79,32.11l1.9.59c.08-.07.26,0,.37.07-.54.73,0,.46-1.21.75,0,0-1.3.11-1.51.15-.27-.76-.23-.81-1.24-1.3-.15-.07-.81-.33-.93-.37a2.87,2.87,0,0,0-1.11-.24c1,1,1.64.79,2.14,1.56-1.15.61-1.2.57-3.15.43.9.73,1.5.54,2.83.4-2.22.39-.24-.08-1.13.64,2.69-.21,2.27-1,5.3-.85,2.17.09,4.29.19,5.43-1l-1.21.19.44-.77c-1.15.45-2.45,1.16-4,.45.56-.92.51,0,.74-.76,0-.13.17-.14.25-.21-1.07.47-1.64,1.07-1.47-.35a3.6,3.6,0,0,1-2.41.66Z"/><path class="cls-1" d="M118.67,23.43c.37.44-.62.3,1.35.69.19,0,1.16.07,1.34.09l-3.72-.1c.56.76.28.57,1.84.63.76,0,2-.07,2.79-.13a11.25,11.25,0,0,1,3.52-.89c.62-.81.16-.11.61-1.22-3.76.37-3.05,1.56-7.73.93Z"/><path class="cls-1" d="M24.1,23.3l1.18-.53c1.5-.38,1.85,0,2.33.35l.92.65C28.17,22.19,27.09,22,25,22.32A4.6,4.6,0,0,0,24.1,23.3Z"/><path class="cls-1" d="M48.4,27.14a3.82,3.82,0,0,0-2.29-1.48A4.52,4.52,0,0,0,48.4,27.14Z"/></g></g></g></svg>