<svg xmlns="http://www.w3.org/2000/svg" viewBox="0 0 104.66 34.21"><defs><style>.cls-1{fill:#2b2a29;fill-rule:evenodd;}</style></defs><g id="Слой_2" data-name="Слой 2"><g id="Слой_1-2" data-name="Слой 1"><path class="cls-1" d="M0,22.39v1l12.87.07c.48,1.5.62,6.2,1.22,7.15.57,0,.7,0,.8-.53.06-.35.08-.86.11-1.23l.74-7L16,23.17c.32.63,3.49.3,4.64.28.83,0,4,.14,4.43-.17.39-.55.7-7.73.81-9.08.4.92,1.75,18.67,2.17,20l.79.05c.33-1,.84-8.85,1.15-10.83,4.39-.15,10.27,0,14.93,0h4.4c1.43-.23-.26-1.49-.86-2a48.56,48.56,0,0,1-6.22-6.86c-1.34-2-2.79-4.48-2.68-7.18.2-5.07,5-7.72,9.39-5.6a6.35,6.35,0,0,1,3.41,4.74c.08.49.1,1.16.78.85S53.27,5,55.33,3C59-.51,65.83,1,66.43,7.87c.33,3.75-1.6,6.54-4,9.05a74.53,74.53,0,0,1-6.23,5.28c-.4.3-.67.4-.42,1,1.28.48,17-.16,19.09.16l1,10c.07.66.12.89.83.81.45-.68,1.06-8.63,1.21-10.1L79,14c.15,1.36.47,8.73.79,9.27.32.36,8.85.28,9,.18.32-.51.27-1.39.52-2L90,30.28c.07.19.82,1,1.05-.67l.83-5.77c.12-.53,0-.25.23-.42l12.56-.05v-1c-2.86,0-5.72,0-8.58.05-1.42,0-2.89,0-4.3,0-1.24,0-.64,1-1.19,3-.28-2.63-.39-5.28-.64-7.92-.08-.89-.77-1-1-.35l-1,5.35-7.34-.06c-.2-.48-1-11.9-1.08-14-.08-1.28-.93-1.08-1-.34s-.16,1.6-.23,2.29c-.59,6.06-1.24,12.09-1.86,18.16-.19-1-.34-5.55-.84-6.09-.89-.33-15.45,0-17.9-.09L62,18.68c.27-.29.53-.48.82-.76,2.77-2.74,5.38-6.28,4.48-11.12C65.66-2,55.09-1.27,53,4.74l-1.29-2C47.65-2,39.44-.41,38.6,6.48c-.46,3.77,1.75,7.13,3.31,9.28.71,1,1.53,1.85,2.17,2.65l2.36,2.45c.3.28.51.48.82.75s.49.57.72.73c-2.38.28-18.18-.32-18.76.18s-.39,4.93-.84,5.89L26.43,9.35c-.1-.95.07-2-1-1.71-.31.71-.55,6.15-.65,7.44l-.46,6.48c0,.34,0,.73-.2.84a68.22,68.22,0,0,1-7.29,0c-.12-1.29-.33-2.61-.5-3.88-.06-.53,0-1.56-.48-1.74-.72-.28-.72.7-.77,1.23-.23,2.49-.42,5.36-.8,7.8a17.68,17.68,0,0,0-.57-3.21c-.62-.43-5.66-.2-6.8-.21-2.12,0-4.87-.18-6.91,0Z"/></g></g></svg>