<svg xmlns="http://www.w3.org/2000/svg" viewBox="0 0 80.8 19.97"><defs><style>.cls-1{fill:#2b2a29;fill-rule:evenodd;}</style></defs><g id="Слой_2" data-name="Слой 2"><g id="Слой_1-2" data-name="Слой 1"><path class="cls-1" d="M39.07,12.32c.35-.16.22,0,.34-.48,0-.17.08-.51.11-.7l.25-1.34,1.43-8c.44.55,1,4,1.16,4.63.34,1.54.7,3,1,4.58s.68,3.06,1,4.57c.19.79.34,1.51.52,2.32.12.55.15,1.81.7,2.06.5-.35.51-1.87.62-2.57l1.13-6.61a3.85,3.85,0,0,1,.34-1.22l1.12,2.95h9.42c.4.47.35,1.48,1,1.77.43-.33.49-.83.73-1.29l.19.36c0,.1.07.26.1.37.14.55.22,1.79.8,1.9.76-1,1.55-12.25,2.41-13.81.33,2.5,1.36,6.52,1.91,9.17l1.44,6.89c.12.57.12,1.82.68,2.08.48-.37.8-2.84,1-3.61a35.74,35.74,0,0,0,.78-3.64c.25.4.38,1.47.92,1.57.36-.38.65-2.7.79-3.38,1.41,2.33-.49,1.69,8,1.7.56,0,1.68.22,1.9-.29-.37-.32-1.38-.19-2-.19H72.06a8.14,8.14,0,0,0-1.17-2.36c-.27.15-.19.07-.32.35A21.07,21.07,0,0,0,70,13c-.3-.4-.29-1.24-.83-1.49-.34.2-.27.31-.37.79l-.19.85-1.21,5C67.06,17.29,65,6.58,64.53,4.49L63.8,1c-.21-1,0-.79-.44-1-.44.29-.41,1.25-.49,1.75-.68,4.07-1.14,8.28-2,12.33-.2-.63-.3-1.92-.8-2.21-.45.2-.54,1-.89,1.43l-.46-1.25-9.52,0A19.2,19.2,0,0,1,48.39,10c-.2-.52-.37-1.65-.94-1.77-.41.46-1.2,6.23-1.42,7.53a14,14,0,0,1-.4,2.21c-.11.33-.06.17-.12.27-.28-1.52-.75-3.15-1-4.58s-.64-3.05-1-4.59l-1.53-6.9C41.81,1.62,41.7.31,41.26,0c-.28.14-.12,0-.27.25a3.26,3.26,0,0,0-.21,1l-1.26,7a8.06,8.06,0,0,1-.59,2.66c-.07-.33-.17-.57-.27-.91s-.08-.55-.44-.73c-.38.19-.47.92-.6,1.36a42.55,42.55,0,0,0-1.33,4.5l0-.07-.6-3c-.09-.51-.18-1-.28-1.53s-.06-1.06-.43-1.29c-.38.13-.25.1-.42.5-.8,1.93-.27,2.09-2.25,2.09H23.13c-.22-.48-.2-.93-.69-1.15a3.3,3.3,0,0,0-.77,1.47,22.06,22.06,0,0,1-1-3.07c-.14-.5-.05-.67-.54-.72-.55.84-.42,7.83-1,9C18.3,13.85,17.2,6.33,16.45,2c-.09-.54-.07-1.69-.57-2-.36.22-.3.36-.38.83l-1.15,6c-.22,1.12-1,6.2-1.39,6.82-.17-.69-1-4.26-1.45-4.51C11,9.45,10.38,12.27,10.1,13c-.28-.46-.53-1-.76-1.53H2c-.52,0-1.8-.21-2,.22.19.37.45.24.94.24H9a7.75,7.75,0,0,1,.52,1c.08.18.16.39.24.56.21.39.08.29.43.45.21-.15.05,0,.2-.2a5.78,5.78,0,0,0,.52-1.55c.09-.28.2-.6.28-.87,0-.11.1-.37.13-.44l.25-.4.69,2.5c.15.55.27,2,.85,2.24.46-.36.65-2.45.79-3.19l1.27-6.68c.11-.56.22-1.14.34-1.74L15.88,2c.34.75,2.44,13.7,2.82,15.87.09.54.1,1.83.58,2.06.36-.17.21,0,.29-.5.47-3.1.21-6.4.87-9.45a9.44,9.44,0,0,0,1.15,3.2c.53-.24.66-1.11.88-1.55.14.26.17.36.36.66L34,12.3c.34-.52.44-1.28.89-1.72.15,1,.37,2.09.56,3.09.12.59.29,2.64.74,2.93.46-.21.51-1,.65-1.44s.31-1.06.46-1.59c.32-1.09.59-2.06.92-3.08.1.12,0,0,.16.23.26.48.24,1.3.72,1.6Z"/></g></g></svg>