<svg xmlns="http://www.w3.org/2000/svg" viewBox="0 0 78.33 59.11"><defs><style>.cls-1{fill:#2b2a29;fill-rule:evenodd;}</style></defs><g id="Слой_2" data-name="Слой 2"><g id="Слой_1-2" data-name="Слой 1"><path class="cls-1" d="M19.72,36.2c-1.82-1.38-2-11.53-4.75-13.74A2.53,2.53,0,0,0,13.23,22H8.8C6,22,2.81,22.16,0,22l0,1.68H13.77C16,25.78,16,36.54,19.07,37.89c1.36.6,2.05-.3,2.44-1.21,1.36-3.18,2.33-16.78,2.6-20.48.23-3.11.64-7.3,1.13-10.42.08-.52.18-1.1.29-1.63L25.79,3c0-.05,0-.12.06-.16L26,2.57a101.61,101.61,0,0,1,1.31,11.67c.81,12.07,1.25,24.63,2.29,36.51.13,1.54.54,6.92,1.75,8,.92.83,1.88,0,2.26-.63,1.09-1.92,1.77-8.39,2-11.09.14-1.91.34-4,.53-5.87s.32-4,.53-6,.39-3.94.66-5.88A36.05,36.05,0,0,1,38,25.17c.11-.41.34-.94.4-1.29.24.12,0,0,.21.16a1.18,1.18,0,0,1,.13.18l.56,1.3a60.64,60.64,0,0,1,1.47,6.05c.48,2.18,1.22,6.49,3.68,6.49,2.18,0,2.69-2.56,3.1-4.39a33.91,33.91,0,0,1,1-4.5c.2-.49.38-1,1-1,1.61,0,5.18-.06,6.56,0a14.43,14.43,0,0,0,3.45,4.45,29.45,29.45,0,0,0,4.64,3.45,22.19,22.19,0,0,0,2.56,1.44c.33.08,1.07-.42,1.35-.57a36.94,36.94,0,0,0,3.73-2.39c.41-.3.73-.53,1.12-.86l1.1-1a16.7,16.7,0,0,0,1.94-2c5.1-6.14.76-11.62-4.52-10.84a6.14,6.14,0,0,0-3.88,2.17A3.8,3.8,0,0,0,67,23.22l-.13.2c-.55-2.14-3.54-4-6.6-3.48A5.72,5.72,0,0,0,57,21.73a5.28,5.28,0,0,0-1.4,3.64l.08,1.16c-1.8,0-3.67,0-5.48,0s-2.5.19-3.24,2C46,30.8,45.77,36,44.47,36.39c-1.49-1-2.44-8.85-3.53-11.7a4.61,4.61,0,0,0-1.52-2.32,1.67,1.67,0,0,0-2.57.72c-1.54,2.93-2.45,16.45-2.74,20-.22,2.77-1,11.18-1.8,13.39l-.07-.1A5.53,5.53,0,0,1,32,55.18c-.6-3.55-.72-6.84-1.07-10.42-.19-2-.23-4.1-.38-6.15s-.26-4.14-.36-6.19C29.9,27,29,6.87,27.73,2.15,27.49,1.26,27.22.3,26.42.07c-1.17-.34-1.74.67-2,1.38-1.13,2.86-1.46,8-1.8,11.35-.37,3.62-1.53,21.86-2.87,23.4Z"/></g></g></svg>