<svg xmlns="http://www.w3.org/2000/svg" viewBox="0 0 80.54 28.35"><defs><style>.cls-1{fill:#010101;}.cls-1,.cls-2,.cls-3{fill-rule:evenodd;}.cls-2{fill:#1f1b20;stroke:#2b2a29;stroke-miterlimit:10;stroke-width:0.57px;}</style></defs><g id="Слой_2" data-name="Слой 2"><g id="Слой_1-2" data-name="Слой 1"><path class="cls-1" d="M10.1,2.32l.66,4.11.34,2.12a10,10,0,0,0,.49,2.78,4.23,4.23,0,0,0,.16,1.46,9.92,9.92,0,0,0,.5,2.78,7.54,7.54,0,0,0,.31,2.17,27,27,0,0,0,.66-4.3,10.09,10.09,0,0,0,.54-2.71,6.45,6.45,0,0,1,.32-1.43c.45-.08.49-.12.77.2a3.48,3.48,0,0,0,.5,1.27,7.82,7.82,0,0,0,.57,2l.23.92H27.83v1l-12.25,0L15,13.54s0,0,0-.08a2.76,2.76,0,0,0-.38-1.35,10.12,10.12,0,0,0-.41,2.71,7.82,7.82,0,0,0-.44,2.27,5.71,5.71,0,0,0-.21,1.75A9.75,9.75,0,0,0,13,21.4a.72.72,0,0,0-.11.32c-.52.1-.63.13-.86-.33l-.33-2.13-.34-2.13-.65-4.21a14.08,14.08,0,0,0-.47-2.67,4.49,4.49,0,0,0-.17-1.58L9.44,4.75,9.07,8.61,9,9.67a15.29,15.29,0,0,0-.39,3.24L8.6,14A39.5,39.5,0,0,0,8,19.33,3.89,3.89,0,0,0,8,20.56a11.19,11.19,0,0,0-.37,3.07,3.94,3.94,0,0,0-.07,1.48l-.36,2.81c-.18.46-.22.44-.71.42-.31-.22-.19-.1-.28-.54l-.29-2a14.71,14.71,0,0,0-.43-2.71,5.3,5.3,0,0,0-.14-1.67,10.51,10.51,0,0,0-.42-2.74,22.71,22.71,0,0,0-.49-3.92H0v-1H4.27c1.27,0,1,.06,1.22,1.14l.31,2.44c.1.37,0,.15.11.27-.19.76.55,4.53.69,5.59l.4-4,.21-2.12a3.52,3.52,0,0,0,0-1.25l0-.08.34-3,0-1a12.34,12.34,0,0,0,.38-3.23,3.91,3.91,0,0,0,.06-1.32l.37-3C8.63,3,8.6.86,9.12,0h.49a7.71,7.71,0,0,1,.49,2.32Z"/><polygon class="cls-2" points="24.59 14.31 64.97 14.31 64.97 14.17 24.59 14.17 24.59 14.31"/><path class="cls-3" d="M69.76,5.35H69.7c.11.18.17.16.35.32a6.35,6.35,0,0,1,.36,1.61c.07.38.13.75.2,1.13.15.76,0,.17,0,1.09l-.29.06.32.08c0,.24.07.46.11.71.07.5.12.36-.18.53l.25,0c.07.35.13.36.2.69s0,.32-.24.32l-.15,0h.13L71,12c-.08.15,0,.07-.14.13l-.07,1c-.81.07-1.72,0-2.55.09-.38,0-.77.05-1.14.1s-.79.21-1,.23l-1-2.1c-.28-.57-.21-.63-.59-.62v.13L65,14.06l-.12,0s0,0,0,0,.05,0,0,.07l.15.11a.6.6,0,0,1,.4.12L65,14.34l-.28,3.23c.35,0,.24.05.48-.54s.83-2.07,1-2.28c.14,0,1.29.21,2.16.23s1.66,0,2.51-.05l.09,0-.06.07a3.24,3.24,0,0,0,.25,1l-.31.08.35.08c0,.41.06.34,0,.62s0,.31-.26.36l.13.1V18c0,.43,0,.38-.37.48l.07,0,.24,0c0,.18,0,.16,0,.3.11.64.15,0,0,1l-.23,2.12c-.06.63-.19.43-.46.78h.07c.61-.69.85.07,1.14-1,.14-.55.29-1.08.45-1.62l1-3.17c.46,0,1.3.15,1.42-.34a.62.62,0,0,0-.27-.64c-.25-.17-.48,0-.78-.09a6.65,6.65,0,0,1,.41-.74c.22-.33.32-.31.79-.29.72,0,1.57,0,2.3,0a7.26,7.26,0,0,0,3-.51,4.85,4.85,0,0,0,.77-.42v-.15a2.44,2.44,0,0,0-.6-.36,6.76,6.76,0,0,0-.72-.23c-1.62-.42-5.16.07-5.47-.08a3.06,3.06,0,0,1-.59-.9c.34-.08.57.09.83-.15a.52.52,0,0,0,.13-.63c-.22-.47-.84-.3-1.4-.27L70.93,6.28c-.41-1.06-.32-.25-1.1-.86l-.07-.07Z"/></g></g></svg>