<svg xmlns="http://www.w3.org/2000/svg" viewBox="0 0 50.74 33.88"><defs><style>.cls-1{fill:#010101;}.cls-1,.cls-2{fill-rule:evenodd;}.cls-2{fill:#1f1b20;stroke:#2b2a29;stroke-miterlimit:10;stroke-width:0.57px;}</style></defs><g id="Слой_2" data-name="Слой 2"><g id="Слой_1-2" data-name="Слой 1"><path class="cls-1" d="M29.55,2.77l.79,4.91.4,2.53a11.91,11.91,0,0,0,.6,3.34,4.61,4.61,0,0,0,.19,1.73c.08.73.24,2.89.59,3.33a8.9,8.9,0,0,0,.38,2.58,33.89,33.89,0,0,0,.79-5.13c.36-.45.51-2.5.63-3.24a8.31,8.31,0,0,1,.39-1.71c.54-.09.58-.15.92.24a4.1,4.1,0,0,0,.6,1.52,9,9,0,0,0,.68,2.43l.27,1.11h14V17.6l-14.64,0-.69-1.4c0-.05,0-.06-.06-.09a3.37,3.37,0,0,0-.44-1.62,11.62,11.62,0,0,0-.49,3.24,9.58,9.58,0,0,0-.53,2.71,7,7,0,0,0-.25,2.1A11.43,11.43,0,0,0,33,25.57c-.15.3-.1.22-.13.39-.62.12-.76.15-1-.4L31.47,23l-.4-2.55-.78-5a16.4,16.4,0,0,0-.56-3.19,5.1,5.1,0,0,0-.21-1.89l-.76-4.68-.44,4.61-.05,1.26a19,19,0,0,0-.47,3.88l0,1.25c-.3.45-.64,5.45-.71,6.43A4.42,4.42,0,0,0,27,24.57c-.38.59-.39,2.8-.45,3.67A4.85,4.85,0,0,0,26.46,30L26,33.36c-.21.55-.26.53-.84.5-.37-.26-.23-.11-.34-.64l-.34-2.4A18.07,18.07,0,0,0,24,27.58a6.23,6.23,0,0,0-.16-2c-.09-.74-.17-2.8-.51-3.27a27.34,27.34,0,0,0-.58-4.68l-5.25,0V16.42h5.11c1.51,0,1.19.07,1.45,1.36l.37,2.92c.12.44,0,.17.13.32-.22.91.67,5.42.83,6.68L25.85,23l.24-2.54a4.17,4.17,0,0,0,.05-1.49l.05-.09.41-3.57,0-1.25c.37-.56.41-3,.46-3.87a4.36,4.36,0,0,0,.07-1.57L27.62,5c.18-1.45.14-4,.76-5H29a8.7,8.7,0,0,1,.59,2.77Z"/><polygon class="cls-2" points="0.28 17.17 19.05 17.17 19.05 17 0.28 17 0.28 17.17"/></g></g></svg>