<svg xmlns="http://www.w3.org/2000/svg" viewBox="0 0 22.38 31.94"><defs><style>.cls-1{fill:#0d0c11;}.cls-1,.cls-2{fill-rule:evenodd;}.cls-2{fill:#fff;}</style></defs><g id="Слой_2" data-name="Слой 2"><g id="Слой_1-2" data-name="Слой 1"><g id="_3015322063824" data-name=" 3015322063824"><path class="cls-1" d="M.76,24.56c.46.64.05.64,1.23,1.87s3.79,1.24,4.59,1.65c.42.21.46.54.31,1.08a1,1,0,0,1-.83.78c.18-2.5-3.49-.71-4.81-3.24C1,26.25.52,25.15.76,24.56ZM7,23.77c.58.18.78.08,1,.33a.66.66,0,0,0,.17.16,2.52,2.52,0,0,1,.33.24C7.76,24.65,7.33,24.65,7,23.77Zm-5.8-3.55a12.52,12.52,0,0,0,1.91,3.94A6.57,6.57,0,0,0,5.38,26.1a5.62,5.62,0,0,0,2.8.59,2.14,2.14,0,0,1,.2,1.38,1.41,1.41,0,0,1-.57.84c-.14.1,0,0-.15.09.11-1.38-.8-1.68-2-1.91-2.43-.48-3.72-.85-4.45-3.42C1,22.84.8,20.93,1.24,20.22Zm15.11,1.54A6.93,6.93,0,0,1,19,17.52c.5-.33.4-.36.81-.05a8.5,8.5,0,0,1,.79.58,3.8,3.8,0,0,1,1,3.11c-.37,1.84-2,2-3.48,1.5a9.6,9.6,0,0,1-1.82-.9ZM8.44,26a5.08,5.08,0,0,1-4.29-1.71,9.86,9.86,0,0,1-2.46-5.84,5.24,5.24,0,0,1,1.18-3.54,8.74,8.74,0,0,0,.95,4.49,4.53,4.53,0,0,0,3.07,2.38c.54.09.44-.1,1.13.65.25.28.86.68.93.85A3.24,3.24,0,0,1,7,23c-1.15-.72-1,.62-.42,1.53a3.94,3.94,0,0,0,1.13,1.1l.34.18.18.09.18.11ZM9,20.74c-.12.14-.19.15-.43.22a3.22,3.22,0,0,1-3.24-.77,5.14,5.14,0,0,1-1-1.44,7.37,7.37,0,0,1-.13-6.06,5.5,5.5,0,0,1,1.72-2,3.5,3.5,0,0,1,.79-.42c.17.31.23.73.46,1.11s.57.78.63.89c-.1.15-.08.09-.2.2L7,13.21a5.64,5.64,0,0,0-.64,1,4.2,4.2,0,0,0,.19,4A7.55,7.55,0,0,0,9,20.74Zm-.63,1a5,5,0,0,0,2-1s0,0,0,0l-.23-.15-.27-.15a8,8,0,0,1-2.24-1.94A3.65,3.65,0,0,1,7,14.69a6.34,6.34,0,0,1,.59-1,5.36,5.36,0,0,1,.77-.85c.11.06.18.12.3.18A5.36,5.36,0,0,0,9,12.4c-.06-.09,0,0-.08-.09l-.23-.18A3.59,3.59,0,0,1,7.32,9.5c0-.95.18-1.28.95-.7,1.5,1.12,2.1,2.83,3.22,3.54s2.48.35,3.58,0a7.89,7.89,0,0,0,1.43,1.84c.12.09.17.16.29.24a1,1,0,0,1,.29.24,3.06,3.06,0,0,1,.26.32l1.8,2a6.58,6.58,0,0,0-2.05,2,8.49,8.49,0,0,0-1.17,2.8,3.34,3.34,0,0,1-1.2-1.09.69.69,0,0,0-.39.23,3.18,3.18,0,0,0,1,1,3.42,3.42,0,0,1-2.62-.22,20.4,20.4,0,0,1-1.64-1.47,10.5,10.5,0,0,0,.52,1.21L13.12,25c1,2.64,1.35,3.17-.72,4.47a12.86,12.86,0,0,1-5.15,1.72C6,31.3,3.92,31.28,3.31,30a8.76,8.76,0,0,1-.47-1.25A21.39,21.39,0,0,1,5,29.22c.9.31.08,1.14,0,1.71a5.88,5.88,0,0,0,1.67-.47A3.76,3.76,0,0,0,7.32,30c.18-.14.45-.22.68-.37,1.67-1.09,1-2.41.95-3a11.12,11.12,0,0,0,1.31-.42c.37-.18.79-.36,1.15-.56-.84-.12-2.1.07-2.79-.39a7,7,0,0,0,2-.85c-.32-.17-1.08-.2-1.49-.43l1.63-.3a4.18,4.18,0,0,0-.66-.47c-.22-.15-.42-.27-.62-.43a10.5,10.5,0,0,1-1.15-1Zm6-11.66c-1,.05-1.61-.08-1.45-1.21a2.23,2.23,0,0,0,1.73.43l-.28.78Zm-.89-2A5.13,5.13,0,0,0,15,8.37c-.07.24-.06.37-.28.44a1.58,1.58,0,0,1-1.54-.33Zm-3.52.11a4.64,4.64,0,0,1,.82-.29,3.13,3.13,0,0,1,1.92,0c-.38.44-.57.45-.49,1.36.1,1.23,1.09,1.62,2.16,1.46.73-.11.53-.53.88-1A8.67,8.67,0,0,1,17,13.63a3.91,3.91,0,0,1-1-1.07,7,7,0,0,1-.73-1.22c-.3.11-.53.31-.89.45a2.77,2.77,0,0,1-2.95-.31,4,4,0,0,1-.57-.74A18.63,18.63,0,0,0,9.5,9c-.12-.13-.21-.21-.31-.34l.75-.42Zm3.92-.46a1.59,1.59,0,0,1,.32-.36,3.6,3.6,0,0,0,1.14.08,1.85,1.85,0,0,1-.16.4,2.35,2.35,0,0,1-1.3-.12ZM15.53,9.1a33.93,33.93,0,0,1,1.23-3.35c.31-.85-.49-1.67-1.31-.73-.39.45-1.94,2-2.15,2.33A10.63,10.63,0,0,0,12,7.11a5.67,5.67,0,0,0-3.39,1C8.15,8,7.69,7.51,7.06,8c-.36.27-.43.95-.45,1.55a5.85,5.85,0,0,0-3.38,3.55c-.25.71,0,.43-.68,1.06A6.13,6.13,0,0,0,1,17.75a8.81,8.81,0,0,0,0,.89c0,.58-.85,1.5-.73,3.64,0,.76.25,1.11.06,1.43a3,3,0,0,0,0,2.77A3.42,3.42,0,0,0,1.9,28.37c.42.36.31,2.37,2.08,3.15,2.14.94,5.22.1,7.11-.64,1.33-.53,3.72-1.78,3.54-3.36a21.82,21.82,0,0,0-1.28-3.89c-.16-.39-.37-.8-.49-1.18a4.6,4.6,0,0,0,1.84.21c1.33-.12,1-.44,1.62-.09a7,7,0,0,0,3,1.07C21.87,23.79,23,21.31,22,19a4.59,4.59,0,0,0-1.95-2.17,10.07,10.07,0,0,1-1.05-1l-.48-.52c-.88-1-.55-.75-.91-2.16a10.45,10.45,0,0,0-1.24-2.88,5.39,5.39,0,0,0-.88-1.12Z"/><path class="cls-2" d="M20.6,19.85l-.43.12c-.15-.53-.48-.55-1.06-.41-.08-.3-.26-.38.05-.48a1.41,1.41,0,0,1,.68,0,1.12,1.12,0,0,1,.76.8Zm-4.25,1.91a9.6,9.6,0,0,0,1.82.9c1.49.53,3.11.34,3.47-1.5a3.76,3.76,0,0,0-1-3.11,8.5,8.5,0,0,0-.79-.58c-.41-.31-.31-.28-.81.05a6.93,6.93,0,0,0-2.67,4.24Z"/><path class="cls-1" d="M11.31,15.49a.8.8,0,0,1,.28.3.77.77,0,0,1-.09.13l-.09.12c-.07.1-.15.18-.2.27a.8.8,0,0,0,.32.26c.29-.28.36-.58.53-.43s-.09.33-.16.65l.37.14c.23-.25.11-.46.37-.57.1.17,0,.48-.06.66l.42.08.16-.66c.17,0,.16.12.21.69l.4-.05c.05-.38-.14-.53,0-.71.16,0,.22,0,.31.6l.44-.11-.21-.66L14.7,16l-.23-.36a2.14,2.14,0,0,1-2.3,0c-.25-.17-.39-.39-.53-.48a.74.74,0,0,0-.33.3Z"/><path class="cls-2" d="M14.35,10.09l.28-.78a2.23,2.23,0,0,1-1.73-.43c-.16,1.13.47,1.26,1.45,1.21Z"/><path class="cls-2" d="M8,3.33c.56.51.34.48.31,1,.71-.25.26-.37,1,0l-.08-.64.4-.34-.55-.09-.27-.5C8.35,3.39,8.82,3.12,8,3.33Z"/><path class="cls-2" d="M19.7,8.37l-.56.1.38.38-.09.61c.18-.07.4-.23.54-.22s.27.19.51.19l-.09-.58a1.45,1.45,0,0,0,.39-.39l-.56-.08L20,7.87l-.27.5Z"/><path class="cls-2" d="M16.64.57,16.09.5,15.81,0c-.33.48-.05.5-.83.56a4.27,4.27,0,0,1,.37.41,2.08,2.08,0,0,1,0,.59c.71-.36.36-.27,1,0l0-.63.36-.36Z"/><path class="cls-2" d="M13.16,8.48a1.58,1.58,0,0,0,1.54.33c.22-.07.21-.2.28-.44a5.13,5.13,0,0,1-1.52-.25Z"/><path class="cls-1" d="M19.84,19.05a1.41,1.41,0,0,0-.68,0c-.31.1-.13.18-.05.48.58-.14.91-.12,1.06.41l.43-.12a1.12,1.12,0,0,0-.76-.8Z"/><path class="cls-2" d="M7,23.77c.29.88.72.88,1.53.73a2.52,2.52,0,0,0-.33-.24.66.66,0,0,1-.17-.16C7.82,23.85,7.62,24,7,23.77Z"/><path class="cls-2" d="M13.86,7.77a2.35,2.35,0,0,0,1.3.12,1.85,1.85,0,0,0,.16-.4,3.6,3.6,0,0,1-1.14-.08,1.59,1.59,0,0,0-.32.36Z"/></g></g></g></svg>