<svg xmlns="http://www.w3.org/2000/svg" viewBox="0 0 15.47 19.1"><defs><style>.cls-1{fill:#fff;}.cls-1,.cls-2,.cls-3,.cls-4{fill-rule:evenodd;}.cls-3{fill:#fe0000;}.cls-4{fill:#9a0201;}</style></defs><g id="Слой_2" data-name="Слой 2"><g id="Слой_1-2" data-name="Слой 1"><g id="_3015322064688" data-name=" 3015322064688"><path class="cls-1" d="M7.64,9.31a1.71,1.71,0,0,1-.56-.14c-.43-.22-.36-.56.08-.73s1.45-.07,1.51.34c0,.2-.16.33-.29.39a1.65,1.65,0,0,1-.55.14V10c1.22.5,1.19-.36,1.31-.42s.15,0,.13.13a1,1,0,0,1-.2.38.88.88,0,0,1-.37.21,2.05,2.05,0,0,1-1-.13,1.77,1.77,0,0,1-1,.12.78.78,0,0,1-.36-.21c-.33-.4-.17-.58,0-.49s.06.15.09.2c.21.5.82.39,1.21.21V9.31ZM9.89,4.09a3.51,3.51,0,0,1,1.81.63A5.33,5.33,0,0,1,13,5.83a1.13,1.13,0,0,1,.31.9,3.47,3.47,0,0,1-.81,1.65,2.35,2.35,0,0,1-1.34,1.1,1.69,1.69,0,0,1-.55-.05,1.17,1.17,0,0,1-.38-.23,3.45,3.45,0,0,1-1-1.47A5.06,5.06,0,0,1,9,5.61a3.14,3.14,0,0,1,.17-.75,1.31,1.31,0,0,1,.24-.37l.07-.08a.43.43,0,0,1,.15-.15l.1-.06c.09-.06.07-.08.2-.11Zm-4.59,0a1,1,0,0,1,.3,0c.13,0,.14.09.18.11s.14.06.25.21l.08.08a1.62,1.62,0,0,1,.36.87,4.65,4.65,0,0,1-.22,2.14c-.24.73-.89,2-1.72,2A1,1,0,0,1,4,9.41a2.5,2.5,0,0,1-1-.87l-.25-.36a2.5,2.5,0,0,1-.67-1.75A1,1,0,0,1,2.3,6a2.17,2.17,0,0,1,.35-.41,5.47,5.47,0,0,1,.58-.5,5.1,5.1,0,0,1,2.07-1Zm10,3a4.41,4.41,0,0,0-.68-2.6,5.75,5.75,0,0,0-.94-1.12A7,7,0,0,0,13,2.85a8.07,8.07,0,0,0-2.2-1.09,9.55,9.55,0,0,0-9,1.58A4.81,4.81,0,0,0,.15,6.58a4.93,4.93,0,0,0,2.29,4.28c3.21,2.3,8.64,2.09,11.41-.69a4.71,4.71,0,0,0,1.47-3Z"/><path class="cls-2" d="M6.06,17.36a1.69,1.69,0,1,1-1.53-1.84,1.7,1.7,0,0,1,1.53,1.84Zm5.29,1.74h-.24a2.83,2.83,0,0,1-.94-.26,2.82,2.82,0,0,1-.36-.24,1.63,1.63,0,0,1-.3-.28c-.28.08-.52.15-.83.21a5.77,5.77,0,0,1-1.9,0A6.13,6.13,0,0,1,6,18.32l-.15.15-.16.14a2.21,2.21,0,0,1-.36.23,2.29,2.29,0,0,1-.67.22l-.26,0H4.12a1.05,1.05,0,0,0-.21,0,2.25,2.25,0,0,1-.51-.13,2.2,2.2,0,0,1-.56-.32l-.06-.05-.06-.05a2.5,2.5,0,0,1-.31-.34,2.34,2.34,0,0,1-.36-2.05,2.09,2.09,0,0,1,.29-.6l.18-.24.22-.22a1.7,1.7,0,0,1-.35.06.65.65,0,0,1-.75-.47A2.1,2.1,0,0,1,2,13.23s0-.08.07-.13L2.18,13l.26-.35.5-.53c.08-.07.16-.17.31-.29l.12-.09.11-.09a9.36,9.36,0,0,1-1.26-.76l-.55-.47a5.9,5.9,0,0,1-.49-.51l-.12-.14A4.9,4.9,0,0,1,.13,7.9a2.84,2.84,0,0,1-.08-.42C0,7.43,0,7,0,7V6.69s0-.25,0-.31A4.48,4.48,0,0,1,.61,4.64s.11-.16.09-.2L.57,4.23a3.07,3.07,0,0,1-.2-.45,2.81,2.81,0,0,1,.68-3L1.13.73A3.48,3.48,0,0,1,1.61.38,2.92,2.92,0,0,1,2.9,0h.26l.41.05.37.1a2.92,2.92,0,0,1,.88.49,2.66,2.66,0,0,1,.24.23L5.18,1l.19.26,0,.07,0,.07L6,1.29l.55-.08a10.52,10.52,0,0,1,2.38,0,8.19,8.19,0,0,1,.82.13c.07,0,.2,0,.26,0l.09-.14.1-.13a2.57,2.57,0,0,1,.57-.57l.15-.1A3,3,0,0,1,12.3,0h.27l.29,0A3,3,0,0,1,14.05.5a2,2,0,0,1,.18.15l.09.07s.06.06.09.08a2.83,2.83,0,0,1,.49,3.42c-.14.25-.18.2-.11.3a4.64,4.64,0,0,1,.6,1.56,2.93,2.93,0,0,1,0,.29,1.51,1.51,0,0,0,0,.32V7s0,.41-.05.46a2.84,2.84,0,0,1-.09.42,4.51,4.51,0,0,1-.61,1.4c-.07.1-.13.21-.21.31l-.22.27a7.91,7.91,0,0,1-.77.76l-.28.22c-.2.15-.38.27-.6.41l-.32.18-.33.17.11.09a4.38,4.38,0,0,1,.34.29l.4.41a4.18,4.18,0,0,1,.68.95,2.1,2.1,0,0,1,.25.57,1.35,1.35,0,0,1,.06.72.59.59,0,0,1-.39.43,1.31,1.31,0,0,1-.71,0l.22.22.09.12a.6.6,0,0,1,.09.13,2,2,0,0,1,.28.59,2.27,2.27,0,0,1-.56,2.29l-.11.11-.12.09a2.2,2.2,0,0,1-.56.32l-.33.1-.38.06ZM9.4,17.29a1.69,1.69,0,1,1,1.77,1.61A1.68,1.68,0,0,1,9.4,17.29ZM3.77,14.57l.42-.34a6.57,6.57,0,0,0,.65-.63,4.63,4.63,0,0,0,.79-1.24l.49.09a10.86,10.86,0,0,0,3.22,0l.5-.09a4.75,4.75,0,0,0,.79,1.24l.24.26a6.23,6.23,0,0,0,.79.67l0,0a2.75,2.75,0,0,0-.76,0,2.28,2.28,0,0,0-1.56.92A2.25,2.25,0,0,0,9,16.67a2.33,2.33,0,0,0,.18,1c0,.09.12.21.14.28a5.27,5.27,0,0,1-3.08,0c0-.07.1-.18.14-.27s.08-.2.11-.3a2.29,2.29,0,0,0-1.91-2.89A2.75,2.75,0,0,0,3.77,14.57ZM15.32,7.13a4.71,4.71,0,0,1-1.47,3c-2.77,2.78-8.2,3-11.41.69A4.93,4.93,0,0,1,.15,6.58,4.81,4.81,0,0,1,1.83,3.34a9.55,9.55,0,0,1,9-1.58A8.07,8.07,0,0,1,13,2.85a7,7,0,0,1,.68.56,5.75,5.75,0,0,1,.94,1.12,4.41,4.41,0,0,1,.68,2.6Z"/><path class="cls-1" d="M7.73,16.06a1.69,1.69,0,0,0-.1-.27,2.05,2.05,0,0,0-.34-.38l-.37-.34a1.53,1.53,0,0,1-.18-.18,1.39,1.39,0,0,1-.28-.43.82.82,0,0,1,.3-1,.76.76,0,0,1,1,.3s.08-.11.17-.19a.8.8,0,0,1,.22-.13.65.65,0,0,1,.9.42.85.85,0,0,1,0,.61,1.76,1.76,0,0,1-.46.61l-.19.18-.19.16a1.25,1.25,0,0,0-.43.64Zm-4-1.49a2.75,2.75,0,0,1,.76,0,2.29,2.29,0,0,1,1.91,2.89c0,.1-.07.2-.11.3s-.11.2-.14.27a5.27,5.27,0,0,0,3.08,0c0-.07-.1-.19-.14-.28a2.33,2.33,0,0,1-.18-1,2.25,2.25,0,0,1,.43-1.21,2.28,2.28,0,0,1,1.56-.92,2.75,2.75,0,0,1,.76,0l0,0a6.23,6.23,0,0,1-.79-.67l-.24-.26a4.75,4.75,0,0,1-.79-1.24l-.5.09a10.86,10.86,0,0,1-3.22,0l-.49-.09a4.63,4.63,0,0,1-.79,1.24,6.57,6.57,0,0,1-.65.63l-.42.34Z"/><path class="cls-2" d="M10.4,5.26a1.08,1.08,0,0,1,.82.22,1.05,1.05,0,0,1,.4.68,1.08,1.08,0,1,1-2.13.32,1.06,1.06,0,0,1,.22-.82,1.08,1.08,0,0,1,.69-.4ZM9.89,4.09c-.13,0-.11,0-.2.11l-.1.06a.43.43,0,0,0-.15.15l-.07.08a1.31,1.31,0,0,0-.24.37A3.14,3.14,0,0,0,9,5.61a5.06,5.06,0,0,0,.33,2.12,3.45,3.45,0,0,0,1,1.47,1.17,1.17,0,0,0,.38.23,1.69,1.69,0,0,0,.55.05,2.35,2.35,0,0,0,1.34-1.1,3.47,3.47,0,0,0,.81-1.65,1.13,1.13,0,0,0-.31-.9A5.33,5.33,0,0,0,11.7,4.72a3.51,3.51,0,0,0-1.81-.63Z"/><path class="cls-2" d="M4.8,5.25A1.08,1.08,0,0,1,6,6.21a1.08,1.08,0,1,1-1.18-1Zm.5-1.16a5.1,5.1,0,0,0-2.07,1,5.47,5.47,0,0,0-.58.5A2.17,2.17,0,0,0,2.3,6a1,1,0,0,0-.18.44,2.5,2.5,0,0,0,.67,1.75L3,8.54a2.5,2.5,0,0,0,1,.87,1,1,0,0,0,.51.07c.83,0,1.48-1.24,1.72-2a4.65,4.65,0,0,0,.22-2.14,1.62,1.62,0,0,0-.36-.87L6,4.42c-.11-.15-.07-.11-.25-.21s0-.08-.18-.11a1,1,0,0,0-.3,0Z"/><path class="cls-1" d="M9.4,17.29A1.69,1.69,0,1,0,11,15.52,1.69,1.69,0,0,0,9.4,17.29Z"/><path class="cls-1" d="M6.06,17.36A1.69,1.69,0,1,0,4.22,18.9a1.7,1.7,0,0,0,1.84-1.54Z"/><path class="cls-3" d="M7.74,15.75a3.3,3.3,0,0,1,.63-.66,1.66,1.66,0,0,0,.56-.75c.17-.64-.43-1.09-.92-.72-.2.15-.22.32-.28.37a1,1,0,0,0-.27-.37c-.51-.38-1.09.09-.92.72a1.79,1.79,0,0,0,.55.75,3.91,3.91,0,0,1,.61.61s0,0,0,.05Z"/><path class="cls-1" d="M11.11,19.1a2.83,2.83,0,0,1-.94-.26,2.82,2.82,0,0,1-.36-.24,1.63,1.63,0,0,1-.3-.28c-.28.08-.52.15-.83.21a5.77,5.77,0,0,1-1.9,0A6.13,6.13,0,0,1,6,18.32l-.15.15-.16.14a2.21,2.21,0,0,1-.36.23,2.29,2.29,0,0,1-.67.22l-.26,0Z"/><path class="cls-2" d="M10.3,6.21c.09-.07.17.07.09.12S10.2,6.28,10.3,6.21Zm-.22-.53a.21.21,0,0,1,.25.16.2.2,0,0,1-.15.26A.22.22,0,1,1,10.08,5.68Zm.29-.34a.9.9,0,0,0-.8,1,.91.91,0,1,0,.8-1Z"/><path class="cls-2" d="M5.08,6.2a.08.08,0,1,1,.08.14C5.07,6.39,5,6.25,5.08,6.2Zm.22-.52a.22.22,0,0,1,.09.42A.22.22,0,1,1,5.3,5.68Zm-1.22.61a.91.91,0,1,0,.85-1A.9.9,0,0,0,4.08,6.29Z"/><path class="cls-2" d="M7.89,8.44a.82.82,0,0,1,.47.07c.17.12-.14.2-.24.21-.36,0-.67-.11-.45-.22a.55.55,0,0,1,.22-.06Zm-.25.87V10c-.39.18-1,.29-1.21-.21,0-.05,0-.17-.09-.2s-.28.09,0,.49a.78.78,0,0,0,.36.21,1.77,1.77,0,0,0,1-.12,2.05,2.05,0,0,0,1,.13.88.88,0,0,0,.37-.21,1,1,0,0,0,.2-.38c0-.1,0-.17-.13-.13s-.08.92-1.31.42V9.31a1.65,1.65,0,0,0,.55-.14c.13-.06.32-.19.29-.39-.06-.41-1-.55-1.51-.34s-.51.51-.08.73a1.71,1.71,0,0,0,.56.14Z"/><path class="cls-1" d="M4.08,6.29a.91.91,0,1,1,1,.86A.91.91,0,0,1,4.08,6.29Zm.72-1A1.08,1.08,0,1,0,6,6.21a1.07,1.07,0,0,0-1.18-1Z"/><path class="cls-1" d="M10.37,5.34a.91.91,0,1,1-.8,1,.91.91,0,0,1,.8-1Zm0-.08a1.08,1.08,0,0,0-.69.4,1.06,1.06,0,0,0-.22.82,1.08,1.08,0,1,0,2.13-.32,1.05,1.05,0,0,0-.4-.68,1.08,1.08,0,0,0-.82-.22Z"/><path class="cls-4" d="M7.74,15.75s0,0,0-.05a3.91,3.91,0,0,0-.61-.61,1.79,1.79,0,0,1-.55-.75c-.17-.63.41-1.1.92-.72a1,1,0,0,1,.27.37c.06-.05.08-.22.28-.37.49-.37,1.09.08.92.72a1.66,1.66,0,0,1-.56.75,3.3,3.3,0,0,0-.63.66Zm0,.31a1.25,1.25,0,0,1,.43-.64l.19-.16.19-.18A1.76,1.76,0,0,0,9,14.47a.85.85,0,0,0,0-.61.65.65,0,0,0-.9-.42.8.8,0,0,0-.22.13c-.09.08-.14.17-.17.19a.76.76,0,0,0-1-.3.82.82,0,0,0-.3,1,1.39,1.39,0,0,0,.28.43,1.53,1.53,0,0,0,.18.18l.37.34a2.05,2.05,0,0,1,.34.38,1.69,1.69,0,0,1,.1.27Z"/><path class="cls-1" d="M7.89,8.44a.55.55,0,0,0-.22.06c-.22.11.09.26.45.22.1,0,.41-.09.24-.21a.82.82,0,0,0-.47-.07Z"/><path class="cls-1" d="M5.3,5.68a.21.21,0,1,0,.09.42A.21.21,0,0,0,5.3,5.68Z"/><path class="cls-1" d="M10.08,5.68a.22.22,0,1,0,.1.42.2.2,0,0,0,.15-.26A.21.21,0,0,0,10.08,5.68Z"/><path class="cls-1" d="M5.08,6.2c-.08,0,0,.19.08.14A.08.08,0,1,0,5.08,6.2Z"/><path class="cls-1" d="M10.3,6.21c-.1.07,0,.18.09.12S10.39,6.14,10.3,6.21Z"/></g></g></g></svg>