<svg xmlns="http://www.w3.org/2000/svg" viewBox="0 0 59.29 21.74"><defs><style>.cls-1{fill:#2b2a29;fill-rule:evenodd;}</style></defs><g id="Слой_2" data-name="Слой 2"><g id="Слой_1-2" data-name="Слой 1"><path class="cls-1" d="M10.2,8.91C8.11,10.69,6,7.61,5.55,6.11a8,8,0,0,1,4,.29c.89.42,1.83,1.55.7,2.51Zm39.86-.59C49.51,5.74,52.27,5,55,5.69,54.91,8.26,52.35,9.16,50.06,8.32ZM5.23,5.22c0-6,7.6-5,11.16-2.51a50.3,50.3,0,0,1,4.86,4.15c4.11,3.82,8,10,14.21,12.84C44.82,24,58.75,21.54,59.27,12c.19-3.42-1.15-4.77-2.9-6.21-1.39-1.15-.27-3.46-4-5C45.69-2.17,43,5.4,35.86,10.46c-.72.51-4.53,2.94-4.76,3.7,1.2-.23,7.91-5.51,9.08-6.66,2-2,4.3-6.33,8.88-6.81,3.24-.34,5.78,1.55,6.14,4.4-10.75-2.82-8.1,8.36-1.68,5,2-1.06,1.65-3,2.46-3.94,2.5,1.85,3.73,5.25,1.8,9.06C53.94,22.82,39,22.81,31.4,16.47l-6.18-6.31a28.54,28.54,0,0,0-3-3.08,23.54,23.54,0,0,0-3.13-3C17,2.37,14.8.25,10.92,0,6.75-.23,4.32,1.85,4.69,6c-2.95.78-5.86,4.12-4.21,8,2.67,6.26,11,8.43,18.49,6.36,1.61-.45,8.71-2.91,9.35-3.93-2.79.63-6.12,2.5-9.32,3.37C2.71,24.22-4.71,9.56,4.87,6.45c.2,4.75,5.2,6.56,7.27,3.55,1.41-2,.13-3.7-1.24-4.43-2.45-1.29-3.44-.23-5.67-.35Z"/></g></g></svg>