<svg xmlns="http://www.w3.org/2000/svg" viewBox="0 0 46.34 25.21"><defs><style>.cls-1{fill:#111224;}.cls-1,.cls-2,.cls-3,.cls-4,.cls-5,.cls-6,.cls-7,.cls-8{fill-rule:evenodd;}.cls-2{fill:#5c5082;}.cls-3{fill:#9e81ad;}.cls-4{fill:#fee96c;}.cls-5{fill:#530d0e;}.cls-6{fill:#871316;}.cls-7{fill:#f18d8e;}.cls-8{fill:#f3d6d6;}</style></defs><g id="Слой_2" data-name="Слой 2"><g id="Слой_1-2" data-name="Слой 1"><g id="_3015322067808" data-name=" 3015322067808"><path class="cls-1" d="M25.88,13.32h.2a6.81,6.81,0,0,1,.58,1.82,9.31,9.31,0,0,1,.13,2.3,9.88,9.88,0,0,1-.44,2,8.43,8.43,0,0,1-.72,1.65c0,.14,0,.07,0,.12A1.55,1.55,0,0,0,26,20.7l.12-.29a2.83,2.83,0,0,0,2,2.55c.88.28,3.86,0,3.61.87-.28,0-.32-.34-1.42-.5a12.33,12.33,0,0,0-1.83-.17c.07.18-.08.07.21.12a16.54,16.54,0,0,1,1.69.17,3,3,0,0,1,.8.27c.16.09.64.38.4.61s-1.36-.45-1.8-.56a6.17,6.17,0,0,1-1-.26,2.19,2.19,0,0,0-.82-.23c-.13,0,0,0-.11,0a3.67,3.67,0,0,0,.75.25,3.55,3.55,0,0,1,1.5,1c.34.4-.11.55-.45.27-.09-.08-.12-.12-.22-.2a5.74,5.74,0,0,0-2.53-1c-.34-.05-1-.12-1.09-.44.28-.32.79.08,1.2-.17,0,0,0,0,0,0l0,0v0l-.05,0c-.15-.14.07.1-.1-.08a1.71,1.71,0,0,0-.62-.56,3.63,3.63,0,0,0-.52-.27c-1.23-.54-1-.36-1.81-.2s-1.26-.05-1.36,0l.28.11A7.74,7.74,0,0,1,23,23.42c-.56-.32-.79-1.43-1-2-.18.07.15-.11-.06.06s-1.08-.25-1.45-.34c0,.21.32.28.49.34-.26.1-.53.15-.81.27a4.49,4.49,0,0,0-.63.4c-.28.21-.95.76-1,1.1.15,0,.06,0,.2-.12A.74.74,0,0,1,18.9,23a.67.67,0,0,1,.47-.12c.27.55-.64.18-.86,1-.09.33-.07,1.59-.59,1.22-.31-.42.32-1-.14-1.34a.67.67,0,0,0-.61.21c-.32.22-.57.53-.87.77s-.26.26-.54.24c0-.36.4-.73.57-.88s.75-.35.72-.67a2.43,2.43,0,0,0-1.37.33c-.39.19-.83.7-1.14.52,0-.41.67-.78,1.16-.9,1-.26,2.5-.22,3.09-1.22a3.79,3.79,0,0,0,.49-1.62c.16.13,0,.13.21.15,0-.2-.36-.6-.46-.81a6.28,6.28,0,0,1-.75-3.11c.13-2.19,1.31-2.63,1-3.49A.59.59,0,0,0,19.2,13c-.16-.15,0-.08-.19-.08a.74.74,0,0,0,.15.26A13.91,13.91,0,0,1,15.51,12,13.22,13.22,0,0,1,13.3,10.5L13,10.24c-.19-.16-.1-.2-.38-.27a7.45,7.45,0,0,0,1.2,3.7l.62.94L16,16.32a6.35,6.35,0,0,1-.79-.45,5.55,5.55,0,0,1-1.64-2,9.88,9.88,0,0,1-1.33-3.62,1.77,1.77,0,0,0-.66.55c-.17.23-.35.43-.54.69-1.16,1.64-1.92,4.68-2.37,4.93-.08-.83,1-3.16,1.37-3.82A11.53,11.53,0,0,1,11,11l.29-.37c.13-.14.17-.22.29-.36s.54-.41.63-.65a15.67,15.67,0,0,0-5.43,2.17L6,12.28c-.36.24-.72.5-1,.75l-1,.82c-.23.2-.61.77-.94.81a1.15,1.15,0,0,1,.3-.57l.43-.46A12.61,12.61,0,0,1,6.84,11.4a15.24,15.24,0,0,1,2.4-1.16,18.2,18.2,0,0,1,2.7-.79c-.11-.43-1-.47-1.43-.52a16.37,16.37,0,0,0-9.2,1.87,4.08,4.08,0,0,1-1.19.58c0-.54,1.76-1.35,2.23-1.55A15.12,15.12,0,0,1,12.05,9c-.13.16-.05-.06-.15.16.69,0,.57-1.27-.25-1.26s.16-.56.71-.1a1.11,1.11,0,0,1,.45,1c0,.26-.15.43,0,.6a4.49,4.49,0,0,0,.79.71,10.68,10.68,0,0,0,2.38,1.41,12.11,12.11,0,0,0,2.24.8,2.55,2.55,0,0,1,.92.24,2.74,2.74,0,0,1,.73,1.14,2.53,2.53,0,0,0,.66.9,1.06,1.06,0,0,0,1.14,0c.78-.44.76-.87,1.59-1.47a11.11,11.11,0,0,1,1.44-.84,4.81,4.81,0,0,1,.51-.25.67.67,0,0,0,.21.4.76.76,0,0,0-.43.08h0l.13,0,.18,0a2.62,2.62,0,0,0,.28,0l1.73-.29a14,14,0,0,0,4-1.39,10.92,10.92,0,0,0,1.16-.75L33,9.75a1.5,1.5,0,0,1,.36-1.49c.3-.36,1.32-.34,1.18.12-.29.07-.21-.12-.58,0-.62.23-.69,1.29-.08,1.28l-.15-.18a9,9,0,0,1,.93-.18,14.85,14.85,0,0,1,4.75.4c.55.13,1.11.26,1.66.44a18.36,18.36,0,0,1,3.33,1.48,7,7,0,0,1,1.51,1.16c.14.19.47.27.35.61-.28,0-1-.61-1.25-.78A18.49,18.49,0,0,0,37.5,9.78c-.85-.09-3-.31-3.72.09,0,.3.31.31.62.4a13.2,13.2,0,0,1,2.72,1.19c.7.44,1.45.87,2.09,1.37l1.11.86a9.85,9.85,0,0,1,.78.67,3,3,0,0,0,.28.24,5.61,5.61,0,0,1,.67.78c.23.28.74.86.71,1.23-.33-.06-.49-.39-.66-.61l-.54-.69c-.15-.2-.31-.26-.5-.49a20.21,20.21,0,0,0-2.38-2,12,12,0,0,0-1.17-.8l-1.24-.72c-.45-.23-.88-.41-1.36-.61a12.33,12.33,0,0,0-1.44-.5c.11.33.13.17.3.38s.07.11.14.19l.16.18c.2.26.35.51.54.81.72,1.17,2.23,4.93,2,6.11-.3-.12-.59-1.51-.67-1.85a11.52,11.52,0,0,0-2-4.69c-.14-.17-.26-.41-.48-.47-.1.28-.17.68-.26,1s-.21.61-.32.91A10.71,10.71,0,0,1,32,14.41l-.52.76a8.23,8.23,0,0,1-.58.63,1.2,1.2,0,0,1-.72.49,8,8,0,0,1-.85.4l0,0,.08-.07a7.36,7.36,0,0,0,1.2-1.1c.06-.07.08-.11.15-.18s0,0,.14-.15a6.72,6.72,0,0,0,.75-1.08c.29-.57,1.46-2.95,1.3-3.55-.16,0-.24.11-.39.21a14.14,14.14,0,0,1-5,2.18c-.48.12-2.09.31-2.17.39.12.09.25,0,.43,0ZM0,11.45v-.2a3.33,3.33,0,0,1,1-.88A14.69,14.69,0,0,1,5.28,8.79a15.8,15.8,0,0,1,5.31-.26c.27,0,1.52.34,1.56.33.43-.95-.77-.89-.84-.92-.07-.35.19-.46.51-.48a1.21,1.21,0,0,1,1.08.94,3.42,3.42,0,0,1-.06.92c.13.1.62.58,1.17,1a12.64,12.64,0,0,0,4.49,1.95c-.63-.39-1.61-.78-1.85-1.67a.78.78,0,0,1,.26-.88c-.27-.28-.79-.61-1.28-1.15-.07-.09-.1-.16-.18-.25A8.07,8.07,0,0,1,13.66,3c0-.76,0-2.51.43-2.94S16,.72,16.28,1s.31.22.45.34a14.45,14.45,0,0,1,3.78,5.4,5.87,5.87,0,0,1,2.62.07c.16-.23.41-.86.55-1.14s.44-.75.66-1.09a11.49,11.49,0,0,1,3.48-3.36c.4-.24,2-1.27,2.36-.69.57.86-.33,4.89-.62,5.94-.48,1.73-1.15,3.77-2.86,4,.15,1-1,1.23-1.43,1.61.13.54.49.42.82.37a15,15,0,0,0,6-2.06c.3-.19.51-.39.77-.59a1.59,1.59,0,0,1,.47-1.6c.53-.41,1.58-.21,1.28.32-.27.16-.42-.19-.83.14a.68.68,0,0,0-.14.78,13.82,13.82,0,0,1,3.86-.1,19.71,19.71,0,0,1,3.51.78,15,15,0,0,1,4.9,2.59,2.9,2.9,0,0,1,.47.59v.23c-.46.23-.31-.41-1.41-.05a3.2,3.2,0,0,0-1.68,1.92c-.17.42-.42,1.35-.43,1.37-.33,0-.4-.25-.77-.39A4.76,4.76,0,0,0,39.21,16a5.32,5.32,0,0,0-1.61.68c-1.34.86-.7.75-1,1.25-.21,0-.17,0-.26-.15a2,2,0,0,0-.66-.56,7,7,0,0,0-1-.59c-3.91-1.73-5.09.83-7.75.75A10.54,10.54,0,0,1,26.22,20a2.82,2.82,0,0,0,.53,1.9c.8,1,1.74,1,3,1.08a3.51,3.51,0,0,1,2,.46c.24.24.14.33-.05.51a.61.61,0,0,1,0,.44c-.61.19-1.46-.58-2.22-.61a2.72,2.72,0,0,1,.59.45c.21.22.43.3.3.74-.49.24-.8-.24-1.11-.43-1.95-1.21-3.5-.72-3.47-1.49.35-.33.65-.07,1.06-.15-.17-.37-1.52-.33-1.9-.3a5.77,5.77,0,0,0-1.75.5c0,.25,0,.21-.09.38-.59,0,0-.54-1.53-.9-.47-.1-1.67-.13-2,.2-.06,0,.14.27-.12.45s-.39.1-.54.2c-.51.36-.21,1.38-.56,1.66a.36.36,0,0,1-.49,0c-.25-.31.09-.84,0-1.26-.7-.18-1.56,1.54-2.09,1.15-.28-.27.29-.77.44-.93s.59-.36.8-.59a3.25,3.25,0,0,0-1.83.72c-.51.37-.79.18-.67-.15.25-.64,1.38-.88,2-.95a2.91,2.91,0,0,0,2.29-1c.25-.39.66-1.48.37-1.94a6.41,6.41,0,0,1-.9-3.27c-1.7.27-2.65-.78-3.91-1.29a5.58,5.58,0,0,0-4.32.15,8.94,8.94,0,0,0-.88.47c-.13.09-.29.29-.37.31-.29.07-.14-.28-.17-.47s-1.06-1-1.41-1.21a4.1,4.1,0,0,0-3.24-.38c-.7.19-.73.47-.91.3s-.14-2.53-1.7-3.23c-.84-.38-.86.12-1.26-.05ZM15.54,1.05a6.94,6.94,0,0,1,.66.46,3.58,3.58,0,0,1,.29.27,7.5,7.5,0,0,1,2.4,4.65c-.43,0-.63-.2-1.07.07a1.3,1.3,0,0,0-.45.81c-.18.84.18,1.62,0,2.35a.7.7,0,0,1-.58-.23,8.73,8.73,0,0,1-1.37-1.35,8.52,8.52,0,0,1-1.64-5.64L13.84,1c.21-.85.22-1,.74-.85a6.9,6.9,0,0,1,2,1.13l1.32,1.3a2.27,2.27,0,0,0,.18.25,13.71,13.71,0,0,1,2.29,3.85c-.21,0-.15,0-.21.14.45,0,1-.14,1.48-.16a8.25,8.25,0,0,1,1.45.16A1.46,1.46,0,0,0,23,7c0,.16,0-.06,0,.1V7.2c.12-.09.13-.19.19-.35l.16-.36c.11-.25.2-.44.32-.66.26-.47.5-.86.74-1.25a13.4,13.4,0,0,1,1.34-1.65l1.07-1A11.91,11.91,0,0,1,28.65.84c.29-.15,1.17-.67,1.43-.31a3.13,3.13,0,0,1,.12,1.74,22.34,22.34,0,0,1-1.08,5.22,6,6,0,0,1-1.06,2,2,2,0,0,1-.88.66c-.61.24-.41.07-1-.09h0l0,0L26,10c0-.85.87-2.68-1.37-3.08-.28-.76,1.06-2.69,1.34-3a1.89,1.89,0,0,0,.25-.31L27.87,2a.8.8,0,0,0,.26-.26c-.07-.2-.17,0-.26.11s-.13,0-.44.41L27,2.65a11.07,11.07,0,0,0-2,2.54A3.74,3.74,0,0,0,24.5,7c-.32,0-.92.19-1,.54A3,3,0,0,0,24,7.17,1.55,1.55,0,0,1,26.08,9c0,.2-.08.4-.11.59s0,.5-.11.55-.06,0,.05.12a.72.72,0,0,1,.58.06.49.49,0,0,1,.09.57,2.48,2.48,0,0,1-.35.45,5.5,5.5,0,0,1-1,.59s.05,0-.08.05L25,12a9.63,9.63,0,0,0-2,1.13l-.23.19c0-.16.09-.12,0-.26-.19.13-.15.41-.61.94s-1.09,1-1.64.46a3.07,3.07,0,0,1-.26-.25c-.32-.34-.55-1.25-.95-1.64l-.49-.48-.08.14a5.6,5.6,0,0,1-1.54-1c-.16-.16-.1,0-.21-.22a1.73,1.73,0,0,1-.3-.7c0-.68.56-.55.67-.65.43-.36-.23-1.63.17-2.63s1.25-.68,1.92-.19a1.94,1.94,0,0,1,.29.21c.33.27.62.62.79.6A4.79,4.79,0,0,0,19,6.47a6.57,6.57,0,0,0-1.19-3.28l-.46-.67a6.87,6.87,0,0,0-.82-.87c-.24-.24-.88-.65-.91-.7s-.13-.1-.08.1Z"/><path class="cls-2" d="M28.43,23.16c-.47.17-1.44-.6-1.64-.79A2.45,2.45,0,0,1,26,20.7a1.55,1.55,0,0,1-.28.48c-.08-.05,0,0,0-.12-.28-.21,0-.67.11-.9a6.48,6.48,0,0,0,.29-.88,7.89,7.89,0,0,0,.3-4.18A9.75,9.75,0,0,0,26,13.69c-.08-.21-.15-.26-.08-.37-.18,0-.31.08-.43,0,.08-.08,1.68-.27,2.17-.39a14.3,14.3,0,0,0,5-2.17c.15-.11.23-.24.39-.22.16.6-1,3-1.3,3.55a6.72,6.72,0,0,1-.75,1.08c-.09.11-.05.05-.14.15s-.09.11-.15.18a7.36,7.36,0,0,1-1.2,1.1l-.08.07,0,0a8,8,0,0,0,.85-.4,1.23,1.23,0,0,0,.72-.48c.12-.16.38-.36.58-.64l.52-.76a10.71,10.71,0,0,0,.83-1.66c.11-.3.22-.58.32-.91s.16-.72.26-1c.22.06.34.3.48.47a11.52,11.52,0,0,1,2,4.69c.08.34.37,1.73.67,1.85.28-1.18-1.23-4.94-2-6.1a9,9,0,0,0-.54-.82l-.16-.18c-.07-.08-.07-.1-.14-.19s-.19-.05-.3-.38a12.33,12.33,0,0,1,1.44.5c.48.2.91.39,1.36.61l1.24.72a12,12,0,0,1,1.17.8,20.21,20.21,0,0,1,2.38,2c.19.23.35.29.5.49l.54.69c.17.22.33.55.66.61,0-.37-.48-.95-.71-1.23a5.61,5.61,0,0,0-.67-.78,3,3,0,0,1-.28-.24,9.85,9.85,0,0,0-.78-.67l-1.11-.86c-.64-.5-1.39-.93-2.09-1.37a13.2,13.2,0,0,0-2.72-1.19c-.31-.09-.58-.1-.62-.4.67-.4,2.87-.18,3.72-.09A18.49,18.49,0,0,1,45,12.63c.27.17,1,.81,1.25.78.12-.34-.21-.42-.35-.61a6.69,6.69,0,0,0-1.51-1.15A17.74,17.74,0,0,0,41,10.16c-.55-.18-1.11-.31-1.66-.44a14.85,14.85,0,0,0-4.75-.4,9,9,0,0,0-.93.18l.15.18c-.61,0-.54-1,.08-1.28.37-.14.29,0,.58,0,.14-.46-.88-.48-1.18-.12A1.5,1.5,0,0,0,33,9.75l-.47.37a10.92,10.92,0,0,1-1.16.75,14,14,0,0,1-4,1.39l-1.73.29a2.62,2.62,0,0,1-.28,0l-.18,0-.13,0h0a.76.76,0,0,1,.43-.08.67.67,0,0,1-.21-.4,4.81,4.81,0,0,0-.51.25,11.11,11.11,0,0,0-1.44.84c-.83.6-.81,1-1.59,1.47a1.06,1.06,0,0,1-1.14,0,2.53,2.53,0,0,1-.66-.9,2.81,2.81,0,0,0-.73-1.14,2.55,2.55,0,0,0-.92-.24,12.11,12.11,0,0,1-2.24-.8,10.68,10.68,0,0,1-2.38-1.41,4.49,4.49,0,0,1-.79-.71c-.11-.17,0-.34,0-.6a1.11,1.11,0,0,0-.45-1c-.55-.46-1.39.1-.71.1s.94,1.26.25,1.26c.1-.22,0,0,.15-.16a15.12,15.12,0,0,0-9.7.86c-.47.2-2.23,1-2.23,1.55a4.08,4.08,0,0,0,1.19-.58,16.37,16.37,0,0,1,9.2-1.87c.39.05,1.32.09,1.43.52a18.2,18.2,0,0,0-2.7.79,15.24,15.24,0,0,0-2.4,1.16,12.61,12.61,0,0,0-3.09,2.23l-.43.46a1.15,1.15,0,0,0-.3.57c.33,0,.71-.61.94-.81l1-.82c.31-.25.67-.51,1-.75l.81-.5A15.5,15.5,0,0,1,12.19,9.6c-.09.24-.44.44-.63.65s-.16.22-.29.36L11,11a11.53,11.53,0,0,0-1,1.6c-.36.66-1.45,3-1.37,3.82.45-.25,1.21-3.29,2.37-4.93.19-.26.37-.46.54-.69a1.77,1.77,0,0,1,.66-.55,9.88,9.88,0,0,0,1.33,3.62,5.55,5.55,0,0,0,1.64,2,6.35,6.35,0,0,0,.79.45L14.4,14.61l-.62-.94a7.45,7.45,0,0,1-1.2-3.7c.28.07.19.11.38.27l.34.26A13.22,13.22,0,0,0,15.51,12a13.91,13.91,0,0,0,3.65,1.24.74.74,0,0,1-.15-.26c.22,0,0-.07.19.08a.59.59,0,0,1,.12.22c.27.86-.91,1.3-1,3.49A6.28,6.28,0,0,0,19,19.83c.1.21.45.61.46.81-.18,0,0,0-.21-.15a3.79,3.79,0,0,1-.49,1.62c-.59,1-2.05,1-3.09,1.22-.49.12-1.17.49-1.16.9.31.18.75-.33,1.14-.51a2.36,2.36,0,0,1,1.37-.34c0,.32-.51.49-.72.67s-.61.52-.57.88c.28,0,.37-.11.54-.24s.55-.55.87-.77a.67.67,0,0,1,.61-.21c.46.38-.17.93.14,1.34.52.37.5-.89.59-1.22.22-.79,1.13-.42.86-1a.66.66,0,0,0-.47.12.74.74,0,0,0-.16.12c-.14.11,0,.08-.2.12.05-.34.72-.89,1-1.1a4.49,4.49,0,0,1,.63-.4c.28-.12.55-.17.81-.27-.17-.06-.48-.13-.49-.34.37.09,1.12.59,1.45.34s-.12,0,.06-.06c.2.6.43,1.71,1,2a7.74,7.74,0,0,0-.21-1.52l-.28-.11c.1-.09.69.09,1.36,0s.58-.34,1.81.2a3.63,3.63,0,0,1,.52.27,1.71,1.71,0,0,1,.62.56c.17.18,0-.06.1.08l.05,0v0l0,0s0,0,0,0c-.41.25-.93-.15-1.2.18.1.31.75.38,1.09.43a5.64,5.64,0,0,1,2.53,1,2,2,0,0,1,.22.19c.34.28.79.13.45-.27a3.55,3.55,0,0,0-1.5-1,3.67,3.67,0,0,1-.75-.25c.07-.06,0,0,.11,0a2.19,2.19,0,0,1,.82.23,6.17,6.17,0,0,0,1,.26c.44.11,1.51.7,1.8.56s-.24-.52-.4-.61a3,3,0,0,0-.8-.27,16.54,16.54,0,0,0-1.69-.17c-.29-.05-.14.06-.21-.12Z"/><path class="cls-2" d="M20.37,9.9c1.41-.37,3.08.78,1.37,1.57S19.19,10.21,20.37,9.9Zm-3.19.58c.24.08.27.3.82.67a5.53,5.53,0,0,0,1,.46,6.53,6.53,0,0,0,4.89.13,3.35,3.35,0,0,0,1.63-.94c.16-.16,0-.11.24-.16,0,.18,0,.13-.2.3s-.06.12-.26.25a5.19,5.19,0,0,1-.66.38c-1.17.61-1.77.08-2.38,1.63-.22.55-.42,1-.89,1.19s-.94-.32-1.1-.8a6.37,6.37,0,0,0-.66-1.41c-.31-.48-.55-.37-1.28-.72a4.71,4.71,0,0,1-.64-.39,2.6,2.6,0,0,1-.29-.24c-.2-.19-.08-.15-.2-.35Zm6.54-2.71a1.56,1.56,0,0,1,1.92,1.06,1.57,1.57,0,1,1-1.92-1.06ZM18.11,9.89a2.13,2.13,0,0,1-.32-.71,1.87,1.87,0,0,1,0-.94c.24-1,1.63-1.29,2.53-.32a1.75,1.75,0,0,1,.23,1.61c.52,0,.41-.17.75-.32-.25.86-1.57-.09-1.61,1.27l0,0c-.41-.26-.43.15-1.2-.3s-1-.07-1.13,0c.09-.46.39-.37.82-.28ZM13.84,1c.15-.2.13-.29.31-.39a.8.8,0,0,1,.57,0,1.59,1.59,0,0,1,.82.44c0-.2,0,0,.08-.1s.67.46.91.7a6.87,6.87,0,0,1,.82.87l.46.67A6.57,6.57,0,0,1,19,6.47,4.79,4.79,0,0,1,20.56,7.7c-.17,0-.46-.33-.79-.6a1.94,1.94,0,0,0-.29-.21c-.67-.49-1.57-.72-1.92.19s.26,2.27-.17,2.63c-.11.1-.71,0-.67.65a1.73,1.73,0,0,0,.3.7c.11.17.05.06.21.22a5.6,5.6,0,0,0,1.54,1l.08-.14.49.48c.4.39.63,1.3.95,1.64a3.07,3.07,0,0,0,.26.25c.55.52,1.29-.07,1.64-.46s.42-.81.61-.94c.07.14,0,.1,0,.26l.23-.19A9.63,9.63,0,0,1,25,12l.1,0c.13-.07.06,0,.08-.05.11-.35,1.28-.73,1.24-1.35v-.23s0,0,0,0a.72.72,0,0,0-.58-.06c-.11-.09,0,0-.05-.12-.38-.37.35-1.27-.1-2.12a1.37,1.37,0,0,0-1.2-.75c-.18,0-.43,0-.58-.08a3,3,0,0,1-.52.32c.12-.35.72-.49,1-.54A3.74,3.74,0,0,1,25,5.19a11.07,11.07,0,0,1,2-2.54l.43-.41c.31-.37.23-.19.44-.41s.19-.31.26-.11c.12-.19.07-.13.28-.28A2.1,2.1,0,0,1,29.48.88c.74-.06.67.79.72,1.39A3.13,3.13,0,0,0,30.08.53c-.26-.36-1.14.16-1.43.31A11.91,11.91,0,0,0,26.85,2l-1.07,1a13.4,13.4,0,0,0-1.34,1.65c-.24.39-.48.78-.74,1.25-.12.22-.21.41-.32.66l-.16.36c-.06.16-.07.26-.19.35V7.14C23,7,23,7.2,23,7a1.46,1.46,0,0,1,.07-.19,8.25,8.25,0,0,0-1.45-.16c-.52,0-1,.15-1.48.16.06-.14,0-.1.21-.14a13.71,13.71,0,0,0-2.29-3.85,2.27,2.27,0,0,1-.18-.25l-1.32-1.3a6.9,6.9,0,0,0-2-1.13c-.52-.18-.53,0-.74.85Z"/><path class="cls-3" d="M28.13,1.72a.8.8,0,0,1-.26.26L26.24,3.63a1.89,1.89,0,0,1-.25.31c-.28.32-1.62,2.25-1.34,3,2.24.4,1.41,2.23,1.37,3.08l.08,0,0,0h0c.59.16.39.33,1,.09a2,2,0,0,0,.88-.66,6,6,0,0,0,1.06-2A22.34,22.34,0,0,0,30.2,2.27c-.05-.6,0-1.45-.72-1.39a2.1,2.1,0,0,0-1.07.56c-.21.15-.16.09-.28.28Z"/><path class="cls-3" d="M13.84,1l-.09,1.41a8.52,8.52,0,0,0,1.64,5.64,8.73,8.73,0,0,0,1.37,1.35.7.7,0,0,0,.58.23c.21-.73-.15-1.51,0-2.35a1.3,1.3,0,0,1,.45-.81c.44-.27.64-.12,1.07-.07a7.5,7.5,0,0,0-2.4-4.65,3.58,3.58,0,0,0-.29-.27,6.94,6.94,0,0,0-.66-.46,1.59,1.59,0,0,0-.82-.44.8.8,0,0,0-.57,0C14,.74,14,.83,13.84,1Z"/><path class="cls-4" d="M23.31,9.56a.4.4,0,0,1,.79-.14C24.19,10,23.37,10.08,23.31,9.56Zm.43-1.68a2,2,0,0,0-.49.24,1.06,1.06,0,0,0-.33.37,1.42,1.42,0,0,0-.16,1.21,1.45,1.45,0,1,0,1-1.82Z"/><path class="cls-4" d="M20.18,9.23a.39.39,0,1,1-.72-.29C19.65,8.4,20.36,8.78,20.18,9.23Zm-.65,1c.26-.55.14-.47.73-.67s.31-2.39-1.52-2.12C17.22,7.68,17.63,10.59,19.53,10.24Z"/><path class="cls-1" d="M20.4,13.63c.26-.21.18-.27.69-.05l-.12.31c.23-.11.45-.8,1-.54,0,.15-.18.5-.3.64-.57.68-1.19.19-1.31-.36Zm-3.22-3.15c.12.2,0,.16.2.35a2.6,2.6,0,0,0,.29.24,4.71,4.71,0,0,0,.64.39c.73.35,1,.24,1.28.72a6.37,6.37,0,0,1,.66,1.41c.16.48.51,1,1.1.8s.67-.64.89-1.19c.61-1.55,1.21-1,2.38-1.63a5.19,5.19,0,0,0,.66-.38c.2-.13.11-.09.26-.25s.18-.12.2-.3c-.21,0-.08,0-.24.16a3.35,3.35,0,0,1-1.63.94A6.53,6.53,0,0,1,19,11.61a5.53,5.53,0,0,1-1-.46c-.55-.37-.58-.59-.82-.67Z"/><path class="cls-3" d="M25.63,21.06a8.43,8.43,0,0,0,.72-1.65,9.88,9.88,0,0,0,.44-2,9.31,9.31,0,0,0-.13-2.3,6.81,6.81,0,0,0-.58-1.82h-.2c-.07.11,0,.16.08.37a9.75,9.75,0,0,1,.37,1.41,7.89,7.89,0,0,1-.3,4.18,6.48,6.48,0,0,1-.29.88c-.1.23-.39.69-.11.9Z"/><path class="cls-5" d="M21.33,10a1.4,1.4,0,0,1,.89.42.53.53,0,0,1,.12.33,1.87,1.87,0,0,1-1.36.38,1.42,1.42,0,0,1-1-.75c.15-.45.87-.48,1.35-.38Zm-1-.11c-1.18.31-.21,2.3,1.37,1.57S21.78,9.53,20.37,9.9Z"/><path class="cls-6" d="M21.33,10c.22.16.43.09.53.35-.17.41-1.18.3-1.3-.14.19-.28.46-.17.77-.21Zm0,0c-.48-.1-1.2-.07-1.35.38a1.42,1.42,0,0,0,1,.75,1.87,1.87,0,0,0,1.36-.38.53.53,0,0,0-.12-.33,1.4,1.4,0,0,0-.89-.42Z"/><path class="cls-1" d="M19.53,10.24c-1.9.35-2.31-2.56-.79-2.79,1.83-.27,2.06,1.93,1.52,2.12S19.79,9.69,19.53,10.24Zm-1.42-.35c-.43-.09-.73-.18-.82.28.16-.08.32-.49,1.13,0s.79.05,1.2.3l0,0c0-1.36,1.36-.41,1.61-1.27-.34.15-.23.28-.75.32a1.75,1.75,0,0,0-.23-1.61c-.9-1-2.29-.7-2.53.32a1.87,1.87,0,0,0,0,.94,2.13,2.13,0,0,0,.32.71Z"/><path class="cls-1" d="M23.74,7.88a1.45,1.45,0,1,1-1,1.82,1.42,1.42,0,0,1,.16-1.21,1.06,1.06,0,0,1,.33-.37,2,2,0,0,1,.49-.24Zm0-.11a1.57,1.57,0,1,0,1.92,1.06A1.57,1.57,0,0,0,23.72,7.77Z"/><path class="cls-7" d="M20.4,13.63c.12.55.74,1,1.31.36.12-.14.35-.49.3-.64-.59-.26-.81.43-1,.54l.12-.31c-.51-.22-.43-.16-.69.05Z"/><path class="cls-3" d="M24,7.17c.15.1.4.06.58.08a1.37,1.37,0,0,1,1.2.75c.45.85-.28,1.75.1,2.12.11,0,.08-.42.11-.55s.08-.39.11-.59A1.55,1.55,0,0,0,24,7.17Z"/><path class="cls-8" d="M21.33,10c-.31,0-.58-.07-.77.21.12.44,1.13.55,1.3.14-.1-.26-.31-.19-.53-.35Z"/><path class="cls-1" d="M23.31,9.56c.06.52.88.39.79-.14A.4.4,0,0,0,23.31,9.56Z"/><path class="cls-1" d="M20.18,9.23c.18-.45-.53-.83-.72-.29A.39.39,0,1,0,20.18,9.23Z"/><path class="cls-3" d="M25.22,11.91a5.5,5.5,0,0,0,1-.59,2.48,2.48,0,0,0,.35-.45.49.49,0,0,0-.09-.57s0,0,0,0v.23C26.5,11.18,25.33,11.56,25.22,11.91Z"/></g></g></g></svg>