<svg xmlns="http://www.w3.org/2000/svg" viewBox="0 0 39.54 37.1"><defs><style>.cls-1{fill:#fff;}.cls-1,.cls-2,.cls-3,.cls-4{fill-rule:evenodd;}.cls-2{fill:#e31e24;}.cls-3{fill:#141414;}.cls-4{fill:#464646;}</style></defs><g id="Слой_2" data-name="Слой 2"><g id="Слой_1-2" data-name="Слой 1"><g id="_3015322072656" data-name=" 3015322072656"><path class="cls-1" d="M8.89,25.17c.12.07.06-.06.17.18.08,0,0,0,.12.06l.1.1a.51.51,0,0,1,.17.24c.12.06.08,0,.16.16A25.24,25.24,0,0,1,12,28.16c1.59,1.47,3.22,3.1,4.74,4.62l1.74,1.75c.25.21.42.42.63.56-.33-3.43-.43-9.68-.44-13.42,0-2.42,2.39-3.16,3.73-1.47.3.38.46,1,.8,1.51,1.76,2.5,4.14-4.43,2.24-8.11a3.16,3.16,0,0,0-.47-.7c-.68-.45-.77-.4-1.35.14l-.11.06c-.1.27-.09.22-.3.38l-.06.15a.72.72,0,0,1-.1.24c-.05.09-.06.07-.11.12l0,.12c-.1.25,0,.16-.2.27s0,0-.09.17,0,0-.14.1,0,.06-.11.14,0,0-.18.1c0,.13-.12.1-.22.11a.94.94,0,0,1-.61.27,1.16,1.16,0,0,1-.78-.11,2.23,2.23,0,0,1-1.76-2.36c0-1.29.16-2.6.27-3.88.15-1.74.33-1.91-.35-3.43a8.07,8.07,0,0,0-8-4.39A10.15,10.15,0,0,0,2.81,5.62a10.54,10.54,0,0,0-1.3,2.81C-.25,14.1,3.55,19.08,6.92,23c.19.22.33.32.51.54a19.83,19.83,0,0,1,1.46,1.64Z"/><path class="cls-2" d="M20.16,35.26c.17,0,.1,0,.24-.16s.15-.16.25-.25l7.89-7.63c.72-.82,1.54-1.51,2.06-2,.36-.38.56-.66,1-1.05.59-.54,2.35-2.67,2.88-3.34,3.41-4.36,5.69-9.69,2.36-15A9.94,9.94,0,0,0,32.36,2C28.12.18,23.14,1.11,21,5.26a7.2,7.2,0,0,0-.8,3.29c-.11,1.28-.22,2.54-.28,3.83-.09,2.12,1.37,2,1.89,1.44s.74-1.76,1.93-2.2c3.65-1.34,4.72,8.08,1.69,11.06a1.94,1.94,0,0,1-2.83,0,4.73,4.73,0,0,1-.79-1.24c-.22-.54-.38-1-1-1.09-1.37-.25-1.06,2-1.05,2.95,0,4,.22,8,.44,11.92Z"/><path class="cls-3" d="M20.16,35.26c-.22-4-.4-7.95-.44-11.92,0-1-.32-3.2,1.05-2.95.62.11.78.55,1,1.09a4.73,4.73,0,0,0,.79,1.24,1.94,1.94,0,0,0,2.83,0c3-3,2-12.4-1.69-11.06-1.19.44-1.53,1.77-1.93,2.2s-2,.68-1.89-1.44c.06-1.29.17-2.55.28-3.83A7.2,7.2,0,0,1,21,5.26C23.14,1.11,28.12.18,32.36,2a9.94,9.94,0,0,1,4.46,3.79c3.33,5.35,1,10.68-2.36,15-.53.67-2.29,2.8-2.88,3.34-.42.39-.62.67-1,1.05-.52.54-1.34,1.23-2.06,2l-7.89,7.63c-.1.09-.14.14-.25.25s-.07.13-.24.16Zm.37-20.1.23,0c.18-.31.31-.31.71-.19-.07-.59.19-.73.74-.73.09.22.13.12.22.38.12-.05,0,.07.14-.1s.06-.1.09-.17l-.4-.09c-.07-.18-.14-.34,0-.5a.2.2,0,0,1,.35.05c-.25.32-.12-.08-.2.27.3-.06.17-.11.41,0l0-.12-.28-.36c.16-.24.16-.07.24-.29v-.4l.6.16.11-.06c0-.59.27-.73.84-.58-.31-.59-.5-.36-.44-.77.26,0,.14,0,.42.32.18-.1.06-.08.25-.25a1.58,1.58,0,0,1,1,.57c-.5.18-.72-.5-1-.23s.55.59.26.8a3.16,3.16,0,0,1,.47.7c1.9,3.68-.48,10.61-2.24,8.11-.34-.48-.5-1.13-.8-1.51-1.34-1.69-3.74-.95-3.73,1.47,0,3.74.11,10,.44,13.42-.21-.14-.38-.35-.63-.56l-1.74-1.75c-1.52-1.52-3.15-3.15-4.74-4.62a25.24,25.24,0,0,0-2.34-2.25c-.55.18-.45.16-.84-.23l.12-.51a19.83,19.83,0,0,0-1.46-1.64c-.18-.22-.32-.32-.51-.54C3.55,19.08-.25,14.1,1.51,8.43a10.54,10.54,0,0,1,1.3-2.81A10.15,10.15,0,0,1,10.72,1.1a8.07,8.07,0,0,1,8,4.39c.68,1.52.5,1.69.35,3.43-.11,1.28-.24,2.59-.27,3.88a2.23,2.23,0,0,0,1.76,2.36ZM8,25.72c.12,0,.12.19.09-.27.32,0,0,.17.49,0,0,.32-.14.29.09.53a1,1,0,0,0,.41.16s0,0,.05,0c-.36.56-.69-.15-.88-.29l0,.08c0,.24.6.66.78.83s.59.58.8.8c.86.93,2,1.88,2.51,2.45a10.25,10.25,0,0,0,.8.81c1.62,1.44,3.37,3.47,4.93,4.85.79.7,1.26,1.61,1.84,1.3l5-4.81c.3-.28.57-.61.83-.85s.55-.48.84-.76.51-.55.79-.82l1.7-1.59c.23-.22.53-.59.78-.82s.56-.59.83-.84l2-2.09,3.29-4a18.13,18.13,0,0,0,3.22-6.56,11.57,11.57,0,0,0-.21-5.82,11,11,0,0,0-6-7,10.6,10.6,0,0,0-10.31.58A8.6,8.6,0,0,0,21,3.21a8,8,0,0,0-.67.94c-.18.28-.38.78-.57,1-.2-.25-.46-.85-.69-1.19a8.12,8.12,0,0,0-2.83-2.69,10.13,10.13,0,0,0-6-1.24A11.31,11.31,0,0,0,4.86,2,10.88,10.88,0,0,0,1.38,5.87c-2.1,3.72-1.63,8,.25,11.65a26.43,26.43,0,0,0,3,4.39l1.27,1.51c.18.18.24.32.42.49A24.09,24.09,0,0,0,8,25.72Z"/><path class="cls-4" d="M23.57,13c.58-.54.67-.59,1.35-.14.29-.21-.49-.57-.26-.8s.47.41,1,.23a1.58,1.58,0,0,0-1-.57c-.19.17-.07.15-.25.25-.28-.34-.16-.33-.42-.32-.06.41.13.18.44.77-.57-.15-.81,0-.84.58Z"/><path class="cls-4" d="M20.53,15.16a1.16,1.16,0,0,0,.78.11.94.94,0,0,0,.61-.27c-.46,0-.24-.67.26-.4,0,.27.08,0,0,.29.15-.07.08,0,.18-.1s0,0,.11-.14c-.09-.26-.13-.16-.22-.38-.55,0-.81.14-.74.73-.4-.12-.53-.12-.71.19Z"/><path class="cls-4" d="M8,25.72c.16.22.07.13.28.28l0-.08c.19.14.52.85.88.29,0,0-.05-.05-.05,0A1,1,0,0,1,8.7,26c-.23-.24-.09-.21-.09-.53-.51.13-.17,0-.49,0,0,.46,0,.3-.09.27Z"/><path class="cls-4" d="M22.89,14c.05-.05.06,0,.11-.12a.72.72,0,0,0,.1-.24c-.18,0-.18.19-.3-.33.3.12,0,0,.21.09l.15.09c.21-.16.2-.11.3-.38l-.6-.16v.4c-.08.22-.08.05-.24.29Z"/><path class="cls-4" d="M22.66,14.38c.17-.11.1,0,.2-.27-.24-.11-.11-.06-.41,0,.08-.35-.05.05.2-.27a.2.2,0,0,0-.35-.05c-.18.16-.11.32,0,.5l.4.09Z"/><path class="cls-4" d="M9.61,25.91c-.08-.17,0-.1-.16-.16-.38.06-.46-.05-.39-.4-.11-.24-.05-.11-.17-.18l-.12.51c.39.39.29.41.84.23Z"/><path class="cls-3" d="M21.92,15c.1,0,.24,0,.22-.11s.08,0,0-.29c-.5-.27-.72.36-.26.4Z"/><path class="cls-3" d="M9.45,25.75a.51.51,0,0,0-.17-.24l-.1-.1c-.09-.07,0,0-.12-.06-.07.35,0,.46.39.4Z"/><path class="cls-3" d="M23.1,13.63l.06-.15L23,13.39c-.17-.09.09,0-.21-.09C22.92,13.82,22.92,13.68,23.1,13.63Z"/></g></g></g></svg>