<svg xmlns="http://www.w3.org/2000/svg" viewBox="0 0 49.41 34.29"><defs><style>.cls-1{fill:#a4cda3;}.cls-1,.cls-10,.cls-11,.cls-12,.cls-13,.cls-2,.cls-3,.cls-4,.cls-5,.cls-6,.cls-7,.cls-8,.cls-9{fill-rule:evenodd;}.cls-2{fill:#feb25a;}.cls-3{fill:#43423c;}.cls-4{fill:#ba8d66;}.cls-5{fill:#da8b8a;}.cls-6{fill:#71916e;}.cls-7{fill:#9a6d4a;}.cls-8{fill:#d3e6d3;}.cls-9{fill:#f2f2f2;}.cls-10{fill:#e7b5b4;}.cls-11{fill:#2e2016;}.cls-12{fill:#73543f;}.cls-13{fill:#fe3b4a;}</style></defs><g id="Слой_2" data-name="Слой 2"><g id="Слой_1-2" data-name="Слой 1"><g id="_3015322078512" data-name=" 3015322078512"><path class="cls-1" d="M21.8,15.49c1-.54,1.57-.27,2.77-.27.63,0,2.54-.22,2.87.22-1.74-.13-1.79.36-4.29,0A5.81,5.81,0,0,0,21.8,15.49Zm3.88-2.15c.26-.32.05-.3.15-.54a.49.49,0,0,1,0,.68c-.23.26-.41,0-.67,0-.1.11-.11.17-.21.24-.47.36-.76-.22-.78-.24s-1,.44-.69-.66c0,0,0,0,0,0,.1.28,0,.21.17.48.29,0,.22-.17.54-.14s.26.16.35.33c.44,0,.12-.21.48-.32s.33.13.6.12Zm7.22,1.24c.05-.4.21-.88.3-1.3A18.83,18.83,0,0,0,33.57,9a1.58,1.58,0,0,1,.19.7,8.24,8.24,0,0,1-.56,4.39c0,.1-.08.18-.13.28s-.06.12-.07.14Zm-16.39,0a.3.3,0,0,1-.08-.08l-.11-.2a8.09,8.09,0,0,1-.74-3.88A3.81,3.81,0,0,1,15.84,9,29.56,29.56,0,0,0,16,12c.07.48.15.9.24,1.36s.23.86.29,1.26Zm23.36-.42a17.77,17.77,0,0,1-4.1.44c-1.79-.21-1.67-1.17-1.55-2.85.15-1.09,1.07-1.61,2.3-1.62a24.93,24.93,0,0,1,3.56.33c1.14.16,2.25.34,3.35.52s2.47.49,3.31.6l-.05,0c.05.21-1,1-1.19,1.11a6.15,6.15,0,0,1-.76.4c-.17.07-.33.08-.48.13s-.13.12-.4.16l-3.5.66ZM15.12,11.38A5.88,5.88,0,0,1,15.24,13a1.32,1.32,0,0,1-.54,1.21,4.59,4.59,0,0,1-3,.26c-.63-.08-1.19-.19-1.82-.29l-2.18-.39c-.81-.11-1.41-.28-2.15-.43-.28-.05-.46-.15-.72-.21a6.36,6.36,0,0,1-1.94-1.3c-.16-.17-.16-.07-.19-.27l0,0c1-.14,2.15-.42,3.22-.59l3.28-.51a32,32,0,0,1,3.44-.35,2.33,2.33,0,0,1,2.5,1.25Zm14.08-1.3a2.11,2.11,0,0,1,1.59.34c.32.17,1,.58.74,1.05-.77,1.52-2.55,1.8-4.14,1.32-.77-.22-.9-.38-.37-1A4.35,4.35,0,0,1,29.2,10.08Zm-9.82,0c1.28-.32,2.14.74,2.6,1.25.17.19.93.81.64,1.19-.15.21-2.8,1.22-4.4-.53-.35-.39-.6-.79-.11-1.23A3.29,3.29,0,0,1,19.38,10.09Zm7.35,1.41c-.17-.31,1-1.34,1.47-1.45l0,0,0,0-.17.12-.2.15C27,11,27.06,11.52,26.73,11.5Zm-4,0c-.32.07-.19-.17-.73-.78a7.43,7.43,0,0,0-.85-.7C21.56,10.12,22.76,11.05,22.71,11.49Zm9.23-1a.66.66,0,0,1,0,.38c-.13-.06-.19-.21-.28-.3s-.22-.21-.33-.31a3.86,3.86,0,0,0-.73-.49,3.06,3.06,0,0,0-4.17,1.39c-.13.26-.22.73-.33.91a3.09,3.09,0,0,1,4.12-2.85,3.25,3.25,0,0,1,1.31.84l.17.14a1.14,1.14,0,0,0-.53-.81l-.72-.54a3.83,3.83,0,0,0-.89-.41l-.24-.09a.64.64,0,0,0-.23-.06,1.32,1.32,0,0,0-.28,0c-.28,0-.26-.07-.31-.13a3.2,3.2,0,0,1,2.29.64c.55.36,1.1.7,1.19,1.39,0,.37,0,.3-.08.32Zm-14.3-.24.09-.07a6.21,6.21,0,0,1,.59-.54,3.1,3.1,0,0,1,4.95,2.39l-.1-.24a3.14,3.14,0,0,0-5.62-1c-.08.1,0,.07-.13.11a.81.81,0,0,1,0-.4c-.11-.08,0,.07-.09-.18-.11-.9,1.59-1.83,2.28-2.07a2.72,2.72,0,0,1,1.21-.09c.13,0,.06,0,.15.09s-.5,0-.9.11a4.84,4.84,0,0,0-1.16.5c-.58.39-1.14.68-1.32,1.41ZM16.11,7.49l-.19.19c-.28.38-.18.41-.52.48l-1.06.25h.16A17.89,17.89,0,0,1,12,9.35a45.6,45.6,0,0,1-5.81,1.13l-2.31.31c-.17,0-.57.15-.72,0-.51.11-1,.27-1.56.41a2.48,2.48,0,0,0-1.29.58c.13.18.06,0,.59.07a3.51,3.51,0,0,1,1.31.59,16.12,16.12,0,0,0,5.63,1.81c1.39.27,2.8.57,4.21.79a14.34,14.34,0,0,0,2.29.21c1,0,1.72-.2,2.25-.22.17.18.29.37.44.53a4.66,4.66,0,0,0,3.53,1.28,7.44,7.44,0,0,0,1.59-.37c.29.87,1.65,1.1,1.88,1.22a1.45,1.45,0,0,1-.09-.25.8.8,0,0,1,.24.13l.12.11,0,0,.1.06a4.48,4.48,0,0,0,2.48-.7,3.48,3.48,0,0,0,.51-.58,4.64,4.64,0,0,0,3.26.15A3.89,3.89,0,0,0,32.84,15c.49,0,1.19.21,2.28.21a38.81,38.81,0,0,0,6.46-1,21.54,21.54,0,0,0,4-1,16.42,16.42,0,0,0,1.69-.79,2.68,2.68,0,0,1,1.91-.6l-.05-.14c-.26-.38-2.3-.81-2.94-1-.12.14,0,.06-.2.08l-1.33-.17A43.43,43.43,0,0,1,36.27,9l-.62-.23a4.17,4.17,0,0,0-.6-.24.45.45,0,0,1,.27,0,6.17,6.17,0,0,0-1.21-.28c-.33-.06-.32,0-.47-.29s-.17-.31-.35-.39c0,.14.06,0,0,.09a6.78,6.78,0,0,0-1.61-1.23,8.67,8.67,0,0,0-2-.84,8.27,8.27,0,0,0-4.41.11,3.56,3.56,0,0,1-.52.15,10.65,10.65,0,0,0-2.35-.5,8.43,8.43,0,0,0-3.67.61,7.92,7.92,0,0,0-2.54,1.7c-.07-.06-.11.1,0-.1Z"/><path class="cls-2" d="M9.59,9.13C10.52,9,13.9,8.22,15.22,8c.36-.07.27-.06.45-.31A9.11,9.11,0,0,1,18,5.39V5c.13.06.12.11.16.24a8.38,8.38,0,0,0,1.06-.56c0-.21,0-.6.08-.69l.15.6c.25-.06.48-.16.74-.23,1-.28.74,0,.9-.38.09-.24,0-.09.11-.14s0,.09,0,.13l.07.19a9.69,9.69,0,0,1,1.08,0,8,8,0,0,0,1,.14,1.65,1.65,0,0,1,.15-.57c.1.16,0,.41.1.62a5.56,5.56,0,0,0,1.63.06,3.38,3.38,0,0,1,0-1,4.78,4.78,0,0,1,.24.91,7.5,7.5,0,0,0,1.25-.16,12.22,12.22,0,0,1,1.35-.08,1.58,1.58,0,0,0,.09-.31l.09.12s0,.16.06.21c.28.07.55.1.82.17s.53.18.79.23L30.09,4l0,0,0,.56c.35.19.81.46,1.11.61.13-.12.07-.17.23-.27,0,.42-.13.36.19.57s.29.23.45.36a9.85,9.85,0,0,1,1.53,1.63c.38.51.19.35,1,.54,1.74.38,3.5.69,5.22,1.09-.33-.48-.65-1.19-1.14-1.87a17.34,17.34,0,0,0-4.63-4.48,17.18,17.18,0,0,0-22,2.71c-.65.69-2.42,3-2.5,3.61Z"/><path class="cls-2" d="M15.73,31.78a3.53,3.53,0,0,1,.68-.63,1,1,0,0,0,.43-.81,10.06,10.06,0,0,0-.43-2.13c-.05-.37-.07-.82-.09-1.2-.07-1.7.19-.89-.57-2a7.11,7.11,0,0,1-.49-.77c-2.07-3.57.39-7.39.5-8l-8-1.5c0,.45-.11,1-.13,1.5a17.07,17.07,0,0,0,4.69,12.66,17.58,17.58,0,0,0,2.53,2.2A7.92,7.92,0,0,1,15.73,31.78Z"/><path class="cls-2" d="M33.71,31.8c.07-.18,0-.09.22-.21l.25-.16a17.13,17.13,0,0,0,7.64-15.19c0-.48-.11-1-.12-1.46l-8,1.49a8.13,8.13,0,0,0,.41.92c1,2.37,1.41,4.87.08,7.14-.3.53-1,1.34-1,1.55,0,.82,0,1.59-.12,2.4a8.4,8.4,0,0,0-.41,2.1c.07.78.61.74,1.1,1.42Z"/><path class="cls-3" d="M34.61,33.92l.16,0,.07.1L24,34l-9.2,0c.3-.23,1.08-.44,1.09-1.23,0-.47-.09-.61.15-1s.41-.34.63-.55c1-.94,0-2.24,0-3.75a1.48,1.48,0,0,1-.05-.75,6.45,6.45,0,0,1,0-.76c.06,0,.43.37.5.43a7,7,0,0,0,3.19,1.63,6.31,6.31,0,0,0,1.74.17c.05-.25,0-.54.07-.71l.81-.06c.33.23.83.76,1.45.72a1.52,1.52,0,0,1,.32.06c.21,0,.15,0,.34,0a2,2,0,0,0,1.21-.42,2.55,2.55,0,0,1,.46-.32c.06,0,.61.06.76.06l0,.68A6.66,6.66,0,0,0,31,27.4c.39-.19.66-.45,1-.58l.92-.8-.06,1.34c.17,1.3-1.05,2.83-.14,3.82.49.53.95.41.89,1.46a1.33,1.33,0,0,0,1,1.28ZM22.12,25.31c.34.15.45-.06,1.21.42a2.84,2.84,0,0,1-.63.31c-.29.08-.66,0-.63.33s.38.2.67.3a2.92,2.92,0,0,1,.61.33,2,2,0,0,1-1.3.35l0-3.24a1.92,1.92,0,0,1,.76.08,2.51,2.51,0,0,1,.54.29c-.86.65-1.44.13-1.21.83Zm5.28,2c-.79,0-.76-.12-1.3-.35a2.19,2.19,0,0,1,1.19-.43c.25-.48-.06-.45-.43-.51a2.43,2.43,0,0,1-.75-.32c.57-.51,1.27-.18,1.26-.63s-.6-.1-1.26-.63a1.83,1.83,0,0,1,1.31-.37Zm-1.3-.12.23.09c-.06.21-.46.43-.66.51a2.34,2.34,0,0,1-1,.2,2.08,2.08,0,0,1-.95-.21c-.19-.09-.59-.32-.65-.48l.25-.12.37-.21-.3-.2-.32-.18c-.52-.28-.58-.07-.65-.35a6.92,6.92,0,0,0,1.26-.51c-.09-.13-.09-.11-.3-.22a4.17,4.17,0,0,0-.68-.31c-.17,0-.3,0-.37-.13.09-.12.1-.05.37-.12a1.54,1.54,0,0,0,.35-.15,4.86,4.86,0,0,0,.62-.36,2.35,2.35,0,0,0-.59-.34,6.82,6.82,0,0,0-.74-.24,2.23,2.23,0,0,1,0-.69,29.17,29.17,0,0,1,4.11-.1c.64,0,.63.15.56.81a2.89,2.89,0,0,0-1.33.56,4.33,4.33,0,0,0,1,.51c.17,0,.3,0,.37.12s-.19.09-.36.13a1.29,1.29,0,0,0-.36.14,2.3,2.3,0,0,0-.63.38,5.46,5.46,0,0,0,1.08.48l.06,0c.08,0,.06,0,.1.06s0,.07-.14.12l-.17,0a3.44,3.44,0,0,0-.64.31.81.81,0,0,0-.3.22l.37.21Zm1.62-3.15c0-.27.38-.6.65-.66.82-.19,1.46.06,1.93-.82a2.13,2.13,0,0,0,.31-1.12l0-.6a5.23,5.23,0,0,1,.49-.38A5.91,5.91,0,0,0,32.33,19a6.39,6.39,0,0,0,.7-2c0-.28,0-.56.09-.82.34,0,.3.08.6.63a14.75,14.75,0,0,1,.5,1.39l.27.83a7.88,7.88,0,0,1,.23,2.94,7.35,7.35,0,0,1-3.64,5.06,6.76,6.76,0,0,1-3.43.92c-.06-.5,0-2.7,0-3.46,0-.2,0-.36.11-.49Zm-8.86-2.41A1.62,1.62,0,0,0,20,23.26c.42.1,1.76,0,1.78.94a32.63,32.63,0,0,1,0,3.82,6.67,6.67,0,0,1-3.4-.89,7.44,7.44,0,0,1-3.67-5,7.18,7.18,0,0,1,0-2.07,7,7,0,0,1,.45-1.73,5.35,5.35,0,0,1,.55-1.49l.31-.6h.27a5.61,5.61,0,0,0,1.56,3.82l1,.81v.79ZM.26,11.79a2.48,2.48,0,0,1,1.29-.58c.52-.14,1.05-.3,1.56-.41.88-.14,1.89-.44,2.77-.63L11.54,9c.49-.1,2.49-.59,2.8-.56l1.06-.25c.34-.07.24-.1.52-.48l.19-.19A9.09,9.09,0,0,1,17.58,6a7.84,7.84,0,0,1,1.88-1.14c2.22-1,3.6-.15,5.24-.15.94,0,1.83-.28,2.71-.32A6.64,6.64,0,0,1,31.83,6,8.69,8.69,0,0,1,33.29,7.5c.18.08.25.24.35.39s.14.23.47.29a6.17,6.17,0,0,1,1.21.28c.37,0,7.23,1.49,8.18,1.7.8.18,1.85.49,2.64.6s2.68.59,2.94,1l.12.06c-.05.47-.14.41-.6.39a1,1,0,0,0-.74.25,21.44,21.44,0,0,1-7.55,2.38c-1.08.19-2.24.42-3.33.62-.56.11-3,.58-3.35.6a2.93,2.93,0,0,1-.87-.1c-.39-.06-.43.13-.6.36a7.32,7.32,0,0,1-1,1,4.24,4.24,0,0,1-2.57,1.38,11.21,11.21,0,0,1-3.7,0l0,.23a11,11,0,0,0,2.59.14,7.1,7.1,0,0,0,2.26-.47,5,5,0,0,0,1.61-1.14,9.42,9.42,0,0,0,.68-.72c.4-.44.38-.67.62-.6s.06,0,.14.09a4.15,4.15,0,0,1-.22,1.52,6.09,6.09,0,0,1-1,1.82,5.2,5.2,0,0,1-1.52,1.27,5,5,0,0,1-2.12.66,5.44,5.44,0,0,1-1.34,0c-.35-.06-.84-.28-1.14-.29-.09.09-.06,0-.07.18a6.16,6.16,0,0,0,2.59.39,5.05,5.05,0,0,0,1.77-.48,1.23,1.23,0,0,1,.51-.21c.09.78-.1,1.79-.93,2-.65.17-1.23,0-1.71.54-.17.2-.1.34-.39.35-.2-1.19.42-1-2.58-1s-2.43-.12-2.64,1c-.39,0-.14-.35-.79-.65a8,8,0,0,0-1.27-.22c-.83-.19-1.07-1.15-1-2a7.46,7.46,0,0,1,.87.38,5.37,5.37,0,0,0,2.83.25c.28,0,.42,0,.45-.25v-.07a10.65,10.65,0,0,1-1.08.17,5.26,5.26,0,0,1-4.39-2,4.85,4.85,0,0,1-.88-1.67l-.05-.06a5,5,0,0,1-.25-1.61c.29-.24.29,0,.7.48a7.41,7.41,0,0,0,2.24,1.87,8.18,8.18,0,0,0,3.53.52c.31,0,1.1-.12,1.24-.09l0-.23a13.91,13.91,0,0,1-3.61-.07,4.39,4.39,0,0,1-2.51-1.36,8.16,8.16,0,0,1-.94-1c-.15-.19-.19-.43-.54-.4a5.39,5.39,0,0,1-.91.11c-.4,0-2.72-.47-3.32-.58-2.74-.5-6.94-1.11-9.4-2.23-.47-.22-.87-.4-1.3-.64a4.18,4.18,0,0,0-.59-.35c-.26-.11-.6,0-.91-.08a.35.35,0,0,1,0-.36ZM9.59,9.13c-.63.21-1.68.36-2.36.51A55.86,55.86,0,0,0,.37,11.38c-.26.16-.56.59-.22.91s.66-.06,1.18.27a12.19,12.19,0,0,0,1.91,1,21.1,21.1,0,0,0,2.16.74c.76.21,1.51.33,2.31.51l8.05,1.5c-.11.61-2.57,4.43-.5,8a7.11,7.11,0,0,0,.49.77c.76,1.07.5.26.57,2,0,.38,0,.83.09,1.2a10.06,10.06,0,0,1,.43,2.13,1,1,0,0,1-.43.81,3.53,3.53,0,0,0-.68.63,1.78,1.78,0,0,0-.14.54c0,.33.23.81-.54,1.26l-.87.44c-.14,0-4.42,0-5.08,0s-1-.1-1,.19c.2.08,33,.09,33.21,0,0-.26-.17-.19-.42-.19H36.47a4,4,0,0,1-1.26,0L35,33.86l-.22-.09c-1.54-.69-.63-1-1.09-2-.49-.68-1-.64-1.1-1.42a8.4,8.4,0,0,1,.41-2.1c.1-.81.07-1.58.12-2.4,0-.21.72-1,1-1.55,1.33-2.27.92-4.77-.08-7.14a8.13,8.13,0,0,1-.41-.92l8-1.49c.79-.2,1.57-.31,2.35-.52a16.44,16.44,0,0,0,4-1.7c.51-.33.86,0,1.18-.27s.07-.71-.19-.89c-.69-.47-7.85-2-9.18-2.24-1.72-.4-3.48-.71-5.22-1.09-.84-.19-.65,0-1-.54A9.85,9.85,0,0,0,32.11,5.9c-.16-.13-.27-.23-.45-.36s-.18-.15-.19-.57c-.16.1-.1.15-.23.27-.3-.15-.76-.42-1.11-.61l0-.56,0,0-.15.51c-.26,0-.52-.16-.79-.23s-.54-.1-.82-.17c0,0,0-.18-.06-.21l-.09-.12a1.58,1.58,0,0,1-.09.31,12.22,12.22,0,0,0-1.35.08,7.5,7.5,0,0,1-1.25.16,4.78,4.78,0,0,0-.24-.91,3.38,3.38,0,0,0,0,1,5.56,5.56,0,0,1-1.63-.06c-.1-.21,0-.46-.1-.62a1.65,1.65,0,0,0-.15.57,8,8,0,0,1-1-.14,9.69,9.69,0,0,0-1.08,0l-.07-.19s0-.08,0-.13,0-.1-.11.14c-.16.41.09.1-.9.38-.26.07-.49.17-.74.23L19.29,4c-.12.09-.05.48-.08.69a8.38,8.38,0,0,1-1.06.56c0-.13,0-.18-.16-.24v.42a9.11,9.11,0,0,0-2.33,2.27c-.18.25-.09.24-.45.31-1.32.25-4.7,1-5.63,1.16Z"/><path class="cls-4" d="M16.59,27.53c0,1.51,1.07,2.81,0,3.75-.22.21-.47.31-.63.55s-.14.48-.15,1c0,.79-.79,1-1.09,1.23L24,34c.1-.28.26-2.38.29-2.83.06-.92.23-2,.24-2.91l-.18-.09c-.62,0-1.12-.49-1.45-.72l-.81.06,0,1.68A7.8,7.8,0,0,1,20.24,29a8.61,8.61,0,0,1-1.41-.46A10.68,10.68,0,0,1,16.58,27v.54Z"/><path class="cls-4" d="M25,28.22a10.22,10.22,0,0,0,.11,1.45c0,.52.08.94.12,1.48.06,1,.17,1.91.25,2.85l3.7,0,0-2.84a9.41,9.41,0,0,0,.32,1.38A14,14,0,0,1,29.85,34l3.85,0c-.05-.19,0-.1-.15-.2-.37-.23-.87-.39-.86-1.07a1.35,1.35,0,0,0-.17-1c-.3-.42-1.42-.64-1-2.16l.25-.88a7.3,7.3,0,0,0,.14-1,12.5,12.5,0,0,1-2,1,7.13,7.13,0,0,1-2.54.42v-1l0-.68c-.15,0-.7-.07-.76-.06a2.55,2.55,0,0,0-.46.32,2,2,0,0,1-1.21.42Z"/><path class="cls-4" d="M15.21,18.35c0,.26-.08.58-.09.86a6.45,6.45,0,0,0,1.71,4.85,8,8,0,0,0,3.4,2.27,7.85,7.85,0,0,0,.77.19l.77.11V24.2c0-.94-1.36-.84-1.78-.94a1.62,1.62,0,0,1-1.12-1.59c-.11-.19.05-.14-.19-.3s-.2-.11-.31-.19a6,6,0,0,1-2.16-2.81c-.08-.23-.17-.47-.24-.75-.09-.43-.07-.74-.2-.76a5.35,5.35,0,0,0-.55,1.49Z"/><path class="cls-4" d="M30.61,21.48a2.13,2.13,0,0,1-.31,1.12c-.47.88-1.11.63-1.93.82-.27.06-.67.39-.65.66a14.35,14.35,0,0,0-.06,2.55A7.72,7.72,0,0,0,34,21.71a7.19,7.19,0,0,0,.2-3.43,14.75,14.75,0,0,0-.5-1.39c-.16.11,0-.12-.14.21l0,.19a6.75,6.75,0,0,1-1,2.36A5.62,5.62,0,0,1,30.61,21.48Z"/><path class="cls-5" d="M35.89,10.47c0,.11,0,.09.1.19-.23,0-.14.15-.14.84,0,.28,0,2.65,0,2.78s-.08.05-.11.15,0,0,.05.17a17.77,17.77,0,0,0,4.1-.44c0-.06,1.34-.28,1.54-.32l.53-.12c-.1-.08.14-.06-.18-.07V11.09c-.2,0-.08,0-.23-.1h.29a27.71,27.71,0,0,0-2.9-.4,13,13,0,0,0-3-.12Z"/><path class="cls-6" d="M24.37,17.77a1.65,1.65,0,0,1,.51,1.42c.05-.07,0,.08.06-.12a.68.68,0,0,0,0-.15l0-.23a11.21,11.21,0,0,0,3.7,0,4.24,4.24,0,0,0,2.57-1.38,7.32,7.32,0,0,0,1-1c.17-.23.21-.42.6-.36a2.93,2.93,0,0,0,.87.1c.38,0,2.79-.49,3.35-.6,1.09-.2,2.25-.43,3.33-.62a21.44,21.44,0,0,0,7.55-2.38,1,1,0,0,1,.74-.25c.46,0,.55.08.6-.39l-.12-.06.05.14a2.68,2.68,0,0,0-1.91.6,16.42,16.42,0,0,1-1.69.79,21.54,21.54,0,0,1-4,1,38.81,38.81,0,0,1-6.46,1c-1.09,0-1.79-.2-2.28-.21a3.89,3.89,0,0,1-2.22,1.6,4.64,4.64,0,0,1-3.26-.15,3.48,3.48,0,0,1-.51.58,4.48,4.48,0,0,1-2.48.7Z"/><path class="cls-6" d="M24.33,18.75A2.37,2.37,0,0,0,24,17.7c-.23-.12-1.59-.35-1.88-1.22a7.44,7.44,0,0,1-1.59.37A4.66,4.66,0,0,1,17,15.57c-.15-.16-.27-.35-.44-.53-.53,0-1.21.22-2.25.22A14.34,14.34,0,0,1,12,15.05c-1.41-.22-2.82-.51-4.21-.79a16.12,16.12,0,0,1-5.63-1.81,3.51,3.51,0,0,0-1.31-.59c-.53,0-.46.11-.59-.07a.35.35,0,0,0,0,.36c.31.09.65,0,.91.08a4.18,4.18,0,0,1,.59.35c.43.24.83.42,1.3.64,2.46,1.12,6.66,1.73,9.4,2.23.6.11,2.92.57,3.32.58a5.39,5.39,0,0,0,.91-.11c.35,0,.39.21.54.4a8.16,8.16,0,0,0,.94,1,4.39,4.39,0,0,0,2.51,1.36,13.91,13.91,0,0,0,3.61.07Z"/><path class="cls-4" d="M25.49,21.33h0c0,.3-.08,1-.13,1.29a.59.59,0,0,1-.23-.26.84.84,0,0,1-.12-.29,1.6,1.6,0,0,1-.06-.79l-1,.07v-.19a3.71,3.71,0,0,0-.08,1.08l-.06.34c-.1-.07-.05,0-.13-.12l-.09-.14a4.52,4.52,0,0,1-.31-.91c0,.26-.17.21-.45.25A5.37,5.37,0,0,1,20,21.4a7.46,7.46,0,0,0-.87-.38c-.1.88.14,1.84,1,2a7.8,7.8,0,0,1,1.27.22c.65.3.4.68.79.65.21-1.15-.47-1,2.64-1s2.38-.15,2.58,1c.29,0,.22-.15.39-.35.48-.56,1.06-.37,1.71-.54.83-.22,1-1.23.93-2a1.23,1.23,0,0,0-.51.21,5.05,5.05,0,0,1-1.77.48,6.16,6.16,0,0,1-2.59-.39Z"/><path class="cls-5" d="M6,11.21c.31,0,.41-.13.5.12a.65.65,0,0,0-.22.05c0,.44,0,.18-.11.31s0,.07,0,.1l.13.07v1.47c0,.06,0,0,0,.17l-1.44-.31c.26.06.44.16.72.21.74.15,1.34.32,2.15.43l2.18.39c.63.1,1.19.21,1.82.29-.08-.11-.22-.15-.47-.14,0-.35,0-2.44,0-2.76-.09-.65,0-.55.12-.81-.28,0-.28,0-.45,0l.67-.2-.16-.05c-.33-.06-3.95.43-4.79.55l-.32,0c-.16,0-.2,0-.29.09Z"/><path class="cls-4" d="M11.4,10.53l.16.05-.67.2c.17.07.17,0,.45,0-.08.26-.21.16-.12.81,0,.32,0,2.41,0,2.76.25,0,.39,0,.47.14a4.59,4.59,0,0,0,3-.26A1.32,1.32,0,0,0,15.24,13a5.88,5.88,0,0,0-.12-1.66c0,.17.05.06-.08.15-.32-1-1.64-1.16-2.55-1.12l-.55,0-.31,0-.23.07Z"/><path class="cls-7" d="M21.76,24.2v2.43L21,26.52a7.85,7.85,0,0,1-.77-.19,8,8,0,0,1-3.4-2.27,6.45,6.45,0,0,1-1.71-4.85c0-.28.09-.6.09-.86a7,7,0,0,0-.45,1.73,7.18,7.18,0,0,0,0,2.07,7.44,7.44,0,0,0,3.67,5,6.67,6.67,0,0,0,3.4.89,32.63,32.63,0,0,0,0-3.82Z"/><path class="cls-7" d="M27.72,24.08c-.12.13-.1.29-.11.49,0,.76,0,3,0,3.46a6.76,6.76,0,0,0,3.43-.92,7.35,7.35,0,0,0,3.64-5.06,7.88,7.88,0,0,0-.23-2.94l-.27-.83a7.19,7.19,0,0,1-.2,3.43,7.72,7.72,0,0,1-6.36,4.92,14.35,14.35,0,0,1,.06-2.55Z"/><path class="cls-8" d="M16.11,7.49c-.07.2,0,0,0,.1a7.92,7.92,0,0,1,2.54-1.7,8.43,8.43,0,0,1,3.67-.61,10.65,10.65,0,0,1,2.35.5,3.56,3.56,0,0,0,.52-.15,8.27,8.27,0,0,1,4.41-.11,8.67,8.67,0,0,1,2,.84,6.78,6.78,0,0,1,1.61,1.23c.09-.09,0,0,0-.09A8.69,8.69,0,0,0,31.83,6a6.64,6.64,0,0,0-4.42-1.61c-.88,0-1.77.32-2.71.32-1.64,0-3-.82-5.24.15A7.84,7.84,0,0,0,17.58,6a9.09,9.09,0,0,0-1.47,1.53Z"/><path class="cls-9" d="M24.71,26.59A8.81,8.81,0,0,1,23.6,25.4c-.2-.57.44-1.23,1.11-.57.2-.14.41-.41.84-.21a.64.64,0,0,1,.29.81,7.72,7.72,0,0,1-1.13,1.16Zm-1.36.63c-.07.12,0,.08-.07.11a2.47,2.47,0,0,0,2.87,0s0,0,0-.08L25.73,27a.81.81,0,0,1,.3-.22,3.44,3.44,0,0,1,.64-.31l.17,0c.12-.05.08,0,.14-.12s0,0-.1-.06l-.06,0a5.46,5.46,0,0,1-1.08-.48,2.3,2.3,0,0,1,.63-.38,1.29,1.29,0,0,1,.36-.14c.17,0,.29,0,.36-.13s-.2-.08-.37-.12a4.33,4.33,0,0,1-1-.51,2.89,2.89,0,0,1,1.33-.56c.07-.66.08-.81-.56-.81a29.17,29.17,0,0,0-4.11.1,2.23,2.23,0,0,0,0,.69,6.82,6.82,0,0,1,.74.24,2.35,2.35,0,0,1,.59.34,4.86,4.86,0,0,1-.62.36,1.54,1.54,0,0,1-.35.15c-.27.07-.28,0-.37.12.07.13.2.09.37.13a4.17,4.17,0,0,1,.68.31c.21.11.21.09.3.22a6.92,6.92,0,0,1-1.26.51c.07.28.13.07.65.35l.32.18.3.2-.37.21Z"/><path class="cls-10" d="M39.87,14.16l.49-.08,3.5-.66c.27,0,.22-.09.4-.16s.31-.06.48-.13a6.15,6.15,0,0,0,.76-.4c.23-.14,1.24-.9,1.19-1.11l-3.07-.41a14.4,14.4,0,0,0-1.8-.22h-.29c.15.11,0,.08.23.1v2.56c.32,0,.08,0,.18.07l-.53.12c-.2,0-1.5.26-1.54.32Z"/><path class="cls-11" d="M28.6,11.1a.37.37,0,1,1,.72-.14A.37.37,0,0,1,28.6,11.1Zm-1.77,1.34A3.66,3.66,0,0,0,31.05,12a2.26,2.26,0,0,0,.37-.54c.14-.3,0-.44-.22-.63A3.78,3.78,0,0,0,30,10.19c-1-.3-1.87.49-2.45,1.15-.38.43-.75.66-.74,1.1Z"/><path class="cls-11" d="M20.78,11.19a.37.37,0,1,1-.66-.34A.37.37,0,0,1,20.78,11.19Zm1.79,1.25c0-.39-.35-.71-.7-1.08a6.22,6.22,0,0,0-1-.89,2.21,2.21,0,0,0-2.7.35c-.8.67.56,1.65,1.23,1.88a4.34,4.34,0,0,0,3.13-.26Z"/><path class="cls-7" d="M26.05,19.76a1.05,1.05,0,0,1-.25,1c0,.14-.05.06.42.2a5.33,5.33,0,0,0,6-2.38l.34-.65c.08-.2,0-.17.13-.21a4.39,4.39,0,0,0,.23-1.52l-.23-.07s0,0,0,0l0,.13a3.43,3.43,0,0,1-.21.92,4.56,4.56,0,0,1-1.81,2.1,7.84,7.84,0,0,1-4.51.42Z"/><path class="cls-7" d="M16.87,17.87c0-.07.26.48.39.71A5.41,5.41,0,0,0,21,21.1,4.77,4.77,0,0,0,23.21,21a2.12,2.12,0,0,1,.14-.69c.09-.22.23-.38.31-.57-2.06.49-4.87.24-6.09-1.58a3.41,3.41,0,0,1-.71-2l-.29.05a5,5,0,0,0,.25,1.61Z"/><path class="cls-12" d="M25,18.92a.68.68,0,0,1,0,.15c0,.2,0,.05-.06.12l-.06.31c.06.07.7.22.76.13a1.35,1.35,0,0,0-.22-.58,1,1,0,0,1,.39.28c.11.11.2.35.3.43a7.84,7.84,0,0,0,4.51-.42,4.56,4.56,0,0,0,1.81-2.1,3.43,3.43,0,0,0,.21-.92l0-.13s0,0,0,0l.23.07c-.09-.09.09,0-.15-.09s-.22.16-.62.6a9.42,9.42,0,0,1-.68.72,5,5,0,0,1-1.61,1.14,7.1,7.1,0,0,1-2.26.47A11,11,0,0,1,25,18.92Z"/><path class="cls-12" d="M16.57,16.2l.29-.05a3.41,3.41,0,0,0,.71,2c1.22,1.82,4,2.07,6.09,1.58a2.14,2.14,0,0,0,.62-.74c-.14,0-.93.08-1.24.09a8.18,8.18,0,0,1-3.53-.52,7.41,7.41,0,0,1-2.24-1.87c-.41-.47-.41-.72-.7-.48Z"/><path class="cls-10" d="M31.91,27.75h0a7.3,7.3,0,0,1-.14,1l-.25.88c-.44,1.52.68,1.74,1,2.16a1.35,1.35,0,0,1,.17,1c0,.68.49.84.86,1.07.15.1.1,0,.15.2a2.46,2.46,0,0,1,.47,0h.23c.35,0,.14,0,.21-.09a1.33,1.33,0,0,1-1-1.28c.06-1.05-.4-.93-.89-1.46-.91-1,.31-2.52.14-3.82V27a4.79,4.79,0,0,1-.93.79Z"/><path class="cls-4" d="M34.22,11.75c-.12,1.68-.24,2.64,1.55,2.85,0-.16,0,0-.05-.17s.06,0,.11-.15,0-2.5,0-2.78c0-.69-.09-.82.14-.84-.1-.1-.13-.08-.1-.19a1.92,1.92,0,0,0-1.08.45,1.26,1.26,0,0,0-.45.64c-.07.15,0,.16-.14.19Z"/><path class="cls-10" d="M2.71,11.62c0,.2,0,.1.19.27a6.36,6.36,0,0,0,1.94,1.3l1.44.31c0-.17,0-.11,0-.17V11.86l-.13-.07s-.1.06,0-.1.11.13.11-.31a.65.65,0,0,1,.22-.05c-.09-.25-.19-.13-.5-.12a33.15,33.15,0,0,0-3.29.41Z"/><path class="cls-12" d="M24,34l10.88,0-.07-.1c-.05.14.18.12-.55.1-.22,0-.37,0-.59,0-1,0-2.6.06-3.52,0a9.1,9.1,0,0,0-1.17,0c-.43,0-3.32,0-3.49,0-.08-.94-.19-1.89-.25-2.85,0-.54-.09-1-.12-1.48A10.22,10.22,0,0,1,25,28.22c-.19,0-.13.07-.34,0a1.52,1.52,0,0,0-.32-.06l.18.09c0,.94-.18,2-.24,2.91,0,.45-.19,2.55-.29,2.83Z"/><path class="cls-12" d="M16.59,27.53V27a10.68,10.68,0,0,0,2.25,1.56,8.61,8.61,0,0,0,1.41.46,7.8,7.8,0,0,0,1.77.21l0-1.68c-.1.17,0,.46-.07.71a6.31,6.31,0,0,1-1.74-.17,7,7,0,0,1-3.19-1.63c-.07-.06-.44-.39-.5-.43a6.45,6.45,0,0,0,0,.76A1.48,1.48,0,0,0,16.59,27.53Z"/><path class="cls-8" d="M46.14,10.76c-.79-.11-1.84-.42-2.64-.6-1-.21-7.81-1.72-8.18-1.7a.45.45,0,0,0-.27,0,4.17,4.17,0,0,1,.6.24l.62.23a43.43,43.43,0,0,0,8.34,1.71l1.33.17c.23,0,.08.06.2-.08Z"/><path class="cls-8" d="M3.11,10.8c.15.14.55,0,.72,0l2.31-.31A45.6,45.6,0,0,0,12,9.35a17.89,17.89,0,0,0,2.55-.94h-.16c-.31,0-2.31.46-2.8.56l-5.66,1.2C5,10.36,4,10.66,3.11,10.8Z"/><path class="cls-12" d="M27.42,28.22v1A7.13,7.13,0,0,0,30,28.79a12.5,12.5,0,0,0,2-1h0l.07-.93c-.31.13-.58.39-1,.58a6.66,6.66,0,0,1-3.59.82Z"/><path class="cls-7" d="M15.76,16.86c.13,0,.11.33.2.76.07.28.16.52.24.75a6,6,0,0,0,2.16,2.81c.11.08.2.11.31.19s.08.11.19.3v-.79l-1-.81a5.61,5.61,0,0,1-1.56-3.82h-.27l-.31.6Z"/><path class="cls-7" d="M30.61,21.48a5.62,5.62,0,0,0,2-1.83,6.75,6.75,0,0,0,1-2.36l0-.19c.1-.33,0-.1.14-.21-.3-.55-.26-.67-.6-.63,0,.26,0,.54-.09.82a6.39,6.39,0,0,1-.7,2,5.91,5.91,0,0,1-1.25,1.47,5.23,5.23,0,0,0-.49.38l0,.6Z"/><path class="cls-13" d="M24.71,26.59a7.72,7.72,0,0,0,1.13-1.16.64.64,0,0,0-.29-.81c-.43-.2-.64.07-.84.21-.67-.66-1.31,0-1.11.57a8.81,8.81,0,0,0,1.11,1.19Z"/><path class="cls-9" d="M24,17.7a2.37,2.37,0,0,1,.35,1.05l0,.23a2.14,2.14,0,0,1-.62.74c-.08.19-.22.35-.31.57a2.12,2.12,0,0,0-.14.69v.42a4.52,4.52,0,0,0,.31.91l.09.14c.08.1,0,.05.13.12l.06-.34a3.71,3.71,0,0,1,.08-1.08,1.17,1.17,0,0,1,.05-.27l0-.1a.31.31,0,0,1,.05-.09,1.64,1.64,0,0,1,.36-.62c.08-.09.36-.51.43-.57l.06-.31a1.65,1.65,0,0,0-.51-1.42l-.1-.06,0,0-.12-.11a.8.8,0,0,0-.24-.13,1.45,1.45,0,0,0,.09.25Z"/><path class="cls-3" d="M34.22,11.75c.11,0,.07,0,.14-.19a1.26,1.26,0,0,1,.45-.64,1.92,1.92,0,0,1,1.08-.45,13,13,0,0,1,3,.12,27.71,27.71,0,0,1,2.9.4,14.4,14.4,0,0,1,1.8.22l3.07.41.05,0c-.84-.11-2.3-.44-3.31-.6s-2.21-.36-3.35-.52a24.93,24.93,0,0,0-3.56-.33c-1.23,0-2.15.53-2.3,1.62Z"/><path class="cls-3" d="M2.71,11.62A33.15,33.15,0,0,1,6,11.21c.09-.08.13-.07.29-.09l.32,0c.84-.12,4.46-.61,4.79-.55l.23-.07.31,0,.55,0c.91,0,2.23.13,2.55,1.12.13-.09,0,0,.08-.15a2.33,2.33,0,0,0-2.5-1.25,32,32,0,0,0-3.44.35L5.9,11c-1.07.17-2.21.46-3.22.59l0,0Z"/><path class="cls-6" d="M17.64,10.28l-.17.23a.81.81,0,0,0,0,.4c.11,0,0,0,.13-.11a3.14,3.14,0,0,1,5.62,1l.1.24a3.1,3.1,0,0,0-4.95-2.39,6.21,6.21,0,0,0-.59.54l-.09.07Z"/><path class="cls-6" d="M31.94,10.52l-.2-.29-.17-.14a3.25,3.25,0,0,0-1.31-.84,3.09,3.09,0,0,0-4.12,2.85c.11-.18.2-.65.33-.91A3.06,3.06,0,0,1,30.64,9.8a3.86,3.86,0,0,1,.73.49c.11.1.23.2.33.31s.15.24.28.3a.66.66,0,0,0,0-.38Z"/><path class="cls-5" d="M25.8,20.78l-.14.14-.1.17v.06c.3,0,.79.23,1.14.29a5.44,5.44,0,0,0,1.34,0,5,5,0,0,0,2.12-.66,5.2,5.2,0,0,0,1.52-1.27,6.09,6.09,0,0,0,1-1.82c-.14,0,0,0-.13.21l-.34.65a5.33,5.33,0,0,1-6,2.38C25.75,20.84,25.84,20.92,25.8,20.78Z"/><path class="cls-5" d="M23.22,21.33V21A4.77,4.77,0,0,1,21,21.1a5.41,5.41,0,0,1-3.69-2.52c-.13-.23-.36-.78-.39-.71a4.85,4.85,0,0,0,.88,1.67,5.26,5.26,0,0,0,4.39,2,10.65,10.65,0,0,0,1.08-.17Z"/><path class="cls-1" d="M26.91,26.81c.1.2.11.16,0,.36a.88.88,0,0,1-.63-.21s-.08.06.11,0S26.67,26.76,26.91,26.81Zm-.65-1.09c.13,0,.28-.13.46-.16s.29.07.25.3c-.27.14-.42,0-.71-.14Zm0-1.24c.25-.16,1-.37.61.18A1.1,1.1,0,0,1,26.3,24.48Zm1.12-.37a1.83,1.83,0,0,0-1.31.37c.66.53,1.25.22,1.26.63s-.69.12-1.26.63a2.43,2.43,0,0,0,.75.32c.37.06.68,0,.43.51A2.19,2.19,0,0,0,26.1,27c.54.23.51.38,1.3.35Z"/><path class="cls-1" d="M23.18,27c-.18,0-.79.39-.73,0,0-.2.21-.2.36-.14l.28.13Zm-.68-1.4s0-.07.16-.06l.51.19-.48.19c-.25.05-.3-.15-.19-.32Zm.65-1.13c-.16.1-.71.39-.7,0S23,24.39,23.15,24.48Zm-1,.83c-.23-.7.35-.18,1.21-.83a2.51,2.51,0,0,0-.54-.29,1.92,1.92,0,0,0-.76-.08l0,3.24a2,2,0,0,0,1.3-.35,2.92,2.92,0,0,0-.61-.33c-.29-.1-.64,0-.67-.3s.34-.25.63-.33a2.84,2.84,0,0,0,.63-.31c-.76-.48-.87-.27-1.21-.42Z"/><path class="cls-3" d="M21.8,15.49a5.81,5.81,0,0,1,1.35-.06c2.5.37,2.55-.12,4.29,0-.33-.44-2.24-.22-2.87-.22C23.37,15.22,22.79,15,21.8,15.49Z"/><path class="cls-3" d="M16.51,14.58c-.06-.4-.2-.83-.29-1.26S16.05,12.44,16,12a29.56,29.56,0,0,1-.14-3,3.81,3.81,0,0,0-.26,1.46,8.09,8.09,0,0,0,.74,3.88l.11.2a.3.3,0,0,0,.08.08Z"/><path class="cls-3" d="M32.9,14.58l.1-.11s.06-.11.07-.14.09-.18.13-.28a8.24,8.24,0,0,0,.56-4.39,1.58,1.58,0,0,0-.19-.7,18.83,18.83,0,0,1-.37,4.32C33.11,13.7,33,14.18,32.9,14.58Z"/><path class="cls-7" d="M24,20.69c.11.08,0,0,.19,0l.3,0c.21,0,.42,0,.63,0a1,1,0,0,0,.49-.92c0-.13,0-.07-.06-.13-.06.09-.7-.06-.76-.13s-.35.48-.43.57a1.64,1.64,0,0,0-.36.62Z"/><path class="cls-3" d="M22.57,12.44a4.34,4.34,0,0,1-3.13.26c-.67-.23-2-1.21-1.23-1.88a2.21,2.21,0,0,1,2.7-.35,6.22,6.22,0,0,1,1,.89c.35.37.73.69.7,1.08Zm-3.19-2.35a3.29,3.29,0,0,0-1.27.68c-.49.44-.24.84.11,1.23,1.6,1.75,4.25.74,4.4.53.29-.38-.47-1-.64-1.19C21.52,10.83,20.66,9.77,19.38,10.09Z"/><path class="cls-3" d="M26.83,12.44c0-.44.36-.67.74-1.1.58-.66,1.41-1.45,2.45-1.15a3.78,3.78,0,0,1,1.18.63c.19.19.36.33.22.63a2.26,2.26,0,0,1-.37.54,3.66,3.66,0,0,1-4.22.45Zm2.37-2.36A4.35,4.35,0,0,0,27,11.79c-.53.62-.4.78.37,1,1.59.48,3.37.2,4.14-1.32.23-.47-.42-.88-.74-1.05A2.11,2.11,0,0,0,29.2,10.08Z"/><path class="cls-7" d="M25.45,34c.17.06,3.06.08,3.49,0a9.1,9.1,0,0,1,1.17,0c.92,0,2.49,0,3.52,0,.22,0,.37,0,.59,0,.73,0,.5,0,.55-.1l-.16,0c-.07.13.14.06-.21.09h-.23a2.46,2.46,0,0,0-.47,0l-3.85,0a14,14,0,0,0-.36-1.45,9.41,9.41,0,0,1-.32-1.38l0,2.84Z"/><path class="cls-8" d="M17.47,10.51l.17-.23c.18-.73.74-1,1.32-1.41a4.84,4.84,0,0,1,1.16-.5c.4-.09.85-.09.9-.11s0,0-.15-.09a2.72,2.72,0,0,0-1.21.09c-.69.24-2.39,1.17-2.28,2.07,0,.25,0,.1.09.18Z"/><path class="cls-8" d="M31.74,10.23l.2.29s.12.05.08-.32c-.09-.69-.64-1-1.19-1.39a3.2,3.2,0,0,0-2.29-.64c.05.06,0,.11.31.13a1.32,1.32,0,0,1,.28,0,.64.64,0,0,1,.23.06l.24.09a3.83,3.83,0,0,1,.89.41l.72.54a1.14,1.14,0,0,1,.53.81Z"/><path class="cls-3" d="M25.68,13.34c-.27,0-.22-.23-.6-.12s0,.31-.48.32c-.09-.17-.08-.3-.35-.33s-.25.14-.54.14c-.18-.27-.07-.2-.17-.48,0,0,0,0,0,0-.27,1.1.54.66.69.66s.31.6.78.24c.1-.07.11-.13.21-.24.26,0,.44.25.67,0a.49.49,0,0,0,0-.68c-.1.24.11.22-.15.54Z"/><path class="cls-4" d="M32,26.82l-.07.93a4.79,4.79,0,0,0,.93-.79v.4L32.9,26l-.92.8Z"/><path class="cls-10" d="M25.58,19.63c.07.06,0,0,.06.13a1,1,0,0,1-.49.92v.07c.24,0,.49,0,.52.17l.14-.14a1.05,1.05,0,0,0,.25-1c-.1-.08-.19-.32-.3-.43a1,1,0,0,0-.39-.28,1.35,1.35,0,0,1,.22.58Z"/><path class="cls-8" d="M26.1,27.23c0,.11,0,.1,0,.08a2.47,2.47,0,0,1-2.87,0c.11,0,0,0,.07-.11l-.25.12c.06.16.46.39.65.48a2.08,2.08,0,0,0,.95.21,2.34,2.34,0,0,0,1-.2c.2-.08.6-.3.66-.51l-.23-.09Z"/><path class="cls-10" d="M25.44,21.32l-.53-.05h0a1.6,1.6,0,0,0,.06.79.84.84,0,0,0,.12.29.59.59,0,0,0,.23.26c.05-.3.11-1,.13-1.29Z"/><path class="cls-9" d="M20.78,11.19a.37.37,0,0,0-.66-.34A.37.37,0,1,0,20.78,11.19Z"/><path class="cls-9" d="M28.6,11.1a.37.37,0,0,0,.72-.14A.37.37,0,1,0,28.6,11.1Z"/><path class="cls-5" d="M23.9,21.15A2.56,2.56,0,0,1,25,21l0,.15L25,21l.12-.21v-.07c-.21,0-.42,0-.63,0l-.3,0c-.21,0-.08.05-.19,0a.31.31,0,0,0-.05.09l0,.1a1.17,1.17,0,0,0-.05.27Z"/><path class="cls-6" d="M22.71,11.49c.05-.44-1.15-1.37-1.58-1.48a7.43,7.43,0,0,1,.85.7C22.52,11.32,22.39,11.56,22.71,11.49Z"/><path class="cls-6" d="M26.73,11.5c.33,0,.28-.52,1.05-1.12l.2-.15.17-.12,0,0,0,0C27.73,10.16,26.56,11.19,26.73,11.5Z"/><path class="cls-3" d="M23.9,21.15v.19l1-.07h0l0-.08L25,21a2.56,2.56,0,0,0-1.05.11Z"/><path class="cls-8" d="M23.15,24.48c-.17-.09-.7-.38-.7,0S23,24.58,23.15,24.48Z"/><path class="cls-8" d="M23.18,27,23.09,27l-.28-.13c-.15-.06-.34-.06-.36.14C22.39,27.4,23,27.05,23.18,27Z"/><path class="cls-8" d="M26.26,25.72c.29.13.44.28.71.14,0-.23,0-.36-.25-.3s-.33.14-.46.16Z"/><path class="cls-8" d="M25,21c0,.13-.06.05.09.09l.45,0,.1-.17c0-.2-.28-.17-.52-.17L25,21Z"/><path class="cls-8" d="M22.5,25.61c-.11.17-.06.37.19.32l.48-.19-.51-.19c-.17,0-.16.06-.16.06Z"/><path class="cls-8" d="M26.3,24.48a1.1,1.1,0,0,0,.61.18C27.27,24.11,26.55,24.32,26.3,24.48Z"/><path class="cls-8" d="M26.91,26.81c-.24,0-.32.06-.52.14s-.06,0-.11,0a.88.88,0,0,0,.63.21C27,27,27,27,26.91,26.81Z"/><path class="cls-1" d="M24.93,21.19l0,.08.53.05h0c0-.15,0-.09.07-.18v-.06l-.45,0c-.15,0-.05,0-.09-.09l-.09.23Z"/></g></g></g></svg>