<svg xmlns="http://www.w3.org/2000/svg" viewBox="0 0 17.02 29.63"><defs><style>.cls-1{fill:#fec99e;}.cls-1,.cls-10,.cls-11,.cls-12,.cls-13,.cls-14,.cls-15,.cls-16,.cls-17,.cls-18,.cls-19,.cls-2,.cls-20,.cls-21,.cls-22,.cls-23,.cls-24,.cls-25,.cls-26,.cls-27,.cls-28,.cls-29,.cls-3,.cls-30,.cls-31,.cls-4,.cls-5,.cls-6,.cls-7,.cls-8,.cls-9{fill-rule:evenodd;}.cls-2{fill:#fea46b;}.cls-3{fill:#feac84;}.cls-4{fill:#fe9738;}.cls-5{fill:#e88e0e;}.cls-6{fill:#e58d69;}.cls-7{fill:#b15327;}.cls-8{fill:#fe8787;}.cls-9{fill:#c77c57;}.cls-10{fill:#ea4143;}.cls-11{fill:#fe6795;}.cls-12{fill:#d77819;}.cls-13{fill:#fd7779;}.cls-14{fill:#fe8725;}.cls-15{fill:#fc8808;}.cls-16{fill:#fef5a9;}.cls-17{fill:#f03197;}.cls-18{fill:#757271;}.cls-19{fill:#8b564e;}.cls-20{fill:#fc7351;}.cls-21{fill:#fea8b7;}.cls-22{fill:#fe87a7;}.cls-23{fill:#fcf2d6;}.cls-24{fill:#fd5757;}.cls-25{fill:#271604;}.cls-26{fill:#fbb804;}.cls-27{fill:#f0198a;}.cls-28{fill:#6d3828;}.cls-29{fill:#eac0a4;}.cls-30{fill:#f2cf56;}</style></defs><g id="Слой_2" data-name="Слой 2"><g id="Слой_1-2" data-name="Слой 1"><g id="_3015322084032" data-name=" 3015322084032"><path class="cls-1" d="M8.65,10.82a1.34,1.34,0,0,1,0,.46s-.08,0-.06-.21a.54.54,0,0,0-.19-.53c0,.1,0,.2,0,.32s0,.47-.22.56a.93.93,0,0,1-.74.15c.07.13,0,0,0,.07s-.26,0-.41-.15-.18-.2-.14-.47c-.13.1,0,.05-.15.11l-.13-.07c-.07-.34.62-.91.78-1a1.73,1.73,0,0,1,1.49,0c0,.13,0,0-.06.06l.1.14a.56.56,0,0,1,.12.5c-.06.23-.11.37-.29.47l-.07,0c0-.19.06-.29,0-.43ZM4.76,12.57a7.65,7.65,0,0,0,.41.81c.19,0,.06,0,.17.17a1.83,1.83,0,0,1,.13.16c0,.07.06.13.1.21s.07.08.12.17L6.86,15.9c.23.35,0,.28.2.34.16-.19-.58-1.2-.75-1.5l-.07-.12-.93-1.89a11,11,0,0,1-.81-1.91l.22,0a1.71,1.71,0,0,1,.22-.51,3,3,0,0,1,.48-1c.08-.11.18-.16.18-.25,0,.34-.14,0-.15.49.13,0,.09,0,.21,0s.1,0,.25-.05h.2v.4s0,0,.15.05a.69.69,0,0,0,0,.2l0,.12v0c.12.28.15.2.23.24,0,.33-.44.63.15,1.46.11.14.17.16.26.27s0,.06.23.36l.07.12c.08.14.05-.07.35.24.44.46.1.48.64.56a2.4,2.4,0,0,0,.6,0L9,13.4c.25-.52,0-.28,1.18-.48a3.75,3.75,0,0,0,.91-.2,1.11,1.11,0,0,0,.42-.16l.14-.09a.88.88,0,0,0,.28-.13l.13-.12,0,0a1.18,1.18,0,0,1,.41-.34.58.58,0,0,0,.23-.32c0-.13,0-.13.1-.23a1.14,1.14,0,0,1,.14-.16c.21-.15.5.06.56-.19a.59.59,0,0,0,0-.14c0-.38,0-.25-.31-.65l-.1-.12c-.09-.12-.09-.2-.32-.54l-.54-.76c-.13-.14-.05-.07-.11-.27,0,.14,0,.11-.13.17s-.83-.31-1.12.09H11l.12,0a.9.9,0,0,1,.68.86l-.09,0c-.15.28.16-.12-.08.11l-.2.14c-.11.07,0,.05-.19.06A.32.32,0,0,1,11,10c.07.1.2.09.29.1l.16,0c.11.06,0,0,.05.06.22.37.29.19.46.47a.66.66,0,0,1,.05.49c-.1.35-.67.53-1,.67a2,2,0,0,1-.93.16c0-.28,0-.31.2-.47l.54-.42c.3-.19.26-.29.46-.36s.07,0,.13,0c0-.43-.8,0-.81-.67,0,0,0,0,0,0l.17-.05c.14,0,0,0,.07,0l0-.09a2.87,2.87,0,0,1-.38-.49c-.18-.31,0-.33.09-.61L10.41,9a.65.65,0,0,1,.23-.55c.21-.2,0-.15.16-.32s0,0,.06,0l.05,0,0,0-.1,0a1.7,1.7,0,0,1-.38-.08c-.15,0-.1,0-.19-.14s-.12-.1-.19-.18a.4.4,0,0,1,.17-.42,1,1,0,0,1,.58,0l.23,0A.39.39,0,0,0,10.87,7l-.09,0c-.07,0,0,0-.13,0A2.54,2.54,0,0,0,9.26,7l-.6.18a9,9,0,0,0-1,.49L6.87,8a1.23,1.23,0,0,0-.23.18c.08.13,0,0,.09.05L7,8.19c.21.38.37.39,0,.66s-.42.6-.73.24c-.22-.17.16-.53.24-.67-.16.05-.14.09-.29.14a5,5,0,0,1,1.19-.91c.93-.52,2.59-1.16,3.66-.81.32.1.32.12.42.31l0,0a1,1,0,0,0,.45.37c.15-.07.08-.07.22-.14l.63.52.12.1.37.31c.32.17.33.24.57.53s.28.24.65.69c.08.1.15.14.22.23.35.41.71,1,1,1.31a1.13,1.13,0,0,0,.16.26c.14.21.06.21.22.27a5.4,5.4,0,0,0-.78-1.38l-.72-.88c-.13-.12-.07-.12-.21-.27l-2-2.29c0-.29.08-.33.1-.58s.29-1,.09-1.22c-.08.06,0,0-.1,0l-.19,0c-.31,0-.43.14-.75.22s-.82.25-1,.16a.37.37,0,0,1-.24-.12h0L10,5.21c-.23-.15-.27-.35-.57-.4,0,.19.34.37.47.49s.51.61,1,.5a1.37,1.37,0,0,1,.44-.06c.4,0,.15-.16.87-.15a2.18,2.18,0,0,1,.05.39,5.07,5.07,0,0,1-.18,1.08c-.27,0-.09,0-.22-.09a1.27,1.27,0,0,0-.61-.48,2,2,0,0,0-.85-.12l-.61.12c-.17,0-.47.08-.66.14s0,.06-.25.1a1.86,1.86,0,0,0-.59.19c-.42.21-.24,0-.49.18a2.65,2.65,0,0,1-.56.3c-.08,0-.15.1-.23.15a.38.38,0,0,1-.13.06c-.35.11,0,0-.41.35A9.37,9.37,0,0,0,5.39,9,3,3,0,0,0,5,9.39a.86.86,0,0,1-.17.24,4.4,4.4,0,0,0-.41.71c-.47,0-.65-.51-1-.52,0,.18.13.21.23.43l.75,1.6a3.3,3.3,0,0,1,.32.72Z"/><path class="cls-2" d="M2.59,12.28c.27.59.6,1.29,1,1.94a10.08,10.08,0,0,0,.53.92c.15.21.51.72.48,1-.66.29-.52.32-.9.2,0-.38,0-.15-.1-.45s-.25-.52-.3-.67a1.11,1.11,0,0,0-.07-.26L3,14.45c-.13-.29,0-.17-.16-.47a2.21,2.21,0,0,1-.14-.51,6.43,6.43,0,0,1-.09-1.19ZM2.74,7.1s0,0,0,0A.18.18,0,0,0,2.83,7c0-.07,0-.17,0-.27a1.67,1.67,0,0,1,.06-.2,1.69,1.69,0,0,0,0-.24c0-.18.31-.61.53-.57a8.56,8.56,0,0,0,.18,1.21c.07.31.28.85.3,1.12-1.21.19-1.24.51-1.24-.28,0-.22,0-.45,0-.67ZM4.58,9.23v.21H4.28v.33c-.21.05-.29.17-.49,0a.88.88,0,0,1-.36-.36A4.31,4.31,0,0,0,2.89,9c-.14-.12-.15,0-.18-.19A6.76,6.76,0,0,1,4,8.4a1.13,1.13,0,0,0,.36-.22,1.81,1.81,0,0,1,0-.71,13.89,13.89,0,0,1,2,0l-.07.37c0,.19-.09.08-.24.22s0,.11-.25.22-.32.58-.61.75-.12.11-.28.17l-.07,0A.69.69,0,0,1,4.58,9.23Zm3.81-4.6c.26-.14.51.08.77.26a5.29,5.29,0,0,1,.75.66c.05.07.58.47.13.63a5,5,0,0,1-1.23.18l-.28.06c-.09,0,0,0-.07,0l-.11.07c-.27.12,0-.06-.45.22a1.75,1.75,0,0,1-.66.32c-.07,0-.17,0-.19-.09a3,3,0,0,1,.17-.73,4.64,4.64,0,0,1,.54-.88L8.07,5c.09-.1,0-.1.13-.2l.1-.09.09-.06Zm-5,.63S3.05,5,3,5A23,23,0,0,0,.79,4.16c0-.2.09-.08.06-.33,0-.09-.08-.19-.1-.28a2,2,0,0,0,0-.33,1.1,1.1,0,0,1-.09-.29c-.05-.26-.05,0-.13-.28s-.07-.44.29-.13c.1.08.12.08.22.15s.14.21.41.36a2.36,2.36,0,0,1,.44.32C2.3,3.79,2.57,4,3,4.48l.57.59c0,.12,0,.22-.12.19Zm.07-1.53,0,0h0s0,0,0,0,.06.13.16.18l.14.14a4.09,4.09,0,0,1,.69.9c-.75.09-.31,0-.68.37l0,0-.06.09c-.16-.2,0-.07,0-.37A13.61,13.61,0,0,0,2.65,4c-.13-.18-.17-.13-.3-.31s-.06-.07-.18-.14l-.26-.24a1.67,1.67,0,0,1-.18-.23c-.11-.11-.24-.13-.35-.25s-.08-.11-.16-.18-.15-.1-.17-.12L.47,2C0,1.83.19,1.7.11,1.78A1.87,1.87,0,0,1,1,1.7c.24,0,.65-.06.82.08a5.87,5.87,0,0,0,.83.94c-.08-.13-.6-.67-.72-.84a.26.26,0,0,1-.05-.24c0-.11.07-.14.1-.21l0-.11s0-.05,0-.06a0,0,0,0,0,0,0s0,0,0,0c.17,0,.52.56.64.71l.85,1.26,0,0,.05.12a11.89,11.89,0,0,0,.64,1.07C4,4.32,3.91,4,3.51,3.73ZM3.31,1a.62.62,0,0,0,.08.24,2.78,2.78,0,0,0,.32.56L4,2.4l.05.1s0,0,0,0,0,0,.07.06l0-.15a.38.38,0,0,0,.16-.22c.09-.22.09-.14.31-.35s.32,0,.31-.77c0-.23,0-.47,0-.7a13.53,13.53,0,0,1,.64,2.28c0,.05,0,0,.06.12a.8.8,0,0,1,0,.15c0,.16,0,.23.08.34s.06,0,.08-.09a3.45,3.45,0,0,1,0-1c.25.05,0,0,.23.11a2.64,2.64,0,0,0,.88.34c.15,0,.23,0,.22.24-.33,0-.66-.13-.93.13a1.5,1.5,0,0,1,1.52.38l.16.13,0,0,0,0,0,0c.51.42.47.37.17.8L6.76,6.31c-.21.32-.08.29-.28.33a.64.64,0,0,1-.06.15c-.08.13,0,.06-.13.12l0,.08-2.19,0,0,0A.37.37,0,0,1,4,6.69a1.84,1.84,0,0,0,0-.28c-.1-.46-.17-.9.11-1.16l.11-.18c.44-.08.1-.16.55-.26.11,0,.1,0,.16-.06l0,0c0,.09,0-.06.05-.07l0,0-.49-.77c-.18-.22-.07-.24-.24-.4A7.25,7.25,0,0,1,3.17,2.1l-.74-1C2.35,1,2.08.82,2.06.69V.63a.1.1,0,0,0,0,0H1.92c0,.19-.12,1-.31,1.08A11.64,11.64,0,0,1,0,1.71c-.08.46.75,2,.65,2.55.38-.12,1.79.66,2,.67A.85.85,0,0,1,2.57,5c0,.12.06.27.07.38l.09.27-.28,0,.69.09c0,.19-.06.17-.2.3s-.49.62-.56.66a1.89,1.89,0,0,0,.11-.36c-.23.16-.26.5-.32.74s-.28.36-.46.48-.07,0,0,.11l.44,0,.14.67c0,.16.14.56.14.61A4.74,4.74,0,0,0,2.2,10.3a12.67,12.67,0,0,0,.19,1.37,7,7,0,0,0,.85,3.94c.53,1.12.54,1.29,1.12,1.13A3.74,3.74,0,0,1,5,16.58c.33.16.18.31.78.19a8,8,0,0,0,1.57-.51A4.67,4.67,0,0,0,8,15.8c0-.31-.27-.49-.32-.75a1.09,1.09,0,0,0,.35.07l.17,0a2.57,2.57,0,0,1-.57-.38c-.23,0-.08,0-.24-.07h0l-.15,0a.42.42,0,0,0,.13.35L7.4,15a.59.59,0,0,1,.22.45c0,.15-.15.24-.21.31s0,.05-.16.12a.85.85,0,0,1-.33-.37,5.31,5.31,0,0,0-.44-.78c-.17-.21-.86-1.49-1-1.81l-.08-.14c-.06-.07,0,0-.07-.07l.93,1.89.07.12c.17.3.91,1.31.75,1.5-.18-.06,0,0-.2-.34L5.69,14.09c-.05-.09-.08-.1-.12-.17s-.06-.14-.1-.21a1.83,1.83,0,0,0-.13-.16c-.11-.17,0-.12-.17-.17,0,.23.08.21.18.37l.09.18.7,1.15c.16.36.1.05.31.47.13.26.31.36.21.55s-.11.07-.46.19-1,.25-1.27-.14c-.12-.17,0-.15-.17-.32a.29.29,0,0,1-.07-.08l-.07-.15a1.69,1.69,0,0,1-.31-.48,2.18,2.18,0,0,0-.22-.4c-.21-.24-.08,0-.27-.4,0-.1,0-.1-.08-.22L3.2,13c-.06-.16-.08-.35-.14-.54l-.21-.76c0-.11,0-.22,0-.33,0-.26,0-1-.1-1.19,0,.24,0,.1,0,.15,0-.25-.05-.24,0-.45a1.72,1.72,0,0,0,0-.52c.18,0,.17,0,.37.27.43.51.22.36.37.56a4.63,4.63,0,0,1,.42.87,2.25,2.25,0,0,1,.12.21c.05.09.05.15.1.24l.34.63a1.6,1.6,0,0,0,.1.23c.1.18.14.16.2.19a3.3,3.3,0,0,0-.32-.72l-.75-1.6c-.1-.22-.21-.25-.23-.43.35,0,.53.53,1,.52a4.4,4.4,0,0,1,.41-.71A.86.86,0,0,0,5,9.39,3,3,0,0,1,5.39,9,9.37,9.37,0,0,1,6.44,8c.43-.34.06-.24.41-.35A.38.38,0,0,0,7,7.55c.08,0,.15-.11.23-.15a2.65,2.65,0,0,0,.56-.3c.25-.19.07,0,.49-.18a1.86,1.86,0,0,1,.59-.19c.2,0,.09-.05.25-.1s.49-.09.66-.14l.61-.12a2,2,0,0,1,.85.12,1.27,1.27,0,0,1,.61.48c.13.12-.05.06.22.09A5.07,5.07,0,0,0,12.23,6a2.18,2.18,0,0,0-.05-.39c-.72,0-.47.14-.87.15a1.37,1.37,0,0,0-.44.06c-.46.11-.72-.25-1-.5s-.43-.3-.47-.49c.3.05.34.25.57.4l.18.12h0a.37.37,0,0,0,.24.12c0-.24-.44-.5-.68-.65a2.53,2.53,0,0,1-.4-.27c-.36-.33-.11-.28-.27-.35l-.52-.34a10.44,10.44,0,0,0-1.1-.73c0-.25.14-.28.14-.52-.34-.3-1.74-.25-1.95-.69A14.06,14.06,0,0,0,4.9,0a3.66,3.66,0,0,0-.81.48C4,.53,3.35,1,3.31,1Z"/><path class="cls-3" d="M10.83,7.16c.16.13.38.1.35.37l0,.06a1.53,1.53,0,0,1-.8.11.52.52,0,0,1-.18-.47C10.4,7.12,10.56,7.18,10.83,7.16ZM6.21,9.09c0-.46.33-.64.52-.84-.13,0,0,.08-.09-.05A1.23,1.23,0,0,1,6.87,8l.75-.4a9,9,0,0,1,1-.49L9.26,7a2.54,2.54,0,0,1,1.39,0c.08,0,.06,0,.13,0l.09,0a.39.39,0,0,1,.19.23l-.23,0a1,1,0,0,0-.58,0,.4.4,0,0,0-.17.42c.07.08.12.11.19.18s0,.1.19.14a1.7,1.7,0,0,0,.38.08l.1,0,0,0-.05,0c-.09.06,0,0-.06,0s0,.12-.16.32a.65.65,0,0,0-.23.55l.24-.23c.09-.07,0,0,.13-.14a.7.7,0,0,1,.42-.32.88.88,0,0,1,.82.16v.19c.15-.06.09,0,.13-.17.06.2,0,.13.11.27l.54.76c.23.34.23.42.32.54l.1.12c.3.4.31.27.31.65a.59.59,0,0,1,0,.14c-.06.25-.35,0-.56.19a1.14,1.14,0,0,0-.14.16c-.09.1-.11.1-.1.23a.38.38,0,0,0,.13-.06c0,.37-.37,1.88-1.07,2.09a2.65,2.65,0,0,1-1.37,0l-.9-.29-.15,0-.15-.1a1.8,1.8,0,0,1,.77-.06s0,0,0,0c0,.31.43.16.64.11A6.39,6.39,0,0,0,12,12.63a3.49,3.49,0,0,0,.5-.47v-.3a1.18,1.18,0,0,0-.41.34l0,0-.13.12a.88.88,0,0,1-.28.13l-.14.09a1.11,1.11,0,0,1-.42.16,3.75,3.75,0,0,1-.91.2c-1.14.2-.93,0-1.18.48l-.12.18a2.4,2.4,0,0,1-.6,0c-.54-.08-.2-.1-.64-.56-.3-.31-.27-.1-.35-.24l-.07-.12c-.27-.3-.06-.16-.23-.36s-.15-.13-.26-.27c-.59-.83-.15-1.13-.15-1.46-.09,0-.11,0-.23-.24v0l0-.12a.69.69,0,0,1,0-.2c-.2,0-.1,0-.15-.05v-.4h-.2c-.15,0-.12.06-.25.05s-.08-.06-.21,0c0-.47.18-.15.15-.49,0,.09-.1.14-.18.25a3,3,0,0,0-.48,1L5,10.16a1.1,1.1,0,0,1-.06.33l-.07.26c0,.22,0-.19,0,.08,0,.09.21,0,.42,0l.36.53c.32.7.07.11.39.54a3.78,3.78,0,0,0,.26.38l.24.35c.12.24.1.11.25.39a.86.86,0,0,0,.31.32c.21.15.34.42.63.59s.29.13.43.21h.05l0,0h0l.09,0a1.17,1.17,0,0,0,.23.11c.19,0,.1,0,.24,0s0,.07.23.1.95,0,1.23,0l.38-.07a1.66,1.66,0,0,1,.7-.12l0-.1c.32,0,.38,0,.6-.13a3.73,3.73,0,0,0,.53-.51c.53-.51.27-.49.45-.67a1.66,1.66,0,0,0,.38-.45c.21-.32.2-.1.27-.36a2.44,2.44,0,0,0,.1-.62c0-.28,0-.48,0-.75L13,9.59a11.05,11.05,0,0,1-.72-1.11c-.34-.54-.17-.4-.33-.9.3,0,.05,0,.22.09l.43.27a3.93,3.93,0,0,1,1,.87c.08.09.1.21.19.3l.89,1c.07.1.13.16.2.25l.11.15a2.49,2.49,0,0,1,.26.41c.08.17.1.08.21.27s.12.19.12.34a2.23,2.23,0,0,1-.8.4,2.78,2.78,0,0,1-.82.37v-.09l0,.06,0,0,0,0-.09.39.26,0A8,8,0,0,0,15,12.24a6.28,6.28,0,0,0,1-.54c-.07,0-.09-.07-.13-.12-.22-.34-.29-.12-.28-.49-.24-.31-.6-.9-1-1.31-.07-.09-.14-.13-.22-.23-.37-.45-.49-.5-.65-.69s-.25-.36-.57-.53L12.87,8l-.12-.1-.63-.52c-.14.07-.07.07-.22.14a1,1,0,0,1-.45-.37l0,0c-.1-.19-.1-.21-.42-.31-1.07-.35-2.73.29-3.66.81a5,5,0,0,0-1.19.91c.15-.05.13-.09.29-.14-.08.14-.46.5-.24.67Z"/><path class="cls-4" d="M5.17,13.38a7.65,7.65,0,0,1-.41-.81c-.06,0-.1,0-.2-.19a1.6,1.6,0,0,1-.1-.23l-.34-.63c0-.09,0-.15-.1-.24a2.25,2.25,0,0,0-.12-.21,4.63,4.63,0,0,0-.42-.87c-.15-.2.06,0-.37-.56-.2-.23-.19-.26-.37-.27a1.72,1.72,0,0,1,0,.52c-.05.21,0,.2,0,.45,0-.05,0,.09,0-.15.07.19.06.93.1,1.19,0,.11,0,.22,0,.33l.21.76c.06.19.08.38.14.54l.54,1.09c0,.12,0,.12.08.22.19.41.06.16.27.4a2,2,0,0,1,.22.41,1.75,1.75,0,0,0,.31.47l.07.15a.29.29,0,0,0,.07.08c.14.17,0,.15.17.32.26.39.86.27,1.27.14s.4-.07.46-.19-.08-.29-.21-.55c-.21-.41-.15-.11-.31-.47l-.7-1.15-.09-.18c-.1-.16-.14-.14-.18-.37Z"/><path class="cls-5" d="M10.82,22.57a2.7,2.7,0,0,1-.24,1,1.62,1.62,0,0,1-.2.42c-.18.37.11,0-.37.92a4.52,4.52,0,0,1-.47.85c-.1.15-.16.3-.25.41-.2-.05-.24-.21-.52-.25-.1.07-.32.3-.26.49s.1.13.07.31a2,2,0,0,1-.61.85.94.94,0,0,0-.31.34,2.27,2.27,0,0,1,.94.57l.06.05,0,0c.07.07,0,.11.3.11a.47.47,0,0,0,.11-.36c.7,0-.09-1.06-.47-1.26L8.5,27c.1,0,0,0,.08-.13v-.05a2.6,2.6,0,0,0,.1-.25c.41,0,.3.12.63.37s.19.4.36.57c.4.41.86,0,.8-.76-.24.11-.17.53-.45.61l-.41-.94c.37-.39,0,.06.48-.6.27-.41.17-.37.31-.47s.08,0,.16-.14-.05-.32.05-.5.18-.11.26-.29.06-.12.25-.32.1-.18.19-.38.25-.17.46-.65a1.41,1.41,0,0,1,.52-.59c0,.07,0,.11,0,.23h.07a.69.69,0,0,1,.3-.26l0-.53a3.56,3.56,0,0,1-.39-.13,1,1,0,0,1,0-.35l.06-.17v0c0-.2-.7-.16-.75-.15a2.11,2.11,0,0,0-.1.3c0,.17.07.39-.12.36s0-.58,0-.75a1.51,1.51,0,0,0-.26-.12c0,.27,0,.56.16.65-.07,0-.07,0-.21,0l-.17.79c0,.1,0,0,0,.11s0,0-.12.1Z"/><path class="cls-6" d="M4.94,10.29a1.71,1.71,0,0,0-.22.51l-.22,0a11,11,0,0,0,.81,1.91c.06,0,0,0,.07.07l.08.14c.16.32.85,1.6,1,1.81a5.31,5.31,0,0,1,.44.78.85.85,0,0,0,.33.37c.16-.07.06,0,.16-.12s.21-.16.21-.31A.59.59,0,0,0,7.4,15L7.34,15a.42.42,0,0,1-.13-.35l.15,0h0c.16.07,0,.06.24.07l-.4-.34a1.57,1.57,0,0,1-.17-.21C7,14.07,7,14.08,6.87,14s-.09-.13-.16-.21a2.85,2.85,0,0,1-.49-.62,3.12,3.12,0,0,0-.29-.45L5.48,12a.9.9,0,0,1-.14-.22.61.61,0,0,1,0-.17c0-.26-.14-.17,0-.32a.82.82,0,0,1,.34.37c0,.11,0,.06.09.15a1.11,1.11,0,0,1,.2.27,1.18,1.18,0,0,0,.22.27,8.1,8.1,0,0,0,.62.83c.12.11,0,.14.19.3.55.55.29.09.62.56l.14.13a3.74,3.74,0,0,0,.83.62,1.39,1.39,0,0,0,.76.21,4.51,4.51,0,0,0,.9,0c.38,0,.69.05,1.05-.26l0,0c.11-.09.15-.05.36-.2l0,0,0,0,.09-.05.15-.08.5-.36h0l0,0,.27-.22c.1,0,.08,0,.2-.13s.08-.08.2-.18.08-.16.16-.31,0,0,0-.07c.36-.4.34-.88.48-1.05l0,.34,0,0,0,0,0-.06c.05-1.43-.15-1.36-.18-1.49l0,0c0,.27,0,.47,0,.75a2.44,2.44,0,0,1-.1.62c-.07.26-.06,0-.27.36a1.66,1.66,0,0,1-.38.45c-.18.18.08.16-.45.67a3.73,3.73,0,0,1-.53.51c-.22.14-.28.12-.6.13l0,.1a1.66,1.66,0,0,0-.7.12l-.38.07c-.28,0-1,0-1.23,0s-.07-.07-.23-.1-.05,0-.24,0a1.17,1.17,0,0,1-.23-.11l-.09,0h0l0,0H8.18c-.14-.08-.28-.12-.43-.21s-.42-.44-.63-.59a.86.86,0,0,1-.31-.32c-.15-.28-.13-.15-.25-.39l-.24-.35a3.78,3.78,0,0,1-.26-.38c-.32-.43-.07.16-.39-.54l-.36-.53c-.21,0-.4.06-.42,0-.07-.27,0,.14,0-.08l.07-.26A1.1,1.1,0,0,0,5,10.16l-.06.13Z"/><path class="cls-7" d="M11.92,26.63a7.45,7.45,0,0,1,.23-1.2l.15-.89c0-.21,0-.07.12-.22s.08-.21.1-.26.21-1.38.27-1.51.23.1.25.22,0,.16,0,.32a2.13,2.13,0,0,0,.07.27.92.92,0,0,1,0,.37c0,.12,0,.2,0,.29,0,.67,0,.59-.14.82s-.07.08,0,.22c.08.33.11.12,0,.53a2.06,2.06,0,0,1-.17.53c-.07.1,0-.05-.07.1l-.81.41Zm-.8-6.7c0,.1,0,.57,0,.75s0,.63,0,.69l-.31,1.2c.12-.07,0,.05.12-.1s0,0,0-.11l.17-.79c.14,0,.14,0,.21,0-.2-.09-.18-.38-.16-.65a1.51,1.51,0,0,1,.26.12c0,.17-.27.72,0,.75s.1-.19.12-.36a2.11,2.11,0,0,1,.1-.3c.05,0,.77-.05.75.15v0l-.06.17a1,1,0,0,0,0,.35,3.56,3.56,0,0,0,.39.13l0,.53a.69.69,0,0,0-.3.26h-.19a.27.27,0,0,0,0,.12l.26,0a12.53,12.53,0,0,1-.39,2.25c0,.26-.12.45-.17.69-.29,0-.36,0-.54.2-.45.48-.09.77-.19,1.1a.74.74,0,0,0-.05.33l0,.28s0,0,0,0,.16.14.3.19a3,3,0,0,1,.36.13c.18.12.24.43.41.53,0-.05.1.06,0-.13s-.09-.16-.16-.28a.51.51,0,0,1-.09-.58.87.87,0,0,1,.8-.45c.18.2,0,.15.36.18-.11.11-.05,0-.12.15a.84.84,0,0,1,.46.06c-.13-.24-.3-.34-.35-.48.11-.09.11,0,.37-.19,0-.21,0-.25,0-.31l0,.24A13.73,13.73,0,0,0,12,27.1a.47.47,0,0,1-.52,0c0-.17,0-.09.15-.16l.23-.09a2.71,2.71,0,0,1,.41-.23,3.08,3.08,0,0,1,1.11-.15c-.07-.1,0-.07-.39-.05,0-.31.14-.66.18-1s0-.21.12-.48,0-.26,0-.46a.74.74,0,0,0,.18-.52c0-.23.07-.4.08-.63s.08-.32.1-.59,0-.43,0-.7c.32,0,.46,0,.57-.23-.62.23-.44.27-.84-.05a.65.65,0,0,1-.18-.19l-.08,0h0c-.22,0-.39-.4-.64-.57v-.31c-.22,0-.06.06-.23.08a2.35,2.35,0,0,1-.26-.29l.49-.25c.19-.06.31.15.57,0l-.07,0h0s-.24,0-.27-.11,0,0,0,0l-.36.13c-.14.12-.3.26-.51.17-.1-.27,0-.36.16-.5s.27-.1.5-.19l.2-.11,0,0c.15-.1.07,0,.12-.09-.22-.1-.1.13-.33,0a2.15,2.15,0,0,0-.66.24c-.22.13-.2.37-.56.36Z"/><path class="cls-8" d="M4.91,4.75l.16-.06C5,4.88,5,4.84,4.94,5s.09.1.16.21L6.17,6.78c-.07-.21-.18-.25-.23-.43.08,0,0,0,0,0s-.06,0,.07,0,.06.06.06-.08l-.21-.43a.49.49,0,0,1,0-.17c0-.18,0-.08.06-.09s-.09.08.08,0a2.79,2.79,0,0,1,0-.41c0-.37.07-.08.11,0,0-.41,0-.69,0-1.08s.16-.48.51-.57c0-.09,0,0,0-.1l-.08-.07a1.56,1.56,0,0,1,.5.06c.16.05.19.12.35.17s.1,0,.29.16l.35.35c-.15,0,0-.06-.09.11s-.08.07-.31.41L7.45,5a7.83,7.83,0,0,0-1,1.61c.2,0,.07,0,.28-.33L8.11,4.38c.3-.43.34-.38-.17-.8l0,0,0,0,0,0-.16-.13A1.5,1.5,0,0,0,6.2,3c-.16,0-.19.13-.36.2,0,.1,0,0-.08.09S5.7,3.12,5.68,3a.8.8,0,0,0,0-.15c0-.1,0-.07-.06-.12a3.22,3.22,0,0,1,.11.5c.07.33.07.16-.27.79-.1.2-.12.27-.23.35l0,0-1-1.71s0,0-.07-.06,0,0,0,0L4,2.4l-.31-.58a2.78,2.78,0,0,1-.32-.56A.62.62,0,0,1,3.31,1C3,1.11,2.9,1,2.68.88S2.3.69,2.08.6a.1.1,0,0,1,0,0V.69c0,.13.29.3.37.41l.74,1A7.25,7.25,0,0,0,4.23,3.45c.17.16,0,.18.24.4L5,4.62v0s0,.16,0,.07l0,0Z"/><path class="cls-9" d="M10.93,15.69l.13-.09h0l.2-.13h0a3.15,3.15,0,0,1,.84-.12l0,.8c-.29,0-1.29.19-1.26-.44Zm-3.3-1a2.57,2.57,0,0,0,.57.38l-.17,0c.05,0,0,0,.08,0l.27.07a2.53,2.53,0,0,1,.36.12,4.71,4.71,0,0,0,.85.1c.89,0,1.06,0,1.26.67.24.05,0,.1.64.09.26,0,.51,0,.76,0,.08-.54,0-.77.23-1.19a13.4,13.4,0,0,1,.73-1.15,6.47,6.47,0,0,0,.45-.92c.1-.23.16-.07.31-.2l-.26,0,.09-.39,0-.34c-.14.17-.12.65-.48,1.05,0,0,0,0,0,.07s0,.2-.16.31-.09,0-.2.18-.1.09-.2.13l-.27.22,0,0h0l-.5.36-.15.08-.09.05,0,0,0,0c-.21.15-.25.11-.36.2l0,0c-.36.31-.67.23-1.05.26a4.51,4.51,0,0,1-.9,0,1.39,1.39,0,0,1-.76-.21,3.74,3.74,0,0,1-.83-.62l-.14-.13c-.33-.47-.07,0-.62-.56-.17-.16-.07-.19-.19-.3a8.1,8.1,0,0,1-.62-.83,1.18,1.18,0,0,1-.22-.27,1.11,1.11,0,0,0-.2-.27c-.08-.09,0,0-.09-.15a.82.82,0,0,0-.34-.37c-.11.15,0,.06,0,.32a.61.61,0,0,0,0,.17.9.9,0,0,0,.14.22l.45.67a3.12,3.12,0,0,1,.29.45,2.85,2.85,0,0,0,.49.62c.07.08.08.13.16.21s.12.09.19.19a1.57,1.57,0,0,0,.17.21l.4.34Z"/><path class="cls-4" d="M13.72,10.7s0,0,0,0,.23.06.18,1.49v.09a2.78,2.78,0,0,0,.82-.37,2.23,2.23,0,0,0,.8-.4c0-.15,0-.16-.12-.34s-.13-.1-.21-.27a2.49,2.49,0,0,0-.26-.41l-.11-.15c-.07-.09-.13-.15-.2-.25l-.89-1c-.09-.09-.11-.21-.19-.3a4.15,4.15,0,0,0-1-.87l-.44-.27c-.17-.09.08-.1-.22-.09.16.5,0,.36.33.9A11.05,11.05,0,0,0,13,9.59Z"/><path class="cls-10" d="M7.66,28a1.59,1.59,0,0,0-.15.21c-.46,1.23,1.1,1,1.38.74.71-.6.16-.48,1.2-.77.18,0,.41,0,.41-.21a3.06,3.06,0,0,1-.07-.4c0-.24.06-.16.08-.37.06-.54-.19-.23.3-1.42.08-.19.17-.37.26-.6s.13-.42.24-.65c.23-.5.47-.89.74-1.42a1.21,1.21,0,0,1,.15-.22.27.27,0,0,1,0-.12h.12c0-.12,0-.16,0-.23a1.41,1.41,0,0,0-.52.59c-.21.48-.4.5-.46.65s0,.22-.19.38-.11,0-.25.32-.19.18-.26.29,0,.28-.05.5-.05.06-.16.14,0,.06-.31.47c-.43.66-.11.21-.48.6l.41.94c.28-.08.21-.5.45-.61.06.77-.4,1.17-.8.76-.17-.17-.07-.34-.36-.57s-.22-.36-.63-.37a2.6,2.6,0,0,1-.1.25v.05c-.06.13,0,.09-.08.13l.14.07c.38.2,1.17,1.24.47,1.26a.47.47,0,0,1-.11.36c-.26,0-.23,0-.3-.11l0,0-.06-.05A2.34,2.34,0,0,0,7.66,28Z"/><path class="cls-4" d="M4.58,9.23a.69.69,0,0,0,.26-.05l.07,0C5.07,9.1,5,9.1,5.19,9s.34-.65.61-.75.06,0,.25-.22.19,0,.24-.22l.07-.37a13.89,13.89,0,0,0-2,0,1.81,1.81,0,0,0,0,.71A1.13,1.13,0,0,1,4,8.4a6.76,6.76,0,0,0-1.27.41c0,.16,0,.07.18.19a4.31,4.31,0,0,1,.54.46.88.88,0,0,0,.36.36c.2.13.28,0,.49,0V9.45h.29Z"/><path class="cls-4" d="M8.39,4.63l-.09.06-.1.09c-.09.1,0,.1-.13.2l-.31.39a4.64,4.64,0,0,0-.54.88A3,3,0,0,0,7.05,7c0,.08.12.09.19.09a1.75,1.75,0,0,0,.66-.32c.45-.28.18-.1.45-.22l.11-.07c.1-.06,0,0,.07,0l.28-.06A5,5,0,0,0,10,6.18c.45-.16-.08-.56-.13-.63a5.29,5.29,0,0,0-.75-.66c-.26-.18-.51-.4-.77-.26Z"/><path class="cls-5" d="M13.32,20.15h-.39c-.26.19-.38,0-.57,0l-.49.25a2.35,2.35,0,0,0,.26.29c.17,0,0,0,.23-.08V21c.25.17.42.58.64.57h0l.08,0a.65.65,0,0,0,.18.19c.4.32.22.28.84.05v0c0-.1,0-.21,0-.28.1-.42,0-.34-.07-.66a.65.65,0,0,0,.17.09c.08-.16,0-.05.11-.15l.1-.16a2.4,2.4,0,0,0,.17-.32c0-.06.06-.1.09-.17s0-.13.06-.2.13-.16.2-.28c0-.36-.67-.66-.91-.46s0,0-.09.17a1,1,0,0,1-.08.15,2.72,2.72,0,0,0-.11.34c-.12.37-.07.35-.25.44l-.18.09,0-.18Z"/><path class="cls-11" d="M6.17,6.78c.06.16,0,.08.12.13s0,0,.13-.12a.64.64,0,0,0,.06-.15A7.83,7.83,0,0,1,7.45,5l.25-.39c.23-.34.2-.15.31-.41S8,4.14,8.1,4.12l-.35-.35c-.19-.19-.12-.11-.29-.16s-.19-.12-.35-.17a1.56,1.56,0,0,0-.5-.06l.08.07s0,0,0,.1c-.35.09-.5.14-.51.57s0,.67,0,1.08c0-.09-.06-.38-.11,0a2.79,2.79,0,0,0,0,.41c-.17.08,0,0-.08,0s0-.09-.06.09a.49.49,0,0,0,0,.17l.21.43c0,.14,0,.06-.06.08s0,0-.07,0,0,0,0,0c0,.18.16.22.23.43Z"/><path class="cls-12" d="M12.37,17c-.39.12-1,.07-1.44.16.26-.34,0-.3.19-.63-.12-.16-.07,0-.16-.15a2.93,2.93,0,0,1,1.3-.06c-.07.17-.15.14,0,.36s.14.14.15.32Zm-1.52-.86v.11a1.7,1.7,0,0,0-.28.06c0,.18.08.29.1.45s0,.37,0,.55l.15.06s0,0,0,0-.14.11-.25.24a1.46,1.46,0,0,0-.3,1.13,1.64,1.64,0,0,0,.81,1.17.75.75,0,0,1,.23-.64c.16-.19.39-.18.58-.31l.36-.09c-.17-.05-.07.06-.14-.11-.76,0-1,.75-1.22.51s0-.26.08-.37.11-.19.24-.28a1.49,1.49,0,0,1,.83-.22c-.06-.12,0,0,0-.14-.33,0-.41,0-.61.09-.52.34-.69.07-.37-.14.1-.07,0,0,.15-.11s.06-.17.57-.15c.24,0,.23.1.39,0,0-.45,0-.39.16-.61l.15-.21a2.91,2.91,0,0,0,.27-.15,2.12,2.12,0,0,0-.08-.38c0-.43.13-.46-.41-.54a1.92,1.92,0,0,1,.21-1c-.27.42-.15.65-.23,1.19-.25,0-.5,0-.76,0-.64,0-.4,0-.64-.09Z"/><path class="cls-13" d="M15.63,11.09c0,.37.06.15.28.49,0,.05.06.11.13.12a.61.61,0,0,0,.19-.83,6.68,6.68,0,0,0-.46-.76c-.3-.47-.65-1-1-1.42a10,10,0,0,0-2.38-2.47c0,.25-.09.29-.1.58l2,2.29c.14.15.08.15.21.27l.72.88A5.4,5.4,0,0,1,16,11.62c-.16-.06-.08-.06-.22-.27a1.13,1.13,0,0,1-.16-.26Z"/><path class="cls-14" d="M6.29,6.91c-.1,0-.06,0-.12-.13L5.1,5.19C5,5.08,5,5.09,4.94,5s.08-.1.13-.29l-.16.06c-.06.06,0,0-.16.06-.45.1-.11.18-.55.26l-.11.18c-.28.26-.21.7-.11,1.16a1.84,1.84,0,0,1,0,.28.37.37,0,0,0,.07.22l0,0L6.24,7l0-.08Z"/><path class="cls-7" d="M12.83,18.52c.09.15.19.2.29.38a.9.9,0,0,0,.14.2l.26.43c.17.42.21.6-.2.62l0,.18.18-.09c.18-.09.13-.07.25-.44a2.72,2.72,0,0,1,.11-.34,1,1,0,0,0,.08-.15c.06-.17-.05-.07.09-.17s.88.1.91.46c-.07.12-.16.17-.2.28s0,.11-.06.2-.06.11-.09.17a2.4,2.4,0,0,1-.17.32l-.1.16c-.07.1,0,0-.11.15a.65.65,0,0,1-.17-.09c.07.32.17.24.07.66,0,.07,0,.18,0,.28l.06-.07.48-.86c.11-.18.2-.14.66-.24a6,6,0,0,0,1.36-.43c.39-.29.26-.07.33-.28l-.4,0a.34.34,0,0,1-.26.26l-.22.05c-.14,0-.09,0-.22.07a1.08,1.08,0,0,1-.21,0l-.24.06a2.34,2.34,0,0,1-.55.05c.09-.31.19-.07.36-.39a1.92,1.92,0,0,0,.13-.64c-.13.06-.09,0-.09.24s-.05.52-.3.51c.05-.2.23-.2.11-.56a1,1,0,0,0-1.43-.4c0-.19.08-.14.16-.32s.08-.11.21-.28l-.19.05-.09-.17a.26.26,0,0,1,.09-.24,2,2,0,0,1,.45.19c.26.12.25.05.53.11a3,3,0,0,0,1,.28.37.37,0,0,0-.25-.12,1.32,1.32,0,0,1-.3-.08,1.55,1.55,0,0,0-.61-.18c0-.23-.05-.2-.23-.29s-.28-.19-.52-.3a2.33,2.33,0,0,0-.7-.18c.09.14.09.09.14.27l-.08.06-.06,0c0,.14,0,.16-.06.24a1.4,1.4,0,0,1-.18-.32l-.08-.14c-.08-.13,0-.05-.11-.13s0,0,0,.08.17.23.21.49c-.2-.09-.18-.24-.4-.31,0,.35.29.3.33.47s0,.13-.08.14Z"/><path class="cls-8" d="M10.44,5.46c.18.09.72-.1,1-.16s.44-.17.75-.22l.19,0c.1,0,0,0,.1,0a8.31,8.31,0,0,0-1.72-.81,5.24,5.24,0,0,0-1-.27,7.84,7.84,0,0,0-1.19-.07l.52.34c.16.07-.09,0,.27.35a2.53,2.53,0,0,0,.4.27c.24.15.64.41.68.65Z"/><path class="cls-15" d="M.79,4.16A23,23,0,0,1,3,5c.08,0,.44.28.47.28s.17-.07.12-.19L3,4.48C2.57,4,2.3,3.79,1.85,3.35A2.36,2.36,0,0,0,1.41,3C1.14,2.88,1.2,2.8,1,2.67S.88,2.6.78,2.52c-.36-.31-.34,0-.29.13s.08,0,.13.28a1.1,1.1,0,0,0,.09.29,2,2,0,0,1,0,.33c0,.09.08.19.1.28,0,.25,0,.13-.06.33Z"/><path class="cls-16" d="M4.18,2.6l1,1.71,0,0c.11-.08.13-.15.23-.35.34-.63.34-.46.27-.79a3.22,3.22,0,0,0-.11-.5A13.53,13.53,0,0,0,5,.41c0,.23,0,.47,0,.7,0,.78-.11.59-.31.77s-.22.13-.31.35a.38.38,0,0,1-.16.22l0,.15Z"/><path class="cls-8" d="M2.65,4c0-.06-.25-.29-.33-.36S2.07,3.41,2,3.28l-.57-.5c-.13-.1-.14-.08-.18-.24a9,9,0,0,1,1,.65c.21.13.16.14.32.24l.24.17,0,0,.63.49a1.69,1.69,0,0,0,.39.16c0-.16-.12-.15-.16-.34s-.1-.08-.16-.18,0,0,0,0h0l0,0c-.27-.22-.59-.74-.86-1a5.87,5.87,0,0,1-.83-.94C1.65,1.64,1.24,1.7,1,1.7a1.87,1.87,0,0,0-.89.08C.19,1.7,0,1.83.47,2l.58.48s.13.08.17.12.07.1.16.18.24.14.35.25a1.67,1.67,0,0,0,.18.23l.26.24c.12.07.08,0,.18.14s.17.13.3.31Z"/><path class="cls-10" d="M11.92,26.63l.81-.41c.08-.15,0,0,.07-.1a2.06,2.06,0,0,0,.17-.53c.09-.41.06-.2,0-.53,0-.14,0-.13,0-.22s.16-.15.14-.81c0-.1,0-.18,0-.3a.92.92,0,0,0,0-.37,2.13,2.13,0,0,1-.07-.27c0-.16.05-.17,0-.32s-.17-.39-.25-.22-.22,1.38-.27,1.51-.08.22-.1.26-.09,0-.12.22l-.15.89a7.45,7.45,0,0,0-.23,1.2Z"/><path class="cls-4" d="M3.55,14.22c-.36-.65-.69-1.35-1-1.94a6.43,6.43,0,0,0,.09,1.19,2.21,2.21,0,0,0,.14.51c.15.3,0,.18.16.47l.21.47a1.11,1.11,0,0,1,.07.26c.05.15.19.34.3.67s.12.07.1.45c.38.12.24.09.9-.2,0-.24-.33-.75-.48-1a10.08,10.08,0,0,1-.53-.92Z"/><path class="cls-5" d="M14.06,18.58a1,1,0,0,1,.92.09,2,2,0,0,1,.56.56c0,.13,0,.08-.14.16a1.92,1.92,0,0,1-.13.64c-.17.32-.27.07-.36.39a2.34,2.34,0,0,0,.55-.05l.24-.06a1.08,1.08,0,0,0,.21,0c.13,0,.08,0,.22-.07l.22-.05a.34.34,0,0,0,.26-.26l.4,0a1,1,0,0,0,0-.45c-.06-.1-.26-.14-.38-.22a1.66,1.66,0,0,0-.76-.38,3,3,0,0,1-1-.28c-.28-.06-.27,0-.53-.11a2,2,0,0,0-.45-.19.26.26,0,0,0-.09.24l.09.17.19-.05Z"/><path class="cls-17" d="M12.08,18.4l.12.08c0,.21,0,.12,0,.28s0,.06.14.11l-.36.09c.37-.08.51-.09.41.37.23.17.11-.06.33,0-.05.1,0,0-.12.09l0,0-.2.11.21,0c0,.08.09.16.08.26s0,.14-.12.17-.19,0-.32.12l.36-.13s0,0,0,0,.25.1.27.11h0l.07,0h.39c.41,0,.37-.2.2-.62l-.26-.43a.9.9,0,0,1-.14-.2c-.1-.18-.2-.23-.29-.38s-.28-.22-.38-.39a1.11,1.11,0,0,1-.27-.2c-.16.12-.15,0-.39,0-.51,0-.47,0-.57.15s-.05,0-.15.11c-.32.21-.15.48.37.14.2-.13.28-.11.61-.09,0,.09,0,0,0,.14Z"/><path class="cls-18" d="M7.51,28.16a1.37,1.37,0,0,0-.13.7c0,.92,1.23.83,1.61.66a5.25,5.25,0,0,0,.49-.33c.25-.13.94-.39,1-.59a1.2,1.2,0,0,0,0-.68c0,.21-.23.17-.41.21-1,.29-.49.17-1.2.77-.28.24-1.84.49-1.38-.74Z"/><path class="cls-3" d="M10.94,9.86l0,.09c-.08,0,.07,0-.07,0l-.17.05s0,0,0,0c0,.67.77.24.81.67-.06,0-.06,0-.13,0s-.16.17-.46.36l-.54.42c-.2.16-.2.19-.2.47a2.15,2.15,0,0,0,.93-.16c.29-.14.86-.32,1-.67a.66.66,0,0,0-.05-.49c-.17-.28-.24-.1-.46-.47-.06-.1.06,0-.05-.06l-.16,0c-.09,0-.22,0-.29-.1a.32.32,0,0,0,.21,0c.22,0,.08,0,.19-.06l.2-.14c.24-.23-.07.17.08-.11-.06-.27,0-.48-.25-.58,0,.15.26.66-.22.68v.12l-.25-.05Z"/><path class="cls-14" d="M2.74,7.1c0,.22,0,.45,0,.67,0,.79,0,.47,1.24.28,0-.27-.23-.81-.3-1.12a8.56,8.56,0,0,1-.18-1.21c-.22,0-.49.39-.53.57a1.69,1.69,0,0,1,0,.24,1.67,1.67,0,0,0-.06.2c0,.1,0,.2,0,.27a.18.18,0,0,1-.07.09s0,0,0,0Z"/><path class="cls-19" d="M12.7,11.54a.58.58,0,0,1-.23.32v.3a3.49,3.49,0,0,1-.5.47,6.39,6.39,0,0,1-1.34.58c-.21,0-.6.2-.64-.11,0,0,0,0,0,0a1.8,1.8,0,0,0-.77.06l.15.1.15,0,.9.29a2.65,2.65,0,0,0,1.37,0c.7-.21,1.07-1.72,1.07-2.09a.38.38,0,0,1-.13.06Z"/><path class="cls-20" d="M1.67,7.66c0-.15-.09,0,0-.11s.4-.23.46-.48.09-.58.32-.74l.22-.16c-.12-.15.08,0-.18-.14L2.05,6C1.79,6,.33,5.81.17,5.75s-.08,0-.15-.08c-.17.26.67.49,1.09.68s.31.71.43,1.14c.05.15,0,.1.13.17Z"/><path class="cls-21" d="M.65,4.38A8.63,8.63,0,0,0,0,5.67c.07.07,0,0,.15.08S1.79,6,2.05,6l.48,0c.26.09.06,0,.18.14l-.22.16a1.89,1.89,0,0,1-.11.36c.07,0,.42-.54.56-.66s.17-.11.2-.3l-.69-.09a2.11,2.11,0,0,1-.29-.06c-.12,0,0,0-.23,0,0-.12,0-.1,0-.15H1.52c0-.12,0,0-.15-.06s0,0-.16,0-.07,0-.29,0H.6c0-.42.07-.29.15-.49a1.06,1.06,0,0,0,0-.47s0,0-.09,0Z"/><path class="cls-22" d="M.68,4.26l0,.12c.08,0,.09,0,.09,0a1.06,1.06,0,0,1,0,.47c-.08.2-.11.07-.15.49H.92c.22,0,.08.12.29,0s.08,0,.16,0,.18-.06.15.06H1.9c.05,0,0,0,0,.15.19,0,.11,0,.23,0a2.11,2.11,0,0,0,.29.06l.28,0L2.64,5.4c0-.11-.05-.26-.07-.38a.85.85,0,0,0,.15-.09c-.25,0-1.66-.79-2-.67Z"/><path class="cls-18" d="M13.82,28.3c0,.13,0,.23-.22.4a1.14,1.14,0,0,1-1.47-.17c-.17-.1-.23-.41-.41-.53a3,3,0,0,0-.36-.13c-.14-.05-.29-.05-.3-.19,0,.6-.07.72.41,1,.2.11.28.1.43.28a.93.93,0,0,0,.37.33,1.69,1.69,0,0,0,1.21-.06c.44-.17.44-.35.43-.65s-.07-.25-.09-.26Z"/><path class="cls-14" d="M2.65,2.72c.27.27.59.79.86,1s.47.59.77.66a11.89,11.89,0,0,1-.64-1.07L3.59,3.2l0,0L2.72,1.92c-.12-.15-.47-.67-.64-.71,0,0,0,0,0,0a0,0,0,0,1,0,0s0,0,0,.06l0,.11c0,.07-.08.1-.1.21a.26.26,0,0,0,.05.24c.12.17.64.71.72.84Z"/><path class="cls-23" d="M2.65,4a13.61,13.61,0,0,1,1,1.11c0,.3-.18.17,0,.37l.06-.09,0,0c.37-.37-.07-.28.68-.37a4.09,4.09,0,0,0-.69-.9l-.14-.14c0,.19.11.18.16.34a1.69,1.69,0,0,1-.39-.16l-.63-.49,0,0-.24-.17c-.16-.1-.11-.11-.32-.24a9,9,0,0,0-.95-.65c0,.16.05.14.18.24l.57.5c.12.13.26.23.37.34s.28.3.33.36Z"/><path class="cls-24" d="M12.17,28.4c.06.19,0,.08,0,.13a1.14,1.14,0,0,0,1.47.17c.26-.17.23-.27.22-.4a1.54,1.54,0,0,0-.25-.7l0,.11a1.85,1.85,0,0,0-.81.26C12.34,28.23,12.36,28.41,12.17,28.4Z"/><path class="cls-25" d="M10.65,8.76c0,.28-.27.3-.09.61a2.87,2.87,0,0,0,.38.49l.25.05V9.79c.48,0,.24-.53.22-.68.23.1.19.31.25.58l.09,0a.9.9,0,0,0-.68-.86l-.12,0h-.06c.29-.4,1-.08,1.12-.09V8.46a.88.88,0,0,0-.82-.16.7.7,0,0,0-.42.32C10.7,8.72,10.74,8.69,10.65,8.76Z"/><path class="cls-26" d="M12.17,28.4c.19,0,.17-.17.63-.43a1.85,1.85,0,0,1,.81-.26l0-.11c-.07-.07-.06-.09-.15-.12a.84.84,0,0,0-.46-.06c.07-.15,0,0,.12-.15-.34,0-.19,0-.36-.18a.87.87,0,0,0-.8.45.51.51,0,0,0,.09.58C12.08,28.24,12.08,28.34,12.17,28.4Z"/><path class="cls-23" d="M6.88,11c0,.27,0,.32.14.47s.23.08.41.15.07.06,0-.07-.21-.32-.15-.67a1,1,0,0,1,.38-.5.61.61,0,0,1,1,.42c.08.14,0,.24,0,.43l.07,0c.18-.1.23-.24.29-.47a.56.56,0,0,0-.12-.5l-.1-.14c-.2-.23-1,0-1.2.15S6.91,10.73,6.88,11Z"/><path class="cls-27" d="M14.06,18.58c-.13.17-.11,0-.21.28s-.13.13-.16.32a1,1,0,0,1,1.43.4c.12.36-.06.36-.11.56.25,0,.29-.32.3-.51s0-.18.09-.24.09,0,.14-.16a2,2,0,0,0-.56-.56,1,1,0,0,0-.92-.09Z"/><path class="cls-15" d="M12.37,17c0-.18-.08-.19-.15-.32s0-.19,0-.36a2.93,2.93,0,0,0-1.3.06c.09.17,0,0,.16.15-.23.33.07.29-.19.63.46-.09,1.05,0,1.44-.16Z"/><path class="cls-2" d="M10.93,15.69c0,.63,1,.47,1.26.44l0-.8a3.15,3.15,0,0,0-.84.12h0l-.2.13h0l-.13.09Z"/><path class="cls-28" d="M7.43,11.57a.93.93,0,0,0,.74-.15,2.48,2.48,0,0,1-.41,0,.77.77,0,0,1-.16-.27L7.74,11l-.06-.26c.34-.33.51-.11.64,0s0,0,.07.07c0-.12-.08-.22,0-.32a.54.54,0,0,1,.19.53c0,.21,0,.16.06.21a1.34,1.34,0,0,0,0-.46.61.61,0,0,0-1-.42,1,1,0,0,0-.38.5c-.06.35.15.49.15.67Z"/><path class="cls-26" d="M13.4,26.5c0-.07,0,0,0-.06a3.08,3.08,0,0,0-1.11.15,2.71,2.71,0,0,0-.41.23l-.23.09c-.19.07-.13,0-.15.16a.47.47,0,0,0,.52,0,13.73,13.73,0,0,1,1.38-.36l0-.24Z"/><path class="cls-14" d="M5.84,3.21C6,3.14,6,3,6.2,3c.27-.26.6-.12.93-.13,0-.2-.07-.19-.22-.24A2.64,2.64,0,0,1,6,2.3c-.18-.14,0-.06-.23-.11a3.45,3.45,0,0,0,0,1Z"/><path class="cls-29" d="M11.93,19c-.19.13-.42.12-.58.31a.75.75,0,0,0-.23.64v0c.36,0,.34-.23.56-.36a2.15,2.15,0,0,1,.66-.24c.1-.46,0-.45-.41-.37Z"/><path class="cls-11" d="M6.73,8.25c-.19.2-.56.38-.52.84.31.36.38,0,.73-.24s.25-.28,0-.66l-.25.06Z"/><path class="cls-30" d="M12.45,18.13c.1.17.26.23.38.39.08,0,.14.12.08-.14s-.3-.12-.33-.47c.22.07.2.22.4.31,0-.26-.22-.36-.21-.49s0,0,0-.08,0,0,.11.13l.08.14a1.4,1.4,0,0,0,.18.32c.06-.08.05-.1.06-.24l.06,0,.08-.06c0-.18,0-.13-.14-.27s-.3-.47-.57-.28a.79.79,0,0,0-.2.76Z"/><path class="cls-25" d="M6.88,11c0-.29.47-.63.73-.77s1-.38,1.2-.15c.08,0,.09.07.06-.06a1.73,1.73,0,0,0-1.49,0c-.16.09-.85.66-.78,1l.13.07c.14-.06,0,0,.15-.11Z"/><path class="cls-29" d="M12.15,18.76c0-.16.07-.07,0-.28l-.12-.08a1.49,1.49,0,0,0-.83.22c-.13.09-.14.16-.24.28s-.19.18-.08.37.46-.5,1.22-.51Z"/><path class="cls-31" d="M8.17,11.42c.19-.09.2-.32.22-.56-.06,0,0,0-.07-.07s-.3-.38-.64,0l.06.26-.14.19a.77.77,0,0,0,.16.27,2.48,2.48,0,0,0,.41,0Z"/><path class="cls-11" d="M10.83,7.16c-.27,0-.43,0-.65.07a.52.52,0,0,0,.18.47,1.53,1.53,0,0,0,.8-.11l0-.06C11.21,7.26,11,7.29,10.83,7.16Z"/><path class="cls-29" d="M12.17,20.11c.13-.11.18-.08.32-.12s.11,0,.12-.17-.06-.18-.08-.26l-.21,0c-.23.09-.34,0-.5.19s-.26.23-.16.5C11.87,20.37,12,20.23,12.17,20.11Z"/><path class="cls-1" d="M8.65,10.82a1.34,1.34,0,0,1,0,.46s-.08,0-.06-.21a.54.54,0,0,0-.19-.53c0,.1,0,.2,0,.32s0,.47-.22.56a.93.93,0,0,1-.74.15c.07.13,0,0,0,.07s-.26,0-.41-.15-.18-.2-.14-.47c-.13.1,0,.05-.15.11l-.13-.07c-.07-.34.62-.91.78-1a1.73,1.73,0,0,1,1.49,0c0,.13,0,0-.06.06l.1.14a.56.56,0,0,1,.12.5c-.06.23-.11.37-.29.47l-.07,0c0-.19.06-.29,0-.43ZM4.76,12.57a7.65,7.65,0,0,0,.41.81c.19,0,.06,0,.17.17a1.83,1.83,0,0,1,.13.16c0,.07.06.13.1.21s.07.08.12.17L6.86,15.9c.23.35,0,.28.2.34.16-.19-.58-1.2-.75-1.5l-.07-.12-.93-1.89a11,11,0,0,1-.81-1.91l.22,0a1.71,1.71,0,0,1,.22-.51,3,3,0,0,1,.48-1c.08-.11.18-.16.18-.25,0,.34-.14,0-.15.49.13,0,.09,0,.21,0s.1,0,.25-.05h.2v.4s0,0,.15.05a.69.69,0,0,0,0,.2l0,.12v0c.12.28.15.2.23.24,0,.33-.44.63.15,1.46.11.14.17.16.26.27s0,.06.23.36l.07.12c.08.14.05-.07.35.24.44.46.1.48.64.56a2.4,2.4,0,0,0,.6,0L9,13.4c.25-.52,0-.28,1.18-.48a3.75,3.75,0,0,0,.91-.2,1.11,1.11,0,0,0,.42-.16l.14-.09a.88.88,0,0,0,.28-.13l.13-.12,0,0a1.18,1.18,0,0,1,.41-.34.58.58,0,0,0,.23-.32c0-.13,0-.13.1-.23a1.14,1.14,0,0,1,.14-.16c.21-.15.5.06.56-.19a.59.59,0,0,0,0-.14c0-.38,0-.25-.31-.65l-.1-.12c-.09-.12-.09-.2-.32-.54l-.54-.76c-.13-.14-.05-.07-.11-.27,0,.14,0,.11-.13.17s-.83-.31-1.12.09H11l.12,0a.9.9,0,0,1,.68.86l-.09,0c-.15.28.16-.12-.08.11l-.2.14c-.11.07,0,.05-.19.06A.32.32,0,0,1,11,10c.07.1.2.09.29.1l.16,0c.11.06,0,0,.05.06.22.37.29.19.46.47a.66.66,0,0,1,.05.49c-.1.35-.67.53-1,.67a2,2,0,0,1-.93.16c0-.28,0-.31.2-.47l.54-.42c.3-.19.26-.29.46-.36s.07,0,.13,0c0-.43-.8,0-.81-.67,0,0,0,0,0,0l.17-.05c.14,0,0,0,.07,0l0-.09a2.87,2.87,0,0,1-.38-.49c-.18-.31,0-.33.09-.61L10.41,9a.65.65,0,0,1,.23-.55c.21-.2,0-.15.16-.32s0,0,.06,0l.05,0,0,0-.1,0a1.7,1.7,0,0,1-.38-.08c-.15,0-.1,0-.19-.14s-.12-.1-.19-.18a.4.4,0,0,1,.17-.42,1,1,0,0,1,.58,0l.23,0A.39.39,0,0,0,10.87,7l-.09,0c-.07,0,0,0-.13,0A2.54,2.54,0,0,0,9.26,7l-.6.18a9,9,0,0,0-1,.49L6.87,8a1.23,1.23,0,0,0-.23.18c.08.13,0,0,.09.05L7,8.19c.21.38.37.39,0,.66s-.42.6-.73.24c-.22-.17.16-.53.24-.67-.16.05-.14.09-.29.14a5,5,0,0,1,1.19-.91c.93-.52,2.59-1.16,3.66-.81.32.1.32.12.42.31l0,0a1,1,0,0,0,.45.37c.15-.07.08-.07.22-.14l.63.52.12.1.37.31c.32.17.33.24.57.53s.28.24.65.69c.08.1.15.14.22.23.35.41.71,1,1,1.31a1.13,1.13,0,0,0,.16.26c.14.21.06.21.22.27a5.4,5.4,0,0,0-.78-1.38l-.72-.88c-.13-.12-.07-.12-.21-.27l-2-2.29c0-.29.08-.33.1-.58s.29-1,.09-1.22c-.08.06,0,0-.1,0l-.19,0c-.31,0-.43.14-.75.22s-.82.25-1,.16a.37.37,0,0,1-.24-.12h0L10,5.21c-.23-.15-.27-.35-.57-.4,0,.19.34.37.47.49s.51.61,1,.5a1.37,1.37,0,0,1,.44-.06c.4,0,.15-.16.87-.15a2.18,2.18,0,0,1,.05.39,5.07,5.07,0,0,1-.18,1.08c-.27,0-.09,0-.22-.09a1.27,1.27,0,0,0-.61-.48,2,2,0,0,0-.85-.12l-.61.12c-.17,0-.47.08-.66.14s0,.06-.25.1a1.86,1.86,0,0,0-.59.19c-.42.21-.24,0-.49.18a2.65,2.65,0,0,1-.56.3c-.08,0-.15.1-.23.15a.38.38,0,0,1-.13.06c-.35.11,0,0-.41.35A9.37,9.37,0,0,0,5.39,9,3,3,0,0,0,5,9.39a.86.86,0,0,1-.17.24,4.4,4.4,0,0,0-.41.71c-.47,0-.65-.51-1-.52,0,.18.13.21.23.43l.75,1.6a3.3,3.3,0,0,1,.32.72Z"/><path class="cls-2" d="M2.59,12.28c.27.59.6,1.29,1,1.94a10.08,10.08,0,0,0,.53.92c.15.21.51.72.48,1-.66.29-.52.32-.9.2,0-.38,0-.15-.1-.45s-.25-.52-.3-.67a1.11,1.11,0,0,0-.07-.26L3,14.45c-.13-.29,0-.17-.16-.47a2.21,2.21,0,0,1-.14-.51,6.43,6.43,0,0,1-.09-1.19ZM2.74,7.1s0,0,0,0A.18.18,0,0,0,2.83,7c0-.07,0-.17,0-.27a1.67,1.67,0,0,1,.06-.2,1.69,1.69,0,0,0,0-.24c0-.18.31-.61.53-.57a8.56,8.56,0,0,0,.18,1.21c.07.31.28.85.3,1.12-1.21.19-1.24.51-1.24-.28,0-.22,0-.45,0-.67ZM4.58,9.23v.21H4.28v.33c-.21.05-.29.17-.49,0a.88.88,0,0,1-.36-.36A4.31,4.31,0,0,0,2.89,9c-.14-.12-.15,0-.18-.19A6.76,6.76,0,0,1,4,8.4a1.13,1.13,0,0,0,.36-.22,1.81,1.81,0,0,1,0-.71,13.89,13.89,0,0,1,2,0l-.07.37c0,.19-.09.08-.24.22s0,.11-.25.22-.32.58-.61.75-.12.11-.28.17l-.07,0A.69.69,0,0,1,4.58,9.23Zm3.81-4.6c.26-.14.51.08.77.26a5.29,5.29,0,0,1,.75.66c.05.07.58.47.13.63a5,5,0,0,1-1.23.18l-.28.06c-.09,0,0,0-.07,0l-.11.07c-.27.12,0-.06-.45.22a1.75,1.75,0,0,1-.66.32c-.07,0-.17,0-.19-.09a3,3,0,0,1,.17-.73,4.64,4.64,0,0,1,.54-.88L8.07,5c.09-.1,0-.1.13-.2l.1-.09.09-.06Zm-5,.63S3.05,5,3,5A23,23,0,0,0,.79,4.16c0-.2.09-.08.06-.33,0-.09-.08-.19-.1-.28a2,2,0,0,0,0-.33,1.1,1.1,0,0,1-.09-.29c-.05-.26-.05,0-.13-.28s-.07-.44.29-.13c.1.08.12.08.22.15s.14.21.41.36a2.36,2.36,0,0,1,.44.32C2.3,3.79,2.57,4,3,4.48l.57.59c0,.12,0,.22-.12.19Zm.07-1.53,0,0h0s0,0,0,0,.06.13.16.18l.14.14a4.09,4.09,0,0,1,.69.9c-.75.09-.31,0-.68.37l0,0-.06.09c-.16-.2,0-.07,0-.37A13.61,13.61,0,0,0,2.65,4c-.13-.18-.17-.13-.3-.31s-.06-.07-.18-.14l-.26-.24a1.67,1.67,0,0,1-.18-.23c-.11-.11-.24-.13-.35-.25s-.08-.11-.16-.18-.15-.1-.17-.12L.47,2C0,1.83.19,1.7.11,1.78A1.87,1.87,0,0,1,1,1.7c.24,0,.65-.06.82.08a5.87,5.87,0,0,0,.83.94c-.08-.13-.6-.67-.72-.84a.26.26,0,0,1-.05-.24c0-.11.07-.14.1-.21l0-.11s0-.05,0-.06a0,0,0,0,0,0,0s0,0,0,0c.17,0,.52.56.64.71l.85,1.26,0,0,.05.12a11.89,11.89,0,0,0,.64,1.07C4,4.32,3.91,4,3.51,3.73ZM3.31,1a.62.62,0,0,0,.08.24,2.78,2.78,0,0,0,.32.56L4,2.4l.05.1s0,0,0,0,0,0,.07.06l0-.15a.38.38,0,0,0,.16-.22c.09-.22.09-.14.31-.35s.32,0,.31-.77c0-.23,0-.47,0-.7a13.53,13.53,0,0,1,.64,2.28c0,.05,0,0,.06.12a.8.8,0,0,1,0,.15c0,.16,0,.23.08.34s.06,0,.08-.09a3.45,3.45,0,0,1,0-1c.25.05,0,0,.23.11a2.64,2.64,0,0,0,.88.34c.15,0,.23,0,.22.24-.33,0-.66-.13-.93.13a1.5,1.5,0,0,1,1.52.38l.16.13,0,0,0,0,0,0c.51.42.47.37.17.8L6.76,6.31c-.21.32-.08.29-.28.33a.64.64,0,0,1-.06.15c-.08.13,0,.06-.13.12l0,.08-2.19,0,0,0A.37.37,0,0,1,4,6.69a1.84,1.84,0,0,0,0-.28c-.1-.46-.17-.9.11-1.16l.11-.18c.44-.08.1-.16.55-.26.11,0,.1,0,.16-.06l0,0c0,.09,0-.06.05-.07l0,0-.49-.77c-.18-.22-.07-.24-.24-.4A7.25,7.25,0,0,1,3.17,2.1l-.74-1C2.35,1,2.08.82,2.06.69V.63a.1.1,0,0,0,0,0H1.92c0,.19-.12,1-.31,1.08A11.64,11.64,0,0,1,0,1.71c-.08.46.75,2,.65,2.55.38-.12,1.79.66,2,.67A.85.85,0,0,1,2.57,5c0,.12.06.27.07.38l.09.27-.28,0,.69.09c0,.19-.06.17-.2.3s-.49.62-.56.66a1.89,1.89,0,0,0,.11-.36c-.23.16-.26.5-.32.74s-.28.36-.46.48-.07,0,0,.11l.44,0,.14.67c0,.16.14.56.14.61A4.74,4.74,0,0,0,2.2,10.3a12.67,12.67,0,0,0,.19,1.37,7,7,0,0,0,.85,3.94c.53,1.12.54,1.29,1.12,1.13A3.74,3.74,0,0,1,5,16.58c.33.16.18.31.78.19a8,8,0,0,0,1.57-.51A4.67,4.67,0,0,0,8,15.8c0-.31-.27-.49-.32-.75a1.09,1.09,0,0,0,.35.07l.17,0a2.57,2.57,0,0,1-.57-.38c-.23,0-.08,0-.24-.07h0l-.15,0a.42.42,0,0,0,.13.35L7.4,15a.59.59,0,0,1,.22.45c0,.15-.15.24-.21.31s0,.05-.16.12a.85.85,0,0,1-.33-.37,5.31,5.31,0,0,0-.44-.78c-.17-.21-.86-1.49-1-1.81l-.08-.14c-.06-.07,0,0-.07-.07l.93,1.89.07.12c.17.3.91,1.31.75,1.5-.18-.06,0,0-.2-.34L5.69,14.09c-.05-.09-.08-.1-.12-.17s-.06-.14-.1-.21a1.83,1.83,0,0,0-.13-.16c-.11-.17,0-.12-.17-.17,0,.23.08.21.18.37l.09.18.7,1.15c.16.36.1.05.31.47.13.26.31.36.21.55s-.11.07-.46.19-1,.25-1.27-.14c-.12-.17,0-.15-.17-.32a.29.29,0,0,1-.07-.08l-.07-.15a1.69,1.69,0,0,1-.31-.48,2.18,2.18,0,0,0-.22-.4c-.21-.24-.08,0-.27-.4,0-.1,0-.1-.08-.22L3.2,13c-.06-.16-.08-.35-.14-.54l-.21-.76c0-.11,0-.22,0-.33,0-.26,0-1-.1-1.19,0,.24,0,.1,0,.15,0-.25-.05-.24,0-.45a1.72,1.72,0,0,0,0-.52c.18,0,.17,0,.37.27.43.51.22.36.37.56a4.63,4.63,0,0,1,.42.87,2.25,2.25,0,0,1,.12.21c.05.09.05.15.1.24l.34.63a1.6,1.6,0,0,0,.1.23c.1.18.14.16.2.19a3.3,3.3,0,0,0-.32-.72l-.75-1.6c-.1-.22-.21-.25-.23-.43.35,0,.53.53,1,.52a4.4,4.4,0,0,1,.41-.71A.86.86,0,0,0,5,9.39,3,3,0,0,1,5.39,9,9.37,9.37,0,0,1,6.44,8c.43-.34.06-.24.41-.35A.38.38,0,0,0,7,7.55c.08,0,.15-.11.23-.15a2.65,2.65,0,0,0,.56-.3c.25-.19.07,0,.49-.18a1.86,1.86,0,0,1,.59-.19c.2,0,.09-.05.25-.1s.49-.09.66-.14l.61-.12a2,2,0,0,1,.85.12,1.27,1.27,0,0,1,.61.48c.13.12-.05.06.22.09A5.07,5.07,0,0,0,12.23,6a2.18,2.18,0,0,0-.05-.39c-.72,0-.47.14-.87.15a1.37,1.37,0,0,0-.44.06c-.46.11-.72-.25-1-.5s-.43-.3-.47-.49c.3.05.34.25.57.4l.18.12h0a.37.37,0,0,0,.24.12c0-.24-.44-.5-.68-.65a2.53,2.53,0,0,1-.4-.27c-.36-.33-.11-.28-.27-.35l-.52-.34a10.44,10.44,0,0,0-1.1-.73c0-.25.14-.28.14-.52-.34-.3-1.74-.25-1.95-.69A14.06,14.06,0,0,0,4.9,0a3.66,3.66,0,0,0-.81.48C4,.53,3.35,1,3.31,1Z"/><path class="cls-3" d="M10.83,7.16c.16.13.38.1.35.37l0,.06a1.53,1.53,0,0,1-.8.11.52.52,0,0,1-.18-.47C10.4,7.12,10.56,7.18,10.83,7.16ZM6.21,9.09c0-.46.33-.64.52-.84-.13,0,0,.08-.09-.05A1.23,1.23,0,0,1,6.87,8l.75-.4a9,9,0,0,1,1-.49L9.26,7a2.54,2.54,0,0,1,1.39,0c.08,0,.06,0,.13,0l.09,0a.39.39,0,0,1,.19.23l-.23,0a1,1,0,0,0-.58,0,.4.4,0,0,0-.17.42c.07.08.12.11.19.18s0,.1.19.14a1.7,1.7,0,0,0,.38.08l.1,0,0,0-.05,0c-.09.06,0,0-.06,0s0,.12-.16.32a.65.65,0,0,0-.23.55l.24-.23c.09-.07,0,0,.13-.14a.7.7,0,0,1,.42-.32.88.88,0,0,1,.82.16v.19c.15-.06.09,0,.13-.17.06.2,0,.13.11.27l.54.76c.23.34.23.42.32.54l.1.12c.3.4.31.27.31.65a.59.59,0,0,1,0,.14c-.06.25-.35,0-.56.19a1.14,1.14,0,0,0-.14.16c-.09.1-.11.1-.1.23a.38.38,0,0,0,.13-.06c0,.37-.37,1.88-1.07,2.09a2.65,2.65,0,0,1-1.37,0l-.9-.29-.15,0-.15-.1a1.8,1.8,0,0,1,.77-.06s0,0,0,0c0,.31.43.16.64.11A6.39,6.39,0,0,0,12,12.63a3.49,3.49,0,0,0,.5-.47v-.3a1.18,1.18,0,0,0-.41.34l0,0-.13.12a.88.88,0,0,1-.28.13l-.14.09a1.11,1.11,0,0,1-.42.16,3.75,3.75,0,0,1-.91.2c-1.14.2-.93,0-1.18.48l-.12.18a2.4,2.4,0,0,1-.6,0c-.54-.08-.2-.1-.64-.56-.3-.31-.27-.1-.35-.24l-.07-.12c-.27-.3-.06-.16-.23-.36s-.15-.13-.26-.27c-.59-.83-.15-1.13-.15-1.46-.09,0-.11,0-.23-.24v0l0-.12a.69.69,0,0,1,0-.2c-.2,0-.1,0-.15-.05v-.4h-.2c-.15,0-.12.06-.25.05s-.08-.06-.21,0c0-.47.18-.15.15-.49,0,.09-.1.14-.18.25a3,3,0,0,0-.48,1L5,10.16a1.1,1.1,0,0,1-.06.33l-.07.26c0,.22,0-.19,0,.08,0,.09.21,0,.42,0l.36.53c.32.7.07.11.39.54a3.78,3.78,0,0,0,.26.38l.24.35c.12.24.1.11.25.39a.86.86,0,0,0,.31.32c.21.15.34.42.63.59s.29.13.43.21h.05l0,0h0l.09,0a1.17,1.17,0,0,0,.23.11c.19,0,.1,0,.24,0s0,.07.23.1.95,0,1.23,0l.38-.07a1.66,1.66,0,0,1,.7-.12l0-.1c.32,0,.38,0,.6-.13a3.73,3.73,0,0,0,.53-.51c.53-.51.27-.49.45-.67a1.66,1.66,0,0,0,.38-.45c.21-.32.2-.1.27-.36a2.44,2.44,0,0,0,.1-.62c0-.28,0-.48,0-.75L13,9.59a11.05,11.05,0,0,1-.72-1.11c-.34-.54-.17-.4-.33-.9.3,0,.05,0,.22.09l.43.27a3.93,3.93,0,0,1,1,.87c.08.09.1.21.19.3l.89,1c.07.1.13.16.2.25l.11.15a2.49,2.49,0,0,1,.26.41c.08.17.1.08.21.27s.12.19.12.34a2.23,2.23,0,0,1-.8.4,2.78,2.78,0,0,1-.82.37v-.09l0,.06,0,0,0,0-.09.39.26,0A8,8,0,0,0,15,12.24a6.28,6.28,0,0,0,1-.54c-.07,0-.09-.07-.13-.12-.22-.34-.29-.12-.28-.49-.24-.31-.6-.9-1-1.31-.07-.09-.14-.13-.22-.23-.37-.45-.49-.5-.65-.69s-.25-.36-.57-.53L12.87,8l-.12-.1-.63-.52c-.14.07-.07.07-.22.14a1,1,0,0,1-.45-.37l0,0c-.1-.19-.1-.21-.42-.31-1.07-.35-2.73.29-3.66.81a5,5,0,0,0-1.19.91c.15-.05.13-.09.29-.14-.08.14-.46.5-.24.67Z"/><path class="cls-4" d="M5.17,13.38a7.65,7.65,0,0,1-.41-.81c-.06,0-.1,0-.2-.19a1.6,1.6,0,0,1-.1-.23l-.34-.63c0-.09,0-.15-.1-.24a2.25,2.25,0,0,0-.12-.21,4.63,4.63,0,0,0-.42-.87c-.15-.2.06,0-.37-.56-.2-.23-.19-.26-.37-.27a1.72,1.72,0,0,1,0,.52c-.05.21,0,.2,0,.45,0-.05,0,.09,0-.15.07.19.06.93.1,1.19,0,.11,0,.22,0,.33l.21.76c.06.19.08.38.14.54l.54,1.09c0,.12,0,.12.08.22.19.41.06.16.27.4a2,2,0,0,1,.22.41,1.75,1.75,0,0,0,.31.47l.07.15a.29.29,0,0,0,.07.08c.14.17,0,.15.17.32.26.39.86.27,1.27.14s.4-.07.46-.19-.08-.29-.21-.55c-.21-.41-.15-.11-.31-.47l-.7-1.15-.09-.18c-.1-.16-.14-.14-.18-.37Z"/><path class="cls-5" d="M10.82,22.57a2.7,2.7,0,0,1-.24,1,1.62,1.62,0,0,1-.2.42c-.18.37.11,0-.37.92a4.52,4.52,0,0,1-.47.85c-.1.15-.16.3-.25.41-.2-.05-.24-.21-.52-.25-.1.07-.32.3-.26.49s.1.13.07.31a2,2,0,0,1-.61.85.94.94,0,0,0-.31.34,2.27,2.27,0,0,1,.94.57l.06.05,0,0c.07.07,0,.11.3.11a.47.47,0,0,0,.11-.36c.7,0-.09-1.06-.47-1.26L8.5,27c.1,0,0,0,.08-.13v-.05a2.6,2.6,0,0,0,.1-.25c.41,0,.3.12.63.37s.19.4.36.57c.4.41.86,0,.8-.76-.24.11-.17.53-.45.61l-.41-.94c.37-.39,0,.06.48-.6.27-.41.17-.37.31-.47s.08,0,.16-.14-.05-.32.05-.5.18-.11.26-.29.06-.12.25-.32.1-.18.19-.38.25-.17.46-.65a1.41,1.41,0,0,1,.52-.59c0,.07,0,.11,0,.23h.07a.69.69,0,0,1,.3-.26l0-.53a3.56,3.56,0,0,1-.39-.13,1,1,0,0,1,0-.35l.06-.17v0c0-.2-.7-.16-.75-.15a2.11,2.11,0,0,0-.1.3c0,.17.07.39-.12.36s0-.58,0-.75a1.51,1.51,0,0,0-.26-.12c0,.27,0,.56.16.65-.07,0-.07,0-.21,0l-.17.79c0,.1,0,0,0,.11s0,0-.12.1Z"/><path class="cls-6" d="M4.94,10.29a1.71,1.71,0,0,0-.22.51l-.22,0a11,11,0,0,0,.81,1.91c.06,0,0,0,.07.07l.08.14c.16.32.85,1.6,1,1.81a5.31,5.31,0,0,1,.44.78.85.85,0,0,0,.33.37c.16-.07.06,0,.16-.12s.21-.16.21-.31A.59.59,0,0,0,7.4,15L7.34,15a.42.42,0,0,1-.13-.35l.15,0h0c.16.07,0,.06.24.07l-.4-.34a1.57,1.57,0,0,1-.17-.21C7,14.07,7,14.08,6.87,14s-.09-.13-.16-.21a2.85,2.85,0,0,1-.49-.62,3.12,3.12,0,0,0-.29-.45L5.48,12a.9.9,0,0,1-.14-.22.61.61,0,0,1,0-.17c0-.26-.14-.17,0-.32a.82.82,0,0,1,.34.37c0,.11,0,.06.09.15a1.11,1.11,0,0,1,.2.27,1.18,1.18,0,0,0,.22.27,8.1,8.1,0,0,0,.62.83c.12.11,0,.14.19.3.55.55.29.09.62.56l.14.13a3.74,3.74,0,0,0,.83.62,1.39,1.39,0,0,0,.76.21,4.51,4.51,0,0,0,.9,0c.38,0,.69.05,1.05-.26l0,0c.11-.09.15-.05.36-.2l0,0,0,0,.09-.05.15-.08.5-.36h0l0,0,.27-.22c.1,0,.08,0,.2-.13s.08-.08.2-.18.08-.16.16-.31,0,0,0-.07c.36-.4.34-.88.48-1.05l0,.34,0,0,0,0,0-.06c.05-1.43-.15-1.36-.18-1.49l0,0c0,.27,0,.47,0,.75a2.44,2.44,0,0,1-.1.62c-.07.26-.06,0-.27.36a1.66,1.66,0,0,1-.38.45c-.18.18.08.16-.45.67a3.73,3.73,0,0,1-.53.51c-.22.14-.28.12-.6.13l0,.1a1.66,1.66,0,0,0-.7.12l-.38.07c-.28,0-1,0-1.23,0s-.07-.07-.23-.1-.05,0-.24,0a1.17,1.17,0,0,1-.23-.11l-.09,0h0l0,0H8.18c-.14-.08-.28-.12-.43-.21s-.42-.44-.63-.59a.86.86,0,0,1-.31-.32c-.15-.28-.13-.15-.25-.39l-.24-.35a3.78,3.78,0,0,1-.26-.38c-.32-.43-.07.16-.39-.54l-.36-.53c-.21,0-.4.06-.42,0-.07-.27,0,.14,0-.08l.07-.26A1.1,1.1,0,0,0,5,10.16l-.06.13Z"/><path class="cls-7" d="M11.92,26.63a7.45,7.45,0,0,1,.23-1.2l.15-.89c0-.21,0-.07.12-.22s.08-.21.1-.26.21-1.38.27-1.51.23.1.25.22,0,.16,0,.32a2.13,2.13,0,0,0,.07.27.92.92,0,0,1,0,.37c0,.12,0,.2,0,.29,0,.67,0,.59-.14.82s-.07.08,0,.22c.08.33.11.12,0,.53a2.06,2.06,0,0,1-.17.53c-.07.1,0-.05-.07.1l-.81.41Zm-.8-6.7c0,.1,0,.57,0,.75s0,.63,0,.69l-.31,1.2c.12-.07,0,.05.12-.1s0,0,0-.11l.17-.79c.14,0,.14,0,.21,0-.2-.09-.18-.38-.16-.65a1.51,1.51,0,0,1,.26.12c0,.17-.27.72,0,.75s.1-.19.12-.36a2.11,2.11,0,0,1,.1-.3c.05,0,.77-.05.75.15v0l-.06.17a1,1,0,0,0,0,.35,3.56,3.56,0,0,0,.39.13l0,.53a.69.69,0,0,0-.3.26h-.19a.27.27,0,0,0,0,.12l.26,0a12.53,12.53,0,0,1-.39,2.25c0,.26-.12.45-.17.69-.29,0-.36,0-.54.2-.45.48-.09.77-.19,1.1a.74.74,0,0,0-.05.33l0,.28s0,0,0,0,.16.14.3.19a3,3,0,0,1,.36.13c.18.12.24.43.41.53,0-.05.1.06,0-.13s-.09-.16-.16-.28a.51.51,0,0,1-.09-.58.87.87,0,0,1,.8-.45c.18.2,0,.15.36.18-.11.11-.05,0-.12.15a.84.84,0,0,1,.46.06c-.13-.24-.3-.34-.35-.48.11-.09.11,0,.37-.19,0-.21,0-.25,0-.31l0,.24A13.73,13.73,0,0,0,12,27.1a.47.47,0,0,1-.52,0c0-.17,0-.09.15-.16l.23-.09a2.71,2.71,0,0,1,.41-.23,3.08,3.08,0,0,1,1.11-.15c-.07-.1,0-.07-.39-.05,0-.31.14-.66.18-1s0-.21.12-.48,0-.26,0-.46a.74.74,0,0,0,.18-.52c0-.23.07-.4.08-.63s.08-.32.1-.59,0-.43,0-.7c.32,0,.46,0,.57-.23-.62.23-.44.27-.84-.05a.65.65,0,0,1-.18-.19l-.08,0h0c-.22,0-.39-.4-.64-.57v-.31c-.22,0-.06.06-.23.08a2.35,2.35,0,0,1-.26-.29l.49-.25c.19-.06.31.15.57,0l-.07,0h0s-.24,0-.27-.11,0,0,0,0l-.36.13c-.14.12-.3.26-.51.17-.1-.27,0-.36.16-.5s.27-.1.5-.19l.2-.11,0,0c.15-.1.07,0,.12-.09-.22-.1-.1.13-.33,0a2.15,2.15,0,0,0-.66.24c-.22.13-.2.37-.56.36Z"/><path class="cls-8" d="M4.91,4.75l.16-.06C5,4.88,5,4.84,4.94,5s.09.1.16.21L6.17,6.78c-.07-.21-.18-.25-.23-.43.08,0,0,0,0,0s-.06,0,.07,0,.06.06.06-.08l-.21-.43a.49.49,0,0,1,0-.17c0-.18,0-.08.06-.09s-.09.08.08,0a2.79,2.79,0,0,1,0-.41c0-.37.07-.08.11,0,0-.41,0-.69,0-1.08s.16-.48.51-.57c0-.09,0,0,0-.1l-.08-.07a1.56,1.56,0,0,1,.5.06c.16.05.19.12.35.17s.1,0,.29.16l.35.35c-.15,0,0-.06-.09.11s-.08.07-.31.41L7.45,5a7.83,7.83,0,0,0-1,1.61c.2,0,.07,0,.28-.33L8.11,4.38c.3-.43.34-.38-.17-.8l0,0,0,0,0,0-.16-.13A1.5,1.5,0,0,0,6.2,3c-.16,0-.19.13-.36.2,0,.1,0,0-.08.09S5.7,3.12,5.68,3a.8.8,0,0,0,0-.15c0-.1,0-.07-.06-.12a3.22,3.22,0,0,1,.11.5c.07.33.07.16-.27.79-.1.2-.12.27-.23.35l0,0-1-1.71s0,0-.07-.06,0,0,0,0L4,2.4l-.31-.58a2.78,2.78,0,0,1-.32-.56A.62.62,0,0,1,3.31,1C3,1.11,2.9,1,2.68.88S2.3.69,2.08.6a.1.1,0,0,1,0,0V.69c0,.13.29.3.37.41l.74,1A7.25,7.25,0,0,0,4.23,3.45c.17.16,0,.18.24.4L5,4.62v0s0,.16,0,.07l0,0Z"/><path class="cls-9" d="M10.93,15.69l.13-.09h0l.2-.13h0a3.15,3.15,0,0,1,.84-.12l0,.8c-.29,0-1.29.19-1.26-.44Zm-3.3-1a2.57,2.57,0,0,0,.57.38l-.17,0c.05,0,0,0,.08,0l.27.07a2.53,2.53,0,0,1,.36.12,4.71,4.71,0,0,0,.85.1c.89,0,1.06,0,1.26.67.24.05,0,.1.64.09.26,0,.51,0,.76,0,.08-.54,0-.77.23-1.19a13.4,13.4,0,0,1,.73-1.15,6.47,6.47,0,0,0,.45-.92c.1-.23.16-.07.31-.2l-.26,0,.09-.39,0-.34c-.14.17-.12.65-.48,1.05,0,0,0,0,0,.07s0,.2-.16.31-.09,0-.2.18-.1.09-.2.13l-.27.22,0,0h0l-.5.36-.15.08-.09.05,0,0,0,0c-.21.15-.25.11-.36.2l0,0c-.36.31-.67.23-1.05.26a4.51,4.51,0,0,1-.9,0,1.39,1.39,0,0,1-.76-.21,3.74,3.74,0,0,1-.83-.62l-.14-.13c-.33-.47-.07,0-.62-.56-.17-.16-.07-.19-.19-.3a8.1,8.1,0,0,1-.62-.83,1.18,1.18,0,0,1-.22-.27,1.11,1.11,0,0,0-.2-.27c-.08-.09,0,0-.09-.15a.82.82,0,0,0-.34-.37c-.11.15,0,.06,0,.32a.61.61,0,0,0,0,.17.9.9,0,0,0,.14.22l.45.67a3.12,3.12,0,0,1,.29.45,2.85,2.85,0,0,0,.49.62c.07.08.08.13.16.21s.12.09.19.19a1.57,1.57,0,0,0,.17.21l.4.34Z"/><path class="cls-4" d="M13.72,10.7s0,0,0,0,.23.06.18,1.49v.09a2.78,2.78,0,0,0,.82-.37,2.23,2.23,0,0,0,.8-.4c0-.15,0-.16-.12-.34s-.13-.1-.21-.27a2.49,2.49,0,0,0-.26-.41l-.11-.15c-.07-.09-.13-.15-.2-.25l-.89-1c-.09-.09-.11-.21-.19-.3a4.15,4.15,0,0,0-1-.87l-.44-.27c-.17-.09.08-.1-.22-.09.16.5,0,.36.33.9A11.05,11.05,0,0,0,13,9.59Z"/><path class="cls-10" d="M7.66,28a1.59,1.59,0,0,0-.15.21c-.46,1.23,1.1,1,1.38.74.71-.6.16-.48,1.2-.77.18,0,.41,0,.41-.21a3.06,3.06,0,0,1-.07-.4c0-.24.06-.16.08-.37.06-.54-.19-.23.3-1.42.08-.19.17-.37.26-.6s.13-.42.24-.65c.23-.5.47-.89.74-1.42a1.21,1.21,0,0,1,.15-.22.27.27,0,0,1,0-.12h.12c0-.12,0-.16,0-.23a1.41,1.41,0,0,0-.52.59c-.21.48-.4.5-.46.65s0,.22-.19.38-.11,0-.25.32-.19.18-.26.29,0,.28-.05.5-.05.06-.16.14,0,.06-.31.47c-.43.66-.11.21-.48.6l.41.94c.28-.08.21-.5.45-.61.06.77-.4,1.17-.8.76-.17-.17-.07-.34-.36-.57s-.22-.36-.63-.37a2.6,2.6,0,0,1-.1.25v.05c-.06.13,0,.09-.08.13l.14.07c.38.2,1.17,1.24.47,1.26a.47.47,0,0,1-.11.36c-.26,0-.23,0-.3-.11l0,0-.06-.05A2.34,2.34,0,0,0,7.66,28Z"/><path class="cls-4" d="M4.58,9.23a.69.69,0,0,0,.26-.05l.07,0C5.07,9.1,5,9.1,5.19,9s.34-.65.61-.75.06,0,.25-.22.19,0,.24-.22l.07-.37a13.89,13.89,0,0,0-2,0,1.81,1.81,0,0,0,0,.71A1.13,1.13,0,0,1,4,8.4a6.76,6.76,0,0,0-1.27.41c0,.16,0,.07.18.19a4.31,4.31,0,0,1,.54.46.88.88,0,0,0,.36.36c.2.13.28,0,.49,0V9.45h.29Z"/><path class="cls-4" d="M8.39,4.63l-.09.06-.1.09c-.09.1,0,.1-.13.2l-.31.39a4.64,4.64,0,0,0-.54.88A3,3,0,0,0,7.05,7c0,.08.12.09.19.09a1.75,1.75,0,0,0,.66-.32c.45-.28.18-.1.45-.22l.11-.07c.1-.06,0,0,.07,0l.28-.06A5,5,0,0,0,10,6.18c.45-.16-.08-.56-.13-.63a5.29,5.29,0,0,0-.75-.66c-.26-.18-.51-.4-.77-.26Z"/><path class="cls-5" d="M13.32,20.15h-.39c-.26.19-.38,0-.57,0l-.49.25a2.35,2.35,0,0,0,.26.29c.17,0,0,0,.23-.08V21c.25.17.42.58.64.57h0l.08,0a.65.65,0,0,0,.18.19c.4.32.22.28.84.05v0c0-.1,0-.21,0-.28.1-.42,0-.34-.07-.66a.65.65,0,0,0,.17.09c.08-.16,0-.05.11-.15l.1-.16a2.4,2.4,0,0,0,.17-.32c0-.06.06-.1.09-.17s0-.13.06-.2.13-.16.2-.28c0-.36-.67-.66-.91-.46s0,0-.09.17a1,1,0,0,1-.08.15,2.72,2.72,0,0,0-.11.34c-.12.37-.07.35-.25.44l-.18.09,0-.18Z"/><path class="cls-11" d="M6.17,6.78c.06.16,0,.08.12.13s0,0,.13-.12a.64.64,0,0,0,.06-.15A7.83,7.83,0,0,1,7.45,5l.25-.39c.23-.34.2-.15.31-.41S8,4.14,8.1,4.12l-.35-.35c-.19-.19-.12-.11-.29-.16s-.19-.12-.35-.17a1.56,1.56,0,0,0-.5-.06l.08.07s0,0,0,.1c-.35.09-.5.14-.51.57s0,.67,0,1.08c0-.09-.06-.38-.11,0a2.79,2.79,0,0,0,0,.41c-.17.08,0,0-.08,0s0-.09-.06.09a.49.49,0,0,0,0,.17l.21.43c0,.14,0,.06-.06.08s0,0-.07,0,0,0,0,0c0,.18.16.22.23.43Z"/><path class="cls-12" d="M12.37,17c-.39.12-1,.07-1.44.16.26-.34,0-.3.19-.63-.12-.16-.07,0-.16-.15a2.93,2.93,0,0,1,1.3-.06c-.07.17-.15.14,0,.36s.14.14.15.32Zm-1.52-.86v.11a1.7,1.7,0,0,0-.28.06c0,.18.08.29.1.45s0,.37,0,.55l.15.06s0,0,0,0-.14.11-.25.24a1.46,1.46,0,0,0-.3,1.13,1.64,1.64,0,0,0,.81,1.17.75.75,0,0,1,.23-.64c.16-.19.39-.18.58-.31l.36-.09c-.17-.05-.07.06-.14-.11-.76,0-1,.75-1.22.51s0-.26.08-.37.11-.19.24-.28a1.49,1.49,0,0,1,.83-.22c-.06-.12,0,0,0-.14-.33,0-.41,0-.61.09-.52.34-.69.07-.37-.14.1-.07,0,0,.15-.11s.06-.17.57-.15c.24,0,.23.1.39,0,0-.45,0-.39.16-.61l.15-.21a2.91,2.91,0,0,0,.27-.15,2.12,2.12,0,0,0-.08-.38c0-.43.13-.46-.41-.54a1.92,1.92,0,0,1,.21-1c-.27.42-.15.65-.23,1.19-.25,0-.5,0-.76,0-.64,0-.4,0-.64-.09Z"/><path class="cls-13" d="M15.63,11.09c0,.37.06.15.28.49,0,.05.06.11.13.12a.61.61,0,0,0,.19-.83,6.68,6.68,0,0,0-.46-.76c-.3-.47-.65-1-1-1.42a10,10,0,0,0-2.38-2.47c0,.25-.09.29-.1.58l2,2.29c.14.15.08.15.21.27l.72.88A5.4,5.4,0,0,1,16,11.62c-.16-.06-.08-.06-.22-.27a1.13,1.13,0,0,1-.16-.26Z"/><path class="cls-14" d="M6.29,6.91c-.1,0-.06,0-.12-.13L5.1,5.19C5,5.08,5,5.09,4.94,5s.08-.1.13-.29l-.16.06c-.06.06,0,0-.16.06-.45.1-.11.18-.55.26l-.11.18c-.28.26-.21.7-.11,1.16a1.84,1.84,0,0,1,0,.28.37.37,0,0,0,.07.22l0,0L6.24,7l0-.08Z"/><path class="cls-7" d="M12.83,18.52c.09.15.19.2.29.38a.9.9,0,0,0,.14.2l.26.43c.17.42.21.6-.2.62l0,.18.18-.09c.18-.09.13-.07.25-.44a2.72,2.72,0,0,1,.11-.34,1,1,0,0,0,.08-.15c.06-.17-.05-.07.09-.17s.88.1.91.46c-.07.12-.16.17-.2.28s0,.11-.06.2-.06.11-.09.17a2.4,2.4,0,0,1-.17.32l-.1.16c-.07.1,0,0-.11.15a.65.65,0,0,1-.17-.09c.07.32.17.24.07.66,0,.07,0,.18,0,.28l.06-.07.48-.86c.11-.18.2-.14.66-.24a6,6,0,0,0,1.36-.43c.39-.29.26-.07.33-.28l-.4,0a.34.34,0,0,1-.26.26l-.22.05c-.14,0-.09,0-.22.07a1.08,1.08,0,0,1-.21,0l-.24.06a2.34,2.34,0,0,1-.55.05c.09-.31.19-.07.36-.39a1.92,1.92,0,0,0,.13-.64c-.13.06-.09,0-.09.24s-.05.52-.3.51c.05-.2.23-.2.11-.56a1,1,0,0,0-1.43-.4c0-.19.08-.14.16-.32s.08-.11.21-.28l-.19.05-.09-.17a.26.26,0,0,1,.09-.24,2,2,0,0,1,.45.19c.26.12.25.05.53.11a3,3,0,0,0,1,.28.37.37,0,0,0-.25-.12,1.32,1.32,0,0,1-.3-.08,1.55,1.55,0,0,0-.61-.18c0-.23-.05-.2-.23-.29s-.28-.19-.52-.3a2.33,2.33,0,0,0-.7-.18c.09.14.09.09.14.27l-.08.06-.06,0c0,.14,0,.16-.06.24a1.4,1.4,0,0,1-.18-.32l-.08-.14c-.08-.13,0-.05-.11-.13s0,0,0,.08.17.23.21.49c-.2-.09-.18-.24-.4-.31,0,.35.29.3.33.47s0,.13-.08.14Z"/><path class="cls-8" d="M10.44,5.46c.18.09.72-.1,1-.16s.44-.17.75-.22l.19,0c.1,0,0,0,.1,0a8.31,8.31,0,0,0-1.72-.81,5.24,5.24,0,0,0-1-.27,7.84,7.84,0,0,0-1.19-.07l.52.34c.16.07-.09,0,.27.35a2.53,2.53,0,0,0,.4.27c.24.15.64.41.68.65Z"/><path class="cls-15" d="M.79,4.16A23,23,0,0,1,3,5c.08,0,.44.28.47.28s.17-.07.12-.19L3,4.48C2.57,4,2.3,3.79,1.85,3.35A2.36,2.36,0,0,0,1.41,3C1.14,2.88,1.2,2.8,1,2.67S.88,2.6.78,2.52c-.36-.31-.34,0-.29.13s.08,0,.13.28a1.1,1.1,0,0,0,.09.29,2,2,0,0,1,0,.33c0,.09.08.19.1.28,0,.25,0,.13-.06.33Z"/><path class="cls-16" d="M4.18,2.6l1,1.71,0,0c.11-.08.13-.15.23-.35.34-.63.34-.46.27-.79a3.22,3.22,0,0,0-.11-.5A13.53,13.53,0,0,0,5,.41c0,.23,0,.47,0,.7,0,.78-.11.59-.31.77s-.22.13-.31.35a.38.38,0,0,1-.16.22l0,.15Z"/><path class="cls-8" d="M2.65,4c0-.06-.25-.29-.33-.36S2.07,3.41,2,3.28l-.57-.5c-.13-.1-.14-.08-.18-.24a9,9,0,0,1,1,.65c.21.13.16.14.32.24l.24.17,0,0,.63.49a1.69,1.69,0,0,0,.39.16c0-.16-.12-.15-.16-.34s-.1-.08-.16-.18,0,0,0,0h0l0,0c-.27-.22-.59-.74-.86-1a5.87,5.87,0,0,1-.83-.94C1.65,1.64,1.24,1.7,1,1.7a1.87,1.87,0,0,0-.89.08C.19,1.7,0,1.83.47,2l.58.48s.13.08.17.12.07.1.16.18.24.14.35.25a1.67,1.67,0,0,0,.18.23l.26.24c.12.07.08,0,.18.14s.17.13.3.31Z"/><path class="cls-10" d="M11.92,26.63l.81-.41c.08-.15,0,0,.07-.1a2.06,2.06,0,0,0,.17-.53c.09-.41.06-.2,0-.53,0-.14,0-.13,0-.22s.16-.15.14-.81c0-.1,0-.18,0-.3a.92.92,0,0,0,0-.37,2.13,2.13,0,0,1-.07-.27c0-.16.05-.17,0-.32s-.17-.39-.25-.22-.22,1.38-.27,1.51-.08.22-.1.26-.09,0-.12.22l-.15.89a7.45,7.45,0,0,0-.23,1.2Z"/><path class="cls-4" d="M3.55,14.22c-.36-.65-.69-1.35-1-1.94a6.43,6.43,0,0,0,.09,1.19,2.21,2.21,0,0,0,.14.51c.15.3,0,.18.16.47l.21.47a1.11,1.11,0,0,1,.07.26c.05.15.19.34.3.67s.12.07.1.45c.38.12.24.09.9-.2,0-.24-.33-.75-.48-1a10.08,10.08,0,0,1-.53-.92Z"/><path class="cls-5" d="M14.06,18.58a1,1,0,0,1,.92.09,2,2,0,0,1,.56.56c0,.13,0,.08-.14.16a1.92,1.92,0,0,1-.13.64c-.17.32-.27.07-.36.39a2.34,2.34,0,0,0,.55-.05l.24-.06a1.08,1.08,0,0,0,.21,0c.13,0,.08,0,.22-.07l.22-.05a.34.34,0,0,0,.26-.26l.4,0a1,1,0,0,0,0-.45c-.06-.1-.26-.14-.38-.22a1.66,1.66,0,0,0-.76-.38,3,3,0,0,1-1-.28c-.28-.06-.27,0-.53-.11a2,2,0,0,0-.45-.19.26.26,0,0,0-.09.24l.09.17.19-.05Z"/><path class="cls-17" d="M12.08,18.4l.12.08c0,.21,0,.12,0,.28s0,.06.14.11l-.36.09c.37-.08.51-.09.41.37.23.17.11-.06.33,0-.05.1,0,0-.12.09l0,0-.2.11.21,0c0,.08.09.16.08.26s0,.14-.12.17-.19,0-.32.12l.36-.13s0,0,0,0,.25.1.27.11h0l.07,0h.39c.41,0,.37-.2.2-.62l-.26-.43a.9.9,0,0,1-.14-.2c-.1-.18-.2-.23-.29-.38s-.28-.22-.38-.39a1.11,1.11,0,0,1-.27-.2c-.16.12-.15,0-.39,0-.51,0-.47,0-.57.15s-.05,0-.15.11c-.32.21-.15.48.37.14.2-.13.28-.11.61-.09,0,.09,0,0,0,.14Z"/><path class="cls-18" d="M7.51,28.16a1.37,1.37,0,0,0-.13.7c0,.92,1.23.83,1.61.66a5.25,5.25,0,0,0,.49-.33c.25-.13.94-.39,1-.59a1.2,1.2,0,0,0,0-.68c0,.21-.23.17-.41.21-1,.29-.49.17-1.2.77-.28.24-1.84.49-1.38-.74Z"/><path class="cls-3" d="M10.94,9.86l0,.09c-.08,0,.07,0-.07,0l-.17.05s0,0,0,0c0,.67.77.24.81.67-.06,0-.06,0-.13,0s-.16.17-.46.36l-.54.42c-.2.16-.2.19-.2.47a2.15,2.15,0,0,0,.93-.16c.29-.14.86-.32,1-.67a.66.66,0,0,0-.05-.49c-.17-.28-.24-.1-.46-.47-.06-.1.06,0-.05-.06l-.16,0c-.09,0-.22,0-.29-.1a.32.32,0,0,0,.21,0c.22,0,.08,0,.19-.06l.2-.14c.24-.23-.07.17.08-.11-.06-.27,0-.48-.25-.58,0,.15.26.66-.22.68v.12l-.25-.05Z"/><path class="cls-14" d="M2.74,7.1c0,.22,0,.45,0,.67,0,.79,0,.47,1.24.28,0-.27-.23-.81-.3-1.12a8.56,8.56,0,0,1-.18-1.21c-.22,0-.49.39-.53.57a1.69,1.69,0,0,1,0,.24,1.67,1.67,0,0,0-.06.2c0,.1,0,.2,0,.27a.18.18,0,0,1-.07.09s0,0,0,0Z"/><path class="cls-19" d="M12.7,11.54a.58.58,0,0,1-.23.32v.3a3.49,3.49,0,0,1-.5.47,6.39,6.39,0,0,1-1.34.58c-.21,0-.6.2-.64-.11,0,0,0,0,0,0a1.8,1.8,0,0,0-.77.06l.15.1.15,0,.9.29a2.65,2.65,0,0,0,1.37,0c.7-.21,1.07-1.72,1.07-2.09a.38.38,0,0,1-.13.06Z"/><path class="cls-20" d="M1.67,7.66c0-.15-.09,0,0-.11s.4-.23.46-.48.09-.58.32-.74l.22-.16c-.12-.15.08,0-.18-.14L2.05,6C1.79,6,.33,5.81.17,5.75s-.08,0-.15-.08c-.17.26.67.49,1.09.68s.31.71.43,1.14c.05.15,0,.1.13.17Z"/><path class="cls-21" d="M.65,4.38A8.63,8.63,0,0,0,0,5.67c.07.07,0,0,.15.08S1.79,6,2.05,6l.48,0c.26.09.06,0,.18.14l-.22.16a1.89,1.89,0,0,1-.11.36c.07,0,.42-.54.56-.66s.17-.11.2-.3l-.69-.09a2.11,2.11,0,0,1-.29-.06c-.12,0,0,0-.23,0,0-.12,0-.1,0-.15H1.52c0-.12,0,0-.15-.06s0,0-.16,0-.07,0-.29,0H.6c0-.42.07-.29.15-.49a1.06,1.06,0,0,0,0-.47s0,0-.09,0Z"/><path class="cls-22" d="M.68,4.26l0,.12c.08,0,.09,0,.09,0a1.06,1.06,0,0,1,0,.47c-.08.2-.11.07-.15.49H.92c.22,0,.08.12.29,0s.08,0,.16,0,.18-.06.15.06H1.9c.05,0,0,0,0,.15.19,0,.11,0,.23,0a2.11,2.11,0,0,0,.29.06l.28,0L2.64,5.4c0-.11-.05-.26-.07-.38a.85.85,0,0,0,.15-.09c-.25,0-1.66-.79-2-.67Z"/><path class="cls-18" d="M13.82,28.3c0,.13,0,.23-.22.4a1.14,1.14,0,0,1-1.47-.17c-.17-.1-.23-.41-.41-.53a3,3,0,0,0-.36-.13c-.14-.05-.29-.05-.3-.19,0,.6-.07.72.41,1,.2.11.28.1.43.28a.93.93,0,0,0,.37.33,1.69,1.69,0,0,0,1.21-.06c.44-.17.44-.35.43-.65s-.07-.25-.09-.26Z"/><path class="cls-14" d="M2.65,2.72c.27.27.59.79.86,1s.47.59.77.66a11.89,11.89,0,0,1-.64-1.07L3.59,3.2l0,0L2.72,1.92c-.12-.15-.47-.67-.64-.71,0,0,0,0,0,0a0,0,0,0,1,0,0s0,0,0,.06l0,.11c0,.07-.08.1-.1.21a.26.26,0,0,0,.05.24c.12.17.64.71.72.84Z"/><path class="cls-23" d="M2.65,4a13.61,13.61,0,0,1,1,1.11c0,.3-.18.17,0,.37l.06-.09,0,0c.37-.37-.07-.28.68-.37a4.09,4.09,0,0,0-.69-.9l-.14-.14c0,.19.11.18.16.34a1.69,1.69,0,0,1-.39-.16l-.63-.49,0,0-.24-.17c-.16-.1-.11-.11-.32-.24a9,9,0,0,0-.95-.65c0,.16.05.14.18.24l.57.5c.12.13.26.23.37.34s.28.3.33.36Z"/><path class="cls-24" d="M12.17,28.4c.06.19,0,.08,0,.13a1.14,1.14,0,0,0,1.47.17c.26-.17.23-.27.22-.4a1.54,1.54,0,0,0-.25-.7l0,.11a1.85,1.85,0,0,0-.81.26C12.34,28.23,12.36,28.41,12.17,28.4Z"/><path class="cls-25" d="M10.65,8.76c0,.28-.27.3-.09.61a2.87,2.87,0,0,0,.38.49l.25.05V9.79c.48,0,.24-.53.22-.68.23.1.19.31.25.58l.09,0a.9.9,0,0,0-.68-.86l-.12,0h-.06c.29-.4,1-.08,1.12-.09V8.46a.88.88,0,0,0-.82-.16.7.7,0,0,0-.42.32C10.7,8.72,10.74,8.69,10.65,8.76Z"/><path class="cls-26" d="M12.17,28.4c.19,0,.17-.17.63-.43a1.85,1.85,0,0,1,.81-.26l0-.11c-.07-.07-.06-.09-.15-.12a.84.84,0,0,0-.46-.06c.07-.15,0,0,.12-.15-.34,0-.19,0-.36-.18a.87.87,0,0,0-.8.45.51.51,0,0,0,.09.58C12.08,28.24,12.08,28.34,12.17,28.4Z"/><path class="cls-23" d="M6.88,11c0,.27,0,.32.14.47s.23.08.41.15.07.06,0-.07-.21-.32-.15-.67a1,1,0,0,1,.38-.5.61.61,0,0,1,1,.42c.08.14,0,.24,0,.43l.07,0c.18-.1.23-.24.29-.47a.56.56,0,0,0-.12-.5l-.1-.14c-.2-.23-1,0-1.2.15S6.91,10.73,6.88,11Z"/><path class="cls-27" d="M14.06,18.58c-.13.17-.11,0-.21.28s-.13.13-.16.32a1,1,0,0,1,1.43.4c.12.36-.06.36-.11.56.25,0,.29-.32.3-.51s0-.18.09-.24.09,0,.14-.16a2,2,0,0,0-.56-.56,1,1,0,0,0-.92-.09Z"/><path class="cls-15" d="M12.37,17c0-.18-.08-.19-.15-.32s0-.19,0-.36a2.93,2.93,0,0,0-1.3.06c.09.17,0,0,.16.15-.23.33.07.29-.19.63.46-.09,1.05,0,1.44-.16Z"/><path class="cls-2" d="M10.93,15.69c0,.63,1,.47,1.26.44l0-.8a3.15,3.15,0,0,0-.84.12h0l-.2.13h0l-.13.09Z"/><path class="cls-28" d="M7.43,11.57a.93.93,0,0,0,.74-.15,2.48,2.48,0,0,1-.41,0,.77.77,0,0,1-.16-.27L7.74,11l-.06-.26c.34-.33.51-.11.64,0s0,0,.07.07c0-.12-.08-.22,0-.32a.54.54,0,0,1,.19.53c0,.21,0,.16.06.21a1.34,1.34,0,0,0,0-.46.61.61,0,0,0-1-.42,1,1,0,0,0-.38.5c-.06.35.15.49.15.67Z"/><path class="cls-26" d="M13.4,26.5c0-.07,0,0,0-.06a3.08,3.08,0,0,0-1.11.15,2.71,2.71,0,0,0-.41.23l-.23.09c-.19.07-.13,0-.15.16a.47.47,0,0,0,.52,0,13.73,13.73,0,0,1,1.38-.36l0-.24Z"/><path class="cls-14" d="M5.84,3.21C6,3.14,6,3,6.2,3c.27-.26.6-.12.93-.13,0-.2-.07-.19-.22-.24A2.64,2.64,0,0,1,6,2.3c-.18-.14,0-.06-.23-.11a3.45,3.45,0,0,0,0,1Z"/><path class="cls-29" d="M11.93,19c-.19.13-.42.12-.58.31a.75.75,0,0,0-.23.64v0c.36,0,.34-.23.56-.36a2.15,2.15,0,0,1,.66-.24c.1-.46,0-.45-.41-.37Z"/><path class="cls-11" d="M6.73,8.25c-.19.2-.56.38-.52.84.31.36.38,0,.73-.24s.25-.28,0-.66l-.25.06Z"/><path class="cls-30" d="M12.45,18.13c.1.17.26.23.38.39.08,0,.14.12.08-.14s-.3-.12-.33-.47c.22.07.2.22.4.31,0-.26-.22-.36-.21-.49s0,0,0-.08,0,0,.11.13l.08.14a1.4,1.4,0,0,0,.18.32c.06-.08.05-.1.06-.24l.06,0,.08-.06c0-.18,0-.13-.14-.27s-.3-.47-.57-.28a.79.79,0,0,0-.2.76Z"/><path class="cls-25" d="M6.88,11c0-.29.47-.63.73-.77s1-.38,1.2-.15c.08,0,.09.07.06-.06a1.73,1.73,0,0,0-1.49,0c-.16.09-.85.66-.78,1l.13.07c.14-.06,0,0,.15-.11Z"/><path class="cls-29" d="M12.15,18.76c0-.16.07-.07,0-.28l-.12-.08a1.49,1.49,0,0,0-.83.22c-.13.09-.14.16-.24.28s-.19.18-.08.37.46-.5,1.22-.51Z"/><path class="cls-31" d="M8.17,11.42c.19-.09.2-.32.22-.56-.06,0,0,0-.07-.07s-.3-.38-.64,0l.06.26-.14.19a.77.77,0,0,0,.16.27,2.48,2.48,0,0,0,.41,0Z"/><path class="cls-11" d="M10.83,7.16c-.27,0-.43,0-.65.07a.52.52,0,0,0,.18.47,1.53,1.53,0,0,0,.8-.11l0-.06C11.21,7.26,11,7.29,10.83,7.16Z"/><path class="cls-29" d="M12.17,20.11c.13-.11.18-.08.32-.12s.11,0,.12-.17-.06-.18-.08-.26l-.21,0c-.23.09-.34,0-.5.19s-.26.23-.16.5C11.87,20.37,12,20.23,12.17,20.11Z"/></g></g></g></svg>