<svg xmlns="http://www.w3.org/2000/svg" viewBox="0 0 33.8 40.28"><defs><style>.cls-1{fill:#ad2d2d;}.cls-1,.cls-10,.cls-11,.cls-12,.cls-13,.cls-14,.cls-15,.cls-16,.cls-17,.cls-18,.cls-19,.cls-2,.cls-20,.cls-21,.cls-22,.cls-23,.cls-24,.cls-25,.cls-26,.cls-27,.cls-28,.cls-29,.cls-3,.cls-30,.cls-31,.cls-32,.cls-33,.cls-34,.cls-35,.cls-36,.cls-37,.cls-38,.cls-39,.cls-4,.cls-40,.cls-41,.cls-42,.cls-43,.cls-44,.cls-45,.cls-46,.cls-47,.cls-5,.cls-6,.cls-7,.cls-8,.cls-9{fill-rule:evenodd;}.cls-2{fill:#ce5556;}.cls-3{fill:#fdbcb4;}.cls-4{fill:#8b1c1b;}.cls-5{fill:#cd5252;}.cls-6{fill:#de6969;}.cls-7{fill:#b93a3a;}.cls-8{fill:#ba3d3d;}.cls-9{fill:#ed7c7c;}.cls-10{fill:#b23231;}.cls-11{fill:#cb5354;}.cls-12{fill:#c34747;}.cls-13{fill:#be4142;}.cls-14{fill:#d96162;}.cls-15{fill:#cb5150;}.cls-16{fill:#d35b5b;}.cls-17{fill:#d55d5e;}.cls-18{fill:#b33334;}.cls-19{fill:#e57172;}.cls-20{fill:#e16a6a;}.cls-21{fill:#c44848;}.cls-22{fill:#cf5758;}.cls-23{fill:#ca504f;}.cls-24{fill:#b63635;}.cls-25{fill:#db6364;}.cls-26{fill:#e97576;}.cls-27{fill:#d1595a;}.cls-28{fill:#dd6566;}.cls-29{fill:#c94d4d;}.cls-30{fill:#c14242;}.cls-31{fill:#c14545;}.cls-32{fill:#e46e71;}.cls-33{fill:#c54a4a;}.cls-34{fill:#c74d4d;}.cls-35{fill:#f38382;}.cls-36{fill:#bc3f40;}.cls-37{fill:#dc6c6b;}.cls-38{fill:#d75f60;}.cls-39{fill:#b6393a;}.cls-40{fill:#b83837;}.cls-41{fill:#e46e6e;}.cls-42{fill:#e26d6d;}.cls-43{fill:#dc6464;}.cls-44{fill:#d45b5b;}.cls-45{fill:#b43433;}.cls-46{fill:#ec797a;}.cls-47{fill:#f98888;}</style></defs><g id="Слой_2" data-name="Слой 2"><g id="Слой_1-2" data-name="Слой 1"><g id="_3015447214416" data-name=" 3015447214416"><path class="cls-1" d="M8.08,6.24c0,.94-1,1.94-.78,7.22.28-.08.65-.19,1-.26.13-.66.06-1.55.17-2.32.05-.33.11-.69.18-1s.27-.71.21-.89a12.45,12.45,0,0,0,1.3-1.83c.18-.18-.1,0,.11-.07.31-1,.79-1.13.65-2a14.4,14.4,0,0,1-.23-2.52c.2-.08,0,0,.14.08.54-.13,0,0,.53-.42L13.69.76h0a4.86,4.86,0,0,0,.78-.19,8.8,8.8,0,0,1,4,0A14.5,14.5,0,0,0,20,.87c.12-.17,0-.17.11,0a3.7,3.7,0,0,0-.16,1.07h.16a.79.79,0,0,1,.67.21l1,1c.35.35.1,0,.25.39s.22.38.25.4c.35.27.43,0,.47.42a.85.85,0,0,1,0,.16c0,.22,0,.14,0,.33a11,11,0,0,0,.52-1.9s0,0,0,0,.13,0,.21,0c-.12-.28,0-.08-.18-.28A9.31,9.31,0,0,0,19.78.52a9.08,9.08,0,0,0-7.54.65,10,10,0,0,0-2.4,2.17A8.22,8.22,0,0,0,8.62,5.16a4.36,4.36,0,0,1-.54,1.08Z"/><path class="cls-2" d="M23.36,30.16c-.43.18-.2.64-.06,1.05a6.29,6.29,0,0,0,.51,1c.46,0-.07,0,.46.25.24.12.16.2.17.22l1,.93c.23.19.18.15.19.28a4,4,0,0,1,1.25.87l.42,0a2.25,2.25,0,0,1-.08.36,9.41,9.41,0,0,1,1.22.78s-.09.37-.54,0l-.6-.46c-.15-.11,0,0-.17-.13-.37-.24-1.36.08-1.5.19-.47.21-.06-.08-.05.06l0,.13c.15.41.54.41.81,1.15l-.2.25c.16.16.09.06,0,.24s0,.19,0,.38c.35-.09.12-.1.6-.4a4.49,4.49,0,0,1,.73-.35,3.55,3.55,0,0,1,1.86-.09c-.08.1,0,.08-.15,0-.3-.24-.18.07-.16-.37,0-.2-.19-.25-.38-.3.1-.09-.35-.3.3,0l-.18-.3c.33,0,.23.08.31-.08l-.56,0c-.2-.39,0,.05-.07-.29l-.43-1.06.26-.18-.17,0c-.21-.08-.17-.06-.22-.11l.22-.07a1.64,1.64,0,0,0,.2-.09c.23-.09.94.3,1.2.4l.92.3a4.23,4.23,0,0,0,1,.22c-.17-.14-.52.19-.53.22s-.1-.07-.08.23c.37.14.09.08.37-.07s.19-.15.32-.22c.36-.18.31,0,.8,0-.06-.36,0-.07-.15-.24s-.18,0-.2,0c.17-.38.06-.42.29-.85s.09.08.16-.44c-.56.3-.37,0-.68,1.14a14.75,14.75,0,0,1-3.12-.91,1.15,1.15,0,0,1,.46-.77c0-.61,0-.07-.23-.22a1.11,1.11,0,0,0-.45.83A6.87,6.87,0,0,1,26,31.72c.19-.1.22-.22.46-.3.18-.54-.08,0-.44-.33a6.9,6.9,0,0,1-1.17-1.41,2,2,0,0,1-.11-.25l-.08-.28,0,0a5.41,5.41,0,0,1-.56-2c-.73,0-1,.05-1,.6l.68-.38c.24.1.29.75.45,1.27a1.32,1.32,0,0,0,.07.23l.09.25c-.66.05-.78.28-.84.69.67-.2,0,0,.25-.11a1.16,1.16,0,0,0,.2-.13l.31-.22c.3,0,.48,1,1,1.77-.35.15-.52-.14-.6-.29v0c-.37-.55-.31-.57-.86-.58h-.11c-.37,0-.1.07-.28,0Z"/><path class="cls-3" d="M19.52,38.11a4.14,4.14,0,0,0,.25,1.1,21.21,21.21,0,0,0-5.17.38l.46-2.44a10.37,10.37,0,0,1,4.08,0,1.48,1.48,0,0,1,.18.5l.11.35C19.5,38.13,19.49,38.08,19.52,38.11Zm-8.06.74a2.16,2.16,0,0,1-.87-.09l.87-2.11c.19-.25,1.86-.1,2.28-.06s.86.17,1.17.49l-.49,2.52c-.61-.29-2.67-.56-3-.75ZM15.13,37a11,11,0,0,1,.24-1.31c.14-.78-.08-.8.64-1a3.94,3.94,0,0,1,2.71.11L19.15,37A9.72,9.72,0,0,0,15.13,37Zm-2-.62-1.65.05.84-2.19c.73,0,2.51,0,2.88.52.2.1.17.1.1.44L15,36.92a3.87,3.87,0,0,0-1.79-.52Zm2.49-2.56a4.38,4.38,0,0,1,0-1.49c1.93-.49,1.53-.15,2.9,0l0,1.56.16.88c-2-.7-2.51.07-3.22,0a3.3,3.3,0,0,1,.14-.87Zm5.68-1.2c0,.54.31.9.34,1.29l-.58,0a7.09,7.09,0,0,1-1.23.38c-.37.14-.7.31-1,.44l-.08-.89-.11-1.55c.63-.14,1.67-.93,2.42-.65a3,3,0,0,0,.27,1ZM13,31.73a3.7,3.7,0,0,1,2.36.5c.33.24.09,2,0,2.44a4.61,4.61,0,0,0-3-.51c.08-.37.26-.77.38-1.14A10.47,10.47,0,0,0,13,31.73Zm-.95,2.21c0-.29.1-.06-.19-.28a1.07,1.07,0,0,0-.29-.16,1.72,1.72,0,0,1-.54-.29L9.63,33a8,8,0,0,1,.6-1.15,13,13,0,0,0,.43-1.24,2.4,2.4,0,0,1,2.1.95c.32.43-.29,2-.5,2.44-.09-.14,0-.06-.2-.08Zm-1.38-3.43A18.07,18.07,0,0,0,10.81,28a2.57,2.57,0,0,1,1.35.86c.13.14.17.25.31.38s.26.17.33.36a10.85,10.85,0,0,1,.09,1.92A2.79,2.79,0,0,0,10.68,30.51Zm11.2.3a2.21,2.21,0,0,0-.75.54c0-.41-.1-.82-.16-1.23-.1-.78,0-1.07.76-1.66a1.18,1.18,0,0,1,1-.3L23,30.38C22.64,30.37,22,30.42,21.88,30.81ZM9.7,26.49c-.16,0,0,0-.13.07l.13.15a1.81,1.81,0,0,1,.63.6c.18.23.38.36.41.76a6.31,6.31,0,0,1-.2,2.21l-.21-.34c0,.75.44.44-.07,1.57a13.54,13.54,0,0,0-.69,1.37,2.41,2.41,0,0,0-1.76-.59A1.6,1.6,0,0,0,7.88,32c-.24.25-.14.36-.2.22l0,0c-.35-.17.11.06-.3-.29,0,0,0,0-.07-.05s0,0-.07-.05c.15.23.18.32.31.52l-1,.67s0,.06,0,0,0,0,0,0c.71,0,.85-.75,1.5-.72A1.89,1.89,0,0,1,9.42,33L8.36,34.75c.22-.07.08,0,.26-.16l.84-1.48a4.89,4.89,0,0,1,2.6.83c.2.45,0,.65-.2,1.23a8.82,8.82,0,0,1-.48,1.2c-.32-.15-.14-.17-.52-.29.13.3.25.18.46.47l-.85,2.2L9,38.18a12.45,12.45,0,0,0-2.6-.47c0-.39.42-.33.49-.85l-.71.84c0,.08,0,0-.07.22l.14-.05a4.89,4.89,0,0,1,2.14.27,14,14,0,0,1,1.95.73l-.5.76s0,0,.05,0a.07.07,0,0,0,.06,0,.47.47,0,0,0,.17,0,1.5,1.5,0,0,1,.5-.84,24.63,24.63,0,0,1,3.76.81l-.1.55h.14c.11-.8.63-.65,2.36-.81a11.7,11.7,0,0,1,3.06-.05,2,2,0,0,1,.3.78c.3,0,.39,0,.61-.1l-.48,0L20,39.34l2.12-.7a15.87,15.87,0,0,1,2.34-.37,6.46,6.46,0,0,1,1.26.08c.37.1.55.39.81.64-.13-.39-.25-.29-.43-.63-.13,0,.08,0,.11-.24,0,0,0-.06,0-.09-.31.32-.14.19-.35.25-.12-.19-.16-.2-.26-.37l-.12.34a7.9,7.9,0,0,0-3.42.26L20,39.18a3.75,3.75,0,0,1-.21-.55l-.24-.52a9.34,9.34,0,0,0-.17-1l1.13-.45a11.46,11.46,0,0,1,2.11-.34c1-.06,1.13-.13,1.48.26l.38.26a2,2,0,0,0-.47-.48l.19-.23c.13-.17,0,0,.13-.21-.3.15-.14.17-.43.22-.23-.18-.09-.19-.4-.36l.24.42a9.44,9.44,0,0,0-4.43.78l-.4-2.07a7.07,7.07,0,0,1,1.78-.79l1-.1.28.17-.07-.34c.37-.19.27-.15.3-.37a1.84,1.84,0,0,1-.41.29l-.43-1.14c0-.35-.2-.8-.12-1.12s.49-.51.7-.6l0-.11c.42-.14.42-.31,1.06-.35l0,.06L23.49,32c.11.07.08.09.12.13s-.05,0,.2.13a6.29,6.29,0,0,1-.51-1c-.14-.41-.37-.87.06-1.05,0-.18,0,0,.09-.32l-.22.19c-.06.06-.06.09-.14.17-.37-.69-.12-1.85-.26-2.43-.08-.31.05-1.11,0-1.43s.06,0-.08-.17v1.9c-.87-.09-1.32.51-1.86,1.13v-.43c-.13-.1,0-.06-.13,0l0,.58a2.13,2.13,0,0,0-1.52.56c.61-.07,1.43-.89,1.61-.15L21,31.46a8.23,8.23,0,0,0-2.33.72l0-2.14c-.13.06-.06-.15-.1.09l.05,2.11a4.28,4.28,0,0,0-2.89,0V30c-.11.08-.15.05-.14.54l0,1.56c-1.07-.3-1-.67-2.54-.5l-.08-2.05c.37.05.76.08,1.11.14,1.11.19.81.33.91,0H14.8L13,29.47l-.06-1-.12-.33.05,1.19c-.16-.22,0,0-.22-.21-.5-.49-.95-1.17-1.76-1.27L10.78,26l-.09-.42.05,2c-.45-.38-.23-.24-.54-.58l-.5-.49Z"/><path class="cls-4" d="M26.24,13.09l-.37,2.42c0,.39-.1.82-.15,1.19l-.11.94a20.55,20.55,0,0,0-.47,2.14l-.38,1.94-.21.16a.88.88,0,0,0-.07.14l-1.15,2.86,0,.05,0,.07s0,0,0,0c0,.34.06,0,0,.27l0,0s-.05,0-.08,0a11.38,11.38,0,0,1-2.55,3.41c0,.36,0,.13-.12.17L19,29.74a3.8,3.8,0,0,1-1.82.35,6.08,6.08,0,0,1-3.35-1.27c-.16.17-.07.09-.16,0-.08-.29-.09-.18-.31-.34a12.06,12.06,0,0,1-2.45-2.8,14.44,14.44,0,0,1-1.45-3.16l-.34-.3c.1-.8.2-.16-.08-1.13-.13-.42-.23-.78-.34-1.19L8,17.58s.22-.07.22-.08,0,.12-.09-.12a17.06,17.06,0,0,1-.45-3.94H7.33a38,38,0,0,0,2.12,9.8,10.24,10.24,0,0,1,0,3.7,5.37,5.37,0,0,1-1,3,7,7,0,0,1-2.22,1.73C3.76,33,.94,33,0,33.4c0,.2,0,.2.2.22a1.36,1.36,0,0,1,.65-.16l.19,0a4.64,4.64,0,0,1,1.53-.41,2.85,2.85,0,0,0,1.25-.37h0a6.36,6.36,0,0,0,2.79-1c.47-.36,0-.14.5-.32A3.36,3.36,0,0,0,7.68,31l1-.9c.07-.27.14-.35.22-.62.13-.47,0-.41.44-.52,0-.1.32-2,.37-2.24l-.13-.15c.08-.11,0,0,.13-.07l.13-2.26c.15.25.84,1.36.72,1.6,0-.66,0-.14.14-.3l.09.42c.11.13.32.42.42.56L12.41,28c.21.21.09.16.36.2l.12.33,1.91,1.28H15l.3.16c.24.07.12.09.31-.08.1.09.06,0,.1.2a4.45,4.45,0,0,0,2.84.09c0-.24,0,0,.1-.09.23.11.32,0,.62-.14a2.13,2.13,0,0,1,1.52-.56l0-.58c.12-.05,0-.09.13,0,.33-.35.67-.69,1-1.06s.62-.88.9-1.16v-.38c.54-.3-.56.12.17,0l.4-.65.09-.13c.08-.1.06-.09.15-.14l.21,1.64c.25-.09.12,0,.18-.17,0-.53-.15-1.07-.18-1.62s.17-.83.39-1.4c2.19-5.4,3.53-14.6.21-19.75L23.65,3c-.13-.14,0-.07-.13-.1l-.05.29.73.93a10.64,10.64,0,0,1,1.27,2.92c.12.49.11.34.23.46l.13.09c-.21.55-.11.43,0,1.11A17.56,17.56,0,0,1,26.06,13l.18.05Z"/><path class="cls-5" d="M6.46,33.08c-.36-.07-1.18.7-1.69.77,0,.13-.25.2-.54.36l-1.31.66c-.63.3-.48.15-.62.47.43,0,.54-.12,1.05-.37.32-.17.57-.29.86-.43s.3-.15.45-.24a1.31,1.31,0,0,1,1.4.08l-.36-.06s0,0,0,.06v.06l0,.29c-.23.25-.07.05-.14,0l0,0-.1-.05a.63.63,0,0,1-.1.28l-.49.55,0,.78s0,0,0,0l.06.2s0,0,0,.05c-.33-.47-.34,0-.36.07a4.93,4.93,0,0,1,.46.23c-.38.3-.06.3-.55.22.35.22.18-.09.18.31a4.14,4.14,0,0,0,1.31.76c.13-.11.16-.19.25-.26s0-.14.07-.22l.71-.84c0-.25-.1,0,.13-.37a.57.57,0,0,1,.1-.11c.15-.14,0-.07.16-.1.06-.33.16-.38.44-.75.46-.63.14-.45.54-.61,0,0,0-.05,0-.06v-.08c.1-.23-.16,0,.1,0L9.42,33A1.89,1.89,0,0,0,8,32.36c-.65,0-.79.67-1.5.72Z"/><path class="cls-6" d="M24.61,35.6c-.14.17,0,0-.2.16s-.07,0-.11.17,0,0-.13.21l-.19.23a2,2,0,0,1,.47.48l-.38-.26c-.35-.39-.45-.32-1.48-.26a11.46,11.46,0,0,0-2.11.34,1,1,0,0,0,.73,0s0,0,0,.05l0,0c-.06.07-.05,0-.09.12s.27.43.39.55l.12.1c.43.37.37.49.74.67l-.27.24a.6.6,0,0,0,.08.08,7.9,7.9,0,0,1,3.42-.26l.12-.34c.1.17.14.18.26.37.21-.06,0,.07.35-.25,0,0,0,0,0,.09,0,.22-.24.24-.11.24.18.34.3.24.43.63a1.07,1.07,0,0,0,.64-.13l.24-.18h-.17a1.15,1.15,0,0,0,.15-.29c.12-.25-.19,0,.16-.26-.39,0-.08-.05-.45-.07l.16-.11c.15-.11.07,0,.14-.12-.23.08-.12.07-.44.06.15-.21.14-.11.29-.3a3.84,3.84,0,0,1-.47.21c.2-.23,0,0,.16-.14,1.26-1,2.5-.45,3-.51a9.55,9.55,0,0,1,.49-1l.48-.58c.11-.2,0,.06.06-.24h-.29c-.33.59-.41.37-.75,1.11-.08.16-.09.27-.16.4a1,1,0,0,0-.63-.38c0,.44-.15.13.16.37.11.09.07.11.15,0a3.55,3.55,0,0,0-1.86.09,4.49,4.49,0,0,0-.73.35c-.48.3-.25.31-.6.4,0-.19,0-.17,0-.38s.12-.08,0-.24l.2-.25c-.27-.74-.66-.74-.81-1.15l0-.13c0-.14-.42.15.05-.06.14-.11,1.13-.43,1.5-.19.16.11,0,0,.17.13l.6.46c.45.35.52,0,.54,0a9.41,9.41,0,0,0-1.22-.78,2.25,2.25,0,0,0,.08-.36l-.42,0a4,4,0,0,0-1.25-.87c0,.37-.11.21.23.46s.75.67.91.6a6.49,6.49,0,0,0-2.21.61Z"/><path class="cls-7" d="M13.71.76a5.44,5.44,0,0,1,.17,1l.13.77c.1.33-.14-.3,0,.13l.07.11c1.06.09,4.56.29,5.37,0A7.36,7.36,0,0,0,20,.87,14.5,14.5,0,0,1,18.51.52a8.8,8.8,0,0,0-4,0,4.86,4.86,0,0,1-.78.19Z"/><path class="cls-8" d="M23.81,18.11c.26.17.24,0,.13.72a12,12,0,0,0,0,2.32,2.19,2.19,0,0,0-1.2.7c-.16.11,0,.06-.17.06-.06.35-.43.81-.53,1.22-.07.24.27.21.38.76.12,0,.09,0,.32.31s.22.22.13.3a6.47,6.47,0,0,1,.92-2.36c.21.21.3,0-.08.74a5.58,5.58,0,0,0-.52,1.52c-.13.48-.06.27.08.63,0,0,0,0,0,0l0-.07,0-.05L24.48,22a.88.88,0,0,1,.07-.14l.21-.16.38-1.94a20.55,20.55,0,0,1,.47-2.14l.11-.94c.05-.37.12-.8.15-1.19l.37-2.42H25.3a7.2,7.2,0,0,1-.45,2.84c-.13.42-.67,2-1,2.18Z"/><path class="cls-3" d="M14.23,28a4.4,4.4,0,0,1,.35-1.1l.42-1.2a8.18,8.18,0,0,1,3.48-.2c.58.15.43.12.86,1.11A4.82,4.82,0,0,1,20,28.06a9.64,9.64,0,0,0-2.88-.38A21.43,21.43,0,0,0,14.23,28Zm1.27-4.15a8.31,8.31,0,0,1,.24-1c.18-.39.42-.2.76-.47.41.1.92-.05,1.2.28s.24.74.46,1l.69,1.89c-1.34-.5-2.56-.12-3.84.08l.49-1.74Zm1-1.51a1.76,1.76,0,0,0-.71.17l.45-1.95c.09-.47.08-.74.47-.67a.7.7,0,0,1,.35.19l.66,2.33c-.38-.08-.95-.27-1.22-.07Zm.23-4.49.34,2a1.12,1.12,0,0,0-.67-.1l.33-1.91Zm0-1.12-.48-2.27a2.74,2.74,0,0,0,.94,0l-.46,2.31ZM17.54,13c-.13.33-.11,1-.34,1.25s-.72.09-.94.09l-.13-.65-.56-2.52a4.17,4.17,0,0,0,2.32,0L17.54,13Zm.68-3.48a7.31,7.31,0,0,1-.38,1.58,4,4,0,0,1-2.26,0l-.29-1.58-.61-3a7.7,7.7,0,0,0,4.21-.27l-.67,3.28Zm.85-4.15c-.15.48,0,.71-.5.9-.92.34-3.41.45-3.81.1L14.44,5l-.4-2c.6-.07,2,.1,2.74.11a15.22,15.22,0,0,0,2.79-.16l-.5,2.53ZM13.9,2.75l-1.59,1.7a2.8,2.8,0,0,0-.53.5c.89-.35,1.55-1.76,2.23-2a19.8,19.8,0,0,1,.32,2.46l.22.89c0,.38-.52,1-.77,1.23a4.36,4.36,0,0,0-.55.49.87.87,0,0,0,.48-.26A1.22,1.22,0,0,0,14,7.45a2.48,2.48,0,0,0,.52-.77l.15.31s0,.25.05.32a3.83,3.83,0,0,1,.07.58,10.3,10.3,0,0,1,.43,2.4.91.91,0,0,1,.17.47c.05.31.05.39-.07.51l.09.07c.23.24.25,1.06.32,1.4.12.53.2,1.06.31,1.57a3.34,3.34,0,0,1-1.16.51.91.91,0,0,0-.1-.34c-.22-.3-.06-.1-.3-.24.18.39.47.54.29.89a.79.79,0,0,1-.14.17l-.38.53c.43,0,.1.08.31-.15s-.08-.6,1.52-1.15a12.21,12.21,0,0,1,.44,2.26l0,.09c0,.05-.15.1.12.25-.18.28-.35.18-.46.68l.53-.5a17,17,0,0,0-.38,2.62L16,19.69l-.11-.07-.12-.05c.14.19.32.31.35.61a12.25,12.25,0,0,1-.49,2.38c-.17-.21-.1-.23-.36-.38A2,2,0,0,0,13.38,22a1.8,1.8,0,0,0,.28-.66c-.29.36-.1.3-.38.53-.09-.14-.11-.21-.19-.36s-.11-.25-.32-.33c.23.51.55.59.23,1.19l.4-.25a1.82,1.82,0,0,1,1.62.05c.71.41.72.8.36,1.63-.07.33-.14.64-.24,1l-.12.41c-.1.36,0,.26-.24.4a1.9,1.9,0,0,1-.21,1.06,5.76,5.76,0,0,1-.4,1.1c-.14-.13-.13-.22-.21-.41-.16-.35-.2-.32-.35-.37a3.81,3.81,0,0,1,.44.91,1.74,1.74,0,0,1-.4,1c.09.09,0,.17.16,0a4.74,4.74,0,0,1,.24-.51c.13-.2.13-.11.49-.19A11,11,0,0,1,19.49,28c.62.13.72.27.93.87.15,0,.1.19.12-.17-.63-.52-.23-.92.29-1.78A4.61,4.61,0,0,1,22,25.65l.21-.22-.37.22A6.49,6.49,0,0,0,20.17,28l-.25-.36c-1-2.1-1-1.6-.5-2.6-.35.17-.18.2-.44.48l-.77-2.07-.27-.7c.12-.16.08-.09.23-.21l.27-.24a.83.83,0,0,0-.52.29,2.31,2.31,0,0,1-.28-1,2.81,2.81,0,0,1-.36-1.6,1.85,1.85,0,0,1,1.17-.91c.25.41.58.56.77.91a1.53,1.53,0,0,0,.6.61l-.22-.4c-.32-.15-.09-.09-.45-.51l-.2-.25c-.11-.13,0,0-.12-.12s0,0-.11-.11c-.29-.34.28-.86.54-.9-.11-.1.16-.31-.31,0-.19.11-.35.5-.52.55-.25-.16-.14-.13-.28-.35s0-.24-.3-.23a1.91,1.91,0,0,0,.49.69c-1,.44-.49.27-1.1.86l-.35-1.95c-.06-.74,0-.55.12-.43,0,0,0-.06,0-.08-.05-.38-.13-.1.12-.5a9.21,9.21,0,0,0,1.1-1.78,7.38,7.38,0,0,0-1.29,1.76l.46-2.27a.74.74,0,0,1,.2.16l.14.09.1,0c.48.24.31.22.62.13v-.3a.77.77,0,0,1-.91-.23c-.26-.28.33-2.07.4-3.15.49.24.1.28.66.41l-.29-.31a3.62,3.62,0,0,0-.28-.29,3.36,3.36,0,0,1,.3-1.2,2.84,2.84,0,0,1,.09-.81c0-.1,0-.29.08-.38.07-.25,0-.12.12-.3a9.24,9.24,0,0,1,.3-1.95c.21-.09,0,0,.16,0l.18.09c-.32-.5-.25-.37-.13-1,.05-.27.15-.78.19-.89L19.59,3c.44.23,0,0,.3.25l0,0,.27.39c.2.2,0,.13.29.15L19.8,3c-.15-.21-.12-.2-.06-.53a1.19,1.19,0,0,1,.18-.54A3.7,3.7,0,0,1,20.08.85C20,.7,20.09.7,20,.87a7.36,7.36,0,0,1-.48,1.9c-.81.3-4.31.1-5.37,0l-.07-.11c-.18-.43.06.2,0-.13l-.13-.77a5.44,5.44,0,0,0-.17-1h0c-.1.65.29,1.41.21,2Z"/><path class="cls-9" d="M22.75,4.81l-.1.44a4.17,4.17,0,0,1-1-.37c0,.43-.09.11.15.32a1.08,1.08,0,0,0,.81.15,18.1,18.1,0,0,0-.93,2.5c-.17.09,0,0-.13.22l-.13.26c-.43-.18-.51-.36-.91-.48,0,.23.19.39.38.48s.26.07.46.2c0,.25,0,0-.08.25L21,9.47c-.08.21-.15.3-.22.46a2.19,2.19,0,0,1-.23.5,15.09,15.09,0,0,1-.74,1.45l-.07.23a2.06,2.06,0,0,1-.85-.34l-.2,0s0,0,0,0c-.56-.13-.17-.17-.66-.41-.07,1.08-.66,2.87-.4,3.15a.77.77,0,0,0,.91.23V15c.21,0-.06-.09.12.07a.93.93,0,0,1,.13.15c.54.7.35.36.63.65l.18.24c.13-.2.11-.1.32-.26s.15-.14.29-.25.37-.22.56-.55l-.24.09c.06-1.25-.35-1.14.24-1.81,0,0,0-.05.05-.07-.32-.22-.63-.88-.83-1,.31-.2.39-1,.68-1.22.11-.54.86-1.87.91-2.28a1.06,1.06,0,0,1,.11.31,1.62,1.62,0,0,0,.22.41c-.05.22,0,0,.21,0a5.29,5.29,0,0,1-.36-1.09,4.14,4.14,0,0,1,.41-1,5.74,5.74,0,0,1,.31-1l.26-.72c0-.21,0-.09,0-.16a11.3,11.3,0,0,1,.6,1.51l.55,1c.26.3-.11.21.37.18-.12-.32-.08-.19-.22-.38a10.19,10.19,0,0,1-1-2.2c-.24-.64,0-.92.34-2,.24-.74.14-.7,0-.8a11,11,0,0,1-.52,1.9Z"/><path class="cls-9" d="M10.24,7.09c.24-.08.26.24.2-.1A3.51,3.51,0,0,0,11,5.87c.08.14.49,2,.61,2.41a1.89,1.89,0,0,1,.07,1.56,8.2,8.2,0,0,1-.75,1.35c.42,0,.34-.08.44-.25l.15-.24A2.26,2.26,0,0,0,12,9.37,16.74,16.74,0,0,0,13.1,12c.09.3-.2.33-.35.85.34,0,.21.14.42-.2s-.1-.07.19-.34c0,0-.17-.2,0,.25a2.27,2.27,0,0,0,.17.31,4.66,4.66,0,0,1,.35.66c-.19-.15-.11-.06-.21-.29-.17.34-.1.11-.14.08l-.09,1c-.06.27-.1.09-.12.38s0-.06,0,.26,0,.1-.16.27c0,.17.22.26.38.38a3.16,3.16,0,0,1,.27.2c.22.18.12.06.18.22l.23-.26.38-.53a.79.79,0,0,0,.14-.17c.18-.36-.11-.5-.29-.89.24.14.08-.06.3.24a.91.91,0,0,1,.1.34,3.34,3.34,0,0,0,1.16-.51c-.11-.51-.19-1-.31-1.57-.07-.34-.09-1.16-.32-1.4l-.09-.07c.12-.12.12-.2.07-.51a.91.91,0,0,0-.17-.47c-.05.19,0,.09-.1.19,0-.25,0-.23-.09-.33,0,.49-.05.4-.29.62-.91.87,0,.59-.69.67.28.09.21,0,.38.16-.5,0,0,0-.33.12a.06.06,0,0,0-.06,0l.29,0a3.68,3.68,0,0,1-1,.15,4,4,0,0,0-.55-1.06A13.08,13.08,0,0,0,12.07,9a.57.57,0,0,1,.21-.15c.68-.36.64-.23.62-.61a4,4,0,0,0-.9.54l-.19-.54a16.54,16.54,0,0,1-.6-2.54l.06-.19a.45.45,0,0,1,0-.08.19.19,0,0,1,0-.08l-.17.08-.08-.56L10.8,2.68c-.13-.12.06-.16-.14-.08a14.4,14.4,0,0,0,.23,2.52c.14.83-.34,1-.65,2Z"/><path class="cls-10" d="M24.16,8.3a4.08,4.08,0,0,1,.85.63c.12.38.08.28-.22.36.18.13.21.52.26.77s.14.63.17.94a7.83,7.83,0,0,1,.08,2.09h.94L26.06,13a17.56,17.56,0,0,0-.21-4.31c-.13-.68-.23-.56,0-1.11l-.13-.09c-.12-.12-.11,0-.23-.46A10.64,10.64,0,0,0,24.2,4.15l-.73-.93.05-.29c-.08,0-.13.1-.21,0s0,0,0,0c.16.1.26.06,0,.8-.35,1.09-.58,1.37-.34,2a10.19,10.19,0,0,0,1,2.2c.14.19.1,0,.22.38Z"/><path class="cls-11" d="M12.14,23.74l1.11.58a7.27,7.27,0,0,1,1.33,1.15c.18.14-.06.06.2.1.25-.14.14,0,.24-.4l.12-.41c.1-.33.17-.64.24-1-.2.09-.15,0-.27.11l-.49-.28,0,0-.05,0-.28-.18,0,0c-.54-.41-.16.06-.54-.52l-.31-.41c-.23.31,0,0-.2.16l-.32.21-.09,0c0-.33,0-.42.25-.47.32-.6,0-.68-.23-1.19-.24,0,.05.07-.14-.06a.38.38,0,0,1-.11-.11,2.89,2.89,0,0,1-.6-.87c-.09.15,0,0-.15.19l-.13.11-.11.07a1.08,1.08,0,0,1-.47-.47c-.16-.23-.73-.7-.74-1-.26.14-.21-.37-.25.47l0,1.37a.88.88,0,0,0-.53.76c.36-.11.18,0,.45-.25a.69.69,0,0,0,.16-.21L11,22a5.76,5.76,0,0,1,1.11,1.7Z"/><path class="cls-12" d="M14.23,28a21.43,21.43,0,0,1,2.85-.36,9.64,9.64,0,0,1,2.88.38,4.82,4.82,0,0,0-.62-1.41c-.43-1-.28-1-.86-1.11a8.18,8.18,0,0,0-3.48.2l-.42,1.2A4.4,4.4,0,0,0,14.23,28Z"/><path class="cls-9" d="M19.52,38.11s0,0-.09-.14l-.11-.35a1.48,1.48,0,0,0-.18-.5,10.37,10.37,0,0,0-4.08,0l-.46,2.44a21.21,21.21,0,0,1,5.17-.38A4.14,4.14,0,0,1,19.52,38.11Z"/><path class="cls-13" d="M8.18,17.5s-.18,0-.22.08l.72,2.32c.11.41.21.77.34,1.19.28,1,.18.33.08,1.13l.34.3.56.55c.33.34.3.51.55.52s.29-.12.81.88c.24.46.1.33.1.33a2.3,2.3,0,0,1,.32-.57c.21-.36.17-.46.36-.49A5.76,5.76,0,0,0,11,22l-.86-.89a.69.69,0,0,1-.16.21c-.27.26-.09.14-.45.25a.88.88,0,0,1,.53-.76l0-1.37c0-.84,0-.33.25-.47-.12-.18-.11-.14-.19-.26a4,4,0,0,1-.81-1.63H9a.76.76,0,0,1-.37.21,4.34,4.34,0,0,1-.4.17Z"/><path class="cls-14" d="M15.29,9.52c.13.17.09.05.11.06l.08,0c.1.05.09.09.13.2l.17-.53c.53.07.24-.12.67-.12l1.26,0c.09.14-.1.19.13-.14l.1.32c.13-.34.12-.16.15-.16s0,.15,0,.17,0,.06.1.17l.67-3.28a7.7,7.7,0,0,1-4.21.27l.61,3Z"/><path class="cls-15" d="M14.44,5l.32,1.43c.4.35,2.89.24,3.81-.1.51-.19.35-.42.5-.9a.91.91,0,0,1-.13-.74c-.54-.05,0-.14-.55-.19-.72-.07-.36-.12-.75-.29a4.8,4.8,0,0,0-1.77,0l-.28.18c-.4.21-.21,0-.47.08s-.26.15-.39.27c-.27-.15-.05,0-.19-.31,0,.29.12.41-.1.54Z"/><path class="cls-16" d="M21.34,32.64l.43,1.14a1.84,1.84,0,0,0,.41-.29c0-.31.12-.28.45-.32-.19.68-.37.29-.23.57v0l.45-.26s0,0,.05,0l.13.24c.16.35-.41-.38.28.21l.72.5c.67.33,0,.65.72.94-.31.26-.15.06-.15.16A6.49,6.49,0,0,1,26.82,35c-.16.07-.71-.45-.91-.6s-.25-.09-.23-.46c0-.13,0-.09-.19-.28l-1-.93s.07-.1-.16-.22c-.54-.27,0-.23-.47-.25-.25-.09,0,0-.2-.13s0-.06-.12-.13l-.26.1c-.14,0,0,0-.2.07a1.2,1.2,0,0,0-1.19-.78.7.7,0,0,0,.08-.46c-.21.09-.63.31-.7.6s.15.77.12,1.12Z"/><path class="cls-12" d="M22.41,23.89c-.12,0-.33.21-.61-.49l-.37.15a3.45,3.45,0,0,0-1.77,1.31c-.21.25-.13.16-.24.19-.49,1-.45.5.5,2.6l.25.36a6.49,6.49,0,0,1,1.63-2.36l.37-.22.77-.47c-.2.14-.05,0,.15.36,0,0,.07,0,.08,0l0,0c.1-.22.06.07,0-.27s-.21-.15-.08-.63a5.58,5.58,0,0,1,.52-1.52c.38-.73.29-.53.08-.74a6.47,6.47,0,0,0-.92,2.36c.09-.08,0-.1-.13-.3s-.2-.31-.32-.31Z"/><path class="cls-4" d="M22,20.1c-.37-.46-1.37-1.17-1.73-1.53l-.9-.78a2.76,2.76,0,0,1-.43-.41c-.19-.19-.27-.19-.43-.41a10.63,10.63,0,0,0,2-1.29A11.6,11.6,0,0,0,22.16,14a19.45,19.45,0,0,0,1.35-1.91c.42-.66.76-1.38,1.18-2.13a8.42,8.42,0,0,1,.36,2.93,10.94,10.94,0,0,1-1.51,5.31A6.85,6.85,0,0,1,22,20.1ZM24,10.66,23,12.23a5.62,5.62,0,0,1-.66,1l-.68.93c-.21.11-.08,0-.24.2a2.39,2.39,0,0,1-.23.22c-.25.23-.23.33-.54.48-.19.33-.28.32-.56.55s-.18.16-.29.25-.19.06-.32.26a10.23,10.23,0,0,1-1.56.73l.19.22.26.33c.15,0,0,0,.2.13a1.74,1.74,0,0,0,.24.22c.19.15.31.24.5.41s.32.26.53.46a3.86,3.86,0,0,0,.54.47c.13.2.13.15.3.28a8.06,8.06,0,0,0,1,.81l.06,0,.28.31c.33-.21.3-.25.53-.52a4.81,4.81,0,0,0,1.2-1.88c.37-.2.91-1.76,1-2.18a7.38,7.38,0,0,0,.45-2.84A7.83,7.83,0,0,0,25.22,11c0-.31-.11-.64-.17-.94s-.08-.64-.26-.77l0-.24c-.12.1-.08.15-.2.42L24,10.66Z"/><path class="cls-4" d="M11.53,20.09a10.84,10.84,0,0,1-3-7.22,9,9,0,0,1,.36-2.95,18.69,18.69,0,0,0,1.19,2.15,14.52,14.52,0,0,0,3,3.62,9.86,9.86,0,0,0,2,1.28l-3.58,3.12ZM8.27,13.2l-.1.1c.09.09.08,0,.13.2l.78,3.27c.11.3,0,.21.24.35a4,4,0,0,0,.81,1.63c.08.12.07.08.19.26s.58.79.74,1a1.08,1.08,0,0,0,.47.47l.11-.07.13-.11c.16-.16.06,0,.15-.19.47-.19.29-.3.73-.48.1-.27.42-.41.68-.66s.22-.17.37-.31.25-.26.36-.37a3.2,3.2,0,0,0,.56-.46c.17-.13.36-.3.52-.41s.06-.14.26-.33a3.58,3.58,0,0,0,.28-.26L14,16.09c-.06-.16,0,0-.18-.22a3.16,3.16,0,0,0-.27-.2c-.16-.12-.34-.21-.38-.38a3.41,3.41,0,0,1-.79-.72,8.21,8.21,0,0,1-.73-.81,10.66,10.66,0,0,1-.71-.94c-.2-.26-.49-.82-.68-1A3,3,0,0,1,9.88,11c-.19-.16-.17-.21-.31-.48L8.83,9c.06.18-.16.64-.21.89s-.13.67-.18,1c-.11.77,0,1.66-.17,2.32Z"/><path class="cls-17" d="M8.36,34.75c-.26.06,0-.2-.1,0v.08s0,0,0,.06a.41.41,0,0,1-.15.53,6.32,6.32,0,0,1,2.18.29,1.51,1.51,0,0,1,.34.13l.23.21c.38.12.2.14.52.29a8.82,8.82,0,0,0,.48-1.2c.21-.58.4-.78.2-1.23a4.89,4.89,0,0,0-2.6-.83l-.84,1.48c-.18.19,0,.09-.26.16Z"/><path class="cls-18" d="M26.44,31.42l.11.13A6.36,6.36,0,0,0,29,32.79c.27.15.23-.39.23.22a1.15,1.15,0,0,0-.46.77,14.75,14.75,0,0,0,3.12.91c.31-1.1.12-.84.68-1.14-.07.52,0,.12-.16.44s-.12.47-.29.85c0,0-.06-.19.2,0s.09-.12.15.24a9.67,9.67,0,0,0,1-1.24c.17-.21.26-.19.28-.47a11,11,0,0,1-4.09-.69,8.23,8.23,0,0,1-2.09-.8A5,5,0,0,1,26.45,31a6.69,6.69,0,0,1-2.37-3.94h0a5.41,5.41,0,0,0,.56,2l0,0,.08.28a2,2,0,0,0,.11.25A6.9,6.9,0,0,0,26,31.09c.36.29.62-.21.44.33Z"/><path class="cls-19" d="M15.13,37a9.72,9.72,0,0,1,4,0l-.43-2.12A3.94,3.94,0,0,0,16,34.76c-.72.15-.5.17-.64,1A11,11,0,0,0,15.13,37Z"/><path class="cls-16" d="M20.58,11c-.22.15.05.31.05.32.13.3.11.17-.09.37l.12,0c.1,0,.07,0,.16.11a1.11,1.11,0,0,1,.33.8c0,.33.07.21.12.51,0,0,0,0-.05,0l-.33.21c.05.13.61.41.61.41.21.19.14-.05.19.32l.68-.93a5.62,5.62,0,0,0,.66-1l-.14-.11c-.28-.15-.15.27-.23,0,0,0,0,0,0,0a.64.64,0,0,0,.06-.16c0-.29.1.05-.07-.15h.08l.07,0c.47-.24.43-.12.55-.19-.12-.3-.18-.27-.36-.53-.33-.46-.5-.9-.77-1.34-.09-.14,0,0-.09-.12L22,9.52c-.25,0-.26.18-.21,0a1.62,1.62,0,0,1-.22-.41,1.06,1.06,0,0,0-.11-.31c0,.41-.8,1.74-.91,2.28Z"/><path class="cls-12" d="M14.44,5c.22-.13.12-.25.1-.54.14.33-.08.16.19.31.13-.12.2-.24.39-.27s.07.13.47-.08l.28-.18a4.8,4.8,0,0,1,1.77,0c.39.17,0,.22.75.29.56,0,0,.14.55.19a.91.91,0,0,0,.13.74l.5-2.53A15.22,15.22,0,0,1,16.78,3C16,3,14.64,2.84,14,2.91L14.44,5Z"/><path class="cls-12" d="M11.78,5c-.19,0-.07-.12-.35.13s-.12.11-.12.26a.19.19,0,0,0,0,.08.45.45,0,0,0,0,.08l-.06.19a16.54,16.54,0,0,0,.6,2.54c.1-.13.16.2,0-.23l.07-.06,0,0c.35-.4.12-.49.47-1,.2-.3.13-.14.39-.3s.1-.12.26-.33.2-.15.4-.31.1-.17.25-.34c.31-.36.24,0,.25-.43,0,0,0,0,.06.06l.15.15c.19.09-.09.27.14,0A19.8,19.8,0,0,0,14,2.93C13.33,3.19,12.67,4.6,11.78,5Z"/><path class="cls-6" d="M12.65,19.65c.31.15-.32,0,.15-.06l.57.16,0,0,0,.18c.1.21,0,0,.15.18s.13.12.23.23l.13.14s0,.06,0,.05,0,0,0,.05a1.33,1.33,0,0,0-.3.34l-.09.25v.06a.21.21,0,0,0,0,.06,1.8,1.8,0,0,1-.28.66,2,2,0,0,1,1.92.19c.26.15.19.17.36.38a12.25,12.25,0,0,0,.49-2.38c0-.3-.21-.42-.35-.61a2.25,2.25,0,0,1-.84.06c-.23.43,0,.16-.38.31l.13-.54a1.69,1.69,0,0,0-.15-.37c-.25-.43-.37-.25-.5-.72-.11.11-.23.26-.36.37s-.22.16-.37.31-.58.39-.68.66Z"/><path class="cls-20" d="M23.47,35.79c0-.11.21-.19-.14-.17s0,.14-.4.15-.36-.39-1.17-.75l-.3-.23c-.46-.43-.29-.24-.22-.35.28-.46,0,.43.07-.09-.67,0-.56,0-.65-.22a7.07,7.07,0,0,0-1.78.79l.4,2.07a9.44,9.44,0,0,1,4.43-.78l-.24-.42Z"/><path class="cls-21" d="M13.62,27c.14.05.18,0,.34.37.08.19.07.28.21.41a5.76,5.76,0,0,0,.4-1.1,1.9,1.9,0,0,0,.21-1.06c-.26,0,0,0-.2-.1a7.27,7.27,0,0,0-1.33-1.15l-1.11-.58c-.19,0-.15.13-.36.49a2.3,2.3,0,0,0-.32.57s.14.13-.1-.33c-.52-1-.47-.9-.81-.88.07.39,0,.08.12.32a1.76,1.76,0,0,0,.15.23,3.39,3.39,0,0,1,.29.46c.34.65.06.4,0,.69s-.14-.3,0,.2c0,0,0,.09.05.07s0,.06.06.08a4.91,4.91,0,0,1,.22-.46,3.31,3.31,0,0,0,.57.37,5.9,5.9,0,0,1,1.37,1.34c.18.13-.12,0,.15.06Z"/><path class="cls-22" d="M19.75,21.76l.3,0,.17.29,0,.05a1.58,1.58,0,0,0-.33.26c-.77.72-.07.52-.71.82l-.76.49c-.45-.18.27-.09-.25-.18L19,25.53c.26-.28.09-.31.44-.48.11,0,0,.06.24-.19a3.45,3.45,0,0,1,1.77-1.31l.37-.15c.28.7.49.5.61.49-.11-.55-.45-.52-.38-.76.1-.41.47-.87.53-1.22-.33,0-.25-.21-.56.55-.23.56-.28.45-.13.6L21.11,22c-.24-.29-.17-.23-.3-.24-.39,0-.12,0-.3,0l-.22,0c-.22,0-.23.06-.54.07Z"/><path class="cls-14" d="M13,31.73A10.47,10.47,0,0,1,12.75,33c-.12.37-.3.77-.38,1.14a4.61,4.61,0,0,1,3,.51c.05-.44.29-2.2,0-2.44a3.7,3.7,0,0,0-2.36-.5Z"/><path class="cls-23" d="M8.67,30.09,7.9,31.68a.81.81,0,0,0,0,.11c0,.19,0,.06,0,.17a1.6,1.6,0,0,1-.07.33,2.41,2.41,0,0,1,1.76.59,13.54,13.54,0,0,1,.69-1.37c.51-1.13.11-.82.07-1.57,0-.21.08-.23-.42-.63L9.33,29c-.46.11-.31.05-.44.52-.08.27-.15.35-.22.62Z"/><path class="cls-7" d="M13.65,28.82a1.74,1.74,0,0,0,.4-1,4.19,4.19,0,0,0-.43-.91c-.27,0,0,.07-.15-.06a5.9,5.9,0,0,0-1.37-1.34,3.31,3.31,0,0,1-.57-.37,4.91,4.91,0,0,0-.22.46s-.05-.09-.06-.08-.05,0-.05-.07c-.19-.5-.07.05,0-.2s.3,0,0-.69a3.39,3.39,0,0,0-.29-.46,1.76,1.76,0,0,1-.15-.23c-.13-.24-.05.07-.12-.32-.25,0-.22-.18-.55-.52l-.56-.55a14.44,14.44,0,0,0,1.45,3.16,12.26,12.26,0,0,0,2.45,2.8c.22.16.23.05.31.34Z"/><path class="cls-24" d="M14.54,28.12c-.36.08-.36,0-.49.19a4.74,4.74,0,0,0-.24.51,6.08,6.08,0,0,0,3.35,1.27A3.8,3.8,0,0,0,19,29.74l1.44-.84c-.21-.6-.31-.74-.93-.87,0,.42.17.11-.17.31s-.1,0-.45.23l0,0a1.4,1.4,0,0,1-.24.15l-.24.14a9.38,9.38,0,0,1-2.72.11c-.65,0-.45-.37-1.14-.38,0-.26,0-.37,0-.5Z"/><path class="cls-17" d="M7.28,36.28c-.17,0,0,0-.16.1a.57.57,0,0,0-.1.11c-.23.32-.13.12-.13.37-.07.52-.47.45-.49.85a12.45,12.45,0,0,1,2.6.47c.36,0,0,0,.28-.35a2.29,2.29,0,0,0,.44-.61l0-.06.08-.22.09-.13.22-.25a2.28,2.28,0,0,1,.63-.29A6,6,0,0,0,8,35.68c-.42.81-.45.62-.68.6Z"/><path class="cls-15" d="M21.8,20.2l-.05.07-.05.07-.31.27a1.46,1.46,0,0,0-.31.34c-.41.59-.34.44-.27.81.13,0,.06-.05.3.24l.76,1.06c-.15-.15-.1,0,.13-.6.31-.76.23-.56.56-.55.15,0,0,.05.17-.06a2.19,2.19,0,0,1,1.2-.7,12,12,0,0,1,0-2.32c.11-.71.13-.55-.13-.72A4.81,4.81,0,0,1,22.61,20c-.23.27-.2.31-.53.52l-.28-.31Z"/><path class="cls-25" d="M19.6,20.2l.22.4a1.53,1.53,0,0,1-.6-.61.38.38,0,0,0-.16.35c0,.23,0,0,.08.28a1.57,1.57,0,0,0-.47.3l-.37.31a.94.94,0,0,1-.57.36h-.06s0,0,0,0a2.31,2.31,0,0,0,.28,1,.83.83,0,0,1,.52-.29s0,0,.06,0l.25-.07c.09,0,.19-.13.33-.2s.53-.14.67-.28c.31,0,.32-.07.54-.07l.22,0c.18,0-.09,0,.3,0-.07-.37-.14-.22.27-.81a1.46,1.46,0,0,1,.31-.34l.31-.27.05-.07.05-.07-.06,0a8.06,8.06,0,0,1-1-.81c-.17-.13-.17-.08-.3-.28l-.07,0-.06,0-.08,0c-.16.3.22.37-.42.8l-.18.3Z"/><path class="cls-26" d="M11.46,38.85c.29.19,2.35.46,3,.75l.49-2.52c-.31-.32-.78-.33-1.17-.49l-.06,0-.22.14a2.31,2.31,0,0,1-.4,0c.25.35-.18.45-.18.45a2.05,2.05,0,0,0-.71,1,4.12,4.12,0,0,1-.41.43l.06,0,.33.09c-.33,0-.41,0-.69.09Z"/><path class="cls-13" d="M10.24,7.09c-.21,0,.07-.11-.11.07A12.45,12.45,0,0,1,8.83,9l.74,1.51c.14.27.12.32.31.48.3-.33-.18,0,.11,0h.11c.22,0,.15-.06.2-.08-.08-.25-.17,0-.11-.35s.22-.07.46-1.13c.35-1.58.42-1,.74-1.36l.22.23C11.49,7.87,11.08,6,11,5.87A3.51,3.51,0,0,1,10.44,7c.06.34,0,0-.2.1Z"/><path class="cls-27" d="M10.93,11.19l-.4.2-.16.16c-.09.14-.18-.15-.07.26.19.19.48.75.68,1a10.66,10.66,0,0,0,.71.94l.77-.73c.2-.19.17-.16.29-.16.15-.52.44-.55.35-.85A16.74,16.74,0,0,1,12,9.37a2.26,2.26,0,0,1-.47,1.33l-.15.24c-.1.17,0,.28-.44.25Z"/><path class="cls-28" d="M12.81,10.89A4.19,4.19,0,0,1,13.36,12a3.68,3.68,0,0,0,1-.15l-.29,0a.06.06,0,0,1,.06,0c.3-.11-.17-.13.33-.12-.17-.16-.1-.07-.38-.16.66-.08-.22.2.69-.67.24-.22.28-.13.29-.62.13.1.07.08.09.33.09-.1,0,0,.1-.19a10.3,10.3,0,0,0-.43-2.4h-.07l-.17.15a7.34,7.34,0,0,0-.65.73l-.54.68a3.56,3.56,0,0,0-.55,1.27.35.35,0,0,1,0,.07.37.37,0,0,1,0,.08Z"/><path class="cls-29" d="M19.32,4.67c0,.11-.14.62-.19.89-.12.62-.19.49.13,1,.25,0,.28.29.62.64.12.12.21.22.34.33.3.26.28.16.29.33.4.12.48.3.91.48l.13-.26c.1-.23,0-.13.13-.22,0,0,0,0,0-.07l-.11-.39c.16-.14,0-.14.11.2.1-.56.16-.25,0-.62a.08.08,0,0,1,0,0,.14.14,0,0,1,0-.06L21,5.81c-.19-.26-.17-.12-.39-.3s-.1-.25-.4-.51l-.38-.31c-.06-.08-.08-.12-.12-.18-.22.09-.08.1-.34.16Z"/><path class="cls-17" d="M18.62,8.43c.13.25.14.16.16.45l0-.53s0,0,0,.05,0,0,0,0c.53.53.25.35.7.84l.36.47a.72.72,0,0,1,.32.61h.08l.14.08a2.19,2.19,0,0,0,.23-.5c.07-.16.14-.25.22-.46l.31-.69c.1-.22.07,0,.08-.25-.2-.13-.17,0-.46-.2a.56.56,0,0,1-.38-.48c0-.17,0-.07-.29-.33-.13-.11-.22-.21-.34-.33-.34-.35-.37-.6-.62-.64l-.18-.09c-.15,0,.05-.07-.16,0A9.24,9.24,0,0,0,18.62,8.43Z"/><path class="cls-16" d="M18.5,30.13A4.45,4.45,0,0,1,15.66,30v2.19a4.28,4.28,0,0,1,2.89,0l-.05-2.11Z"/><path class="cls-30" d="M22.71,26.17c.14.16,0-.07.08.17s0,1.12,0,1.43c.14.58-.11,1.74.26,2.43.08-.08.08-.11.14-.17l.22-.19c-.13.28-.05.14-.09.32.18.09-.09,0,.28,0h.11c.55,0,.49,0,.86.58v0c.08.15.25.44.6.29-.51-.74-.69-1.75-1-1.77l-.31.22a1.16,1.16,0,0,1-.2.13c-.26.14.42-.09-.25.11.06-.41.18-.64.84-.69l-.09-.25a1.32,1.32,0,0,1-.07-.23c-.16-.52-.21-1.17-.45-1.27l-.68.38c.08-.55.31-.6,1-.6h0l-.17-.37c-.06.2.07.08-.18.17l-.21-1.64c-.09.05-.07,0-.15.14l-.09.13-.41.65c-.72.12.38-.3-.16,0Z"/><path class="cls-31" d="M2.3,35.34c.2.26.73.39,1.05.54a5.74,5.74,0,0,1,1.05.56c-.38-.14-.77-.38-1.15-.55l-.83-.39a.41.41,0,0,0-.36,0l1.17,1a7.29,7.29,0,0,0,1.32.89c0-.4.17-.09-.18-.31.49.08.17.08.55-.22a4.93,4.93,0,0,0-.46-.23s0-.54.36-.07l0-.05-.06-.2s0,0,0,0l0-.78L5.27,35a.63.63,0,0,0,.1-.28l.1.05,0,0c.07,0-.09.22.14,0l0-.29v-.06s0,0,0-.06l.36.06a1.31,1.31,0,0,0-1.4-.08c-.15.09-.29.16-.45.24s-.54.26-.86.43c-.51.25-.62.4-1.05.37Z"/><path class="cls-14" d="M22.18,33.49c0,.22.07.18-.3.37l.07.34L21.67,34l-1,.1c.09.22,0,.27.65.22,0,.52.21-.37-.07.09-.07.11-.24-.08.22.35l.3.23c.81.36.68.77,1.17.75s.18-.13.4-.15.14.06.14.17c.31.17.17.18.4.36.29,0,.13-.07.43-.22,0-.21,0,0,.11-.17s.06,0,.2-.16-.16.1.15-.16c-.7-.29-.05-.61-.72-.94l-.72-.5c-.69-.59-.12.14-.28-.21l-.13-.24s0,0-.05,0l-.45.26v0c-.14-.28,0,.11.23-.57-.33,0-.44,0-.45.32Z"/><path class="cls-32" d="M15.29,9.52l.29,1.58a4,4,0,0,0,2.26,0,7.31,7.31,0,0,0,.38-1.58c-.09-.11,0,0-.1-.17s0-.14,0-.17,0-.18-.15.16L17.84,9c-.23.33,0,.28-.13.14l-1.26,0c-.43,0-.14.19-.67.12l-.17.53c0-.11,0-.15-.13-.2l-.08,0s0,.11-.11-.06Z"/><path class="cls-22" d="M15.66,30c0-.19,0-.11-.1-.2-.19.17-.07.15-.31.08l-.3-.16c-.1.3.2.16-.91,0-.35-.06-.74-.09-1.11-.14L13,31.64c1.53-.17,1.47.2,2.54.5l0-1.56C15.51,30.09,15.55,30.12,15.66,30Z"/><path class="cls-33" d="M22.08,7.47a4.14,4.14,0,0,0-.41,1A5.29,5.29,0,0,0,22,9.52l.06.06c.08.1,0,0,.09.12.27.44.44.88.77,1.34.18.26.24.23.36.53-.12.07-.08-.05-.55.19l-.07,0h-.08c.17.2.08-.14.07.15a.64.64,0,0,1-.06.16s0,0,0,0c.08.29-.05-.13.23,0l.14.11L24,10.66l-.46-1c-.16-.85-.08-.34-.35-1A.8.8,0,0,0,23,8.39c-.28-.44-.07-.32-.28-.72-.36-.68-.06-.3-.21-1l-.1.66c-.18.08-.05,0-.12,0-.24,0,.3-.17-.09,0-.11.05-.1.14-.13.16Z"/><path class="cls-8" d="M14.54,28.12c0,.13,0,.24,0,.5.69,0,.49.34,1.14.38a9.38,9.38,0,0,0,2.72-.11l.24-.14a1.4,1.4,0,0,0,.24-.15l0,0c.35-.27.2-.08.45-.23s.18.11.17-.31a11,11,0,0,0-4.95.09Z"/><path class="cls-12" d="M3.85,32.71c0,.59,0,.09.66.94.21.26.14.2.26.2.51-.07,1.33-.84,1.69-.77,0,0,0,0,0,0s0,0,0,0l1-.67c-.13-.2-.16-.29-.31-.52,0,0,.06,0,.07.05s0,0,.07.05c.41.35,0,.12.3.29l0,0c.06.14,0,0,.2-.22,0-.11,0,0,0-.17a.81.81,0,0,1,0-.11l.77-1.59-1,.9a3.36,3.36,0,0,1-.54.39c-.5.18,0,0-.5.32a6.36,6.36,0,0,1-2.79,1Z"/><path class="cls-31" d="M19.32,4.67c.26-.06.12-.07.34-.16,0,.06.06.1.12.18l.38.31c.3.26.16.31.4.51s.2,0,.39.3l.7,1.05a.14.14,0,0,0,0,.06.08.08,0,0,0,0,0c.12.37.06.06,0,.62-.1-.34.05-.34-.11-.2l.11.39s0,0,0,.07a18.1,18.1,0,0,1,.93-2.5,1.08,1.08,0,0,1-.81-.15c-.24-.21-.16.11-.15-.32,0-.16,0,0-.08-.16L20.79,4a1.12,1.12,0,0,0-.16-.13c-.19-.11.1,0-.14,0s-.09,0-.29-.15l-.27-.39,0,0c-.28-.3.14,0-.3-.25l-.27,1.69Z"/><path class="cls-11" d="M15.5,23.89,15,25.63c1.28-.2,2.5-.58,3.84-.08l-.69-1.89c-.15.21-.22-.26-.11.26l0-.05-.13-.17c-.18.33,0,.17-.26.29-.51.1-1-.22-1.12.14h-.27c-.08-.24.05-.06-.21-.22-.3.13.05.06-.26.21-.13-.58,0-.37-.17-.51l-.09.28Z"/><path class="cls-22" d="M19.22,29.9c-.3.1-.39.25-.62.14l0,2.14A8.23,8.23,0,0,1,21,31.46l-.15-1.71c-.18-.74-1,.08-1.61.15Z"/><path class="cls-34" d="M10.68,30.51a2.79,2.79,0,0,1,2.21,1,10.85,10.85,0,0,0-.09-1.92c-.07-.19-.2-.23-.33-.36s-.18-.24-.31-.38A2.57,2.57,0,0,0,10.81,28,18.07,18.07,0,0,1,10.68,30.51Z"/><path class="cls-7" d="M20.49,3.81c.24,0,0-.07.14,0a1.12,1.12,0,0,1,.16.13l.78.74c.12.15.07,0,.08.16a4.17,4.17,0,0,0,1,.37l.1-.44c-.07-.19,0-.11,0-.33a.85.85,0,0,0,0-.16c0-.4-.12-.15-.47-.42,0,0-.12,0-.25-.4s.1,0-.25-.39l-1-1a.79.79,0,0,0-.67-.21h-.16a1.19,1.19,0,0,0-.18.54c-.06.33-.09.32.06.53l.69.82Z"/><path class="cls-8" d="M1,33.5c.16.21.8.47,1,1.2s-.05.4.22.64c.14-.32,0-.17.62-.47l1.31-.66c.29-.16.49-.23.54-.36-.12,0,0,.06-.26-.2-.7-.85-.69-.35-.66-.94h0a2.85,2.85,0,0,1-1.25.37A4.64,4.64,0,0,0,1,33.5Z"/><path class="cls-12" d="M29.17,36.51a1,1,0,0,1,.63.38c.07-.13.08-.24.16-.4.34-.74.42-.52.75-1.11H31c0-.3-.05,0,.08-.23s.36-.36.53-.22a4.23,4.23,0,0,1-1-.22l-.92-.3c-.26-.1-1-.49-1.2-.4a1.64,1.64,0,0,1-.2.09l-.22.07c0,.05,0,0,.22.11l.17,0-.26.18.43,1.06c.1.34-.13-.1.07.29l.56,0c-.08.16,0,.09-.31.08l.18.3c-.65-.33-.2-.12-.3,0,.19,0,.35.1.38.3Z"/><path class="cls-26" d="M19.52,38.11l.24.52a3.75,3.75,0,0,0,.21.55l2.13-.67a.6.6,0,0,1-.08-.08l.27-.24c-.37-.18-.31-.3-.74-.67l-.12-.1c-.12-.12-.44-.4-.39-.55s0,0,.09-.12l0,0s0,0,0-.05a1,1,0,0,1-.73,0l-1.13.45a9.34,9.34,0,0,1,.17,1Z"/><path class="cls-35" d="M14.27,15.83l-.23.26,1.64.76a3.58,3.58,0,0,1-.28.26c-.2.19-.14.09-.26.33a.67.67,0,0,0,.21-.06.94.94,0,0,0,.23-.1.4.4,0,0,0,.2-.23c-.29.17-.11-.39,0,.31l-.08.37c.12,0,.18,0,.27.08a.68.68,0,0,0-.25.23c-.36.62,0,.4.1.45.24-.37.43-.49.38-.68.11-.5.28-.4.46-.68-.27-.15-.13-.2-.12-.25l0-.09a12.21,12.21,0,0,0-.44-2.26c-1.6.55-1.16.78-1.52,1.15s.12.16-.31.15Z"/><path class="cls-35" d="M14.42,40.26c2,.09,3.82-.1,5.72-.08a2,2,0,0,0-.3-.78,11.7,11.7,0,0,0-3.06.05C15.05,39.61,14.53,39.46,14.42,40.26Z"/><path class="cls-6" d="M22.12,38.64l.14,0c.17.09,0,0,.17.09l.22.23c.16.17.21,0,.16.24,0,.13,0,.07-.2.11l.77,0c-.31.23-.61.08-.84.38l.29,0c.45,0,3.47-.5,3.7-.83-.26-.25-.44-.54-.81-.64a6.46,6.46,0,0,0-1.26-.08,15.87,15.87,0,0,0-2.34.37Z"/><path class="cls-36" d="M22.08,7.47s0-.11.13-.16c.39-.19-.15,0,.09,0,.07,0-.06.09.12,0l.1-.66c.15.73-.15.35.21,1,.21.4,0,.28.28.72a.8.8,0,0,1,.13.24c.27.68.19.17.35,1l.46,1,.61-1.19c.12-.27.08-.32.2-.42l0,.24c.3-.08.34,0,.22-.36a4.08,4.08,0,0,0-.85-.63c-.48,0-.11.12-.37-.18l-.55-1a11.3,11.3,0,0,0-.6-1.51c0,.07,0-.05,0,.16l-.26.72a5.74,5.74,0,0,0-.31,1Z"/><path class="cls-37" d="M7.28,36.28c.23,0,.26.21.68-.6a6,6,0,0,1,2.81.59,2.28,2.28,0,0,0-.63.29l-.22.25-.09.13-.08.22,0,.06a2.29,2.29,0,0,1-.44.61c-.25.33.08.3-.28.35l1.47.57.85-2.2c-.21-.29-.33-.17-.46-.47l-.23-.21a1.51,1.51,0,0,0-.34-.13,6.32,6.32,0,0,0-2.18-.29.41.41,0,0,0,.15-.53c-.4.16-.08,0-.54.61-.28.37-.38.42-.44.75Z"/><path class="cls-34" d="M21.88,30.81c.12-.39.76-.44,1.1-.43l-.28-2.22a1.18,1.18,0,0,0-1,.3c-.73.59-.86.88-.76,1.66.06.41.13.82.16,1.23A2.21,2.21,0,0,1,21.88,30.81Z"/><path class="cls-35" d="M17,17.43c0,.19.35.58.5.71s0,.12.34.12c.09-.26,0-.38-.46-.68.05,0-.17.17.22-.07l.54-.22c.13.2,0,.08.25.09l-.26-.33L18,16.83a10.23,10.23,0,0,0,1.56-.73l-.18-.24c-.28-.29-.09.05-.63-.65a.93.93,0,0,0-.13-.15c-.18-.16.09,0-.12-.07s-.14.11-.62-.13l-.1,0-.14-.09a.74.74,0,0,0-.2-.16l-.46,2.27a7.38,7.38,0,0,1,1.29-1.76,9.21,9.21,0,0,1-1.1,1.78c-.25.4-.17.12-.12.5,0,0,0,0,0,.08Z"/><path class="cls-15" d="M11.81,8.23l.19.54a4,4,0,0,1,.9-.54c0-.2-.11-.17.2-.23h.13a4.36,4.36,0,0,1,.55-.49c.25-.24.8-.85.77-1.23l-.22-.89c-.23.3.05.12-.14,0L14,5.27s0,0-.06-.06c0,.44.06.07-.25.43-.15.17-.1.22-.25.34s-.2,0-.4.31,0,.17-.26.33-.19,0-.39.3c-.35.51-.12.6-.47,1l0,0L11.86,8c.11.43.05.1,0,.23Z"/><path class="cls-6" d="M13.17,36.4c-.12-.24-.66-.2-.76-.23.19-.19,0-.07.29-.25L14.4,35l.18-.07.66-.19c-.37-.57-2.15-.55-2.88-.52l-.84,2.19,1.65-.05Z"/><path class="cls-9" d="M15.14,17.44c-.16.11-.35.28-.52.41a3.2,3.2,0,0,1-.56.46c.13.47.25.29.49.72a1.34,1.34,0,0,1,.16.37l-.13.54c.41-.15.15.12.38-.31a2.25,2.25,0,0,0,.84-.06l.12.05.11.07.29.24a17,17,0,0,1,.38-2.62l-.53.5c0,.19-.14.31-.38.68-.06,0-.46.17-.1-.45a.68.68,0,0,1,.25-.23c-.09-.06-.15,0-.27-.08l.08-.37c-.08-.7-.26-.14,0-.31a.4.4,0,0,1-.2.23.94.94,0,0,1-.23.1.67.67,0,0,1-.21.06Z"/><path class="cls-38" d="M6.11,37.92c-.16.23-.1.08-.2.39a23.62,23.62,0,0,0,3.93,1.32l.5-.76a14,14,0,0,0-1.95-.73,4.89,4.89,0,0,0-2.14-.27Z"/><path class="cls-2" d="M11,33.21c.25-.12-.17-.23-.48-.25.11-.09,0-.16.42-.13-.44,0-.17,0-.28-.26a2.14,2.14,0,0,0,1.1-.51c.15-.1.23-.12.33-.28.13.12,0-.1.14.22-.12-.09,0-.08,0-.2s0,0,0-.05,0,0,0-.05v-.05l.43-.06h0a2.4,2.4,0,0,0-2.1-.95,13,13,0,0,1-.43,1.24A8,8,0,0,0,9.63,33l1.41.19Z"/><path class="cls-7" d="M11.06,4.86l.08.56.17-.08c0-.15-.15,0,.12-.26s.16-.13.35-.13a2.8,2.8,0,0,1,.53-.5l1.59-1.7c-.28-.13,0,.08-.11-.22,0-.08,0,0-.08-.23s-.1-.07-.13-.49l-.11.08,0,0L13.18,2l-.21.1-.61.68c-.12.11,0,0-.17.13-.32.28-.21.57-.51.78s-.35,0-.43.88c.17-.36,0-.29-.17-.37.05.32.16.58,0,.7Z"/><path class="cls-39" d="M7.64,13.44a17.06,17.06,0,0,0,.45,3.94c.09.24,0,.07.09.12a4.34,4.34,0,0,0,.4-.17A.76.76,0,0,0,9,17.12h.37c-.23-.14-.13-.05-.24-.35L8.3,13.5c-.05-.18,0-.11-.13-.2l-.53.14Z"/><path class="cls-6" d="M15.66,33.84a3.3,3.3,0,0,0-.14.87c.71.12,1.23-.65,3.22,0l-.16-.88,0,.32-.16-1H15.81l-.08,1-.07-.38Z"/><path class="cls-40" d="M22.17,25.43l-.21.22A4.61,4.61,0,0,0,20.83,27c-.52.86-.92,1.26-.29,1.78a11.38,11.38,0,0,0,2.55-3.41c-.2-.4-.35-.22-.15-.36Z"/><path class="cls-10" d="M10.8,2.68l.26,2.18c.18-.12.07-.38,0-.7.15.08.34,0,.17.37.08-.9,0-.59.43-.88s.19-.5.51-.78c.12-.1.05,0,.17-.13L13,2.06l.21-.1.25-.05,0,0,.11-.08c0,.42,0,.21.13.49s0,.15.08.23c.09.3-.17.09.11.22.08-.58-.31-1.34-.21-2l-2.36,1.5c-.54.45,0,.29-.53.42Z"/><path class="cls-16" d="M13.23,8H13.1c-.31.06-.19,0-.2.23,0,.38.06.25-.62.61a.57.57,0,0,0-.21.15,13.08,13.08,0,0,1,.74,1.9.37.37,0,0,0,0-.08.35.35,0,0,0,0-.07,3.56,3.56,0,0,1,.55-1.27l.54-.68a7.34,7.34,0,0,1,.65-.73l.17-.15h.07a3.83,3.83,0,0,0-.07-.58c0-.07,0-.27-.05-.32l-.15-.31a2.48,2.48,0,0,1-.52.77,1.22,1.22,0,0,1-.31.29.87.87,0,0,1-.48.26Z"/><path class="cls-41" d="M11.46,38.85c.28-.13.36-.07.69-.09l-.33-.09-.06,0a4.12,4.12,0,0,0,.41-.43,2.05,2.05,0,0,1,.71-1s.43-.1.18-.45a2.31,2.31,0,0,0,.4,0l.22-.14.06,0c-.42,0-2.09-.19-2.28.06l-.87,2.11a2.16,2.16,0,0,0,.87.09Z"/><path class="cls-17" d="M15.5,23.89l.09-.28c.17.14,0-.07.17.51.31-.15,0-.08.26-.21.26.16.13,0,.21.22h.27c.12-.36.61,0,1.12-.14.28-.12.08,0,.26-.29l.13.17,0,.05c-.11-.52,0-.05.11-.26-.22-.26-.24-.75-.46-1s-.79-.18-1.2-.28c-.34.27-.58.08-.76.47a8.31,8.31,0,0,0-.24,1Z"/><path class="cls-17" d="M18.76,33.83a3.45,3.45,0,0,0,.12-1.15c.74.29.24.15.71.2.2,0,0,0,.27.08.5.19,0-.07.47.07s0,0,.24.15.06.12.14,0c.28,0,.21.31.11-.29.47.26-.16.1.44.64.14.12.1,0,.17.23l-.33.12.58,0c0-.39-.37-.75-.34-1.29a3,3,0,0,1-.27-1c-.75-.28-1.79.51-2.42.65l.11,1.55Z"/><path class="cls-26" d="M10.12,39.74c.65.08,1.32.23,2,.32s1.47.1,2.17.2l.1-.55a24.63,24.63,0,0,0-3.76-.81A1.5,1.5,0,0,0,10.12,39.74Z"/><path class="cls-34" d="M9.88,11a3,3,0,0,0,.42.83c-.11-.41,0-.12.07-.26l.16-.16.4-.2a8.2,8.2,0,0,0,.75-1.35,1.89,1.89,0,0,0-.07-1.56l-.22-.23c-.32.39-.39-.22-.74,1.36-.24,1.06-.4.81-.46,1.13s0,.1.11.35c-.05,0,0,.07-.2.08H10c-.29,0,.19-.31-.11,0Z"/><path class="cls-14" d="M15.66,33.84l.07.38.08-1h2.57l.16,1,0-.32,0-1.56c-1.37-.12-1-.46-2.9,0A4.38,4.38,0,0,0,15.66,33.84Z"/><path class="cls-42" d="M17.64,21.59s0,0,0,0h.06a.94.94,0,0,0,.57-.36l.37-.31a1.57,1.57,0,0,1,.47-.3c-.08-.28-.08-.05-.08-.28a.38.38,0,0,1,.16-.35c-.19-.35-.52-.5-.77-.91a1.85,1.85,0,0,0-1.17.91A2.81,2.81,0,0,0,17.64,21.59Z"/><path class="cls-41" d="M13.17,36.4a3.87,3.87,0,0,1,1.79.52l.38-1.7c.07-.34.1-.34-.1-.44l-.66.19L14.4,35l-1.7.88c-.27.18-.1.06-.29.25.1,0,.64,0,.76.23Z"/><path class="cls-43" d="M18.76,33.83l.08.89c.33-.13.66-.3,1-.44a7.09,7.09,0,0,0,1.23-.38l.33-.12c-.07-.22,0-.11-.17-.23-.6-.54,0-.38-.44-.64.1.6.17.29-.11.29-.08.1,0,.08-.14,0s.16,0-.24-.15,0,.12-.47-.07c-.23-.09-.07-.06-.27-.08-.47-.05,0,.09-.71-.2a3.45,3.45,0,0,1-.12,1.15Z"/><path class="cls-16" d="M13,22.36c-.25.05-.21.14-.25.47l.09,0,.32-.21c.24-.19,0,.15.2-.16l.31.41c.38.58,0,.11.54.52l0,0,.28.18.05,0,0,0,.49.28c.12-.13.07,0,.27-.11.36-.83.35-1.22-.36-1.63a1.82,1.82,0,0,0-1.62-.05l-.4.25Z"/><path class="cls-30" d="M9.33,29l.58.36c.5.4.45.42.42.63l.21.34a6.31,6.31,0,0,0,.2-2.21c0-.4-.23-.53-.41-.76a1.81,1.81,0,0,0-.63-.6c0,.23-.4,2.14-.37,2.24Z"/><path class="cls-6" d="M16.5,22.38c.27-.2.84,0,1.22.07l-.66-2.33a.7.7,0,0,0-.35-.19c-.39-.07-.38.2-.47.67l-.45,1.95a1.76,1.76,0,0,1,.71-.17Z"/><path class="cls-26" d="M20.75,40.08a5.94,5.94,0,0,0,2.08-.26l-.29,0c.23-.3.53-.15.84-.38l-.77,0c.21,0,.19,0,.2-.11.05-.29,0-.07-.16-.24l-.22-.23c-.12-.08,0,0-.17-.09l-.14,0-2.12.7.27.77.48,0Z"/><path class="cls-28" d="M18.62,8.43c-.12.18-.05.05-.12.3,0,.09-.06.28-.08.38a3.25,3.25,0,0,0-.09.81s.16.37.06-.24c.1.11.28-.22.12.4l.16,0s0,0,.14-.25l.12.25,0,0,0,0c.51.49.08.28.5.67a1.12,1.12,0,0,1,.29,1.11,15.09,15.09,0,0,0,.74-1.45l-.14-.08h-.08A.72.72,0,0,0,20,9.75l-.36-.47c-.45-.49-.17-.31-.7-.84,0,0,0,0,0,0s0,0,0-.05l0,.53c0-.29,0-.2-.16-.45Z"/><path class="cls-6" d="M12.75,12.87c-.12,0-.09,0-.29.16l-.77.73a8.21,8.21,0,0,0,.73.81,3.41,3.41,0,0,0,.79.72c.14-.17.18.12.16-.27s0,0,0-.26.06-.11.12-.38l.09-1s0,.26.14-.08c.1.23,0,.14.21.29a4.66,4.66,0,0,0-.35-.66,2.27,2.27,0,0,1-.17-.31c-.18-.45,0-.23,0-.25-.29.27,0,.05-.19.34s-.08.21-.42.2Z"/><path class="cls-6" d="M20.68,15c.31-.15.29-.25.54-.48a2.39,2.39,0,0,0,.23-.22c.16-.15,0-.09.24-.2-.05-.37,0-.13-.19-.32,0,0-.56-.28-.61-.41l.33-.21s0,0,.05,0c-.05-.3-.11-.18-.12-.51a1.11,1.11,0,0,0-.33-.8c-.09-.1-.06-.07-.16-.11l-.12,0c.2-.2.22-.07.09-.37,0,0-.27-.17-.05-.32-.29.25-.37,1-.68,1.22.2.11.51.77.83,1,0,0,0,0-.05.07-.59.67-.18.56-.24,1.81l.24-.09Z"/><path class="cls-16" d="M11,33.21a1.72,1.72,0,0,0,.54.29,1.07,1.07,0,0,1,.29.16c.29.22.15,0,.19.28.16,0,.11-.06.2.08.21-.42.82-2,.5-2.44h0l-.43.06v.05s0,0,0,.05,0,0,0,.05-.12.11,0,.2c-.09-.32,0-.1-.14-.22-.1.16-.18.18-.33.28a2.14,2.14,0,0,1-1.1.51c.11.25-.16.22.28.26-.38,0-.31,0-.42.13.31,0,.73.13.48.25Z"/><path class="cls-15" d="M27.41,38.68a4.51,4.51,0,0,0,1.39-.56c.41-.22.95-.62,1.29-.76a.67.67,0,0,0-.12-.21c-.53.06-1.77-.46-3,.51-.13.1,0-.09-.16.14a3.84,3.84,0,0,0,.47-.21c-.15.19-.14.09-.29.3.32,0,.21,0,.44-.06-.07.16,0,0-.14.12l-.16.11c.37,0,.06,0,.45.07-.35.22,0,0-.16.26a1.15,1.15,0,0,1-.15.29Z"/><path class="cls-9" d="M16.13,13.71l-.05-.9c.15-.53-.26.41.05-.12.09-.15.05-.07.15-.17,0,.27.07.28.09.58,0,0-.08-.49-.1-.6l.95.12c.36.07,0-.21.24,0-.15.54,0,.29.08.38l.35-1.79a4.17,4.17,0,0,1-2.32,0Z"/><path class="cls-41" d="M18.33,9.92a3.36,3.36,0,0,0-.3,1.2,3.62,3.62,0,0,1,.28.29l.29.31s0,0,0,0l.2,0a2.06,2.06,0,0,0,.85.34l.07-.23a1.12,1.12,0,0,0-.29-1.11c-.42-.39,0-.18-.5-.67l0,0,0,0-.12-.25c-.11.26-.12.23-.14.25l-.16,0c.16-.62,0-.29-.12-.4.1.61,0,.26-.06.24Z"/><path class="cls-38" d="M12.65,19.65c-.44.18-.26.29-.73.48a2.89,2.89,0,0,0,.6.87.38.38,0,0,0,.11.11c.19.13-.1,0,.14.06s.18,0,.32.33.1.22.19.36c.28-.23.09-.17.38-.53a.21.21,0,0,1,0-.06v-.06l.09-.25a1.33,1.33,0,0,1,.3-.34s0-.06,0-.05,0,0,0-.05l-.13-.14c-.1-.11-.12-.12-.23-.23s-.05,0-.15-.18l0-.18,0,0-.57-.16c-.47.1.16.21-.15.06Z"/><path class="cls-30" d="M12.77,28.16c-.27,0-.15,0-.36-.2L11.2,26.51c-.1-.14-.31-.43-.42-.56l.06,1.92c.81.1,1.26.78,1.76,1.27.19.19.06,0,.22.21l-.05-1.19Z"/><path class="cls-35" d="M16.13,13.71l.13.65c.22,0,.77.06.94-.09s.21-.92.34-1.25c-.07-.09-.23.16-.08-.38-.24-.23.12,0-.24,0l-.95-.12c0,.11.07.55.1.6,0-.3-.07-.31-.09-.58-.1.1-.06,0-.15.17-.31.53.1-.41-.05.12l.05.9Z"/><path class="cls-21" d="M29,32.79a6.36,6.36,0,0,1-2.47-1.24l-.11-.13c-.24.08-.27.2-.46.3a6.87,6.87,0,0,0,2.59,1.9,1.11,1.11,0,0,1,.45-.83Z"/><path class="cls-44" d="M18.44,22.31l-.27.24c-.15.12-.11.05-.23.21l.27.7c.52.09-.2,0,.25.18l.76-.49c.64-.3-.06-.1.71-.82a1.58,1.58,0,0,1,.33-.26l0-.05-.17-.29-.3,0c-.14.14-.46.17-.67.28s-.24.15-.33.2l-.25.07S18.46,22.31,18.44,22.31Z"/><path class="cls-24" d="M9.7,26.49l.5.49c.31.34.09.2.54.58l-.05-2c-.17.16-.14-.36-.14.3.12-.24-.57-1.35-.72-1.6Z"/><path class="cls-36" d="M31,35.37c0,.3.05,0-.06.24l-.48.58a9.55,9.55,0,0,0-.49,1c.37.13.42,0,.71-.27s.43-.37.66-.56a6,6,0,0,0,1.15-1.22c-.49,0-.44-.2-.81,0-.12.07-.17.14-.31.22s0,.21-.37.07Z"/><path class="cls-20" d="M19.26,18.31c-.26,0-.83.56-.54.9.11.13,0,0,.11.11s0,0,.12.12l.2.25c.36.42.13.36.45.51l.18-.3c.64-.43.26-.5.42-.8l.08,0,.06,0,.07,0a3.86,3.86,0,0,1-.54-.47c-.21-.2-.32-.2-.53-.46,0,.23.1.22-.08.17Z"/><path class="cls-45" d="M.2,33.62a10,10,0,0,0,1.38,1.45c.21.22.2.38.46.33,0,0,0-.07,0-.06l.05-.26a2,2,0,0,0-.79-1.29c-.19-.14-.34-.17-.48-.33a1.36,1.36,0,0,0-.65.16Z"/><path class="cls-5" d="M21.88,30.81l0,.11a.7.7,0,0,1-.08.46,1.2,1.2,0,0,1,1.19.78c.2,0,.06,0,.2-.07l.26-.1L23,30.52l0-.06c-.64,0-.64.21-1.06.35Z"/><path class="cls-46" d="M17.85,18.26c-.31,0,0,.12-.34-.12s-.5-.52-.5-.71c-.16-.12-.18-.31-.12.43l.35,1.95c.61-.59.07-.42,1.1-.86a1.91,1.91,0,0,1-.49-.69Z"/><path class="cls-46" d="M17.85,18.26c.29,0,.08-.12.3.23s0,.19.28.35c.17-.05.33-.44.52-.55.47-.29.2-.08.31,0s.11.06.08-.17c-.19-.17-.31-.26-.5-.41a1.74,1.74,0,0,1-.24-.22c-.16-.14-.05-.09-.2-.13s-.12.11-.25-.09l-.54.22c-.39.24-.17.1-.22.07.44.3.55.42.46.68Z"/><path class="cls-30" d="M20.85,28.77v.43c.54-.62,1-1.22,1.86-1.13V26.55c-.28.28-.63.84-.9,1.16s-.63.71-1,1.06Z"/><path class="cls-47" d="M16.76,16.77l.46-2.31a2.74,2.74,0,0,1-.94,0l.48,2.27Z"/><polygon class="cls-34" points="14.79 29.77 12.89 28.49 12.95 29.47 14.79 29.77"/><path class="cls-26" d="M16.4,19.8a1.12,1.12,0,0,1,.67.1l-.34-2L16.4,19.8Z"/></g></g></g></svg>