<svg xmlns="http://www.w3.org/2000/svg" viewBox="0 0 30.95 23.27"><defs><style>.cls-1,.cls-2{fill-rule:evenodd;}.cls-2{fill:#fefefe;}</style></defs><g id="Слой_2" data-name="Слой 2"><g id="Слой_1-2" data-name="Слой 1"><g id="_3015472613296" data-name=" 3015472613296"><path class="cls-1" d="M13.76,21.06a2.3,2.3,0,0,1,1,1C14.34,21.93,13.69,21.65,13.76,21.06Zm2.31,1c.13-.24.75-1,1-1C17.18,21.62,16.56,21.94,16.07,22.05ZM23.23,19l.08-.06.46-.12a2.48,2.48,0,0,1,1.63.33c-.36,0-.78,0-1.15,0S23.57,19.25,23.23,19Zm-17.7.15a2,2,0,0,1,1-.34,2.35,2.35,0,0,1,.65,0,1.07,1.07,0,0,1,.5.17c-.29.27-.56.16-1,.15s-.78,0-1.16,0Zm19.76-.77c1.15,0,1.94-.1,3.16,0,.5,0,.77,0,.87.16a2.26,2.26,0,0,1-.54.05,6.3,6.3,0,0,0-2.19.54c-.4.19-.5.1-.93.08-.07-.45-.26-.51-.37-.79Zm-23.95.14c.07-.16.16-.13.4-.15,1.61-.1,2.34,0,3.91,0a2,2,0,0,0-.38.78c-1,.16-1.06-.07-1.89-.34A8.25,8.25,0,0,0,1.34,18.49ZM25,18.1a1.55,1.55,0,0,1,1-.32,2.1,2.1,0,0,1,1.06.28Zm-21.15,0,0,0,0,0L4,18a1.93,1.93,0,0,1,2,.13l-2.07-.06Zm17,.75a12.89,12.89,0,0,0-1.69.52L20.88,19l.05.48c-.47.19-1.15.14-1.56.37.3,0,.95-.14,1.32-.2s.13,0,.34.1a3,3,0,0,1,1.35-.27,5.48,5.48,0,0,1,1.43.22l-.11-.3h2.22c-.05.12-.29.24-.47.37a5,5,0,0,1-.54.35c0,.1,0,.09.1.18a17.93,17.93,0,0,0-5.62.09c.44,0,.92-.06,1.37-.08a21.51,21.51,0,0,1,4.14.16c-2.53.46-1.84.12-4,.16l-.73.21-.35.31a10.84,10.84,0,0,1-1.59,1.08,5.27,5.27,0,0,1-2.82.74,4.83,4.83,0,0,1-2.81-.72,9.59,9.59,0,0,1-2.07-1.54h.74l-1-.12c-.54.06-1.07,0-1.7.08a4.25,4.25,0,0,1-1.33,0C7,20.59,6.12,20.49,6,20.43a22.49,22.49,0,0,1,4.17-.18,13.53,13.53,0,0,0,1.4.07c-.42,0-.91-.15-1.39-.19a19.86,19.86,0,0,0-3.18,0c-.49,0-1,.15-1.48.17l.3-.15L5.68,20a1.3,1.3,0,0,0-.15-.1l-.77-.55a20.21,20.21,0,0,1,2.46,0l-.11.29a8.21,8.21,0,0,1,1.41-.21,3.06,3.06,0,0,1,1.39.27c.24-.1-.24-.19.78,0l.85.11h0L10,19.43l.05-.47,1.88.42a10.29,10.29,0,0,0-1.83-.57,3,3,0,0,1,.4-.94c.77-1.18.87-.1,1.65-2.47.16-.46.62-1.65,1-1.67,1.06,0,1.45,3.12,1,4.11-.32.7-.82.85-1,1.75a2.49,2.49,0,0,0,.41,2.17,2.35,2.35,0,0,0,3.69,0,2.73,2.73,0,0,0,.42-2.21c-.16-.74-.66-1-1-1.7a4.78,4.78,0,0,1-.07-2.44c.11-.62.45-1.65,1.05-1.65s.94,1.22,1.09,1.65a3.27,3.27,0,0,0,1,1.78,2.71,2.71,0,0,1,1.1,1.65Zm-9.55-5.18c-.35-.33-.49-1-.26-1.17.11.08,0,0,.08.14l0,.46a.76.76,0,0,0,.25.46.93.93,0,0,0,1,.1C12.25,14,11.53,13.86,11.28,13.63ZM20,13.15a1,1,0,0,1-1.3.64c-.56-.21-.8-1.21-.49-1.34.21.25-.11,1,.59,1.23s1.06-.41,1.2-.53Zm-.2-.44c-.11.06-.4.25-.47-.11s.18-.36.4-.3a.58.58,0,0,1,.07.41Zm-7.48-.4c.31-.21.51.32.24.47a.25.25,0,0,1-.35-.13A.23.23,0,0,1,12.28,12.31Zm-9.56-.52A7.46,7.46,0,0,1,4,10a8.07,8.07,0,0,0,.91-.95,7.82,7.82,0,0,0-1.35,1.17c-.12.14-.29.29-.4.43a6.08,6.08,0,0,0-1.23,2.13c.34-.15.54-.51.93-.63a6.25,6.25,0,0,1-.41.58l-.4.6A9.55,9.55,0,0,0,.5,17.64c.2,0,.49-.37.71-.46-.05.17-.35,1-.42,1.15L0,18.51l.78-.07-.15.79a5,5,0,0,1,2.44.11c-.35.2-1.4.22-1.79.46,1.72-.11,1.81-.75,3.38.21-.09.14-.31.23-.43.32-.87.62-1.17.49-1.5.73l.64-.1c0,.05,0,0,0,.07a10.21,10.21,0,0,1,2.87-.09,22.71,22.71,0,0,0-2.54.9c.28-.05.72-.23,1-.32A5.37,5.37,0,0,1,8,21.2a17.59,17.59,0,0,1,2.07.59c.52.17,1.63.7,1.87.76a11.76,11.76,0,0,0-2.8-1.37,10.37,10.37,0,0,1-1-.34,9.82,9.82,0,0,1,2.35-.15l.63.62c.23.2.42.38.68.57a7.56,7.56,0,0,0,1.51,1,4,4,0,0,0,2.11.41,4.16,4.16,0,0,0,2.09-.37,7.52,7.52,0,0,0,1.54-1l1.32-1.18c.27-.25,1.87,0,2.3,0l-.56.21-.53.18a12.66,12.66,0,0,0-2,.88c-.17.09-.82.49-.86.5.27-.09.64-.28.95-.41a17.78,17.78,0,0,1,3.18-1,4.05,4.05,0,0,1,2.39.07c.37.09.74.19,1.08.3s.73.26,1,.32A11,11,0,0,0,26,21.34a10.22,10.22,0,0,1-1.39-.43l.76,0a13.22,13.22,0,0,1,1.94.14c-.06-.09-.19-.16-.23-.25l1.19.29-1.24-.41A2.9,2.9,0,0,1,26,20a2.69,2.69,0,0,1,1.64-.51c.63.06,1.31.24,1.9.28-.43-.3-1.24-.23-1.76-.42-.1,0-.05,0-.09-.05a5.72,5.72,0,0,1,2.37-.06l-.16-.84,1.05.1c-.29-.09-.66-.1-1-.2l-.13-.05-.39-1.06c.24.08.45.35.7.45a10,10,0,0,0-2-4.92,6.42,6.42,0,0,1-.39-.57,4.74,4.74,0,0,1,.93.63A7.06,7.06,0,0,0,26.5,9.64c-.09-.07-.12-.13-.21-.2l-.48-.35c.12.26.41.44.61.64A9.05,9.05,0,0,1,28,11.79c-.41-.1-.73-.2-1.17-.28a4.74,4.74,0,0,0,.42.55,11.45,11.45,0,0,1,2.23,4.36,6.33,6.33,0,0,1-.72-.38c-.24-.12-.52-.25-.75-.34a10.73,10.73,0,0,1,1.25,2.49l-1.91-.12c-.09-.2-.14-.56-.21-.79a7.11,7.11,0,0,0-2.91-4A9.76,9.76,0,0,0,21.44,12,16.12,16.12,0,0,0,18,11.51c.13-.72.78-.93.81-1l0,0a2.35,2.35,0,0,0-.67.1.87.87,0,0,1,.26-.57,1.72,1.72,0,0,1,.37-.34,1.66,1.66,0,0,0-.73.35,2.38,2.38,0,0,0-.48.64,3.86,3.86,0,0,0-.3.83,3.13,3.13,0,0,1-.23.89c-.57-.15-1-2.89-1.09-3.71s-.06-1.46-.17-2.24c0-.26-.28-1.95-.35-2-.06.11-.29,1.78-.33,2.06-.11.8-.11,1.45-.17,2.24-.08,1-.48,3.34-1.08,3.7a6,6,0,0,1-.2-.92c-.19-.74-.63-1.69-1.5-1.81a1.2,1.2,0,0,1,.61.93,1.37,1.37,0,0,0-.65-.1c.13.16.38.21.53.4a1.73,1.73,0,0,1,.31.67,11.35,11.35,0,0,0-6.23,1.74,4.25,4.25,0,0,0-.57.43l-.52.48a6.6,6.6,0,0,0-.88,1.07A8.46,8.46,0,0,0,3.64,18l0,.06c-.1,0-1.83.14-2.16.18A12.79,12.79,0,0,1,2.7,15.7a12.4,12.4,0,0,0-1.46.72,9.92,9.92,0,0,1,1.09-2.68,24.77,24.77,0,0,1,1.56-2.21,5,5,0,0,0-1.17.26Z"/><path class="cls-2" d="M20.83,18.81a2.71,2.71,0,0,0-1.1-1.65,3.27,3.27,0,0,1-1-1.78c-.15-.43-.57-1.65-1.09-1.65s-.94,1-1.05,1.65a4.78,4.78,0,0,0,.07,2.44c.34.72.84,1,1,1.7a2.73,2.73,0,0,1-.42,2.21,2.35,2.35,0,0,1-3.69,0,2.49,2.49,0,0,1-.41-2.17c.17-.9.67-1.05,1-1.75.46-1,.07-4.15-1-4.11-.41,0-.87,1.21-1,1.67-.78,2.37-.88,1.29-1.65,2.47a3,3,0,0,0-.4.94,10.29,10.29,0,0,1,1.83.57L10.05,19l-.05.47,1.57.34h0l-.85-.11c-1-.16-.54-.07-.78,0a3.06,3.06,0,0,0-1.39-.27,8.21,8.21,0,0,0-1.41.21l.11-.29a20.21,20.21,0,0,0-2.46,0l.77.55a1.3,1.3,0,0,1,.15.1l.11.12-.3.15c.44,0,1-.13,1.48-.17a19.86,19.86,0,0,1,3.18,0c.48,0,1,.16,1.39.19a13.53,13.53,0,0,1-1.4-.07A22.49,22.49,0,0,0,6,20.43c.15.06,1,.16,1.29.22a4.25,4.25,0,0,0,1.33,0c.63-.05,1.16,0,1.7-.08l1,.12h-.74a9.59,9.59,0,0,0,2.07,1.54,4.83,4.83,0,0,0,2.81.72,5.27,5.27,0,0,0,2.82-.74,10.84,10.84,0,0,0,1.59-1.08l.35-.31.73-.21c2.14,0,1.45.3,4-.16a21.51,21.51,0,0,0-4.14-.16c-.45,0-.93.09-1.37.08A17.93,17.93,0,0,1,25,20.24c-.07-.09-.08-.08-.1-.18a5,5,0,0,0,.54-.35c.18-.13.42-.25.47-.37H23.7l.11.3a5.48,5.48,0,0,0-1.43-.22A3,3,0,0,0,21,19.7c-.21-.08.12-.16-.34-.1s-1,.19-1.32.2c.41-.23,1.09-.18,1.56-.37L20.88,19l-1.74.38a12.89,12.89,0,0,1,1.69-.52Z"/><path class="cls-1" d="M22.64,3.06c-.05.07,0,0-.09.1l-.34.21A4.26,4.26,0,0,0,23,4.84l.43.36,0,0-.09.08-.16.09a1.31,1.31,0,0,1-.33.12c.07.17,0,.06.12.16l.5.34a2.08,2.08,0,0,0,.88.23c-.14,1.16,0,2.63,1.13,3.19a1.25,1.25,0,0,0-.26-.3A2.22,2.22,0,0,1,24.7,7.9c-.09-.84.11-.74.8-1.54a4.88,4.88,0,0,0,.83-1.5c.15-.46.42-1.73-.08-2-.37.21-.13.84-.89,1.63a4.11,4.11,0,0,1-1.55.91,1.59,1.59,0,0,0,.36-.54,1.16,1.16,0,0,1-1.12-.4,2.72,2.72,0,0,1-.46-1.08c.26-.27.42-.22.56-.7a1.83,1.83,0,0,1-1.24,0c-.32-.11-.75-.38-1-.45a2.78,2.78,0,0,0,.73.52,3,3,0,0,0,1,.32Z"/><path class="cls-1" d="M4.7,8.19c-.06-.32-.31-.92-.42-1.29S4,6,3.91,5.52c-.84-3.74,0-5.59,3.71-3.58a4.29,4.29,0,0,0,.56.29l-.59-.47C6.4.93,3.1-1.43,2.77,1.23A9.62,9.62,0,0,0,3.4,5,22,22,0,0,0,4.7,8.19Z"/><path class="cls-1" d="M7.52,2.7a1.19,1.19,0,0,0,.56.71,2.14,2.14,0,0,1-.45,1.06,1.12,1.12,0,0,1-1.12.42c.09.31.26.36.35.55a3.81,3.81,0,0,1-1.52-.93,2.23,2.23,0,0,1-.52-.73C4.7,3.5,4.68,3,4.45,2.89c-.64.2-.23,2.26.66,3.39a6.58,6.58,0,0,0,.55.61c.28.26.35.26.33.85a2.56,2.56,0,0,1-.73,1.63,2,2,0,0,0,1-1.2,4.51,4.51,0,0,0,.1-1.94A2,2,0,0,0,7.17,6l.5-.33s0,0,.06-.06l0,0,0,0,0,0c-.22-.12-.47-.14-.6-.33A3.35,3.35,0,0,0,8.48,3.35l-.32-.16c-.12-.09,0,0-.11-.13A3.24,3.24,0,0,0,9,2.76a3.51,3.51,0,0,0,.66-.42c.1-.1,0,0,.09-.11C9,2.53,8.56,3,7.52,2.7Z"/><path class="cls-1" d="M22.44,2.3a9.71,9.71,0,0,1,2.33-1.08C26,.9,26.7,1.3,27,2.32a7.47,7.47,0,0,1-.18,3.12c-.13.61-.77,2.65-.78,2.72A23.16,23.16,0,0,0,27.28,5c.3-.93,1.55-4.91-.45-5C25.43,0,22.6,2,22.44,2.3Z"/><path class="cls-2" d="M1.34,18.49a8.25,8.25,0,0,1,2,.3c.83.27.86.5,1.89.34a2,2,0,0,1,.38-.78c-1.57,0-2.3-.11-3.91,0C1.5,18.36,1.41,18.33,1.34,18.49Z"/><path class="cls-2" d="M25.29,18.35c.11.28.3.34.37.79.43,0,.53.11.93-.08a6.3,6.3,0,0,1,2.19-.54,2.26,2.26,0,0,0,.54-.05c-.1-.2-.37-.14-.87-.16-1.22-.06-2,0-3.16,0Z"/><path class="cls-1" d="M9.69,2c-.08-.13-.11-.13-.23-.23L9.2,1.47a10.88,10.88,0,0,1,4,.85c-.11-.22-.29-.32-.38-.52A11.35,11.35,0,0,1,14,2c.37.09.69.23,1,.31a5.93,5.93,0,0,0-2.9-.81l.56.43c-.18,0-1.41-.38-1.76-.45a12.54,12.54,0,0,0-2.64-.19A3.55,3.55,0,0,0,9,1.58,5.23,5.23,0,0,1,9.69,2Z"/><path class="cls-1" d="M18.07,1.89a1.25,1.25,0,0,1,.24-.21l.31-.21,0,0a6.56,6.56,0,0,0-2.84.79,8.47,8.47,0,0,1,2.06-.43l-.37.51a11.25,11.25,0,0,1,4-.83c-.21.25-.27.18-.44.45.44-.24.92-.44,1.42-.66a9.36,9.36,0,0,0-2.37.13c-.35.06-.68.14-1,.22a9.16,9.16,0,0,1-1,.27Z"/><path class="cls-2" d="M5.53,19.12c.38,0,.78,0,1.16,0s.72.12,1-.15a1.07,1.07,0,0,0-.5-.17,2.35,2.35,0,0,0-.65,0,2,2,0,0,0-1,.34Z"/><path class="cls-2" d="M23.23,19c.34.28.51.16,1,.15s.79,0,1.15,0a2.48,2.48,0,0,0-1.63-.33l-.46.12Z"/><path class="cls-2" d="M3.86,18.06l2.07.06A1.93,1.93,0,0,0,4,18l-.06,0,0,0,0,0Z"/><path class="cls-2" d="M25,18.1l2,0A2.1,2.1,0,0,0,26,17.78,1.55,1.55,0,0,0,25,18.1Z"/><path class="cls-2" d="M20,13.15c-.14.12-.51.8-1.2.53s-.38-1-.59-1.23c-.31.13-.07,1.13.49,1.34a1,1,0,0,0,1.3-.64Z"/><path class="cls-2" d="M13.76,21.06c-.07.59.58.87,1,1A2.3,2.3,0,0,0,13.76,21.06Z"/><path class="cls-2" d="M16.07,22.05c.49-.11,1.11-.43,1-1C16.82,21.07,16.2,21.81,16.07,22.05Z"/><path class="cls-2" d="M12.42,13.62a.93.93,0,0,1-1-.1.76.76,0,0,1-.25-.46l0-.46c0-.18,0-.06-.08-.14-.23.21-.09.84.26,1.17S12.25,14,12.42,13.62Z"/><path class="cls-2" d="M19.76,12.71a.58.58,0,0,0-.07-.41c-.22-.06-.46,0-.4.3s.36.17.47.11Z"/><path class="cls-2" d="M12.28,12.31a.23.23,0,0,0-.11.34.25.25,0,0,0,.35.13C12.79,12.63,12.59,12.1,12.28,12.31Z"/></g></g></g></svg>