<svg xmlns="http://www.w3.org/2000/svg" viewBox="0 0 36.51 28.49"><defs><style>.cls-1{fill:#ff6c00;}.cls-1,.cls-2,.cls-3,.cls-4,.cls-5{fill-rule:evenodd;}.cls-2{fill:#f4f4f4;}.cls-3{fill:#982800;}.cls-5{fill:#ffa0c0;}</style></defs><g id="Слой_2" data-name="Слой 2"><g id="Слой_1-2" data-name="Слой 1"><g id="_3015564213632" data-name=" 3015564213632"><path class="cls-1" d="M26.35,19.74a2.2,2.2,0,0,1,1.77.32c.58.51-.21.94-.72,1C25.87,21.41,24.32,20.28,26.35,19.74Zm-17.08,0c1.72-.29,2.7,1.13.74,1.41C8.3,21.36,7.26,20.06,9.27,19.72ZM24.6,15.23a2.15,2.15,0,0,1,2.66,1.59,2.19,2.19,0,0,1-4.26,1A2.16,2.16,0,0,1,24.6,15.23Zm-13.78,0a2.17,2.17,0,0,1,2.67,1.6,2.22,2.22,0,0,1-1.56,2.64,2.19,2.19,0,1,1-1.11-4.24ZM.9,17.17c.13-.05,0-.08.41.24A23,23,0,0,0,9,21.48c1.87.49,3.69.5,5-.54s1.67-2.07,4.19-2.07,2.93,1,4.21,2c2.55,2.09,7,.21,9.44-1.24a30.06,30.06,0,0,0,2.83-1.86,8.77,8.77,0,0,1,.92-.66c.06-.11,0-.23-.06-.34l-.14-.33-.92-2C31,7.77,26.13,3.9,18.19,4c-5.12.06-8.88,1.37-12.3,4.92-.36.37-.6.63-.92,1a26.62,26.62,0,0,0-1.6,2.21,27.14,27.14,0,0,0-2,3.74c-.09.21-.19.43-.28.65s-.1.21-.15.33-.12.16,0,.31Z"/><path class="cls-2" d="M17.05,22c.55.3.81.25,1.19-.11a.84.84,0,0,0,1.2.11c-.11.76-.73.72-1.2.32-.46.4-1.08.43-1.19-.32Zm.8-2.69c1.44-.42,2.19,1.25.79,1.63S16.34,19.71,17.85,19.27Zm17.73-2.16a8.77,8.77,0,0,0-.92.66,30.06,30.06,0,0,1-2.83,1.86c-2.48,1.45-6.89,3.33-9.44,1.24-1.28-1-1.67-2-4.21-2s-2.87,1-4.19,2.07-3.16,1-5,.54a23,23,0,0,1-7.65-4.07c-.42-.32-.28-.29-.41-.24a11.3,11.3,0,0,0,1.2,2.32,16.47,16.47,0,0,0,3.22,3.69,19.38,19.38,0,0,0,13,4.36c5.51,0,9.74-1.57,13.39-4.83.17-.14.27-.3.43-.45s.29-.25.45-.43a5.2,5.2,0,0,1,.38-.44,14.91,14.91,0,0,0,2.63-4.28Z"/><path class="cls-3" d="M.9,17.17c-.08-.15-.06-.09,0-.31s.1-.22.15-.33.19-.44.28-.65a27.14,27.14,0,0,1,2-3.74A26.62,26.62,0,0,1,5,9.93c.32-.39.56-.65.92-1C9.31,5.36,13.07,4.05,18.19,4,26.13,3.9,31,7.77,34.46,14.48l.92,2,.14.33c0,.11.12.23.06.34A14.91,14.91,0,0,1,33,21.39a5.2,5.2,0,0,0-.38.44c-.16.18-.28.26-.45.43s-.26.31-.43.45C28,26,23.81,27.52,18.3,27.54a19.38,19.38,0,0,1-13-4.36A16.47,16.47,0,0,1,2.1,19.49,11.3,11.3,0,0,1,.9,17.17ZM11.56,3c.1.14.06.09.3.21l.7.52c-.42.13-.84.27-1.27.43s-.95.48-1.23.41c-.09.22-.12.18-.34.29A15.92,15.92,0,0,0,6.24,7.34a7.79,7.79,0,0,1-1.12,1c-.07.28-.31.42-.48.64L3.27,10.76A17.6,17.6,0,0,1,3,7c-.16.21-.08.9-.09,1.22a19.92,19.92,0,0,1-.28-3.76A15.71,15.71,0,0,1,3,.79c-.24.22-.31.83-.4,1.19a17.71,17.71,0,0,0-.46,4.3,24,24,0,0,0,.44,4.31c.08.45.27.85.07,1.17A33.05,33.05,0,0,0,.47,15.91c-.55,1.23-.66,1.05-.1,2.26,2.75,5.9,9.18,10.35,18,10.32a21.49,21.49,0,0,0,10.2-2.41A18,18,0,0,0,35.09,20a18.88,18.88,0,0,0,1.13-2c.21-.45.41-.69.2-1.18a40.68,40.68,0,0,0-2.07-4.25l-.58-1A25.74,25.74,0,0,1,34.15,9a20.7,20.7,0,0,0,0-5.83A8.13,8.13,0,0,0,33.44.69a19.72,19.72,0,0,1,.31,6c0,.62-.16,1.27-.19,1.86,0-.49.13-1.37-.1-1.75-.06.69.12,3.21-.28,3.88l-1-1.26c-.68-.9-.77-.6-.81-1.31-.16.2.17-.24-.07.1,0,0,0,.16-.05.08s0,0,0,0a16,16,0,0,0-3.53-2.92,9.11,9.11,0,0,1-1.3-.78c-.3,0-1.64-.68-2.5-.87a1.6,1.6,0,0,1,.45-.39,1.71,1.71,0,0,1,.27-.14.53.53,0,0,0,.15-.08c.15-.1,0,0,.11-.1a10.64,10.64,0,0,1,2.28-1.38c.43-.21.86-.41,1.29-.58a6.88,6.88,0,0,0,1.3-.54A17.61,17.61,0,0,0,24.29,2.6c-1.5,1-.94,1-1.79.83a24.34,24.34,0,0,0-7.76-.13c-.26,0-.53.08-.8.14s-.44.16-.7-.06A15,15,0,0,0,6.72.56l1.34.55c.62.26,3.59,1.72,3.5,1.92Z"/><path class="cls-1" d="M3,7a17.6,17.6,0,0,0,.29,3.76L4.64,9c.17-.22.41-.36.48-.64a25.51,25.51,0,0,1,0-2.62,12.14,12.14,0,0,1,.51-2.19,13.66,13.66,0,0,1,4.42,1c.28.07.91-.29,1.23-.41s.85-.3,1.27-.43l-.7-.52c-.24-.12-.2-.07-.3-.21-.38-.08-1.15-.47-1.62-.64a14.36,14.36,0,0,0-5.72-1A14.17,14.17,0,0,0,3,7Z"/><path class="cls-1" d="M24.89,3.05c-.07.1,0,0-.11.1a.53.53,0,0,1-.15.08,1.71,1.71,0,0,0-.27.14,1.6,1.6,0,0,0-.45.39c.86.19,2.2.85,2.5.87a11.7,11.7,0,0,1,4.37-1.06,6.29,6.29,0,0,1,.55,2.09c.11.83,0,1.76.06,2.45s.13.41.81,1.31l1,1.26c.4-.67.22-3.19.28-3.88a13.63,13.63,0,0,0-1.24-5.42,14.47,14.47,0,0,0-5.77,1C25.88,2.62,25.4,2.87,24.89,3.05Z"/><path class="cls-4" d="M24.6,15.23A2.16,2.16,0,0,0,23,17.86a2.19,2.19,0,0,0,4.26-1A2.15,2.15,0,0,0,24.6,15.23Z"/><path class="cls-4" d="M10.82,15.23a2.19,2.19,0,1,0,1.11,4.24,2.22,2.22,0,0,0,1.56-2.64,2.17,2.17,0,0,0-2.67-1.6Z"/><path class="cls-4" d="M5.12,8.37a7.79,7.79,0,0,0,1.12-1A15.92,15.92,0,0,1,9.72,4.89c.22-.11.25-.07.34-.29a13.66,13.66,0,0,0-4.42-1,12.14,12.14,0,0,0-.51,2.19,25.51,25.51,0,0,0,0,2.62Z"/><path class="cls-4" d="M26.41,4.63a9.11,9.11,0,0,0,1.3.78,16,16,0,0,1,3.53,2.92s0-.05,0,0,.05-.06.05-.08c.24-.34-.09.1.07-.1-.09-.69.05-1.62-.06-2.45a6.29,6.29,0,0,0-.55-2.09,11.7,11.7,0,0,0-4.37,1.06Z"/><path class="cls-4" d="M3,.79a15.71,15.71,0,0,0-.38,3.67,19.92,19.92,0,0,0,.28,3.76c0-.32-.07-1,.09-1.22A14.17,14.17,0,0,1,4.22,1.39a14.36,14.36,0,0,1,5.72,1c.47.17,1.24.56,1.62.64.09-.2-2.88-1.66-3.5-1.92L6.72.56A14.15,14.15,0,0,0,3.27,0,1.58,1.58,0,0,0,3,.79Z"/><path class="cls-4" d="M29.76.55a6.88,6.88,0,0,1-1.3.54c-.43.17-.86.37-1.29.58a10.64,10.64,0,0,0-2.28,1.38c.51-.18,1-.43,1.56-.64a14.47,14.47,0,0,1,5.77-1A13.63,13.63,0,0,1,33.46,6.8c.23.38.08,1.26.1,1.75,0-.59.15-1.24.19-1.86a19.72,19.72,0,0,0-.31-6A1.35,1.35,0,0,0,33.18,0a23.36,23.36,0,0,0-3.42.54Z"/><path class="cls-5" d="M9.27,19.72c-2,.34-1,1.64.74,1.41C12,20.85,11,19.43,9.27,19.72Z"/><path class="cls-5" d="M26.35,19.74c-2,.54-.48,1.67,1,1.36.51-.1,1.3-.53.72-1A2.2,2.2,0,0,0,26.35,19.74Z"/><path class="cls-4" d="M17.85,19.27c-1.51.44-.65,2,.79,1.63S19.29,18.85,17.85,19.27Z"/><path class="cls-4" d="M17.05,22c.11.75.73.72,1.19.32.47.4,1.09.44,1.2-.32a.84.84,0,0,1-1.2-.11c-.38.36-.64.41-1.19.11Z"/></g></g></g></svg>