<svg xmlns="http://www.w3.org/2000/svg" viewBox="0 0 22.09 26.38"><defs><style>.cls-1{fill:#2b2a29;fill-rule:evenodd;}</style></defs><g id="Слой_2" data-name="Слой 2"><g id="Слой_1-2" data-name="Слой 1"><path class="cls-1" d="M10.09,4.66c-.19.06-.61,0-.84,0h0l-.06,0c.1.13.33.11.44.23a10.76,10.76,0,0,0-1.68.66,5.53,5.53,0,0,0-1.35,1c.06.06,0,0,.09.05l.09,0C8.18,7,8.35,11,8.42,12.09c.05.72.14,1-.32,1.41a2.86,2.86,0,0,1-2.93.18A2,2,0,0,1,4.33,13l-.13-.16a4.38,4.38,0,0,0,.29,1.31,1.52,1.52,0,0,0,.92.71c.3-.41.4-.65,1.24-.54.47.06,1,.19,1.48.28s1,.15,1.55.23l1.49.06c.18,0,.1,0,.14-.08a3.54,3.54,0,0,1-1.69-.63C8.22,13,7.9,10.65,11,10.41A3.27,3.27,0,0,1,13,10.7c1.46.89.87,3.1-1,3.88a1.73,1.73,0,0,0-.42.18c.27.22,2.71-.53,3.1-.66A5.19,5.19,0,0,1,17,13.59c.29.09.3.29.51.46a2,2,0,0,0,.87-.83,3.1,3.1,0,0,0,.12-.71,2.15,2.15,0,0,0,0-.8,2.34,2.34,0,0,1-.8,1,3.31,3.31,0,0,1-3,.41c-.53-.23-.64-.46-.72-1.14a23.68,23.68,0,0,1-.12-3.57,4.44,4.44,0,0,1,.6-2.17A1.11,1.11,0,0,1,15.13,6c-.09-.25-.67-.49-.9-.61A6.58,6.58,0,0,0,13.15,5a7.49,7.49,0,0,0-1.24-.22c-.67-.09-.68-.51-.78-.68-.3.1-.1.76-.58.3a1.38,1.38,0,0,0-.82-.33c.1.25.41.21.36.6Z"/><path class="cls-1" d="M10.82,16.9c-.16-.06-.37-.08-.23-.38a.87.87,0,0,1,.34-.32c.08.34-.24.18-.16.5l.39,0c0,.19-.5.66-.29.89.41.23.48-.24.73-.24.08.34-.39,1.28.35,1.14.15-.25.05-.34.1-.61.28,0,.23.77-.21.81s-.47-.51-.47-.93c-.26,0-.56.13-.67-.14S10.81,17.15,10.82,16.9ZM9.74,24a2.47,2.47,0,0,0,1.35.56c.28,0,.69,0,1,0s.77.05.82-.14.07-.67.1-.88l.39-2.42c.26-1.31.21-1.76.6-3.21.14-.51.29-1,.47-1.44a3.78,3.78,0,0,1,.31-.64c.24-.41.37-.32.4-.55a6.53,6.53,0,0,0-.76.2l-.72.18A15,15,0,0,1,9.4,16c-.27,0-.54-.07-.83-.07,0,.16.23.65.3.88a24,24,0,0,1,.71,5.09c.09.72.08,1.43.16,2.12Z"/><path class="cls-1" d="M18.77,11.92c.45,0,2.2-1.84,2.18-2.12s-.6-.75-.6-1.09c.27-.31.81-.11,1.22-.23a5.71,5.71,0,0,0,.37-1.25,8.22,8.22,0,0,0,.15-1.83C22.09,3.62,21,.48,18.85.05c-.61-.12-.76,0-.87.49A6.66,6.66,0,0,0,18,2a45.26,45.26,0,0,1,.34,5.4,4.64,4.64,0,0,1-.23,1.2c-.17.47-.21.11.18,1A6.45,6.45,0,0,1,18.77,11.92Z"/><path class="cls-1" d="M0,5.78A7.47,7.47,0,0,0,2.22,11.9,5.56,5.56,0,0,0,4,13c0-.42,0-.82,0-1.29a6.4,6.4,0,0,1,.18-1.15c.2-.87.22-.49-.05-1-.81-1.62-.57-5.18-.92-7.18-.05-.3-.14-.83-.54-.8A2.44,2.44,0,0,0,1,2.7a6.28,6.28,0,0,0-.46.89c-.24.59-.22.56.4,1.34.14.17.18.25,0,.39a8.44,8.44,0,0,1-.9.46Z"/><path class="cls-1" d="M6.36,22.09c.09,1-.06,2.13.46,2.87.37.53,1.27,1.43,2.1.86s.64-1.79.54-2.66-.18-2.08-.24-3.06c0-.69-.42-3.64-1-4.06a.86.86,0,0,0-1.2.15c-.45.58-.8,4.84-.71,5.9Z"/><path class="cls-1" d="M16.45,22.35c.19-1.28-.07-5.35-.56-6.3-1-2-2,3.27-2.1,3.94-.15,1-.35,2-.48,3-.1.72-.5,2.48.13,3a1.49,1.49,0,0,0,1.39,0c.92-.44,1.1-1.07,1.42-2.05A7.52,7.52,0,0,0,16.45,22.35Z"/><path class="cls-1" d="M13.69,12.28A1.48,1.48,0,0,0,13,10.82a3.19,3.19,0,0,0-2-.27c-1.25.11-2.65.7-2.13,2.2a2.72,2.72,0,0,0,.93,1.33,2.68,2.68,0,0,0,1.71.51A3.07,3.07,0,0,0,13,13.82,2.74,2.74,0,0,0,13.69,12.28Z"/><path class="cls-1" d="M15.63,9.18c.76-.29.88.88.24,1.12S14.94,9.44,15.63,9.18ZM18,10.92a2.19,2.19,0,0,0-1.56-2.5c-1.34-.29-1.88.89-2,2-.19,1.27,0,2.57,1.48,2.53a2.35,2.35,0,0,0,2.11-2Z"/><path class="cls-1" d="M6.14,9.92c.56-.38,1.17.7.67,1S5.57,10.31,6.14,9.92ZM4.49,11.64c.42,2.42,4.31,2.85,3.43-.52a3.61,3.61,0,0,0-.6-1.39c-1.11-1.46-3.16-.07-2.83,1.91Z"/><path class="cls-1" d="M10.71,15.83a14.22,14.22,0,0,0,3.64-.49,11,11,0,0,0,3-1.15c-.11-.59-.8-.41-1.28-.29s-.91.33-1.34.47a18.48,18.48,0,0,1-2.89.67A16.66,16.66,0,0,1,7,14.56c-.44-.1-1.23-.18-1.25.39a7.55,7.55,0,0,0,2.14.63A15.06,15.06,0,0,0,10.71,15.83Z"/><path class="cls-1" d="M19.57,23.83a.87.87,0,0,1,1.11.67,1,1,0,0,1-.74,1.1A.91.91,0,1,1,19.57,23.83Zm-1.78.93a1.41,1.41,0,0,0,.78,1.47,2.31,2.31,0,0,0,2.54-.55c.47-.57.26-.53.21-.78s0-.28.12-.44c.24-.42-.34-.68-.36-.71s0-.31-.06-.5c-.29-.35-.31-.17-.59-.09s-.43-.2-.58-.33a1.42,1.42,0,0,0-.92.14c-.05.7-.34.45-.7.48a1.85,1.85,0,0,0-.44,1.31Z"/><path class="cls-1" d="M16.59,25.71l.13-.25c.15,0,.15,0,.2.13.11-.21,0-.06.24-.11l0,.17.09-.15.18.12c.22,0-.11-.08.07,0,0,0,.06.06.08.08l0-.16c0-.14-.08-.35-.1-.54-.14-1.18.46-1.44.56-2,.08-.41.46-.21.87-.34a1.34,1.34,0,0,0,.49-.15,4.81,4.81,0,0,0-1.08-.72c-.43-.18-.85-.34-1.29-.48a5.7,5.7,0,0,0-.18-1.12c-.05-.17-.09-.32-.14-.51s0-.17-.06-.28,0-.14-.1-.2l0,.83c.09,1.47.12,3.63-.58,4.92-.08.16-.3.41-.27.61a3.87,3.87,0,0,0,.78.16Z"/><path class="cls-1" d="M2.29,24a.9.9,0,1,1,1.79-.1A.9.9,0,1,1,2.29,24Zm-.15-1.7c0,.25,0,.4-.13.56s-.27.07-.34.33,0,.38.06.59-.14.35-.15.52A1.74,1.74,0,0,0,2.9,25.69c.86.15,1.63.06,1.92-.66a2.52,2.52,0,0,0-.11-2.19c-.23,0-.37,0-.52-.09s-.1-.25-.13-.47A1.34,1.34,0,0,0,3.23,22l-.06.07a.37.37,0,0,1-.47.22c-.27-.11-.17-.23-.56,0Z"/><path class="cls-1" d="M6.62,25.28c0-.26-.25-.28-.4-1.29a24,24,0,0,1-.11-3.18l.11-1.12c0-.34,0-.25,0-.32s0,0,0,0c-.09.22-.45,1.81-.56,2.22-.22,0-.85-.13-1.23-.1-.22,0-1,.11-1.06.29l.82.31c.12,0,.19,0,.31.07s.26.18.32.44a3,3,0,0,1,.39,1.84A2.73,2.73,0,0,1,5,25c-.08.22-.2.31-.22.55A10,10,0,0,0,6.62,25.28Z"/><path class="cls-1" d="M9.72,24.41c-.21.72,0,.63.17.63a27.94,27.94,0,0,0,2.91.08l0-.07s0,0,0-.21a8.06,8.06,0,0,1-2.47-.18c-.23-.07-.43-.21-.63-.25Z"/><path class="cls-1" d="M16.59,25.71c.06.08,0,0,.14.07h.15s0-.06,0-.1.14,0,.18,0-.14,0,.08.1l.14-.17,0,.27.27.05c0-.12,0-.15.12-.21l-.05-.11a.28.28,0,0,0-.05-.08l0,.16s-.05-.07-.08-.08c-.18-.08.15,0-.07,0l-.18-.12-.09.15,0-.17c-.26.05-.13-.1-.24.11-.05-.11-.05-.12-.2-.13l-.13.25Z"/><path class="cls-1" d="M16.88,25.79a2.89,2.89,0,0,0,.48.1l0-.27-.14.17c-.22-.08-.08-.1-.08-.1s0,.1-.18,0,0,.06,0,.1Z"/><path class="cls-1" d="M17.63,25.94h.18l-.06-.21C17.6,25.79,17.6,25.82,17.63,25.94Z"/></g></g></svg>