<svg xmlns="http://www.w3.org/2000/svg" viewBox="0 0 26.32 35.98"><defs><style>.cls-1{fill:#febd17;}.cls-1,.cls-2,.cls-3,.cls-4,.cls-5,.cls-6,.cls-7{fill-rule:evenodd;}.cls-2{fill:#d32426;}.cls-3{fill:#050204;}.cls-4{fill:#d42329;}.cls-5{fill:#feba16;}.cls-6{fill:#e36e6f;}.cls-7{fill:#4f1210;}</style></defs><g id="Слой_2" data-name="Слой 2"><g id="Слой_1-2" data-name="Слой 1"><g id="_3015200435808" data-name=" 3015200435808"><path class="cls-1" d="M6.34,5.76c-3.67,3.85-1.61.55-1.15,6.34A44.65,44.65,0,0,1,5.1,17c1.41,1.29,5.34,2.46,7.87,2.49,3.89,0,5.61-1.33,8.16-2.35.14-1.3-.24-3.36-.1-5A35.33,35.33,0,0,1,22,7.79,10.72,10.72,0,0,0,17.2,4.47a36.92,36.92,0,0,1-1.7,5.26,6.44,6.44,0,0,1-.27,1.75l-4.15-.07c-.22-1.21-1-3-1-4.09a7.72,7.72,0,0,1-.89-2.6c-.64-.48-2.15.82-2.88,1Z"/><path class="cls-2" d="M13.13,33h2.76v1.17H15l-1,.1h-.87V33Zm-2.74.09h1.4V34.2H10.4Zm9.08-5.46,2.11-.34c-.09,1.12-.34.53.11,1.36-1.41.3,0,.65-1.12.57l-.76-.57a4.52,4.52,0,0,1,0,.52,1.36,1.36,0,0,1,0,.17l-.32.51c.27-1,.37-.53.51-1.54-.06,0-.11.05-.13.14l-.34.27c-.48.14,0,.49-.3-.18-.58.56-.57,1.64-.94,2.42l-.81,0a3.77,3.77,0,0,1-.16-2.62c1.55-4.74,1.62-2.43,4.34-5.79-.1.62-1.64,3.14-2.17,5.06Zm1.26-9c.29-.29-.2-.15.45-.21,0,.56.17.35-.24.72-.09.88-.44.93-2.12,1.17-1.87.27-2.19.45-2.65-.37.31-.17,4-1.19,4.56-1.31ZM5.14,18.44c.62.16,4.68,1.33,4.92,1.49-.4.8-.93.67-3,.29C5.46,19.93,5.24,20,5.14,18.44ZM15.5,9.73a36.92,36.92,0,0,0,1.7-5.26A10.72,10.72,0,0,1,22,7.79,35.33,35.33,0,0,0,21,12.16c-.14,1.64.24,3.7.1,5-2.55,1-4.27,2.39-8.16,2.35-2.53,0-6.46-1.2-7.87-2.49a44.65,44.65,0,0,0,.09-4.92C4.73,6.31,2.67,9.61,6.34,5.76,5.86,5.37,6,6.11,6,5.4c-.36.57-.11.45-.68.51-.15-.34.22,0-.21-.34.42-.82,0,.33.79-.77L6,4.6c.08-.12.21-.27.31-.4l.45.49a.58.58,0,0,0,.12-.1s.18-.2.17-.28c-.09-.82.34.25-.24-.27l-.33-.18c1.07,0,0,0,.68-.17-.42-.69.37-.38-.43-.54-2.56,1.08-4,5.27-4.3,8.1-.21,2.07-.12,1.61-1.3,2.7l.23,7c0,1.06-.19,1.55.6,1.86,0,0,.4.24.2-1-.13-.74-.26-.39-.3-1.4A2,2,0,0,1,3,19.7c-1-1.05-.77-.93-.24-2.29,1.63-4.22.65-5,1.27-8.3,0,.08.44,1.9.52,2.46a17.21,17.21,0,0,1,.16,2.89c-.2,6.1-.71,5.95,3.42,6.41,1.69.19,1.88.42,2.56-1,.81,0,1.62.12,2.44.11s1.65-.15,2.5-.17c.53,1.48,1.1,1.21,2.75,1a8.2,8.2,0,0,0,3-.77c1-2.83-.68-7.82.8-10.74.24,1.71.22,3.47.43,5.21.25,2.1.95,2.61,1.38,4.16-.12,1.29-6.1,6.61-6.32,7.09-.38.8-.59,2.43-1.1,3l-.3.4c-.56-.22-5.86-.52-6.64.12l7-.06-.3,3.3L10,32.59a5.54,5.54,0,0,0-.32-2.33,3.33,3.33,0,0,0,.24,2.14l-.68-1c.14,1,.3.49,0,1.17s-.84-.11-.16.88c-1.15-.72-.59-.43-.85.17.32.65.55,1.23,1.36,1.31h7.69c1.08-1.26,2.19-2.82,3.16-4.14.32-.44.52-.65.82-1.05.14-.18.65-.79.75-1,.52-.86.21-2.29.34-3.34.09-.73,1.13-1.66,1.58-2.08,1.13-1,.91-.93,1-2.64.08-2.05.42-4.82.31-6.74-.53-.5-.8-.5-1.25-1-.37-.8.29-4.08-2.09-7.51a8.93,8.93,0,0,0-5.79-3.88c-.3.56-.05-.32-.34.77l1.36,0c-.2.56.12.19-.42.39l-2.13.14V4.22H13.16v2.7h1.36c0,2.21,0,1,.23,1.27s.22.23.24.19.09.06.13.1c-1,.72-.47.22-.27,1.35.37-.57,0-.07.25-.68l.26-.5a.49.49,0,0,1,.05.16s0,.1.05.16l0,.76Z"/><path class="cls-1" d="M3,19.7l3.65,4.15c2.63,2.67,1.6,1.08,2.92,4.91l7,0c.51-.53.72-2.16,1.1-3,.22-.48,6.2-5.8,6.32-7.09-.43-1.55-1.13-2.06-1.38-4.16-.21-1.74-.19-3.5-.43-5.21-1.48,2.92.21,7.91-.8,10.74a8.2,8.2,0,0,1-3,.77c-1.65.17-2.22.44-2.75-1-.85,0-1.63.17-2.5.17s-1.63-.13-2.44-.11c-.68,1.4-.87,1.17-2.56,1-4.13-.46-3.62-.31-3.42-6.41a17.21,17.21,0,0,0-.16-2.89C4.48,11,4,9.19,4,9.11c-.62,3.31.36,4.08-1.27,8.3C2.24,18.77,2,18.65,3,19.7Z"/><path class="cls-3" d="M8.19,33.6c-.34-.08-.2-.05-.55-.48L6,30.87c-.76-1-1.77-1.78-1.94-3.25l-.09-2.57-.34-.35c-.53-.61-1.44-1.19-1.62-1.88-.79-.31-.56-.8-.6-1.86l-.23-7c1.18-1.09,1.09-.63,1.3-2.7.3-2.83,1.74-7,4.3-8.1.84-1.37,6.76-2.59,9.32-1.62a8.93,8.93,0,0,1,5.79,3.88c2.38,3.43,1.72,6.71,2.09,7.51.45.53.72.53,1.25,1,.11,1.92-.23,4.69-.31,6.74-.07,1.71.15,1.6-1,2.64-.45.42-1.49,1.35-1.58,2.08-.13,1.05.18,2.48-.34,3.34-.1.18-.61.79-.75,1-.3.4-.5.61-.82,1.05-1,1.32-2.08,2.88-3.16,4.14H9.55c-.81-.08-1-.66-1.36-1.31Zm9.47,2.3L21,31.58C24,28,22.72,29.82,23.12,25.91c.08-.84,1.07-1.56,1.59-2.1,1-1.09,1.1-.67,1.19-2.68.12-2.52.34-5.06.42-7.58-.47-.21-1.38-.79-1.49-1.34-.35-1.78.29-3.53-1.75-7A10.14,10.14,0,0,0,16.3.36C10.15-1,3.5,1.48,1.85,8.64,1,12.41,2,11.88.56,13.15c-.81.71-.52,1.17-.47,2.5,0,1,.06,1.94.11,2.91.21,4.66-.51,3.63,2.33,6.33,1.37,1.3,0,3.26,1.11,4.7l3.85,4.87c1.53,2,1.25,1.46,4.28,1.46C13.69,35.92,15.77,36,17.66,35.9Z"/><path class="cls-4" d="M6.73,3.15c.8.16,0-.15.43.54-.68.14.39.12-.68.17L6.81,4c.58.52.15-.55.24.27,0,.08-.13.24-.17.28a.58.58,0,0,1-.12.1L6.31,4.2c-.1.13-.23.28-.31.4l-.14.2c-.79,1.1-.37,0-.79.77.43.32.06,0,.21.34.57-.06.32.06.68-.51,0,.71-.1,0,.38.36.73-.22,2.24-1.52,2.88-1,.45-.08.4-.25.5-.69.06,0,.11,0,.14.13a.72.72,0,0,0,.72.22L10.4,2.9h1.35v4l-1,0a1.16,1.16,0,0,1-.86-.53l.21.89c-.07,1.09.75,2.88,1,4.09l4.15.07a6.44,6.44,0,0,0,.27-1.75l0-.76c0-.06,0-.11-.05-.16a.49.49,0,0,0-.05-.16l-.26.5c-.27.61.12.11-.25.68-.2-1.13-.73-.63.27-1.35,0,0-.11-.14-.13-.1s-.08,0-.24-.19-.23.94-.23-1.27H13.16V4.22h1.36V2.85l2.13-.14c.54-.2.22.17.42-.39l-1.36,0c.29-1.09,0-.21.34-.77-2.56-1-8.48.25-9.32,1.62Z"/><path class="cls-4" d="M2,22.82c.18.69,1.09,1.27,1.62,1.88.41.09.16-.06.3.35L4.43,25a.59.59,0,0,1,.08.08s.06.06.06.07l0-.06c1.29-.09.21.26.79-.53,0-.72-.59-1.2-.77-2,.25.27.58.5.85.77,3.19,3.14,2.37,1.61,3.53,5A3.71,3.71,0,0,1,8.8,31H8L6.82,27.62c-.84.28-.21-.23-1.37-.21-1.67,0,.13,1.25-1.44.21C4.18,29.09,5.19,29.9,6,30.87l1.69,2.25c.35.43.21.4.55.48.26-.6-.3-.89.85-.17-.68-1-.18-.14.16-.88s.15-.17,0-1.17l.68,1a3.33,3.33,0,0,1-.24-2.14l0-1c.78-.64,6.08-.34,6.64-.12l.3-.4-7,0c-1.32-3.83-.29-2.24-2.92-4.91L3,19.7a2,2,0,0,0-1.15.74c0,1,.17.66.3,1.4.2,1.22-.2,1-.2,1Z"/><path class="cls-1" d="M9.65,30.26A5.54,5.54,0,0,1,10,32.59l6.34-.05.3-3.3-7,.06,0,1Z"/><path class="cls-5" d="M5.39,24.52l1.43,3.1L8,31H8.8A3.71,3.71,0,0,0,9,28.33c-1.16-3.4-.34-1.87-3.53-5-.27-.27-.6-.5-.85-.77C4.8,23.32,5.35,23.8,5.39,24.52Z"/><path class="cls-5" d="M19.21,28.53l.26-.91c.53-1.92,2.07-4.44,2.17-5.06-2.72,3.36-2.79,1.05-4.34,5.79A3.77,3.77,0,0,0,17.46,31l.81,0c.37-.78.36-1.86.94-2.42Z"/><path class="cls-2" d="M9.22,4.72a7.72,7.72,0,0,0,.89,2.6L9.9,6.43a1.16,1.16,0,0,0,.86.53l1,0v-4H10.4l.18,1.48a.72.72,0,0,1-.72-.22c0-.08-.08-.09-.14-.13-.1.44-.05.61-.5.69Z"/><path class="cls-2" d="M3.88,25.05h0L4,27.62c1.57,1-.23-.18,1.44-.21,1.16,0,.53.49,1.37.21l-1.43-3.1c-.58.79.5.44-.79.53l0,.06A.37.37,0,0,1,4.51,25,.59.59,0,0,0,4.43,25l-.55.09Z"/><polygon class="cls-4" points="13.13 34.25 14 34.26 15.02 34.16 15.89 34.16 15.89 32.99 13.13 32.99 13.13 34.25"/><path class="cls-4" d="M19.21,28.53c.27.67-.18.32.3.18l.34-.27c0-.09.07-.11.13-.14-.14,1-.24.56-.51,1.54l.32-.51a1.36,1.36,0,0,0,0-.17,4.52,4.52,0,0,0,0-.52l.76.57c1.09.08-.29-.27,1.12-.57-.45-.83-.2-.24-.11-1.36l-2.11.34-.26.91Z"/><polygon class="cls-4" points="10.4 34.2 11.79 34.2 11.79 33.08 10.39 33.08 10.4 34.2"/><path class="cls-6" d="M20.94,19.13c.41-.37.23-.16.24-.72-.65.06-.16-.08-.45.21.57-.16.11-.07.3.11Z"/><path class="cls-7" d="M3.92,25.05h0c-.14-.41.11-.26-.3-.35Z"/></g></g></g></svg>