<svg xmlns="http://www.w3.org/2000/svg" viewBox="0 0 25.81 25.66"><defs><style>.cls-1{fill:#fbfbfb;}.cls-1,.cls-2,.cls-3,.cls-4,.cls-5,.cls-6,.cls-7{fill-rule:evenodd;}.cls-2{fill:#040404;}.cls-3{fill:#3e3e3d;}.cls-4{fill:#828282;}.cls-5{fill:#9ac219;}.cls-6{fill:#adadad;}.cls-7{fill:#636363;}</style></defs><g id="Слой_2" data-name="Слой 2"><g id="Слой_1-2" data-name="Слой 1"><g id="_3015200446560" data-name=" 3015200446560"><path class="cls-1" d="M7,5.82l.07,0,.21,0,0,.38,0,0c-.13.13.07,0-.13.12L7,6.17,7,6.15l-.11.42c-.09,0,0,.06-.2,0v.2c0,.08,0,0-.1,0s0-.14-.17.06,0,0-.13.17-.07,0-.13.17l.23.2.21.12A11.44,11.44,0,0,1,9.23,9.85a3.3,3.3,0,0,1-.56-.56A14.91,14.91,0,0,0,6.86,7.82c-.34-.25-.94-.73-1.4-.44-.23.14-.17.37-.58.5-.61.18-.24.28-1-.08.19.13.11,0,.24.21s0,.11.23.23l1.94.82a22.6,22.6,0,0,1,2.33,1.22,1.13,1.13,0,0,1,.11.11L6.34,9.18a24.84,24.84,0,0,0-2.5-1v0c0-.16-.42-.2-.47-.38h.39c-.1-.06-.21-.15-.34-.22l.55.1-.33-.3.4,0c0-.07,0,.08,0,0s-.06.09,0-.06c.26-.11.16,0,.34-.07a.91.91,0,0,0-.43-.3.59.59,0,0,0,.36-.13l-.31-.06H4.3c.26,0,.09,0,.17-.06s0,.12.11-.14a3,3,0,0,1-.94-.36,3.86,3.86,0,0,0-1-.33A3.18,3.18,0,0,0,2.76,7l.07.24c.13,1,.33.5.9.86C3.4,8,3.36,7.9,3,8a2.05,2.05,0,0,0,.76.33c-.26.09-.21.11-.32.35l-.62.14a2.57,2.57,0,0,0,.69.6c0,.23-.08,0-.06.09s-.09,0,0,.06,0,0,.14.05c-.46.28,0-.12-.07.45a3.74,3.74,0,0,1-1-.36c.12.07.21.16.36.24s.38.12.54.19c-.07.19,0,.05-.11.12s0-.17-.07,0l.38.19c.25.11.17,0,.15.12s-.37.05.19.11a10.51,10.51,0,0,1,3,0,11.44,11.44,0,0,1,2.4.8l.2-.19c.18-.22,0-.34-.16-.43a2.44,2.44,0,0,1,.27.06c0-.07,0-.37,0-.41l.08-.29a8.72,8.72,0,0,0-.63-2.06A13,13,0,0,0,8.52,7a10.61,10.61,0,0,1-.69-1.1c-.1-.07-.07-.1-.19-.13-.39-.09-.17-.2-.58-.48l-.12,0a1.5,1.5,0,0,1,.51.58l-.33-.28C7,5.71,7,5.43,7,5.82Z"/><path class="cls-1" d="M19.49,5.75c-.13.13.08,0-.15,0l-.2.13c-.07.21-1.84,2.61-1.95,4.5.25-.12.13,0,.29-.22-.31.68-.09.4-.19,1.05l.18.15,0,0,.09.08a9.35,9.35,0,0,1,3.84-.93c.55,0,1.05.13,1.56.12s.19-.1.19-.11-.11,0,.14-.12l.21-.17c0-.06-.11-.27.45-.29l.16-.16.13-.1a1.86,1.86,0,0,1-.87.27c0-.4,0,.1,0-.13.12-.53-.22-.1,0-.32a1,1,0,0,1,.22-.12c0-.09-.35.07.25-.39.13-.11.08-.1.2-.13-.07-.16.06,0-.12-.09l-.46-.14-.19-.37h-.12A2.38,2.38,0,0,0,24,8c-.39-.07-.38.06-.72.1l-.8.3s0,0,.05,0l.29-.28c.16-.2.05-.1.27-.25-.65.36-.41.24-.86.15a.59.59,0,0,1-.34-.27,1,1,0,0,1,.45-.48,2.29,2.29,0,0,1-.23.21c-.22.18,0,.09-.35.15l-.12,0c-.22-.34,0-.13-.29-.26-.12,0-.13-.16-.54.09L19.94,8l-.27.19L18.22,9.4,18,9.64c-.07.08,0,0-.09.11s0,0-.18.12a10.88,10.88,0,0,1,2.9-2.53l.24-.18-.21-.25a.69.69,0,0,0-.37-.08c.09-.28,0,0,.13-.23h-.26c.05-.43.09-.32-.14-.33,0-.21,0-.08-.29.07l-.16-.17h0c.09-.19,0-.14.24-.31A1.21,1.21,0,0,0,20,5.71l-.09-.09-.33.3c-.1-.08-.07.1-.1-.17Z"/><path class="cls-2" d="M3.37.51c0,.23-.08.25-.17.43A4.66,4.66,0,0,0,3,1.43c-.17.47-.31.6-.4.93a8.78,8.78,0,0,0-.32,1c0,.39-.08.78-.14,1.18l-.08.1c0,.18.11.08,0,.68a4,4,0,0,0,.06,1c0,.23,0,.24,0,.47.09.43.3.51.19.79l0,.24c0,.13,0,.12-.19.21-.53.24.16.36-.38.2A1.47,1.47,0,0,1,2.08,9c0,.28-.26.28.38.73l0,0-.16.08c-.19.11-.28,0,.16.26a.85.85,0,0,1,.13.1c-.25-.08-.12-.08-.38,0l.22.16c.24.13.33.16.44.33s.12-.05,0,.14,0,0-.09.07,0,0-.18.06l-.21-.17s0,0,0,0l.3-.13c-.28-.1,0,0-.17-.06l-.23-.14c-.18.28-.14.06-.37.21.09,0,.09,0,.2.11s0,.14.15.23.41.17.51.23a1.47,1.47,0,0,1-.69-.1L2,11.24l.07,0,.47.12c.14.07.08,0,.17.12-.36,0-.44-.07-.69.21l.63-.05-.23.23c.89-.13.34-.12.75-.26s.07,0,.17-.05c.36-.21.34-.09.53-.19l-.43-.13c0-.17,0,.15.05-.07,0,0,.19,0-.22-.23h.41L4,10.69c-.56-.06-.19-.1-.19-.11s.1,0-.15-.12l-.38-.19c0-.21-.11.11.07,0s0,.07.11-.12c-.16-.07-.36-.1-.54-.19s-.24-.17-.36-.24a3.74,3.74,0,0,0,1,.36c.08-.57-.39-.17.07-.45-.12,0,0,0-.14-.05s0,0,0-.06.09.14.06-.09a2.57,2.57,0,0,1-.69-.6l.62-.14c.11-.24.06-.26.32-.35A2.05,2.05,0,0,1,3,8c.36-.07.4,0,.73.11-.57-.36-.77.09-.9-.86L2.76,7a3.18,3.18,0,0,1-.13-1.21,3.86,3.86,0,0,1,1,.33,3,3,0,0,0,.94.36c.22.07,0,0,.14.12v0a.1.1,0,0,1,0,0l.49.2a1.93,1.93,0,0,0,.6.27s0,0,0,0V7l0,0C6,6.83,6,7,6,7S6,7.19,5.82,7s-.06,0-.14-.33c.31,0,.33,0,.46.27,0-.52,0-.08.19-.27.08.1,0,.14,0,.19.13-.2,0-.06.17-.06s.07.08.1,0a.53.53,0,0,1-.2-.06c0-.37-.14-.3.25-.25l-.2-.28h0l.17,0c-.08-.18.07,0-.13-.2A.77.77,0,0,1,7,6.15l.07,0A.77.77,0,0,0,6.9,5.8h.21L7,5.82c-.38-.08-.15-.17-.33-.29l-.07,0-.08,0-.18-.1L6.46,5c.16,0,.21-.06.48.16.1.08,0,0,.12.13.41.28.19.39.58.48.11,0,.09.06.19.13L7.5,5.45a.76.76,0,0,1-.18-.06c.06-.16.15-.27.33-.24l.07,0c.12.07,0-.06.11.14,0-.31-.22-.28-.09-.57-.06-.18-.09-.18-.26-.31A8.24,8.24,0,0,0,4.84,3.25c.32,0,.12,0,.25.08l.8.42-.46,0s0,0,0,0a4.56,4.56,0,0,1,1.23.61L5.21,4l.09.1c0,.1,0,.09-.06.14a3.83,3.83,0,0,1,1.42.59,8.41,8.41,0,0,1-.85-.28c-.52-.15-.56,0-1-.07.16.06.36.07.57.15a1.31,1.31,0,0,1,.39.25s0,0,0,0c-.31-.07-.17-.09-.52-.1L5.52,5,4.86,5l-.35.11a1.43,1.43,0,0,1,.83.22c-.22.11-.27,0-.58.1l.71.3a1.19,1.19,0,0,1-.36,0c-.28,0-.22,0-.32.06.38,0,.38,0,.69.23l-.4-.07L5,6.16l0,0a3.7,3.7,0,0,1-2-.4c-.51-.19-.33-.32-.34-.81l0-.74c0-.34.05-.24.1-.52s0-.37,0-.56a9,9,0,0,1,.36-.86c.05-.13.1-.3.17-.5a1.58,1.58,0,0,1,.56-.76l0,0L4.09.87c.38.56.12.06.49.29.21.13.28.38.51.54l.73.73c.16.16,0,.18.17-.05.08.47.17.13.28.52.28-.36-.06,0,.25.27l.34.18h0c.14,0,0,.15.38.52s.1.38.66.6c.16.15.12-.21.12.13A1.77,1.77,0,0,0,7.94,4c0-.3-.23-.36-.42-.54L7.06,3,7,3c-.2-.15-.11-.07-.26-.27L6,2c-.18-.18-.34-.28-.53-.45s-.31-.35-.49-.5S4.08.55,3.92.27L3.37.51Z"/><path class="cls-2" d="M19.44,3.55a2.26,2.26,0,0,0,0,.27c.05.19-.14.24.15.19.12-.3.1,0,.31-.35s.12-.27.28-.34h0a.58.58,0,0,0,.38-.48l.17-.07c.24-.19.17-.08.22-.38.09.17,0,.2.17.05a6.21,6.21,0,0,1,.72-.73c.28-.2.36-.55.67-.59,0,0,.09.14.34-.24l.29.2A2.68,2.68,0,0,1,23.9,2.4a3.16,3.16,0,0,1,.34.89,9.64,9.64,0,0,1,.08,2.28c-.12.22-.1.15-.37.25a3.6,3.6,0,0,1-2,.38s0,0,0,0l-.47-.26a1.94,1.94,0,0,1,.69-.17c-.11-.09,0,0-.15-.07a.4.4,0,0,0-.16,0,1.31,1.31,0,0,1-.37,0c.19-.16.5-.19.71-.32L22,5.35l-.05,0-.05,0-.11-.06.05,0,.33-.1a.94.94,0,0,0,.3-.07L22.12,5a1.69,1.69,0,0,0-.67,0c.09-.09,0,0,.2-.16l.16-.06c-.29,0-.33,0-.6.1l.26-.21a2.49,2.49,0,0,1,.77-.22A2.41,2.41,0,0,0,21,4.59,5.1,5.1,0,0,0,20,5a4.06,4.06,0,0,1,1.5-.69c.08-.14,0,0,.08-.14s0,.06,0-.16l-1.29.39a4.36,4.36,0,0,1,1.22-.61V3.7c.05-.06,0,0,.1-.07l-.57.11c.3-.22.53-.16.76-.45A8.43,8.43,0,0,0,20.24,4,2.24,2.24,0,0,0,19,5c.18.14-.2,0,.08,0,.13,0-.07-.09.07,0l-.23.4c.11.09.07,0,.17.19.12-.23.08-.22.38-.29-.11.31-.25.36-.36.61l.2-.13c.23-.07,0,.11.15,0,0-.43.77-.74,1.14-.71l0,0a.11.11,0,0,1,0,0l0,.11c0,.09-.05.07-.15.16-.3.24-.09.19-.38.3a1.21,1.21,0,0,1-.22.15c.11-.07.05,0,.2-.08l.13.31L20.43,6c-.39.41.1,0-.06.34-.07.16,0,0-.07.12.22,0,.16,0,.31-.14l-.09.29a.67.67,0,0,1,.42,0c-.16.13-.08.07-.13.3.19-.23.14-.22.49-.3-.1.31.07.17-.26.33a1.29,1.29,0,0,1,.39-.21c-.35.51-.12.34-.32.37L21.43,7l.35-.2c.23-.1.16-.13.37-.17l.15,0s-.14.21,0-.08c.05-.14-.07-.14.13-.1.46,0,1.28-.63,2-.69a6.12,6.12,0,0,1,0,.79,5.89,5.89,0,0,1-.18.62c-.09.59-.12.76-.89.84v.05c.34,0,.33-.17.72-.1a2.38,2.38,0,0,1-.75.34h.12l.57,0c-.21.08-.12,0-.25.14.24.14,0,.09.33.1l.22.19c.08.28,0,0-.1.12s-.07,0-.2.13c-.6.46-.25.3-.25.39a1,1,0,0,0-.22.12c-.24.22.1-.21,0,.32-.05.23,0-.27,0,.13a1.86,1.86,0,0,0,.87-.27c.2-.31.19-.14.34-.27s0,0,.09-.16c0,0,0,0,0-.05v0c.11-.19,0-.06.06,0-.17.06-.2,0-.33-.17.27-.2.27-.11.44-.38L25,8.55l0,0c.11-.13.1-.2.23-.26-.61-.34-.15-.2-.8-.06a.77.77,0,0,0,.17-.12c.23-.21.05,0,.06-.13,0-.49.07,0,.05-.39l-.17-.07a3.86,3.86,0,0,0,.31-2.34c0-.39.11-.41,0-.56l0,0a4.2,4.2,0,0,1-.19-1.21l-.4-1.25A12.15,12.15,0,0,1,23.78.94c-.14-.3-.21-.15-.17-.43h-.24c-.12-.24-.11,0-.23-.2V.23a7.13,7.13,0,0,1-1,.72c-.3.19-.42.48-.92.85a3.07,3.07,0,0,0-.49.43l-.45.4c-.22.24,0,.1-.35.37l-.47.55Z"/><path class="cls-1" d="M4.5,1.6c.16.11.22.11.24.35-.49.09-.82.2-1,.7l-.48,1s0,.21,0,.09,0,0,0,0-.05,0-.05-.13L3.35,3c.32-1.07.11-.43.43-1l.09-.19a.07.07,0,0,1,0,0l.6-.16ZM4.86,5l-.44-.16.46-.13c-.31-.07-.23,0-.3-.17,0,0,0,0,0,0l.16,0c.49,0,.53-.08,1,.07a8.41,8.41,0,0,0,.85.28,3.83,3.83,0,0,0-1.42-.59H4.87A.31.31,0,0,1,5,4.14h.13C4.8,4,4.93,4,4.8,3.87l-.08-.08c.57,0,.43.1.49.18l1.43.41a4.56,4.56,0,0,0-1.23-.61s0,0,0,0l.46,0-.8-.42c-.13-.07.07-.06-.25-.08A8.24,8.24,0,0,1,7.48,4.43c.17.13.2.13.26.31.29.15.12,0,.2,0l0-.26c-.56-.22-.26-.24-.66-.6s-.24-.5-.38-.52h0l-.34-.18c-.31-.31,0-.63-.25-.27-.11-.39-.2,0-.28-.52-.12.23,0,.21-.17.05L5.09,1.7c-.23-.16-.3-.41-.51-.54-.37-.23-.11.27-.49-.29L3.88,1l0,0a1.58,1.58,0,0,0-.56.76c-.07.2-.12.37-.17.5a9,9,0,0,0-.36.86c0,.19,0,.36,0,.56s-.11.18-.1.52l0,.74c0,.49-.17.62.34.81a3.7,3.7,0,0,0,2,.4l0,0,.11-.26.4.07c-.31-.22-.31-.18-.69-.23.1-.07,0-.09.32-.06a1.19,1.19,0,0,0,.36,0l-.71-.3c.31-.11.36,0,.58-.1a1.43,1.43,0,0,0-.83-.22L4.86,5Z"/><path class="cls-3" d="M17.26,20.69l.06,0,1.45-.05c.12.24,0,.12.22.22-.35.12-.22.29-.21.39h-.24l.05.16c.09.19,0,.09.16.17-.23.08-.47,0-.14.25l-.22.21a1.79,1.79,0,0,0-.42.33l-.28.34c-.48-.1-1.12-.38-1.67-.52s-1.18-.24-1.81-.39c-.16-.05-.14-.09-.11.07a14.87,14.87,0,0,1,3.45.9l-.23.13c-.77.68-.64.36-2-.27-.23-.11-.43-.19-.68-.29-.66-.26-.54,0-.62-.38-.15.09-.13-.16-.11.2a7.86,7.86,0,0,1,2.53,1.24,1.3,1.3,0,0,0-.54.07c-.19.1-.22.06-.76,0s-.41,0-.52.13c.62.23.47.17.46.31s-.08,0-.31.29c-.11.16,0,.12-.28.19h0l-.08,0c-1,.19,0,.22-1,.23-.68,0,0-.08-.89-.23-.17,0,0,0-.16,0h-.1c-.14-.06,0,0-.16-.19s0,0-.13-.11-.2,0-.15-.19,0-.09.46-.27c-.18-.18-.07-.13-.32-.15l-.7.07a.69.69,0,0,1-.22,0l-.59-.21A9.31,9.31,0,0,1,13,22.2c0-.36,0-.11-.1-.2-.07.29.06.12-.23.25l-.71.26c-1.41.58-1.49,1.2-2.32.43l-.2-.15a18.44,18.44,0,0,1,3.43-.89c-.05-.16,0,0-.05-.14s-.05-.07-.13-.16c0,.36,0,.21,0,.2s0,0,0,.06c-.59.12-1.18.22-1.79.38s-1.11.4-1.61.5l0,0L9,22.4a3.34,3.34,0,0,0-.39-.32c-.46,0-.17,0-.27.12.27.11.16.12.31.3l.12.12c.11.14,0,0,0,.15l0,.18a3.6,3.6,0,0,0-1.26.65c.41-.12,1-.51,1.36-.56s.29.05.54.18l.13.05.44.24a10.9,10.9,0,0,1-1.42,1,8.89,8.89,0,0,0-1.32,1.14,16.21,16.21,0,0,1,2.87-2,.74.74,0,0,1,.48.08,2.69,2.69,0,0,0,.86.06L11.2,24l.25.09,0,0,.42.47c.32.28.4,0,.82.29l.12.09A2.09,2.09,0,0,0,14,25c.47-.08.3-.38,1-.25a.62.62,0,0,1,.23-.29c0-.2,0-.2-.16-.27l.23.2,0,0,0-.05c.2-.29.42.05.18-.33.16.12.16.11.28,0a.87.87,0,0,1-.27-.27,1.68,1.68,0,0,0,.93-.05c.48-.17.91.23,1.34.51a11.62,11.62,0,0,1,1.87,1.38c-.56-.6-2.65-2-2.69-2.09l.84-.44c.45-.17,1.63.56,2.05.78a10.59,10.59,0,0,0,1,.46l0,0L18.16,23s0,0,0,0l0-.09c0-.17,0-.14.1-.29l0,0,.06-.07a1,1,0,0,1,.78-.47c.68.1,1.39.47,2,.59a2.76,2.76,0,0,0-1.12-.45c-.41-.11-.79-.19-1.18-.3l0-.3a12.74,12.74,0,0,1,2.33.39c.72.16,1.52.47,2.15.58a3.49,3.49,0,0,0-1-.38c-1-.3-2.22-.44-3.25-.72.2,0,.07-.07.07-.07s-.06.1,0-.17l0-.13c.08-.42-.2-.36,1.14-.35l1.12,0c0,.09.06.07-.16.08.25.18.07.08.22.27.12-.13.11-.17.35-.21l.63-.12A27.49,27.49,0,0,1,25.3,21a13.93,13.93,0,0,0-2.77-.33c.18-.2,0-.05.26-.16a.74.74,0,0,0,.22-.1l.21-.18c.27-.28.51-.34.6-.45s-.09-.22.16-.3c-.28-.33,0-.42-.25-.51L24,19c.38-.24-.11-.09.34-.22l-.14-.06c.14,0,.06,0,.15-.06l.24-.32a1.25,1.25,0,0,0,.22-.55c0-.2,0-.14.07-.33l-.18,0a.34.34,0,0,0,0,.16c0-.18-.12-.17-.32-.23a2.3,2.3,0,0,0,0,.32c-.06.31,0,.28-.13.37l-.08.06c-.3.15,0,0-.25,0s-.07,0-.26,0,0,0-.11.06h-.08l-.38.13a8.14,8.14,0,0,1-1.29-.06c-.3,0-.76-.11-1,.06l-.42.11c.25.11.46.34.8.27s-.14,0,.21,0l1.65.38c.22.09.07,0,.2.06s0,0,.17,0,.16.26.16.26c-.06.4,0,0-.18.21s0,0-.27.32l0,0c-.18.19.14.06-.22.17a1,1,0,0,1-.29,0l-.26.12c-.34.16-.18,0-.32.29l-2.49,0c-.13-.29.17-.28-.26-.29.24-.09.23-.05.33-.19.31-.46,0-.57.47-.64-.13-.1-.19-.06-.11-.27a.9.9,0,0,1,.18-.23c.27-.3.12-.07.11-.22s0,0,0-.07c-.77-.18-.44.23-.68.5-.09.1-.07,0-.17.22l-.34.92a1.46,1.46,0,0,0-.07.3l-1.6.11Z"/><path class="cls-2" d="M18.41,13.66a.45.45,0,0,1-.77-.45C17.9,12.73,18.71,13.15,18.41,13.66Zm.7-.76a2.19,2.19,0,0,1,1.07.63,2,2,0,0,1-1.06,1.82,3,3,0,0,1-2.42-.18A4.24,4.24,0,0,1,17,13.9c.16.23.09.63.57.95a1.2,1.2,0,0,0,1.24.09,1.17,1.17,0,0,0,.64-.85,1.31,1.31,0,0,0-.06-.66l-.22-.38c-.08-.11,0,0-.1-.15Zm1.67.82.52-.28c.12.16,0,.14,0,.15l.4.08a1.1,1.1,0,0,0,.72-.13.53.53,0,0,0-.49,0c0-.05.07-.09,0-.2l0,0c.2-.17.08-.13.35-.2.09-.05,0,0,.12-.09-.18-.1-.06.06-.14-.11l-.13-.11a2.82,2.82,0,0,0-.46.23.06.06,0,0,1,0,0c-.09-.21.05-.1-.09-.12a2.36,2.36,0,0,1-.47.48,1.59,1.59,0,0,0,.23-.43l-.13,0,0,0,0,0c-.28.17-.62-.15-.54.3l0-.38c-.42,0-.24-.05-.5-.27a2.71,2.71,0,0,0-1.74-.51,2,2,0,0,0-1.6,1.36l-.6,1.63c-.11.3-.17.27-.25.47-.2.49.09.68.28,1,.08.16.17.35.31.39s-.11,0,.19,0a1.71,1.71,0,0,0,.26.06L16.84,17a.32.32,0,0,0,.43.1c-.1-.26,0,0-.15-.21s-1-.49-.66-.94,1.26-.12,1.95-.17a1.89,1.89,0,0,0,.94-.18c1.17-.77.54-.83,1.43-1.85Z"/><path class="cls-2" d="M8.17,13.68c-.12-.92.61-.68.73-.55.29.29.1.82-.55.71l-.18-.16Zm1.84.56.19.41a1.29,1.29,0,0,1,.08.52,2.91,2.91,0,0,1-2.42.17,2,2,0,0,1-1.07-1.81,2.14,2.14,0,0,1,1.35-.68c0,.05-1.1,1.18,0,2a1.19,1.19,0,0,0,1.84-.6ZM5.06,13c.14,0,.22.15.42.28-.05.26,0,.11-.18.33h.34l.56.13.36.49c.14.24.16.36.27.58a2.25,2.25,0,0,0,.88.83,7.33,7.33,0,0,0,2.37,0c.26,0,.38.2.55.32-.09.72-.52.52-1,1.09.33.15.44-.08.54-.08.25,0-.28-.07.11.05l.13,0s0,.18.06,0c0,0,0,0,0,0,.21-.12.23-.2.35-.44s.51-.55.22-1.08c-.56-1-.85-3.09-2.17-3.34-1.5-.29-2,.73-2.53.79h0l-.11,0c-.14,0-.08.1-.52-.08.07.26.11.23.23.43a4,4,0,0,1-.51-.49V13c0,.13,0,0,0,.1C5.24,13,5.3,13,5.06,13Z"/><path class="cls-1" d="M14,22.2c-.15.38-.35.18-.26.78l.87.39c.17.12.16,0,0,.2,0,0,.18.1-.17,0l-.62-.25c-.18-.1,0-.08-.25-.14s-.35.1-.77.27c-.26.11-.63.14-.43-.1s.79,0,1-.74c-.14-.16-.26-.21-.36-.45a9.31,9.31,0,0,0-2.53,1.19l.59.21a.69.69,0,0,0,.22,0l.7-.07c.25,0,.14,0,.32.15-.48.18-.43.15-.46.27s0,.08.15.19.05,0,.13.11,0,.13.16.19h.1c.17,0,0,0,.16,0,.87.15.21.23.89.23,1,0-.06,0,1-.23l.08,0h0c.28-.07.17,0,.28-.19.23-.32.3-.08.31-.29s.16-.08-.46-.31c.11-.11.06-.19.52-.13s.57.1.76,0a1.3,1.3,0,0,1,.54-.07A7.86,7.86,0,0,0,14,22.2Z"/><path class="cls-2" d="M12.65,21.34l0,.25h0c.08.09,0,0,.13.16s0,0,.05.14l0,.1c.14.09.13-.16.1.2s.22.29.36.45c-.2.73-.81.52-1,.74s.17.21.43.1c.42-.17.56-.32.77-.27s.07,0,.25.14l.62.25c.35.06.17,0,.17,0,.11-.2.12-.08,0-.2L13.7,23c-.09-.6.11-.4.26-.78,0-.36,0-.11.11-.2l0-.09c0-.16,0-.12.11-.07l.1-.24,0-.3a.65.65,0,0,1,.15-.53c.46-.09,1.33-.07.93-.69-.17-.27-.28-.22-.58-.34a1.47,1.47,0,0,0-.75-.15l-.09.1c-.31.23.19-.1-.06,0l-.45.11-.16,0a2.07,2.07,0,0,0-.66-.18c-.46,0-1.72.55-1,1,.48.28,1-.16,1,.71Z"/><path class="cls-2" d="M23.66,13.73l-.16.17-.05,0a1.35,1.35,0,0,1-.71.2l.06,0c.26.14-.11-.18.14.17h-.39l-.07.13c.3.06.11,0,.19.09.58.37.59.23.73.65s.43,0,.44.94l-.05,0-.05,0,0,0-.27.17a7.67,7.67,0,0,1-1.4.18.56.56,0,0,1,.19.07l-.26.22v.07l-.22,0c-.14,0-.08,0-.17.09s-.22.09-.45.17c.14,0,.15,0,.33.05l.06,0h.06l.17,0,.05,0a2.87,2.87,0,0,0,.85.08c.19-.05-.12,0,.17-.05s.41.17.53.21l0-.32c.52.19.34-.1.72.23,0-.06,0-.09.16-.22.1.21,0,.11.14.2s.27.05.32.23a.34.34,0,0,1,0-.16c-.13-.45,0,0,.13-.31a2.88,2.88,0,0,0-.27-.34c.15.07.21.13.38.2a1,1,0,0,1,.24-.5c-.63-.23.2-.11-.25-.28a1.25,1.25,0,0,1-.51-.28l.25-.05c.09-.07-.18-.15.29-.1l.18-.15c-.29,0-.43-.09-.58-.11l.59-.06c0-.23,0-.05-.16-.13a.27.27,0,0,1-.17,0l.57-.21v-.21c.06.16-.07.17-.33.2,0-.1.13-.42.15-.25v-.28c-.24.1-.12,0-.41.1l-.08,0s-.13,0,0-.28a1.87,1.87,0,0,1-.78.32l.31-.21c.19-.11.15-.08.24-.22l-.59.15c.11-.23.09-.27.29-.3-.19,0-.07,0-.24.06l-.71.16.28-.31s.07-.08.09-.09,0,0,.15-.11a.27.27,0,0,0,.14-.07c-.1,0,0-.08-.2,0Z"/><path class="cls-2" d="M3.3,13.89l.26.15c.11.09,0,0,.12.12s0,.08,0,.07,0,0,0,.07c-.3-.05-.31-.1-.58-.15a2.23,2.23,0,0,0-.36-.07c.23,0,.3.19.38.34a4.92,4.92,0,0,0-.68-.18c.2.32.26.14.55.42a1,1,0,0,1-.73-.35l-.05-.05-.16,0c.11.13.16,0,.19.33-.32,0-.26-.18-.56-.05l.15.45c-.3,0-.27,0-.39-.2.14.28,0,.11.23.25a2,2,0,0,0,.41.14c-.12.08.18.1-.23.07-.14.11,0,0-.11.13l.23.15a1.55,1.55,0,0,1-.21,0l.18.12c.53,0,.11,0,.27.08L2,16l.35,0s0,0,.06,0l-.39.16c.52,0,.15-.09.38.19-.16.08-.27.13-.32.33.22-.14.2-.25.42-.28a.42.42,0,0,1,.33.21c-.3.15-.23,0-.48.3l.33,0s0,.05,0,.08l0,.26c0,.33-.25-.22,0,.07.14-.16.05-.12.25-.29.08.13-.06.38.75.09a.62.62,0,0,0,0,.32c.25-.09.3-.26.61-.19l.09,0c.32.08.6-.1.94-.09s1.24.61,1.54.08a4.33,4.33,0,0,0-1-.15v0c0-.07,0,0,0-.09-.67-.12-.2-.32-.79-.21,0-.05.13,0,0-.07s-.09-.05-.19-.08L5,16.49c-.68,0-.67-.19-1.46.22a2.54,2.54,0,0,0,.55-.35l-.56,0-.12,0h-.1c-.05,0-.51-.26-.21-.62a1.94,1.94,0,0,1,.33-.37c.26-.26.09-.13.11-.19s0,0,0-.11a1.2,1.2,0,0,1,.57-.47c.36-.2-.12-.11.35-.23l-.07-.1H4c0-.05-.05-.41.2-.13A1.25,1.25,0,0,1,3.71,14l-.4-.28c-.2-.12-.17,0-.18,0l.17.17Z"/><path class="cls-3" d="M11.58,5a.69.69,0,0,1,0,.41,1.25,1.25,0,0,0,.44,0c0,.4,0,.46.15.62a7.91,7.91,0,0,0,.06.86c0,.23.14.44.18.72.09.54.14,1,.19,1.58A5.69,5.69,0,0,0,12.7,7c-.12-.06,0,0-.07,0h0c-.08-.81,0-.57-.19-1.11s.09-.52.29-.74l.35.13.32,1.18a10,10,0,0,0,.16,1.27c.2.07.24,0,.3,0a4.38,4.38,0,0,1-.21-.81c0-.19,0-.26,0-.44s-.05-.12,0-.34c0,0-.11,0,0,.13s-.1.09.11,0a2.45,2.45,0,0,1,.21-1l.38-.13c.17.29.47.28.24.79A2.59,2.59,0,0,0,14.37,7h-.1a7,7,0,0,0,.11,2.2,17.12,17.12,0,0,1,.28-2,3.51,3.51,0,0,0,.15-1c0-.45.16-.26.17-.88a1.25,1.25,0,0,0,.44,0l0-.26c.35-.13,0,.15.1-.1-.41-.19-.2.13-.45.06s0,0-.19-.15-.35-.15-.39-.15h0c-.23,0-.09-.12-.39-.12s-.2.11-.44.21c-.4.17-.2-.07-.35.17,0-.15,0-.28-.26-.37s-.45.1-.6.11,0-.15-.33.07c-.62.39,0,.26-.54.12Z"/><path class="cls-4" d="M11.91,21.21H10.14c-.54,0-1.26.1-1.77.09a.09.09,0,0,1,0,0l-.12-.2,0,0c-.1-.14,0-.17-.15-.07l.18-.24a17,17,0,0,1,3.68.5Zm-7-.82c0,.13,0,.07-.09.21a.87.87,0,0,1,.5.08c-.1.25,0,.12-.24.16l.27.19s0,0,0,0,.09-.12.26-.25c-.22-.18-.21,0-.19-.1l2.23,0,0,.65c.09.23,0,0,0,0l0,0c-.55.14-3.7.59-4.13,1.11.64-.1,1.4-.38,2.11-.55A13.39,13.39,0,0,1,8,21.53l.07.23c-.72.28-1.58.4-2.39.73l-2.22,1c.11.09-.22.31.39.06l.82-.43A17.25,17.25,0,0,1,7.82,22c.29,0,.31.1.52.21.1-.16-.19-.16.27-.12l-.08-.21a13.18,13.18,0,0,1,4.16-.28l0-.25c-.34,0-.4-.08-.74-.13a12.23,12.23,0,0,0-3.74-.65s0,0,0,0l0-.1c-.14-.38,0-.39-.27-.67-.08.05,0,0-.19.07s-.08,0-.22,0c0,.33-.11.35.37.49-.11-.07.15-.11-.12,0-.06,0,0,0-.08.07-.22.38.11-.16,0,.17l-2.5.05,0-.15s0-.06-.09,0Z"/><path class="cls-3" d="M1.8,16.43l0,0,.08.18v0c.06.14.05.2.17.23s0,0,.19,0c-.23.35-.06.29,0,.39-.12.17-.23.14-.11.69.08.36.14.24.32.23-.12.14-.1-.05,0,.19l.32.32a2,2,0,0,1-.3.17.43.43,0,0,1,.35.2l.23.44c.05.14,0-.06,0,.11s.25.12.54.42c.69.73.5.25.8.58A16.5,16.5,0,0,0,1,21.1c-.31.07-.69.25-.95.28a19.34,19.34,0,0,1,3.84-.64,4.4,4.4,0,0,1,1.27.1c.27,0,.14.09.24-.16a.87.87,0,0,0-.5-.08c.1-.14.06-.08.09-.21l-.26-.14s0,0,0,0l0-.1a.5.5,0,0,1-.41.05c-.18-.06-.09,0-.2-.14-.48-.49.07-.11-.46-.47l-.12-.13c.08-.13.12-.23.28-.28l1.76-.45c.31-.05.38,0,.38,0,.39.09.53-.12.82-.22-.16-.11,0,0-.17-.07l-.31-.15c-.34,0-.7,0-1,0-.68,0-.93.26-1.65-.05l-.09,0c-.05,0,0,0-.15-.08l-.53-.22a1.28,1.28,0,0,1-.07-.21c0-.06-.06.07-.07-.36-.28-.29,0,.26,0-.07l0-.26s0,0,0-.08l-.33,0c.25-.28.18-.15.48-.3a.42.42,0,0,0-.33-.21c-.22,0-.2.14-.42.28,0-.2.16-.25.32-.33-.23-.28.14-.2-.38-.19l-.18,0c.12.16.18.16-.08.22Z"/><path class="cls-3" d="M4,10.69l-.31.22.55,0c0-.07-.06-.11-.15-.18a10.86,10.86,0,0,1,3.16.08c.45.11.89.24,1.32.37,1.06.34,1,.26,1.07.64a6,6,0,0,0-3.54.08c1.18,0,2.81-.66,3.89.26l.24.18c0-.33-.09-.27,0-.56.19-.8-.05-.3.26-.67.15-.19,0,0,.1-.05.1-.26.49-.78.06-1.29a3.41,3.41,0,0,0,.11.83l-.37-1.12s0,0,0,0h0a.84.84,0,0,1-.08-.19c-.06.31-.05.21-.21.39l-.23.42A10.37,10.37,0,0,0,8,6.06L7.83,5.9A10.61,10.61,0,0,0,8.52,7a13,13,0,0,1,.6,1.18,8.72,8.72,0,0,1,.63,2.06l-.08.29s0,.34,0,.41a2.44,2.44,0,0,0-.27-.06c.18.09.34.21.16.43l-.2.19A11.34,11.34,0,0,0,7,10.7a10.45,10.45,0,0,0-3,0Z"/><path class="cls-3" d="M23,10.79l0-.1c-.51,0-1-.12-1.56-.12a9.35,9.35,0,0,0-3.84.93l-.09-.08,0,0-.18-.15c.1-.65-.12-.37.19-1.05-.16.18,0,.1-.29.22.11-1.89,1.88-4.29,1.95-4.5-.14.07,0,0-.12.09l-.09.11a9.89,9.89,0,0,0-1.74,4.05l-.09-.22c-.19-.37-.14,0-.37-.58-.08.4-.09.24-.23.5s-.09.32-.18.53l0-.57a.87.87,0,0,0-.19.7c0,.28.13.26.25.59.08,0,0-.14.11.05l.08.1c.24.23.21.8.17,1.13.22-.11.09-.05.24-.18a1,1,0,0,1,.6-.34,7.34,7.34,0,0,1,3.61.2,7.73,7.73,0,0,0-1.82-.42,6,6,0,0,0-2,.22c.1-.39,0-.28.48-.43A9.08,9.08,0,0,1,23,10.79Z"/><path class="cls-5" d="M10,14.24a1.19,1.19,0,0,1-1.84.6c-1.13-.81-.06-1.93,0-2a2.14,2.14,0,0,0-1.35.68,2,2,0,0,0,1.07,1.81,2.91,2.91,0,0,0,2.42-.17,1.29,1.29,0,0,0-.08-.52L10,14.24Z"/><path class="cls-5" d="M19.11,12.9a.69.69,0,0,0,.09.15l.23.38a1.31,1.31,0,0,1,.06.66,1.17,1.17,0,0,1-.64.85,1.2,1.2,0,0,1-1.24-.09c-.48-.32-.41-.72-.57-.95a4.24,4.24,0,0,0-.34,1.27,3,3,0,0,0,2.42.18,2,2,0,0,0,1.06-1.82,2.11,2.11,0,0,0-1.07-.63Z"/><path class="cls-3" d="M4.47,7l0,0s.46-.39.82.29c-.1.22,0,.14-.17.17a.49.49,0,0,0-.27-.26S4.49,7.07,4.47,7Zm1.89-.18c0-.05,0-.09,0-.19-.24.19-.19-.25-.19.27C6,6.66,6,6.68,5.68,6.63c.08.31,0,.11.14.33s.11.1.18.07,0-.2-.18,0l0,0v0s0,.05,0,0a1.93,1.93,0,0,1-.6-.27l-.49-.2a.1.1,0,0,0,0,0v0c-.11-.17.08,0-.14-.12-.13.26.08,0-.11.14s.09,0-.17.06H3.93l.31.06a.59.59,0,0,1-.36.13.91.91,0,0,1,.43.3c-.18,0-.08,0-.34.07,0,.15-.09-.09,0,.06s.06,0,0,0l-.4,0,.33.3-.55-.1c.13.07.24.16.34.22H3.36c.05.18.43.22.47.38v0a24.84,24.84,0,0,1,2.5,1l2.43,1.21a1.13,1.13,0,0,0-.11-.11A22.6,22.6,0,0,0,6.33,9.06L4.39,8.24c-.22-.12-.06,0-.23-.23s0-.08-.24-.21c.72.36.35.26,1,.08.41-.13.35-.36.58-.5.46-.29,1.06.19,1.4.44A14.91,14.91,0,0,1,8.67,9.29a3.3,3.3,0,0,0,.56.56A11.44,11.44,0,0,0,6.54,7.48l-.21-.12-.23-.2c.06-.13.05-.07.13-.17s0,0,.13-.17Z"/><path class="cls-1" d="M8.61,22.08A2.67,2.67,0,0,1,9,22.4l.27.31,0,0c.5-.1,1.06-.35,1.61-.5s1.2-.26,1.79-.38c0,0,0-.06,0-.06s0,.16,0-.2h0a13.18,13.18,0,0,0-4.16.28l.08.21Z"/><path class="cls-2" d="M1.94,12.51l.16.06a5.9,5.9,0,0,0-.63.25l.31.16s0,0,0,0l-.27.22,0,.1c0,.22,0,0,0,0s.22-.13.45-.17l-.22.24c.14.07.12-.13.09.12,0,.1-.06.09-.1.11a.93.93,0,0,1,.43-.18,3.84,3.84,0,0,0-.27.29l.14,0a8.5,8.5,0,0,1,1.55-.62c0-.17,0-.17.29-.29l-.32-.12L4,12.57l-.35-.08.54-.12c.13,0,.09,0,.15-.09a2.49,2.49,0,0,0-1.72-.23l-.24,0a.85.85,0,0,0-.23,0c-.18,0-.26.12-.41.09.36.11.32,0,.69,0-.18.27.11.06-.25.22a.74.74,0,0,1-.27.06Z"/><path class="cls-1" d="M14.31,21.6l-.1.24c.63.15,1.17.22,1.81.39s1.19.42,1.67.52l.28-.34a1.79,1.79,0,0,1,.42-.33l0-.22c-.66-.08-1.27-.2-2-.25a17.9,17.9,0,0,0-2.07,0Z"/><path class="cls-2" d="M6.44,16.24l.25.25s0,0,0,0c.71.31-.08.08,1,.49l.27.08c.3.06,1.1-.13,1.21-.52a2.86,2.86,0,0,1-1.46-.06,1.42,1.42,0,0,0-.35-.13.8.8,0,0,1-.31-.14c-.12-.1,0,0-.13-.14A.5.5,0,0,0,6.9,16c-.14-.17-.11-.08-.29-.21l0,0L5.82,15a.68.68,0,0,0-1.11.12c.09.09.19.1.34.19s.14.26.43.48C6,16.13,6,15.74,6.44,16.24Z"/><path class="cls-2" d="M17.75,16.56c.11.39.88.64,1.44.45l.07,0c1-.38.42-.22.85-.43s.06.07.49-.38.43-.06.86-.39l.19-.19c.41-.55.3-.21.62-.51a.91.91,0,0,0-.53-.36c-.4-.09-.7.3-1,.73l-.19.18-.11.09-.12.09c-.37.23-.19.27-.46.45a3.22,3.22,0,0,1-2.08.3Z"/><path class="cls-2" d="M24.31,12a2.66,2.66,0,0,0-1.7.24c.08.1.06.09.23.09l.65.19-.24.08.36.17H23.1c.27.09,0,0,.14.14l-.21.12c.48-.11,1.57.61,2,.75.06-.16-.08-.39.27-.16-.09,0-.14-.06-.3-.17L23.93,13a3.3,3.3,0,0,1,1.27.42L25,13.15c.27,0,.21.09.36,0l-.46-.33.27-.12c-.31-.12-.22-.11-.31-.21h.2l-.52-.11c.15-.11-.11,0,.24-.1h.47l-.48-.18.47-.07L25,11.87a.89.89,0,0,0-.34-.08c-.08.19-.1,0,0,.11a.06.06,0,0,0,.1,0l-.3,0c.33.29.23,0,.14.15l-.27,0Z"/><path class="cls-2" d="M15.55,5c-.09.25.25,0-.1.1l0,.26a.81.81,0,0,1,.08.18h-.15a8.07,8.07,0,0,0,.17,1.32c.3,1,.06.11.08,1.09,0,.52-.25.52-.13.88s0,.08.09.15c0-.42,0-.4.3-.6A.57.57,0,0,1,16.05,8l.1-.11a2.88,2.88,0,0,1-.09-1.72c.16.16.09.15.27.12l.08,0,.14,0-.18-.8h.27c0-.28.05-.23-.06-.42Z"/><path class="cls-1" d="M22.4,6.46c.08.14,0,.17.27.19.13,0,.2,0,.38,0l-.3.09c.07,0,0,0,.13.07l.2,0-.4.36h.24c.23,0,.12.06.17.12h.25L23,7.59l.56-.1a1.34,1.34,0,0,0-.34.23h.47a4.39,4.39,0,0,0-.45.3c.77-.08.8-.25.89-.84a5.89,5.89,0,0,0,.18-.62,6.12,6.12,0,0,0,0-.79c-.67.06-1.49.64-2,.69Z"/><path class="cls-2" d="M24,10c-.56,0-.42.23-.45.29l-.21.17c-.25.12-.17,0-.14.12s.37.05-.19.11l0,.1a.77.77,0,0,0-.26.15l1,0c-.08.05-.18.08-.22.16-.15.29.1,0,.05.13l-.42.15a3.91,3.91,0,0,1,.43.11c.12,0,.12.12.24.14.45.12-.2.14.79.25l-.22-.21H25c-.28-.28-.27-.21-.7-.21a1.61,1.61,0,0,1,.64-.21H25c0-.13,0-.1-.09-.2a.94.94,0,0,1-.57.18c.24-.31.3-.17.43-.3s0-.18.31-.31a.86.86,0,0,1-.25-.07c-.2-.08,0-.07-.29-.1.22-.37.17-.08.22-.24s0,0,0,0h-.23l-.1-.06s-.05,0-.05,0l.44-.21a3.41,3.41,0,0,0-.78.22v0l0,0L24,10Z"/><path class="cls-2" d="M10.63,5.46l-.2.78c.06,0-.09,0,.1,0l.16,0c.18,0,.09,0,.22-.13.07.59.06.25.13.26a5.1,5.1,0,0,1-.21,1.46c.05.11,0,0,.1.11s0-.06.09.1a.59.59,0,0,1,.12.3c.12.07.15.05.23.21a3.45,3.45,0,0,1,.07.39l.1-.49c0-.43,0,0-.09-.38a3.53,3.53,0,0,1-.1-.61c-.1-.45.3-.79.27-2-.08.37,0,.12-.16.22,0-.23,0-.23.1-.34a.69.69,0,0,0,0-.41l-.31,0h0C11.08,5,11.11,5,11,5l0,.43,0-.06,0-.06c-.36-.49.16,0-.13-.15h0l-.17,0v.34Z"/><path class="cls-3" d="M7.92,4.47l0,.26c-.08,0,.09.16-.2,0-.13.29,0,.26.09.57-.09-.2,0-.07-.11-.14l-.07,0c-.18,0-.27.08-.33.24a.76.76,0,0,0,.18.06s0-.45.42.25L8,5.56l0,0H8s0,0,0-.16a4.38,4.38,0,0,1-.12-.61c.4.12.07.09.44.24s.07,0,.35.11.35.36.62.45l.32,0h.05l.41,0c.4,0,.23,0,.51-.1V5.12l.17,0h0c.29.18-.23-.34.13.15l0,.06,0,.06L11,5,10.27,5h0c-.29.07-.08,0-.2.14,0-.24-.11-.21-.35-.24s-.14,0-.38.07c-.19-.47,0,0-.37-.36-.2-.16-.25-.28-.43-.43l.13.46A1.4,1.4,0,0,1,8.37,4a.09.09,0,0,0,0,0l-.05.08c-.19.18.14,0-.35-.08A1.77,1.77,0,0,1,8,4.6c0-.34,0,0-.12-.13Z"/><path class="cls-6" d="M14.33,21.3l0,.3a17.9,17.9,0,0,1,2.07,0c.76.05,1.37.17,2,.25l0,.22.22-.21c-.33-.25-.09-.17.14-.25-.18-.08-.07,0-.16-.17l-.05-.16a16.79,16.79,0,0,0-3.18-.05c.31-.27,1.49-.29,1.8-.41l.05,0s0,0,.05,0,0,0,.06,0l-.06,0a5.33,5.33,0,0,0-1.52.26,4.16,4.16,0,0,1-1.41.35Z"/><path class="cls-3" d="M16.58,5c.11.19.08.14.06.42h-.12c.14.21-.05.1.32.12l.45,0c.69,0,.42-.18.93-.47.18-.1.44,0,.78-.39,0,0,0,.06.05-.08.22-.39.37-.3.55-.64-.29,0-.1,0-.15-.19a2.26,2.26,0,0,1,0-.27c-.35.1-.37.31-.55.54-.23-.06,0,0-.14-.1s.08-.07-.07,0-.14.36-.34.65l.14-.46c-.17.15-.24.27-.43.43-.36.31-.2-.1-.37.37-.24-.1-.09-.13-.39-.08s-.25,0-.37.24c0-.06,0-.17-.21-.14l0,0c-.27.06,0-.15-.09,0Z"/><path class="cls-1" d="M12.91,22l0-.1a18.44,18.44,0,0,0-3.43.89l.2.15c.83.77.91.15,2.32-.43l.71-.26C13,22.12,12.84,22.29,12.91,22Z"/><path class="cls-1" d="M14.07,22c.08.35,0,.12.62.38.25.1.45.18.68.29,1.31.63,1.18.95,2,.27l.23-.13a14.87,14.87,0,0,0-3.45-.9l0,.09Z"/><path class="cls-3" d="M4.79,12.92c-.12.05-.11,0-.16.08l.06.18c-.28-.12-.05-.11-.42-.13l.21.17c.12.14-.05.07.11.15l-.49-.11,0,0-.31.07c.12.12.13.08.08.17l-.25-.15c-.23.09,0,0-.1.18s0,.06-.17.17l.4.28a1.25,1.25,0,0,0,.52.11c-.25-.28-.16.08-.2.13h.4l.11-.11,0,0c-.15-.11-.07.06,0,0,.78,0,.51-.37,1.71-.34l-.56-.13H5.3c.21-.22.13-.07.18-.33-.2-.13-.28-.32-.42-.28L5,12.82c-.11,0-.06,0-.08.06s.08,0-.08,0Z"/><path class="cls-3" d="M21.43,7l-.05.23c.37,0,.35-.14.35.29.35-.06.13,0,.35-.15a2.29,2.29,0,0,0,.23-.21,1,1,0,0,0-.45.48A.59.59,0,0,0,22.2,8c.45.09.21.21.86-.15-.22.15-.11,0-.27.25l-.29.28s0,0-.05,0l.8-.3V8a3.51,3.51,0,0,1,.45-.3h-.47a1.34,1.34,0,0,1,.34-.23l-.56.1.33-.29h-.47c-.12.08-.14.07-.19.18.3-.21.09.08.2-.32l-.17.06c-.33.12-.12,0-.35.19l.12-.63c-.05,0-.33.07-.33-.12-.21,0-.14.07-.37.17l-.35.2Z"/><path class="cls-3" d="M22.24,13.15c-.27.07-.15,0-.35.2l0,0c.1.11,0,.15,0,.2a.53.53,0,0,1,.49,0,1.1,1.1,0,0,1-.72.13l-.4-.08s.09,0,0-.15l-.52.28c1.15,0,1,.39,1.7.35,0,.11.12-.08,0,0s-.06.06-.07.05,0,0,0,.05l.2,0h.39c-.25-.35.12,0-.14-.17l-.06,0a1.35,1.35,0,0,0,.71-.2l.05,0,.16-.17c-.16-.11-.06.1-.17-.17l0-.18-.32.11s.05-.06.11-.15c-.33-.08-.3,0-.24-.2-.33,0-.25.06-.54.19l.25-.3c-.41,0-.21.07-.48.12Z"/><path class="cls-7" d="M19.79,5.86c-.2.17-.15.12-.24.31h0l.16.17c.25-.15.28-.28.29-.07.23,0,.19-.1.14.33h.26c-.15.18,0,0-.13.23a.69.69,0,0,1,.37.08l.21.25-.24.18a10.88,10.88,0,0,0-2.9,2.53c.17-.09,0,0,.18-.12s0,0,.09-.11l.22-.24,1.45-1.24L19.94,8l.84-.55c.41-.25.42-.14.54-.09.28.13.07-.08.29.26l.12,0c0-.43,0-.32-.35-.29L21.43,7l-.32.08c.2,0,0,.14.32-.37A1.29,1.29,0,0,0,21,7c.33-.16.16,0,.26-.33-.35.08-.3.07-.49.3.05-.23,0-.17.13-.3a.67.67,0,0,0-.42,0l.09-.29c-.15.13-.09.11-.31.14.06-.11,0,0,.07-.12.16-.36-.33.07.06-.34l-.31.09L20,5.78c-.15.06-.09,0-.2.08Z"/><path class="cls-1" d="M11.91,21.21a17,17,0,0,0-3.68-.5L8.05,21c.1-.1,0-.07.15.07l0,0,.12.2a.09.09,0,0,0,0,0c.51,0,1.23-.07,1.77-.09Z"/><path class="cls-1" d="M17.32,20.73s0,0-.06,0,0,0-.05,0l-.05,0c-.31.12-1.49.14-1.8.41a16.79,16.79,0,0,1,3.18.05h.24c0-.1-.14-.27.21-.39-.25-.1-.1,0-.22-.22l-1.45.05Z"/><path class="cls-2" d="M11.55,15.47a4.25,4.25,0,0,0,.16-.7,2.18,2.18,0,0,1,.11-.81,1.31,1.31,0,0,0,.08-1.42h0c-.25,0-.17,0-.18-.09-.15.84-.39,1-.29,1.39a9,9,0,0,1,.15,1.63Z"/><path class="cls-7" d="M1.94,12.51a.74.74,0,0,0,.27-.06c.36-.16.07.05.25-.22-.37,0-.33.11-.69,0,.15,0,.23,0,.41-.09a.85.85,0,0,1,.23,0l.24,0,.77-.34c-.3-.05-.17-.05-.25-.12-.41.14.14.13-.75.26l.23-.23L2,11.67c.25-.28.33-.2.69-.21-.09-.1,0-.05-.17-.12l-.47-.12-.29.11.29.08-.3.12s0,.18,0,.18c0,.28-.26,0-.28.48-.23,0,.33-.1,0,.26.53,0,.34-.13.44.06Z"/><path class="cls-3" d="M11.54,8.52l-.1.49a3.45,3.45,0,0,0-.07-.39c-.08-.16-.11-.14-.23-.21,0,.22.16.42.22.62.17.57.13.32.21.4s0,.38.15.61.73.54.62-.12c-.06-.37-.17-.12-.3-.47a6.7,6.7,0,0,0-.28-.83c-.13-.16.09-.18-.22-.1Z"/><path class="cls-2" d="M15.42,15.47c0-.38,0-.69.05-1.09.15-1.17.24-.34,0-1.2s-.08-.53-.26-.63l0-.06a.12.12,0,0,1,0-.11,1.79,1.79,0,0,0-.23.76c-.08.86.23.11.33,1.63A6.61,6.61,0,0,0,15.42,15.47Z"/><path class="cls-3" d="M24.27,9.74l-.13.1L24,10l.05.07,0,0v0a3.41,3.41,0,0,1,.78-.22l-.44.21s0,0,.05,0l.1.06h.23s0,0,0,0,0-.13-.22.24c.26,0,.09,0,.29.1a.86.86,0,0,0,.25.07l.19,0c-.09-.19-.18-.21,0-.29h-.38a1.43,1.43,0,0,1,.1-.19l.21-.43c-.25.06-.38.14-.6,0,.2-.11.33-.21.34-.44s-.08-.11,0-.26.16-.15.07-.46l0,0-.06.09c-.17.27-.17.18-.44.38.13.16.16.23.33.17-.1,0,0-.15-.06,0v0s0,0,0,.05c-.08.18.1,0-.09.16s-.14,0-.34.27Z"/><path class="cls-4" d="M25,13.83c.16.28.15.2.38.35,0-.35.09-.17-.12-.33l.32-.54L25.47,13l.34,0c-.09-.15-.06-.37-.71-.53h-.25c.09.1,0,.09.31.21l-.27.12.46.33c-.15.07-.09,0-.36,0l.21.23A3.3,3.3,0,0,0,23.93,13L25,13.5c.16.11.21.2.3.17-.35-.23-.21,0-.27.16Z"/><path class="cls-7" d="M25.39,14.82l.12-.11h0c-.24-.13,0-.81-.47-.3,0-.17,0-.12-.11-.25-.29,0-.17,0-.38.17l.13-.29a1,1,0,0,1-.26.08l-.08-.06c-.29-.27-.24-.09-.45-.16s0,.17-.14-.1c-.17.1,0,0-.15.11s-.06.07-.09.09l-.28.31.71-.16c.17,0,.05-.05.24-.06-.2,0-.18.07-.29.3l.59-.15c-.09.14-.05.11-.24.23l-.31.2a1.87,1.87,0,0,0,.78-.32c-.09.31,0,.25,0,.28l.08,0c.29-.1.17,0,.41-.1v.28c0-.17-.11.15-.15.25.26,0,.39,0,.33-.2Z"/><path class="cls-4" d="M23.78,11.61l-.23.08.4.19c.13.07.25.09.36.16l.27,0c.09-.14.19.14-.14-.15l.3,0a.06.06,0,0,1-.1,0c-.09-.16-.07.08,0-.11a.89.89,0,0,1,.34.08l.24.14-.47.07.48.18h-.47c-.35.07-.09,0-.24.1l.52.11c.13-.1-.09-.08.43,0-.29-.44.2-.19,0-.29,0-.29,0-.12-.12-.29-.43-.45.15-.31-.42-.48l.34-.08-.34-.1a1.61,1.61,0,0,0-.64.21c.43,0,.42-.07.7.21h-.64l.22.21c-1-.11-.34-.13-.79-.25Z"/><path class="cls-2" d="M3.9,1.76a.07.07,0,0,0,0,0L3.78,2c-.32.58-.11-.06-.43,1l-.22.68c0,.14,0,.06.05.13s0-.05,0,0,0-.08,0-.09l.48-1c.2-.5.53-.61,1-.7,0-.24-.08-.24-.24-.35l-.6.16Z"/><path class="cls-7" d="M14.67,9.81c.08-.09.13-.15.16-.09.22-.09,0-.21.13,0s0,.05,0,.08a.58.58,0,0,1,.19-.39,1.91,1.91,0,0,0,.07.63.08.08,0,0,0,0,0c.14-.09.1-.12.12-.21s0-.21,0-.26.05-.16.14-.2a4,4,0,0,0,.37-1c-.26.2-.26.18-.3.6-.05-.07,0,.06-.09-.15s.15-.36.13-.88c0,0,0,0,0,.06l-.08.18s0,.11-.25.24c-.05.16-.06.2-.13.38-.4,1.14-.18.46-.44,1Z"/><path class="cls-2" d="M23.87,3.67a.57.57,0,0,0-.07-.13c-.3-.54-.12-.94-.67-1.69-.07-.1-.72-.51-.9.06.3.16.78.09,1,.73.09.23.18.37.27.58s.09.21.15.33.06.33.09.22,0,0,0,0,.07,0,.07-.14Z"/><path class="cls-1" d="M18.41,13.66c.3-.51-.51-.93-.77-.45A.45.45,0,0,0,18.41,13.66Z"/><path class="cls-1" d="M8.17,13.68l.18.16c.65.11.84-.42.55-.71-.12-.13-.85-.37-.73.55Z"/><path class="cls-7" d="M21.79,17.2l-.05,0-.17,0h-.06l-.06,0c-.18,0-.19-.09-.33-.05.23-.08.29-.05.45-.17s0-.08.17-.09l.22,0v-.07l.26-.22a.56.56,0,0,0-.19-.07c-.12.21,0,.09-.21.15l-.19,0s0,.06,0,.17c-.44,0-.46.23-.77.31l-.76.2c.24.53,1.17,0,1.65-.07Z"/><path class="cls-6" d="M3.61,13.14,4,13.05c-.21.16-.06.1-.22.21a2.67,2.67,0,0,0-.24.12l.25.15c0-.09,0,0-.08-.17l.31-.07,0,0,.49.11c-.16-.08,0,0-.11-.15l-.21-.17c.37,0,.14,0,.42.13L4.63,13c0-.09,0,0,.16-.08-.08-.16,0-.08-.14-.2-.29.09-.16,0-.22.24-.12-.12-.24-.17-.28-.22-.16-.21.06-.05.1-.18l0-.19-.54.12.35.08-.45.16.32.12c-.34.12-.32.12-.29.29Z"/><path class="cls-6" d="M25.17,16.45l.07-.34c0-.24.11-.16.13-.24s0,0,.05,0a.37.37,0,0,0-.3-.12l.3,0c-.13-.29-.05-.09.19-.3a.44.44,0,0,0-.63-.07c.19.08.14-.1.16.13l-.59.06c.15,0,.29.08.58.11l-.18.15c-.47-.05-.2,0-.29.1l-.25.05a1.25,1.25,0,0,0,.51.28c.45.17-.38,0,.25.28Z"/><path class="cls-3" d="M7.43,19.8c.14,0,.1,0,.22,0s.11,0,.19-.07c-.25-.85-.37-.47-.41-.8s-.21-.39-.57-.3c0,.11,0,0,0,.1l.05.12c.49.57.29.45.14.56l.27.08s0,.17,0,.17c0,.18.1.13.1.13Z"/><path class="cls-7" d="M1.9,10.61c.23-.15.19.07.37-.21l.23.14c.14.07-.11,0,.17.06l-.3.13s0,0,0,0l.21.16c.19-.05,0,0,.18-.06s0,0,.09-.07,0-.1,0-.14-.2-.2-.44-.33l-.22-.16c.26,0,.13,0,.38,0a.85.85,0,0,0-.13-.1c-.44-.29-.35-.15-.16-.26L2,9.69a1.1,1.1,0,0,0-.26-.06c.07.17,0,.08.12.2s.09.06.13.08l0,0-.05.12c.05.13,0,0,.15.19l-.38,0c.08.05.13,0,0,.32l.2,0Z"/><path class="cls-6" d="M1.8,16.43c.26-.06.2-.06.08-.22l.18,0L2.45,16s0,0-.06,0L2,16l.26-.17c-.16-.11.26-.07-.27-.08l-.18-.12a1.55,1.55,0,0,0,.21,0l-.23-.15c.09-.18,0,0,.11-.13-.17-.23-.46,0-.59.09.17.12.14,0,.32.21,0,0-.32.1.19.1l-.31.13c.32.28.09.11.21.48l0,.13Z"/><path class="cls-7" d="M2.35,14.31a1,1,0,0,0,.73.35c-.29-.28-.35-.1-.55-.42a4.92,4.92,0,0,1,.68.18c-.08-.15-.15-.31-.38-.34a2.23,2.23,0,0,1,.36.07c.27,0,.28.1.58.15,0,0,0-.09,0-.07s0-.05,0-.07,0,0-.12-.12l-.26-.15c-.28,0-.21,0-.37,0-.33,0-.24.14-.24.14s0,.11-.37,0c.13.41.14.18,0,.28Z"/><path class="cls-7" d="M19.49,5.75c0,.27,0,.09.1.17l.33-.3.09.09c.29-.11.08-.06.38-.3.1-.09.11-.07.15-.16l0-.11a.11.11,0,0,0,0,0l0,0c-.37,0-1.13.28-1.14.71Z"/><path class="cls-4" d="M4.86,5l.66,0-.27-.22c.35,0,.21,0,.52.1,0,0,0-.06,0,0a1.31,1.31,0,0,0-.39-.25c-.21-.08-.41-.08-.57-.15l-.16,0,0,0c.07.2,0,.1.3.17l-.46.13L4.86,5Z"/><path class="cls-4" d="M2.06,13.76l-.14,0a3.84,3.84,0,0,1,.27-.29.93.93,0,0,0-.43.18s.09,0,.1-.11c0-.25,0,0-.09-.12L2,13.16c-.23,0-.33,0-.45.17s0,.2,0,0l0-.1c-.05,0-.15,0-.19.07s0,.4.32.52c-.15.19-.09,0-.11.32a.77.77,0,0,0,.5-.36Z"/><path class="cls-4" d="M22.12,5a.53.53,0,0,1,.5-.08c-.17-.16-.22-.15-.52-.2.3-.09.22,0,.3-.18s.15-.06-.16-.06a2.49,2.49,0,0,0-.77.22l-.26.21c.27-.07.31-.14.6-.1l-.16.06c-.21.12-.11.07-.2.16a1.69,1.69,0,0,1,.67,0Z"/><path class="cls-3" d="M7,5.82c0-.39,0-.11.08-.19l.33.28a1.5,1.5,0,0,0-.51-.58l.12,0c-.07-.09,0,0-.12-.13C6.67,4.94,6.62,5,6.46,5l-.08.34.18.1.08,0,.07,0c.18.12,0,.22.33.29Z"/><path class="cls-7" d="M22.15,6.67c0,.19.28.13.33.12l-.12.63c.23-.21,0-.07.35-.19l.17-.06c-.11.4.1.11-.2.32.05-.11.07-.1.19-.18h.22c-.05-.06.06-.09-.17-.12h-.24l.4-.36-.2,0c-.13,0-.06,0-.13-.07l.3-.09c-.18,0-.25,0-.38,0-.29,0-.19-.05-.27-.19s-.08,0-.13.1c-.11.29,0,.08,0,.08l-.15,0Z"/><path class="cls-7" d="M1.53,14.83c.12.21.09.15.39.2l-.15-.45c.3-.13.24,0,.56.05,0-.3-.08-.2-.19-.33l.16,0c-.18-.13.23-.09-.23-.12l-.18.22c-.13-.16-.12-.12-.31-.13.1.22.06.39-.13.48l.08.12Z"/><path class="cls-3" d="M14.67,9.81a.51.51,0,0,0,.11.58c.17,0,.33-.2.43-.33a.08.08,0,0,1,0,0,1.91,1.91,0,0,1-.07-.63.58.58,0,0,0-.19.39s.16.08,0-.08.09-.07-.13,0c0-.06-.08,0-.16.09Z"/><path class="cls-4" d="M23.13.23V.32c.12.21.11,0,.23.2h.24l.27-.18c-.13-.09.05,0-.14-.06l-.13,0c.19-.12.16-.07.25-.29a.63.63,0,0,0-.24.09c-.2.11-.09,0-.15.14l0-.1s0,0,0,0l0,0c-.31,0-.14,0-.27.18Z"/><path class="cls-4" d="M23.24,13c-.1-.15.13-.05-.14-.14h.51l-.36-.17.24-.08-.65-.19-.07.22c.29.12.22.14-.08.25Z"/><path class="cls-4" d="M3.37.51,3.92.27C3.8.09,3.85.09,3.58.05L3.51.23C3.42.08,3.32.05,3.11,0a.88.88,0,0,0,.26.34c-.36-.26-.28,0-.28,0Z"/><path class="cls-4" d="M2,11.24l.07-.16a1.47,1.47,0,0,0,.69.1c-.1-.06-.43-.17-.51-.23s0-.11-.15-.23-.11-.08-.2-.11l-.1.54Z"/><path class="cls-4" d="M25,11.24c.41-.15.17-.28.16-.31a.08.08,0,0,1,0,0l-.06-.28c-.34.13-.1.11-.31.31s-.19,0-.43.3a.94.94,0,0,0,.57-.18c.08.1.05.07.09.2Z"/><path class="cls-7" d="M6.63,6.76v-.2c.21.07.11.06.2,0L7,6.15A.77.77,0,0,0,6.54,6c.2.17,0,0,.13.2l-.17,0h0l.2.28c-.39,0-.21-.12-.25.25a.53.53,0,0,0,.2.06Z"/><path class="cls-2" d="M4.43,7l0,0c0,.07.31.14.34.16a.49.49,0,0,1,.27.26c.19,0,.07,0,.17-.17C4.89,6.57,4.43,7,4.43,7Z"/><path class="cls-7" d="M24.11,8.92c.14-.13.18.16.1-.12L24,8.61c-.32,0-.09,0-.33-.1.13-.14,0-.06.25-.14l-.57,0,.19.37.46.14c.18.05.05-.07.12.09Z"/><path class="cls-4" d="M7,6.17l.17.2c.2-.11,0,0,.13-.12l0,0,0-.38-.21,0H6.9A.77.77,0,0,1,7,6.17Z"/><path class="cls-4" d="M24,19.43s0,0,0-.06l0-.05a.14.14,0,0,0,0-.06l.12-.22a.66.66,0,0,1,.32-.17l-.17-.11c-.45.13,0,0-.34.22l-.26-.06c.26.09,0,.18.25.51Z"/><path class="cls-4" d="M3.53,16.38l0-.22c-.27,0-.19,0-.35-.14l.06-.17c-.22,0,0,0-.12-.14-.3.36.16.61.21.62h.1l.12,0Z"/><path class="cls-4" d="M5.24,4.21c.08,0,0,0,.06-.14L5.21,4c-.06-.08.08-.15-.49-.18l.08.08c.13.16,0,.12.34.26H5a.31.31,0,0,0-.14.06Z"/><path class="cls-7" d="M21.63,4c-.05.22,0,0,0,.16s0,0-.08.14l.31-.19c.18,0,.18,0,.27-.12s-.16.06.14-.17a1,1,0,0,0-.6.18Z"/><path class="cls-4" d="M22.22,13c.08.17,0,0,.14.11.2-.15.18,0,.1-.3C22.19,12.83,22.33,12.75,22.22,13Z"/></g></g></g></svg>